<svg xmlns="http://www.w3.org/2000/svg" width="32" height="32" viewBox="0 0 32 32" fill="none" stroke="currentColor" stroke-linecap="round" stroke-linejoin="round" aria-hidden="true">
  <!-- Slightly irregular circle -->
  <path stroke-width="1.8" d="M16 4.5 C22.5 4 28 9.5 27.5 16 C27 22.5 22.5 28 16 27.5 C9.5 28 4 22 4.5 16 C5 9.5 9.5 4 16 4.5 Z"/>
  <!-- Crater 1 — upper-left -->
  <path stroke-width="1.2" d="M10 13.5 C10 12.2 13 12.2 13 13.5 C13 14.8 10 14.8 10 13.5 Z"/>
  <!-- Crater 2 — lower-right -->
  <path stroke-width="1.2" d="M19.5 20.5 C19.5 19.5 21.5 19.5 21.5 20.5 C21.5 21.5 19.5 21.5 19.5 20.5 Z"/>
  <!-- Crater 3 — upper-right -->
  <path stroke-width="1" d="M18.5 9.5 C18.5 8.8 20 8.8 20 9.5 C20 10.2 18.5 10.2 18.5 9.5 Z"/>
</svg>
