<svg xmlns="http://www.w3.org/2000/svg" viewBox="0 0 671.000000 347.030707" fill="currentColor" aria-hidden="true">
<g transform="translate(-21.000000,347.000000) scale(0.100000,-0.100000)" fill="currentColor" stroke="none">
<path d="M210 1735 l0 -1735 1116 0 1116 0 -62 68 c-240 260 -350 603 -320
996 28 368 118 591 352 871 84 101 207 221 267 260 22 15 51 44 66 65 52 75
151 159 227 194 156 71 400 118 618 118 362 0 669 -109 925 -328 39 -33 115
-96 170 -141 170 -137 272 -257 351 -416 98 -194 137 -368 137 -602 -1 -354
-103 -654 -323 -955 -38 -52 -74 -103 -80 -112 -10 -17 43 -18 1070 -18 l1080
0 0 1735 0 1735 -3355 0 -3355 0 0 -1735z"/>
<path d="M3367 2449 c-112 -16 -273 -60 -342 -94 -38 -18 -62 -34 -52 -34 9
-1 17 -5 17 -10 0 -14 -71 -74 -152 -129 -112 -76 -177 -135 -290 -268 -189
-222 -274 -369 -321 -559 -28 -111 -54 -291 -44 -301 16 -16 523 -25 812 -15
397 15 531 22 546 32 10 6 10 59 0 271 -23 462 -25 725 -7 898 9 85 19 170 22
188 l6 32 -68 -1 c-38 -1 -95 -5 -127 -10z m-196 -459 c52 -28 67 -143 24
-185 -41 -42 -131 -29 -154 22 -20 43 -13 78 25 126 38 49 65 58 105 37z
m-336 -362 c24 -28 27 -39 22 -82 -3 -40 -11 -55 -36 -78 -95 -85 -227 34
-145 131 14 17 32 31 39 31 7 0 18 7 25 15 22 26 65 18 95 -17z m421 -173 c26
-40 15 -132 -20 -162 -54 -46 -136 -12 -136 57 0 32 30 70 56 70 8 0 20 14 25
30 14 39 51 41 75 5z"/>
<path d="M3637 2363 c-15 -242 -18 -408 -8 -538 5 -77 15 -205 21 -285 6 -80
14 -217 18 -305 l7 -160 70 3 c39 2 165 10 280 18 433 30 603 29 959 -2 l69
-6 -6 103 c-15 263 -133 522 -319 706 -95 93 -364 314 -451 370 -143 93 -304
151 -492 178 -156 23 -141 31 -148 -82z m490 -265 c7 -5 19 -32 28 -59 13 -39
14 -56 6 -81 -17 -47 -40 -68 -76 -68 -35 0 -55 15 -55 42 0 14 -6 16 -28 12
-25 -5 -33 0 -60 33 -39 49 -47 82 -28 108 20 27 50 9 54 -34 3 -28 6 -31 25
-25 34 10 47 24 47 50 0 40 49 52 87 22z m318 -308 c13 -14 25 -18 48 -13 22
5 33 1 44 -12 21 -30 16 -90 -11 -121 -22 -26 -25 -27 -55 -15 -50 21 -91 75
-91 119 0 59 31 79 65 42z m-290 -236 c23 -24 15 -66 -17 -83 -25 -15 -29 -14
-52 8 -30 28 -32 38 -10 69 18 26 56 29 79 6z m-105 -99 c0 -31 5 -47 15 -51
36 -14 9 -75 -42 -95 -38 -14 -53 -11 -84 20 -53 53 -29 128 51 160 51 20 60
15 60 -34z m610 15 c37 -37 19 -157 -25 -174 -32 -12 -75 -6 -95 14 -25 25
-25 37 0 75 11 17 20 43 20 58 0 45 65 62 100 27z m-194 -96 c20 -29 11 -69
-18 -88 -39 -24 -80 61 -48 99 19 23 48 18 66 -11z"/>
<path d="M4325 994 c-22 -2 -166 -11 -320 -19 -154 -9 -291 -18 -303 -21 l-24
-5 6 -167 c3 -92 14 -305 23 -474 l17 -308 437 0 437 0 65 83 c154 198 261
386 322 571 33 97 65 249 65 306 l0 27 -212 6 c-205 7 -431 7 -513 1z m247
-320 c73 -47 98 -147 45 -176 -13 -7 -62 -12 -115 -13 -93 0 -94 0 -123 33
-16 18 -29 42 -29 55 0 38 37 85 87 111 54 29 79 27 135 -10z m-420 -60 c42
-21 68 -62 68 -105 0 -59 -31 -74 -146 -73 -129 2 -175 30 -159 97 8 32 64 85
101 97 35 10 99 3 136 -16z m214 -397 c49 -50 61 -84 42 -123 -22 -46 -62 -68
-132 -72 -77 -5 -123 9 -161 48 -26 27 -27 31 -15 60 16 38 75 80 111 80 17 0
32 9 43 25 25 38 61 33 112 -18z"/>
<path d="M2180 881 c0 -153 49 -352 121 -491 55 -106 125 -194 236 -299 l96
-91 281 2 281 3 5 85 c6 83 22 132 58 173 50 57 107 -31 119 -185 l6 -78 108
0 109 0 0 63 c0 34 -6 156 -14 272 -8 116 -18 301 -22 413 l-7 204 -46 -6
c-25 -3 -172 -11 -326 -17 -296 -12 -544 -7 -810 16 -88 8 -168 15 -177 15
-16 0 -18 -10 -18 -79z m429 -120 c26 -26 41 -83 41 -159 0 -96 -38 -150 -88
-123 -52 28 -71 102 -47 192 26 105 54 130 94 90z m353 -21 c44 -89 82 -386
68 -526 -15 -147 -41 -205 -81 -183 -25 13 -36 42 -60 154 -38 179 -34 510 6
572 22 32 46 26 67 -17z m363 0 c20 -38 38 -155 32 -202 -11 -80 -73 -104
-121 -47 -22 26 -26 40 -26 96 0 79 15 135 46 168 27 29 49 24 69 -15z m-652
-390 c53 -42 60 -144 12 -176 -29 -19 -60 -11 -79 19 -26 41 -24 129 4 157 25
25 31 25 63 0z"/>
</g>
</svg>
