<svg xmlns="http://www.w3.org/2000/svg" viewBox="0 0 671.000000 340.000000" fill="currentColor" aria-hidden="true">
<g transform="translate(-21.000000,340.000000) scale(0.100000,-0.100000)" fill="currentColor" stroke="none">
<path d="M210 1700 l0 -1700 1432 0 1431 0 -20 23 c-63 70 -160 245 -207 375
-165 459 -45 1148 260 1493 103 117 212 202 337 263 65 32 117 63 117 71 0 46
159 142 320 193 338 107 679 107 995 0 333 -112 653 -381 846 -710 117 -199
209 -553 209 -803 0 -35 -7 -117 -15 -182 -31 -231 -127 -451 -292 -666 l-44
-57 670 0 671 0 0 1700 0 1700 -3355 0 -3355 0 0 -1700z m2974 714 c38 -38 -3
-97 -64 -92 -31 3 -35 6 -38 34 -5 54 66 95 102 58z m-279 -288 c14 -10 20
-26 20 -56 0 -35 -6 -47 -33 -71 -61 -54 -132 -31 -132 43 0 75 88 126 145 84z"/>
<path d="M4240 2381 c-68 -26 -129 -68 -192 -132 l-58 -57 15 -36 c8 -19 15
-51 15 -69 0 -59 12 -127 23 -127 5 0 39 25 74 55 35 30 90 73 123 96 l60 42
0 56 c0 31 3 86 7 124 7 76 6 77 -67 48z"/>
<path d="M4380 2372 c0 -16 7 -43 16 -61 22 -44 20 -114 -5 -162 -18 -35 -21
-57 -21 -184 l0 -145 43 0 c106 0 395 53 418 77 11 11 -93 224 -145 296 -88
123 -197 206 -273 207 -30 0 -33 -3 -33 -28z"/>
<path d="M4678 2316 c66 -69 111 -135 166 -245 l38 -74 17 30 c41 67 101 98
213 111 l63 8 -65 43 c-120 79 -267 139 -423 174 l-69 15 60 -62z"/>
<path d="M3946 2322 c-44 -16 -81 -33 -83 -39 -4 -11 45 -43 64 -43 4 0 30 25
56 55 27 30 47 55 45 55 -2 0 -39 -13 -82 -28z"/>
<path d="M3695 2216 l-89 -43 34 -11 c50 -18 80 -50 80 -87 0 -36 -24 -62 -85
-93 -28 -14 -35 -22 -25 -26 50 -19 135 -46 145 -46 7 0 17 17 23 38 6 20 33
80 60 134 l48 96 -33 16 c-18 9 -38 27 -43 41 -5 14 -13 25 -17 24 -5 0 -48
-20 -98 -43z"/>
<path d="M3918 2070 c-46 -78 -84 -180 -70 -189 16 -10 264 -49 365 -57 l77
-6 0 90 c0 49 3 104 6 121 4 17 2 31 -3 31 -5 0 -50 -37 -99 -83 -101 -93
-137 -113 -177 -98 -43 17 -60 54 -66 149 l-6 87 -27 -45z"/>
<path d="M3470 2074 c-25 -14 -46 -27 -48 -29 -1 -1 18 -12 43 -24 l46 -22 66
37 c60 34 64 38 47 51 -30 22 -104 16 -154 -13z"/>
<path d="M5215 2070 c-16 -4 -61 -8 -99 -9 -50 -1 -79 -7 -107 -23 -39 -22
-97 -93 -86 -105 4 -3 38 8 75 25 38 18 79 32 92 32 28 0 180 69 180 82 0 9
-12 9 -55 -2z"/>
<path d="M5246 1975 c-74 -40 -79 -44 -81 -78 -4 -74 -89 -156 -162 -157 -27
0 -28 -3 -7 -85 16 -63 17 -65 58 -76 22 -6 71 -24 108 -40 43 -19 83 -29 115
-29 96 0 164 -34 166 -83 1 -15 7 -27 12 -27 6 0 56 18 113 40 56 22 109 40
117 40 8 0 15 7 15 15 0 28 -70 163 -131 256 -56 82 -223 271 -238 268 -3 -1
-41 -21 -85 -44z"/>
<path d="M3267 1918 c-52 -51 -118 -129 -147 -172 -60 -89 -144 -261 -136
-275 10 -16 405 -139 411 -128 1 1 16 32 34 69 34 72 56 93 169 162 l66 41 27
93 c26 88 26 93 9 102 -30 16 -40 12 -86 -30 -36 -33 -51 -40 -84 -40 -52 0
-76 13 -95 50 -20 39 -19 88 4 132 l18 37 -38 26 c-21 14 -43 25 -49 25 -5 0
-52 -42 -103 -92z"/>
<path d="M3515 1897 c-20 -28 -19 -73 1 -81 21 -8 48 8 72 42 l20 27 -39 17
c-38 16 -39 16 -54 -5z"/>
<path d="M5008 1871 c-63 -24 -81 -42 -59 -56 30 -18 151 42 151 75 0 14 -16
11 -92 -19z"/>
<path d="M4765 1794 c-85 -22 -174 -35 -326 -49 l-67 -6 -7 -222 c-4 -122 -5
-235 -4 -252 l4 -30 102 0 102 0 43 41 c91 88 203 132 300 119 l51 -7 -7 53
c-4 30 -9 55 -10 56 -2 2 -34 -11 -72 -29 -116 -54 -212 -48 -242 15 -21 43
-6 84 46 131 24 23 61 59 81 80 20 21 55 51 78 66 35 23 40 30 30 42 -11 14
-22 13 -102 -8z"/>
<path d="M3844 1768 c44 -76 35 -104 -51 -147 -23 -12 -47 -29 -52 -39 -12
-23 -56 -290 -49 -297 11 -12 455 -55 562 -55 l25 0 3 253 c2 138 3 253 2 255
-1 1 -51 7 -111 12 -94 8 -233 32 -328 56 l-27 7 26 -45z"/>
<path d="M3770 1721 c0 -5 -3 -17 -7 -26 -5 -15 -3 -16 15 -6 13 7 19 17 16
26 -7 16 -24 21 -24 6z"/>
<path d="M4802 1622 c-90 -89 -105 -111 -79 -113 27 -3 47 3 123 36 78 34 79
36 77 69 -1 19 -8 49 -15 67 l-14 32 -92 -91z"/>
<path d="M3579 1471 c-52 -37 -99 -101 -99 -134 0 -11 19 -20 63 -30 56 -13
63 -12 69 2 10 25 34 201 27 201 -3 0 -30 -17 -60 -39z"/>
<path d="M5035 1444 c4 -38 12 -72 18 -76 21 -13 164 -19 226 -9 135 22 117
81 -24 81 -26 0 -67 11 -106 29 -35 17 -77 33 -93 37 l-29 7 8 -69z"/>
<path d="M2950 1379 c-16 -65 -9 -116 30 -208 41 -101 70 -136 143 -172 123
-62 166 -112 176 -207 l6 -57 65 -17 c36 -10 105 -27 154 -37 l89 -20 -6 82
c-4 44 -10 84 -15 89 -8 8 -70 21 -216 47 -69 12 -107 43 -135 107 -13 28 -32
49 -63 67 -54 31 -78 76 -78 142 0 52 10 77 48 117 24 26 24 28 6 34 -10 4
-57 25 -103 46 -46 21 -85 38 -86 38 -2 0 -9 -23 -15 -51z"/>
<path d="M5660 1404 c-108 -49 -327 -122 -463 -154 l-137 -32 7 -37 c5 -20 8
-141 7 -268 l0 -232 25 6 c107 24 262 66 343 93 82 26 102 36 124 66 15 19 25
36 23 37 -2 2 -30 16 -62 31 -87 42 -147 141 -147 246 0 60 24 85 72 76 39 -8
58 -23 116 -94 65 -78 100 -72 123 23 17 72 35 98 65 92 13 -2 24 -2 24 1 0
18 -52 172 -58 171 -4 0 -32 -11 -62 -25z"/>
<path d="M4789 1301 c-26 -10 -57 -26 -70 -36 -23 -17 -22 -17 46 -11 133 13
216 28 212 40 -9 28 -124 32 -188 7z"/>
<path d="M3197 1262 c-9 -10 -19 -32 -23 -48 -9 -47 10 -80 63 -106 39 -20 53
-35 75 -78 32 -64 50 -80 92 -80 32 0 148 -23 178 -35 14 -6 17 9 20 147 2 84
3 154 3 155 0 2 -145 33 -152 33 -2 0 -3 -7 -3 -15 0 -9 -7 -29 -15 -45 -24
-47 -54 -40 -123 30 -62 63 -88 72 -115 42z"/>
<path d="M3675 1085 c-9 -158 -2 -203 33 -216 46 -17 99 -59 128 -100 22 -32
37 -42 83 -55 88 -24 106 -33 142 -70 l33 -34 98 0 98 0 0 78 c0 44 -3 167 -7
274 l-6 195 -148 7 c-136 6 -375 29 -425 41 -21 5 -22 1 -29 -120z"/>
<path d="M4810 1183 c-63 -8 -134 -16 -157 -19 -38 -5 -43 -9 -55 -42 -21 -62
-16 -161 13 -218 37 -76 73 -94 183 -94 76 0 100 -4 144 -25 30 -14 56 -25 58
-25 6 0 5 216 -3 333 l-6 107 -31 -1 c-17 -1 -83 -8 -146 -16z"/>
<path d="M2891 1093 c-7 -54 -14 -114 -16 -134 -5 -41 5 -54 74 -89 40 -20
266 -110 276 -110 10 0 4 42 -9 68 -22 42 -66 78 -126 105 -76 33 -125 92
-153 184 -12 40 -25 73 -28 73 -4 0 -12 -44 -18 -97z"/>
<path d="M5760 1127 c-14 -67 -39 -102 -85 -117 -62 -20 -121 14 -187 109 -30
42 -32 14 -4 -44 30 -61 79 -105 117 -105 43 0 69 -27 69 -70 l0 -39 68 31
c37 16 71 34 76 39 14 13 -11 220 -28 237 -12 12 -16 6 -26 -41z"/>
<path d="M4367 1153 c-2 -5 -2 -128 1 -275 l5 -268 51 0 c114 0 524 46 540 61
5 5 -14 19 -45 34 -45 21 -69 25 -143 25 -70 0 -99 5 -133 21 -54 26 -98 79
-120 144 -18 55 -23 169 -9 228 l8 37 -75 0 c-42 0 -78 -3 -80 -7z"/>
<path d="M2875 773 c23 -284 121 -528 294 -730 l36 -42 164 -1 163 0 -7 27
c-4 16 -13 60 -20 98 -25 131 -46 161 -155 225 -105 62 -147 120 -157 214 -3
28 -1 68 5 90 11 37 10 38 -21 50 -58 20 -232 107 -264 132 -17 13 -35 24 -39
24 -3 0 -3 -39 1 -87z"/>
<path d="M5725 818 c-149 -65 -196 -126 -221 -293 -15 -102 -23 -123 -60 -168
-13 -16 -47 -73 -75 -128 -58 -113 -97 -152 -176 -175 -45 -13 -55 -13 -87 0
-31 13 -37 22 -55 82 -12 37 -24 84 -27 105 -4 22 -9 39 -13 39 -7 0 -75 -239
-70 -244 2 -2 26 -11 53 -20 39 -13 90 -16 247 -16 l198 0 54 68 c178 221 284
445 317 669 19 128 21 126 -85 81z m-101 -374 c23 -22 20 -51 -13 -119 -35
-75 -82 -118 -114 -106 -19 7 -22 16 -22 59 1 42 7 60 38 105 32 47 64 74 89
76 4 1 14 -6 22 -15z"/>
<path d="M3685 723 c4 -38 8 -69 10 -71 4 -5 228 -32 232 -28 2 2 -18 9 -44
15 -39 10 -60 25 -114 82 -36 38 -72 69 -79 69 -9 0 -11 -16 -5 -67z"/>
<path d="M5426 704 c-38 -14 -210 -63 -292 -84 l-41 -10 10 -51 c7 -37 7 -78
-1 -139 -10 -73 -9 -102 3 -171 9 -46 20 -94 25 -107 9 -22 11 -22 47 -7 55
23 71 41 120 140 25 50 63 112 84 138 32 41 38 57 44 115 3 37 14 94 25 127
10 33 18 61 17 61 -1 1 -19 -5 -41 -12z"/>
<path d="M3273 653 c-3 -7 -3 -40 -1 -72 5 -78 30 -109 138 -175 98 -60 138
-113 159 -213 28 -133 44 -193 52 -193 4 0 33 9 64 21 44 16 55 25 50 37 -39
101 -94 339 -110 473 l-6 56 -82 17 c-45 9 -122 27 -170 40 -73 19 -90 21 -94
9z"/>
<path d="M4880 575 c-107 -18 -304 -35 -409 -35 -49 0 -93 -5 -96 -10 -3 -6
-3 -98 1 -205 l7 -195 72 0 c75 0 257 -28 355 -54 30 -9 56 -13 58 -11 18 17
95 350 108 463 5 50 4 62 -7 61 -8 -1 -48 -7 -89 -14z"/>
<path d="M3705 543 c34 -207 90 -443 104 -443 4 0 19 25 34 56 15 30 47 76 71
102 54 58 65 79 87 167 22 83 24 115 7 115 -7 0 -74 7 -148 15 -173 19 -160
20 -155 -12z"/>
<path d="M4105 526 c-2 -6 -6 -29 -10 -51 -17 -99 -55 -193 -99 -242 -42 -46
-109 -144 -103 -149 2 -2 45 5 97 16 52 11 144 23 204 26 l109 7 -6 195 c-4
107 -8 196 -9 197 -2 2 -43 5 -91 7 -59 3 -90 1 -92 -6z"/>
<path d="M4150 53 c-54 -6 -260 -45 -260 -49 0 -2 95 -4 210 -4 l210 0 0 30 0
30 -62 -2 c-35 0 -79 -3 -98 -5z"/>
<path d="M4380 30 l0 -30 213 1 212 0 -77 19 c-90 22 -221 40 -295 40 -52 0
-53 0 -53 -30z"/>
</g>
</svg>
