<svg xmlns="http://www.w3.org/2000/svg" viewBox="0 0 670.000000 340.000000" fill="currentColor" aria-hidden="true">
<g transform="translate(0.000000,340.000000) scale(0.100000,-0.100000)" fill="currentColor" stroke="none">
<path d="M0 1700 l0 -1700 901 0 901 0 -37 41 c-128 142 -237 387 -282 634
-23 125 -22 409 1 530 58 308 173 502 476 805 231 231 293 270 524 327 63 16
110 34 126 48 33 29 44 32 146 45 372 46 980 -176 1268 -464 69 -70 125 -151
186 -274 105 -213 190 -556 190 -773 0 -256 -112 -545 -315 -814 -35 -47 -67
-89 -70 -95 -4 -7 443 -10 1339 -10 l1346 0 0 1700 0 1700 -3350 0 -3350 0 0
-1700z"/>
<path d="M2779 2307 c-19 -17 -52 -29 -115 -41 -281 -54 -413 -121 -611 -310
-238 -225 -406 -492 -456 -724 -29 -135 -31 -447 -3 -572 51 -234 152 -432
300 -587 l69 -73 941 0 942 0 69 83 c134 161 253 359 309 517 85 235 75 485
-30 813 -70 217 -149 355 -273 477 -228 226 -673 415 -1021 436 -90 5 -96 4
-121 -19z m370 -477 c251 -61 476 -230 575 -432 65 -131 87 -224 93 -393 6
-173 -9 -253 -71 -380 -107 -221 -297 -419 -478 -499 -211 -93 -490 -70 -753
62 -225 112 -365 252 -442 444 -76 188 -66 460 26 661 65 144 212 319 343 408
65 45 208 108 243 109 11 0 34 7 50 16 17 9 44 20 60 25 50 14 262 1 354 -21z"/>
<path d="M2815 1763 c-5 -6 -39 -18 -75 -27 -282 -75 -526 -322 -601 -611 -27
-104 -29 -272 -5 -365 55 -208 200 -369 442 -488 183 -91 395 -126 540 -91
184 44 350 182 491 407 122 195 143 423 60 672 -78 238 -275 405 -564 481 -87
23 -272 37 -288 22z m133 -155 c3 -23 -2 -28 -35 -38 -43 -13 -93 0 -93 24 0
25 42 47 85 44 35 -3 40 -6 43 -30z m-253 -48 c14 -22 -9 -50 -81 -100 -146
-101 -220 -199 -271 -361 -15 -49 -31 -89 -34 -89 -14 0 -19 104 -9 163 18 96
65 182 145 263 94 95 227 161 250 124z"/>
</g>
</svg>
