<svg xmlns="http://www.w3.org/2000/svg" viewBox="0 0 844.000000 744.000000" fill="currentColor" aria-hidden="true">
<g transform="translate(0.000000,744.000000) scale(0.100000,-0.100000)" fill="currentColor" stroke="none">
<path d="M0 3720 l0 -3720 4220 0 4220 0 0 3720 0 3720 -4220 0 -4220 0 0
-3720z m4320 2930 c0 -6 47 -10 120 -10 73 0 120 -4 120 -10 0 -6 33 -10 80
-10 47 0 80 -4 80 -10 0 -5 23 -10 50 -10 28 0 50 -4 50 -10 0 -5 16 -10 36
-10 28 0 43 -7 66 -32 22 -24 31 -29 38 -18 6 10 14 7 34 -13 22 -22 26 -35
26 -82 0 -30 -4 -55 -10 -55 -6 0 -10 -50 -10 -130 0 -80 -4 -130 -10 -130 -6
0 -10 -40 -10 -100 0 -60 -4 -100 -10 -100 -6 0 -10 -47 -10 -120 0 -73 -4
-120 -10 -120 -6 0 -10 -57 -10 -150 0 -93 -4 -150 -10 -150 -6 0 -10 -83 -10
-230 0 -147 -4 -230 -10 -230 -6 0 -10 -77 -10 -210 0 -133 -4 -210 -10 -210
-6 0 -10 -33 -10 -80 l0 -80 140 0 c87 0 140 4 140 10 0 6 47 10 120 10 73 0
120 4 120 10 0 6 43 10 110 10 67 0 110 4 110 10 0 6 43 10 110 10 67 0 110 4
110 10 0 6 40 10 100 10 60 0 100 4 100 10 0 6 43 10 110 10 67 0 110 4 110
10 0 6 43 10 110 10 67 0 110 4 110 10 0 6 40 10 100 10 60 0 100 4 100 10 0
6 50 10 130 10 80 0 130 4 130 10 0 6 27 10 60 10 33 0 60 -4 60 -10 0 -5 9
-10 20 -10 11 0 20 -4 20 -10 0 -5 7 -10 16 -10 20 0 44 -24 44 -44 0 -9 5
-16 10 -16 6 0 10 -18 10 -40 0 -22 5 -40 10 -40 6 0 10 -33 10 -80 0 -47 4
-80 10 -80 6 0 10 -60 10 -160 0 -100 4 -160 10 -160 6 0 10 -70 10 -190 0
-120 -4 -190 -10 -190 -6 0 -10 -47 -10 -120 0 -73 -4 -120 -10 -120 -6 0 -10
-33 -10 -80 0 -47 -4 -80 -10 -80 -6 0 -10 -30 -10 -70 0 -40 -4 -70 -10 -70
-5 0 -10 -22 -10 -50 0 -27 -4 -50 -10 -50 -5 0 -10 -11 -10 -25 0 -14 -11
-37 -25 -51 l-25 -25 -25 25 c-23 23 -25 32 -25 121 0 57 -4 95 -10 95 -7 0
-10 157 -10 450 0 293 -3 450 -10 450 -6 0 -10 60 -10 160 0 100 -4 160 -10
160 -5 0 -10 23 -10 50 0 49 -1 50 -30 50 -16 0 -30 -4 -30 -10 0 -6 -37 -10
-90 -10 -53 0 -90 -4 -90 -10 0 -6 -43 -10 -110 -10 -67 0 -110 -4 -110 -10 0
-6 -43 -10 -110 -10 -67 0 -110 -4 -110 -10 0 -6 -43 -10 -110 -10 -67 0 -110
-4 -110 -10 0 -6 -47 -10 -120 -10 -73 0 -120 -4 -120 -10 0 -6 -50 -10 -130
-10 -80 0 -130 -4 -130 -10 0 -6 -57 -10 -150 -10 -93 0 -150 -4 -150 -10 0
-6 -90 -10 -250 -10 -160 0 -250 4 -250 10 0 6 -7 10 -16 10 -20 0 -44 24 -44
44 0 9 -4 16 -10 16 -6 0 -10 73 -10 200 0 127 4 200 10 200 6 0 10 63 10 170
0 107 4 170 10 170 6 0 10 63 10 170 0 107 4 170 10 170 6 0 10 53 10 140 0
87 4 140 10 140 6 0 10 43 10 110 0 67 4 110 10 110 6 0 10 37 10 90 0 53 4
90 10 90 6 0 10 30 10 70 0 40 4 70 10 70 6 0 10 23 10 50 0 28 5 50 10 50 6
0 10 23 10 50 0 28 5 50 10 50 6 0 10 18 10 40 0 22 5 40 10 40 6 0 10 14 10
30 0 17 5 30 10 30 6 0 10 9 10 20 0 11 -4 20 -10 20 -5 0 -10 -4 -10 -10 0
-5 -9 -10 -20 -10 -11 0 -20 -4 -20 -10 0 -6 -93 -10 -260 -10 -167 0 -260 -4
-260 -10 0 -6 -100 -10 -280 -10 -180 0 -280 -4 -280 -10 0 -6 -63 -10 -170
-10 -107 0 -170 -4 -170 -10 0 -5 -9 -10 -20 -10 -17 0 -20 -7 -20 -40 0 -22
5 -40 10 -40 6 0 10 -40 10 -100 0 -60 4 -100 10 -100 6 0 10 -43 10 -110 0
-67 4 -110 10 -110 6 0 10 -43 10 -110 0 -67 4 -110 10 -110 6 0 10 -43 10
-110 0 -67 4 -110 10 -110 6 0 10 -40 10 -100 0 -60 4 -100 10 -100 6 0 10
-43 10 -110 0 -67 4 -110 10 -110 6 0 10 -43 10 -110 0 -67 4 -110 10 -110 6
0 10 -110 10 -310 0 -200 -4 -310 -10 -310 -5 0 -10 -9 -10 -20 0 -13 -7 -20
-20 -20 -11 0 -20 -4 -20 -10 0 -5 -9 -10 -20 -10 -11 0 -20 -4 -20 -10 0 -6
-50 -10 -130 -10 -80 0 -130 4 -130 10 0 6 -70 10 -190 10 -120 0 -190 4 -190
10 0 6 -53 10 -140 10 -87 0 -140 4 -140 10 0 6 -53 10 -140 10 -87 0 -140 4
-140 10 0 6 -50 10 -130 10 -80 0 -130 4 -130 10 0 6 -43 10 -110 10 -67 0
-110 4 -110 10 0 6 -33 10 -80 10 -47 0 -80 4 -80 10 0 6 -30 10 -70 10 -40 0
-70 4 -70 10 0 6 -22 10 -50 10 -27 0 -50 5 -50 10 0 6 -22 10 -50 10 -27 0
-50 5 -50 10 0 6 -13 10 -30 10 l-30 0 0 -200 c0 -127 4 -200 10 -200 6 0 10
-110 10 -310 0 -200 4 -310 10 -310 6 0 10 -63 10 -170 0 -107 4 -170 10 -170
6 0 10 -27 10 -60 l0 -60 30 0 c17 0 30 5 30 10 0 6 33 10 80 10 47 0 80 4 80
10 0 6 33 10 80 10 47 0 80 4 80 10 0 6 40 10 100 10 60 0 100 4 100 10 0 6
37 10 90 10 53 0 90 4 90 10 0 6 43 10 110 10 67 0 110 4 110 10 0 6 43 10
110 10 67 0 110 4 110 10 0 6 53 10 140 10 87 0 140 4 140 10 0 6 73 10 200
10 127 0 200 4 200 10 0 6 50 10 130 10 80 0 130 -4 130 -10 0 -5 16 -10 35
-10 44 0 105 -55 105 -95 0 -14 5 -25 10 -25 6 0 10 -43 10 -110 0 -67 -4
-110 -10 -110 -6 0 -10 -67 -10 -180 0 -113 -4 -180 -10 -180 -6 0 -10 -60
-10 -160 0 -100 -4 -160 -10 -160 -6 0 -10 -57 -10 -150 0 -93 -4 -150 -10
-150 -6 0 -10 -47 -10 -120 0 -73 -4 -120 -10 -120 -6 0 -10 -40 -10 -100 0
-60 -4 -100 -10 -100 -6 0 -10 -33 -10 -80 0 -47 -4 -80 -10 -80 -6 0 -10 -30
-10 -70 0 -40 -4 -70 -10 -70 -6 0 -10 -27 -10 -60 0 -33 -4 -60 -10 -60 -5 0
-10 -18 -10 -40 0 -22 -4 -40 -10 -40 -5 0 -10 -18 -10 -40 0 -22 -4 -40 -10
-40 -5 0 -10 -9 -10 -20 0 -19 7 -20 160 -20 100 0 160 4 160 10 0 6 107 10
300 10 193 0 300 4 300 10 0 6 67 10 180 10 113 0 180 4 180 10 0 6 43 10 110
10 103 0 110 1 110 20 0 11 -4 20 -10 20 -6 0 -10 30 -10 70 0 40 -4 70 -10
70 -6 0 -10 40 -10 100 0 60 -4 100 -10 100 -6 0 -10 43 -10 110 0 67 -4 110
-10 110 -6 0 -10 40 -10 100 0 60 -4 100 -10 100 -6 0 -10 40 -10 100 0 60 -4
100 -10 100 -6 0 -10 43 -10 110 0 67 -4 110 -10 110 -6 0 -10 40 -10 100 0
60 -4 100 -10 100 -6 0 -10 47 -10 120 0 73 -4 120 -10 120 -6 0 -10 97 -10
270 0 173 4 270 10 270 6 0 10 7 10 16 0 23 25 44 54 44 14 0 26 5 26 10 0 6
70 10 190 10 120 0 190 -4 190 -10 0 -6 93 -10 260 -10 167 0 260 -4 260 -10
0 -6 63 -10 170 -10 107 0 170 -4 170 -10 0 -6 50 -10 130 -10 80 0 130 -4
130 -10 0 -6 43 -10 110 -10 67 0 110 -4 110 -10 0 -6 33 -10 80 -10 47 0 80
-4 80 -10 0 -6 27 -10 60 -10 33 0 60 -4 60 -10 0 -5 23 -10 50 -10 28 0 50
-4 50 -10 0 -5 7 -10 16 -10 18 0 44 -23 44 -40 0 -32 -29 -40 -143 -40 -83 0
-117 -4 -121 -12 -5 -10 -7 -10 -12 0 -4 9 -59 12 -225 12 -139 0 -219 4 -219
10 0 6 -90 10 -250 10 -160 0 -250 4 -250 10 0 7 -150 10 -430 10 l-430 0 0
-40 c0 -22 5 -40 10 -40 6 0 10 -43 10 -110 0 -67 4 -110 10 -110 6 0 10 -40
10 -100 0 -60 4 -100 10 -100 6 0 10 -40 10 -100 0 -60 4 -100 10 -100 6 0 10
-37 10 -90 0 -53 4 -90 10 -90 6 0 10 -37 10 -90 0 -53 4 -90 10 -90 6 0 10
-33 10 -80 0 -47 4 -80 10 -80 6 0 10 -37 10 -90 0 -53 4 -90 10 -90 6 0 10
-37 10 -90 0 -53 4 -90 10 -90 6 0 10 -40 10 -100 0 -60 4 -100 10 -100 6 0
10 -43 10 -110 0 -67 4 -110 10 -110 6 0 10 -30 10 -70 0 -40 -4 -70 -10 -70
-5 0 -10 -9 -10 -20 0 -11 -4 -20 -10 -20 -5 0 -10 -7 -10 -16 0 -20 -24 -44
-44 -44 -9 0 -16 -4 -16 -10 0 -5 -9 -10 -20 -10 -11 0 -20 -4 -20 -10 0 -6
-27 -10 -60 -10 -33 0 -60 -4 -60 -10 0 -6 -50 -10 -130 -10 -80 0 -130 -4
-130 -10 0 -7 -147 -10 -420 -10 -273 0 -420 3 -420 10 0 6 -33 10 -80 10 -47
0 -80 4 -80 10 0 6 -27 10 -60 10 -33 0 -60 4 -60 10 0 6 -27 10 -60 10 -33 0
-60 4 -60 10 0 6 -7 10 -15 10 -25 0 -65 46 -65 75 0 14 5 25 10 25 6 0 10 53
10 140 0 87 4 140 10 140 6 0 10 40 10 100 0 60 4 100 10 100 6 0 10 47 10
120 0 73 4 120 10 120 6 0 10 53 10 140 0 87 4 140 10 140 6 0 10 60 10 160 0
100 4 160 10 160 6 0 10 80 10 220 0 140 4 220 10 220 6 0 10 70 10 190 0 120
4 190 10 190 6 0 10 14 10 30 l0 30 -130 0 c-80 0 -130 -4 -130 -10 0 -6 -43
-10 -110 -10 -67 0 -110 -4 -110 -10 0 -6 -43 -10 -110 -10 -67 0 -110 -4
-110 -10 0 -6 -43 -10 -110 -10 -67 0 -110 -4 -110 -10 0 -6 -40 -10 -100 -10
-60 0 -100 -4 -100 -10 0 -6 -33 -10 -80 -10 -47 0 -80 -4 -80 -10 0 -6 -33
-10 -80 -10 -47 0 -80 -4 -80 -10 0 -6 -37 -10 -90 -10 -53 0 -90 -4 -90 -10
0 -6 -37 -10 -90 -10 -53 0 -90 -4 -90 -10 0 -6 -37 -10 -90 -10 -53 0 -90 -4
-90 -10 0 -6 -43 -10 -110 -10 -67 0 -110 4 -110 10 0 6 -9 10 -20 10 -11 0
-20 5 -20 10 0 6 -9 10 -20 10 -13 0 -20 7 -20 20 0 11 -4 20 -10 20 -5 0 -10
9 -10 20 0 11 -4 20 -10 20 -5 0 -10 18 -10 40 0 22 -4 40 -10 40 -6 0 -10 30
-10 70 0 40 -4 70 -10 70 -6 0 -10 67 -10 180 0 113 -4 180 -10 180 -6 0 -10
57 -10 150 0 93 4 150 10 150 6 0 10 53 10 140 0 87 4 140 10 140 6 0 10 33
10 80 0 47 4 80 10 80 6 0 10 27 10 60 0 33 4 60 10 60 6 0 10 23 10 50 0 28
5 50 10 50 6 0 10 14 10 30 0 17 5 30 10 30 6 0 10 7 10 16 0 43 12 44 364 44
217 0 336 -4 336 -10 0 -6 67 -10 180 -10 113 0 180 -4 180 -10 0 -6 63 -10
170 -10 107 0 170 -4 170 -10 0 -6 60 -10 160 -10 100 0 160 -4 160 -10 0 -6
93 -10 260 -10 l260 0 0 50 c0 28 -4 50 -10 50 -6 0 -10 43 -10 110 0 67 -4
110 -10 110 -6 0 -10 47 -10 120 0 73 -4 120 -10 120 -6 0 -10 40 -10 100 0
60 -4 100 -10 100 -6 0 -10 40 -10 100 0 60 -4 100 -10 100 -6 0 -10 37 -10
90 0 53 -4 90 -10 90 -6 0 -10 37 -10 90 0 53 -4 90 -10 90 -6 0 -10 40 -10
100 0 60 -4 100 -10 100 -6 0 -10 37 -10 90 0 53 -4 90 -10 90 -6 0 -10 50
-10 130 0 80 -4 130 -10 130 -6 0 -10 40 -10 100 0 60 4 100 10 100 6 0 10 7
10 15 0 20 65 85 85 85 8 0 15 5 15 10 0 6 18 10 40 10 22 0 40 5 40 10 0 6
37 10 90 10 53 0 90 4 90 10 0 6 60 10 160 10 100 0 160 4 160 10 0 6 80 10
220 10 140 0 220 -4 220 -10z"/>
</g>
</svg>
