<svg xmlns="http://www.w3.org/2000/svg" width="24" height="24" viewBox="0 0 24 24" fill="currentColor" aria-hidden="true">
  <!-- Països Catalans — 4 squares in a 2x2 grid inside a circle outline -->
  <!-- Outer circle ring (using fill-rule evenodd to cut out the inside) -->
  <path fill-rule="evenodd" d="M12 2 C6.48 2 2 6.48 2 12 C2 17.52 6.48 22 12 22 C17.52 22 22 17.52 22 12 C22 6.48 17.52 2 12 2 Z M12 4 C16.42 4 20 7.58 20 12 C20 16.42 16.42 20 12 20 C7.58 20 4 16.42 4 12 C4 7.58 7.58 4 12 4 Z"/>
  <!-- 4 territory squares inside -->
  <rect x="7" y="7" width="4" height="4" rx="0.5"/>
  <rect x="13" y="7" width="4" height="4" rx="0.5"/>
  <rect x="7" y="13" width="4" height="4" rx="0.5"/>
  <rect x="13" y="13" width="4" height="4" rx="0.5"/>
</svg>
