<svg xmlns="http://www.w3.org/2000/svg" viewBox="0 0 694.000000 512.000000" fill="currentColor" aria-hidden="true">
<g transform="translate(-106.000000,567.000000) scale(0.100000,-0.100000)" fill="currentColor" stroke="none">
<path d="M6100 5660 c0 -6 -110 -10 -310 -10 -200 0 -310 -4 -310 -10 0 -6
-57 -10 -150 -10 -93 0 -150 -4 -150 -10 0 -6 -50 -10 -130 -10 -80 0 -130 -4
-130 -10 0 -6 -43 -10 -110 -10 -67 0 -110 -4 -110 -10 0 -6 -43 -10 -110 -10
-67 0 -110 -4 -110 -10 0 -6 -37 -10 -90 -10 -53 0 -90 -4 -90 -10 0 -6 -47
-10 -120 -10 -73 0 -120 -4 -120 -10 0 -6 -50 -10 -130 -10 -80 0 -130 -4
-130 -10 0 -7 -213 -10 -620 -10 -407 0 -620 3 -620 10 0 6 -123 10 -350 10
-227 0 -350 4 -350 10 0 6 -83 10 -230 10 -147 0 -230 -4 -230 -10 0 -6 -37
-10 -90 -10 -53 0 -90 -4 -90 -10 0 -5 -7 -10 -16 -10 -20 0 -44 -24 -44 -44
0 -9 -4 -16 -10 -16 -6 0 -10 -30 -10 -70 0 -40 -4 -70 -10 -70 -7 0 -10 -207
-10 -600 0 -393 -3 -600 -10 -600 -6 0 -10 -50 -10 -130 0 -80 -4 -130 -10
-130 -6 0 -10 -63 -10 -170 0 -107 -4 -170 -10 -170 -6 0 -10 -100 -10 -280 0
-180 4 -280 10 -280 6 0 10 -50 10 -130 0 -80 4 -130 10 -130 6 0 10 -37 10
-90 0 -53 4 -90 10 -90 6 0 10 -37 10 -90 0 -53 4 -90 10 -90 6 0 10 -43 10
-110 0 -67 4 -110 10 -110 6 0 10 -77 10 -210 0 -133 4 -210 10 -210 6 0 10
-133 10 -380 0 -247 4 -380 10 -380 6 0 10 -30 10 -70 0 -40 4 -70 10 -70 6 0
10 -7 10 -15 0 -9 11 -27 25 -40 13 -14 31 -25 40 -25 8 0 15 -4 15 -10 0 -5
14 -10 30 -10 17 0 30 -4 30 -10 0 -5 18 -10 40 -10 22 0 40 -4 40 -10 0 -6
60 -10 160 -10 100 0 160 -4 160 -10 0 -6 67 -10 180 -10 113 0 180 -4 180
-10 0 -6 60 -10 160 -10 100 0 160 -4 160 -10 0 -6 73 -10 200 -10 127 0 200
-4 200 -10 0 -6 133 -10 380 -10 247 0 380 4 380 10 0 6 67 10 180 10 113 0
180 4 180 10 0 6 43 10 110 10 67 0 110 4 110 10 0 6 37 10 90 10 53 0 90 4
90 10 0 6 33 10 80 10 47 0 80 4 80 10 0 6 33 10 80 10 47 0 80 4 80 10 0 6
33 10 80 10 47 0 80 4 80 10 0 6 40 10 100 10 60 0 100 4 100 10 0 6 40 10
100 10 60 0 100 4 100 10 0 6 60 10 160 10 100 0 160 4 160 10 0 7 160 10 460
10 300 0 460 -3 460 -10 0 -6 123 -10 350 -10 227 0 350 -4 350 -10 0 -6 118
-10 335 -10 l336 0 24 25 c14 13 25 31 25 40 0 8 5 15 10 15 6 0 10 90 10 250
0 160 4 250 10 250 6 0 10 60 10 160 0 100 4 160 10 160 6 0 10 57 10 150 0
93 4 150 10 150 6 0 10 70 10 190 0 120 4 190 10 190 6 0 10 133 10 380 0 247
-4 380 -10 380 -6 0 -10 60 -10 160 0 100 -4 160 -10 160 -6 0 -10 53 -10 140
0 87 -4 140 -10 140 -6 0 -10 60 -10 160 0 100 -4 160 -10 160 -6 0 -10 67
-10 180 0 113 -4 180 -10 180 -6 0 -10 67 -10 180 0 113 -4 180 -10 180 -6 0
-10 130 -10 370 0 240 -4 370 -10 370 -5 0 -10 11 -10 25 0 29 -79 115 -105
115 -8 0 -15 5 -15 10 0 6 -18 10 -40 10 -22 0 -40 5 -40 10 0 6 -40 10 -100
10 -60 0 -100 4 -100 10 0 6 -107 10 -300 10 -193 0 -300 4 -300 10 0 6 -130
10 -370 10 -240 0 -370 4 -370 10 0 6 -4 10 -10 10 -5 0 -10 -4 -10 -10z m520
-220 c0 -6 130 -10 370 -10 363 0 370 0 370 -20 0 -13 -7 -20 -18 -20 -10 0
-24 -9 -32 -20 -8 -11 -22 -20 -32 -20 -10 0 -18 -4 -18 -10 0 -5 -9 -10 -20
-10 -11 0 -20 -4 -20 -10 0 -5 -9 -10 -20 -10 -11 0 -20 -4 -20 -10 0 -5 -9
-10 -20 -10 -11 0 -20 -4 -20 -10 0 -5 -9 -10 -20 -10 -11 0 -20 -4 -20 -10 0
-5 -13 -10 -30 -10 -16 0 -30 -4 -30 -10 0 -5 -13 -10 -30 -10 -16 0 -30 -4
-30 -10 0 -5 -13 -10 -30 -10 -16 0 -30 -4 -30 -10 0 -5 -13 -10 -30 -10 -16
0 -30 -4 -30 -10 0 -5 -9 -10 -20 -10 -11 0 -20 -4 -20 -10 0 -5 -13 -10 -30
-10 -16 0 -30 -4 -30 -10 0 -5 -13 -10 -30 -10 -16 0 -30 -4 -30 -10 0 -5 -9
-10 -20 -10 -11 0 -20 -4 -20 -10 0 -5 -9 -10 -20 -10 -11 0 -20 -4 -20 -10 0
-5 -13 -10 -30 -10 -16 0 -30 -4 -30 -10 0 -5 -9 -10 -20 -10 -11 0 -20 -4
-20 -10 0 -5 -8 -10 -18 -10 -10 0 -24 -9 -32 -20 -8 -11 -21 -20 -30 -20 -9
0 -22 -9 -30 -20 -8 -11 -20 -20 -27 -20 -17 0 -183 -166 -183 -183 0 -7 -9
-19 -20 -27 -11 -8 -20 -21 -20 -30 0 -9 -9 -22 -20 -30 -11 -8 -20 -22 -20
-32 0 -10 -4 -18 -10 -18 -5 0 -10 -8 -10 -18 0 -10 -9 -24 -20 -32 -11 -8
-20 -22 -20 -32 0 -10 -4 -18 -10 -18 -5 0 -10 -9 -10 -20 0 -11 -4 -20 -10
-20 -5 0 -10 -8 -10 -18 0 -10 -9 -24 -20 -32 -11 -8 -20 -21 -20 -30 0 -9 -9
-22 -20 -30 -11 -8 -20 -20 -20 -27 0 -16 -125 -143 -141 -143 -6 0 -24 -13
-39 -30 -15 -16 -35 -30 -44 -30 -9 0 -16 -4 -16 -10 0 -5 -9 -10 -20 -10 -11
0 -20 -4 -20 -10 0 -5 -13 -10 -30 -10 -16 0 -30 -4 -30 -10 0 -5 -9 -10 -20
-10 -11 0 -20 -4 -20 -10 0 -5 -13 -10 -30 -10 -16 0 -30 -4 -30 -10 0 -5 -13
-10 -30 -10 -16 0 -30 -4 -30 -10 0 -5 -18 -10 -40 -10 -22 0 -40 -4 -40 -10
0 -5 -13 -10 -30 -10 -16 0 -30 -4 -30 -10 0 -5 -18 -10 -40 -10 -22 0 -40 -4
-40 -10 0 -5 -18 -10 -40 -10 -22 0 -40 -4 -40 -10 0 -5 -13 -10 -30 -10 -16
0 -30 -4 -30 -10 0 -5 -13 -10 -30 -10 -16 0 -30 -4 -30 -10 0 -5 -9 -10 -20
-10 -11 0 -20 -4 -20 -10 0 -5 -13 -10 -30 -10 -16 0 -30 -4 -30 -10 0 -5 -9
-10 -20 -10 -11 0 -20 -4 -20 -10 0 -5 -9 -10 -20 -10 -11 0 -20 -4 -20 -10 0
-5 -8 -10 -18 -10 -10 0 -24 -9 -32 -20 -8 -11 -22 -20 -32 -20 -10 0 -18 -4
-18 -10 0 -5 -7 -10 -16 -10 -8 0 -33 -18 -54 -40 -21 -22 -43 -40 -49 -40
-15 0 -101 -86 -101 -101 0 -6 -18 -28 -40 -49 -22 -21 -40 -45 -40 -52 0 -7
-9 -20 -20 -28 -11 -8 -20 -21 -20 -30 0 -9 -9 -22 -20 -30 -11 -8 -20 -22
-20 -32 0 -10 -4 -18 -10 -18 -5 0 -10 -8 -10 -18 0 -10 -9 -24 -20 -32 -11
-8 -20 -21 -20 -30 0 -9 -9 -22 -20 -30 -11 -8 -20 -22 -20 -32 0 -10 -4 -18
-10 -18 -5 0 -10 -8 -10 -18 0 -10 -9 -24 -20 -32 -11 -8 -20 -21 -20 -30 0
-9 -9 -22 -20 -30 -11 -8 -20 -20 -20 -28 0 -7 -22 -35 -50 -62 -27 -27 -50
-54 -50 -60 0 -14 -66 -80 -80 -80 -7 0 -29 -18 -50 -40 -21 -22 -46 -40 -54
-40 -9 0 -16 -4 -16 -10 0 -5 -9 -10 -20 -10 -11 0 -20 -4 -20 -10 0 -5 -9
-10 -20 -10 -11 0 -20 -4 -20 -10 0 -5 -9 -10 -20 -10 -11 0 -20 -4 -20 -10 0
-5 -9 -10 -20 -10 -11 0 -20 -4 -20 -10 0 -5 -13 -10 -30 -10 -16 0 -30 -4
-30 -10 0 -5 -13 -10 -30 -10 -16 0 -30 -4 -30 -10 0 -5 -13 -10 -30 -10 -16
0 -30 -4 -30 -10 0 -5 -13 -10 -30 -10 -16 0 -30 -4 -30 -10 0 -5 -18 -10 -40
-10 -22 0 -40 -4 -40 -10 0 -5 -13 -10 -30 -10 -16 0 -30 -4 -30 -10 0 -5 -13
-10 -30 -10 -16 0 -30 -4 -30 -10 0 -5 -13 -10 -30 -10 -16 0 -30 -4 -30 -10
0 -5 -9 -10 -20 -10 -11 0 -20 -4 -20 -10 0 -5 -13 -10 -30 -10 -16 0 -30 -4
-30 -10 0 -5 -9 -10 -20 -10 -11 0 -20 -4 -20 -10 0 -5 -9 -10 -20 -10 -11 0
-20 -4 -20 -10 0 -5 -9 -10 -20 -10 -11 0 -20 -4 -20 -10 0 -5 -8 -10 -18 -10
-10 0 -24 -9 -32 -20 -8 -11 -21 -20 -28 -20 -8 0 -27 -13 -42 -30 -15 -16
-33 -30 -39 -30 -15 0 -81 -66 -81 -80 0 -7 -18 -29 -40 -50 -22 -21 -40 -45
-40 -52 0 -7 -9 -20 -20 -28 -11 -8 -20 -22 -20 -32 0 -10 -4 -18 -10 -18 -5
0 -10 -8 -10 -18 0 -10 -9 -24 -20 -32 -11 -8 -20 -22 -20 -32 0 -10 -4 -18
-10 -18 -5 0 -10 -9 -10 -20 0 -11 -4 -20 -10 -20 -5 0 -10 -8 -10 -18 0 -10
-9 -24 -20 -32 -11 -8 -20 -21 -20 -30 0 -9 -9 -22 -20 -30 -11 -8 -20 -20
-20 -27 0 -17 -166 -183 -183 -183 -7 0 -19 -9 -27 -20 -8 -11 -22 -20 -32
-20 -10 0 -18 -4 -18 -10 0 -5 -9 -10 -20 -10 -11 0 -20 -4 -20 -10 0 -5 -9
-10 -20 -10 -11 0 -20 -4 -20 -10 0 -5 -9 -10 -20 -10 -11 0 -20 -4 -20 -10 0
-5 -13 -10 -30 -10 -16 0 -30 -4 -30 -10 0 -5 -13 -10 -30 -10 -16 0 -30 -4
-30 -10 0 -5 -13 -10 -30 -10 -16 0 -30 -4 -30 -10 0 -5 -9 -10 -20 -10 -11 0
-20 -4 -20 -10 0 -5 -13 -10 -30 -10 -16 0 -30 -4 -30 -10 0 -5 -9 -10 -20
-10 -11 0 -20 -4 -20 -10 0 -5 -9 -10 -20 -10 -11 0 -20 -4 -20 -10 0 -5 -9
-10 -20 -10 -11 0 -20 -4 -20 -10 0 -5 -8 -10 -18 -10 -10 0 -24 -9 -32 -20
-8 -11 -20 -20 -27 -20 -17 0 -143 -126 -143 -143 0 -7 -9 -19 -20 -27 -11 -8
-20 -22 -20 -32 0 -10 -4 -18 -10 -18 -6 0 -10 123 -10 350 0 227 -4 350 -10
350 -6 0 -10 60 -10 160 0 100 -4 160 -10 160 -6 0 -10 43 -10 110 0 67 -4
110 -10 110 -6 0 -10 37 -10 90 0 53 -4 90 -10 90 -6 0 -10 40 -10 100 0 60
-4 100 -10 100 -6 0 -10 47 -10 120 0 73 -4 120 -10 120 -6 0 -10 107 -10 300
0 193 4 300 10 300 6 0 10 53 10 140 0 87 4 140 10 140 6 0 10 50 10 130 0 80
4 130 10 130 6 0 10 73 10 199 0 150 3 201 13 204 9 4 8 8 -3 17 -11 9 -12 13
-2 17 14 6 17 63 2 63 -6 0 -10 93 -10 260 0 167 -4 260 -10 260 -6 0 -10 40
-10 100 0 60 -4 100 -10 100 -5 0 -10 23 -10 50 0 49 1 50 30 50 17 0 30 -4
30 -10 0 -6 63 -10 170 -10 107 0 170 -4 170 -10 0 -6 80 -10 220 -10 140 0
220 -4 220 -10 0 -6 80 -10 220 -10 140 0 220 -4 220 -10 0 -7 217 -10 630
-10 413 0 630 3 630 10 0 6 53 10 140 10 87 0 140 4 140 10 0 6 43 10 110 10
67 0 110 4 110 10 0 6 40 10 100 10 60 0 100 4 100 10 0 6 43 10 110 10 67 0
110 4 110 10 0 6 43 10 110 10 67 0 110 4 110 10 0 6 50 10 130 10 80 0 130 4
130 10 0 6 60 10 160 10 100 0 160 4 160 10 0 7 187 10 540 10 353 0 540 -3
540 -10z m1046 -44 c16 -17 19 -66 4 -66 -5 0 -10 -7 -10 -15 0 -19 -104 -125
-123 -125 -7 0 -19 -9 -27 -20 -8 -11 -22 -20 -32 -20 -10 0 -18 -4 -18 -10 0
-5 -9 -10 -20 -10 -11 0 -20 -4 -20 -10 0 -5 -9 -10 -20 -10 -11 0 -20 -4 -20
-10 0 -5 -9 -10 -20 -10 -11 0 -20 -4 -20 -10 0 -5 -9 -10 -20 -10 -11 0 -20
-4 -20 -10 0 -5 -9 -10 -20 -10 -11 0 -20 -4 -20 -10 0 -5 -13 -10 -30 -10
-16 0 -30 -4 -30 -10 0 -5 -9 -10 -20 -10 -11 0 -20 -4 -20 -10 0 -5 -13 -10
-30 -10 -16 0 -30 -4 -30 -10 0 -5 -13 -10 -30 -10 -16 0 -30 -4 -30 -10 0 -5
-9 -10 -20 -10 -11 0 -20 -4 -20 -10 0 -5 -13 -10 -30 -10 -16 0 -30 -4 -30
-10 0 -5 -13 -10 -30 -10 -16 0 -30 -4 -30 -10 0 -5 -9 -10 -20 -10 -11 0 -20
-4 -20 -10 0 -5 -9 -10 -20 -10 -11 0 -20 -4 -20 -10 0 -5 -9 -10 -20 -10 -11
0 -20 -4 -20 -10 0 -5 -9 -10 -20 -10 -11 0 -20 -4 -20 -10 0 -5 -9 -10 -20
-10 -11 0 -20 -4 -20 -10 0 -5 -7 -10 -16 -10 -9 0 -29 -13 -44 -30 -15 -16
-33 -30 -39 -30 -16 0 -161 -147 -161 -163 0 -7 -9 -19 -20 -27 -11 -8 -20
-21 -20 -30 0 -9 -9 -22 -20 -30 -11 -8 -20 -22 -20 -32 0 -10 -4 -18 -10 -18
-5 0 -10 -9 -10 -20 0 -11 -4 -20 -10 -20 -5 0 -10 -9 -10 -20 0 -11 -4 -20
-10 -20 -5 0 -10 -9 -10 -20 0 -11 -4 -20 -10 -20 -5 0 -10 -9 -10 -20 0 -11
-4 -20 -10 -20 -5 0 -10 -8 -10 -18 0 -10 -9 -24 -20 -32 -11 -8 -20 -22 -20
-32 0 -10 -4 -18 -10 -18 -5 0 -10 -7 -10 -16 0 -9 -13 -29 -30 -44 -16 -15
-30 -33 -30 -39 0 -16 -127 -141 -143 -141 -7 0 -19 -9 -27 -20 -8 -11 -21
-20 -30 -20 -9 0 -22 -9 -30 -20 -8 -11 -22 -20 -32 -20 -10 0 -18 -4 -18 -10
0 -5 -13 -10 -30 -10 -16 0 -30 -4 -30 -10 0 -5 -9 -10 -20 -10 -11 0 -20 -4
-20 -10 0 -5 -18 -10 -40 -10 -22 0 -40 -4 -40 -10 0 -5 -18 -10 -40 -10 -22
0 -40 -4 -40 -10 0 -5 -18 -10 -40 -10 -22 0 -40 -4 -40 -10 0 -5 -22 -10 -50
-10 -27 0 -50 -4 -50 -10 0 -5 -18 -10 -40 -10 -22 0 -40 -4 -40 -10 0 -5 -13
-10 -30 -10 -16 0 -30 -4 -30 -10 0 -5 -13 -10 -30 -10 -16 0 -30 -4 -30 -10
0 -5 -13 -10 -30 -10 -16 0 -30 -4 -30 -10 0 -5 -9 -10 -20 -10 -11 0 -20 -4
-20 -10 0 -5 -9 -10 -20 -10 -11 0 -20 -4 -20 -10 0 -5 -8 -10 -18 -10 -10 0
-24 -9 -32 -20 -8 -11 -21 -20 -30 -20 -9 0 -22 -9 -30 -20 -8 -11 -21 -20
-28 -20 -8 0 -27 -13 -42 -30 -15 -16 -33 -30 -39 -30 -15 0 -141 -126 -141
-141 0 -6 -13 -24 -30 -39 -16 -15 -30 -34 -30 -42 0 -7 -9 -20 -20 -28 -11
-8 -20 -21 -20 -30 0 -9 -9 -22 -20 -30 -11 -8 -20 -21 -20 -30 0 -9 -9 -22
-20 -30 -11 -8 -20 -22 -20 -32 0 -10 -4 -18 -10 -18 -5 0 -10 -9 -10 -20 0
-11 -4 -20 -10 -20 -5 0 -10 -8 -10 -18 0 -10 -9 -24 -20 -32 -11 -8 -20 -21
-20 -30 0 -9 -9 -22 -20 -30 -11 -8 -20 -21 -20 -30 0 -9 -9 -22 -20 -30 -11
-8 -20 -21 -20 -30 0 -9 -9 -22 -20 -30 -11 -8 -20 -20 -20 -27 0 -17 -166
-183 -183 -183 -7 0 -19 -9 -27 -20 -8 -11 -21 -20 -30 -20 -9 0 -22 -9 -30
-20 -8 -11 -22 -20 -32 -20 -10 0 -18 -4 -18 -10 0 -5 -9 -10 -20 -10 -11 0
-20 -4 -20 -10 0 -5 -9 -10 -20 -10 -11 0 -20 -4 -20 -10 0 -5 -9 -10 -20 -10
-11 0 -20 -4 -20 -10 0 -5 -13 -10 -30 -10 -16 0 -30 -4 -30 -10 0 -5 -13 -10
-30 -10 -16 0 -30 -4 -30 -10 0 -5 -22 -10 -50 -10 -27 0 -50 -4 -50 -10 0 -5
-22 -10 -50 -10 -27 0 -50 -4 -50 -10 0 -5 -18 -10 -40 -10 -22 0 -40 -4 -40
-10 0 -5 -18 -10 -40 -10 -22 0 -40 -4 -40 -10 0 -5 -13 -10 -30 -10 -16 0
-30 -4 -30 -10 0 -5 -13 -10 -30 -10 -16 0 -30 -4 -30 -10 0 -5 -9 -10 -20
-10 -11 0 -20 -4 -20 -10 0 -5 -9 -10 -20 -10 -11 0 -20 -4 -20 -10 0 -5 -9
-10 -20 -10 -11 0 -20 -4 -20 -10 0 -5 -8 -10 -18 -10 -10 0 -24 -9 -32 -20
-8 -11 -20 -20 -27 -20 -17 0 -203 -186 -203 -203 0 -7 -9 -19 -20 -27 -11 -8
-20 -21 -20 -30 0 -9 -9 -22 -20 -30 -11 -8 -20 -22 -20 -32 0 -10 -4 -18 -10
-18 -5 0 -10 -9 -10 -20 0 -11 -4 -20 -10 -20 -5 0 -10 -9 -10 -20 0 -11 -4
-20 -10 -20 -5 0 -10 -9 -10 -20 0 -11 -4 -20 -10 -20 -5 0 -10 -8 -10 -18 0
-10 -9 -24 -20 -32 -11 -8 -20 -21 -20 -30 0 -9 -9 -22 -20 -30 -11 -8 -20
-20 -20 -27 0 -16 -105 -123 -121 -123 -6 0 -24 -13 -39 -30 -15 -16 -35 -30
-44 -30 -9 0 -16 -4 -16 -10 0 -5 -9 -10 -20 -10 -11 0 -20 -4 -20 -10 0 -5
-9 -10 -20 -10 -11 0 -20 -4 -20 -10 0 -5 -9 -10 -20 -10 -11 0 -20 -4 -20
-10 0 -5 -9 -10 -20 -10 -11 0 -20 -4 -20 -10 0 -5 -13 -10 -30 -10 -16 0 -30
-4 -30 -10 0 -5 -9 -10 -20 -10 -11 0 -20 -4 -20 -10 0 -5 -13 -10 -30 -10
-16 0 -30 -4 -30 -10 0 -5 -13 -10 -30 -10 -16 0 -30 -4 -30 -10 0 -5 -13 -10
-30 -10 -16 0 -30 -4 -30 -10 0 -5 -13 -10 -30 -10 -16 0 -30 -4 -30 -10 0 -5
-9 -10 -20 -10 -11 0 -20 -4 -20 -10 0 -5 -9 -10 -20 -10 -11 0 -20 -4 -20
-10 0 -5 -9 -10 -20 -10 -11 0 -20 -4 -20 -10 0 -5 -8 -10 -18 -10 -10 0 -24
-9 -32 -20 -8 -11 -21 -20 -30 -20 -9 0 -22 -9 -30 -20 -8 -11 -21 -20 -28
-20 -8 0 -27 -13 -42 -30 -15 -16 -34 -30 -42 -30 -7 0 -20 -9 -28 -20 -8 -11
-22 -20 -32 -20 -10 0 -18 -4 -18 -10 0 -5 -9 -10 -20 -10 -11 0 -20 -4 -20
-10 0 -5 -4 -10 -10 -10 -18 0 -11 55 10 70 11 8 20 21 20 28 0 8 14 27 30 42
17 15 30 33 30 39 0 15 66 81 81 81 6 0 24 14 39 30 15 17 34 30 42 30 7 0 20
9 28 20 8 11 22 20 32 20 10 0 18 5 18 10 0 6 9 10 20 10 11 0 20 5 20 10 0 6
9 10 20 10 11 0 20 5 20 10 0 6 14 10 30 10 17 0 30 5 30 10 0 6 9 10 20 10
11 0 20 5 20 10 0 6 14 10 30 10 17 0 30 5 30 10 0 6 14 10 30 10 17 0 30 5
30 10 0 6 14 10 30 10 17 0 30 5 30 10 0 6 9 10 20 10 11 0 20 5 20 10 0 6 9
10 20 10 11 0 20 5 20 10 0 6 9 10 20 10 11 0 20 5 20 10 0 6 9 10 20 10 11 0
20 5 20 10 0 6 7 10 16 10 9 0 29 14 44 30 15 17 33 30 39 30 15 0 101 86 101
101 0 6 14 24 30 39 17 15 30 34 30 42 0 7 9 20 20 28 11 8 20 21 20 30 0 9 9
22 20 30 11 8 20 22 20 32 0 10 5 18 10 18 6 0 10 8 10 18 0 10 9 24 20 32 11
8 20 22 20 32 0 10 5 18 10 18 6 0 10 8 10 18 0 10 9 24 20 32 11 8 20 21 20
30 0 9 9 22 20 30 11 8 20 20 20 27 0 19 166 183 185 183 8 0 15 5 15 10 0 6
8 10 18 10 10 0 24 9 32 20 8 11 22 20 32 20 10 0 18 5 18 10 0 6 14 10 30 10
17 0 30 5 30 10 0 6 9 10 20 10 11 0 20 5 20 10 0 6 14 10 30 10 17 0 30 5 30
10 0 6 14 10 30 10 17 0 30 5 30 10 0 6 14 10 30 10 17 0 30 5 30 10 0 6 14
10 30 10 17 0 30 5 30 10 0 6 14 10 30 10 17 0 30 5 30 10 0 6 18 10 40 10 22
0 40 5 40 10 0 6 14 10 30 10 17 0 30 5 30 10 0 6 14 10 30 10 17 0 30 5 30
10 0 6 9 10 20 10 11 0 20 5 20 10 0 6 14 10 30 10 17 0 30 5 30 10 0 6 9 10
20 10 11 0 20 5 20 10 0 6 9 10 20 10 11 0 20 5 20 10 0 6 9 10 20 10 11 0 20
5 20 10 0 6 7 10 16 10 9 0 29 14 44 30 15 17 33 30 40 30 6 0 33 23 60 50 27
28 54 50 60 50 15 0 40 25 40 40 0 6 23 33 50 60 28 27 50 54 50 60 0 7 14 25
30 40 17 15 30 35 30 44 0 9 5 16 10 16 6 0 10 8 10 18 0 10 9 24 20 32 11 8
20 22 20 32 0 10 5 18 10 18 6 0 10 8 10 18 0 10 9 24 20 32 11 8 20 22 20 32
0 10 5 18 10 18 6 0 10 8 10 18 0 10 9 24 20 32 11 8 20 21 20 30 0 9 9 22 20
30 11 8 20 20 20 28 0 7 23 35 50 62 28 27 50 56 50 64 0 9 7 16 16 16 8 0 37
23 64 50 27 28 55 50 62 50 8 0 20 9 28 20 8 11 21 20 30 20 9 0 22 9 30 20 8
11 22 20 32 20 10 0 18 5 18 10 0 6 9 10 20 10 11 0 20 5 20 10 0 6 14 10 30
10 17 0 30 5 30 10 0 6 9 10 20 10 11 0 20 5 20 10 0 6 14 10 30 10 17 0 30 5
30 10 0 6 14 10 30 10 17 0 30 5 30 10 0 6 14 10 30 10 17 0 30 5 30 10 0 6
18 10 40 10 22 0 40 5 40 10 0 6 18 10 40 10 22 0 40 5 40 10 0 6 14 10 30 10
17 0 30 5 30 10 0 6 18 10 40 10 22 0 40 5 40 10 0 6 14 10 30 10 17 0 30 5
30 10 0 6 9 10 20 10 11 0 20 5 20 10 0 6 14 10 30 10 17 0 30 5 30 10 0 6 8
10 18 10 10 0 24 9 32 20 8 11 22 20 32 20 10 0 18 5 18 10 0 6 7 10 16 10 9
0 29 14 44 30 15 17 33 30 39 30 15 0 81 66 81 80 0 7 18 29 40 50 22 21 40
45 40 52 0 7 9 20 20 28 11 8 20 22 20 32 0 10 5 18 10 18 6 0 10 8 10 18 0
10 9 24 20 32 11 8 20 22 20 32 0 10 5 18 10 18 6 0 10 8 10 18 0 10 9 24 20
32 11 8 20 22 20 32 0 10 5 18 10 18 6 0 10 7 10 16 0 9 14 29 30 44 17 15 30
33 30 39 0 16 147 161 163 161 7 0 19 9 27 20 8 11 22 20 32 20 10 0 18 5 18
10 0 6 9 10 20 10 11 0 20 5 20 10 0 6 9 10 20 10 11 0 20 5 20 10 0 6 9 10
20 10 11 0 20 5 20 10 0 6 9 10 20 10 11 0 20 5 20 10 0 6 9 10 20 10 11 0 20
5 20 10 0 6 14 10 30 10 17 0 30 5 30 10 0 6 14 10 30 10 17 0 30 5 30 10 0 6
14 10 30 10 17 0 30 5 30 10 0 6 14 10 30 10 17 0 30 5 30 10 0 6 14 10 30 10
17 0 30 5 30 10 0 6 9 10 20 10 11 0 20 5 20 10 0 6 14 10 30 10 17 0 30 5 30
10 0 6 9 10 20 10 11 0 20 5 20 10 0 6 14 10 30 10 17 0 30 5 30 10 0 6 8 10
18 10 10 0 24 9 32 20 8 11 22 20 32 20 10 0 18 5 18 10 0 6 7 10 16 10 9 0
29 14 44 30 15 17 34 30 42 30 7 0 20 9 28 20 8 11 21 20 28 20 8 0 27 14 42
30 15 17 35 30 44 30 9 0 16 5 16 10 0 15 29 12 46 -4z"/>
</g>
</svg>
