<svg xmlns="http://www.w3.org/2000/svg" viewBox="0 0 1068.000000 666.000000" fill="currentColor" aria-hidden="true">
<g transform="translate(0.000000,666.000000) scale(0.100000,-0.100000)" fill="currentColor" stroke="none">
<path d="M0 3330 l0 -3330 5340 0 5340 0 0 3330 0 3330 -5340 0 -5340 0 0
-3330z m8000 2060 c0 -5 14 -10 30 -10 17 0 30 -4 30 -10 0 -5 7 -10 16 -10 9
0 29 -13 44 -30 30 -32 54 -38 64 -17 5 10 7 10 12 0 3 -7 17 -13 31 -13 16 0
38 -14 63 -40 21 -22 46 -40 54 -40 9 0 16 -4 16 -10 0 -5 7 -10 15 -10 20 0
205 -185 205 -205 0 -8 5 -15 10 -15 6 0 10 -9 10 -20 0 -11 5 -20 10 -20 6 0
10 -25 10 -56 0 -49 4 -59 30 -84 17 -15 30 -34 30 -42 0 -7 9 -20 20 -28 11
-8 20 -22 20 -32 0 -10 5 -18 10 -18 6 0 10 -18 10 -40 0 -22 5 -40 10 -40 6
0 10 -13 10 -30 0 -16 -4 -30 -10 -30 -5 0 -10 -13 -10 -30 0 -16 -4 -30 -10
-30 -5 0 -10 -9 -10 -20 0 -11 -4 -20 -10 -20 -5 0 -10 -18 -10 -40 0 -22 -4
-40 -10 -40 -5 0 -10 -21 -10 -46 0 -47 -16 -74 -44 -74 -9 0 -16 -4 -16 -10
0 -5 -9 -10 -20 -10 -11 0 -20 -4 -20 -10 0 -6 -27 -10 -60 -10 -33 0 -60 4
-60 10 0 6 -13 10 -30 10 -16 0 -30 5 -30 10 0 6 -9 10 -20 10 -11 0 -20 5
-20 10 0 6 -9 10 -20 10 -11 0 -20 5 -20 10 0 6 -9 10 -20 10 -11 0 -20 5 -20
10 0 6 -8 10 -18 10 -10 0 -24 9 -32 20 -8 11 -22 20 -32 20 -10 0 -18 5 -18
10 0 6 -8 10 -18 10 -10 0 -24 9 -32 20 -8 11 -21 20 -30 20 -9 0 -22 9 -30
20 -8 11 -21 20 -30 20 -9 0 -22 9 -30 20 -8 11 -22 20 -32 20 -10 0 -18 5
-18 10 0 6 -8 10 -18 10 -10 0 -24 9 -32 20 -8 11 -22 20 -32 20 -10 0 -18 5
-18 10 0 6 -9 10 -20 10 -11 0 -20 5 -20 10 0 6 -33 10 -80 10 -47 0 -80 -4
-80 -10 0 -6 -27 -10 -60 -10 -33 0 -60 -4 -60 -10 0 -6 -33 -10 -80 -10 -47
0 -80 4 -80 10 0 6 -11 10 -25 10 -33 0 -75 42 -75 75 0 14 -4 25 -10 25 -5 0
-10 23 -10 50 0 28 5 50 10 50 6 0 10 18 10 40 0 29 -4 40 -15 40 -20 0 -85
65 -85 85 0 8 -4 15 -10 15 -6 0 -10 33 -10 80 0 47 4 80 10 80 6 0 10 7 10
15 0 20 85 105 105 105 8 0 15 5 15 10 0 6 9 10 20 10 11 0 20 5 20 10 0 6 18
10 40 10 22 0 40 5 40 10 0 6 23 10 50 10 28 0 50 5 50 10 0 6 40 10 100 10
60 0 100 -4 100 -10 0 -5 23 -10 50 -10 28 0 50 -4 50 -10 0 -5 14 -10 30 -10
27 0 30 3 30 30 0 17 5 30 10 30 6 0 10 7 10 15 0 26 43 64 73 64 15 1 27 -3
27 -9z m-1954 -484 c8 -8 14 -22 14 -30 0 -9 5 -16 10 -16 6 0 10 -13 10 -30
0 -16 -4 -30 -10 -30 -5 0 -10 -9 -10 -20 0 -11 -4 -20 -10 -20 -5 0 -10 -7
-10 -15 0 -20 -65 -85 -85 -85 -8 0 -15 -4 -15 -10 0 -5 20 -10 45 -10 54 0
95 -33 95 -75 0 -14 5 -25 10 -25 6 0 10 -18 10 -40 0 -22 -4 -40 -10 -40 -5
0 -10 -13 -10 -28 0 -16 -8 -34 -20 -42 -11 -8 -20 -20 -20 -28 0 -16 -24 -42
-40 -42 -16 0 -60 -47 -60 -65 0 -8 8 -15 18 -15 10 0 24 -9 32 -20 8 -11 22
-20 32 -20 10 0 18 -4 18 -10 0 -6 27 -10 60 -10 33 0 60 4 60 10 0 6 7 10 15
10 9 0 47 32 85 70 38 39 76 70 85 70 8 0 15 5 15 10 0 6 14 10 30 10 17 0 30
-4 30 -10 0 -5 9 -10 20 -10 11 0 20 -4 20 -10 0 -5 9 -10 20 -10 11 0 20 -4
20 -10 0 -5 9 -10 20 -10 11 0 20 -4 20 -10 0 -5 9 -10 20 -10 11 0 20 -4 20
-10 0 -5 14 -10 30 -10 17 0 30 -4 30 -10 0 -5 8 -10 18 -10 10 0 24 -9 32
-20 8 -11 20 -20 28 -20 18 0 62 -46 62 -65 0 -8 5 -15 10 -15 6 0 10 -9 10
-20 0 -11 5 -20 10 -20 6 0 10 -27 10 -60 0 -33 -4 -60 -10 -60 -6 0 -10 -27
-10 -60 0 -33 -4 -60 -10 -60 -5 0 -10 -17 -10 -38 0 -26 -6 -42 -20 -52 -11
-8 -20 -20 -20 -28 0 -16 -24 -42 -40 -42 -6 0 -22 -11 -35 -25 -19 -18 -25
-35 -25 -70 0 -25 -4 -45 -10 -45 -5 0 -10 -13 -10 -30 0 -16 -4 -30 -10 -30
-5 0 -10 -7 -10 -15 0 -9 -31 -47 -70 -85 -38 -38 -70 -75 -70 -82 0 -8 -9
-20 -20 -28 -11 -8 -20 -22 -20 -32 0 -10 -4 -18 -10 -18 -5 0 -10 -13 -10
-30 0 -16 -4 -30 -10 -30 -5 0 -10 -18 -10 -40 0 -22 -4 -40 -10 -40 -5 0 -10
-22 -10 -50 0 -27 -4 -50 -10 -50 -5 0 -10 -13 -10 -30 0 -16 -4 -30 -10 -30
-5 0 -10 -13 -10 -30 0 -16 -4 -30 -10 -30 -5 0 -10 -7 -10 -15 0 -20 -165
-185 -185 -185 -8 0 -15 -4 -15 -10 0 -5 -8 -10 -18 -10 -10 0 -24 -9 -32 -20
-8 -11 -20 -20 -28 -20 -7 0 -62 -49 -122 -110 -60 -60 -116 -110 -125 -110
-8 0 -15 -4 -15 -10 0 -6 -30 -10 -70 -10 -40 0 -70 4 -70 10 0 6 -7 10 -15
10 -19 0 -145 124 -145 143 0 7 -9 19 -20 27 -11 8 -20 20 -20 28 0 7 -16 28
-35 47 l-34 35 -176 0 c-110 0 -175 4 -175 10 0 6 -13 10 -30 10 -16 0 -30 5
-30 10 0 6 -13 10 -28 10 -16 0 -34 8 -42 20 -8 11 -20 20 -28 20 -17 0 -42
25 -42 42 0 8 -9 20 -20 28 -11 8 -20 22 -20 32 0 10 -4 18 -10 18 -5 0 -10 9
-10 20 0 11 -4 20 -10 20 -5 0 -10 18 -10 40 0 22 -4 40 -10 40 -6 0 -10 52
-10 135 0 131 -1 137 -25 160 -13 14 -31 25 -40 25 -8 0 -15 5 -15 10 0 6 -22
10 -50 10 -27 0 -50 -4 -50 -10 0 -5 -7 -10 -15 -10 -9 0 -36 -20 -60 -45 -25
-24 -45 -51 -45 -60 0 -8 -4 -15 -10 -15 -5 0 -10 -9 -10 -20 0 -11 -4 -20
-10 -20 -5 0 -10 -9 -10 -20 0 -11 -4 -20 -10 -20 -5 0 -10 -7 -10 -15 0 -20
-45 -65 -65 -65 -8 0 -15 -4 -15 -10 0 -6 -27 -10 -60 -10 -33 0 -60 4 -60 10
0 6 -9 10 -20 10 -11 0 -20 5 -20 10 0 6 -7 10 -15 10 -9 0 -27 11 -40 25 -14
13 -25 31 -25 40 0 8 -4 15 -10 15 -5 0 -10 9 -10 20 0 11 -4 20 -10 20 -5 0
-10 12 -10 26 0 45 -20 54 -122 54 -82 0 -95 2 -108 20 -8 11 -22 20 -32 20
-11 0 -18 7 -18 18 0 10 -9 24 -20 32 -11 8 -20 22 -20 32 0 10 -4 18 -10 18
-5 0 -10 9 -10 20 0 11 -4 20 -10 20 -6 0 -10 30 -10 70 0 40 4 70 10 70 6 0
10 9 10 20 0 11 5 20 10 20 6 0 10 7 10 16 0 19 24 44 42 44 8 0 20 9 28 20 8
11 21 20 28 20 8 0 27 14 42 30 15 17 33 30 40 30 6 0 29 18 50 40 21 22 44
40 50 40 6 0 29 18 50 40 21 22 45 40 52 40 7 0 20 9 28 20 8 11 21 20 30 20
9 0 22 9 30 20 8 11 21 20 30 20 9 0 22 9 30 20 8 11 22 20 32 20 10 0 18 5
18 10 0 6 7 10 15 10 17 0 165 144 165 160 0 14 147 160 161 160 6 0 24 14 39
30 15 17 33 30 40 30 7 0 25 14 40 30 15 17 35 30 44 30 9 0 16 5 16 10 0 6 9
10 20 10 11 0 20 5 20 10 0 6 9 10 20 10 11 0 20 5 20 10 0 6 9 10 20 10 11 0
20 5 20 10 0 6 9 10 20 10 11 0 20 5 20 10 0 6 14 10 30 10 17 0 30 5 30 10 0
6 9 10 20 10 11 0 20 5 20 10 0 6 9 10 20 10 11 0 20 5 20 10 0 6 9 10 20 10
11 0 20 5 20 10 0 6 9 10 20 10 11 0 20 5 20 10 0 6 9 10 20 10 11 0 20 5 20
10 0 6 9 10 20 10 11 0 20 5 20 10 0 6 9 10 20 10 11 0 20 5 20 10 0 6 14 10
30 10 17 0 30 5 30 10 0 6 18 10 40 10 22 0 40 5 40 10 0 6 23 10 50 10 28 0
50 5 50 10 0 6 27 10 60 10 33 0 60 4 60 10 0 6 18 10 40 10 22 0 40 5 40 10
0 6 14 10 30 10 17 0 30 5 30 10 0 6 9 10 20 10 11 0 20 5 20 10 0 6 9 10 20
10 11 0 20 5 20 10 0 17 189 13 206 -4z m1974 -2296 c0 -5 14 -10 30 -10 17 0
30 -4 30 -10 0 -5 7 -10 16 -10 8 0 37 -22 64 -50 27 -27 55 -50 62 -50 8 0
20 -9 28 -20 13 -17 26 -20 102 -20 52 0 88 4 88 10 0 6 8 10 18 10 10 0 24 9
32 20 8 11 21 20 30 20 9 0 22 9 30 20 8 11 21 20 30 20 9 0 22 9 30 20 8 11
22 20 32 20 10 0 18 5 18 10 0 6 23 10 50 10 28 0 50 -4 50 -10 0 -5 14 -10
30 -10 17 0 30 -4 30 -10 0 -5 8 -10 18 -10 10 0 24 -9 32 -20 8 -11 21 -20
30 -20 9 0 22 -9 30 -20 8 -11 22 -20 32 -20 10 0 18 -4 18 -10 0 -5 18 -10
40 -10 22 0 40 -4 40 -10 0 -6 42 -10 106 -10 85 0 109 -3 122 -17 12 -12 13
-18 4 -21 -6 -2 -12 -12 -12 -23 0 -12 -7 -19 -20 -19 -11 0 -20 -4 -20 -10 0
-5 -9 -10 -20 -10 -11 0 -20 -4 -20 -10 0 -6 -50 -10 -130 -10 -80 0 -130 4
-130 10 0 6 -13 10 -30 10 -16 0 -30 5 -30 10 0 6 -13 10 -30 10 -16 0 -30 5
-30 10 0 6 -8 10 -18 10 -10 0 -24 9 -32 20 -8 11 -22 20 -31 20 -10 0 -20 6
-23 13 -5 10 -7 10 -12 0 -3 -7 -12 -13 -21 -13 -8 0 -28 -13 -43 -30 -15 -16
-34 -30 -42 -30 -7 0 -20 -9 -28 -20 -8 -11 -22 -20 -32 -20 -10 0 -18 -4 -18
-10 0 -5 -13 -10 -30 -10 -16 0 -30 -4 -30 -10 0 -6 -40 -10 -100 -10 -60 0
-100 4 -100 10 0 6 -13 10 -30 10 -16 0 -30 5 -30 10 0 6 -8 10 -18 10 -10 0
-24 9 -32 20 -8 11 -21 20 -28 20 -8 0 -27 14 -42 30 -15 17 -34 30 -42 30 -7
0 -20 9 -28 20 -8 11 -21 20 -30 20 -9 0 -22 -9 -30 -20 -8 -11 -21 -20 -30
-20 -9 0 -22 -9 -30 -20 -8 -11 -22 -20 -32 -20 -10 0 -18 -4 -18 -10 0 -5
-13 -10 -30 -10 -16 0 -30 -4 -30 -10 0 -6 -29 -10 -66 -10 -64 0 -94 13 -94
40 0 17 26 40 44 40 9 0 16 5 16 10 0 6 9 10 20 10 11 0 20 5 20 10 0 6 9 10
20 10 11 0 20 5 20 10 0 6 8 10 18 10 10 0 24 9 32 20 8 11 21 20 28 20 7 0
31 18 52 40 25 26 47 40 64 40 14 0 26 5 26 10 0 6 9 10 20 10 11 0 20 -4 20
-10z m-5480 -180 c0 -5 9 -10 20 -10 11 0 20 -4 20 -10 0 -5 7 -10 16 -10 9 0
29 -13 44 -30 17 -18 38 -30 54 -30 14 0 26 -4 26 -10 0 -5 7 -10 15 -10 9 0
36 -20 60 -45 36 -36 45 -51 45 -80 0 -19 5 -35 10 -35 6 0 10 -40 10 -100 0
-60 -4 -100 -10 -100 -5 0 -10 -7 -10 -15 0 -9 -36 -51 -80 -95 -44 -44 -80
-85 -80 -92 0 -8 -9 -20 -20 -28 -11 -8 -20 -22 -20 -32 0 -10 -4 -18 -10 -18
-5 0 -10 -7 -10 -15 0 -20 -105 -125 -125 -125 -8 0 -15 -4 -15 -10 0 -5 -9
-10 -20 -10 -11 0 -20 -4 -20 -10 0 -5 -13 -10 -30 -10 -16 0 -30 -4 -30 -10
0 -5 -7 -10 -15 -10 -25 0 -65 -46 -65 -75 0 -14 5 -25 10 -25 6 0 10 -13 10
-30 0 -16 -4 -30 -10 -30 -5 0 -10 -9 -10 -20 0 -13 -7 -20 -20 -20 -11 0 -20
-4 -20 -10 0 -6 -33 -10 -80 -10 -47 0 -80 4 -80 10 0 6 -13 10 -30 10 -16 0
-30 5 -30 10 0 6 -9 10 -20 10 -11 0 -20 5 -20 10 0 6 -9 10 -20 10 -11 0 -20
5 -20 10 0 6 -9 10 -20 10 -11 0 -20 5 -20 10 0 6 -18 10 -40 10 -22 0 -40 -4
-40 -10 0 -5 -13 -10 -30 -10 -16 0 -30 -4 -30 -10 0 -6 -27 -10 -60 -10 -33
0 -60 4 -60 10 0 6 -11 10 -25 10 -29 0 -95 59 -95 85 0 8 -4 15 -10 15 -5 0
-10 23 -10 50 0 28 5 50 10 50 6 0 10 14 10 30 0 17 5 30 10 30 6 0 10 9 10
20 0 11 5 20 10 20 6 0 10 9 10 20 0 11 -4 20 -10 20 -5 0 -10 9 -10 20 0 11
-4 20 -10 20 -5 0 -10 13 -10 29 0 16 -6 32 -12 35 -10 5 -10 7 0 12 6 3 12
19 12 35 0 16 5 29 10 29 6 0 10 7 10 16 0 20 24 44 44 44 9 0 16 5 16 10 0 6
30 10 70 10 l70 0 0 60 c0 33 4 60 10 60 6 0 10 9 10 20 0 11 5 20 10 20 6 0
10 7 10 15 0 20 105 125 125 125 8 0 15 5 15 10 0 6 14 10 30 10 17 0 30 5 30
10 0 6 14 10 30 10 17 0 30 5 30 10 0 6 14 10 30 10 17 0 30 5 30 10 0 6 9 10
20 10 11 0 20 5 20 10 0 6 8 10 18 10 10 0 24 9 32 20 8 11 22 20 32 20 10 0
18 5 18 10 0 6 9 10 20 10 11 0 20 5 20 10 0 6 14 10 30 10 17 0 30 5 30 10 0
6 37 10 90 10 53 0 90 -4 90 -10z m2920 -200 c0 -5 7 -10 16 -10 20 0 44 -24
44 -44 0 -9 5 -16 10 -16 6 0 10 -30 10 -70 0 -40 -4 -70 -10 -70 -5 0 -10
-11 -10 -25 0 -29 -59 -95 -85 -95 -8 0 -15 -4 -15 -10 0 -6 -28 -10 -65 -10
-62 0 -68 2 -100 35 -19 19 -35 41 -35 50 0 8 -4 15 -10 15 -20 0 -10 51 15
75 24 25 55 33 55 15 0 -5 9 -10 20 -10 11 0 20 -4 20 -10 0 -5 9 -10 20 -10
11 0 20 5 20 10 0 6 -4 10 -10 10 -5 0 -10 25 -10 55 0 49 4 60 33 90 31 32
87 49 87 25z m1075 -675 c14 -13 25 -29 25 -35 0 -16 108 -120 125 -120 8 0
15 -4 15 -10 0 -5 14 -10 30 -10 17 0 30 -4 30 -10 0 -6 27 -10 60 -10 33 0
60 4 60 10 0 6 14 10 30 10 17 0 30 5 30 10 0 6 9 10 20 10 11 0 20 5 20 10 0
6 9 10 20 10 11 0 20 5 20 10 0 6 7 10 16 10 8 0 33 18 54 40 21 22 45 40 52
40 7 0 20 9 28 20 8 11 22 20 32 20 10 0 18 5 18 10 0 6 27 10 60 10 33 0 60
-4 60 -10 0 -5 9 -10 20 -10 11 0 20 -4 20 -10 0 -5 9 -10 20 -10 11 0 20 -4
20 -10 0 -5 8 -10 18 -10 10 0 24 -9 32 -20 8 -11 22 -20 32 -20 10 0 18 -4
18 -10 0 -5 14 -10 30 -10 17 0 30 -4 30 -10 0 -5 14 -10 30 -10 17 0 30 -4
30 -10 0 -6 47 -10 120 -10 73 0 120 4 120 10 0 6 21 10 46 10 44 0 74 -16 74
-40 0 -16 -47 -60 -65 -60 -8 0 -15 -4 -15 -10 0 -5 -9 -10 -20 -10 -11 0 -20
-4 -20 -10 0 -5 -13 -10 -30 -10 -16 0 -30 -4 -30 -10 0 -6 -47 -10 -120 -10
-73 0 -120 4 -120 10 0 6 -18 10 -40 10 -22 0 -40 5 -40 10 0 6 -9 10 -20 10
-11 0 -20 5 -20 10 0 6 -9 10 -20 10 -11 0 -20 5 -20 10 0 6 -9 10 -20 10 -11
0 -20 5 -20 10 0 6 -9 10 -20 10 -11 0 -20 5 -20 10 0 6 -9 10 -20 10 -11 0
-20 5 -20 10 0 6 -9 10 -20 10 -11 0 -20 -4 -20 -10 0 -5 -7 -10 -16 -10 -9 0
-29 -13 -44 -30 -15 -16 -34 -30 -42 -30 -7 0 -20 -9 -28 -20 -8 -11 -22 -20
-32 -20 -10 0 -18 -4 -18 -10 0 -5 -9 -10 -20 -10 -11 0 -20 -4 -20 -10 0 -5
-9 -10 -20 -10 -11 0 -20 -4 -20 -10 0 -5 -13 -10 -30 -10 -16 0 -30 -4 -30
-10 0 -6 -43 -10 -110 -10 -67 0 -110 4 -110 10 0 6 -13 10 -30 10 -16 0 -30
5 -30 10 0 6 -9 10 -20 10 -11 0 -20 5 -20 10 0 6 -8 10 -18 10 -10 0 -24 9
-32 20 -8 11 -20 20 -28 20 -18 0 -82 66 -82 85 0 8 -9 15 -20 15 -12 0 -20
-7 -20 -16 0 -18 -23 -44 -40 -44 -6 0 -29 -18 -50 -40 -21 -22 -46 -40 -54
-40 -9 0 -16 -4 -16 -10 0 -5 -9 -10 -20 -10 -11 0 -20 -4 -20 -10 0 -5 -9
-10 -20 -10 -11 0 -20 -4 -20 -10 0 -5 -18 -10 -40 -10 -22 0 -40 -4 -40 -10
0 -6 -37 -10 -90 -10 -53 0 -90 4 -90 10 0 6 -7 10 -16 10 -20 0 -44 24 -44
44 0 9 8 16 20 16 11 0 20 5 20 10 0 6 33 10 80 10 47 0 80 4 80 10 0 6 14 10
30 10 17 0 30 5 30 10 0 6 9 10 20 10 11 0 20 5 20 10 0 6 9 10 20 10 11 0 20
5 20 10 0 6 7 10 15 10 9 0 51 36 95 80 44 44 85 80 92 80 8 0 20 9 28 20 21
29 74 27 105 -5z m-4110 -390 c30 -30 55 -60 55 -68 0 -7 9 -19 20 -27 11 -8
20 -20 20 -28 0 -22 48 -62 75 -62 14 0 25 5 25 10 0 6 27 10 60 10 33 0 60
-4 60 -10 0 -5 9 -10 20 -10 13 0 20 -7 20 -20 0 -11 5 -20 10 -20 6 0 10 -9
10 -20 0 -11 5 -20 10 -20 6 0 10 -18 10 -40 0 -22 -4 -40 -10 -40 -5 0 -10
-9 -10 -20 0 -11 -4 -20 -10 -20 -5 0 -10 -7 -10 -15 0 -20 -45 -65 -65 -65
-8 0 -15 -4 -15 -10 0 -5 -18 -10 -40 -10 -22 0 -40 -4 -40 -10 0 -5 -13 -10
-30 -10 -16 0 -30 5 -30 10 0 6 -22 10 -48 10 -36 0 -51 5 -62 20 -8 11 -21
20 -30 20 -9 0 -22 9 -30 20 -8 11 -20 20 -28 20 -16 0 -42 -24 -42 -40 0 -16
-67 -80 -85 -80 -8 0 -15 -4 -15 -10 0 -5 -9 -10 -20 -10 -11 0 -20 -4 -20
-10 0 -5 -13 -10 -30 -10 -16 0 -30 5 -30 10 0 6 -7 10 -15 10 -26 0 -85 66
-85 95 0 14 -4 25 -10 25 -6 0 -10 40 -10 100 0 60 4 100 10 100 6 0 10 14 10
30 0 17 5 30 10 30 6 0 10 8 10 18 0 10 9 24 20 32 11 8 20 20 20 28 0 17 45
62 62 62 8 0 20 9 28 20 8 11 22 20 32 20 10 0 18 5 18 10 0 6 14 10 30 10 17
0 30 5 30 10 0 6 20 10 45 10 42 0 50 -5 100 -55z m5655 -115 c0 -5 9 -10 20
-10 11 0 20 -4 20 -10 0 -5 8 -10 18 -10 10 0 24 -9 32 -20 8 -11 22 -20 32
-20 10 0 18 -4 18 -10 0 -5 9 -10 20 -10 11 0 20 -4 20 -10 0 -6 27 -10 60
-10 33 0 60 -4 60 -10 0 -5 12 -10 26 -10 14 0 32 -6 40 -14 21 -21 17 -46 -6
-46 -11 0 -20 -4 -20 -10 0 -5 -18 -10 -40 -10 -22 0 -40 -4 -40 -10 0 -6 -27
-10 -60 -10 -33 0 -60 4 -60 10 0 6 -13 10 -30 10 -16 0 -30 5 -30 10 0 6 -9
10 -20 10 -11 0 -20 5 -20 10 0 6 -9 10 -20 10 -11 0 -20 5 -20 10 0 6 -18 10
-40 10 -22 0 -40 -4 -40 -10 0 -5 -8 -10 -18 -10 -10 0 -24 -9 -32 -20 -8 -11
-22 -20 -32 -20 -10 0 -18 -4 -18 -10 0 -5 -9 -10 -20 -10 -11 0 -20 -4 -20
-10 0 -5 -13 -10 -30 -10 -16 0 -30 -4 -30 -10 0 -6 -47 -10 -120 -10 -73 0
-120 4 -120 10 0 6 -13 10 -30 10 -16 0 -30 5 -30 10 0 6 -9 10 -20 10 -11 0
-20 5 -20 10 0 6 -9 10 -20 10 -11 0 -20 5 -20 10 0 6 -8 10 -18 10 -10 0 -24
9 -32 20 -8 11 -21 20 -30 20 -9 0 -22 -9 -30 -20 -8 -11 -21 -20 -30 -20 -9
0 -22 -9 -30 -20 -8 -11 -22 -20 -32 -20 -10 0 -18 -4 -18 -10 0 -5 -13 -10
-30 -10 -16 0 -30 -4 -30 -10 0 -5 -13 -10 -30 -10 -23 0 -30 4 -30 20 0 13 7
20 18 20 10 0 24 9 32 20 8 11 20 20 28 20 7 0 48 36 92 80 69 70 84 80 115
80 19 0 35 -4 35 -10 0 -5 9 -10 20 -10 11 0 20 -4 20 -10 0 -5 9 -10 20 -10
11 0 20 -4 20 -10 0 -5 9 -10 20 -10 11 0 20 -4 20 -10 0 -5 9 -10 20 -10 11
0 20 -4 20 -10 0 -6 43 -10 110 -10 67 0 110 4 110 10 0 6 14 10 30 10 17 0
30 5 30 10 0 6 7 10 16 10 9 0 29 14 44 30 15 17 35 30 44 30 9 0 16 5 16 10
0 6 14 10 30 10 17 0 30 5 30 10 0 6 14 10 30 10 17 0 30 -4 30 -10z"/>
<path d="M7980 5130 c-24 -29 -27 -29 -122 -30 -59 0 -98 4 -98 10 0 6 -50 10
-130 10 -80 0 -130 -4 -130 -10 0 -5 -18 -10 -40 -10 -22 0 -40 -4 -40 -10 0
-5 -12 -10 -26 -10 -35 0 -54 -22 -54 -64 0 -26 4 -36 15 -36 20 0 65 -45 65
-65 0 -8 5 -15 10 -15 6 0 10 -9 10 -20 0 -11 5 -20 10 -20 6 0 10 -9 10 -20
0 -11 -4 -20 -10 -20 -5 0 -10 -13 -10 -30 0 -16 -4 -30 -10 -30 -15 0 -12
-29 4 -46 17 -16 46 -19 46 -4 0 6 30 10 70 10 40 0 70 4 70 10 0 6 43 10 110
10 67 0 110 -4 110 -10 0 -5 14 -10 30 -10 17 0 30 -4 30 -10 0 -5 9 -10 20
-10 11 0 20 -4 20 -10 0 -5 9 -10 20 -10 11 0 20 -4 20 -10 0 -5 8 -10 18 -10
10 0 24 -9 32 -20 8 -11 22 -20 32 -20 10 0 18 -4 18 -10 0 -5 8 -10 18 -10
10 0 24 -9 32 -20 8 -11 21 -20 30 -20 9 0 22 -9 30 -20 8 -11 21 -20 30 -20
9 0 22 -9 30 -20 8 -11 22 -20 32 -20 10 0 18 -4 18 -10 0 -5 9 -10 20 -10 11
0 20 -4 20 -10 0 -5 9 -10 20 -10 11 0 20 -4 20 -10 0 -5 9 -10 20 -10 11 0
20 -4 20 -10 0 -5 9 -10 20 -10 11 0 20 -4 20 -10 0 -5 18 -10 40 -10 l40 0 0
50 c0 28 5 50 10 50 6 0 10 9 10 20 0 11 5 20 10 20 6 0 10 21 10 46 0 40 -5
50 -40 84 -22 21 -40 45 -40 52 0 7 -9 20 -20 28 -14 10 -20 26 -20 52 0 21
-4 38 -10 38 -5 0 -10 21 -10 46 0 44 -16 74 -40 74 -7 0 -25 14 -40 30 -17
18 -38 30 -54 30 -14 0 -26 5 -26 10 0 6 -7 10 -15 10 -25 0 -65 46 -65 75 0
30 -10 32 -30 5 -25 -35 -75 -27 -120 20 -21 22 -40 40 -42 40 -2 0 -14 -14
-28 -30z"/>
<path d="M5720 4690 c0 -5 -18 -10 -40 -10 -22 0 -40 -4 -40 -10 0 -5 -22 -10
-50 -10 -27 0 -50 -4 -50 -10 0 -5 -18 -10 -40 -10 -22 0 -40 -4 -40 -10 0 -5
-9 -10 -20 -10 -11 0 -20 -4 -20 -10 0 -5 -13 -10 -30 -10 -16 0 -30 -4 -30
-10 0 -5 -9 -10 -20 -10 -11 0 -20 -4 -20 -10 0 -5 -13 -10 -30 -10 -16 0 -30
-4 -30 -10 0 -5 -9 -10 -20 -10 -11 0 -20 -4 -20 -10 0 -5 -9 -10 -20 -10 -11
0 -20 -4 -20 -10 0 -5 -9 -10 -20 -10 -11 0 -20 -4 -20 -10 0 -5 -9 -10 -20
-10 -11 0 -20 -4 -20 -10 0 -5 -9 -10 -20 -10 -11 0 -20 -4 -20 -10 0 -5 -9
-10 -20 -10 -11 0 -20 -4 -20 -10 0 -5 -9 -10 -20 -10 -11 0 -20 -4 -20 -10 0
-5 -9 -10 -20 -10 -11 0 -20 -4 -20 -10 0 -5 -8 -10 -18 -10 -10 0 -24 -9 -32
-20 -8 -11 -22 -20 -32 -20 -10 0 -18 -4 -18 -10 0 -5 -7 -10 -16 -10 -9 0
-29 -13 -44 -30 -15 -16 -33 -30 -39 -30 -14 0 -181 -166 -181 -180 0 -14
-107 -120 -121 -120 -6 0 -24 -13 -39 -30 -15 -16 -34 -30 -42 -30 -7 0 -20
-9 -28 -20 -8 -11 -22 -20 -32 -20 -10 0 -18 -4 -18 -10 0 -5 -8 -10 -18 -10
-10 0 -24 -9 -32 -20 -8 -11 -21 -20 -30 -20 -9 0 -22 -9 -30 -20 -8 -11 -21
-20 -28 -20 -8 0 -27 -13 -42 -30 -15 -16 -33 -30 -40 -30 -7 0 -25 -13 -40
-30 -15 -16 -34 -30 -42 -30 -7 0 -20 -9 -28 -20 -8 -11 -21 -20 -28 -20 -8 0
-27 -13 -42 -30 -15 -16 -33 -30 -40 -30 -21 0 -40 -28 -40 -60 0 -49 18 -60
104 -60 44 0 76 -4 76 -10 0 -5 14 -10 30 -10 17 0 30 -4 30 -10 0 -5 9 -10
20 -10 13 0 20 -7 20 -18 0 -10 9 -24 20 -32 12 -8 20 -26 20 -42 0 -15 5 -28
10 -28 6 0 10 -12 10 -26 0 -14 6 -32 14 -40 21 -21 46 -17 46 6 0 11 5 20 10
20 6 0 10 8 10 18 0 10 9 24 20 32 11 8 20 20 20 27 0 8 25 38 55 68 30 30 60
55 68 55 7 0 19 9 27 20 8 11 22 20 32 20 10 0 18 5 18 10 0 6 9 10 20 10 11
0 20 5 20 10 0 6 27 10 60 10 33 0 60 -4 60 -10 0 -5 14 -10 30 -10 17 0 30
-4 30 -10 0 -5 9 -10 20 -10 11 0 20 -4 20 -10 0 -5 8 -10 18 -10 10 0 24 -9
32 -20 8 -11 20 -20 28 -20 18 0 42 -25 42 -44 0 -9 5 -16 10 -16 6 0 10 -9
10 -20 0 -11 5 -20 10 -20 6 0 10 -33 10 -80 0 -47 -4 -80 -10 -80 -5 0 -10
-13 -10 -30 0 -16 5 -30 10 -30 6 0 10 -18 10 -40 0 -22 5 -40 10 -40 6 0 10
-13 10 -28 0 -16 8 -34 20 -42 11 -8 20 -20 20 -28 0 -22 26 -42 54 -42 14 0
26 -4 26 -10 0 -6 70 -10 190 -10 120 0 190 -4 190 -10 0 -5 9 -10 20 -10 11
0 20 -4 20 -10 0 -5 7 -10 15 -10 19 0 85 -64 85 -82 0 -8 9 -20 20 -28 11 -8
20 -20 20 -27 0 -8 25 -38 55 -68 l55 -56 35 35 c19 20 35 40 35 46 0 15 107
120 123 120 7 0 19 9 27 20 8 11 21 20 30 20 9 0 22 9 30 20 8 11 21 20 30 20
9 0 22 9 30 20 8 11 20 20 28 20 18 0 62 46 62 65 0 8 5 15 10 15 6 0 10 9 10
20 0 11 5 20 10 20 6 0 10 14 10 30 0 17 5 30 10 30 6 0 10 18 10 40 0 22 5
40 10 40 6 0 10 14 10 30 0 17 5 30 10 30 6 0 10 14 10 30 0 17 5 30 10 30 6
0 10 14 10 30 0 17 5 30 10 30 6 0 10 9 10 20 0 11 5 20 10 20 6 0 10 7 10 16
0 8 18 33 40 54 22 21 40 44 40 50 0 6 18 29 40 50 22 21 40 46 40 54 0 9 5
16 10 16 6 0 10 27 10 60 0 33 4 60 10 60 6 0 10 9 10 20 0 11 5 20 10 20 6 0
10 7 10 15 0 18 44 65 60 65 6 0 22 11 35 25 19 18 25 35 25 70 0 25 5 45 10
45 6 0 10 13 10 29 0 16 6 31 12 33 17 6 -14 38 -36 38 -9 0 -16 5 -16 10 0 6
-9 10 -20 10 -11 0 -20 5 -20 10 0 6 -9 10 -20 10 -11 0 -20 5 -20 10 0 6 -13
10 -30 10 -16 0 -30 5 -30 10 0 6 -9 10 -20 10 -11 0 -20 5 -20 10 0 24 -35 6
-80 -40 -27 -27 -55 -50 -62 -50 -8 0 -20 -9 -28 -20 -8 -12 -26 -20 -42 -20
-15 0 -28 -4 -28 -10 0 -6 -33 -10 -80 -10 -47 0 -80 4 -80 10 0 6 -9 10 -20
10 -11 0 -20 5 -20 10 0 6 -9 10 -20 10 -11 0 -20 5 -20 10 0 6 -9 10 -20 10
-11 0 -20 5 -20 10 0 6 -7 10 -15 10 -20 0 -125 105 -125 125 0 8 -4 15 -10
15 -6 0 -10 28 -10 65 0 57 3 69 25 90 13 14 30 25 37 25 8 0 20 9 28 20 8 11
22 20 32 20 10 0 18 5 18 10 0 6 -35 10 -85 10 -78 0 -88 2 -110 25 -19 18
-25 35 -25 65 0 36 6 47 50 90 28 27 50 51 50 54 0 3 -9 6 -20 6 -11 0 -20 -4
-20 -10z"/>
<path d="M2380 2250 c0 -5 -9 -10 -20 -10 -11 0 -20 -4 -20 -10 0 -5 -9 -10
-20 -10 -11 0 -20 -4 -20 -10 0 -5 -9 -10 -20 -10 -11 0 -20 -4 -20 -10 0 -5
-9 -10 -20 -10 -11 0 -20 -4 -20 -10 0 -5 -9 -10 -20 -10 -11 0 -20 -4 -20
-10 0 -5 -9 -10 -20 -10 -11 0 -20 -4 -20 -10 0 -5 -13 -10 -30 -10 -16 0 -30
-4 -30 -10 0 -5 -18 -10 -40 -10 -22 0 -40 -4 -40 -10 0 -5 -9 -10 -20 -10
-13 0 -20 -7 -20 -20 0 -11 -4 -20 -10 -20 -5 0 -10 -9 -10 -19 0 -11 -6 -22
-12 -25 -10 -5 -10 -7 0 -12 14 -7 17 -104 2 -104 -5 0 -10 -16 -10 -35 0 -27
-8 -44 -35 -70 -29 -30 -41 -35 -80 -35 -25 0 -45 5 -45 10 0 6 -4 10 -10 10
-5 0 -10 -9 -10 -20 0 -11 5 -20 10 -20 6 0 10 -30 10 -70 0 -40 -4 -70 -10
-70 -5 0 -10 -9 -10 -20 0 -11 -4 -20 -10 -20 -5 0 -10 -4 -10 -10 0 -5 23
-10 50 -10 28 0 50 5 50 10 0 6 27 10 60 10 33 0 60 -4 60 -10 0 -5 14 -10 30
-10 17 0 30 -4 30 -10 0 -5 9 -10 20 -10 11 0 20 -4 20 -10 0 -5 8 -10 18 -10
10 0 24 -9 32 -20 8 -11 20 -20 28 -20 18 0 42 25 42 44 0 9 5 16 10 16 6 0
10 9 10 20 0 11 5 20 10 20 6 0 10 7 10 15 0 20 65 85 85 85 8 0 15 5 15 10 0
6 18 10 40 10 22 0 40 5 40 10 0 6 7 10 15 10 20 0 65 45 65 65 0 8 5 15 10
15 6 0 10 8 10 18 0 10 9 24 20 32 11 8 20 21 20 30 0 9 9 22 20 30 11 8 20
20 20 28 0 7 27 40 60 72 51 50 60 64 60 94 0 20 -4 36 -10 36 -5 0 -10 14
-10 30 0 23 -4 30 -20 30 -11 0 -20 5 -20 10 0 6 -13 10 -28 10 -16 0 -34 8
-42 20 -8 11 -21 20 -30 20 -9 0 -22 9 -30 20 -11 15 -26 20 -62 20 -26 0 -48
-4 -48 -10z"/>
<path d="M2243 995 c-24 -25 -43 -51 -43 -60 0 -8 -4 -15 -10 -15 -5 0 -10 -9
-10 -20 0 -11 -4 -20 -10 -20 -5 0 -10 -22 -10 -50 0 -27 3 -50 6 -50 3 0 23
18 44 40 21 22 46 40 54 40 9 0 16 5 16 10 0 6 9 10 20 10 11 0 20 5 20 10 0
6 14 10 30 10 17 0 30 -4 30 -10 0 -5 14 -10 30 -10 17 0 30 -4 30 -10 0 -5 9
-10 20 -10 11 0 20 -4 20 -10 0 -5 14 -10 30 -10 17 0 30 -4 30 -10 0 -5 18
-10 40 -10 22 0 40 5 40 10 0 6 -18 10 -40 10 -22 0 -40 5 -40 10 0 6 -13 10
-28 10 -16 0 -34 8 -42 20 -8 11 -20 20 -28 20 -17 0 -42 24 -42 40 0 7 -13
25 -30 40 -16 15 -30 35 -30 44 0 33 -53 17 -97 -29z"/>
</g>
</svg>
