<svg xmlns="http://www.w3.org/2000/svg" viewBox="0 0 671.005305 370.002950" fill="currentColor" aria-hidden="true">
<g transform="translate(-21.000000,370.002950) scale(0.100000,-0.100000)" fill="currentColor" stroke="none">
<path d="M210 1850 l0 -1850 1690 0 c930 0 1690 2 1690 3 0 2 -40 33 -89 70
-196 146 -352 327 -441 511 -124 255 -153 511 -152 1311 1 426 11 666 33 721
18 50 97 68 369 88 391 29 865 39 1255 27 198 -6 461 -11 585 -12 257 0 286
-6 312 -59 17 -32 18 -83 18 -615 0 -890 -26 -1168 -131 -1421 -42 -100 -147
-257 -239 -356 -62 -68 -213 -198 -290 -250 -24 -16 -16 -17 188 -17 l212 -1
0 29 c0 33 22 56 45 47 9 -3 23 -22 31 -41 l14 -35 805 0 805 0 -2 1848 -3
1847 -3352 3 -3353 2 0 -1850z m5084 1258 c33 -46 9 -91 -34 -68 -17 9 -40 40
-40 54 0 10 32 36 45 36 8 0 21 -10 29 -22z m-2166 -139 c61 -21 46 -80 -24
-93 -42 -8 -110 9 -118 30 -9 25 -7 33 14 54 23 23 78 27 128 9z m2461 -4 c41
-21 56 -76 29 -103 -36 -36 -130 9 -130 63 0 50 47 69 101 40z m-2811 -117
c13 -16 -7 -65 -37 -93 -17 -15 -26 -17 -39 -9 -29 18 -26 52 7 84 32 32 52
37 69 18z m-117 -557 c61 -61 49 -131 -23 -131 -43 0 -98 57 -98 101 0 75 61
90 121 30z m3009 -1877 c13 -14 13 -17 -5 -30 -58 -43 -147 -41 -153 3 -7 48
117 69 158 27z m-2685 -130 c46 -30 21 -64 -49 -64 -57 0 -84 41 -49 75 19 19
59 15 98 -11z m2534 -79 c47 -43 67 -88 45 -106 -43 -35 -179 83 -149 130 14
23 65 11 104 -24z"/>
<path d="M3815 2633 c-33 -1 -231 -10 -440 -19 -209 -9 -381 -17 -382 -18 0 0
3 -77 7 -171 5 -93 9 -318 10 -500 0 -485 23 -875 60 -1045 42 -194 132 -365
282 -532 58 -65 209 -188 332 -269 l119 -79 133 0 134 0 0 450 c0 293 -3 450
-10 450 -5 0 -19 9 -30 20 -22 22 -28 84 -9 96 7 4 -4 18 -26 36 -31 26 -36
35 -33 66 3 40 36 70 89 81 33 7 34 8 36 61 5 116 48 186 197 325 133 122 167
182 167 293 1 149 -90 259 -227 277 -122 17 -238 -65 -265 -186 -12 -53 18
-128 52 -129 4 0 10 15 13 33 3 19 20 47 37 63 26 25 38 29 87 29 99 0 152
-59 152 -169 0 -125 -80 -215 -205 -233 -34 -4 -55 -15 -79 -39 -28 -28 -42
-34 -76 -34 -34 0 -48 6 -76 34 -28 28 -34 42 -34 76 0 33 -7 50 -31 77 -17
20 -37 50 -46 68 -11 23 -25 35 -45 39 -48 9 -88 60 -88 110 0 50 21 83 65
102 27 11 35 21 45 61 6 26 17 59 24 72 12 21 11 30 -1 57 -44 91 59 191 148
143 16 -8 36 -3 99 23 67 28 80 37 80 57 0 13 15 38 34 57 27 27 42 34 74 34
47 0 88 -29 108 -75 10 -24 23 -34 56 -44 24 -7 59 -22 79 -32 32 -16 39 -16
55 -4 11 8 38 15 62 15 78 0 126 -72 104 -156 -10 -38 -9 -49 12 -96 13 -29
26 -61 29 -70 4 -11 16 -18 32 -18 42 0 86 -49 92 -101 7 -64 -16 -105 -73
-130 -24 -11 -44 -25 -44 -32 0 -7 -11 -38 -24 -70 -15 -35 -20 -60 -14 -63
19 -12 38 -73 32 -104 -8 -39 -54 -85 -92 -93 -16 -3 -47 -1 -68 5 l-39 10
-54 -58 c-49 -53 -101 -140 -101 -171 0 -7 7 -13 16 -13 8 0 29 -13 45 -29 38
-39 40 -88 4 -121 -20 -19 -24 -30 -20 -51 8 -34 -17 -85 -46 -94 -20 -7 -21
-12 -15 -67 3 -33 9 -235 13 -449 l6 -389 122 0 122 0 119 79 c297 198 455
371 550 604 104 256 129 550 119 1392 l-7 530 -212 2 c-116 1 -367 9 -557 17
-308 14 -607 18 -784 9z m-307 -157 c16 -16 16 -18 -1 -31 -10 -7 -57 -16
-105 -19 -48 -4 -110 -9 -138 -12 l-51 -5 -7 -197 c-10 -239 -15 -286 -37
-290 -25 -5 -31 28 -36 211 -7 211 1 289 32 325 20 24 32 27 111 33 138 11
211 6 232 -15z m-318 -746 c16 -30 15 -161 -2 -171 -23 -14 -41 18 -46 78 -6
88 22 142 48 93z m2020 -601 c0 -70 -19 -138 -41 -150 -29 -15 -35 12 -21 94
14 79 26 107 47 107 11 0 15 -13 15 -51z m-96 -379 c-4 -93 -101 -260 -223
-381 -72 -72 -141 -119 -176 -119 -33 0 -11 33 98 150 93 100 160 192 223 307
33 61 50 83 62 81 12 -3 17 -13 16 -38z"/>
<path d="M4163 2423 c-7 -2 -13 -12 -13 -20 0 -10 6 -13 16 -9 9 3 29 6 46 6
26 0 29 2 18 15 -12 15 -43 18 -67 8z"/>
<path d="M4102 2309 c-115 -22 -230 -108 -279 -207 -38 -78 -44 -203 -14 -283
43 -115 129 -179 237 -179 133 1 218 91 184 194 -30 92 -140 84 -140 -9 0 -76
-72 -96 -145 -41 -71 54 -86 196 -32 288 133 226 464 214 579 -20 31 -63 33
-72 33 -177 0 -106 -1 -112 -34 -173 -26 -47 -65 -92 -153 -174 -127 -119
-162 -171 -177 -266 l-8 -52 52 0 52 0 6 38 c12 74 58 142 182 272 133 138
168 194 186 297 23 130 -27 282 -125 377 -106 104 -251 145 -404 115z"/>
<path d="M4536 2292 c-3 -5 8 -21 25 -36 l29 -28 0 26 c0 30 -41 59 -54 38z"/>
<path d="M3814 2255 c-12 -30 2 -35 25 -11 l24 26 -22 0 c-12 0 -24 -7 -27
-15z"/>
<path d="M4715 1900 c0 -27 2 -50 6 -50 12 0 29 25 29 45 -1 18 -21 55 -31 55
-2 0 -4 -22 -4 -50z"/>
<path d="M3698 1924 c-12 -11 -10 -52 3 -59 17 -11 23 3 13 36 -5 17 -12 27
-16 23z"/>
<path d="M3900 1591 c0 -13 24 -31 42 -31 28 0 21 14 -12 27 -16 6 -30 8 -30
4z"/>
<path d="M4593 1548 c-26 -27 -30 -48 -9 -48 20 0 38 26 34 50 -3 22 -3 22
-25 -2z"/>
<path d="M4050 1120 c-31 -19 9 -32 122 -37 80 -4 126 -2 153 7 36 12 37 14
20 26 -22 16 -270 20 -295 4z"/>
<path d="M4080 980 c0 -21 3 -22 109 -18 97 3 134 9 120 22 -2 2 -55 7 -116
11 -111 7 -113 6 -113 -15z"/>
<path d="M4134 844 c3 -26 6 -226 6 -445 l0 -399 61 0 62 0 -7 263 c-13 551
-17 627 -33 627 -11 0 -13 -6 -9 -22 4 -13 9 -169 11 -348 2 -179 2 -318 0
-310 -12 43 -36 383 -36 521 l-1 159 -30 0 -31 0 7 -46z"/>
</g>
</svg>
