<svg xmlns="http://www.w3.org/2000/svg" viewBox="0 0 1004.000000 708.000000" fill="currentColor" aria-hidden="true">
<g transform="translate(0.000000,708.000000) scale(0.100000,-0.100000)" fill="currentColor" stroke="none">
<path d="M0 3540 l0 -3540 5020 0 5020 0 0 3540 0 3540 -5020 0 -5020 0 0
-3540z m1840 3130 c0 -6 103 -10 290 -10 187 0 290 -4 290 -10 0 -7 277 -10
810 -10 533 0 810 3 810 10 0 7 193 10 560 10 367 0 560 3 560 10 0 7 543 10
1610 10 1067 0 1610 -3 1610 -10 0 -6 60 -10 160 -10 100 0 160 -4 160 -10 0
-6 30 -10 70 -10 40 0 70 -4 70 -10 0 -5 23 -10 50 -10 28 0 50 -4 50 -10 0
-5 14 -10 30 -10 17 0 30 -4 30 -10 0 -5 14 -10 30 -10 17 0 30 -4 30 -10 0
-5 9 -10 20 -10 11 0 20 -4 20 -10 0 -5 9 -10 20 -10 11 0 20 -4 20 -10 0 -5
9 -10 20 -10 11 0 20 -4 20 -10 0 -5 8 -10 18 -10 10 0 24 -9 32 -20 8 -11 20
-20 27 -20 17 0 143 -126 143 -143 0 -7 9 -19 20 -27 11 -8 20 -22 20 -32 0
-10 5 -18 10 -18 6 0 10 -9 10 -20 0 -11 5 -20 10 -20 6 0 10 -9 10 -20 0 -11
5 -20 10 -20 6 0 10 -13 10 -30 0 -16 5 -30 10 -30 6 0 10 -13 10 -30 0 -16 5
-30 10 -30 6 0 10 -18 10 -40 0 -22 5 -40 10 -40 6 0 10 -30 10 -70 0 -40 4
-70 10 -70 6 0 10 -80 10 -220 0 -140 4 -220 10 -220 7 0 10 -207 10 -600 0
-393 3 -600 10 -600 7 0 10 -510 10 -1510 0 -1000 -3 -1510 -10 -1510 -6 0
-10 -33 -10 -80 0 -47 -4 -80 -10 -80 -5 0 -10 -22 -10 -50 0 -27 -4 -50 -10
-50 -5 0 -10 -13 -10 -30 0 -16 -4 -30 -10 -30 -5 0 -10 -13 -10 -30 0 -16 -4
-30 -10 -30 -5 0 -10 -9 -10 -20 0 -11 -4 -20 -10 -20 -5 0 -10 -8 -10 -18 0
-10 -9 -24 -20 -32 -11 -8 -20 -20 -20 -27 0 -17 -126 -143 -143 -143 -7 0
-19 -9 -27 -20 -8 -11 -21 -20 -30 -20 -9 0 -22 -9 -30 -20 -8 -11 -22 -20
-32 -20 -10 0 -18 -4 -18 -10 0 -5 -13 -10 -30 -10 -16 0 -30 -4 -30 -10 0 -5
-13 -10 -30 -10 -16 0 -30 -4 -30 -10 0 -5 -13 -10 -30 -10 -16 0 -30 -4 -30
-10 0 -5 -22 -10 -50 -10 -27 0 -50 -4 -50 -10 0 -6 -30 -10 -70 -10 -40 0
-70 -4 -70 -10 0 -7 -247 -10 -720 -10 -473 0 -720 3 -720 10 0 7 -407 10
-1200 10 -793 0 -1200 -3 -1200 -10 0 -7 -287 -10 -840 -10 -553 0 -840 -3
-840 -10 0 -7 -250 -10 -730 -10 -480 0 -730 3 -730 10 0 6 -93 10 -260 10
-167 0 -260 4 -260 10 0 6 -33 10 -80 10 -47 0 -80 4 -80 10 0 6 -22 10 -50
10 -27 0 -50 5 -50 10 0 6 -18 10 -40 10 -22 0 -40 5 -40 10 0 6 -13 10 -30
10 -16 0 -30 5 -30 10 0 6 -9 10 -20 10 -11 0 -20 5 -20 10 0 6 -13 10 -30 10
-16 0 -30 5 -30 10 0 6 -8 10 -18 10 -10 0 -24 9 -32 20 -8 11 -20 20 -27 20
-19 0 -183 166 -183 185 0 8 -4 15 -10 15 -5 0 -10 9 -10 20 0 11 -4 20 -10
20 -5 0 -10 9 -10 20 0 11 -4 20 -10 20 -5 0 -10 9 -10 20 0 11 -4 20 -10 20
-5 0 -10 14 -10 30 0 17 -4 30 -10 30 -5 0 -10 23 -10 50 0 28 -4 50 -10 50
-6 0 -10 33 -10 80 0 47 -4 80 -10 80 -7 0 -10 180 -10 520 0 340 -3 520 -10
520 -7 0 -10 597 -10 1770 0 1173 3 1770 10 1770 6 0 10 37 10 90 0 53 4 90
10 90 6 0 10 23 10 50 0 28 5 50 10 50 6 0 10 18 10 40 0 22 5 40 10 40 6 0
10 14 10 30 0 17 5 30 10 30 6 0 10 9 10 20 0 11 5 20 10 20 6 0 10 9 10 20 0
11 5 20 10 20 6 0 10 9 10 20 0 11 5 20 10 20 6 0 10 7 10 15 0 20 185 205
205 205 8 0 15 5 15 10 0 6 9 10 20 10 11 0 20 5 20 10 0 6 9 10 20 10 11 0
20 5 20 10 0 6 9 10 20 10 11 0 20 5 20 10 0 6 9 10 20 10 11 0 20 5 20 10 0
6 14 10 30 10 17 0 30 5 30 10 0 6 18 10 40 10 22 0 40 5 40 10 0 6 23 10 50
10 28 0 50 5 50 10 0 6 30 10 70 10 40 0 70 4 70 10 0 6 50 10 130 10 80 0
130 4 130 10 0 6 60 10 160 10 100 0 160 -4 160 -10z"/>
<path d="M4960 6430 c0 -7 -173 -10 -500 -10 -327 0 -500 -3 -500 -10 0 -7
-270 -10 -790 -10 -520 0 -790 3 -790 10 0 7 -177 10 -510 10 -333 0 -510 -3
-510 -10 0 -6 -33 -10 -80 -10 -47 0 -80 -4 -80 -10 0 -5 -22 -10 -50 -10 -27
0 -50 -4 -50 -10 0 -5 -18 -10 -40 -10 -22 0 -40 -4 -40 -10 0 -5 -13 -10 -30
-10 -16 0 -30 -4 -30 -10 0 -5 -9 -10 -20 -10 -11 0 -20 -4 -20 -10 0 -5 -9
-10 -20 -10 -11 0 -20 -4 -20 -10 0 -5 -7 -10 -15 -10 -20 0 -145 -125 -145
-145 0 -8 -4 -15 -10 -15 -5 0 -10 -9 -10 -20 0 -11 -4 -20 -10 -20 -5 0 -10
-9 -10 -20 0 -11 -4 -20 -10 -20 -5 0 -10 -13 -10 -30 0 -16 -4 -30 -10 -30
-5 0 -10 -18 -10 -40 0 -22 -4 -40 -10 -40 -6 0 -10 -30 -10 -70 0 -40 -4 -70
-10 -70 -6 0 -10 -33 -10 -80 0 -47 4 -80 10 -80 6 0 10 5 10 10 0 6 18 10 40
10 22 0 40 5 40 10 0 6 18 10 40 10 22 0 40 5 40 10 0 6 23 10 50 10 28 0 50
5 50 10 0 6 23 10 50 10 28 0 50 5 50 10 0 6 27 10 60 10 33 0 60 4 60 10 0 6
37 10 90 10 53 0 90 4 90 10 0 6 120 10 340 10 220 0 340 -4 340 -10 0 -6 47
-10 120 -10 73 0 120 -4 120 -10 0 -6 37 -10 90 -10 53 0 90 -4 90 -10 0 -6
33 -10 80 -10 47 0 80 -4 80 -10 0 -6 33 -10 80 -10 47 0 80 -4 80 -10 0 -6
37 -10 90 -10 53 0 90 -4 90 -10 0 -6 110 -10 310 -10 200 0 310 4 310 10 0 6
33 10 80 10 47 0 80 4 80 10 0 6 30 10 70 10 40 0 70 4 70 10 0 6 30 10 70 10
40 0 70 4 70 10 0 6 30 10 70 10 40 0 70 4 70 10 0 6 37 10 90 10 53 0 90 4
90 10 0 6 127 10 360 10 233 0 360 -4 360 -10 0 -6 40 -10 100 -10 60 0 100
-4 100 -10 0 -6 33 -10 80 -10 47 0 80 -4 80 -10 0 -6 30 -10 70 -10 40 0 70
-4 70 -10 0 -6 33 -10 80 -10 47 0 80 -4 80 -10 0 -6 40 -10 100 -10 60 0 100
-4 100 -10 0 -6 70 -10 190 -10 120 0 190 4 190 10 0 6 33 10 80 10 47 0 80 4
80 10 0 6 27 10 60 10 33 0 60 4 60 10 0 6 27 10 60 10 33 0 60 4 60 10 0 6
27 10 60 10 33 0 60 4 60 10 0 6 30 10 70 10 40 0 70 4 70 10 0 6 117 10 330
10 213 0 330 -4 330 -10 0 -6 47 -10 120 -10 73 0 120 -4 120 -10 0 -6 33 -10
80 -10 47 0 80 -4 80 -10 0 -6 33 -10 80 -10 47 0 80 -4 80 -10 0 -6 43 -10
110 -10 67 0 110 -4 110 -10 0 -6 50 -10 130 -10 80 0 130 -4 130 -10 0 -6 57
-10 150 -10 93 0 150 4 150 10 0 6 60 10 160 10 100 0 160 4 160 10 0 6 25 10
56 10 38 0 61 5 72 17 12 12 13 18 4 21 -8 2 -12 31 -12 93 0 53 -4 89 -10 89
-5 0 -10 23 -10 50 0 28 -4 50 -10 50 -5 0 -10 14 -10 30 0 17 -4 30 -10 30
-5 0 -10 9 -10 20 0 11 -4 20 -10 20 -5 0 -10 8 -10 18 0 10 -9 24 -20 32 -11
8 -20 20 -20 27 0 17 -86 103 -103 103 -7 0 -19 9 -27 20 -8 11 -22 20 -32 20
-10 0 -18 5 -18 10 0 6 -9 10 -20 10 -11 0 -20 5 -20 10 0 6 -9 10 -20 10 -11
0 -20 5 -20 10 0 6 -18 10 -40 10 -22 0 -40 5 -40 10 0 6 -18 10 -40 10 -22 0
-40 5 -40 10 0 6 -27 10 -60 10 -33 0 -60 4 -60 10 0 6 -47 10 -120 10 -73 0
-120 4 -120 10 0 7 -583 10 -1730 10 -1147 0 -1730 -3 -1730 -10z"/>
<path d="M4180 5110 c0 -6 -33 -10 -80 -10 -47 0 -80 -4 -80 -10 0 -6 -27 -10
-60 -10 -33 0 -60 -4 -60 -10 0 -6 -30 -10 -70 -10 -40 0 -70 -4 -70 -10 0 -6
-33 -10 -80 -10 -47 0 -80 -4 -80 -10 0 -6 -37 -10 -90 -10 -53 0 -90 -4 -90
-10 0 -6 -103 -10 -290 -10 -187 0 -290 4 -290 10 0 6 -43 10 -110 10 -67 0
-110 4 -110 10 0 6 -37 10 -90 10 -53 0 -90 4 -90 10 0 6 -37 10 -90 10 -53 0
-90 4 -90 10 0 6 -40 10 -100 10 -60 0 -100 4 -100 10 0 7 -147 10 -420 10
-273 0 -420 -3 -420 -10 0 -6 -37 -10 -90 -10 -53 0 -90 -4 -90 -10 0 -6 -30
-10 -70 -10 -40 0 -70 -4 -70 -10 0 -6 -27 -10 -60 -10 -33 0 -60 -4 -60 -10
0 -5 -18 -10 -40 -10 -22 0 -40 -4 -40 -10 0 -5 -18 -10 -40 -10 -22 0 -40 -4
-40 -10 0 -5 -9 -10 -20 -10 -20 0 -20 -7 -20 -360 l0 -360 40 0 c22 0 40 5
40 10 0 6 18 10 40 10 22 0 40 5 40 10 0 6 23 10 50 10 28 0 50 5 50 10 0 6
23 10 50 10 28 0 50 5 50 10 0 6 23 10 50 10 28 0 50 5 50 10 0 6 30 10 70 10
40 0 70 4 70 10 0 6 33 10 80 10 47 0 80 4 80 10 0 6 107 10 300 10 193 0 300
-4 300 -10 0 -6 43 -10 110 -10 67 0 110 -4 110 -10 0 -6 33 -10 80 -10 47 0
80 -4 80 -10 0 -6 30 -10 70 -10 40 0 70 -4 70 -10 0 -6 27 -10 60 -10 33 0
60 -4 60 -10 0 -6 30 -10 70 -10 40 0 70 -4 70 -10 0 -6 40 -10 100 -10 60 0
100 -4 100 -10 0 -6 73 -10 200 -10 127 0 200 4 200 10 0 6 40 10 100 10 60 0
100 4 100 10 0 6 33 10 80 10 47 0 80 4 80 10 0 6 30 10 70 10 40 0 70 4 70
10 0 6 27 10 60 10 33 0 60 4 60 10 0 6 30 10 70 10 40 0 70 4 70 10 0 6 33
10 80 10 47 0 80 4 80 10 0 6 117 10 330 10 213 0 330 -4 330 -10 0 -6 37 -10
90 -10 53 0 90 -4 90 -10 0 -6 30 -10 70 -10 40 0 70 -4 70 -10 0 -6 27 -10
60 -10 33 0 60 -4 60 -10 0 -6 30 -10 70 -10 40 0 70 -4 70 -10 0 -6 33 -10
80 -10 47 0 80 -4 80 -10 0 -6 100 -10 280 -10 180 0 280 4 280 10 0 6 27 10
60 10 33 0 60 4 60 10 0 6 27 10 60 10 33 0 60 4 60 10 0 6 23 10 50 10 28 0
50 5 50 10 0 6 23 10 50 10 28 0 50 5 50 10 0 6 30 10 70 10 40 0 70 4 70 10
0 6 103 10 290 10 187 0 290 -4 290 -10 0 -6 40 -10 100 -10 60 0 100 -4 100
-10 0 -6 33 -10 80 -10 47 0 80 -4 80 -10 0 -6 30 -10 70 -10 40 0 70 -4 70
-10 0 -6 33 -10 80 -10 47 0 80 -4 80 -10 0 -6 40 -10 100 -10 60 0 100 -4
100 -10 0 -6 57 -10 150 -10 93 0 150 -4 150 -10 0 -6 67 -10 180 -10 113 0
180 4 180 10 0 6 47 10 120 10 73 0 120 4 120 10 0 6 30 10 70 10 40 0 70 4
70 10 0 6 16 10 36 10 65 0 64 -7 64 364 0 217 -4 336 -10 336 -5 0 -10 9 -10
20 0 16 -7 20 -30 20 -16 0 -30 -4 -30 -10 0 -6 -33 -10 -80 -10 -47 0 -80 -4
-80 -10 0 -6 -50 -10 -130 -10 -80 0 -130 -4 -130 -10 0 -6 -110 -10 -310 -10
-200 0 -310 4 -310 10 0 6 -50 10 -130 10 -80 0 -130 4 -130 10 0 6 -40 10
-100 10 -60 0 -100 4 -100 10 0 6 -33 10 -80 10 -47 0 -80 4 -80 10 0 6 -37
10 -90 10 -53 0 -90 4 -90 10 0 6 -43 10 -110 10 -67 0 -110 4 -110 10 0 6
-60 10 -160 10 -100 0 -160 -4 -160 -10 0 -6 -43 -10 -110 -10 -67 0 -110 -4
-110 -10 0 -6 -30 -10 -70 -10 -40 0 -70 -4 -70 -10 0 -6 -30 -10 -70 -10 -40
0 -70 -4 -70 -10 0 -6 -30 -10 -70 -10 -40 0 -70 -4 -70 -10 0 -6 -43 -10
-110 -10 -67 0 -110 -4 -110 -10 0 -6 -60 -10 -160 -10 -100 0 -160 4 -160 10
0 6 -47 10 -120 10 -73 0 -120 4 -120 10 0 6 -33 10 -80 10 -47 0 -80 4 -80
10 0 6 -30 10 -70 10 -40 0 -70 4 -70 10 0 6 -30 10 -70 10 -40 0 -70 4 -70
10 0 6 -40 10 -100 10 -60 0 -100 4 -100 10 0 6 -117 10 -330 10 -213 0 -330
-4 -330 -10z"/>
<path d="M1560 3770 c0 -6 -63 -10 -170 -10 -107 0 -170 -4 -170 -10 0 -6 -33
-10 -80 -10 -47 0 -80 -4 -80 -10 0 -6 -27 -10 -60 -10 -33 0 -60 -4 -60 -10
0 -5 -22 -10 -50 -10 -27 0 -50 -4 -50 -10 0 -5 -22 -10 -50 -10 -27 0 -50 -4
-50 -10 0 -5 -18 -10 -40 -10 -22 0 -40 -4 -40 -10 0 -5 -12 -10 -26 -10 -54
0 -54 -1 -54 -364 l0 -336 50 0 c28 0 50 5 50 10 0 6 18 10 40 10 22 0 40 5
40 10 0 6 18 10 40 10 22 0 40 5 40 10 0 6 23 10 50 10 28 0 50 5 50 10 0 6
23 10 50 10 28 0 50 5 50 10 0 6 27 10 60 10 33 0 60 4 60 10 0 6 33 10 80 10
47 0 80 4 80 10 0 6 117 10 330 10 213 0 330 -4 330 -10 0 -6 37 -10 90 -10
53 0 90 -4 90 -10 0 -6 33 -10 80 -10 47 0 80 -4 80 -10 0 -6 30 -10 70 -10
40 0 70 -4 70 -10 0 -6 30 -10 70 -10 40 0 70 -4 70 -10 0 -6 37 -10 90 -10
53 0 90 -4 90 -10 0 -6 113 -10 320 -10 207 0 320 4 320 10 0 6 33 10 80 10
47 0 80 4 80 10 0 6 30 10 70 10 40 0 70 4 70 10 0 6 27 10 60 10 33 0 60 4
60 10 0 6 30 10 70 10 40 0 70 4 70 10 0 6 30 10 70 10 40 0 70 4 70 10 0 6
117 10 330 10 213 0 330 -4 330 -10 0 -6 40 -10 100 -10 60 0 100 -4 100 -10
0 -6 30 -10 70 -10 40 0 70 -4 70 -10 0 -6 30 -10 70 -10 40 0 70 -4 70 -10 0
-6 30 -10 70 -10 40 0 70 -4 70 -10 0 -6 40 -10 100 -10 60 0 100 -4 100 -10
0 -6 83 -10 230 -10 147 0 230 4 230 10 0 6 33 10 80 10 47 0 80 4 80 10 0 6
30 10 70 10 40 0 70 4 70 10 0 6 23 10 50 10 28 0 50 5 50 10 0 6 27 10 60 10
33 0 60 4 60 10 0 6 27 10 60 10 33 0 60 4 60 10 0 6 57 10 150 10 93 0 150 4
150 10 0 6 14 10 30 10 17 0 30 -4 30 -10 0 -6 63 -10 170 -10 107 0 170 -4
170 -10 0 -6 37 -10 90 -10 53 0 90 -4 90 -10 0 -6 30 -10 70 -10 40 0 70 -4
70 -10 0 -6 30 -10 70 -10 40 0 70 -4 70 -10 0 -6 33 -10 80 -10 47 0 80 -4
80 -10 0 -6 43 -10 110 -10 67 0 110 -4 110 -10 0 -6 137 -10 390 -10 253 0
390 4 390 10 0 6 33 10 80 10 47 0 80 4 80 10 0 6 27 10 60 10 33 0 60 4 60
10 0 6 14 10 30 10 l30 0 0 350 0 350 -50 0 c-27 0 -50 -4 -50 -10 0 -6 -30
-10 -70 -10 -40 0 -70 -4 -70 -10 0 -6 -40 -10 -100 -10 -60 0 -100 -4 -100
-10 0 -6 -117 -10 -330 -10 -213 0 -330 4 -330 10 0 6 -47 10 -120 10 -73 0
-120 4 -120 10 0 6 -37 10 -90 10 -53 0 -90 4 -90 10 0 6 -37 10 -90 10 -53 0
-90 4 -90 10 0 6 -37 10 -90 10 -53 0 -90 4 -90 10 0 6 -47 10 -120 10 -73 0
-120 4 -120 10 0 6 -77 10 -210 10 -133 0 -210 -4 -210 -10 0 -6 -40 -10 -100
-10 -60 0 -100 -4 -100 -10 0 -6 -27 -10 -60 -10 -33 0 -60 -4 -60 -10 0 -6
-30 -10 -70 -10 -40 0 -70 -4 -70 -10 0 -6 -30 -10 -70 -10 -40 0 -70 -4 -70
-10 0 -6 -40 -10 -100 -10 -60 0 -100 -4 -100 -10 0 -6 -70 -10 -190 -10 -120
0 -190 4 -190 10 0 6 -47 10 -120 10 -73 0 -120 4 -120 10 0 6 -37 10 -90 10
-53 0 -90 4 -90 10 0 6 -33 10 -80 10 -47 0 -80 4 -80 10 0 6 -33 10 -80 10
-47 0 -80 4 -80 10 0 6 -57 10 -150 10 -93 0 -150 4 -150 10 0 6 -77 10 -210
10 -133 0 -210 -4 -210 -10 0 -6 -40 -10 -100 -10 -60 0 -100 -4 -100 -10 0
-6 -30 -10 -70 -10 -40 0 -70 -4 -70 -10 0 -6 -30 -10 -70 -10 -40 0 -70 -4
-70 -10 0 -6 -30 -10 -70 -10 -40 0 -70 -4 -70 -10 0 -6 -37 -10 -90 -10 -53
0 -90 -4 -90 -10 0 -6 -97 -10 -270 -10 -173 0 -270 4 -270 10 0 6 -43 10
-110 10 -67 0 -110 4 -110 10 0 6 -37 10 -90 10 -53 0 -90 4 -90 10 0 6 -33
10 -80 10 -47 0 -80 4 -80 10 0 6 -43 10 -110 10 -67 0 -110 4 -110 10 0 6
-73 10 -200 10 -127 0 -200 4 -200 10 0 6 -22 10 -50 10 -27 0 -50 -4 -50 -10z"/>
<path d="M1520 2450 c0 -6 -50 -10 -130 -10 -80 0 -130 -4 -130 -10 0 -6 -33
-10 -80 -10 -47 0 -80 -4 -80 -10 0 -6 -30 -10 -70 -10 -40 0 -70 -4 -70 -10
0 -5 -22 -10 -50 -10 -27 0 -50 -4 -50 -10 0 -5 -22 -10 -50 -10 -27 0 -50 -4
-50 -10 0 -5 -22 -10 -50 -10 -27 0 -50 -4 -50 -10 0 -5 -12 -10 -26 -10 -46
0 -54 -19 -54 -134 0 -64 4 -106 10 -106 6 0 10 -87 10 -240 l0 -240 30 0 c17
0 30 5 30 10 0 6 18 10 40 10 22 0 40 5 40 10 0 6 18 10 40 10 22 0 40 5 40
10 0 6 18 10 40 10 22 0 40 5 40 10 0 6 18 10 40 10 22 0 40 5 40 10 0 6 23
10 50 10 28 0 50 5 50 10 0 6 27 10 60 10 33 0 60 4 60 10 0 6 30 10 70 10 40
0 70 4 70 10 0 6 137 10 390 10 253 0 390 -4 390 -10 0 -6 33 -10 80 -10 47 0
80 -4 80 -10 0 -6 33 -10 80 -10 47 0 80 -4 80 -10 0 -6 30 -10 70 -10 40 0
70 -4 70 -10 0 -6 33 -10 80 -10 47 0 80 -4 80 -10 0 -6 47 -10 120 -10 73 0
120 -4 120 -10 0 -6 63 -10 170 -10 107 0 170 4 170 10 0 6 40 10 100 10 60 0
100 4 100 10 0 6 30 10 70 10 40 0 70 4 70 10 0 6 30 10 70 10 40 0 70 4 70
10 0 6 30 10 70 10 40 0 70 4 70 10 0 6 30 10 70 10 40 0 70 4 70 10 0 6 53
10 140 10 87 0 140 4 140 10 0 6 43 10 110 10 67 0 110 -4 110 -10 0 -6 60
-10 160 -10 100 0 160 -4 160 -10 0 -6 37 -10 90 -10 53 0 90 -4 90 -10 0 -6
30 -10 70 -10 40 0 70 -4 70 -10 0 -6 30 -10 70 -10 40 0 70 -4 70 -10 0 -6
37 -10 90 -10 53 0 90 -4 90 -10 0 -6 113 -10 320 -10 207 0 320 4 320 10 0 6
30 10 70 10 40 0 70 4 70 10 0 6 27 10 60 10 33 0 60 4 60 10 0 6 30 10 70 10
40 0 70 4 70 10 0 6 27 10 60 10 33 0 60 4 60 10 0 6 43 10 110 10 67 0 110 4
110 10 0 6 67 10 180 10 113 0 180 -4 180 -10 0 -6 50 -10 130 -10 80 0 130
-4 130 -10 0 -6 33 -10 80 -10 47 0 80 -4 80 -10 0 -6 33 -10 80 -10 47 0 80
-4 80 -10 0 -6 33 -10 80 -10 47 0 80 -4 80 -10 0 -6 40 -10 100 -10 60 0 100
-4 100 -10 0 -6 80 -10 220 -10 140 0 220 -4 220 -10 0 -5 23 -10 50 -10 28 0
50 5 50 10 0 6 60 10 160 10 100 0 160 4 160 10 0 6 30 10 70 10 40 0 70 4 70
10 0 6 23 10 50 10 28 0 50 5 50 10 0 6 9 10 20 10 20 0 20 7 20 340 l0 340
-70 0 c-40 0 -70 -4 -70 -10 0 -6 -33 -10 -80 -10 -47 0 -80 -4 -80 -10 0 -6
-37 -10 -90 -10 -53 0 -90 -4 -90 -10 0 -6 -120 -10 -340 -10 -220 0 -340 4
-340 10 0 6 -47 10 -120 10 -73 0 -120 4 -120 10 0 6 -37 10 -90 10 -53 0 -90
4 -90 10 0 6 -37 10 -90 10 -53 0 -90 4 -90 10 0 6 -37 10 -90 10 -53 0 -90 4
-90 10 0 6 -47 10 -120 10 -73 0 -120 4 -120 10 0 6 -67 10 -180 10 -113 0
-180 -4 -180 -10 0 -6 -40 -10 -100 -10 -60 0 -100 -4 -100 -10 0 -6 -30 -10
-70 -10 -40 0 -70 -4 -70 -10 0 -6 -27 -10 -60 -10 -33 0 -60 -4 -60 -10 0 -6
-30 -10 -70 -10 -40 0 -70 -4 -70 -10 0 -6 -47 -10 -120 -10 -73 0 -120 -4
-120 -10 0 -6 -53 -10 -140 -10 -87 0 -140 4 -140 10 0 6 -53 10 -140 10 -87
0 -140 4 -140 10 0 6 -37 10 -90 10 -53 0 -90 4 -90 10 0 6 -37 10 -90 10 -53
0 -90 4 -90 10 0 6 -37 10 -90 10 -53 0 -90 4 -90 10 0 6 -47 10 -120 10 -73
0 -120 4 -120 10 0 6 -80 10 -220 10 -140 0 -220 -4 -220 -10 0 -6 -40 -10
-100 -10 -60 0 -100 -4 -100 -10 0 -6 -33 -10 -80 -10 -47 0 -80 -4 -80 -10 0
-6 -30 -10 -70 -10 -40 0 -70 -4 -70 -10 0 -6 -33 -10 -80 -10 -47 0 -80 -4
-80 -10 0 -6 -40 -10 -100 -10 -60 0 -100 -4 -100 -10 0 -6 -87 -10 -240 -10
-153 0 -240 4 -240 10 0 6 -47 10 -120 10 -73 0 -120 4 -120 10 0 6 -37 10
-90 10 -53 0 -90 4 -90 10 0 6 -37 10 -90 10 -53 0 -90 4 -90 10 0 6 -40 10
-100 10 -60 0 -100 4 -100 10 0 6 -57 10 -150 10 -93 0 -150 4 -150 10 0 6
-47 10 -120 10 -73 0 -120 -4 -120 -10z"/>
<path d="M4180 1150 c0 -6 -43 -10 -110 -10 -67 0 -110 -4 -110 -10 0 -6 -33
-10 -80 -10 -47 0 -80 -4 -80 -10 0 -6 -33 -10 -80 -10 -47 0 -80 -4 -80 -10
0 -6 -47 -10 -120 -10 -73 0 -120 -4 -120 -10 0 -6 -107 -10 -300 -10 -193 0
-300 4 -300 10 0 6 -47 10 -120 10 -73 0 -120 4 -120 10 0 6 -40 10 -100 10
-60 0 -100 4 -100 10 0 6 -47 10 -120 10 -73 0 -120 4 -120 10 0 6 -133 10
-380 10 -247 0 -380 -4 -380 -10 0 -6 -47 -10 -120 -10 -73 0 -120 -4 -120
-10 0 -6 -40 -10 -100 -10 -60 0 -100 -4 -100 -10 0 -6 -37 -10 -90 -10 -53 0
-90 -4 -90 -10 0 -5 -22 -10 -50 -10 -27 0 -50 -4 -50 -10 0 -5 5 -10 10 -10
6 0 10 -22 10 -50 0 -27 5 -50 10 -50 6 0 10 -9 10 -20 0 -11 5 -20 10 -20 6
0 10 -9 10 -20 0 -11 5 -20 10 -20 6 0 10 -9 10 -20 0 -11 5 -20 10 -20 6 0
10 -7 10 -15 0 -19 64 -85 82 -85 8 0 20 -9 28 -20 8 -11 22 -20 32 -20 10 0
18 -4 18 -10 0 -5 9 -10 20 -10 11 0 20 -4 20 -10 0 -5 14 -10 30 -10 17 0 30
-4 30 -10 0 -5 14 -10 30 -10 17 0 30 -4 30 -10 0 -5 23 -10 50 -10 28 0 50
-4 50 -10 0 -6 30 -10 70 -10 40 0 70 -4 70 -10 0 -6 43 -10 110 -10 67 0 110
-4 110 -10 0 -7 387 -10 1140 -10 753 0 1140 3 1140 10 0 7 277 10 810 10 533
0 810 3 810 10 0 7 260 10 760 10 500 0 760 -3 760 -10 0 -7 303 -10 890 -10
587 0 890 3 890 10 0 6 30 10 70 10 40 0 70 4 70 10 0 6 23 10 50 10 28 0 50
5 50 10 0 6 14 10 30 10 17 0 30 5 30 10 0 6 9 10 20 10 11 0 20 5 20 10 0 6
9 10 20 10 11 0 20 5 20 10 0 6 7 10 15 10 20 0 145 125 145 145 0 8 5 15 10
15 6 0 10 9 10 20 0 11 5 20 10 20 6 0 10 9 10 20 0 11 5 20 10 20 6 0 10 14
10 30 0 17 5 30 10 30 6 0 10 23 10 50 0 28 5 50 10 50 6 0 10 9 10 20 0 16
-7 20 -30 20 -16 0 -30 -4 -30 -10 0 -6 -37 -10 -90 -10 -53 0 -90 -4 -90 -10
0 -6 -50 -10 -130 -10 -80 0 -130 -4 -130 -10 0 -6 -100 -10 -280 -10 -180 0
-280 4 -280 10 0 6 -53 10 -140 10 -87 0 -140 4 -140 10 0 6 -43 10 -110 10
-67 0 -110 4 -110 10 0 6 -43 10 -110 10 -67 0 -110 4 -110 10 0 6 -47 10
-120 10 -73 0 -120 4 -120 10 0 6 -87 10 -240 10 -153 0 -240 -4 -240 -10 0
-6 -40 -10 -100 -10 -60 0 -100 -4 -100 -10 0 -6 -33 -10 -80 -10 -47 0 -80
-4 -80 -10 0 -6 -30 -10 -70 -10 -40 0 -70 -4 -70 -10 0 -6 -37 -10 -90 -10
-53 0 -90 -4 -90 -10 0 -6 -110 -10 -310 -10 -200 0 -310 4 -310 10 0 6 -43
10 -110 10 -67 0 -110 4 -110 10 0 6 -37 10 -90 10 -53 0 -90 4 -90 10 0 6
-43 10 -110 10 -67 0 -110 4 -110 10 0 6 -43 10 -110 10 -67 0 -110 4 -110 10
0 6 -97 10 -270 10 -173 0 -270 -4 -270 -10z"/>
</g>
</svg>
