<svg xmlns="http://www.w3.org/2000/svg" viewBox="0 0 634.000000 622.000000" fill="currentColor" aria-hidden="true">
<g transform="translate(-112.000000,650.000000) scale(0.100000,-0.100000)" fill="currentColor" stroke="none">
<path d="M4100 6490 c0 -6 -33 -10 -80 -10 -47 0 -80 -4 -80 -10 0 -6 -27 -10
-60 -10 -33 0 -60 -4 -60 -10 0 -6 -27 -10 -60 -10 -33 0 -60 -4 -60 -10 0 -5
-18 -10 -40 -10 -22 0 -40 -4 -40 -10 0 -5 -18 -10 -40 -10 -22 0 -40 -4 -40
-10 0 -5 -18 -10 -40 -10 -22 0 -40 -4 -40 -10 0 -5 -13 -10 -30 -10 -16 0
-30 -4 -30 -10 0 -5 -13 -10 -30 -10 -16 0 -30 -4 -30 -10 0 -5 -13 -10 -30
-10 -16 0 -30 -4 -30 -10 0 -5 -13 -10 -30 -10 -16 0 -30 -4 -30 -10 0 -5 -13
-10 -30 -10 -16 0 -30 -4 -30 -10 0 -5 -9 -10 -20 -10 -11 0 -20 -4 -20 -10 0
-5 -9 -10 -20 -10 -11 0 -20 -4 -20 -10 0 -5 -9 -10 -20 -10 -11 0 -20 -4 -20
-10 0 -5 -9 -10 -20 -10 -11 0 -20 -4 -20 -10 0 -5 -9 -10 -20 -10 -11 0 -20
-4 -20 -10 0 -5 -8 -10 -18 -10 -10 0 -24 -9 -32 -20 -8 -11 -21 -20 -28 -20
-8 0 -27 -13 -42 -30 -15 -16 -33 -30 -40 -30 -16 0 -40 -25 -40 -42 0 -8 -9
-20 -20 -28 -11 -8 -20 -25 -20 -38 0 -27 -21 -52 -44 -52 -9 0 -16 -4 -16
-10 0 -5 -13 -10 -30 -10 -16 0 -30 -4 -30 -10 0 -5 -9 -10 -20 -10 -11 0 -20
-4 -20 -10 0 -5 -8 -10 -18 -10 -10 0 -24 -9 -32 -20 -8 -11 -22 -20 -32 -20
-10 0 -18 -4 -18 -10 0 -5 -9 -10 -20 -10 -11 0 -20 -4 -20 -10 0 -5 -9 -10
-20 -10 -11 0 -20 -4 -20 -10 0 -5 -13 -10 -30 -10 -16 0 -30 -4 -30 -10 0 -5
-9 -10 -20 -10 -11 0 -20 -4 -20 -10 0 -5 -7 -10 -15 -10 -9 0 -47 -31 -85
-70 -38 -38 -74 -70 -80 -70 -6 0 -42 -31 -80 -70 -38 -38 -74 -70 -80 -70
-14 0 -60 -46 -60 -60 0 -6 -31 -42 -70 -80 -38 -38 -70 -74 -70 -81 0 -6 -13
-24 -30 -39 -16 -15 -30 -34 -30 -42 0 -7 -9 -20 -20 -28 -11 -8 -20 -21 -20
-30 0 -9 -9 -22 -20 -30 -11 -8 -20 -22 -20 -32 0 -10 -4 -18 -10 -18 -5 0
-10 -8 -10 -18 0 -10 -9 -24 -20 -32 -11 -8 -20 -22 -20 -32 0 -10 -4 -18 -10
-18 -5 0 -10 -9 -10 -20 0 -11 -4 -20 -10 -20 -5 0 -10 -9 -10 -20 0 -11 -4
-20 -10 -20 -5 0 -10 -9 -10 -20 0 -11 -4 -20 -10 -20 -5 0 -10 -9 -10 -20 0
-11 -4 -20 -10 -20 -5 0 -10 -13 -10 -30 0 -16 -4 -30 -10 -30 -5 0 -10 -9
-10 -20 0 -11 -4 -20 -10 -20 -5 0 -10 -9 -10 -20 0 -11 -4 -20 -10 -20 -5 0
-10 -13 -10 -30 0 -16 -4 -30 -10 -30 -5 0 -10 -13 -10 -30 0 -16 -4 -30 -10
-30 -5 0 -10 -13 -10 -30 0 -16 -4 -30 -10 -30 -5 0 -10 -13 -10 -30 0 -16 -4
-30 -10 -30 -5 0 -10 -13 -10 -30 0 -16 -4 -30 -10 -30 -5 0 -10 -18 -10 -40
0 -22 -4 -40 -10 -40 -5 0 -10 -18 -10 -40 0 -22 -4 -40 -10 -40 -5 0 -10 -18
-10 -40 0 -22 -4 -40 -10 -40 -5 0 -10 -22 -10 -50 0 -27 -4 -50 -10 -50 -6 0
-10 -27 -10 -60 0 -33 -4 -60 -10 -60 -6 0 -10 -30 -10 -70 0 -40 -4 -70 -10
-70 -6 0 -10 -40 -10 -100 0 -60 -4 -100 -10 -100 -6 0 -10 -90 -10 -250 0
-160 4 -250 10 -250 6 0 10 -37 10 -90 0 -53 4 -90 10 -90 6 0 10 -27 10 -60
0 -33 4 -60 10 -60 6 0 10 -22 10 -50 0 -27 5 -50 10 -50 6 0 10 -18 10 -40 0
-22 5 -40 10 -40 6 0 10 -18 10 -40 0 -22 5 -40 10 -40 6 0 10 -13 10 -30 0
-16 5 -30 10 -30 6 0 10 -13 10 -30 0 -16 5 -30 10 -30 6 0 10 -13 10 -30 0
-16 5 -30 10 -30 6 0 10 -9 10 -20 0 -11 5 -20 10 -20 6 0 10 -13 10 -30 0
-16 5 -30 10 -30 6 0 10 -9 10 -20 0 -11 5 -20 10 -20 6 0 10 -9 10 -20 0 -11
5 -20 10 -20 6 0 10 -9 10 -20 0 -11 5 -20 10 -20 6 0 10 -9 10 -20 0 -11 5
-20 10 -20 6 0 10 -9 10 -20 0 -11 5 -20 10 -20 6 0 10 -9 10 -20 0 -11 5 -20
10 -20 6 0 10 -9 10 -20 0 -11 5 -20 10 -20 6 0 10 -8 10 -18 0 -10 9 -24 20
-32 11 -8 20 -21 20 -30 0 -9 9 -22 20 -30 11 -8 20 -21 20 -30 0 -9 9 -22 20
-30 11 -8 20 -21 20 -30 0 -9 9 -22 20 -30 11 -8 20 -21 20 -28 0 -7 18 -31
40 -52 22 -21 40 -43 40 -49 0 -14 327 -341 341 -341 6 0 28 -18 49 -40 21
-22 44 -40 50 -40 7 0 25 -13 40 -30 15 -16 34 -30 42 -30 7 0 20 -9 28 -20 8
-11 21 -20 30 -20 9 0 22 -9 30 -20 8 -11 21 -20 30 -20 9 0 22 -9 30 -20 8
-11 21 -20 30 -20 9 0 22 -9 30 -20 8 -11 22 -20 32 -20 10 0 18 -4 18 -10 0
-5 8 -10 18 -10 10 0 24 -9 32 -20 8 -11 22 -20 32 -20 10 0 18 -4 18 -10 0
-5 9 -10 20 -10 11 0 20 -4 20 -10 0 -5 9 -10 20 -10 11 0 20 -4 20 -10 0 -5
9 -10 20 -10 11 0 20 -4 20 -10 0 -5 9 -10 20 -10 11 0 20 -4 20 -10 0 -5 9
-10 20 -10 11 0 20 -4 20 -10 0 -5 9 -10 20 -10 11 0 20 -4 20 -10 0 -5 9 -10
20 -10 11 0 20 -4 20 -10 0 -5 9 -10 20 -10 11 0 20 -4 20 -10 0 -5 14 -10 30
-10 17 0 30 -4 30 -10 0 -5 9 -10 20 -10 11 0 20 -4 20 -10 0 -5 9 -10 20 -10
11 0 20 -4 20 -10 0 -5 14 -10 30 -10 17 0 30 -4 30 -10 0 -5 14 -10 30 -10
17 0 30 -4 30 -10 0 -5 9 -10 20 -10 11 0 20 -4 20 -10 0 -5 14 -10 30 -10 17
0 30 -4 30 -10 0 -5 14 -10 30 -10 17 0 30 -4 30 -10 0 -5 14 -10 30 -10 17 0
30 -4 30 -10 0 -5 14 -10 30 -10 17 0 30 -4 30 -10 0 -5 18 -10 40 -10 22 0
40 -4 40 -10 0 -5 14 -10 30 -10 17 0 30 -4 30 -10 0 -5 18 -10 40 -10 22 0
40 -4 40 -10 0 -5 23 -10 50 -10 28 0 50 -4 50 -10 0 -5 23 -10 50 -10 28 0
50 -4 50 -10 0 -6 27 -10 60 -10 33 0 60 -4 60 -10 0 -6 43 -10 110 -10 67 0
110 -4 110 -10 0 -6 77 -10 210 -10 133 0 210 4 210 10 0 6 37 10 90 10 53 0
90 4 90 10 0 6 27 10 60 10 33 0 60 4 60 10 0 6 18 10 40 10 22 0 40 5 40 10
0 6 18 10 40 10 22 0 40 5 40 10 0 6 18 10 40 10 22 0 40 5 40 10 0 6 14 10
30 10 17 0 30 5 30 10 0 6 14 10 30 10 17 0 30 5 30 10 0 6 14 10 30 10 17 0
30 5 30 10 0 6 9 10 20 10 11 0 20 5 20 10 0 6 14 10 30 10 17 0 30 5 30 10 0
6 9 10 20 10 11 0 20 5 20 10 0 6 9 10 20 10 11 0 20 5 20 10 0 6 9 10 20 10
11 0 20 5 20 10 0 6 9 10 20 10 11 0 20 5 20 10 0 6 9 10 20 10 11 0 20 5 20
10 0 6 9 10 20 10 11 0 20 5 20 10 0 6 8 10 18 10 10 0 24 9 32 20 8 11 22 20
32 20 10 0 18 5 18 10 0 6 8 10 18 10 10 0 24 9 32 20 8 11 21 20 30 20 9 0
22 9 30 20 8 11 21 20 28 20 8 0 27 14 42 30 15 17 33 30 40 30 7 0 25 14 40
30 15 17 33 30 40 30 6 0 29 18 50 40 21 22 43 40 50 40 6 0 51 40 100 90 49
49 94 90 100 90 14 0 120 106 120 120 0 6 41 51 90 100 50 49 90 94 90 100 0
6 23 33 50 60 28 27 50 54 50 60 0 7 14 25 30 40 17 15 30 33 30 40 0 7 14 25
30 40 17 15 30 34 30 42 0 7 9 20 20 28 11 8 20 21 20 30 0 9 9 22 20 30 11 8
20 21 20 30 0 9 9 22 20 30 11 8 20 22 20 32 0 10 5 18 10 18 6 0 10 8 10 18
0 10 9 24 20 32 11 8 20 22 20 32 0 10 5 18 10 18 6 0 10 9 10 20 0 11 5 20
10 20 6 0 10 9 10 20 0 11 5 20 10 20 6 0 10 9 10 20 0 11 5 20 10 20 6 0 10
9 10 20 0 11 5 20 10 20 6 0 10 9 10 20 0 11 5 20 10 20 6 0 10 9 10 20 0 11
5 20 10 20 6 0 10 14 10 30 0 17 5 30 10 30 6 0 10 9 10 20 0 11 5 20 10 20 6
0 10 14 10 30 0 17 5 30 10 30 6 0 10 14 10 30 0 17 5 30 10 30 6 0 10 14 10
30 0 17 5 30 10 30 6 0 10 14 10 30 0 17 5 30 10 30 6 0 10 18 10 40 0 22 5
40 10 40 6 0 10 23 10 50 0 28 5 50 10 50 6 0 10 30 10 70 0 40 4 70 10 70 6
0 10 37 10 90 0 53 4 90 10 90 6 0 10 73 10 200 0 127 -4 200 -10 200 -6 0
-10 40 -10 100 0 60 -4 100 -10 100 -6 0 -10 30 -10 70 0 40 -4 70 -10 70 -5
0 -10 23 -10 50 0 28 -4 50 -10 50 -5 0 -10 18 -10 40 0 22 -4 40 -10 40 -5 0
-10 18 -10 40 0 22 -4 40 -10 40 -5 0 -10 18 -10 40 0 22 -4 40 -10 40 -5 0
-10 18 -10 40 0 22 -4 40 -10 40 -5 0 -10 14 -10 30 0 17 -4 30 -10 30 -5 0
-10 14 -10 30 0 17 -4 30 -10 30 -5 0 -10 14 -10 30 0 17 -4 30 -10 30 -5 0
-10 9 -10 20 0 11 -4 20 -10 20 -5 0 -10 14 -10 30 0 17 -4 30 -10 30 -5 0
-10 14 -10 30 0 17 -4 30 -10 30 -5 0 -10 9 -10 20 0 11 -4 20 -10 20 -5 0
-10 9 -10 20 0 11 -4 20 -10 20 -5 0 -10 14 -10 30 0 17 -4 30 -10 30 -5 0
-10 9 -10 20 0 11 -4 20 -10 20 -5 0 -10 8 -10 18 0 10 -9 24 -20 32 -11 8
-20 22 -20 32 0 10 -4 18 -10 18 -5 0 -10 9 -10 20 0 11 -4 20 -10 20 -5 0
-10 8 -10 18 0 10 -9 24 -20 32 -11 8 -20 21 -20 30 0 9 -9 22 -20 30 -11 8
-20 21 -20 30 0 9 -9 22 -20 30 -11 8 -20 21 -20 30 0 9 -9 22 -20 30 -11 8
-20 21 -20 28 0 8 -13 27 -30 42 -16 15 -30 33 -30 40 0 6 -22 33 -50 60 -27
27 -50 54 -50 59 0 15 -367 381 -381 381 -6 0 -28 18 -49 40 -21 22 -44 40
-50 40 -7 0 -25 14 -40 30 -15 17 -33 30 -40 30 -7 0 -25 14 -40 30 -15 17
-34 30 -42 30 -7 0 -20 9 -28 20 -8 11 -21 20 -30 20 -9 0 -22 9 -30 20 -8 11
-22 20 -32 20 -10 0 -18 5 -18 10 0 6 -8 10 -18 10 -10 0 -24 9 -32 20 -8 11
-22 20 -32 20 -10 0 -18 5 -18 10 0 6 -9 10 -20 10 -11 0 -20 5 -20 10 0 6 -9
10 -20 10 -11 0 -20 5 -20 10 0 6 -9 10 -20 10 -11 0 -20 5 -20 10 0 6 -9 10
-20 10 -11 0 -20 5 -20 10 0 6 -9 10 -20 10 -11 0 -20 5 -20 10 0 6 -9 10 -20
10 -11 0 -20 5 -20 10 0 6 -9 10 -20 10 -11 0 -20 5 -20 10 0 6 -13 10 -30 10
-16 0 -30 5 -30 10 0 6 -13 10 -30 10 -16 0 -30 5 -30 10 0 6 -9 10 -20 10
-11 0 -20 5 -20 10 0 6 -13 10 -30 10 -16 0 -30 5 -30 10 0 6 -13 10 -30 10
-16 0 -30 5 -30 10 0 6 -18 10 -40 10 -22 0 -40 5 -40 10 0 6 -18 10 -40 10
-22 0 -40 5 -40 10 0 6 -18 10 -40 10 -22 0 -40 5 -40 10 0 6 -22 10 -50 10
-27 0 -50 5 -50 10 0 6 -27 10 -60 10 -33 0 -60 4 -60 10 0 6 -37 10 -90 10
-53 0 -90 4 -90 10 0 6 -93 10 -260 10 -167 0 -260 -4 -260 -10z m120 -290 c0
-60 -4 -100 -10 -100 -6 0 -10 -55 -10 -146 0 -147 -6 -174 -40 -174 -7 0 -25
-13 -40 -30 -15 -16 -34 -30 -42 -30 -7 0 -20 -9 -28 -20 -8 -11 -21 -20 -28
-20 -8 0 -27 -13 -42 -30 -15 -16 -33 -30 -40 -30 -6 0 -38 -27 -70 -60 -32
-33 -64 -60 -70 -60 -6 0 -29 -18 -50 -40 -25 -26 -47 -40 -64 -40 -25 0 -26
2 -26 60 0 33 -4 60 -10 60 -6 0 -10 43 -10 110 0 67 -4 110 -10 110 -5 0 -10
14 -10 30 0 17 -4 30 -10 30 -5 0 -10 9 -10 19 0 11 -6 21 -12 24 -9 3 -6 11
10 24 12 11 22 26 22 32 0 14 146 161 161 161 6 0 28 18 49 40 21 22 46 40 54
40 9 0 16 5 16 10 0 6 8 10 18 10 10 0 24 9 32 20 8 11 22 20 32 20 10 0 18 5
18 10 0 6 9 10 20 10 11 0 20 5 20 10 0 6 14 10 30 10 17 0 30 5 30 10 0 6 14
10 30 10 17 0 30 5 30 10 0 6 14 10 30 10 l30 0 0 -100z m280 90 c0 -5 14 -10
30 -10 17 0 30 -4 30 -10 0 -5 9 -10 20 -10 11 0 20 -4 20 -10 0 -5 8 -10 18
-10 10 0 24 -9 32 -20 8 -11 20 -20 27 -20 16 0 243 -225 243 -241 0 -6 14
-24 30 -39 17 -15 30 -34 30 -42 0 -7 9 -20 20 -28 11 -8 20 -21 20 -30 0 -9
9 -22 20 -30 11 -8 20 -22 20 -32 0 -10 5 -18 10 -18 6 0 10 -9 10 -20 0 -11
5 -20 10 -20 6 0 10 -9 10 -20 0 -11 5 -20 10 -20 6 0 10 -9 10 -20 0 -11 5
-20 10 -20 6 0 10 -9 10 -20 0 -11 5 -20 10 -20 6 0 10 -9 10 -20 0 -11 5 -20
10 -20 6 0 10 -9 10 -20 0 -11 5 -20 10 -20 6 0 10 -9 10 -20 0 -11 5 -20 10
-20 6 0 10 -13 10 -30 0 -16 5 -30 10 -30 6 0 10 -9 10 -20 0 -11 5 -20 10
-20 6 0 10 -9 10 -19 0 -11 6 -21 12 -23 21 -7 -17 -38 -46 -38 -14 0 -26 -4
-26 -10 0 -5 -13 -10 -30 -10 -16 0 -30 -4 -30 -10 0 -5 -18 -10 -40 -10 -22
0 -40 -4 -40 -10 0 -5 -18 -10 -40 -10 -22 0 -40 -4 -40 -10 0 -5 -22 -10 -50
-10 -27 0 -50 -4 -50 -10 0 -6 -27 -10 -60 -10 -33 0 -60 -4 -60 -10 0 -6 -37
-10 -90 -10 -53 0 -90 -4 -90 -10 0 -6 -47 -10 -120 -10 l-120 0 0 300 c0 193
4 300 10 300 6 0 10 8 10 18 0 10 9 24 20 32 12 8 20 26 20 42 0 15 5 28 10
28 6 0 10 22 10 49 0 30 5 52 13 55 10 5 10 7 0 12 -8 3 -13 25 -13 55 0 27
-4 49 -10 49 -5 0 -10 13 -10 28 0 16 -8 34 -20 42 -17 12 -20 26 -20 82 l0
68 70 0 c40 0 70 -4 70 -10z m360 -40 c0 -5 23 -10 50 -10 28 0 50 -4 50 -10
0 -5 18 -10 40 -10 22 0 40 -4 40 -10 0 -5 18 -10 40 -10 22 0 40 -4 40 -10 0
-5 18 -10 40 -10 22 0 40 -4 40 -10 0 -5 14 -10 30 -10 17 0 30 -4 30 -10 0
-5 14 -10 30 -10 17 0 30 -4 30 -10 0 -5 9 -10 20 -10 11 0 20 -4 20 -10 0 -5
14 -10 30 -10 17 0 30 -4 30 -10 0 -5 9 -10 20 -10 11 0 20 -4 20 -10 0 -5 14
-10 30 -10 17 0 30 -4 30 -10 0 -5 9 -10 20 -10 11 0 20 -4 20 -10 0 -5 9 -10
20 -10 11 0 20 -4 20 -10 0 -5 8 -10 18 -10 10 0 24 -9 32 -20 8 -11 22 -20
32 -20 10 0 18 -4 18 -10 0 -5 9 -10 20 -10 11 0 20 -4 20 -10 0 -5 8 -10 18
-10 10 0 24 -9 32 -20 8 -11 21 -20 30 -20 9 0 22 -9 30 -20 8 -11 20 -20 28
-20 12 0 62 -43 62 -55 0 -3 -40 -5 -90 -5 -53 0 -90 -4 -90 -10 0 -5 -22 -10
-50 -10 -27 0 -50 -4 -50 -10 0 -5 -13 -10 -30 -10 -16 0 -30 -4 -30 -10 0 -5
-9 -10 -20 -10 -11 0 -20 -4 -20 -10 0 -5 -7 -10 -15 -10 -9 0 -45 -29 -80
-65 -36 -35 -65 -71 -65 -80 0 -8 -4 -15 -10 -15 -5 0 -10 -9 -10 -20 0 -11
-3 -20 -6 -20 -11 0 -34 29 -34 44 0 9 -4 16 -10 16 -5 0 -10 9 -10 20 0 11
-4 20 -10 20 -5 0 -10 9 -10 20 0 11 -4 20 -10 20 -5 0 -10 9 -10 20 0 11 -4
20 -10 20 -5 0 -10 9 -10 20 0 11 -4 20 -10 20 -5 0 -10 9 -10 20 0 11 -4 20
-10 20 -5 0 -10 8 -10 18 0 10 -9 24 -20 32 -11 8 -20 22 -20 32 0 10 -4 18
-10 18 -5 0 -10 8 -10 18 0 10 -9 24 -20 32 -11 8 -20 21 -20 28 0 8 -13 27
-30 42 -16 15 -30 33 -30 39 0 7 -49 61 -110 121 -60 60 -110 112 -110 115 0
3 5 5 10 5 6 0 10 -4 10 -10z m-1200 -55 c0 -3 -31 -37 -70 -75 -38 -38 -70
-74 -70 -80 0 -21 -49 -60 -75 -60 -14 0 -25 5 -25 10 0 6 -9 10 -20 10 -11 0
-20 5 -20 10 0 6 -7 10 -16 10 -18 0 -44 23 -44 40 0 20 28 40 54 40 14 0 26
5 26 10 0 6 14 10 30 10 17 0 30 5 30 10 0 6 9 10 20 10 11 0 20 5 20 10 0 6
14 10 30 10 17 0 30 5 30 10 0 6 18 10 40 10 22 0 40 5 40 10 0 6 5 10 10 10
6 0 10 -2 10 -5z m-454 -189 c8 -8 14 -24 14 -36 0 -24 42 -70 65 -70 8 0 15
-4 15 -10 0 -5 9 -10 20 -10 11 0 20 -4 20 -10 0 -5 9 -10 20 -10 11 0 20 -4
20 -10 0 -5 -4 -10 -10 -10 -5 0 -10 -8 -10 -18 0 -10 -9 -24 -20 -32 -11 -8
-20 -22 -20 -32 0 -10 -4 -18 -10 -18 -5 0 -10 -9 -10 -20 0 -11 -4 -20 -10
-20 -5 0 -10 -9 -10 -20 0 -11 -4 -20 -10 -20 -5 0 -10 -9 -10 -20 0 -11 -4
-20 -10 -20 -5 0 -10 -9 -10 -20 0 -11 -4 -20 -10 -20 -5 0 -10 -13 -10 -30 0
-16 -4 -30 -10 -30 -5 0 -10 -9 -10 -20 0 -11 -4 -20 -10 -20 -5 0 -10 -9 -10
-20 0 -11 -4 -20 -10 -20 -5 0 -10 -13 -10 -30 0 -16 -4 -30 -10 -30 -5 0 -10
-13 -10 -30 0 -28 -2 -30 -40 -30 -22 0 -40 5 -40 10 0 6 -13 10 -30 10 -16 0
-30 5 -30 10 0 6 -13 10 -30 10 -16 0 -30 5 -30 10 0 6 -13 10 -30 10 -16 0
-30 5 -30 10 0 6 -12 10 -26 10 -23 0 -54 20 -54 34 0 3 9 6 20 6 11 0 20 5
20 10 0 6 9 10 20 10 11 0 20 5 20 10 0 6 9 10 20 10 11 0 20 5 20 10 0 6 7
10 15 10 9 0 36 20 60 45 43 43 45 47 45 105 0 58 -2 62 -45 105 -24 25 -51
45 -60 45 -8 0 -15 5 -15 10 0 6 -13 10 -30 10 -16 0 -30 5 -30 10 0 6 -9 10
-20 10 -11 0 -20 5 -20 10 0 6 9 10 20 10 11 0 20 5 20 10 0 6 9 10 20 10 11
0 20 5 20 10 0 6 9 10 20 10 11 0 20 5 20 10 0 6 14 10 30 10 17 0 30 5 30 10
0 6 9 10 20 10 11 0 20 5 20 10 0 6 9 10 20 10 11 0 20 5 20 10 0 6 9 10 20
10 11 0 20 5 20 10 0 6 9 10 20 10 11 0 20 5 20 10 0 15 29 12 46 -4z m294
-426 c0 -87 4 -140 10 -140 6 0 10 -18 10 -40 0 -22 5 -40 10 -40 6 0 10 -7
10 -15 0 -26 66 -85 95 -85 14 0 25 -4 25 -10 0 -5 14 -10 30 -10 17 0 30 5
30 10 0 6 9 10 20 10 11 0 20 5 20 10 0 6 9 10 20 10 11 0 20 5 20 10 0 6 7
10 15 10 9 0 69 54 135 120 66 66 124 120 130 120 7 0 29 18 50 40 21 22 46
40 54 40 12 0 16 -10 16 -40 0 -22 -4 -40 -10 -40 -6 0 -10 -73 -10 -200 l0
-200 -90 0 c-53 0 -90 4 -90 10 0 6 -40 10 -100 10 -60 0 -100 4 -100 10 0 6
-30 10 -70 10 -40 0 -70 4 -70 10 0 6 -27 10 -60 10 -33 0 -60 4 -60 10 0 6
-22 10 -50 10 -27 0 -50 5 -50 10 0 6 -27 10 -60 10 -33 0 -60 4 -60 10 0 6
-9 10 -20 10 -16 0 -20 7 -20 30 0 17 5 30 10 30 6 0 10 14 10 30 0 17 5 30
10 30 6 0 10 9 10 20 0 11 5 20 10 20 6 0 10 9 10 20 0 11 5 20 10 20 6 0 10
14 10 30 0 17 5 30 10 30 6 0 10 9 10 20 0 11 5 20 10 20 6 0 10 9 10 20 0 11
5 20 10 20 6 0 10 8 10 18 0 10 9 24 20 32 11 8 20 20 20 28 0 14 21 41 33 42
4 0 7 -63 7 -140z m-680 110 c0 -5 7 -10 16 -10 8 0 22 -7 30 -15 14 -13 14
-17 0 -30 -8 -8 -22 -15 -30 -15 -9 0 -16 -4 -16 -10 0 -5 -9 -10 -20 -10 -11
0 -20 -4 -20 -10 0 -5 -8 -10 -18 -10 -10 0 -24 -9 -32 -20 -8 -11 -22 -20
-32 -20 -10 0 -18 -4 -18 -10 0 -5 -9 -10 -20 -10 -11 0 -20 -4 -20 -10 0 -5
-9 -10 -20 -10 -11 0 -20 5 -20 10 0 6 -9 10 -20 10 -11 0 -20 5 -20 10 0 6
-13 10 -28 10 -16 0 -34 8 -42 20 -8 11 -22 20 -32 20 -10 0 -18 5 -18 10 0 6
8 10 18 10 10 0 24 9 32 20 8 11 22 20 32 20 10 0 18 5 18 10 0 6 9 10 20 10
11 0 20 5 20 10 0 6 9 10 20 10 11 0 20 5 20 10 0 6 40 10 100 10 60 0 100 -4
100 -10z m3320 -50 c0 -13 -7 -20 -20 -20 -11 0 -20 -4 -20 -10 0 -5 -9 -10
-20 -10 -11 0 -20 -4 -20 -10 0 -5 -9 -10 -20 -10 -11 0 -20 -4 -20 -10 0 -5
-9 -10 -20 -10 -11 0 -20 -4 -20 -10 0 -5 -9 -10 -20 -10 -11 0 -20 -4 -20
-10 0 -5 -9 -10 -20 -10 -11 0 -20 -4 -20 -10 0 -5 -13 -10 -30 -10 -16 0 -30
-4 -30 -10 0 -6 -27 -10 -60 -10 -33 0 -60 -4 -60 -10 0 -5 -13 -10 -30 -10
-16 0 -30 -4 -30 -10 0 -5 -9 -10 -20 -10 -11 0 -20 -4 -20 -10 0 -5 -9 -10
-20 -10 -11 0 -20 -4 -20 -10 0 -5 -9 -10 -20 -10 -11 0 -20 -4 -20 -10 0 -5
-9 -10 -20 -10 -11 0 -20 -4 -20 -10 0 -5 -13 -10 -30 -10 -23 0 -30 4 -30 20
0 11 5 20 10 20 6 0 10 7 10 16 0 9 14 29 30 44 17 15 30 33 30 40 0 16 25 40
42 40 8 0 20 9 28 20 8 11 22 20 32 20 10 0 18 5 18 10 0 6 9 10 20 10 11 0
20 5 20 10 0 6 57 10 150 10 93 0 150 4 150 10 0 6 23 10 50 10 28 0 50 5 50
10 0 6 14 10 30 10 23 0 30 -4 30 -20z m275 -245 c80 -80 145 -150 145 -156 0
-6 18 -28 40 -49 22 -21 40 -44 40 -50 0 -7 14 -25 30 -40 17 -15 30 -34 30
-42 0 -7 9 -20 20 -28 11 -8 20 -21 20 -30 0 -9 9 -22 20 -30 11 -8 20 -21 20
-30 0 -9 9 -22 20 -30 11 -8 20 -22 20 -32 0 -10 5 -18 10 -18 6 0 10 -9 10
-20 0 -11 5 -20 10 -20 6 0 10 -8 10 -18 0 -10 9 -24 20 -32 11 -8 20 -22 20
-32 0 -10 5 -18 10 -18 6 0 10 -9 10 -20 0 -11 5 -20 10 -20 6 0 10 -13 10
-30 0 -16 5 -30 10 -30 6 0 10 -9 10 -20 0 -11 5 -20 10 -20 6 0 10 -9 10 -20
0 -11 5 -20 10 -20 6 0 10 -18 10 -40 l0 -40 -40 0 c-22 0 -40 -4 -40 -10 0
-5 -13 -10 -30 -10 -16 0 -30 -4 -30 -10 0 -5 -9 -10 -20 -10 -11 0 -20 -4
-20 -10 0 -5 -13 -10 -30 -10 -16 0 -30 -4 -30 -10 0 -5 -13 -10 -30 -10 -16
0 -30 -4 -30 -10 0 -5 -9 -10 -20 -10 -11 0 -20 -4 -20 -10 0 -5 -13 -10 -30
-10 -16 0 -30 -4 -30 -10 0 -5 -9 -10 -20 -10 -11 0 -20 -4 -20 -10 0 -5 -18
-10 -40 -10 -22 0 -40 5 -40 10 0 6 5 10 10 10 6 0 10 9 10 20 0 11 -4 20 -10
20 -5 0 -10 11 -10 25 0 29 -40 75 -65 75 -8 0 -15 5 -15 10 0 6 -9 10 -20 10
-11 0 -20 5 -20 10 0 6 -18 10 -40 10 -22 0 -40 5 -40 10 0 6 -47 10 -120 10
-73 0 -120 4 -120 10 0 6 -13 10 -30 10 -16 0 -30 5 -30 10 0 6 -9 10 -20 10
-11 0 -20 5 -20 10 0 6 -9 10 -20 10 -11 0 -20 5 -20 10 0 6 -9 10 -20 10 -11
0 -20 5 -20 10 0 6 -13 10 -30 10 -16 0 -30 5 -30 10 0 6 -13 10 -30 10 -16 0
-30 5 -30 10 0 6 -18 10 -40 10 -22 0 -40 5 -40 10 0 6 -9 10 -20 10 -16 0
-20 7 -20 30 0 17 -4 30 -10 30 -5 0 -10 18 -10 40 0 22 -4 40 -10 40 -5 0
-10 18 -10 40 0 22 -4 40 -10 40 -5 0 -10 18 -10 40 l0 40 50 0 c28 0 50 5 50
10 0 6 14 10 30 10 17 0 30 5 30 10 0 6 9 10 20 10 11 0 20 5 20 10 0 6 7 10
15 10 19 0 85 64 85 82 0 8 9 20 20 28 11 8 20 22 20 32 0 10 5 18 10 18 6 0
10 14 10 30 0 17 5 30 10 30 15 0 12 78 -2 82 -17 6 14 38 36 38 9 0 16 5 16
10 0 6 9 10 20 10 11 0 20 5 20 10 0 6 9 10 20 10 11 0 20 5 20 10 0 6 9 10
20 10 11 0 20 5 20 10 0 6 9 10 20 10 11 0 20 5 20 10 0 6 9 10 20 10 11 0 20
5 20 10 0 6 8 10 18 10 10 0 24 9 32 20 8 11 20 20 27 20 7 0 78 -65 158 -145z
m-4025 105 c8 -11 21 -20 30 -20 9 0 22 -9 30 -20 8 -11 20 -20 28 -20 7 0 20
-7 29 -15 14 -14 13 -18 -6 -34 -12 -10 -21 -26 -21 -35 0 -9 -4 -16 -10 -16
-5 0 -10 -13 -10 -30 0 -16 -4 -30 -10 -30 -6 0 -10 -33 -10 -80 0 -47 4 -80
10 -80 6 0 10 -9 10 -20 0 -11 5 -20 10 -20 6 0 10 -7 10 -15 0 -20 45 -65 65
-65 8 0 15 -4 15 -10 0 -6 37 -10 90 -10 53 0 90 4 90 10 0 6 7 10 15 10 9 0
47 32 85 70 60 61 74 70 105 70 19 0 35 -4 35 -10 0 -5 7 -10 16 -10 22 0 53
-32 36 -38 -6 -2 -12 -17 -12 -33 0 -16 -4 -29 -10 -29 -5 0 -10 -18 -10 -40
0 -22 -4 -40 -10 -40 -5 0 -10 -13 -10 -30 0 -16 -4 -30 -10 -30 -5 0 -10 -18
-10 -40 0 -22 -4 -40 -10 -40 -5 0 -10 -11 -10 -25 0 -27 -40 -75 -62 -75 -8
0 -20 -9 -28 -20 -8 -11 -22 -20 -32 -20 -10 0 -18 -4 -18 -10 0 -5 -8 -10
-18 -10 -10 0 -24 -9 -32 -20 -8 -11 -22 -20 -32 -20 -10 0 -18 -4 -18 -10 0
-5 -7 -10 -16 -10 -9 0 -29 -13 -44 -30 -15 -16 -33 -30 -39 -30 -16 0 -81
-66 -81 -82 0 -8 -9 -20 -20 -28 -11 -8 -20 -22 -20 -32 0 -10 -4 -18 -10 -18
-5 0 -10 -9 -10 -20 0 -11 -4 -20 -10 -20 -5 0 -10 -9 -10 -20 0 -11 -4 -20
-10 -20 -5 0 -10 -13 -10 -30 0 -16 -4 -30 -10 -30 -5 0 -10 -9 -10 -20 0 -13
-7 -20 -20 -20 -11 0 -20 5 -20 10 0 6 -18 10 -40 10 -22 0 -40 5 -40 10 0 6
-18 10 -40 10 -22 0 -40 5 -40 10 0 6 -18 10 -40 10 -22 0 -40 5 -40 10 0 6
-13 10 -30 10 -16 0 -30 5 -30 10 0 6 -18 10 -40 10 -22 0 -40 5 -40 10 0 6
-13 10 -30 10 -16 0 -30 5 -30 10 0 6 -13 10 -30 10 -16 0 -30 5 -30 10 0 6
-13 10 -30 10 -16 0 -30 5 -30 10 0 6 -13 10 -30 10 -16 0 -30 5 -30 10 0 6
-13 10 -30 10 -16 0 -30 5 -30 10 0 6 -13 10 -30 10 -16 0 -30 5 -30 10 0 6
-7 10 -16 10 -8 0 -22 6 -30 14 -16 17 -19 46 -4 46 6 0 10 9 10 20 0 11 5 20
10 20 6 0 10 14 10 30 0 17 5 30 10 30 6 0 10 9 10 20 0 11 5 20 10 20 6 0 10
9 10 20 0 11 5 20 10 20 6 0 10 9 10 20 0 11 5 20 10 20 6 0 10 9 10 20 0 11
5 20 10 20 6 0 10 9 10 20 0 11 5 20 10 20 6 0 10 9 10 20 0 11 5 20 10 20 6
0 10 8 10 18 0 10 9 24 20 32 11 8 20 21 20 30 0 9 9 22 20 30 11 8 20 21 20
30 0 9 9 22 20 30 11 8 20 21 20 30 0 9 9 22 20 30 11 8 20 21 20 28 0 7 18
31 40 52 22 21 40 43 40 49 0 15 247 261 262 261 7 1 29 19 48 40 40 44 77 52
100 20z m290 -170 c0 -5 9 -10 20 -10 11 0 20 -4 20 -10 0 -5 9 -10 20 -10 11
0 20 -4 20 -10 0 -5 14 -10 30 -10 35 0 38 -10 10 -30 -11 -8 -20 -20 -20 -28
0 -18 -66 -82 -85 -82 -8 0 -15 -4 -15 -10 0 -5 -9 -10 -20 -10 -11 0 -20 5
-20 10 0 6 -9 10 -20 10 -18 0 -20 7 -20 60 0 33 4 60 10 60 6 0 10 7 10 15 0
16 39 63 53 64 4 1 7 -3 7 -9z m3120 -50 c0 -11 -4 -20 -10 -20 -5 0 -10 -7
-10 -16 0 -19 -24 -44 -42 -44 -8 0 -20 -9 -28 -20 -8 -12 -26 -20 -42 -20
-15 0 -28 -4 -28 -10 0 -5 -18 -10 -40 -10 -22 0 -40 -4 -40 -10 0 -15 -49
-12 -66 4 -8 8 -14 26 -14 40 0 22 4 26 30 26 17 0 30 5 30 10 0 6 14 10 30
10 17 0 30 5 30 10 0 6 9 10 20 10 11 0 20 5 20 10 0 6 14 10 30 10 17 0 30 5
30 10 0 6 9 10 20 10 11 0 20 5 20 10 0 6 14 10 30 10 23 0 30 -4 30 -20z
m-474 -154 c8 -8 14 -22 14 -30 0 -9 5 -16 10 -16 6 0 10 -4 10 -10 0 -5 -9
-10 -20 -10 -11 0 -20 -4 -20 -10 0 -5 -8 -10 -18 -10 -10 0 -24 -9 -32 -20
-8 -11 -20 -20 -27 -20 -16 0 -143 -125 -143 -141 0 -14 -25 -39 -40 -39 -6 0
-29 -18 -50 -40 -21 -22 -43 -40 -50 -40 -15 0 -60 -46 -60 -62 0 -8 -9 -20
-20 -28 -12 -8 -20 -26 -20 -42 0 -15 -4 -28 -10 -28 -5 0 -10 -18 -10 -40 0
-22 5 -40 10 -40 6 0 10 -11 10 -25 0 -34 61 -95 95 -95 14 0 25 -4 25 -10 0
-6 40 -10 100 -10 60 0 100 4 100 10 0 6 14 10 30 10 17 0 30 5 30 10 0 6 14
10 30 10 17 0 30 5 30 10 0 6 9 10 20 10 11 0 20 5 20 10 0 6 9 10 20 10 11 0
20 5 20 10 0 6 9 10 20 10 11 0 20 5 20 10 0 6 9 10 20 10 11 0 20 5 20 10 0
6 9 10 20 10 17 0 20 -7 20 -50 0 -27 5 -50 10 -50 6 0 10 -27 10 -60 l0 -60
-50 0 c-27 0 -50 5 -50 10 0 6 -30 10 -70 10 -40 0 -70 -4 -70 -10 0 -5 -22
-10 -50 -10 -27 0 -50 -4 -50 -10 0 -5 -13 -10 -30 -10 -16 0 -30 -4 -30 -10
0 -5 -13 -10 -28 -10 -16 0 -34 -8 -42 -20 -8 -11 -22 -20 -32 -20 -10 0 -18
-4 -18 -10 0 -5 -8 -10 -18 -10 -10 0 -24 -9 -32 -20 -8 -11 -20 -20 -28 -20
-7 0 -48 -36 -92 -80 -58 -58 -86 -80 -105 -80 -14 0 -25 -4 -25 -10 0 -6 -65
-10 -176 -10 -139 0 -178 3 -190 14 -11 12 -14 63 -14 280 0 171 4 266 10 266
6 0 10 83 10 230 l0 230 60 0 c33 0 60 4 60 10 0 6 47 10 120 10 73 0 120 4
120 10 0 6 33 10 80 10 47 0 80 4 80 10 0 6 27 10 60 10 33 0 60 4 60 10 0 6
18 10 40 10 22 0 40 5 40 10 0 6 18 10 40 10 22 0 40 5 40 10 0 6 18 10 40 10
22 0 40 5 40 10 0 6 18 10 40 10 22 0 40 5 40 10 0 14 9 12 26 -4z m-2026 -16
c0 -5 18 -10 40 -10 22 0 40 -4 40 -10 0 -5 23 -10 50 -10 28 0 50 -4 50 -10
0 -5 23 -10 50 -10 28 0 50 -4 50 -10 0 -5 23 -10 50 -10 28 0 50 -4 50 -10 0
-6 30 -10 70 -10 40 0 70 -4 70 -10 0 -6 50 -10 130 -10 80 0 130 -4 130 -10
0 -5 23 -10 50 -10 49 0 50 -1 50 -30 0 -16 -4 -30 -10 -30 -7 0 -10 -167 -10
-480 l0 -480 -110 0 c-67 0 -110 4 -110 10 0 6 -57 10 -150 10 -93 0 -150 4
-150 10 0 6 -47 10 -120 10 -73 0 -120 4 -120 10 0 6 -37 10 -90 10 -53 0 -90
4 -90 10 0 6 -33 10 -80 10 -47 0 -80 4 -80 10 0 6 -18 10 -40 10 l-40 0 0 60
c0 33 4 60 10 60 6 0 10 30 10 70 0 40 4 70 10 70 6 0 10 27 10 60 0 33 4 60
10 60 6 0 10 23 10 50 0 28 5 50 10 50 6 0 10 23 10 50 0 28 5 50 10 50 6 0
10 7 10 15 0 20 45 65 65 65 8 0 15 5 15 10 0 6 9 10 20 10 11 0 20 5 20 10 0
6 9 10 20 10 11 0 20 5 20 10 0 6 7 10 15 10 9 0 31 16 50 35 32 31 35 40 35
90 0 30 -4 55 -10 55 -5 0 -10 9 -10 20 0 11 -4 20 -10 20 -5 0 -10 8 -10 18
0 10 -9 24 -20 32 -11 8 -20 22 -20 32 0 10 -4 18 -10 18 -5 0 -10 5 -10 10 0
6 14 10 30 10 17 0 30 -4 30 -10z m-120 -169 c0 -11 6 -21 12 -23 17 -6 -14
-38 -36 -38 -9 0 -16 -4 -16 -10 0 -5 -4 -10 -10 -10 -5 0 -10 9 -10 20 0 11
5 20 10 20 6 0 10 14 10 30 0 23 4 30 20 30 13 0 20 -7 20 -19z m2220 -41 c0
-11 5 -20 10 -20 6 0 10 -13 10 -30 0 -16 5 -30 10 -30 6 0 10 -18 10 -40 0
-22 5 -40 10 -40 15 0 12 -70 -4 -86 -8 -8 -26 -14 -40 -14 -14 0 -26 -4 -26
-10 0 -5 -9 -10 -20 -10 -11 0 -20 -4 -20 -10 0 -5 -13 -10 -30 -10 -16 0 -30
-4 -30 -10 0 -5 -9 -10 -20 -10 -11 0 -20 -4 -20 -10 0 -5 -9 -10 -20 -10 -11
0 -20 -4 -20 -10 0 -5 -9 -10 -20 -10 -11 0 -20 -4 -20 -10 0 -5 -18 -10 -39
-10 -22 0 -42 -6 -45 -12 -5 -10 -7 -10 -12 0 -3 6 -14 12 -25 12 -32 0 -24
46 16 85 19 19 39 35 45 35 14 0 140 126 140 140 0 15 87 100 103 100 7 0 19
9 27 20 8 11 18 20 22 20 4 0 8 -9 8 -20z m-2500 -390 c0 -5 -4 -10 -10 -10
-5 0 -10 -22 -10 -50 0 -27 -4 -50 -10 -50 -6 0 -10 -30 -10 -70 0 -40 -4 -70
-10 -70 -6 0 -10 -30 -10 -70 0 -40 -4 -70 -10 -70 -5 0 -10 -9 -10 -20 0 -11
-4 -20 -10 -20 -5 0 -10 5 -10 10 0 6 -22 10 -50 10 -27 0 -50 5 -50 10 0 6
-18 10 -40 10 -22 0 -40 5 -40 10 0 6 -13 10 -30 10 -28 0 -30 2 -30 40 0 22
5 40 10 40 6 0 10 9 10 20 0 11 5 20 10 20 6 0 10 8 10 18 0 10 9 24 20 32 11
8 20 20 20 28 0 16 45 62 61 62 6 0 24 14 39 30 15 17 34 30 42 30 7 0 20 9
28 20 8 11 22 20 32 20 10 0 18 5 18 10 0 6 9 10 20 10 11 0 20 -4 20 -10z
m2820 0 c0 -5 14 -10 30 -10 17 0 30 -4 30 -10 0 -5 14 -10 30 -10 17 0 30 -4
30 -10 0 -5 9 -10 20 -10 11 0 20 -4 20 -10 0 -5 9 -10 20 -10 11 0 20 -4 20
-10 0 -5 9 -10 20 -10 11 0 20 -4 20 -10 0 -5 9 -10 20 -10 11 0 20 -4 20 -10
0 -6 47 -10 120 -10 73 0 120 -4 120 -10 0 -5 16 -10 36 -10 64 0 85 -50 39
-95 -13 -14 -36 -25 -50 -25 -14 0 -25 -4 -25 -10 0 -6 -30 -10 -70 -10 -40 0
-70 -4 -70 -10 0 -6 -43 -10 -110 -10 -67 0 -110 4 -110 10 0 6 -33 10 -80 10
-47 0 -80 4 -80 10 0 6 -9 10 -20 10 -18 0 -20 7 -20 70 0 40 -4 70 -10 70 -6
0 -10 30 -10 70 l0 70 30 0 c17 0 30 -4 30 -10z m-4160 -160 c0 -5 9 -10 20
-10 11 0 20 -4 20 -10 0 -5 9 -10 20 -10 11 0 20 -4 20 -10 0 -5 9 -10 20 -10
11 0 20 -4 20 -10 0 -5 9 -10 20 -10 11 0 20 -4 20 -10 0 -5 14 -10 30 -10 17
0 30 -4 30 -10 0 -5 9 -10 20 -10 11 0 20 -4 20 -10 0 -5 9 -10 20 -10 11 0
20 -4 20 -10 0 -5 12 -10 26 -10 14 0 32 -7 40 -15 14 -13 10 -20 -35 -64 -28
-27 -51 -57 -51 -65 0 -9 -4 -16 -10 -16 -5 0 -10 -9 -10 -20 0 -11 -4 -20
-10 -20 -6 0 -10 -43 -10 -110 0 -67 4 -110 10 -110 6 0 10 -13 10 -28 0 -16
8 -34 20 -42 11 -8 20 -20 20 -28 0 -17 25 -42 42 -42 8 0 20 -9 28 -20 8 -11
22 -20 32 -20 10 0 18 -4 18 -10 0 -5 7 -10 15 -10 20 0 65 -45 65 -65 0 -8 5
-15 10 -15 6 0 10 -9 10 -20 0 -11 5 -20 10 -20 6 0 10 -11 10 -25 0 -35 120
-155 155 -155 14 0 25 -4 25 -10 0 -5 18 -10 40 -10 22 0 40 -4 40 -10 0 -6
37 -10 90 -10 53 0 90 -4 90 -10 0 -5 23 -10 50 -10 28 0 50 -4 50 -10 0 -5
18 -10 40 -10 22 0 40 -4 40 -10 0 -5 12 -10 26 -10 40 0 54 -22 54 -84 0 -31
5 -56 10 -56 6 0 10 -43 10 -110 0 -67 -4 -110 -10 -110 -5 0 -10 5 -10 10 0
6 -22 10 -50 10 -27 0 -50 5 -50 10 0 6 -22 10 -50 10 -27 0 -50 5 -50 10 0 6
-18 10 -40 10 -22 0 -40 5 -40 10 0 6 -18 10 -40 10 -22 0 -40 5 -40 10 0 6
-18 10 -40 10 -22 0 -40 5 -40 10 0 6 -18 10 -40 10 -22 0 -40 5 -40 10 0 6
-12 10 -26 10 -44 0 -54 20 -54 114 0 51 -4 86 -10 86 -5 0 -10 14 -10 30 0
17 -4 30 -10 30 -5 0 -10 8 -10 18 0 10 -9 24 -20 32 -11 8 -20 20 -20 27 0
17 -86 103 -103 103 -7 0 -19 9 -27 20 -8 11 -22 20 -32 20 -10 0 -18 5 -18
10 0 6 -9 10 -20 10 -11 0 -20 5 -20 10 0 6 -9 10 -20 10 -11 0 -20 5 -20 10
0 6 -9 10 -20 10 -11 0 -20 5 -20 10 0 6 -9 10 -20 10 -11 0 -20 5 -20 10 0 6
-7 10 -15 10 -19 0 -105 84 -105 103 0 7 -9 19 -20 27 -11 8 -20 22 -20 32 0
10 -4 18 -10 18 -5 0 -10 9 -10 20 0 11 -4 20 -10 20 -5 0 -10 14 -10 30 0 17
-4 30 -10 30 -5 0 -10 9 -10 20 0 11 -4 20 -10 20 -5 0 -10 14 -10 30 0 17 -4
30 -10 30 -5 0 -10 9 -10 20 0 11 -4 20 -10 20 -5 0 -10 18 -10 40 0 22 -4 40
-10 40 -6 0 -10 37 -10 90 0 53 4 90 10 90 6 0 10 18 10 40 0 22 5 40 10 40 6
0 10 14 10 30 0 23 4 30 20 30 11 0 20 -4 20 -10z m5500 -10 c0 -11 5 -20 10
-20 6 0 10 -13 10 -30 0 -16 5 -30 10 -30 6 0 10 -13 10 -30 0 -16 5 -30 10
-30 6 0 10 -18 10 -40 0 -22 5 -40 10 -40 6 0 10 -13 10 -30 0 -16 5 -30 10
-30 6 0 10 -13 10 -30 0 -16 -4 -30 -10 -30 -5 0 -10 5 -10 10 0 6 -16 10 -35
10 -38 0 -85 -36 -85 -65 0 -8 -4 -15 -10 -15 -5 0 -10 -18 -10 -40 0 -22 -4
-40 -10 -40 -5 0 -10 -18 -10 -40 0 -22 -4 -40 -10 -40 -5 0 -10 -11 -10 -25
0 -40 -42 -75 -90 -75 -35 0 -47 6 -85 45 -25 24 -45 49 -45 56 0 6 -18 28
-40 49 -22 21 -40 46 -40 54 0 9 -7 16 -16 16 -9 0 -29 14 -44 30 -17 18 -38
30 -54 30 -14 0 -26 5 -26 10 0 6 -20 10 -45 10 -39 0 -51 -5 -80 -35 l-35
-34 0 -106 c0 -63 4 -105 10 -105 6 0 10 -13 10 -30 0 -16 5 -30 10 -30 6 0
10 -13 10 -30 0 -16 5 -30 10 -30 6 0 10 -8 10 -18 0 -10 9 -24 20 -32 11 -8
20 -21 20 -30 0 -9 9 -22 20 -30 11 -8 20 -20 20 -28 0 -17 45 -62 62 -62 8 0
20 -9 28 -20 8 -11 22 -20 32 -20 10 0 18 -4 18 -10 0 -5 9 -10 20 -10 11 0
20 -4 20 -10 0 -5 14 -10 30 -10 17 0 30 -4 30 -10 0 -5 9 -10 20 -10 13 0 20
-7 20 -18 0 -10 -9 -24 -20 -32 -11 -8 -20 -20 -20 -28 0 -18 -66 -82 -85 -82
-8 0 -15 -4 -15 -10 0 -5 -13 -10 -30 -10 -16 0 -30 -4 -30 -10 0 -5 -13 -10
-30 -10 -16 0 -30 -4 -30 -10 0 -5 -13 -10 -30 -10 -16 0 -30 -4 -30 -10 0 -5
-13 -10 -30 -10 -16 0 -30 -4 -30 -10 0 -5 -18 -10 -40 -10 -22 0 -40 -4 -40
-10 0 -5 -13 -10 -30 -10 -16 0 -30 -4 -30 -10 0 -5 -18 -10 -40 -10 -22 0
-40 -4 -40 -10 0 -5 -13 -10 -30 -10 -16 0 -30 -4 -30 -10 0 -5 -18 -10 -40
-10 -22 0 -40 -4 -40 -10 0 -5 -18 -10 -40 -10 -22 0 -40 -4 -40 -10 0 -5 -22
-10 -50 -10 -27 0 -50 -4 -50 -10 0 -5 -18 -10 -40 -10 -22 0 -40 -4 -40 -10
0 -5 -9 -10 -20 -10 -19 0 -20 7 -20 130 0 80 4 130 10 130 6 0 10 97 10 270
0 173 -4 270 -10 270 -6 0 -10 43 -10 110 0 67 -4 110 -10 110 -5 0 -10 14
-10 30 0 27 3 30 30 30 17 0 30 5 30 10 0 6 18 10 40 10 22 0 40 5 40 10 0 6
23 10 50 10 28 0 50 5 50 10 0 6 18 10 40 10 22 0 40 5 40 10 0 6 18 10 40 10
22 0 40 5 40 10 0 6 18 10 40 10 22 0 40 5 40 10 0 6 18 10 40 10 22 0 40 5
40 10 0 6 14 10 30 10 17 0 30 5 30 10 0 6 14 10 30 10 17 0 30 5 30 10 0 6
14 10 30 10 17 0 30 5 30 10 0 6 14 10 30 10 17 0 30 5 30 10 0 6 9 10 20 10
11 0 20 5 20 10 0 6 14 10 30 10 17 0 30 5 30 10 0 6 14 10 30 10 17 0 30 5
30 10 0 6 14 10 30 10 17 0 30 5 30 10 0 6 9 10 20 10 11 0 20 5 20 10 0 6 14
10 30 10 17 0 30 5 30 10 0 6 9 10 20 10 11 0 20 5 20 10 0 6 9 10 20 10 11 0
20 5 20 10 0 6 14 10 30 10 17 0 30 5 30 10 0 6 9 10 20 10 11 0 20 5 20 10 0
6 9 10 20 10 13 0 20 -7 20 -20z m-1620 -210 c0 -5 21 -10 46 -10 47 0 74 -16
74 -44 0 -12 -11 -16 -50 -16 -27 0 -50 -4 -50 -10 0 -6 -30 -10 -70 -10 -40
0 -70 -4 -70 -10 0 -6 -33 -10 -80 -10 -47 0 -80 -4 -80 -10 0 -6 -33 -10 -80
-10 -47 0 -80 4 -80 10 0 6 8 10 18 10 10 0 24 9 32 20 8 11 22 20 32 20 10 0
18 5 18 10 0 6 9 10 20 10 11 0 20 5 20 10 0 6 14 10 30 10 17 0 30 5 30 10 0
6 14 10 30 10 17 0 30 5 30 10 0 6 37 10 90 10 53 0 90 -4 90 -10z m-3340 -80
c0 -5 7 -10 15 -10 17 0 165 -144 165 -161 0 -16 26 -39 44 -39 9 0 16 -4 16
-10 0 -5 21 -10 46 -10 47 0 74 16 74 44 0 9 5 16 10 16 6 0 10 9 10 20 0 11
5 20 10 20 6 0 10 18 10 40 0 38 2 40 30 40 17 0 30 -4 30 -10 0 -5 18 -10 40
-10 22 0 40 -4 40 -10 0 -6 27 -10 60 -10 33 0 60 -4 60 -10 0 -5 14 -10 30
-10 28 0 30 -2 30 -40 0 -22 -4 -40 -10 -40 -6 0 -10 -97 -10 -270 0 -263 0
-270 -20 -270 -11 0 -20 5 -20 10 0 6 -13 10 -30 10 -16 0 -30 5 -30 10 0 6
-18 10 -40 10 -22 0 -40 5 -40 10 0 6 -27 10 -60 10 -33 0 -60 4 -60 10 0 6
-33 10 -80 10 -47 0 -80 4 -80 10 0 6 -7 10 -15 10 -20 0 -65 45 -65 65 0 8
-4 15 -10 15 -5 0 -10 14 -10 30 0 17 -4 30 -10 30 -5 0 -10 8 -10 18 0 10 -9
24 -20 32 -11 8 -20 20 -20 28 0 17 -25 42 -42 42 -8 0 -20 9 -28 20 -8 12
-26 20 -42 20 -15 0 -28 5 -28 10 0 6 -7 10 -15 10 -25 0 -65 46 -65 75 0 14
-4 25 -10 25 -5 0 -10 23 -10 50 0 28 5 50 10 50 6 0 10 11 10 25 0 15 13 40
33 60 25 26 40 34 70 34 20 1 37 -3 37 -9z m247 -5 c8 -9 13 -19 10 -22 -6 -5
-37 21 -37 31 0 10 11 6 27 -9z m653 -135 c0 -6 30 -10 70 -10 40 0 70 -4 70
-10 0 -6 33 -10 80 -10 47 0 80 -4 80 -10 0 -6 40 -10 100 -10 60 0 100 -4
100 -10 0 -6 53 -10 140 -10 87 0 140 -4 140 -10 0 -6 70 -10 190 -10 l190 0
0 -260 c0 -167 4 -260 10 -260 6 0 10 -103 10 -290 l0 -290 -195 0 -196 0 -69
70 c-38 39 -76 70 -85 70 -8 0 -15 5 -15 10 0 6 -9 10 -20 10 -11 0 -20 5 -20
10 0 6 -18 10 -40 10 -22 0 -40 5 -40 10 0 6 -18 10 -40 10 -22 0 -40 5 -40
10 0 6 -13 10 -30 10 -16 0 -30 5 -30 10 0 6 -7 10 -16 10 -18 0 -44 24 -44
40 0 7 -13 25 -30 40 -16 15 -30 33 -30 39 0 15 -46 61 -61 61 -6 0 -24 14
-39 30 -15 17 -35 30 -44 30 -9 0 -16 5 -16 10 0 6 -9 10 -20 10 -11 0 -20 5
-20 10 0 6 -12 10 -26 10 -35 0 -54 22 -54 64 0 20 -4 36 -10 36 -6 0 -10 60
-10 160 0 100 4 160 10 160 6 0 10 50 10 130 0 123 1 130 20 130 11 0 20 -4
20 -10z m2580 -150 c0 -87 4 -140 10 -140 6 0 10 -107 10 -300 0 -293 0 -300
-20 -300 -11 0 -20 5 -20 10 0 6 -9 10 -20 10 -11 0 -20 5 -20 10 0 6 -9 10
-20 10 -11 0 -20 5 -20 10 0 6 -9 10 -20 10 -11 0 -20 5 -20 10 0 6 -13 10
-30 10 -16 0 -30 5 -30 10 0 6 -70 10 -190 10 -120 0 -190 4 -190 10 0 6 -9
10 -20 10 -11 0 -20 5 -20 10 0 6 -7 10 -15 10 -20 0 -105 85 -105 105 0 8 -4
15 -10 15 -5 0 -10 9 -10 20 0 11 -4 20 -10 20 -5 0 -10 9 -10 20 0 11 -4 20
-10 20 -6 0 -10 27 -10 60 0 33 -4 60 -10 60 -6 0 -10 30 -10 70 0 40 4 70 10
70 6 0 10 23 10 50 0 28 5 50 10 50 6 0 10 14 10 30 0 17 5 30 10 30 6 0 10 9
10 20 0 17 7 20 40 20 22 0 40 5 40 10 0 6 47 10 120 10 73 0 120 4 120 10 0
6 33 10 80 10 47 0 80 4 80 10 0 6 30 10 70 10 40 0 70 4 70 10 0 6 30 10 70
10 l70 0 0 -140z m-4140 80 c0 -22 5 -40 10 -40 6 0 10 -13 10 -30 0 -16 5
-30 10 -30 6 0 10 -13 10 -30 0 -16 5 -30 10 -30 6 0 10 -13 10 -30 0 -16 5
-30 10 -30 6 0 10 -8 10 -18 0 -10 9 -24 20 -32 11 -8 20 -20 20 -27 0 -19
126 -143 145 -143 8 0 15 -4 15 -10 0 -5 9 -10 20 -10 11 0 20 -4 20 -10 0 -5
14 -10 30 -10 17 0 30 -4 30 -10 0 -5 9 -10 20 -10 11 0 20 -4 20 -10 0 -5 7
-10 15 -10 20 0 145 -125 145 -145 0 -8 5 -15 10 -15 6 0 10 -9 10 -20 0 -11
5 -20 10 -20 6 0 10 -22 10 -50 0 -43 -3 -50 -20 -50 -11 0 -20 5 -20 10 0 6
-13 10 -30 10 -16 0 -30 5 -30 10 0 6 -9 10 -20 10 -11 0 -20 5 -20 10 0 6
-13 10 -30 10 -16 0 -30 5 -30 10 0 6 -13 10 -30 10 -16 0 -30 5 -30 10 0 6
-9 10 -20 10 -11 0 -20 5 -20 10 0 6 -13 10 -30 10 -16 0 -30 5 -30 10 0 6 -9
10 -20 10 -11 0 -20 5 -20 10 0 6 -13 10 -30 10 -16 0 -30 5 -30 10 0 6 -9 10
-20 10 -11 0 -20 5 -20 10 0 6 -9 10 -20 10 -11 0 -20 5 -20 10 0 6 -9 10 -20
10 -11 0 -20 5 -20 10 0 6 -9 10 -20 10 -11 0 -20 5 -20 10 0 6 -7 10 -15 10
-26 0 -85 66 -85 95 0 14 5 25 10 25 6 0 10 43 10 110 0 67 4 110 10 110 6 0
10 30 10 70 0 40 4 70 10 70 6 0 10 27 10 60 0 53 2 60 20 60 17 0 20 -7 20
-40z m5735 -5 c19 -18 25 -35 25 -70 0 -25 5 -45 10 -45 6 0 10 -37 10 -90 0
-53 4 -90 10 -90 6 0 10 -35 10 -86 0 -88 -10 -114 -44 -114 -9 0 -16 -4 -16
-10 0 -5 -9 -10 -20 -10 -11 0 -20 -4 -20 -10 0 -5 -13 -10 -30 -10 -16 0 -30
-4 -30 -10 0 -5 -9 -10 -20 -10 -11 0 -20 -4 -20 -10 0 -5 -9 -10 -20 -10 -11
0 -20 -4 -20 -10 0 -5 -9 -10 -20 -10 -11 0 -20 -4 -20 -10 0 -5 -4 -10 -10
-10 -6 0 -10 32 -10 75 0 67 -3 79 -25 100 -13 14 -31 25 -40 25 -8 0 -15 5
-15 10 0 6 -26 10 -58 10 -46 0 -60 4 -72 20 -8 11 -20 20 -28 20 -17 0 -82
65 -82 82 0 8 -9 20 -20 28 -11 8 -20 22 -20 32 0 10 -4 18 -10 18 -5 0 -10 9
-10 20 0 11 -4 20 -10 20 -5 0 -10 14 -10 30 0 17 -4 30 -10 30 -5 0 -10 9
-10 20 0 13 7 20 20 20 12 0 20 -7 20 -16 0 -9 14 -29 30 -44 17 -15 30 -33
30 -39 0 -17 127 -141 145 -141 8 0 15 -4 15 -10 0 -5 14 -10 30 -10 17 0 30
-4 30 -10 0 -5 18 -10 40 -10 22 0 40 5 40 10 0 6 14 10 30 10 17 0 30 5 30
10 0 6 7 10 15 10 20 0 85 65 85 85 0 8 5 15 10 15 6 0 10 14 10 30 0 17 5 30
10 30 6 0 10 23 10 50 0 28 5 50 10 50 6 0 10 14 10 30 0 36 4 37 35 5z
m-2535 -55 c0 -22 -4 -40 -10 -40 -5 0 -10 -18 -10 -40 0 -22 -4 -40 -10 -40
-6 0 -10 -40 -10 -100 0 -60 4 -100 10 -100 6 0 10 -27 10 -60 0 -33 4 -60 10
-60 6 0 10 -13 10 -30 0 -16 5 -30 10 -30 6 0 10 -13 10 -30 0 -16 5 -30 10
-30 6 0 10 -8 10 -18 0 -10 9 -24 20 -32 11 -8 20 -20 20 -27 0 -17 86 -103
103 -103 7 0 19 -9 27 -20 8 -11 22 -20 32 -20 10 0 18 -4 18 -10 0 -5 14 -10
30 -10 17 0 30 -4 30 -10 0 -6 70 -10 190 -10 120 0 190 -4 190 -10 0 -5 14
-10 30 -10 17 0 30 -4 30 -10 0 -5 9 -10 20 -10 11 0 20 -4 20 -10 0 -5 9 -10
20 -10 11 0 20 -4 20 -10 0 -5 7 -10 16 -10 8 0 22 -7 30 -15 27 -27 -5 -45
-80 -45 -37 0 -66 -4 -66 -10 0 -6 -30 -10 -70 -10 -40 0 -70 -4 -70 -10 0 -6
-33 -10 -80 -10 -47 0 -80 -4 -80 -10 0 -6 -40 -10 -100 -10 -60 0 -100 -4
-100 -10 0 -6 -47 -10 -120 -10 -73 0 -120 -4 -120 -10 0 -6 -57 -10 -150 -10
l-150 0 0 450 c0 293 -3 450 -10 450 -15 0 -13 168 3 185 9 11 45 14 160 15
l147 0 0 -40z m-3240 -590 c15 -16 34 -30 42 -30 7 0 20 -9 28 -20 8 -11 22
-20 32 -20 10 0 18 -4 18 -10 0 -5 9 -10 20 -10 11 0 20 -4 20 -10 0 -5 9 -10
20 -10 11 0 20 -4 20 -10 0 -5 8 -10 18 -10 10 0 24 -9 32 -20 8 -12 26 -20
42 -20 15 0 28 -4 28 -10 0 -5 9 -10 20 -10 11 0 20 -4 20 -10 0 -5 9 -10 20
-10 11 0 20 -4 20 -10 0 -5 9 -10 20 -10 11 0 20 -4 20 -10 0 -5 14 -10 30
-10 17 0 30 -4 30 -10 0 -5 14 -10 30 -10 17 0 30 -4 30 -10 0 -5 7 -10 16
-10 22 0 53 -32 36 -38 -7 -2 -12 -21 -12 -43 0 -21 -4 -39 -10 -39 -6 0 -10
-40 -10 -100 0 -60 4 -100 10 -100 6 0 10 -18 10 -40 0 -22 5 -40 10 -40 6 0
10 -9 10 -20 0 -11 5 -20 10 -20 6 0 10 -9 10 -20 0 -11 5 -20 10 -20 6 0 10
-7 10 -15 0 -19 124 -145 143 -145 7 0 19 -9 27 -20 8 -11 22 -20 32 -20 10 0
18 -4 18 -10 0 -5 9 -10 20 -10 11 0 20 -4 20 -10 0 -5 8 -10 18 -10 10 0 24
-9 32 -20 8 -11 20 -20 27 -20 19 0 143 -126 143 -145 0 -8 5 -15 10 -15 6 0
10 -13 10 -30 0 -16 5 -30 10 -30 6 0 10 -13 10 -30 0 -16 5 -30 10 -30 6 0
10 -27 10 -60 0 -33 4 -60 10 -60 6 0 10 -22 10 -50 0 -27 5 -50 10 -50 6 0
10 -18 10 -40 0 -22 5 -40 10 -40 6 0 10 -13 10 -30 0 -16 5 -30 10 -30 15 0
12 -70 -4 -86 -8 -8 -26 -14 -40 -14 -14 0 -26 -4 -26 -10 0 -5 -9 -10 -20
-10 -11 0 -20 -4 -20 -10 0 -5 -8 -10 -18 -10 -10 0 -24 -9 -32 -20 -8 -11
-22 -20 -32 -20 -10 0 -18 -4 -18 -10 0 -5 -9 -10 -20 -10 -11 0 -20 -4 -20
-10 0 -5 -8 -10 -18 -10 -10 0 -24 -9 -32 -20 -21 -29 -57 -25 -90 10 -15 17
-33 30 -40 30 -6 0 -38 27 -70 60 -32 33 -64 60 -70 60 -14 0 -100 86 -100
100 0 6 -31 42 -70 80 -38 38 -70 74 -70 81 0 6 -14 24 -30 39 -17 15 -30 34
-30 42 0 7 -9 20 -20 28 -11 8 -20 21 -20 30 0 9 -9 22 -20 30 -11 8 -20 21
-20 30 0 9 -9 22 -20 30 -11 8 -20 22 -20 32 0 10 -4 18 -10 18 -5 0 -10 9
-10 20 0 11 -4 20 -10 20 -5 0 -10 9 -10 20 0 11 -4 20 -10 20 -5 0 -10 9 -10
20 0 11 -4 20 -10 20 -5 0 -10 9 -10 20 0 11 -4 20 -10 20 -5 0 -10 9 -10 20
0 11 -4 20 -10 20 -5 0 -10 9 -10 20 0 11 -4 20 -10 20 -5 0 -10 14 -10 30 0
17 -4 30 -10 30 -5 0 -10 9 -10 20 0 11 -4 20 -10 20 -5 0 -10 14 -10 30 0 17
-4 30 -10 30 -5 0 -10 9 -10 20 0 11 -4 20 -10 20 -5 0 -10 18 -10 40 0 22 -4
40 -10 40 -5 0 -10 14 -10 30 0 17 -4 30 -10 30 -5 0 -10 18 -10 40 0 22 -4
40 -10 40 -5 0 -10 23 -10 50 0 28 -4 50 -10 50 -6 0 -10 27 -10 60 0 33 -4
60 -10 60 -6 0 -10 40 -10 100 0 60 -4 100 -10 100 -6 0 -10 37 -10 90 0 103
10 113 60 60z m5840 -60 c0 -53 -4 -90 -10 -90 -6 0 -10 -30 -10 -70 0 -40 -4
-70 -10 -70 -5 0 -10 -22 -10 -50 0 -27 -4 -50 -10 -50 -5 0 -10 -18 -10 -40
0 -22 -4 -40 -10 -40 -5 0 -10 -18 -10 -40 0 -22 -4 -40 -10 -40 -5 0 -10 -13
-10 -30 0 -16 -4 -30 -10 -30 -5 0 -10 -13 -10 -30 0 -16 -4 -30 -10 -30 -5 0
-10 -13 -10 -30 0 -16 -4 -30 -10 -30 -5 0 -10 -9 -10 -20 0 -11 -4 -20 -10
-20 -5 0 -10 -9 -10 -20 0 -11 -4 -20 -10 -20 -5 0 -10 -9 -10 -20 0 -11 -4
-20 -10 -20 -5 0 -10 -13 -10 -30 0 -16 -4 -30 -10 -30 -5 0 -10 -8 -10 -18 0
-10 -9 -24 -20 -32 -11 -8 -20 -22 -20 -32 0 -10 -4 -18 -10 -18 -5 0 -10 -9
-10 -20 0 -11 -4 -20 -10 -20 -5 0 -10 -9 -10 -20 0 -11 -4 -20 -10 -20 -5 0
-10 -8 -10 -18 0 -10 -9 -24 -20 -32 -11 -8 -20 -21 -20 -30 0 -9 -9 -22 -20
-30 -11 -8 -20 -22 -20 -32 0 -10 -4 -18 -10 -18 -5 0 -10 -7 -10 -16 0 -9
-13 -29 -30 -44 -16 -15 -30 -34 -30 -42 0 -7 -9 -20 -20 -28 -11 -8 -20 -21
-20 -28 0 -8 -13 -27 -30 -42 -16 -15 -30 -33 -30 -40 0 -6 -18 -29 -40 -50
-22 -21 -40 -43 -40 -49 0 -6 -84 -95 -186 -197 -184 -184 -186 -185 -203
-165 -10 12 -25 21 -32 21 -8 0 -21 9 -29 20 -8 11 -22 20 -32 20 -10 0 -18 5
-18 10 0 6 -8 10 -18 10 -10 0 -24 9 -32 20 -8 11 -22 20 -32 20 -10 0 -18 5
-18 10 0 6 -9 10 -20 10 -11 0 -20 5 -20 10 0 6 -9 10 -20 10 -11 0 -20 5 -20
10 0 6 -9 10 -20 10 -11 0 -20 5 -20 10 0 6 -9 10 -20 10 -11 0 -20 5 -20 10
0 6 -9 10 -20 10 -11 0 -20 5 -20 10 0 6 -13 10 -30 10 -16 0 -30 5 -30 10 0
6 -9 10 -20 10 -11 0 -20 5 -20 10 0 6 -13 10 -30 10 -16 0 -30 5 -30 10 0 6
-13 10 -30 10 -16 0 -30 5 -30 10 0 6 -13 10 -30 10 -28 0 -30 2 -30 40 0 22
5 40 10 40 6 0 10 14 10 30 0 17 5 30 10 30 6 0 10 14 10 30 0 17 5 30 10 30
6 0 10 18 10 40 0 22 5 40 10 40 6 0 10 14 10 30 0 17 5 30 10 30 6 0 10 18
10 40 0 22 5 40 10 40 6 0 10 18 10 40 0 33 3 40 20 40 17 0 20 -7 20 -50 0
-27 5 -50 10 -50 6 0 10 -18 10 -40 0 -22 5 -40 10 -40 6 0 10 -18 10 -40 0
-22 5 -40 10 -40 6 0 10 -13 10 -30 0 -16 5 -30 10 -30 6 0 10 -13 10 -30 0
-16 5 -30 10 -30 6 0 10 -7 10 -16 0 -20 24 -44 44 -44 9 0 16 -4 16 -10 0 -5
14 -10 30 -10 17 0 30 -4 30 -10 0 -5 14 -10 30 -10 17 0 30 5 30 10 0 6 18
10 40 10 22 0 40 5 40 10 0 6 14 10 30 10 17 0 30 5 30 10 0 6 8 10 18 10 10
0 24 9 32 20 8 11 20 20 27 20 17 0 103 86 103 103 0 7 9 19 20 27 11 8 20 22
20 32 0 10 5 18 10 18 6 0 10 9 10 20 0 11 5 20 10 20 6 0 10 9 10 20 0 11 5
20 10 20 6 0 10 9 10 20 0 11 5 20 10 20 6 0 10 9 10 20 0 11 5 20 10 20 6 0
10 9 10 20 0 11 5 20 10 20 6 0 10 9 10 20 0 11 5 20 10 20 6 0 10 8 10 18 0
10 9 24 20 32 11 8 20 21 20 28 0 7 18 31 40 52 22 21 40 46 40 54 0 9 5 16
10 16 6 0 10 9 10 20 0 11 5 20 10 20 6 0 10 18 10 40 0 22 5 40 10 40 6 0 10
30 10 70 0 40 4 70 10 70 6 0 10 30 10 70 0 40 4 70 10 70 6 0 10 14 10 30 0
17 5 30 10 30 6 0 10 14 10 30 0 17 5 30 10 30 6 0 10 8 10 18 0 10 9 24 20
32 11 8 20 20 20 27 0 19 146 163 165 163 8 0 15 5 15 10 0 6 9 10 20 10 11 0
20 5 20 10 0 6 14 10 30 10 17 0 30 5 30 10 0 6 9 10 20 10 11 0 20 5 20 10 0
6 9 10 20 10 11 0 20 5 20 10 0 6 14 10 30 10 17 0 30 5 30 10 0 6 9 10 20 10
11 0 20 5 20 10 0 6 9 10 20 10 11 0 20 5 20 10 0 6 5 10 10 10 6 0 10 -37 10
-90z m-4240 -60 c0 -5 7 -10 15 -10 17 0 125 -104 125 -120 0 -16 108 -120
125 -120 8 0 15 -4 15 -10 0 -5 9 -10 20 -10 11 0 20 -4 20 -10 0 -5 18 -10
40 -10 22 0 40 -4 40 -10 0 -5 14 -10 30 -10 17 0 30 -4 30 -10 0 -5 -18 -10
-40 -10 -22 0 -40 5 -40 10 0 6 -37 10 -90 10 -53 0 -90 4 -90 10 0 6 -30 10
-70 10 -40 0 -70 4 -70 10 0 6 -18 10 -40 10 l-40 0 0 70 c0 40 -4 70 -10 70
-6 0 -10 30 -10 70 0 63 2 70 20 70 11 0 20 -4 20 -10z m3540 -150 c0 -11 -4
-20 -10 -20 -5 0 -10 -9 -10 -20 0 -11 -4 -20 -10 -20 -5 0 -10 -13 -10 -30 0
-16 -4 -30 -10 -30 -5 0 -10 -18 -10 -40 0 -22 -4 -40 -10 -40 -6 0 -10 -37
-10 -90 0 -53 -4 -90 -10 -90 -6 0 -10 -27 -10 -60 0 -33 -4 -60 -10 -60 -5 0
-10 -7 -10 -16 0 -8 -18 -33 -40 -54 -22 -21 -40 -44 -40 -50 0 -7 -13 -25
-30 -40 -16 -15 -30 -35 -30 -44 0 -9 -4 -16 -10 -16 -5 0 -10 -9 -10 -20 0
-11 -4 -20 -10 -20 -5 0 -10 -9 -10 -20 0 -11 -4 -20 -10 -20 -5 0 -10 -9 -10
-20 0 -11 -4 -20 -10 -20 -5 0 -10 -9 -10 -20 0 -11 -4 -20 -10 -20 -5 0 -10
-9 -10 -20 0 -11 -4 -20 -10 -20 -5 0 -10 -9 -10 -20 0 -11 -4 -20 -10 -20 -5
0 -10 -9 -10 -20 0 -11 -4 -20 -10 -20 -5 0 -10 -7 -10 -15 0 -20 -85 -105
-105 -105 -8 0 -15 -4 -15 -10 0 -5 -9 -10 -20 -10 -11 0 -20 -4 -20 -10 0 -5
-13 -10 -29 -10 -16 0 -31 -6 -33 -12 -6 -17 -38 14 -38 36 0 9 -4 16 -10 16
-5 0 -10 23 -10 50 0 28 -4 50 -10 50 -5 0 -10 23 -10 50 0 28 -4 50 -10 50
-6 0 -10 27 -10 60 0 33 -4 60 -10 60 -6 0 -10 27 -10 60 0 33 4 60 10 60 6 0
10 30 10 70 0 40 4 70 10 70 6 0 10 43 10 110 0 67 -4 110 -10 110 -5 0 -10
23 -10 50 0 28 -4 50 -10 50 -5 0 -10 5 -10 10 0 6 9 10 20 10 11 0 20 5 20
10 0 6 18 10 40 10 22 0 40 5 40 10 0 6 18 10 40 10 22 0 40 5 40 10 0 6 18
10 40 10 22 0 40 5 40 10 0 6 18 10 40 10 22 0 40 5 40 10 0 6 14 10 30 10 17
0 30 5 30 10 0 6 14 10 30 10 17 0 30 5 30 10 0 6 18 10 40 10 22 0 40 5 40
10 0 6 14 10 30 10 17 0 30 5 30 10 0 6 14 10 30 10 17 0 30 5 30 10 0 6 14
10 30 10 17 0 30 5 30 10 0 6 5 10 10 10 6 0 10 -9 10 -20z m-4360 -90 c0 -5
14 -10 30 -10 17 0 30 -4 30 -10 0 -5 18 -10 40 -10 22 0 40 -4 40 -10 0 -5
18 -10 40 -10 22 0 40 -4 40 -10 0 -5 18 -10 40 -10 22 0 40 -4 40 -10 0 -5
18 -10 40 -10 22 0 40 -4 40 -10 0 -5 23 -10 50 -10 28 0 50 -4 50 -10 0 -5
23 -10 50 -10 28 0 50 -4 50 -10 0 -5 18 -10 40 -10 l40 0 0 -50 c0 -27 5 -50
10 -50 6 0 10 -33 10 -80 0 -47 4 -80 10 -80 6 0 10 -27 10 -60 0 -33 4 -60
10 -60 6 0 10 -22 10 -50 0 -27 5 -50 10 -50 6 0 10 -22 10 -50 0 -27 5 -50
10 -50 6 0 10 -18 10 -40 0 -22 5 -40 10 -40 6 0 10 -18 10 -40 0 -22 5 -40
10 -40 6 0 10 -13 10 -30 0 -16 5 -30 10 -30 6 0 10 -18 10 -40 0 -22 5 -40
10 -40 6 0 10 -13 10 -30 0 -16 5 -30 10 -30 6 0 10 -13 10 -30 0 -16 5 -30
10 -30 6 0 10 -13 10 -30 0 -16 5 -30 10 -30 6 0 10 -9 10 -20 0 -13 -7 -20
-20 -20 -11 0 -20 -4 -20 -10 0 -5 -9 -10 -20 -10 -11 0 -20 -4 -20 -10 0 -5
-13 -10 -30 -10 -16 0 -30 -4 -30 -10 0 -5 -13 -10 -30 -10 -16 0 -30 -4 -30
-10 0 -5 -13 -10 -30 -10 -27 0 -30 3 -30 30 0 17 -4 30 -10 30 -5 0 -10 18
-10 40 0 22 -4 40 -10 40 -5 0 -10 18 -10 40 0 22 -4 40 -10 40 -6 0 -10 27
-10 60 0 33 -4 60 -10 60 -5 0 -10 18 -10 40 0 22 -4 40 -10 40 -5 0 -10 18
-10 40 0 22 -4 40 -10 40 -5 0 -10 9 -10 20 0 11 -4 20 -10 20 -5 0 -10 9 -10
20 0 11 -4 20 -10 20 -5 0 -10 8 -10 18 0 10 -9 24 -20 32 -11 8 -20 20 -20
28 0 17 -65 82 -82 82 -8 0 -20 9 -28 20 -8 11 -22 20 -32 20 -10 0 -18 5 -18
10 0 6 -9 10 -20 10 -11 0 -20 5 -20 10 0 6 -8 10 -18 10 -10 0 -24 9 -32 20
-8 11 -21 20 -30 20 -9 0 -22 9 -30 20 -8 11 -20 20 -28 20 -17 0 -82 65 -82
82 0 8 -9 20 -20 28 -12 8 -20 26 -20 42 0 15 -4 28 -10 28 -15 0 -13 227 3
245 14 17 27 19 27 5z m3380 -220 c0 -40 -4 -70 -10 -70 -6 0 -10 -30 -10 -70
0 -40 -4 -70 -10 -70 -5 0 -10 -22 -10 -50 0 -27 -4 -50 -10 -50 -5 0 -10 -22
-10 -50 0 -27 -4 -50 -10 -50 -5 0 -10 -22 -10 -50 0 -27 -4 -50 -10 -50 -5 0
-10 -18 -10 -40 0 -22 -4 -40 -10 -40 -5 0 -10 -18 -10 -40 0 -22 -4 -40 -10
-40 -5 0 -10 -18 -10 -40 0 -22 -4 -40 -10 -40 -5 0 -10 -13 -10 -30 0 -16 -4
-30 -10 -30 -5 0 -10 -18 -10 -40 0 -22 -4 -40 -10 -40 -5 0 -10 -13 -10 -30
0 -16 -4 -30 -10 -30 -5 0 -10 -9 -10 -20 0 -13 -7 -20 -20 -20 -11 0 -20 5
-20 10 0 6 -18 10 -40 10 -22 0 -40 5 -40 10 0 6 -18 10 -40 10 -22 0 -40 5
-40 10 0 6 -18 10 -40 10 -22 0 -40 5 -40 10 0 6 -22 10 -50 10 -27 0 -50 5
-50 10 0 6 -27 10 -60 10 -33 0 -60 4 -60 10 0 6 -30 10 -70 10 -40 0 -70 4
-70 10 0 6 -63 10 -170 10 l-170 0 0 230 c0 147 -4 230 -10 230 -6 0 -10 62
-10 166 0 130 3 168 14 180 12 11 58 14 240 14 144 0 226 4 226 10 0 6 47 10
120 10 73 0 120 4 120 10 0 6 37 10 90 10 53 0 90 4 90 10 0 6 30 10 70 10 40
0 70 4 70 10 0 6 27 10 60 10 33 0 60 4 60 10 0 6 14 10 30 10 l30 0 0 -70z
m-2440 20 c0 -6 40 -10 100 -10 60 0 100 -4 100 -10 0 -6 40 -10 100 -10 60 0
100 -4 100 -10 0 -6 27 -10 60 -10 l60 0 0 -60 c0 -33 -4 -60 -10 -60 -5 0
-10 -18 -10 -40 0 -22 -4 -40 -10 -40 -5 0 -10 -18 -10 -40 0 -22 -4 -40 -10
-40 -5 0 -10 -18 -10 -40 0 -22 -4 -40 -10 -40 -5 0 -10 -9 -10 -20 0 -11 -4
-20 -10 -20 -5 0 -10 -9 -10 -20 0 -11 -4 -20 -10 -20 -5 0 -10 -7 -10 -15 0
-9 -36 -51 -80 -95 -44 -44 -80 -85 -80 -92 0 -8 -9 -20 -20 -28 -11 -8 -20
-22 -20 -32 0 -10 -4 -18 -10 -18 -5 0 -10 -9 -10 -20 0 -11 -4 -20 -10 -20
-5 0 -10 -9 -10 -20 0 -11 -4 -20 -10 -20 -5 0 -10 -9 -10 -20 0 -11 -4 -20
-10 -20 -5 0 -10 -9 -10 -20 0 -13 -7 -20 -20 -20 -16 0 -20 7 -20 30 0 17 -4
30 -10 30 -5 0 -10 14 -10 30 0 17 -4 30 -10 30 -5 0 -10 18 -10 40 0 22 -4
40 -10 40 -5 0 -10 18 -10 40 0 22 -4 40 -10 40 -5 0 -10 14 -10 30 0 17 -4
30 -10 30 -5 0 -10 23 -10 50 0 28 -4 50 -10 50 -5 0 -10 23 -10 50 0 28 -4
50 -10 50 -5 0 -10 23 -10 50 0 28 -4 50 -10 50 -6 0 -10 27 -10 60 0 33 -4
60 -10 60 -6 0 -10 30 -10 70 0 40 -4 70 -10 70 -5 0 -10 9 -10 20 0 18 7 20
60 20 33 0 60 -4 60 -10z m760 -60 c0 -6 57 -10 150 -10 l150 0 0 -130 c0 -80
4 -130 10 -130 6 0 10 -97 10 -270 l0 -270 -140 0 c-87 0 -140 -4 -140 -10 0
-6 -37 -10 -90 -10 -53 0 -90 -4 -90 -10 0 -6 -27 -10 -60 -10 -33 0 -60 -4
-60 -10 0 -5 -22 -10 -50 -10 -27 0 -50 -4 -50 -10 0 -5 -18 -10 -40 -10 -22
0 -40 -4 -40 -10 0 -5 -13 -10 -30 -10 -16 0 -30 5 -30 10 0 6 5 10 10 10 6 0
10 9 10 20 0 11 5 20 10 20 6 0 10 8 10 18 0 10 9 24 20 32 11 8 20 21 20 30
0 9 9 22 20 30 11 8 20 20 20 28 0 7 32 44 70 82 39 38 70 75 70 82 0 8 9 20
20 28 11 8 20 22 20 32 0 10 5 18 10 18 6 0 10 14 10 30 0 17 5 30 10 30 6 0
10 14 10 30 0 17 5 30 10 30 6 0 10 14 10 30 0 17 5 30 10 30 6 0 10 18 10 40
0 22 5 40 10 40 6 0 10 18 10 40 0 22 5 40 10 40 6 0 10 25 10 55 0 31 6 62
13 70 14 16 67 20 67 5z m340 -1180 c0 -147 4 -230 10 -230 6 0 10 -67 10
-180 0 -113 4 -180 10 -180 6 0 10 -50 10 -129 0 -94 3 -130 12 -133 9 -3 8
-9 -4 -21 -18 -18 -68 -23 -68 -7 0 6 -18 10 -40 10 -22 0 -40 5 -40 10 0 6
-13 10 -30 10 -16 0 -30 5 -30 10 0 6 -9 10 -20 10 -11 0 -20 5 -20 10 0 6 -9
10 -20 10 -11 0 -20 5 -20 10 0 6 -9 10 -20 10 -11 0 -20 5 -20 10 0 6 -8 10
-18 10 -10 0 -24 9 -32 20 -8 11 -20 20 -27 20 -16 0 -223 205 -223 221 0 6
-13 24 -30 39 -16 15 -30 34 -30 42 0 7 -9 20 -20 28 -11 8 -20 21 -20 30 0 9
-9 22 -20 30 -11 8 -20 22 -20 32 0 10 -4 18 -10 18 -5 0 -10 9 -10 20 0 11
-4 20 -10 20 -5 0 -10 9 -10 20 0 11 -4 20 -10 20 -5 0 -10 8 -10 18 0 10 -9
24 -20 32 -11 8 -20 22 -20 32 0 10 -4 18 -10 18 -5 0 -10 14 -10 30 0 17 -4
30 -10 30 -5 0 -10 9 -10 20 0 11 -4 20 -10 20 -5 0 -10 9 -10 20 0 11 -4 20
-10 20 -5 0 -10 18 -10 40 0 38 2 40 30 40 17 0 30 5 30 10 0 6 18 10 40 10
22 0 40 5 40 10 0 6 23 10 50 10 28 0 50 5 50 10 0 6 23 10 50 10 28 0 50 5
50 10 0 6 27 10 60 10 33 0 60 4 60 10 0 6 37 10 90 10 53 0 90 4 90 10 0 6
50 10 130 10 l130 0 0 -230z m420 220 c0 -6 37 -10 90 -10 53 0 90 -4 90 -10
0 -6 27 -10 60 -10 33 0 60 -4 60 -10 0 -5 18 -10 40 -10 22 0 40 -4 40 -10 0
-5 18 -10 40 -10 22 0 40 -4 40 -10 0 -5 23 -10 50 -10 28 0 50 -4 50 -10 0
-5 12 -10 26 -10 14 0 32 -6 40 -14 16 -17 19 -46 4 -46 -5 0 -10 -9 -10 -20
0 -11 -4 -20 -10 -20 -5 0 -10 -13 -10 -30 0 -16 -4 -30 -10 -30 -5 0 -10 -9
-10 -20 0 -11 -4 -20 -10 -20 -5 0 -10 -9 -10 -20 0 -11 -4 -20 -10 -20 -5 0
-10 -9 -10 -20 0 -11 -4 -20 -10 -20 -5 0 -10 -9 -10 -20 0 -11 -4 -20 -10
-20 -5 0 -10 -9 -10 -20 0 -11 -4 -20 -10 -20 -5 0 -10 -9 -10 -20 0 -11 -4
-20 -10 -20 -5 0 -10 -9 -10 -20 0 -11 -4 -20 -10 -20 -5 0 -10 -8 -10 -18 0
-10 -9 -24 -20 -32 -11 -8 -20 -21 -20 -30 0 -9 -9 -22 -20 -30 -11 -8 -20
-21 -20 -30 0 -9 -9 -22 -20 -30 -11 -8 -20 -20 -20 -27 0 -18 -267 -283 -285
-283 -8 0 -15 -4 -15 -10 0 -5 -9 -10 -20 -10 -11 0 -20 -4 -20 -10 0 -5 -9
-10 -20 -10 -11 0 -20 -4 -20 -10 0 -5 -9 -10 -20 -10 -11 0 -20 -4 -20 -10 0
-6 -40 -10 -100 -10 l-100 0 0 190 c0 120 4 190 10 190 6 0 10 130 10 370 l0
370 140 0 c87 0 140 -4 140 -10z m800 -180 c0 -5 14 -10 30 -10 17 0 30 -4 30
-10 0 -5 14 -10 30 -10 17 0 30 -4 30 -10 0 -5 14 -10 30 -10 17 0 30 -4 30
-10 0 -5 9 -10 20 -10 11 0 20 -4 20 -10 0 -5 14 -10 30 -10 17 0 30 -4 30
-10 0 -5 9 -10 20 -10 11 0 20 -4 20 -10 0 -5 9 -10 20 -10 11 0 20 -4 20 -10
0 -5 9 -10 20 -10 11 0 20 -4 20 -10 0 -5 9 -10 20 -10 11 0 20 -4 20 -10 0
-5 14 -10 30 -10 17 0 30 -4 30 -10 0 -5 9 -10 20 -10 11 0 20 -4 20 -10 0 -5
8 -10 18 -10 10 0 24 -9 32 -20 8 -11 22 -20 32 -20 10 0 18 -7 18 -15 0 -18
-84 -105 -101 -105 -6 0 -24 -13 -39 -30 -15 -16 -34 -30 -42 -30 -7 0 -20 -9
-28 -20 -8 -11 -21 -20 -30 -20 -9 0 -22 -9 -30 -20 -8 -11 -21 -20 -30 -20
-9 0 -22 -9 -30 -20 -8 -11 -21 -20 -30 -20 -9 0 -22 -9 -30 -20 -8 -11 -22
-20 -32 -20 -10 0 -18 -4 -18 -10 0 -5 -9 -10 -20 -10 -11 0 -20 -4 -20 -10 0
-5 -9 -10 -20 -10 -11 0 -20 -4 -20 -10 0 -5 -9 -10 -20 -10 -11 0 -20 -4 -20
-10 0 -5 -9 -10 -20 -10 -11 0 -20 -4 -20 -10 0 -5 -9 -10 -20 -10 -11 0 -20
-4 -20 -10 0 -5 -9 -10 -20 -10 -11 0 -20 -4 -20 -10 0 -5 -9 -10 -20 -10 -11
0 -20 -4 -20 -10 0 -5 -13 -10 -30 -10 -16 0 -30 -4 -30 -10 0 -5 -13 -10 -30
-10 -16 0 -30 -4 -30 -10 0 -5 -13 -10 -30 -10 -16 0 -30 -4 -30 -10 0 -5 -13
-10 -30 -10 -16 0 -30 -4 -30 -10 0 -5 -13 -10 -30 -10 -16 0 -30 -4 -30 -10
0 -5 -18 -10 -40 -10 -22 0 -40 -4 -40 -10 0 -5 -18 -10 -40 -10 -22 0 -40 -4
-40 -10 0 -5 -18 -10 -40 -10 -22 0 -40 3 -40 6 0 10 28 34 39 34 15 0 181
166 181 181 0 6 14 24 30 39 17 15 30 34 30 42 0 7 9 20 20 28 11 8 20 21 20
30 0 9 9 22 20 30 11 8 20 22 20 32 0 10 5 18 10 18 6 0 10 8 10 18 0 10 9 24
20 32 11 8 20 22 20 32 0 10 5 18 10 18 6 0 10 9 10 20 0 11 5 20 10 20 6 0
10 9 10 20 0 11 5 20 10 20 6 0 10 9 10 20 0 11 5 20 10 20 6 0 10 9 10 20 0
11 5 20 10 20 6 0 10 9 10 20 0 11 5 20 10 20 6 0 10 14 10 30 0 17 5 30 10
30 6 0 10 9 10 20 0 11 5 20 10 20 6 0 10 11 10 25 0 25 17 54 33 55 4 0 7 -4
7 -10z m-2340 -110 c0 -60 4 -100 10 -100 6 0 10 -13 10 -30 0 -16 5 -30 10
-30 6 0 10 -9 10 -20 0 -11 5 -20 10 -20 6 0 10 -4 10 -10 0 -5 -7 -10 -15
-10 -18 0 -205 184 -205 201 0 6 -9 20 -21 30 -19 16 -20 20 -6 34 9 8 23 15
31 15 9 0 16 5 16 10 0 6 14 10 30 10 17 0 30 5 30 10 0 6 18 10 40 10 l40 0
0 -100z m-340 -18 c0 -10 9 -24 20 -32 11 -8 20 -21 20 -28 0 -7 18 -31 40
-52 22 -21 40 -43 40 -50 0 -14 66 -80 81 -80 6 0 24 -13 39 -30 15 -16 35
-30 44 -30 9 0 16 -4 16 -10 0 -5 9 -10 20 -10 11 0 20 -4 20 -10 0 -5 9 -10
20 -10 11 0 20 -4 20 -10 0 -6 33 -10 80 -10 47 0 80 4 80 10 0 6 9 10 20 10
16 0 20 7 20 30 0 17 5 30 10 30 6 0 10 -9 10 -20 0 -11 5 -20 10 -20 6 0 10
-8 10 -18 0 -10 9 -24 20 -32 11 -8 20 -21 20 -30 0 -9 9 -22 20 -30 11 -8 20
-21 20 -30 0 -9 9 -22 20 -30 11 -8 20 -20 20 -28 0 -7 23 -35 50 -62 28 -27
50 -56 50 -64 0 -9 9 -16 20 -16 13 0 20 -7 20 -20 0 -11 -4 -20 -10 -20 -5 0
-10 5 -10 10 0 6 -13 10 -30 10 -16 0 -30 5 -30 10 0 6 -13 10 -30 10 -16 0
-30 5 -30 10 0 6 -13 10 -30 10 -16 0 -30 5 -30 10 0 6 -9 10 -20 10 -11 0
-20 5 -20 10 0 6 -13 10 -30 10 -16 0 -30 5 -30 10 0 6 -13 10 -30 10 -16 0
-30 5 -30 10 0 6 -9 10 -20 10 -11 0 -20 5 -20 10 0 6 -13 10 -30 10 -16 0
-30 5 -30 10 0 6 -9 10 -20 10 -11 0 -20 5 -20 10 0 6 -9 10 -20 10 -11 0 -20
5 -20 10 0 6 -13 10 -30 10 -16 0 -30 5 -30 10 0 6 -9 10 -20 10 -11 0 -20 5
-20 10 0 6 -9 10 -20 10 -11 0 -20 5 -20 10 0 6 -9 10 -20 10 -11 0 -20 5 -20
10 0 6 -9 10 -20 10 -11 0 -20 5 -20 10 0 6 -13 10 -30 10 -16 0 -30 5 -30 10
0 6 -9 10 -20 10 -11 0 -20 5 -20 10 0 6 -8 10 -18 10 -10 0 -24 9 -32 20 -8
11 -22 20 -32 20 -10 0 -18 5 -18 10 0 6 -9 10 -20 10 -11 0 -20 5 -20 10 0 6
-9 10 -20 10 -11 0 -20 5 -20 10 0 6 -8 10 -18 10 -10 0 -24 9 -32 20 -8 11
-21 20 -30 20 -9 0 -22 9 -30 20 -8 11 -22 20 -32 20 -10 0 -18 7 -18 16 0 23
25 44 54 44 14 0 26 5 26 10 0 6 9 10 20 10 11 0 20 5 20 10 0 6 9 10 20 10
11 0 20 5 20 10 0 6 9 10 20 10 11 0 20 5 20 10 0 6 14 10 30 10 17 0 30 5 30
10 0 6 9 10 20 10 11 0 20 5 20 10 0 6 5 10 10 10 6 0 10 -8 10 -18z"/>
<path d="M6780 2410 c0 -5 -9 -10 -20 -10 -11 0 -20 -4 -20 -10 0 -5 -7 -10
-16 -10 -18 0 -44 -24 -44 -40 0 -7 -13 -25 -30 -40 -16 -15 -30 -34 -30 -42
0 -7 -9 -20 -20 -28 -11 -8 -20 -22 -20 -32 0 -10 -4 -18 -10 -18 -5 0 -10
-13 -10 -30 0 -16 -4 -30 -10 -30 -5 0 -10 -18 -10 -39 0 -22 -6 -42 -12 -45
-10 -5 -10 -7 0 -12 6 -3 12 -17 12 -31 0 -31 22 -53 53 -53 14 0 28 -6 31
-12 5 -10 7 -10 12 0 3 6 12 12 20 12 19 0 124 105 124 125 0 8 5 15 10 15 6
0 10 9 10 20 0 11 5 20 10 20 6 0 10 9 10 20 0 11 5 20 10 20 6 0 10 9 10 20
0 11 5 20 10 20 6 0 10 14 10 30 0 17 5 30 10 30 6 0 10 23 10 50 0 28 -4 50
-10 50 -5 0 -10 9 -10 20 0 13 -7 20 -20 20 -11 0 -20 5 -20 10 0 6 -9 10 -20
10 -11 0 -20 -4 -20 -10z"/>
<path d="M1860 6350 c0 -5 -7 -10 -15 -10 -9 0 -31 -16 -50 -35 -31 -30 -35
-40 -35 -85 0 -69 13 -80 92 -80 52 0 66 4 78 20 8 11 22 20 32 20 11 0 18 7
18 20 0 11 5 20 10 20 6 0 10 21 10 46 0 47 -16 74 -44 74 -9 0 -16 5 -16 10
0 6 -18 10 -40 10 -22 0 -40 -4 -40 -10z"/>
<path d="M1240 5770 c0 -5 -7 -10 -15 -10 -20 0 -85 -65 -85 -85 0 -8 -4 -15
-10 -15 -6 0 -10 -32 -10 -75 0 -73 1 -77 35 -110 32 -33 38 -35 100 -35 37 0
65 4 65 10 0 6 7 10 15 10 26 0 105 86 105 115 0 14 5 25 10 25 6 0 10 18 10
40 0 22 -4 40 -10 40 -5 0 -10 12 -10 26 0 29 -21 54 -44 54 -9 0 -16 5 -16
10 0 6 -30 10 -70 10 -40 0 -70 -4 -70 -10z"/>
<path d="M7180 1250 c0 -5 -9 -10 -20 -10 -13 0 -20 -7 -20 -20 0 -11 -4 -20
-10 -20 -5 0 -10 -22 -10 -50 0 -27 5 -50 10 -50 6 0 10 -7 10 -16 0 -23 25
-44 54 -44 14 0 26 -4 26 -10 0 -5 9 -10 20 -10 11 0 20 5 20 10 0 6 18 10 40
10 22 0 40 5 40 10 0 6 7 10 16 10 20 0 44 24 44 44 0 9 5 16 10 16 6 0 10 7
10 15 0 20 -85 105 -105 105 -8 0 -15 5 -15 10 0 6 -27 10 -60 10 -33 0 -60
-4 -60 -10z"/>
<path d="M6680 750 c0 -5 -9 -10 -20 -10 -13 0 -20 -7 -20 -20 0 -11 -4 -20
-10 -20 -6 0 -10 -27 -10 -60 0 -33 4 -60 10 -60 6 0 10 -11 10 -25 0 -29 40
-75 65 -75 8 0 15 -4 15 -10 0 -5 16 -10 35 -10 53 0 85 36 85 95 0 25 5 45
10 45 6 0 10 9 10 20 0 11 -4 20 -10 20 -5 0 -10 14 -10 30 0 17 -4 30 -10 30
-5 0 -10 9 -10 20 0 13 -7 20 -20 20 -11 0 -20 5 -20 10 0 6 -22 10 -50 10
-27 0 -50 -4 -50 -10z"/>
</g>
</svg>
