<svg xmlns="http://www.w3.org/2000/svg" viewBox="0 0 848.000000 610.000000" fill="currentColor" aria-hidden="true">
<g transform="translate(-104.000000,678.000000) scale(0.100000,-0.100000)" fill="currentColor" stroke="none">
<path d="M4300 6750 c0 -16 5 -30 10 -30 6 0 10 -18 10 -40 0 -22 5 -40 10
-40 6 0 10 -18 10 -40 0 -22 5 -40 10 -40 6 0 10 -13 10 -30 0 -16 5 -30 10
-30 6 0 10 -18 10 -40 0 -22 5 -40 10 -40 6 0 10 -26 10 -59 0 -38 5 -61 13
-65 10 -5 10 -7 0 -12 -9 -4 -13 -29 -13 -75 0 -39 -4 -69 -10 -69 -5 0 -10
-13 -10 -30 0 -16 -4 -30 -10 -30 -5 0 -10 -9 -10 -20 0 -11 -4 -20 -10 -20
-5 0 -10 -13 -10 -30 0 -16 -4 -30 -10 -30 -5 0 -10 -18 -10 -39 0 -22 -6 -42
-12 -45 -10 -5 -10 -7 0 -12 6 -3 12 -21 12 -41 0 -19 6 -41 14 -49 16 -16 86
-19 86 -4 0 6 7 10 16 10 19 0 44 24 44 42 0 8 9 20 20 28 11 8 20 22 20 32 0
10 5 18 10 18 6 0 10 9 10 20 0 11 5 20 10 20 6 0 10 9 10 20 0 11 5 20 10 20
6 0 10 14 10 30 0 17 5 30 10 30 6 0 10 23 10 50 0 28 5 50 10 50 6 0 10 27
10 60 0 33 -4 60 -10 60 -5 0 -10 23 -10 50 0 28 -4 50 -10 50 -5 0 -10 14
-10 30 0 17 -4 30 -10 30 -5 0 -10 14 -10 30 0 17 -4 30 -10 30 -5 0 -10 8
-10 18 0 10 -9 24 -20 32 -11 8 -20 20 -20 28 0 7 -22 35 -50 62 -27 27 -50
55 -50 62 0 8 -9 20 -20 28 -11 8 -20 22 -20 32 0 13 -8 18 -30 18 -27 0 -30
-3 -30 -30z"/>
<path d="M4993 6645 c-15 -17 -18 -145 -3 -145 6 0 10 -18 10 -40 0 -22 5 -40
10 -40 6 0 10 -47 10 -120 0 -73 -4 -120 -10 -120 -6 0 -10 -27 -10 -60 0 -33
-4 -60 -10 -60 -5 0 -10 -13 -10 -30 0 -16 -4 -30 -10 -30 -5 0 -10 -13 -10
-30 0 -16 -4 -30 -10 -30 -5 0 -10 -9 -10 -20 0 -11 -4 -20 -10 -20 -5 0 -10
-13 -10 -30 0 -16 -4 -30 -10 -30 -5 0 -10 -8 -10 -18 0 -10 -9 -24 -20 -32
-11 -8 -20 -22 -20 -32 0 -10 -4 -18 -10 -18 -5 0 -10 -8 -10 -18 0 -10 -9
-24 -20 -32 -11 -8 -20 -21 -20 -30 0 -9 -9 -22 -20 -30 -11 -8 -20 -21 -20
-28 0 -8 -13 -27 -30 -42 -16 -15 -30 -33 -30 -40 0 -6 -18 -29 -40 -50 -22
-21 -40 -44 -40 -50 0 -6 -18 -29 -40 -50 -22 -21 -40 -44 -40 -50 0 -6 -22
-33 -50 -60 -27 -27 -50 -54 -50 -60 0 -6 -18 -29 -40 -50 -22 -21 -40 -44
-40 -50 0 -7 -13 -25 -30 -40 -16 -15 -30 -33 -30 -40 0 -7 -13 -25 -30 -40
-16 -15 -30 -34 -30 -42 0 -7 -9 -20 -20 -28 -11 -8 -20 -22 -20 -32 0 -10 -4
-18 -10 -18 -5 0 -10 -8 -10 -18 0 -10 -9 -24 -20 -32 -11 -8 -20 -22 -20 -32
0 -10 -4 -18 -10 -18 -5 0 -10 -9 -10 -20 0 -11 -4 -20 -10 -20 -5 0 -10 -9
-10 -20 0 -11 -4 -20 -10 -20 -5 0 -10 -13 -10 -30 0 -16 -4 -30 -10 -30 -5 0
-10 -13 -10 -30 0 -16 -4 -30 -10 -30 -5 0 -10 -18 -10 -40 0 -22 -4 -40 -10
-40 -6 0 -10 -27 -10 -60 0 -33 -4 -60 -10 -60 -6 0 -10 -33 -10 -80 0 -47 4
-80 10 -80 6 0 10 -27 10 -60 0 -33 4 -60 10 -60 6 0 10 -18 10 -40 0 -22 5
-40 10 -40 6 0 10 -13 10 -30 0 -16 5 -30 10 -30 6 0 10 -9 10 -20 0 -11 5
-20 10 -20 6 0 10 -9 10 -20 0 -11 5 -20 10 -20 6 0 10 -9 10 -20 0 -11 5 -20
10 -20 6 0 10 -9 10 -20 0 -11 5 -20 10 -20 6 0 10 -7 10 -16 0 -9 14 -29 30
-44 17 -15 30 -33 30 -39 0 -16 167 -181 183 -181 7 0 19 -9 27 -20 8 -11 21
-20 30 -20 9 0 22 -9 30 -20 8 -11 22 -20 32 -20 10 0 18 -4 18 -10 0 -5 9
-10 20 -10 11 0 20 -4 20 -10 0 -5 9 -10 20 -10 11 0 20 -4 20 -10 0 -5 9 -10
20 -10 11 0 20 -4 20 -10 0 -5 14 -10 30 -10 17 0 30 -4 30 -10 0 -5 14 -10
30 -10 17 0 30 -4 30 -10 0 -5 18 -10 40 -10 22 0 40 -4 40 -10 0 -5 20 -10
45 -10 36 0 52 6 73 27 17 17 22 28 14 31 -7 2 -12 10 -12 19 0 8 -18 32 -40
53 -22 21 -40 45 -40 52 0 7 -9 20 -20 28 -11 8 -20 22 -20 32 0 10 -4 18 -10
18 -5 0 -10 9 -10 20 0 11 -4 20 -10 20 -5 0 -10 9 -10 20 0 11 -4 20 -10 20
-5 0 -10 14 -10 30 0 17 -4 30 -10 30 -6 0 -10 30 -10 70 0 40 -4 70 -10 70
-5 0 -10 14 -10 30 0 17 5 30 10 30 6 0 10 33 10 80 0 47 4 80 10 80 6 0 10
14 10 30 0 17 5 30 10 30 6 0 10 14 10 30 0 17 5 30 10 30 6 0 10 9 10 20 0
11 5 20 10 20 6 0 10 9 10 20 0 11 5 20 10 20 6 0 10 9 10 20 0 11 5 20 10 20
6 0 10 8 10 18 0 10 9 24 20 32 11 8 20 22 20 32 0 10 5 18 10 18 6 0 10 8 10
18 0 10 9 24 20 32 11 8 20 21 20 28 0 8 14 27 30 42 17 15 30 35 30 44 0 9 5
16 10 16 6 0 10 9 10 20 0 13 7 20 20 20 19 0 20 -7 20 -120 0 -73 4 -120 10
-120 6 0 10 -18 10 -40 0 -22 5 -40 10 -40 6 0 10 -18 10 -40 0 -22 5 -40 10
-40 6 0 10 -9 10 -20 0 -11 5 -20 10 -20 6 0 10 -9 10 -20 0 -11 5 -20 10 -20
6 0 10 -9 10 -20 0 -11 5 -20 10 -20 6 0 10 -9 10 -20 0 -11 5 -20 10 -20 6 0
10 -7 10 -16 0 -9 14 -29 30 -44 17 -15 30 -33 30 -39 0 -16 66 -81 82 -81 8
0 20 -9 28 -20 8 -12 26 -20 42 -20 15 0 28 -4 28 -10 0 -6 30 -10 70 -10 40
0 70 4 70 10 0 6 14 10 30 10 17 0 30 5 30 10 0 6 7 10 15 10 9 0 47 32 86 71
61 62 71 69 84 55 18 -17 22 -186 5 -186 -5 0 -10 -18 -10 -40 0 -22 -4 -40
-10 -40 -5 0 -10 -13 -10 -30 0 -16 -4 -30 -10 -30 -5 0 -10 -13 -10 -30 0
-16 -4 -30 -10 -30 -5 0 -10 -9 -10 -20 0 -11 -4 -20 -10 -20 -5 0 -10 -8 -10
-18 0 -10 -9 -24 -20 -32 -11 -8 -20 -22 -20 -32 0 -10 -4 -18 -10 -18 -5 0
-10 -8 -10 -18 0 -10 -9 -24 -20 -32 -23 -17 -26 -55 -6 -76 17 -16 146 -20
146 -4 0 6 14 10 30 10 17 0 30 5 30 10 0 6 14 10 30 10 17 0 30 5 30 10 0 6
9 10 20 10 11 0 20 5 20 10 0 6 8 10 18 10 10 0 24 9 32 20 8 11 22 20 32 20
10 0 18 5 18 10 0 6 7 10 16 10 8 0 33 18 54 40 21 22 43 40 49 40 15 0 121
106 121 121 0 6 14 24 30 39 17 15 30 34 30 42 0 7 9 20 20 28 11 8 20 22 20
32 0 10 5 18 10 18 6 0 10 8 10 18 0 10 9 24 20 32 12 8 20 26 20 42 0 15 5
28 10 28 6 0 10 9 10 20 0 11 5 20 10 20 6 0 10 14 10 30 0 17 5 30 10 30 6 0
10 18 10 40 0 22 5 40 10 40 6 0 10 23 10 50 0 28 5 50 10 50 6 0 10 70 10
190 0 120 -4 190 -10 190 -5 0 -10 23 -10 50 0 28 -4 50 -10 50 -5 0 -10 18
-10 40 0 22 -4 40 -10 40 -5 0 -10 18 -10 40 0 22 -4 40 -10 40 -5 0 -10 9
-10 20 0 11 -4 20 -10 20 -5 0 -10 14 -10 30 0 17 -4 30 -10 30 -5 0 -10 9
-10 20 0 11 -4 20 -10 20 -5 0 -10 9 -10 20 0 11 -4 20 -10 20 -5 0 -10 9 -10
20 0 11 -4 20 -10 20 -5 0 -10 9 -10 20 0 11 -4 20 -10 20 -5 0 -10 8 -10 18
0 10 -9 24 -20 32 -11 8 -20 22 -20 32 0 10 -4 18 -10 18 -5 0 -10 8 -10 18 0
10 -9 24 -20 32 -11 8 -20 21 -20 30 0 9 -9 22 -20 30 -11 8 -20 20 -20 27 0
8 -25 38 -55 68 -45 46 -60 55 -90 55 -19 0 -35 -4 -35 -10 0 -5 -9 -10 -20
-10 -13 0 -20 -7 -20 -20 0 -11 -4 -20 -10 -20 -6 0 -10 -33 -10 -80 0 -47 -4
-80 -10 -80 -5 0 -10 -18 -10 -40 0 -22 -4 -40 -10 -40 -5 0 -10 -13 -10 -30
0 -16 -4 -30 -10 -30 -5 0 -10 -9 -10 -20 0 -11 -4 -20 -10 -20 -5 0 -10 -7
-10 -15 0 -14 -102 -125 -115 -125 -3 0 -5 32 -5 70 0 40 4 70 10 70 6 0 10
80 10 220 0 140 -4 220 -10 220 -6 0 -10 27 -10 60 0 33 -4 60 -10 60 -5 0
-10 18 -10 40 0 22 -4 40 -10 40 -5 0 -10 18 -10 40 0 22 -4 40 -10 40 -5 0
-10 14 -10 30 0 17 -4 30 -10 30 -5 0 -10 9 -10 20 0 11 -4 20 -10 20 -5 0
-10 9 -10 20 0 11 -4 20 -10 20 -5 0 -10 9 -10 20 0 11 -4 20 -10 20 -5 0 -10
9 -10 20 0 11 -4 20 -10 20 -5 0 -10 9 -10 20 0 11 -4 20 -10 20 -5 0 -10 9
-10 20 0 11 -4 20 -10 20 -5 0 -10 8 -10 18 0 10 -9 24 -20 32 -11 8 -20 21
-20 30 0 9 -9 22 -20 30 -11 8 -20 21 -20 28 0 7 -18 31 -40 52 -22 21 -40 43
-40 49 0 15 -166 181 -181 181 -6 0 -24 14 -39 30 -15 17 -34 30 -42 30 -7 0
-20 9 -28 20 -8 11 -21 20 -30 20 -9 0 -22 9 -30 20 -8 11 -22 20 -32 20 -10
0 -18 5 -18 10 0 15 -73 11 -87 -5z m282 -390 c36 -35 65 -70 65 -76 0 -6 14
-24 30 -39 17 -15 30 -34 30 -42 0 -7 9 -20 20 -28 11 -8 20 -21 20 -30 0 -9
9 -22 20 -30 11 -8 20 -22 20 -32 0 -10 5 -18 10 -18 6 0 10 -9 10 -20 0 -11
5 -20 10 -20 6 0 10 -9 10 -20 0 -11 5 -20 10 -20 6 0 10 -9 10 -20 0 -11 5
-20 10 -20 6 0 10 -13 10 -30 0 -16 5 -30 10 -30 6 0 10 -9 10 -20 0 -11 5
-20 10 -20 6 0 10 -18 10 -40 0 -22 5 -40 10 -40 6 0 10 -18 10 -40 0 -22 5
-40 10 -40 6 0 10 -30 10 -70 0 -40 4 -70 10 -70 6 0 10 -53 10 -140 0 -87 -4
-140 -10 -140 -6 0 -10 -33 -10 -80 0 -47 -4 -80 -10 -80 -6 0 -10 -27 -10
-60 0 -33 -4 -60 -10 -60 -6 0 -10 -38 -10 -95 0 -88 2 -98 25 -120 21 -22 33
-25 90 -25 37 0 65 4 65 10 0 6 9 10 20 10 11 0 20 5 20 10 0 6 9 10 20 10 11
0 20 5 20 10 0 6 8 10 18 10 10 0 24 9 32 20 8 11 20 20 27 20 19 0 163 146
163 165 0 8 5 15 10 15 6 0 10 9 10 20 0 11 5 20 10 20 6 0 10 9 10 20 0 11 5
20 10 20 6 0 10 14 10 30 0 17 5 30 10 30 6 0 10 9 10 20 0 11 5 20 10 20 6 0
10 -9 10 -20 0 -11 5 -20 10 -20 6 0 10 -8 10 -18 0 -10 9 -24 20 -32 11 -8
20 -22 20 -32 0 -10 5 -18 10 -18 6 0 10 -9 10 -20 0 -11 5 -20 10 -20 6 0 10
-9 10 -20 0 -11 5 -20 10 -20 6 0 10 -13 10 -30 0 -16 5 -30 10 -30 6 0 10 -9
10 -20 0 -11 5 -20 10 -20 6 0 10 -13 10 -30 0 -16 5 -30 10 -30 6 0 10 -18
10 -40 0 -22 5 -40 10 -40 6 0 10 -22 10 -50 0 -27 5 -50 10 -50 6 0 10 -60
10 -160 0 -100 -4 -160 -10 -160 -5 0 -10 -22 -10 -50 0 -27 -4 -50 -10 -50
-5 0 -10 -13 -10 -30 0 -16 -4 -30 -10 -30 -5 0 -10 -9 -10 -20 0 -11 -4 -20
-10 -20 -5 0 -10 -13 -10 -30 0 -16 -4 -30 -10 -30 -5 0 -10 -8 -10 -18 0 -10
-9 -24 -20 -32 -11 -8 -20 -21 -20 -30 0 -9 -9 -22 -20 -30 -11 -8 -20 -20
-20 -27 0 -12 -203 -223 -215 -223 -3 0 -5 18 -5 40 0 22 5 40 10 40 6 0 10
57 10 150 0 93 -4 150 -10 150 -5 0 -10 18 -10 40 0 22 -4 40 -10 40 -5 0 -10
14 -10 30 0 17 -4 30 -10 30 -5 0 -10 9 -10 20 0 11 -4 20 -10 20 -5 0 -10 7
-10 15 0 18 -64 85 -80 85 -16 0 -60 -47 -60 -65 0 -8 -4 -15 -10 -15 -5 0
-10 -13 -10 -30 0 -16 -4 -30 -10 -30 -5 0 -10 -8 -10 -18 0 -10 -9 -24 -20
-32 -11 -8 -20 -20 -20 -28 0 -17 -45 -62 -62 -62 -8 0 -20 -9 -28 -20 -11
-15 -26 -20 -57 -20 -40 0 -49 5 -108 65 -36 35 -65 71 -65 80 0 8 -4 15 -10
15 -5 0 -10 9 -10 20 0 11 -4 20 -10 20 -5 0 -10 9 -10 20 0 11 -4 20 -10 20
-5 0 -10 9 -10 20 0 11 -4 20 -10 20 -5 0 -10 14 -10 30 0 17 -4 30 -10 30 -5
0 -10 18 -10 40 0 22 -4 40 -10 40 -6 0 -10 37 -10 90 0 53 -4 90 -10 90 -6 0
-10 43 -10 110 0 67 -4 110 -10 110 -5 0 -10 14 -10 30 0 17 -4 30 -10 30 -5
0 -10 9 -10 20 0 11 -4 20 -10 20 -5 0 -10 7 -10 16 0 25 -26 44 -60 44 -34 0
-60 -19 -60 -44 0 -9 -4 -16 -10 -16 -5 0 -10 -9 -10 -20 0 -11 -4 -20 -10
-20 -5 0 -10 -9 -10 -20 0 -11 -4 -20 -10 -20 -5 0 -10 -8 -10 -18 0 -10 -9
-24 -20 -32 -11 -8 -20 -21 -20 -28 0 -8 -13 -27 -30 -42 -16 -15 -30 -34 -30
-42 0 -7 -9 -20 -20 -28 -11 -8 -20 -21 -20 -30 0 -9 -9 -22 -20 -30 -11 -8
-20 -21 -20 -30 0 -9 -9 -22 -20 -30 -11 -8 -20 -21 -20 -30 0 -9 -9 -22 -20
-30 -11 -8 -20 -22 -20 -32 0 -10 -4 -18 -10 -18 -5 0 -10 -9 -10 -20 0 -11
-4 -20 -10 -20 -5 0 -10 -9 -10 -20 0 -11 -4 -20 -10 -20 -5 0 -10 -9 -10 -20
0 -11 -4 -20 -10 -20 -5 0 -10 -13 -10 -30 0 -16 -4 -30 -10 -30 -5 0 -10 -18
-10 -40 0 -22 -4 -40 -10 -40 -5 0 -10 -22 -10 -50 0 -27 -4 -50 -10 -50 -6 0
-10 -43 -10 -110 0 -67 4 -110 10 -110 6 0 10 -27 10 -60 0 -33 4 -60 10 -60
6 0 10 -13 10 -30 0 -16 5 -30 10 -30 6 0 10 -9 10 -20 0 -11 5 -20 10 -20 6
0 10 -9 10 -20 0 -11 5 -20 10 -20 6 0 10 -4 10 -10 0 -18 -35 -11 -50 10 -8
11 -22 20 -32 20 -10 0 -18 5 -18 10 0 6 -7 10 -16 10 -9 0 -29 14 -44 30 -15
17 -33 30 -39 30 -15 0 -141 126 -141 141 0 6 -13 24 -30 39 -16 15 -30 35
-30 44 0 9 -4 16 -10 16 -5 0 -10 9 -10 20 0 11 -4 20 -10 20 -5 0 -10 9 -10
20 0 11 -4 20 -10 20 -5 0 -10 9 -10 20 0 11 -4 20 -10 20 -5 0 -10 14 -10 30
0 17 -4 30 -10 30 -5 0 -10 14 -10 30 0 17 -4 30 -10 30 -6 0 -10 63 -10 170
0 107 4 170 10 170 6 0 10 14 10 30 0 17 5 30 10 30 6 0 10 14 10 30 0 17 5
30 10 30 6 0 10 9 10 20 0 11 5 20 10 20 6 0 10 9 10 20 0 11 5 20 10 20 6 0
10 9 10 20 0 11 5 20 10 20 6 0 10 8 10 18 0 10 9 24 20 32 11 8 20 22 20 32
0 10 5 18 10 18 6 0 10 7 10 16 0 9 14 29 30 44 17 15 30 33 30 40 0 7 14 25
30 40 17 15 30 33 30 40 0 6 18 29 40 50 22 21 40 44 40 50 0 6 18 29 40 50
22 21 40 44 40 50 0 6 18 29 40 50 22 21 40 44 40 50 0 6 18 29 40 50 22 21
40 45 40 52 0 7 9 20 20 28 11 8 20 21 20 28 0 8 14 27 30 42 17 15 30 34 30
42 0 7 9 20 20 28 11 8 20 22 20 32 0 10 5 18 10 18 6 0 10 8 10 18 0 10 9 24
20 32 11 8 20 22 20 32 0 10 5 18 10 18 6 0 10 9 10 20 0 11 5 20 10 20 6 0
10 9 10 20 0 11 5 20 10 20 6 0 10 9 10 20 0 11 5 20 10 20 6 0 10 9 10 20 0
11 5 20 10 20 6 0 10 14 10 30 0 17 5 30 10 30 6 0 10 18 10 40 0 22 5 40 10
40 6 0 10 18 10 40 0 22 5 40 10 40 6 0 10 50 10 130 0 72 2 130 5 130 3 0 35
-29 70 -65z"/>
<path d="M7130 5980 c-8 -11 -20 -20 -28 -20 -7 0 -28 -16 -47 -35 -19 -19
-35 -40 -35 -47 0 -8 -9 -20 -20 -28 -11 -8 -20 -21 -20 -30 0 -9 -9 -22 -20
-30 -11 -8 -20 -22 -20 -32 0 -10 -4 -18 -10 -18 -5 0 -10 -9 -10 -20 0 -11
-4 -20 -10 -20 -5 0 -10 -9 -10 -20 0 -11 -4 -20 -10 -20 -5 0 -10 -13 -10
-30 0 -16 -4 -30 -10 -30 -5 0 -10 -13 -10 -30 0 -16 -4 -30 -10 -30 -5 0 -10
-13 -10 -30 0 -16 5 -30 10 -30 6 0 10 -9 10 -20 0 -16 7 -20 38 -20 26 0 42
6 52 20 8 11 20 20 28 20 16 0 82 65 82 81 0 6 14 24 30 39 17 15 30 34 30 42
0 7 9 20 20 28 11 8 20 22 20 32 0 10 5 18 10 18 6 0 10 9 10 20 0 11 5 20 10
20 6 0 10 9 10 20 0 11 5 20 10 20 6 0 10 9 10 20 0 11 5 20 10 20 6 0 10 14
10 30 0 17 5 30 10 30 15 0 12 70 -4 86 -23 22 -99 18 -116 -6z"/>
<path d="M7260 5010 c0 -5 -7 -10 -15 -10 -20 0 -105 -85 -105 -105 0 -8 -4
-15 -10 -15 -5 0 -10 -9 -10 -20 0 -11 5 -20 10 -20 6 0 10 -9 10 -20 0 -17 7
-20 45 -20 42 0 50 5 100 55 64 63 72 99 30 140 -24 25 -55 33 -55 15z"/>
<path d="M3153 4785 c-7 -8 -13 -21 -13 -29 0 -8 -6 -17 -12 -20 -10 -5 -10
-7 0 -12 6 -3 12 -18 12 -33 0 -15 9 -33 20 -41 11 -8 20 -20 20 -27 0 -7 38
-51 85 -98 47 -47 91 -85 98 -85 7 0 19 -9 27 -20 8 -11 21 -20 30 -20 9 0 22
-9 30 -20 8 -11 22 -20 32 -20 10 0 18 -4 18 -10 0 -5 14 -10 30 -10 29 0 30
1 30 50 0 28 -4 50 -10 50 -5 0 -10 8 -10 18 0 10 -9 24 -20 32 -11 8 -20 22
-20 32 0 10 -4 18 -10 18 -5 0 -10 7 -10 16 0 9 -13 29 -30 44 -16 15 -30 33
-30 39 0 17 -107 121 -125 121 -8 0 -15 5 -15 10 0 6 -9 10 -20 10 -11 0 -20
5 -20 10 0 15 -73 11 -87 -5z"/>
<path d="M3280 3970 c0 -5 -7 -10 -16 -10 -8 0 -22 -6 -30 -14 -16 -16 -19
-86 -4 -86 6 0 10 -7 10 -15 0 -9 29 -45 65 -80 35 -36 71 -65 80 -65 8 0 15
-4 15 -10 0 -5 9 -10 20 -10 11 0 20 -4 20 -10 0 -5 18 -10 40 -10 22 0 40 -4
40 -10 0 -5 9 -10 20 -10 11 0 20 5 20 10 0 6 9 10 20 10 17 0 20 7 20 40 0
22 -4 40 -10 40 -5 0 -10 7 -10 15 0 19 -124 145 -143 145 -7 0 -19 9 -27 20
-8 11 -22 20 -32 20 -10 0 -18 5 -18 10 0 6 -13 10 -30 10 -16 0 -30 5 -30 10
0 6 -4 10 -10 10 -5 0 -10 -4 -10 -10z"/>
<path d="M5220 3130 c0 -5 -13 -10 -30 -10 -16 0 -30 -4 -30 -10 0 -5 -9 -10
-20 -10 -11 0 -20 -4 -20 -10 0 -5 -8 -10 -18 -10 -10 0 -24 -9 -32 -20 -8
-11 -20 -20 -28 -20 -7 0 -35 -22 -62 -50 -27 -27 -54 -50 -60 -50 -7 0 -25
-13 -40 -30 -15 -16 -34 -30 -42 -30 -7 0 -20 -9 -28 -20 -8 -11 -22 -20 -32
-20 -10 0 -18 -4 -18 -10 0 -5 -8 -10 -18 -10 -10 0 -24 -9 -32 -20 -8 -11
-22 -20 -32 -20 -10 0 -18 -4 -18 -10 0 -5 -8 -10 -18 -10 -10 0 -24 -9 -32
-20 -8 -11 -21 -20 -28 -20 -7 0 -31 -18 -52 -40 -21 -22 -43 -40 -50 -40 -6
0 -46 -36 -90 -80 -44 -44 -84 -80 -91 -80 -6 0 -24 -13 -39 -30 -15 -16 -33
-30 -40 -30 -7 0 -25 -13 -40 -30 -15 -16 -34 -30 -42 -30 -7 0 -20 -9 -28
-20 -8 -11 -21 -20 -30 -20 -9 0 -22 -9 -30 -20 -8 -11 -22 -20 -32 -20 -10 0
-18 -4 -18 -10 0 -5 -8 -10 -18 -10 -10 0 -24 -9 -32 -20 -8 -11 -22 -20 -32
-20 -10 0 -18 -4 -18 -10 0 -5 -9 -10 -20 -10 -11 0 -20 -4 -20 -10 0 -5 -22
-10 -50 -10 -27 0 -50 5 -50 10 0 6 -9 10 -20 10 -11 0 -20 5 -20 10 0 6 -8
10 -18 10 -10 0 -24 9 -32 20 -8 11 -21 20 -30 20 -9 0 -22 9 -30 20 -8 11
-22 20 -32 20 -10 0 -18 5 -18 10 0 6 -9 10 -20 10 -11 0 -20 5 -20 10 0 6 -9
10 -20 10 -11 0 -20 5 -20 10 0 6 -22 10 -50 10 -27 0 -50 5 -50 10 0 6 -13
10 -30 10 -16 0 -30 -4 -30 -10 0 -5 -13 -10 -30 -10 -16 0 -30 -4 -30 -10 0
-5 -9 -10 -20 -10 -11 0 -20 -4 -20 -10 0 -5 -8 -10 -18 -10 -10 0 -24 -9 -32
-20 -8 -11 -21 -20 -30 -20 -9 0 -22 -9 -30 -20 -8 -11 -21 -20 -28 -20 -8 0
-27 -13 -42 -30 -15 -16 -34 -30 -42 -30 -7 0 -20 -9 -28 -20 -8 -11 -21 -20
-30 -20 -9 0 -22 -9 -30 -20 -8 -11 -22 -20 -32 -20 -10 0 -18 -4 -18 -10 0
-5 -8 -10 -18 -10 -10 0 -24 -9 -32 -20 -8 -11 -21 -20 -30 -20 -9 0 -22 -9
-30 -20 -8 -11 -22 -20 -32 -20 -10 0 -18 -4 -18 -10 0 -5 -8 -10 -18 -10 -10
0 -24 -9 -32 -20 -8 -11 -21 -20 -30 -20 -9 0 -22 -9 -30 -20 -8 -11 -21 -20
-30 -20 -9 0 -22 -9 -30 -20 -8 -11 -21 -20 -30 -20 -9 0 -22 -9 -30 -20 -8
-11 -21 -20 -28 -20 -8 0 -27 -13 -42 -30 -15 -16 -34 -30 -42 -30 -7 0 -20
-9 -28 -20 -8 -11 -21 -20 -28 -20 -8 0 -27 -13 -42 -30 -15 -16 -34 -30 -42
-30 -7 0 -20 -9 -28 -20 -8 -11 -21 -20 -28 -20 -8 0 -27 -13 -42 -30 -15 -16
-33 -30 -40 -30 -7 0 -25 -13 -40 -30 -15 -16 -33 -30 -40 -30 -7 0 -25 -13
-40 -30 -15 -16 -33 -30 -40 -30 -7 0 -25 -13 -40 -30 -15 -16 -33 -30 -40
-30 -7 0 -25 -13 -40 -30 -15 -16 -33 -30 -40 -30 -7 0 -25 -13 -40 -30 -15
-16 -33 -30 -40 -30 -7 0 -25 -13 -40 -30 -15 -16 -34 -30 -42 -30 -7 0 -20
-9 -28 -20 -8 -11 -21 -20 -28 -20 -8 0 -27 -13 -42 -30 -15 -16 -34 -30 -42
-30 -7 0 -20 -9 -28 -20 -8 -11 -21 -20 -30 -20 -9 0 -22 -9 -30 -20 -8 -11
-21 -20 -28 -20 -8 0 -27 -13 -42 -30 -15 -16 -33 -30 -40 -30 -7 0 -25 -13
-40 -30 -15 -16 -33 -30 -39 -30 -15 0 -141 -126 -141 -141 0 -21 29 -39 64
-39 20 0 36 5 36 10 0 6 9 10 20 10 11 0 20 5 20 10 0 6 9 10 20 10 11 0 20 5
20 10 0 6 9 10 20 10 11 0 20 5 20 10 0 6 8 10 18 10 10 0 24 9 32 20 8 11 22
20 32 20 10 0 18 5 18 10 0 6 8 10 18 10 10 0 24 9 32 20 8 11 22 20 32 20 10
0 18 5 18 10 0 6 8 10 18 10 10 0 24 9 32 20 8 11 22 20 32 20 10 0 18 5 18
10 0 6 8 10 18 10 10 0 24 9 32 20 8 11 21 20 30 20 9 0 22 9 30 20 8 11 21
20 30 20 9 0 22 9 30 20 8 11 21 20 30 20 9 0 22 9 30 20 8 11 21 20 30 20 9
0 22 9 30 20 8 11 21 20 30 20 9 0 22 9 30 20 8 11 21 20 30 20 9 0 22 9 30
20 8 11 21 20 30 20 9 0 22 9 30 20 8 11 21 20 28 20 8 0 27 14 42 30 15 17
34 30 42 30 7 0 20 9 28 20 8 11 21 20 28 20 8 0 27 14 42 30 15 17 34 30 42
30 7 0 20 9 28 20 8 11 21 20 28 20 8 0 27 14 42 30 15 17 34 30 42 30 7 0 20
9 28 20 8 11 21 20 30 20 9 0 22 9 30 20 8 11 21 20 30 20 9 0 22 9 30 20 8
11 22 20 32 20 10 0 18 5 18 10 0 6 8 10 18 10 10 0 24 9 32 20 8 11 21 20 30
20 9 0 22 9 30 20 8 11 22 20 32 20 10 0 18 5 18 10 0 6 8 10 18 10 10 0 24 9
32 20 8 11 21 20 30 20 9 0 22 9 30 20 8 11 21 20 30 20 9 0 22 9 30 20 8 11
21 20 30 20 9 0 22 9 30 20 8 11 21 20 30 20 9 0 22 9 30 20 8 11 21 20 30 20
9 0 22 9 30 20 8 11 21 20 28 20 8 0 27 14 42 30 15 17 34 30 42 30 7 0 20 9
28 20 8 11 22 20 32 20 10 0 18 5 18 10 0 6 9 10 20 10 11 0 20 5 20 10 0 6 9
10 20 10 11 0 20 -4 20 -10 0 -5 9 -10 20 -10 11 0 20 -4 20 -10 0 -5 8 -10
18 -10 10 0 24 -9 32 -20 8 -11 22 -20 32 -20 10 0 18 -4 18 -10 0 -5 8 -10
18 -10 10 0 24 -9 32 -20 8 -11 22 -20 32 -20 10 0 18 -4 18 -10 0 -5 14 -10
30 -10 17 0 30 -4 30 -10 0 -5 14 -10 30 -10 17 0 30 -4 30 -10 0 -6 30 -10
70 -10 40 0 70 4 70 10 0 6 18 10 40 10 22 0 40 5 40 10 0 6 9 10 20 10 11 0
20 5 20 10 0 6 8 10 18 10 10 0 24 9 32 20 8 11 22 20 32 20 10 0 18 5 18 10
0 6 7 10 16 10 9 0 29 14 44 30 15 17 34 30 42 30 7 0 20 9 28 20 8 11 21 20
28 20 8 0 27 14 42 30 15 17 33 30 40 30 6 0 29 18 50 40 21 22 44 40 50 40 6
0 29 18 50 40 21 22 44 40 50 40 6 0 29 18 50 40 21 22 45 40 52 40 7 0 20 9
28 20 8 11 21 20 30 20 9 0 22 9 30 20 8 11 22 20 32 20 10 0 18 5 18 10 0 6
9 10 20 10 11 0 20 5 20 10 0 6 8 10 18 10 10 0 24 9 32 20 8 11 21 20 30 20
9 0 22 9 30 20 8 11 20 20 28 20 7 0 57 45 112 100 55 55 105 100 112 100 8 0
20 9 28 20 10 14 26 20 52 20 21 0 38 -4 38 -10 0 -5 7 -10 15 -10 9 0 65 -49
125 -110 60 -60 114 -110 121 -110 6 0 24 -13 39 -30 15 -16 35 -30 44 -30 9
0 16 -4 16 -10 0 -5 9 -10 20 -10 11 0 20 -4 20 -10 0 -6 27 -10 60 -10 33 0
60 4 60 10 0 6 18 10 40 10 22 0 40 5 40 10 0 6 32 10 75 10 l76 0 99 -100
c55 -55 104 -100 110 -100 6 0 78 -67 160 -150 82 -83 154 -150 160 -150 6 0
38 -27 70 -60 32 -33 64 -60 70 -60 6 0 29 -18 50 -40 21 -22 46 -40 54 -40 9
0 16 -4 16 -10 0 -5 9 -10 20 -10 11 0 20 -4 20 -10 0 -5 9 -10 20 -10 11 0
20 -4 20 -10 0 -6 30 -10 70 -10 40 0 70 4 70 10 0 6 14 10 30 10 17 0 30 5
30 10 0 6 8 10 18 10 10 0 24 9 32 20 8 11 21 20 28 20 8 0 27 14 42 30 15 17
33 30 40 30 7 0 25 14 40 30 15 17 34 30 42 30 7 0 20 9 28 20 8 12 26 20 42
20 15 0 28 5 28 10 0 6 14 10 30 10 17 0 30 -4 30 -10 0 -5 9 -10 20 -10 11 0
20 -4 20 -10 0 -5 8 -10 18 -10 10 0 24 -9 32 -20 8 -11 21 -20 28 -20 7 0 31
-18 52 -40 21 -22 44 -40 50 -40 7 0 25 -13 40 -30 15 -16 33 -30 40 -30 6 0
29 -18 50 -40 21 -22 44 -40 50 -40 7 0 25 -13 40 -30 15 -16 33 -30 40 -30 6
0 29 -18 50 -40 21 -22 44 -40 50 -40 6 0 29 -18 50 -40 21 -22 44 -40 50 -40
6 0 29 -18 50 -40 21 -22 44 -40 50 -40 6 0 33 -22 60 -50 27 -27 54 -50 60
-50 6 0 33 -22 60 -50 27 -27 54 -50 60 -50 6 0 38 -27 70 -60 32 -33 64 -60
70 -60 6 0 33 -22 60 -50 27 -27 54 -50 60 -50 6 0 29 -18 50 -40 21 -22 44
-40 50 -40 6 0 29 -18 50 -40 21 -22 44 -40 50 -40 6 0 29 -18 50 -40 21 -22
44 -40 50 -40 7 0 25 -13 40 -30 15 -16 34 -30 42 -30 7 0 20 -9 28 -20 8 -11
22 -20 32 -20 10 0 18 -4 18 -10 0 -5 8 -10 18 -10 10 0 24 -9 32 -20 8 -11
22 -20 32 -20 10 0 18 -4 18 -10 0 -5 14 -10 30 -10 17 0 30 -4 30 -10 0 -5 9
-10 20 -10 11 0 20 5 20 10 0 6 9 10 20 10 17 0 20 7 20 50 0 28 -4 50 -10 50
-5 0 -10 8 -10 18 0 10 -9 24 -20 32 -11 8 -20 20 -20 27 0 16 -165 183 -181
183 -5 0 -32 23 -59 50 -27 28 -54 50 -60 50 -6 0 -29 18 -50 40 -21 22 -44
40 -50 40 -6 0 -29 18 -50 40 -21 22 -44 40 -50 40 -6 0 -29 18 -50 40 -21 22
-44 40 -50 40 -6 0 -29 18 -50 40 -21 22 -44 40 -50 40 -6 0 -29 18 -50 40
-21 22 -44 40 -50 40 -6 0 -29 18 -50 40 -21 22 -44 40 -50 40 -6 0 -29 18
-50 40 -21 22 -44 40 -50 40 -6 0 -29 18 -50 40 -21 22 -44 40 -50 40 -6 0
-29 18 -50 40 -21 22 -44 40 -50 40 -7 0 -25 14 -40 30 -15 17 -33 30 -40 30
-7 0 -25 14 -40 30 -15 17 -33 30 -40 30 -6 0 -29 18 -50 40 -21 22 -44 40
-50 40 -6 0 -29 18 -50 40 -21 22 -44 40 -50 40 -7 0 -25 14 -40 30 -15 17
-34 30 -42 30 -7 0 -20 9 -28 20 -8 11 -21 20 -30 20 -9 0 -22 9 -30 20 -8 11
-22 20 -32 20 -10 0 -18 5 -18 10 0 6 -9 10 -20 10 -11 0 -20 5 -20 10 0 6
-22 10 -50 10 -27 0 -50 5 -50 10 0 6 -13 10 -30 10 -16 0 -30 -4 -30 -10 0
-5 -18 -10 -40 -10 -22 0 -40 -4 -40 -10 0 -5 -13 -10 -28 -10 -16 0 -34 -8
-42 -20 -8 -11 -21 -20 -30 -20 -9 0 -22 -9 -30 -20 -8 -11 -21 -20 -30 -20
-9 0 -22 -9 -30 -20 -8 -11 -21 -20 -30 -20 -9 0 -22 -9 -30 -20 -8 -11 -21
-20 -30 -20 -9 0 -22 -9 -30 -20 -8 -11 -22 -20 -32 -20 -10 0 -18 -4 -18 -10
0 -5 -9 -10 -20 -10 -11 0 -20 5 -20 10 0 6 -9 10 -20 10 -11 0 -20 5 -20 10
0 6 -7 10 -16 10 -9 0 -29 14 -44 30 -15 17 -33 30 -40 30 -6 0 -38 27 -70 60
-32 33 -64 60 -70 60 -6 0 -100 90 -210 200 -110 110 -205 200 -211 200 -6 0
-24 14 -39 30 -15 17 -35 30 -44 30 -9 0 -16 5 -16 10 0 6 -9 10 -20 10 -11 0
-20 5 -20 10 0 6 -13 10 -30 10 -16 0 -30 5 -30 10 0 6 -33 10 -80 10 -47 0
-80 -4 -80 -10 0 -5 -9 -10 -20 -10 -11 0 -20 -4 -20 -10 0 -5 -13 -10 -30
-10 -16 0 -30 -4 -30 -10 0 -5 -16 -10 -36 -10 -27 0 -43 7 -64 30 -15 17 -33
30 -39 30 -7 0 -52 41 -101 90 -49 50 -94 90 -101 90 -6 0 -24 14 -39 30 -15
17 -34 30 -42 30 -7 0 -20 9 -28 20 -8 12 -26 20 -42 20 -15 0 -28 5 -28 10 0
6 -22 10 -50 10 -27 0 -50 -4 -50 -10z"/>
<path d="M4480 1950 c-58 -60 -111 -109 -118 -109 -7 -1 -44 -32 -82 -71 -38
-38 -74 -70 -80 -70 -6 0 -33 -22 -60 -50 -27 -27 -54 -50 -60 -50 -16 0 -140
-128 -140 -145 0 -8 -4 -15 -10 -15 -5 0 -10 -9 -10 -20 0 -11 -4 -20 -10 -20
-5 0 -10 -18 -10 -40 0 -22 5 -40 10 -40 6 0 10 -11 10 -25 0 -29 79 -115 105
-115 8 0 15 -4 15 -10 0 -5 9 -10 20 -10 11 0 20 -4 20 -10 0 -5 9 -10 20 -10
11 0 20 -4 20 -10 0 -5 14 -10 30 -10 17 0 30 -4 30 -10 0 -5 14 -10 30 -10
17 0 30 -4 30 -10 0 -5 14 -10 30 -10 17 0 30 -4 30 -10 0 -5 14 -10 30 -10
17 0 30 -4 30 -10 0 -5 9 -10 20 -10 11 0 20 -4 20 -10 0 -5 14 -10 30 -10 17
0 30 -4 30 -10 0 -5 9 -10 20 -10 11 0 20 -4 20 -10 0 -5 14 -10 30 -10 17 0
30 -4 30 -10 0 -5 9 -10 20 -10 11 0 20 -4 20 -10 0 -5 9 -10 20 -10 11 0 20
-4 20 -10 0 -5 9 -10 20 -10 11 0 20 -4 20 -10 0 -5 9 -10 20 -10 11 0 20 -4
20 -10 0 -5 9 -10 20 -10 11 0 20 -4 20 -10 0 -5 9 -10 20 -10 11 0 20 -4 20
-10 0 -5 9 -10 20 -10 11 0 20 -4 20 -10 0 -5 14 -10 30 -10 17 0 30 -4 30
-10 0 -5 9 -10 20 -10 11 0 20 -4 20 -10 0 -5 14 -10 30 -10 17 0 30 5 30 10
0 6 7 10 16 10 8 0 22 6 30 14 16 17 19 66 4 66 -5 0 -10 7 -10 15 0 20 -105
125 -125 125 -8 0 -15 5 -15 10 0 6 -9 10 -20 10 -11 0 -20 5 -20 10 0 6 -9
10 -20 10 -11 0 -20 5 -20 10 0 6 -9 10 -20 10 -11 0 -20 5 -20 10 0 6 -13 10
-30 10 -16 0 -30 5 -30 10 0 6 -13 10 -30 10 -16 0 -30 5 -30 10 0 6 -9 10
-20 10 -11 0 -20 5 -20 10 0 6 -13 10 -30 10 -16 0 -30 5 -30 10 0 6 -13 10
-30 10 -16 0 -30 5 -30 10 0 6 -13 10 -30 10 -16 0 -30 5 -30 10 0 6 -13 10
-30 10 -16 0 -30 5 -30 10 0 6 -13 10 -30 10 -16 0 -30 5 -30 10 0 6 -13 10
-30 10 -16 0 -30 5 -30 10 0 6 -9 10 -20 10 -11 0 -20 5 -20 10 0 6 -9 10 -20
10 -11 0 -20 5 -20 10 0 6 -7 10 -15 10 -18 0 -65 44 -65 60 0 14 86 100 100
100 14 0 320 307 320 321 0 6 14 24 30 39 17 15 30 35 30 44 0 9 5 16 10 16 6
0 10 9 10 20 0 11 5 20 10 20 6 0 10 9 10 20 0 11 5 20 10 20 15 0 12 49 -4
66 -8 8 -21 14 -28 13 -7 0 -60 -49 -118 -109z"/>
<path d="M2880 1570 c0 -5 -9 -10 -20 -10 -11 0 -20 -4 -20 -10 0 -5 -9 -10
-20 -10 -11 0 -20 -4 -20 -10 0 -5 -9 -10 -20 -10 -11 0 -20 -4 -20 -10 0 -5
-9 -10 -20 -10 -11 0 -20 -4 -20 -10 0 -5 -9 -10 -20 -10 -11 0 -20 -4 -20
-10 0 -5 -8 -10 -18 -10 -10 0 -24 -9 -32 -20 -8 -11 -22 -20 -32 -20 -10 0
-18 -4 -18 -10 0 -5 -7 -10 -16 -10 -9 0 -29 -13 -44 -30 -15 -16 -34 -30 -42
-30 -7 0 -20 -9 -28 -20 -8 -11 -21 -20 -28 -20 -7 0 -31 -18 -52 -40 -21 -22
-43 -40 -49 -40 -17 0 -241 -228 -241 -245 0 -8 -4 -15 -10 -15 -15 0 -12 -29
4 -46 17 -16 66 -19 66 -4 0 6 8 10 18 10 10 0 24 9 32 20 8 11 21 20 30 20 9
0 22 9 30 20 8 11 22 20 32 20 10 0 18 5 18 10 0 6 8 10 18 10 10 0 24 9 32
20 8 11 21 20 30 20 9 0 22 9 30 20 8 11 21 20 28 20 8 0 27 14 42 30 15 17
34 30 42 30 7 0 20 9 28 20 8 11 21 20 28 20 8 0 27 14 42 30 15 17 34 30 42
30 7 0 20 9 28 20 8 11 21 20 30 20 9 0 22 9 30 20 8 11 21 20 28 20 8 0 27
14 42 30 15 17 33 30 39 30 15 0 141 126 141 141 0 23 -30 39 -74 39 -25 0
-46 -4 -46 -10z"/>
</g>
</svg>
