<svg xmlns="http://www.w3.org/2000/svg" viewBox="0 0 1054.000000 752.000000" fill="currentColor" aria-hidden="true">
<g transform="translate(0.000000,752.000000) scale(0.100000,-0.100000)" fill="currentColor" stroke="none">
<path d="M0 3760 l0 -3760 5270 0 5270 0 0 3760 0 3760 -5270 0 -5270 0 0
-3760z m4360 3002 c0 -10 9 -24 20 -32 11 -8 20 -20 20 -28 0 -7 23 -35 50
-62 28 -27 50 -55 50 -62 0 -8 9 -20 20 -28 11 -8 20 -22 20 -32 0 -10 5 -18
10 -18 6 0 10 -13 10 -30 0 -16 5 -30 10 -30 6 0 10 -13 10 -30 0 -16 5 -30
10 -30 6 0 10 -22 10 -50 0 -27 5 -50 10 -50 6 0 10 -27 10 -60 0 -33 -4 -60
-10 -60 -5 0 -10 -22 -10 -50 0 -27 -4 -50 -10 -50 -5 0 -10 -13 -10 -30 0
-16 -4 -30 -10 -30 -5 0 -10 -9 -10 -20 0 -11 -4 -20 -10 -20 -5 0 -10 -9 -10
-20 0 -11 -4 -20 -10 -20 -5 0 -10 -8 -10 -18 0 -10 -9 -24 -20 -32 -11 -8
-20 -20 -20 -28 0 -18 -25 -42 -44 -42 -9 0 -16 -4 -16 -10 0 -15 -70 -12 -86
4 -8 8 -14 30 -14 49 0 20 -6 38 -12 41 -10 5 -10 7 0 12 6 3 12 23 12 45 0
21 5 39 10 39 6 0 10 14 10 30 0 17 5 30 10 30 6 0 10 9 10 20 0 11 5 20 10
20 6 0 10 14 10 30 0 17 5 30 10 30 6 0 10 30 10 69 0 46 4 71 13 75 10 5 10
7 0 12 -8 4 -13 27 -13 65 0 33 -4 59 -10 59 -5 0 -10 18 -10 40 0 22 -4 40
-10 40 -5 0 -10 14 -10 30 0 17 -4 30 -10 30 -5 0 -10 18 -10 40 0 22 -4 40
-10 40 -5 0 -10 18 -10 40 0 22 -4 40 -10 40 -5 0 -10 14 -10 30 0 27 3 30 30
30 22 0 30 -5 30 -18z m720 -112 c0 -5 8 -10 18 -10 10 0 24 -9 32 -20 8 -11
21 -20 30 -20 9 0 22 -9 30 -20 8 -11 21 -20 28 -20 8 0 27 -13 42 -30 15 -16
33 -30 39 -30 15 0 181 -166 181 -181 0 -6 18 -28 40 -49 22 -21 40 -45 40
-52 0 -7 9 -20 20 -28 11 -8 20 -21 20 -30 0 -9 9 -22 20 -30 11 -8 20 -22 20
-32 0 -10 5 -18 10 -18 6 0 10 -9 10 -20 0 -11 5 -20 10 -20 6 0 10 -9 10 -20
0 -11 5 -20 10 -20 6 0 10 -9 10 -20 0 -11 5 -20 10 -20 6 0 10 -9 10 -20 0
-11 5 -20 10 -20 6 0 10 -9 10 -20 0 -11 5 -20 10 -20 6 0 10 -9 10 -20 0 -11
5 -20 10 -20 6 0 10 -13 10 -30 0 -16 5 -30 10 -30 6 0 10 -18 10 -40 0 -22 5
-40 10 -40 6 0 10 -18 10 -40 0 -22 5 -40 10 -40 6 0 10 -27 10 -60 0 -33 4
-60 10 -60 6 0 10 -80 10 -220 0 -140 -4 -220 -10 -220 -6 0 -10 -30 -10 -70
0 -38 2 -70 5 -70 13 0 115 111 115 125 0 8 5 15 10 15 6 0 10 9 10 20 0 11 5
20 10 20 6 0 10 14 10 30 0 17 5 30 10 30 6 0 10 18 10 40 0 22 5 40 10 40 6
0 10 33 10 80 0 47 4 80 10 80 6 0 10 9 10 20 0 13 7 20 20 20 11 0 20 5 20
10 0 6 16 10 35 10 30 0 45 -9 90 -55 30 -30 55 -60 55 -68 0 -7 9 -19 20 -27
11 -8 20 -21 20 -30 0 -9 9 -22 20 -30 11 -8 20 -22 20 -32 0 -10 5 -18 10
-18 6 0 10 -8 10 -18 0 -10 9 -24 20 -32 11 -8 20 -22 20 -32 0 -10 5 -18 10
-18 6 0 10 -9 10 -20 0 -11 5 -20 10 -20 6 0 10 -9 10 -20 0 -11 5 -20 10 -20
6 0 10 -9 10 -20 0 -11 5 -20 10 -20 6 0 10 -9 10 -20 0 -11 5 -20 10 -20 6 0
10 -13 10 -30 0 -16 5 -30 10 -30 6 0 10 -9 10 -20 0 -11 5 -20 10 -20 6 0 10
-18 10 -40 0 -22 5 -40 10 -40 6 0 10 -18 10 -40 0 -22 5 -40 10 -40 6 0 10
-22 10 -50 0 -27 5 -50 10 -50 6 0 10 -70 10 -190 0 -120 -4 -190 -10 -190 -5
0 -10 -22 -10 -50 0 -27 -4 -50 -10 -50 -5 0 -10 -18 -10 -40 0 -22 -4 -40
-10 -40 -5 0 -10 -13 -10 -30 0 -16 -4 -30 -10 -30 -5 0 -10 -9 -10 -20 0 -11
-4 -20 -10 -20 -5 0 -10 -13 -10 -28 0 -16 -8 -34 -20 -42 -11 -8 -20 -22 -20
-32 0 -10 -4 -18 -10 -18 -5 0 -10 -8 -10 -18 0 -10 -9 -24 -20 -32 -11 -8
-20 -21 -20 -28 0 -8 -13 -27 -30 -42 -16 -15 -30 -33 -30 -39 0 -15 -106
-121 -121 -121 -6 0 -28 -18 -49 -40 -21 -22 -46 -40 -54 -40 -9 0 -16 -4 -16
-10 0 -5 -8 -10 -18 -10 -10 0 -24 -9 -32 -20 -8 -11 -22 -20 -32 -20 -10 0
-18 -4 -18 -10 0 -5 -9 -10 -20 -10 -11 0 -20 -4 -20 -10 0 -5 -13 -10 -30
-10 -16 0 -30 -4 -30 -10 0 -5 -13 -10 -30 -10 -16 0 -30 -4 -30 -10 0 -16
-129 -12 -146 4 -20 21 -17 59 6 76 11 8 20 22 20 32 0 10 5 18 10 18 6 0 10
8 10 18 0 10 9 24 20 32 11 8 20 22 20 32 0 10 5 18 10 18 6 0 10 9 10 20 0
11 5 20 10 20 6 0 10 14 10 30 0 17 5 30 10 30 6 0 10 14 10 30 0 17 5 30 10
30 6 0 10 18 10 40 0 22 5 40 10 40 17 0 13 169 -5 186 -13 14 -23 7 -84 -55
-39 -39 -77 -71 -86 -71 -8 0 -15 -4 -15 -10 0 -5 -13 -10 -30 -10 -16 0 -30
-4 -30 -10 0 -6 -30 -10 -70 -10 -40 0 -70 4 -70 10 0 6 -13 10 -28 10 -16 0
-34 8 -42 20 -8 11 -20 20 -28 20 -16 0 -82 65 -82 81 0 6 -13 24 -30 39 -16
15 -30 35 -30 44 0 9 -4 16 -10 16 -5 0 -10 9 -10 20 0 11 -4 20 -10 20 -5 0
-10 9 -10 20 0 11 -4 20 -10 20 -5 0 -10 9 -10 20 0 11 -4 20 -10 20 -5 0 -10
9 -10 20 0 11 -4 20 -10 20 -5 0 -10 18 -10 40 0 22 -4 40 -10 40 -5 0 -10 18
-10 40 0 22 -4 40 -10 40 -6 0 -10 47 -10 120 0 113 -1 120 -20 120 -13 0 -20
-7 -20 -20 0 -11 -4 -20 -10 -20 -5 0 -10 -7 -10 -16 0 -9 -13 -29 -30 -44
-16 -15 -30 -34 -30 -42 0 -7 -9 -20 -20 -28 -11 -8 -20 -22 -20 -32 0 -10 -4
-18 -10 -18 -5 0 -10 -8 -10 -18 0 -10 -9 -24 -20 -32 -11 -8 -20 -22 -20 -32
0 -10 -4 -18 -10 -18 -5 0 -10 -9 -10 -20 0 -11 -4 -20 -10 -20 -5 0 -10 -9
-10 -20 0 -11 -4 -20 -10 -20 -5 0 -10 -9 -10 -20 0 -11 -4 -20 -10 -20 -5 0
-10 -13 -10 -30 0 -16 -4 -30 -10 -30 -5 0 -10 -13 -10 -30 0 -16 -4 -30 -10
-30 -6 0 -10 -33 -10 -80 0 -47 -4 -80 -10 -80 -5 0 -10 -13 -10 -30 0 -16 5
-30 10 -30 6 0 10 -30 10 -70 0 -40 4 -70 10 -70 6 0 10 -13 10 -30 0 -16 5
-30 10 -30 6 0 10 -9 10 -20 0 -11 5 -20 10 -20 6 0 10 -9 10 -20 0 -11 5 -20
10 -20 6 0 10 -8 10 -18 0 -10 9 -24 20 -32 11 -8 20 -21 20 -28 0 -7 18 -31
40 -52 22 -21 40 -45 40 -53 0 -9 5 -17 12 -19 8 -3 3 -14 -14 -31 -21 -21
-37 -27 -73 -27 -25 0 -45 5 -45 10 0 6 -18 10 -40 10 -22 0 -40 5 -40 10 0 6
-13 10 -30 10 -16 0 -30 5 -30 10 0 6 -13 10 -30 10 -16 0 -30 5 -30 10 0 6
-9 10 -20 10 -11 0 -20 5 -20 10 0 6 -9 10 -20 10 -11 0 -20 5 -20 10 0 6 -9
10 -20 10 -11 0 -20 5 -20 10 0 6 -8 10 -18 10 -10 0 -24 9 -32 20 -8 11 -21
20 -30 20 -9 0 -22 9 -30 20 -8 11 -20 20 -27 20 -16 0 -183 165 -183 181 0 6
-13 24 -30 39 -16 15 -30 35 -30 44 0 9 -4 16 -10 16 -5 0 -10 9 -10 20 0 11
-4 20 -10 20 -5 0 -10 9 -10 20 0 11 -4 20 -10 20 -5 0 -10 9 -10 20 0 11 -4
20 -10 20 -5 0 -10 9 -10 20 0 11 -4 20 -10 20 -5 0 -10 14 -10 30 0 17 -4 30
-10 30 -5 0 -10 18 -10 40 0 22 -4 40 -10 40 -6 0 -10 27 -10 60 0 33 -4 60
-10 60 -6 0 -10 33 -10 80 0 47 4 80 10 80 6 0 10 27 10 60 0 33 4 60 10 60 6
0 10 18 10 40 0 22 5 40 10 40 6 0 10 14 10 30 0 17 5 30 10 30 6 0 10 14 10
30 0 17 5 30 10 30 6 0 10 9 10 20 0 11 5 20 10 20 6 0 10 9 10 20 0 11 5 20
10 20 6 0 10 8 10 18 0 10 9 24 20 32 11 8 20 22 20 32 0 10 5 18 10 18 6 0
10 8 10 18 0 10 9 24 20 32 11 8 20 21 20 28 0 8 14 27 30 42 17 15 30 33 30
40 0 7 14 25 30 40 17 15 30 33 30 40 0 6 18 29 40 50 22 21 40 44 40 50 0 6
23 33 50 60 28 27 50 54 50 60 0 6 18 29 40 50 22 21 40 44 40 50 0 6 18 29
40 50 22 21 40 44 40 50 0 7 14 25 30 40 17 15 30 34 30 42 0 7 9 20 20 28 11
8 20 21 20 30 0 9 9 22 20 30 11 8 20 22 20 32 0 10 5 18 10 18 6 0 10 8 10
18 0 10 9 24 20 32 11 8 20 22 20 32 0 10 5 18 10 18 6 0 10 14 10 30 0 17 5
30 10 30 6 0 10 9 10 20 0 11 5 20 10 20 6 0 10 14 10 30 0 17 5 30 10 30 6 0
10 14 10 30 0 17 5 30 10 30 6 0 10 27 10 60 0 33 4 60 10 60 6 0 10 47 10
120 0 73 -4 120 -10 120 -5 0 -10 18 -10 40 0 22 -4 40 -10 40 -15 0 -12 128
3 145 14 16 87 20 87 5z m2166 -664 c16 -16 19 -86 4 -86 -5 0 -10 -13 -10
-30 0 -16 -4 -30 -10 -30 -5 0 -10 -9 -10 -20 0 -11 -4 -20 -10 -20 -5 0 -10
-9 -10 -20 0 -11 -4 -20 -10 -20 -5 0 -10 -9 -10 -20 0 -11 -4 -20 -10 -20 -5
0 -10 -8 -10 -18 0 -10 -9 -24 -20 -32 -11 -8 -20 -21 -20 -28 0 -8 -13 -27
-30 -42 -16 -15 -30 -33 -30 -39 0 -16 -66 -81 -82 -81 -8 0 -20 -9 -28 -20
-10 -14 -26 -20 -52 -20 -31 0 -38 4 -38 20 0 11 -4 20 -10 20 -5 0 -10 14
-10 30 0 17 5 30 10 30 6 0 10 14 10 30 0 17 5 30 10 30 6 0 10 14 10 30 0 17
5 30 10 30 6 0 10 9 10 20 0 11 5 20 10 20 6 0 10 9 10 20 0 11 5 20 10 20 6
0 10 8 10 18 0 10 9 24 20 32 11 8 20 21 20 30 0 9 9 22 20 30 11 8 20 20 20
28 0 7 16 28 35 47 19 19 40 35 47 35 8 0 20 9 28 20 17 24 93 28 116 6z m69
-991 c42 -41 34 -77 -30 -140 -50 -50 -58 -55 -100 -55 -38 0 -45 3 -45 20 0
11 -4 20 -10 20 -5 0 -10 9 -10 20 0 11 5 20 10 20 6 0 10 7 10 15 0 20 85
105 105 105 8 0 15 5 15 10 0 18 31 10 55 -15z m-4075 -205 c0 -5 9 -10 20
-10 11 0 20 -4 20 -10 0 -5 7 -10 15 -10 18 0 125 -104 125 -121 0 -6 14 -24
30 -39 17 -15 30 -35 30 -44 0 -9 5 -16 10 -16 6 0 10 -8 10 -18 0 -10 9 -24
20 -32 11 -8 20 -22 20 -32 0 -10 5 -18 10 -18 6 0 10 -22 10 -50 0 -49 -1
-50 -30 -50 -16 0 -30 5 -30 10 0 6 -8 10 -18 10 -10 0 -24 9 -32 20 -8 11
-21 20 -30 20 -9 0 -22 9 -30 20 -8 11 -20 20 -27 20 -7 0 -51 38 -98 85 -47
47 -85 91 -85 98 0 7 -9 19 -20 27 -11 8 -20 26 -20 41 0 15 -6 30 -12 33 -10
5 -10 7 0 12 6 3 12 12 12 20 0 26 24 43 63 44 20 0 37 -4 37 -10z m60 -820
c0 -5 14 -10 30 -10 17 0 30 -4 30 -10 0 -5 8 -10 18 -10 10 0 24 -9 32 -20 8
-11 20 -20 27 -20 19 0 143 -126 143 -145 0 -8 5 -15 10 -15 6 0 10 -18 10
-40 0 -33 -3 -40 -20 -40 -11 0 -20 -4 -20 -10 0 -5 -9 -10 -20 -10 -11 0 -20
5 -20 10 0 6 -18 10 -40 10 -22 0 -40 5 -40 10 0 6 -9 10 -20 10 -11 0 -20 5
-20 10 0 6 -7 10 -15 10 -9 0 -45 29 -80 65 -36 35 -65 71 -65 80 0 8 -4 15
-10 15 -15 0 -12 70 4 86 8 8 22 14 30 14 9 0 16 5 16 10 0 6 5 10 10 10 6 0
10 -4 10 -10z m2020 -840 c0 -5 13 -10 28 -10 16 0 34 -8 42 -20 8 -11 21 -20
28 -20 8 0 27 -13 42 -30 15 -16 33 -30 39 -30 7 0 52 -40 101 -90 49 -49 94
-90 101 -90 6 0 24 -13 39 -30 21 -23 37 -30 64 -30 20 0 36 5 36 10 0 6 14
10 30 10 17 0 30 5 30 10 0 6 9 10 20 10 11 0 20 5 20 10 0 6 33 10 80 10 47
0 80 -4 80 -10 0 -5 14 -10 30 -10 17 0 30 -4 30 -10 0 -5 9 -10 20 -10 11 0
20 -4 20 -10 0 -5 7 -10 16 -10 9 0 29 -13 44 -30 15 -16 33 -30 39 -30 6 0
101 -90 211 -200 110 -110 204 -200 210 -200 6 0 38 -27 70 -60 32 -33 64 -60
70 -60 7 0 25 -13 40 -30 15 -16 35 -30 44 -30 9 0 16 -4 16 -10 0 -5 9 -10
20 -10 11 0 20 -4 20 -10 0 -5 9 -10 20 -10 11 0 20 5 20 10 0 6 8 10 18 10
10 0 24 9 32 20 8 11 21 20 30 20 9 0 22 9 30 20 8 11 21 20 30 20 9 0 22 9
30 20 8 11 21 20 30 20 9 0 22 9 30 20 8 11 21 20 30 20 9 0 22 9 30 20 8 12
26 20 42 20 15 0 28 5 28 10 0 6 18 10 40 10 22 0 40 5 40 10 0 6 14 10 30 10
17 0 30 -4 30 -10 0 -5 23 -10 50 -10 28 0 50 -4 50 -10 0 -5 9 -10 20 -10 11
0 20 -4 20 -10 0 -5 8 -10 18 -10 10 0 24 -9 32 -20 8 -11 21 -20 30 -20 9 0
22 -9 30 -20 8 -11 21 -20 28 -20 8 0 27 -13 42 -30 15 -16 33 -30 40 -30 6 0
29 -18 50 -40 21 -22 44 -40 50 -40 6 0 29 -18 50 -40 21 -22 44 -40 50 -40 7
0 25 -13 40 -30 15 -16 33 -30 40 -30 7 0 25 -13 40 -30 15 -16 33 -30 40 -30
6 0 29 -18 50 -40 21 -22 44 -40 50 -40 6 0 29 -18 50 -40 21 -22 44 -40 50
-40 6 0 29 -18 50 -40 21 -22 44 -40 50 -40 6 0 29 -18 50 -40 21 -22 44 -40
50 -40 6 0 29 -18 50 -40 21 -22 44 -40 50 -40 6 0 29 -18 50 -40 21 -22 44
-40 50 -40 6 0 29 -18 50 -40 21 -22 44 -40 50 -40 6 0 29 -18 50 -40 21 -22
44 -40 50 -40 6 0 29 -18 50 -40 21 -22 44 -40 50 -40 6 0 33 -22 60 -50 27
-27 54 -50 59 -50 16 0 181 -167 181 -183 0 -7 9 -19 20 -27 11 -8 20 -22 20
-32 0 -10 5 -18 10 -18 6 0 10 -22 10 -50 0 -43 -3 -50 -20 -50 -11 0 -20 -4
-20 -10 0 -5 -9 -10 -20 -10 -11 0 -20 5 -20 10 0 6 -13 10 -30 10 -16 0 -30
5 -30 10 0 6 -8 10 -18 10 -10 0 -24 9 -32 20 -8 11 -22 20 -32 20 -10 0 -18
5 -18 10 0 6 -8 10 -18 10 -10 0 -24 9 -32 20 -8 11 -21 20 -28 20 -8 0 -27
14 -42 30 -15 17 -33 30 -40 30 -6 0 -29 18 -50 40 -21 22 -44 40 -50 40 -6 0
-29 18 -50 40 -21 22 -44 40 -50 40 -6 0 -29 18 -50 40 -21 22 -44 40 -50 40
-6 0 -33 23 -60 50 -27 28 -54 50 -60 50 -6 0 -38 27 -70 60 -32 33 -64 60
-70 60 -6 0 -33 23 -60 50 -27 28 -54 50 -60 50 -6 0 -33 23 -60 50 -27 28
-54 50 -60 50 -6 0 -29 18 -50 40 -21 22 -44 40 -50 40 -6 0 -29 18 -50 40
-21 22 -44 40 -50 40 -6 0 -29 18 -50 40 -21 22 -44 40 -50 40 -7 0 -25 14
-40 30 -15 17 -33 30 -40 30 -6 0 -29 18 -50 40 -21 22 -44 40 -50 40 -7 0
-25 14 -40 30 -15 17 -33 30 -40 30 -6 0 -29 18 -50 40 -21 22 -45 40 -52 40
-7 0 -20 9 -28 20 -8 11 -22 20 -32 20 -10 0 -18 5 -18 10 0 6 -9 10 -20 10
-11 0 -20 5 -20 10 0 6 -13 10 -30 10 -16 0 -30 -4 -30 -10 0 -5 -13 -10 -28
-10 -16 0 -34 -8 -42 -20 -8 -11 -21 -20 -28 -20 -8 0 -27 -13 -42 -30 -15
-16 -33 -30 -40 -30 -7 0 -25 -13 -40 -30 -15 -16 -34 -30 -42 -30 -7 0 -20
-9 -28 -20 -8 -11 -22 -20 -32 -20 -10 0 -18 -4 -18 -10 0 -5 -13 -10 -30 -10
-16 0 -30 -4 -30 -10 0 -6 -30 -10 -70 -10 -40 0 -70 4 -70 10 0 6 -9 10 -20
10 -11 0 -20 5 -20 10 0 6 -9 10 -20 10 -11 0 -20 5 -20 10 0 6 -7 10 -16 10
-8 0 -33 18 -54 40 -21 22 -44 40 -50 40 -6 0 -38 27 -70 60 -32 33 -64 60
-70 60 -6 0 -78 67 -160 150 -82 83 -154 150 -160 150 -6 0 -55 45 -110 100
l-99 100 -76 0 c-43 0 -75 -4 -75 -10 0 -5 -18 -10 -40 -10 -22 0 -40 -4 -40
-10 0 -6 -27 -10 -60 -10 -33 0 -60 4 -60 10 0 6 -9 10 -20 10 -11 0 -20 5
-20 10 0 6 -7 10 -16 10 -9 0 -29 14 -44 30 -15 17 -33 30 -39 30 -7 0 -61 50
-121 110 -60 61 -116 110 -125 110 -8 0 -15 5 -15 10 0 6 -17 10 -38 10 -26 0
-42 -6 -52 -20 -8 -11 -20 -20 -28 -20 -7 0 -57 -45 -112 -100 -55 -55 -105
-100 -112 -100 -8 0 -20 -9 -28 -20 -8 -11 -21 -20 -30 -20 -9 0 -22 -9 -30
-20 -8 -11 -22 -20 -32 -20 -10 0 -18 -4 -18 -10 0 -5 -9 -10 -20 -10 -11 0
-20 -4 -20 -10 0 -5 -8 -10 -18 -10 -10 0 -24 -9 -32 -20 -8 -11 -21 -20 -30
-20 -9 0 -22 -9 -30 -20 -8 -11 -21 -20 -28 -20 -7 0 -31 -18 -52 -40 -21 -22
-44 -40 -50 -40 -6 0 -29 -18 -50 -40 -21 -22 -44 -40 -50 -40 -6 0 -29 -18
-50 -40 -21 -22 -44 -40 -50 -40 -7 0 -25 -13 -40 -30 -15 -16 -34 -30 -42
-30 -7 0 -20 -9 -28 -20 -8 -11 -21 -20 -28 -20 -8 0 -27 -13 -42 -30 -15 -16
-35 -30 -44 -30 -9 0 -16 -4 -16 -10 0 -5 -8 -10 -18 -10 -10 0 -24 -9 -32
-20 -8 -11 -22 -20 -32 -20 -10 0 -18 -4 -18 -10 0 -5 -9 -10 -20 -10 -11 0
-20 -4 -20 -10 0 -5 -18 -10 -40 -10 -22 0 -40 -4 -40 -10 0 -6 -30 -10 -70
-10 -40 0 -70 4 -70 10 0 6 -13 10 -30 10 -16 0 -30 5 -30 10 0 6 -13 10 -30
10 -16 0 -30 5 -30 10 0 6 -8 10 -18 10 -10 0 -24 9 -32 20 -8 11 -22 20 -32
20 -10 0 -18 5 -18 10 0 6 -8 10 -18 10 -10 0 -24 9 -32 20 -8 11 -22 20 -32
20 -10 0 -18 5 -18 10 0 6 -9 10 -20 10 -11 0 -20 5 -20 10 0 6 -9 10 -20 10
-11 0 -20 -4 -20 -10 0 -5 -9 -10 -20 -10 -11 0 -20 -4 -20 -10 0 -5 -8 -10
-18 -10 -10 0 -24 -9 -32 -20 -8 -11 -21 -20 -28 -20 -8 0 -27 -13 -42 -30
-15 -16 -34 -30 -42 -30 -7 0 -20 -9 -28 -20 -8 -11 -21 -20 -30 -20 -9 0 -22
-9 -30 -20 -8 -11 -21 -20 -30 -20 -9 0 -22 -9 -30 -20 -8 -11 -21 -20 -30
-20 -9 0 -22 -9 -30 -20 -8 -11 -21 -20 -30 -20 -9 0 -22 -9 -30 -20 -8 -11
-21 -20 -30 -20 -9 0 -22 -9 -30 -20 -8 -11 -22 -20 -32 -20 -10 0 -18 -4 -18
-10 0 -5 -8 -10 -18 -10 -10 0 -24 -9 -32 -20 -8 -11 -21 -20 -30 -20 -9 0
-22 -9 -30 -20 -8 -11 -22 -20 -32 -20 -10 0 -18 -4 -18 -10 0 -5 -8 -10 -18
-10 -10 0 -24 -9 -32 -20 -8 -11 -21 -20 -30 -20 -9 0 -22 -9 -30 -20 -8 -11
-21 -20 -30 -20 -9 0 -22 -9 -30 -20 -8 -11 -21 -20 -28 -20 -8 0 -27 -13 -42
-30 -15 -16 -34 -30 -42 -30 -7 0 -20 -9 -28 -20 -8 -11 -21 -20 -28 -20 -8 0
-27 -13 -42 -30 -15 -16 -34 -30 -42 -30 -7 0 -20 -9 -28 -20 -8 -11 -21 -20
-28 -20 -8 0 -27 -13 -42 -30 -15 -16 -34 -30 -42 -30 -7 0 -20 -9 -28 -20 -8
-11 -21 -20 -30 -20 -9 0 -22 -9 -30 -20 -8 -11 -21 -20 -30 -20 -9 0 -22 -9
-30 -20 -8 -11 -21 -20 -30 -20 -9 0 -22 -9 -30 -20 -8 -11 -21 -20 -30 -20
-9 0 -22 -9 -30 -20 -8 -11 -21 -20 -30 -20 -9 0 -22 -9 -30 -20 -8 -11 -21
-20 -30 -20 -9 0 -22 -9 -30 -20 -8 -11 -21 -20 -30 -20 -9 0 -22 -9 -30 -20
-8 -11 -22 -20 -32 -20 -10 0 -18 -4 -18 -10 0 -5 -8 -10 -18 -10 -10 0 -24
-9 -32 -20 -8 -11 -22 -20 -32 -20 -10 0 -18 -4 -18 -10 0 -5 -8 -10 -18 -10
-10 0 -24 -9 -32 -20 -8 -11 -22 -20 -32 -20 -10 0 -18 -4 -18 -10 0 -5 -8
-10 -18 -10 -10 0 -24 -9 -32 -20 -8 -11 -22 -20 -32 -20 -10 0 -18 -4 -18
-10 0 -5 -9 -10 -20 -10 -11 0 -20 -4 -20 -10 0 -5 -9 -10 -20 -10 -11 0 -20
-4 -20 -10 0 -5 -9 -10 -20 -10 -11 0 -20 -4 -20 -10 0 -5 -16 -10 -36 -10
-35 0 -64 18 -64 39 0 15 126 141 141 141 6 0 24 14 39 30 15 17 33 30 40 30
7 0 25 14 40 30 15 17 34 30 42 30 7 0 20 9 28 20 8 11 21 20 30 20 9 0 22 9
30 20 8 11 21 20 28 20 8 0 27 14 42 30 15 17 34 30 42 30 7 0 20 9 28 20 8
11 21 20 28 20 8 0 27 14 42 30 15 17 33 30 40 30 7 0 25 14 40 30 15 17 33
30 40 30 7 0 25 14 40 30 15 17 33 30 40 30 7 0 25 14 40 30 15 17 33 30 40
30 7 0 25 14 40 30 15 17 33 30 40 30 7 0 25 14 40 30 15 17 33 30 40 30 7 0
25 14 40 30 15 17 34 30 42 30 7 0 20 9 28 20 8 11 21 20 28 20 8 0 27 14 42
30 15 17 34 30 42 30 7 0 20 9 28 20 8 11 21 20 28 20 8 0 27 14 42 30 15 17
34 30 42 30 7 0 20 9 28 20 8 11 21 20 30 20 9 0 22 9 30 20 8 11 21 20 30 20
9 0 22 9 30 20 8 11 21 20 30 20 9 0 22 9 30 20 8 11 22 20 32 20 10 0 18 5
18 10 0 6 8 10 18 10 10 0 24 9 32 20 8 11 21 20 30 20 9 0 22 9 30 20 8 11
22 20 32 20 10 0 18 5 18 10 0 6 8 10 18 10 10 0 24 9 32 20 8 11 21 20 30 20
9 0 22 9 30 20 8 11 21 20 28 20 8 0 27 14 42 30 15 17 34 30 42 30 7 0 20 9
28 20 8 11 21 20 30 20 9 0 22 9 30 20 8 11 22 20 32 20 10 0 18 5 18 10 0 6
9 10 20 10 11 0 20 5 20 10 0 6 14 10 30 10 17 0 30 5 30 10 0 6 14 10 30 10
17 0 30 -4 30 -10 0 -5 23 -10 50 -10 28 0 50 -4 50 -10 0 -5 9 -10 20 -10 11
0 20 -4 20 -10 0 -5 9 -10 20 -10 11 0 20 -4 20 -10 0 -5 8 -10 18 -10 10 0
24 -9 32 -20 8 -11 21 -20 30 -20 9 0 22 -9 30 -20 8 -11 22 -20 32 -20 10 0
18 -4 18 -10 0 -5 9 -10 20 -10 11 0 20 -4 20 -10 0 -5 23 -10 50 -10 28 0 50
5 50 10 0 6 9 10 20 10 11 0 20 5 20 10 0 6 8 10 18 10 10 0 24 9 32 20 8 11
22 20 32 20 10 0 18 5 18 10 0 6 8 10 18 10 10 0 24 9 32 20 8 11 21 20 30 20
9 0 22 9 30 20 8 11 21 20 28 20 8 0 27 14 42 30 15 17 33 30 40 30 7 0 25 14
40 30 15 17 33 30 39 30 7 0 47 36 91 80 44 44 84 80 90 80 7 0 29 18 50 40
21 22 45 40 52 40 7 0 20 9 28 20 8 11 22 20 32 20 10 0 18 5 18 10 0 6 8 10
18 10 10 0 24 9 32 20 8 11 22 20 32 20 10 0 18 5 18 10 0 6 8 10 18 10 10 0
24 9 32 20 8 11 21 20 28 20 8 0 27 14 42 30 15 17 33 30 40 30 6 0 33 23 60
50 27 28 55 50 62 50 8 0 20 9 28 20 8 11 22 20 32 20 10 0 18 5 18 10 0 6 9
10 20 10 11 0 20 5 20 10 0 6 14 10 30 10 17 0 30 5 30 10 0 6 23 10 50 10 28
0 50 -4 50 -10z m-694 -1084 c16 -17 19 -66 4 -66 -5 0 -10 -9 -10 -20 0 -11
-4 -20 -10 -20 -5 0 -10 -9 -10 -20 0 -11 -4 -20 -10 -20 -5 0 -10 -7 -10 -16
0 -9 -13 -29 -30 -44 -16 -15 -30 -33 -30 -39 0 -14 -306 -321 -320 -321 -14
0 -100 -86 -100 -100 0 -16 47 -60 65 -60 8 0 15 -4 15 -10 0 -5 9 -10 20 -10
11 0 20 -4 20 -10 0 -5 9 -10 20 -10 11 0 20 -4 20 -10 0 -5 14 -10 30 -10 17
0 30 -4 30 -10 0 -5 14 -10 30 -10 17 0 30 -4 30 -10 0 -5 14 -10 30 -10 17 0
30 -4 30 -10 0 -5 14 -10 30 -10 17 0 30 -4 30 -10 0 -5 14 -10 30 -10 17 0
30 -4 30 -10 0 -5 14 -10 30 -10 17 0 30 -4 30 -10 0 -5 9 -10 20 -10 11 0 20
-4 20 -10 0 -5 14 -10 30 -10 17 0 30 -4 30 -10 0 -5 14 -10 30 -10 17 0 30
-4 30 -10 0 -5 9 -10 20 -10 11 0 20 -4 20 -10 0 -5 9 -10 20 -10 11 0 20 -4
20 -10 0 -5 9 -10 20 -10 11 0 20 -4 20 -10 0 -5 7 -10 15 -10 20 0 125 -105
125 -125 0 -8 5 -15 10 -15 15 0 12 -49 -4 -66 -8 -8 -22 -14 -30 -14 -9 0
-16 -4 -16 -10 0 -5 -13 -10 -30 -10 -16 0 -30 5 -30 10 0 6 -9 10 -20 10 -11
0 -20 5 -20 10 0 6 -13 10 -30 10 -16 0 -30 5 -30 10 0 6 -9 10 -20 10 -11 0
-20 5 -20 10 0 6 -9 10 -20 10 -11 0 -20 5 -20 10 0 6 -9 10 -20 10 -11 0 -20
5 -20 10 0 6 -9 10 -20 10 -11 0 -20 5 -20 10 0 6 -9 10 -20 10 -11 0 -20 5
-20 10 0 6 -9 10 -20 10 -11 0 -20 5 -20 10 0 6 -9 10 -20 10 -11 0 -20 5 -20
10 0 6 -13 10 -30 10 -16 0 -30 5 -30 10 0 6 -9 10 -20 10 -11 0 -20 5 -20 10
0 6 -13 10 -30 10 -16 0 -30 5 -30 10 0 6 -9 10 -20 10 -11 0 -20 5 -20 10 0
6 -13 10 -30 10 -16 0 -30 5 -30 10 0 6 -13 10 -30 10 -16 0 -30 5 -30 10 0 6
-13 10 -30 10 -16 0 -30 5 -30 10 0 6 -13 10 -30 10 -16 0 -30 5 -30 10 0 6
-9 10 -20 10 -11 0 -20 5 -20 10 0 6 -9 10 -20 10 -11 0 -20 5 -20 10 0 6 -7
10 -15 10 -26 0 -105 86 -105 115 0 14 -4 25 -10 25 -5 0 -10 18 -10 40 0 22
5 40 10 40 6 0 10 9 10 20 0 11 5 20 10 20 6 0 10 7 10 15 0 17 124 145 140
145 6 0 33 23 60 50 27 28 54 50 60 50 6 0 42 32 80 70 38 39 75 70 82 71 7 0
60 49 118 109 58 60 111 109 118 109 7 1 20 -5 28 -13z m-1640 -480 c8 -8 14
-19 14 -25 0 -15 -126 -141 -141 -141 -6 0 -24 -13 -39 -30 -15 -16 -34 -30
-42 -30 -7 0 -20 -9 -28 -20 -8 -11 -21 -20 -30 -20 -9 0 -22 -9 -30 -20 -8
-11 -21 -20 -28 -20 -8 0 -27 -13 -42 -30 -15 -16 -34 -30 -42 -30 -7 0 -20
-9 -28 -20 -8 -11 -21 -20 -28 -20 -8 0 -27 -13 -42 -30 -15 -16 -34 -30 -42
-30 -7 0 -20 -9 -28 -20 -8 -11 -21 -20 -30 -20 -9 0 -22 -9 -30 -20 -8 -11
-22 -20 -32 -20 -10 0 -18 -4 -18 -10 0 -5 -8 -10 -18 -10 -10 0 -24 -9 -32
-20 -8 -11 -21 -20 -30 -20 -9 0 -22 -9 -30 -20 -8 -11 -22 -20 -32 -20 -10 0
-18 -4 -18 -10 0 -15 -49 -12 -66 4 -16 17 -19 46 -4 46 6 0 10 7 10 15 0 17
224 245 241 245 6 0 28 18 49 40 21 22 45 40 52 40 7 0 20 9 28 20 8 11 21 20
28 20 8 0 27 14 42 30 15 17 35 30 44 30 9 0 16 5 16 10 0 6 8 10 18 10 10 0
24 9 32 20 8 11 22 20 32 20 10 0 18 5 18 10 0 6 9 10 20 10 11 0 20 5 20 10
0 6 9 10 20 10 11 0 20 5 20 10 0 6 9 10 20 10 11 0 20 5 20 10 0 6 9 10 20
10 11 0 20 5 20 10 0 6 9 10 20 10 11 0 20 5 20 10 0 16 89 12 106 -4z"/>
<path d="M5200 6190 c0 -80 -4 -130 -10 -130 -5 0 -10 -18 -10 -40 0 -22 -4
-40 -10 -40 -5 0 -10 -18 -10 -40 0 -22 -4 -40 -10 -40 -5 0 -10 -13 -10 -30
0 -16 -4 -30 -10 -30 -5 0 -10 -9 -10 -20 0 -11 -4 -20 -10 -20 -5 0 -10 -9
-10 -20 0 -11 -4 -20 -10 -20 -5 0 -10 -9 -10 -20 0 -11 -4 -20 -10 -20 -5 0
-10 -9 -10 -20 0 -11 -4 -20 -10 -20 -5 0 -10 -8 -10 -18 0 -10 -9 -24 -20
-32 -11 -8 -20 -22 -20 -32 0 -10 -4 -18 -10 -18 -5 0 -10 -8 -10 -18 0 -10
-9 -24 -20 -32 -11 -8 -20 -21 -20 -28 0 -8 -13 -27 -30 -42 -16 -15 -30 -34
-30 -42 0 -7 -9 -20 -20 -28 -11 -8 -20 -21 -20 -28 0 -7 -18 -31 -40 -52 -22
-21 -40 -44 -40 -50 0 -6 -18 -29 -40 -50 -22 -21 -40 -44 -40 -50 0 -6 -18
-29 -40 -50 -22 -21 -40 -44 -40 -50 0 -6 -18 -29 -40 -50 -22 -21 -40 -44
-40 -50 0 -7 -13 -25 -30 -40 -16 -15 -30 -33 -30 -40 0 -7 -13 -25 -30 -40
-16 -15 -30 -35 -30 -44 0 -9 -4 -16 -10 -16 -5 0 -10 -8 -10 -18 0 -10 -9
-24 -20 -32 -11 -8 -20 -22 -20 -32 0 -10 -4 -18 -10 -18 -5 0 -10 -9 -10 -20
0 -11 -4 -20 -10 -20 -5 0 -10 -9 -10 -20 0 -11 -4 -20 -10 -20 -5 0 -10 -9
-10 -20 0 -11 -4 -20 -10 -20 -5 0 -10 -13 -10 -30 0 -16 -4 -30 -10 -30 -5 0
-10 -13 -10 -30 0 -16 -4 -30 -10 -30 -6 0 -10 -63 -10 -170 0 -107 4 -170 10
-170 6 0 10 -13 10 -30 0 -16 5 -30 10 -30 6 0 10 -13 10 -30 0 -16 5 -30 10
-30 6 0 10 -9 10 -20 0 -11 5 -20 10 -20 6 0 10 -9 10 -20 0 -11 5 -20 10 -20
6 0 10 -9 10 -20 0 -11 5 -20 10 -20 6 0 10 -7 10 -16 0 -9 14 -29 30 -44 17
-15 30 -33 30 -39 0 -15 126 -141 141 -141 6 0 24 -13 39 -30 15 -16 35 -30
44 -30 9 0 16 -4 16 -10 0 -5 8 -10 18 -10 10 0 24 -9 32 -20 15 -21 50 -28
50 -10 0 6 -4 10 -10 10 -5 0 -10 9 -10 20 0 11 -4 20 -10 20 -5 0 -10 9 -10
20 0 11 -4 20 -10 20 -5 0 -10 14 -10 30 0 17 -4 30 -10 30 -6 0 -10 27 -10
60 0 33 -4 60 -10 60 -6 0 -10 43 -10 110 0 67 4 110 10 110 6 0 10 23 10 50
0 28 5 50 10 50 6 0 10 18 10 40 0 22 5 40 10 40 6 0 10 14 10 30 0 17 5 30
10 30 6 0 10 9 10 20 0 11 5 20 10 20 6 0 10 9 10 20 0 11 5 20 10 20 6 0 10
9 10 20 0 11 5 20 10 20 6 0 10 8 10 18 0 10 9 24 20 32 11 8 20 21 20 30 0 9
9 22 20 30 11 8 20 21 20 30 0 9 9 22 20 30 11 8 20 21 20 30 0 9 9 22 20 30
11 8 20 21 20 28 0 8 14 27 30 42 17 15 30 34 30 42 0 7 9 20 20 28 11 8 20
22 20 32 0 10 5 18 10 18 6 0 10 9 10 20 0 11 5 20 10 20 6 0 10 9 10 20 0 11
5 20 10 20 6 0 10 7 10 16 0 25 26 44 60 44 34 0 60 -19 60 -44 0 -9 5 -16 10
-16 6 0 10 -9 10 -20 0 -11 5 -20 10 -20 6 0 10 -13 10 -30 0 -16 5 -30 10
-30 6 0 10 -43 10 -110 0 -67 4 -110 10 -110 6 0 10 -37 10 -90 0 -53 4 -90
10 -90 6 0 10 -18 10 -40 0 -22 5 -40 10 -40 6 0 10 -13 10 -30 0 -16 5 -30
10 -30 6 0 10 -9 10 -20 0 -11 5 -20 10 -20 6 0 10 -9 10 -20 0 -11 5 -20 10
-20 6 0 10 -9 10 -20 0 -11 5 -20 10 -20 6 0 10 -7 10 -15 0 -9 29 -45 65 -80
59 -60 68 -65 108 -65 31 0 46 5 57 20 8 11 20 20 28 20 17 0 62 45 62 62 0 8
9 20 20 28 11 8 20 22 20 32 0 10 5 18 10 18 6 0 10 14 10 30 0 17 5 30 10 30
6 0 10 7 10 15 0 18 44 65 60 65 16 0 80 -67 80 -85 0 -8 5 -15 10 -15 6 0 10
-9 10 -20 0 -11 5 -20 10 -20 6 0 10 -13 10 -30 0 -16 5 -30 10 -30 6 0 10
-18 10 -40 0 -22 5 -40 10 -40 6 0 10 -57 10 -150 0 -93 -4 -150 -10 -150 -5
0 -10 -18 -10 -40 0 -22 2 -40 5 -40 12 0 215 211 215 223 0 7 9 19 20 27 11
8 20 21 20 30 0 9 9 22 20 30 11 8 20 22 20 32 0 10 5 18 10 18 6 0 10 14 10
30 0 17 5 30 10 30 6 0 10 9 10 20 0 11 5 20 10 20 6 0 10 14 10 30 0 17 5 30
10 30 6 0 10 23 10 50 0 28 5 50 10 50 6 0 10 60 10 160 0 100 -4 160 -10 160
-5 0 -10 23 -10 50 0 28 -4 50 -10 50 -5 0 -10 18 -10 40 0 22 -4 40 -10 40
-5 0 -10 14 -10 30 0 17 -4 30 -10 30 -5 0 -10 9 -10 20 0 11 -4 20 -10 20 -5
0 -10 14 -10 30 0 17 -4 30 -10 30 -5 0 -10 9 -10 20 0 11 -4 20 -10 20 -5 0
-10 9 -10 20 0 11 -4 20 -10 20 -5 0 -10 8 -10 18 0 10 -9 24 -20 32 -11 8
-20 22 -20 32 0 10 -4 18 -10 18 -5 0 -10 9 -10 20 0 11 -4 20 -10 20 -5 0
-10 -9 -10 -20 0 -11 -4 -20 -10 -20 -5 0 -10 -13 -10 -30 0 -16 -4 -30 -10
-30 -5 0 -10 -9 -10 -20 0 -11 -4 -20 -10 -20 -5 0 -10 -9 -10 -20 0 -11 -4
-20 -10 -20 -5 0 -10 -7 -10 -15 0 -19 -144 -165 -163 -165 -7 0 -19 -9 -27
-20 -8 -11 -22 -20 -32 -20 -10 0 -18 -4 -18 -10 0 -5 -9 -10 -20 -10 -11 0
-20 -4 -20 -10 0 -5 -9 -10 -20 -10 -11 0 -20 -4 -20 -10 0 -6 -28 -10 -65
-10 -57 0 -69 3 -90 25 -23 22 -25 32 -25 120 0 57 4 95 10 95 6 0 10 27 10
60 0 33 4 60 10 60 6 0 10 33 10 80 0 47 4 80 10 80 6 0 10 53 10 140 0 87 -4
140 -10 140 -6 0 -10 30 -10 70 0 40 -4 70 -10 70 -5 0 -10 18 -10 40 0 22 -4
40 -10 40 -5 0 -10 18 -10 40 0 22 -4 40 -10 40 -5 0 -10 9 -10 20 0 11 -4 20
-10 20 -5 0 -10 14 -10 30 0 17 -4 30 -10 30 -5 0 -10 9 -10 20 0 11 -4 20
-10 20 -5 0 -10 9 -10 20 0 11 -4 20 -10 20 -5 0 -10 9 -10 20 0 11 -4 20 -10
20 -5 0 -10 8 -10 18 0 10 -9 24 -20 32 -11 8 -20 21 -20 30 0 9 -9 22 -20 30
-11 8 -20 21 -20 28 0 8 -13 27 -30 42 -16 15 -30 33 -30 39 0 11 -124 141
-135 141 -3 0 -5 -58 -5 -130z"/>
</g>
</svg>
