<svg xmlns="http://www.w3.org/2000/svg" viewBox="0 0 671.000000 369.317417" fill="currentColor" aria-hidden="true">
<g transform="translate(-21.000000,369.317417) scale(0.100000,-0.100000)" fill="currentColor" stroke="none">
<path d="M214 3691 c-2 -2 -4 -834 -4 -1848 l0 -1843 1623 0 c892 0 1617 4
1611 8 -22 15 -44 58 -44 84 0 21 8 33 33 48 42 26 69 25 95 -3 28 -30 28 -76
1 -111 -27 -35 -14 -33 19 2 15 16 34 31 42 34 12 4 9 15 -15 61 l-30 56 24
44 c23 42 23 44 6 77 -24 47 -17 138 18 214 24 53 27 70 27 171 0 90 3 117 16
129 20 20 33 20 55 0 17 -16 19 -15 29 12 13 34 5 94 -13 94 -7 0 -21 -7 -31
-15 -27 -21 -43 -19 -70 8 -33 33 -46 168 -21 216 9 18 22 34 30 37 11 5 13
28 11 109 l-3 103 -37 33 c-36 31 -38 35 -32 78 5 39 1 55 -27 106 -34 63 -32
62 -104 49 -64 -13 -101 61 -72 144 9 25 8 36 -5 54 -23 32 -20 56 14 142 27
68 29 80 20 114 -14 46 -6 68 43 121 42 45 52 48 85 25 28 -20 26 -56 -4 -64
l-22 -5 22 -45 c18 -40 27 -47 74 -63 30 -9 77 -18 106 -20 48 -2 57 2 110 41
31 24 71 48 89 54 18 6 85 62 154 130 107 103 127 118 156 118 42 0 57 15 57
57 0 39 33 78 75 89 38 9 102 -12 121 -41 12 -18 25 -25 50 -25 26 0 39 -8 60
-34 24 -30 32 -33 63 -29 30 4 41 0 64 -23 23 -23 28 -35 24 -64 -2 -19 -7
-43 -11 -53 -7 -14 -3 -17 21 -17 19 0 38 -9 54 -26 l24 -26 -34 -29 c-31 -26
-33 -29 -15 -35 24 -9 124 -105 124 -120 0 -6 -9 -19 -19 -28 -19 -17 -19 -19
9 -72 16 -29 32 -75 36 -101 4 -27 18 -63 32 -81 17 -23 27 -50 30 -86 5 -63
-16 -111 -83 -186 -96 -108 -100 -137 -31 -241 50 -75 53 -90 30 -164 -8 -27
-21 -120 -30 -205 -8 -85 -19 -186 -24 -225 -5 -38 -10 -99 -10 -135 0 -36 -7
-87 -15 -114 -11 -34 -12 -59 -6 -82 7 -26 5 -35 -11 -51 -14 -14 -22 -43 -29
-99 -9 -72 -13 -82 -44 -111 l-35 -33 1125 0 1125 0 0 1845 0 1845 -3351 2
c-1843 2 -3353 1 -3355 -1z m4571 -821 c14 -5 50 -28 80 -51 78 -59 113 -61
214 -14 113 53 150 32 70 -40 -108 -97 -227 -100 -343 -6 -52 41 -87 40 -162
-5 -96 -60 -114 -68 -126 -56 -14 14 4 42 58 95 72 71 150 99 209 77z m-1270
-196 c9 -4 24 -23 35 -44 28 -55 70 -85 147 -105 93 -23 113 -32 113 -49 0
-24 -34 -36 -97 -36 -78 0 -147 33 -200 96 l-42 48 -83 -80 c-105 -100 -157
-119 -253 -93 -38 11 -107 69 -117 99 -3 10 -17 4 -54 -27 -71 -60 -147 -93
-215 -93 -39 0 -61 5 -70 16 -16 20 -3 29 54 38 64 10 148 56 207 111 93 87
114 89 148 12 51 -113 138 -113 251 2 64 66 124 111 148 111 6 0 19 -3 28 -6z
m1903 -430 c12 -8 22 -21 22 -28 0 -7 14 -33 31 -59 22 -33 42 -50 74 -63 58
-22 94 -8 140 55 65 89 74 94 101 62 63 -75 93 -99 144 -116 30 -10 60 -22 67
-27 18 -15 4 -36 -29 -43 -53 -12 -115 4 -165 42 l-46 36 -26 -31 c-83 -98
-212 -95 -303 6 -21 23 -38 45 -38 50 0 4 -4 13 -9 21 -7 10 -18 4 -50 -27
-72 -70 -202 -117 -217 -78 -9 23 9 41 56 55 26 8 66 35 108 75 60 57 97 85
112 86 3 0 16 -7 28 -16z m-2485 -304 c34 -23 77 -42 103 -46 72 -11 85 -57
18 -70 -52 -10 -103 3 -167 42 l-58 36 -52 -35 c-94 -64 -157 -69 -249 -20
-52 29 -64 46 -42 64 11 9 28 8 79 -6 77 -20 95 -17 165 31 92 63 112 64 203
4z m2821 -322 c37 -16 44 -48 15 -68 -56 -36 -72 -59 -65 -98 7 -46 37 -72 83
-72 37 0 55 15 152 129 24 29 61 61 82 71 46 24 112 26 133 5 14 -14 13 -20
-6 -59 -18 -38 -19 -46 -7 -71 19 -38 73 -64 159 -77 77 -11 95 -27 66 -56
-26 -26 -148 -22 -202 6 -57 29 -101 82 -109 132 -4 24 -12 39 -18 37 -7 -2
-38 -37 -69 -77 -68 -88 -115 -120 -178 -120 -92 0 -160 64 -160 151 0 26 5
60 10 74 10 26 9 27 -17 21 -46 -12 -100 -52 -191 -145 -123 -123 -228 -171
-315 -142 -36 12 -56 39 -34 46 6 2 38 6 70 8 79 8 124 36 241 157 118 121
185 160 278 160 31 0 68 -5 82 -12z m-2926 -204 c35 -7 72 -38 72 -59 0 -8
-16 -25 -35 -37 -67 -44 -68 -108 -3 -163 61 -51 135 -39 177 29 29 46 97 106
120 106 23 0 35 -15 50 -61 15 -48 37 -66 102 -87 82 -26 80 -72 -4 -72 -54 0
-98 22 -138 69 l-36 41 -32 -49 c-35 -55 -95 -91 -150 -91 -139 0 -248 131
-208 248 13 37 13 42 -1 42 -40 0 -103 -54 -172 -146 -102 -136 -183 -183
-299 -171 -52 6 -95 30 -88 51 2 7 28 10 69 8 109 -6 165 31 274 179 70 95
121 136 192 155 56 15 70 16 110 8z m2569 -536 c4 -7 8 -41 8 -75 0 -51 4 -66
24 -87 62 -65 136 -53 194 32 47 69 113 134 133 130 20 -4 28 -18 44 -78 23
-84 93 -126 234 -139 45 -5 62 -10 64 -22 4 -24 -47 -39 -132 -39 -106 0 -185
43 -236 128 -9 16 -11 15 -22 -3 -27 -48 -104 -113 -147 -125 -97 -26 -196 30
-230 130 l-18 55 -74 -71 c-41 -39 -88 -79 -106 -88 -61 -31 -155 -13 -140 28
4 10 18 16 36 16 52 0 84 20 172 106 103 100 173 137 196 102z m-2210 -199
c32 -29 82 -63 111 -76 61 -28 74 -49 46 -70 -38 -29 -123 -1 -194 63 -46 42
-66 40 -105 -11 -63 -83 -155 -94 -252 -30 -29 19 -55 35 -58 35 -3 0 -26 -15
-52 -34 -49 -34 -108 -56 -130 -49 -21 7 -15 39 10 50 12 6 53 36 91 67 38 31
72 56 77 56 19 0 63 -22 97 -50 21 -16 52 -33 70 -36 31 -6 38 -2 103 65 88
90 104 92 186 20z m2183 -519 c101 -60 143 -65 201 -24 60 41 81 11 32 -47
-31 -37 -78 -59 -125 -59 -36 0 -115 34 -175 74 -21 14 -46 26 -57 26 -11 0
-48 -19 -83 -41 -68 -45 -143 -63 -158 -38 -6 8 -2 17 10 23 10 6 39 26 64 44
161 114 168 115 291 42z"/>
<path d="M4362 113 c-19 -13 -28 -14 -43 -5 -27 17 -37 15 -55 -13 -11 -17
-14 -35 -10 -60 l7 -35 191 0 c160 0 189 2 179 14 -6 7 -29 16 -52 19 -30 4
-53 17 -89 51 -54 50 -87 58 -128 29z"/>
</g>
</svg>
