<svg xmlns="http://www.w3.org/2000/svg" viewBox="0 0 777.833760 480.004375" fill="currentColor" aria-hidden="true">
<g transform="translate(-152.000000,540.004375) scale(0.100000,-0.100000)" fill="currentColor" stroke="none">
<path d="M7923 5375 c-13 -13 -23 -31 -23 -40 0 -8 -4 -15 -10 -15 -5 0 -10
-13 -10 -30 0 -27 -3 -30 -30 -30 -16 0 -30 5 -30 10 0 6 -22 10 -50 10 -27 0
-50 5 -50 10 0 6 -40 10 -100 10 -60 0 -100 -4 -100 -10 0 -5 -22 -10 -50 -10
-27 0 -50 -4 -50 -10 0 -5 -18 -10 -40 -10 -22 0 -40 -4 -40 -10 0 -5 -9 -10
-20 -10 -11 0 -20 -4 -20 -10 0 -5 -7 -10 -15 -10 -20 0 -105 -85 -105 -105 0
-8 -4 -15 -10 -15 -6 0 -10 -33 -10 -80 0 -47 4 -80 10 -80 6 0 10 -7 10 -15
0 -20 65 -85 85 -85 11 0 15 -11 15 -40 0 -22 -4 -40 -10 -40 -5 0 -10 -22
-10 -50 0 -27 5 -50 10 -50 6 0 10 -11 10 -25 0 -33 42 -75 75 -75 14 0 25 -4
25 -10 0 -6 33 -10 80 -10 47 0 80 4 80 10 0 6 27 10 60 10 33 0 60 4 60 10 0
6 33 10 80 10 47 0 80 -4 80 -10 0 -5 9 -10 20 -10 11 0 20 -4 20 -10 0 -5 8
-10 18 -10 10 0 24 -9 32 -20 8 -11 22 -20 32 -20 10 0 18 -4 18 -10 0 -5 8
-10 18 -10 10 0 24 -9 32 -20 8 -11 21 -20 30 -20 9 0 22 -9 30 -20 8 -11 21
-20 30 -20 9 0 22 -9 30 -20 8 -11 22 -20 32 -20 10 0 18 -4 18 -10 0 -5 8
-10 18 -10 10 0 24 -9 32 -20 8 -11 22 -20 32 -20 10 0 18 -4 18 -10 0 -5 9
-10 20 -10 11 0 20 -4 20 -10 0 -5 9 -10 20 -10 11 0 20 -4 20 -10 0 -5 9 -10
20 -10 11 0 20 -4 20 -10 0 -5 14 -10 30 -10 17 0 30 -4 30 -10 0 -6 27 -10
60 -10 33 0 60 4 60 10 0 6 9 10 20 10 11 0 20 5 20 10 0 6 7 10 16 10 28 0
44 27 44 74 0 25 5 46 10 46 6 0 10 18 10 40 0 22 5 40 10 40 6 0 10 9 10 20
0 11 5 20 10 20 6 0 10 14 10 30 0 17 5 30 10 30 6 0 10 14 10 30 0 17 -4 30
-10 30 -5 0 -10 18 -10 40 0 22 -4 40 -10 40 -5 0 -10 8 -10 18 0 10 -9 24
-20 32 -11 8 -20 21 -20 28 0 8 -13 27 -30 42 -26 25 -30 35 -30 84 0 31 -4
56 -10 56 -5 0 -10 9 -10 20 0 11 -4 20 -10 20 -5 0 -10 7 -10 15 0 20 -185
205 -205 205 -8 0 -15 5 -15 10 0 6 -7 10 -16 10 -8 0 -33 18 -54 40 -25 26
-47 40 -63 40 -14 0 -28 6 -31 13 -5 10 -7 10 -12 0 -10 -21 -34 -15 -64 17
-15 17 -35 30 -44 30 -9 0 -16 5 -16 10 0 6 -13 10 -30 10 -16 0 -30 5 -30 10
0 19 -55 9 -77 -15z m127 -255 c45 -47 95 -55 120 -20 20 27 30 25 30 -5 0
-29 40 -75 65 -75 8 0 15 -4 15 -10 0 -5 12 -10 26 -10 16 0 37 -12 54 -30 15
-16 33 -30 40 -30 24 0 40 -30 40 -74 0 -25 5 -46 10 -46 6 0 10 -17 10 -38 0
-26 6 -42 20 -52 11 -8 20 -21 20 -28 0 -7 18 -31 40 -52 35 -34 40 -44 40
-84 0 -25 -4 -46 -10 -46 -5 0 -10 -9 -10 -20 0 -11 -4 -20 -10 -20 -5 0 -10
-22 -10 -50 l0 -50 -40 0 c-22 0 -40 5 -40 10 0 6 -9 10 -20 10 -11 0 -20 5
-20 10 0 6 -9 10 -20 10 -11 0 -20 5 -20 10 0 6 -9 10 -20 10 -11 0 -20 5 -20
10 0 6 -9 10 -20 10 -11 0 -20 5 -20 10 0 6 -8 10 -18 10 -10 0 -24 9 -32 20
-8 11 -21 20 -30 20 -9 0 -22 9 -30 20 -8 11 -21 20 -30 20 -9 0 -22 9 -30 20
-8 11 -22 20 -32 20 -10 0 -18 5 -18 10 0 6 -8 10 -18 10 -10 0 -24 9 -32 20
-8 11 -22 20 -32 20 -10 0 -18 5 -18 10 0 6 -9 10 -20 10 -11 0 -20 5 -20 10
0 6 -9 10 -20 10 -11 0 -20 5 -20 10 0 6 -13 10 -30 10 -16 0 -30 5 -30 10 0
6 -43 10 -110 10 -67 0 -110 -4 -110 -10 0 -6 -30 -10 -70 -10 -40 0 -70 -4
-70 -10 0 -15 -29 -12 -46 4 -16 17 -19 46 -4 46 6 0 10 14 10 30 0 17 5 30
10 30 6 0 10 9 10 20 0 11 -4 20 -10 20 -5 0 -10 9 -10 20 0 11 -4 20 -10 20
-5 0 -10 7 -10 15 0 20 -45 65 -65 65 -11 0 -15 10 -15 36 0 42 19 64 54 64
14 0 26 5 26 10 0 6 18 10 40 10 22 0 40 5 40 10 0 6 50 10 130 10 80 0 130
-4 130 -10 0 -6 39 -10 98 -10 95 1 98 1 122 30 14 16 26 30 28 30 2 0 21 -18
42 -40z"/>
<path d="M5840 4910 c0 -5 -9 -10 -20 -10 -11 0 -20 -4 -20 -10 0 -5 -9 -10
-20 -10 -11 0 -20 -4 -20 -10 0 -5 -13 -10 -30 -10 -16 0 -30 -4 -30 -10 0 -5
-18 -10 -40 -10 -22 0 -40 -4 -40 -10 0 -6 -27 -10 -60 -10 -33 0 -60 -4 -60
-10 0 -5 -22 -10 -50 -10 -27 0 -50 -4 -50 -10 0 -5 -18 -10 -40 -10 -22 0
-40 -4 -40 -10 0 -5 -13 -10 -30 -10 -16 0 -30 -4 -30 -10 0 -5 -9 -10 -20
-10 -11 0 -20 -4 -20 -10 0 -5 -9 -10 -20 -10 -11 0 -20 -4 -20 -10 0 -5 -9
-10 -20 -10 -11 0 -20 -4 -20 -10 0 -5 -9 -10 -20 -10 -11 0 -20 -4 -20 -10 0
-5 -9 -10 -20 -10 -11 0 -20 -4 -20 -10 0 -5 -9 -10 -20 -10 -11 0 -20 -4 -20
-10 0 -5 -9 -10 -20 -10 -11 0 -20 -4 -20 -10 0 -5 -13 -10 -30 -10 -16 0 -30
-4 -30 -10 0 -5 -9 -10 -20 -10 -11 0 -20 -4 -20 -10 0 -5 -9 -10 -20 -10 -11
0 -20 -4 -20 -10 0 -5 -9 -10 -20 -10 -11 0 -20 -4 -20 -10 0 -5 -9 -10 -20
-10 -11 0 -20 -4 -20 -10 0 -5 -7 -10 -16 -10 -9 0 -29 -13 -44 -30 -15 -16
-33 -30 -40 -30 -7 0 -25 -13 -40 -30 -15 -16 -33 -30 -39 -30 -14 0 -161
-146 -161 -160 0 -16 -148 -160 -165 -160 -8 0 -15 -4 -15 -10 0 -5 -8 -10
-18 -10 -10 0 -24 -9 -32 -20 -8 -11 -21 -20 -30 -20 -9 0 -22 -9 -30 -20 -8
-11 -21 -20 -30 -20 -9 0 -22 -9 -30 -20 -8 -11 -21 -20 -28 -20 -7 0 -31 -18
-52 -40 -21 -22 -44 -40 -50 -40 -6 0 -29 -18 -50 -40 -21 -22 -44 -40 -50
-40 -7 0 -25 -13 -40 -30 -15 -16 -34 -30 -42 -30 -7 0 -20 -9 -28 -20 -8 -11
-20 -20 -28 -20 -18 0 -42 -25 -42 -44 0 -9 -4 -16 -10 -16 -5 0 -10 -9 -10
-20 0 -11 -4 -20 -10 -20 -6 0 -10 -30 -10 -70 0 -40 4 -70 10 -70 6 0 10 -9
10 -20 0 -11 5 -20 10 -20 6 0 10 -8 10 -18 0 -10 9 -24 20 -32 11 -8 20 -22
20 -32 0 -11 7 -18 18 -18 10 0 24 -9 32 -20 13 -18 26 -20 108 -20 102 0 122
-9 122 -54 0 -14 5 -26 10 -26 6 0 10 -9 10 -20 0 -11 5 -20 10 -20 6 0 10 -7
10 -15 0 -9 11 -27 25 -40 13 -14 31 -25 40 -25 8 0 15 -4 15 -10 0 -5 9 -10
20 -10 11 0 20 -4 20 -10 0 -6 27 -10 60 -10 33 0 60 4 60 10 0 6 7 10 15 10
20 0 65 45 65 65 0 8 5 15 10 15 6 0 10 9 10 20 0 11 5 20 10 20 6 0 10 9 10
20 0 11 5 20 10 20 6 0 10 7 10 15 0 9 20 36 45 60 24 25 51 45 60 45 8 0 15
5 15 10 0 6 23 10 50 10 28 0 50 -4 50 -10 0 -5 7 -10 15 -10 9 0 27 -11 40
-25 24 -23 25 -29 25 -160 0 -83 4 -135 10 -135 6 0 10 -18 10 -40 0 -22 5
-40 10 -40 6 0 10 -9 10 -20 0 -11 5 -20 10 -20 6 0 10 -8 10 -18 0 -10 9 -24
20 -32 11 -8 20 -20 20 -28 0 -17 25 -42 42 -42 8 0 20 -9 28 -20 8 -12 26
-20 42 -20 15 0 28 -4 28 -10 0 -5 14 -10 30 -10 17 0 30 -4 30 -10 0 -6 65
-10 175 -10 l176 0 34 -35 c19 -19 35 -40 35 -47 0 -8 9 -20 20 -28 11 -8 20
-20 20 -27 0 -19 126 -143 145 -143 8 0 15 -4 15 -10 0 -6 30 -10 70 -10 40 0
70 4 70 10 0 6 7 10 15 10 9 0 65 50 125 110 60 61 115 110 122 110 8 0 20 9
28 20 8 11 22 20 32 20 10 0 18 5 18 10 0 6 7 10 15 10 20 0 185 165 185 185
0 8 5 15 10 15 6 0 10 14 10 30 0 17 5 30 10 30 6 0 10 14 10 30 0 17 5 30 10
30 6 0 10 23 10 50 0 28 5 50 10 50 6 0 10 18 10 40 0 22 5 40 10 40 6 0 10
14 10 30 0 17 5 30 10 30 6 0 10 8 10 18 0 10 9 24 20 32 11 8 20 20 20 28 0
7 32 44 70 82 39 38 70 76 70 85 0 8 5 15 10 15 6 0 10 14 10 30 0 17 5 30 10
30 6 0 10 20 10 45 0 35 6 52 25 70 13 14 29 25 35 25 16 0 40 26 40 42 0 8 9
20 20 28 14 10 20 26 20 52 0 21 5 38 10 38 6 0 10 27 10 60 0 33 4 60 10 60
6 0 10 27 10 60 0 33 -4 60 -10 60 -5 0 -10 9 -10 20 0 11 -4 20 -10 20 -5 0
-10 7 -10 15 0 19 -44 65 -62 65 -8 0 -20 9 -28 20 -8 11 -22 20 -32 20 -10 0
-18 5 -18 10 0 6 -13 10 -30 10 -16 0 -30 5 -30 10 0 6 -9 10 -20 10 -11 0
-20 5 -20 10 0 6 -9 10 -20 10 -11 0 -20 5 -20 10 0 6 -9 10 -20 10 -11 0 -20
5 -20 10 0 6 -9 10 -20 10 -11 0 -20 5 -20 10 0 6 -13 10 -30 10 -16 0 -30 -4
-30 -10 0 -5 -7 -10 -15 -10 -9 0 -47 -31 -85 -70 -38 -38 -76 -70 -85 -70 -8
0 -15 -4 -15 -10 0 -6 -27 -10 -60 -10 -33 0 -60 4 -60 10 0 6 -8 10 -18 10
-10 0 -24 9 -32 20 -8 11 -22 20 -32 20 -10 0 -18 7 -18 15 0 18 44 65 60 65
16 0 40 26 40 42 0 8 9 20 20 28 12 8 20 26 20 42 0 15 5 28 10 28 6 0 10 18
10 40 0 22 -4 40 -10 40 -5 0 -10 11 -10 25 0 42 -41 75 -95 75 -25 0 -45 5
-45 10 0 6 7 10 15 10 20 0 85 65 85 85 0 8 5 15 10 15 6 0 10 9 10 20 0 11 5
20 10 20 6 0 10 14 10 30 0 17 -4 30 -10 30 -5 0 -10 7 -10 16 0 35 -26 44
-124 44 -57 0 -96 -4 -96 -10z m-80 -216 c0 -3 -22 -27 -50 -54 -44 -43 -50
-54 -50 -90 0 -30 6 -47 25 -65 22 -23 32 -25 110 -25 50 0 85 -4 85 -10 0 -5
-8 -10 -18 -10 -10 0 -24 -9 -32 -20 -8 -11 -20 -20 -28 -20 -7 0 -24 -11 -37
-25 -22 -21 -25 -33 -25 -90 0 -37 4 -65 10 -65 6 0 10 -7 10 -15 0 -20 105
-125 125 -125 8 0 15 -4 15 -10 0 -5 9 -10 20 -10 11 0 20 -4 20 -10 0 -5 9
-10 20 -10 11 0 20 -4 20 -10 0 -5 9 -10 20 -10 11 0 20 -4 20 -10 0 -6 33
-10 80 -10 47 0 80 4 80 10 0 6 13 10 28 10 16 0 34 8 42 20 8 11 20 20 28 20
7 0 35 23 62 50 45 46 80 64 80 40 0 -5 9 -10 20 -10 11 0 20 -4 20 -10 0 -5
14 -10 30 -10 17 0 30 -4 30 -10 0 -5 9 -10 20 -10 11 0 20 -4 20 -10 0 -5 9
-10 20 -10 11 0 20 -4 20 -10 0 -5 7 -10 16 -10 22 0 53 -32 36 -38 -6 -2 -12
-17 -12 -33 0 -16 -4 -29 -10 -29 -5 0 -10 -20 -10 -45 0 -35 -6 -52 -25 -70
-13 -14 -29 -25 -35 -25 -16 0 -60 -47 -60 -65 0 -8 -4 -15 -10 -15 -5 0 -10
-9 -10 -20 0 -11 -4 -20 -10 -20 -6 0 -10 -27 -10 -60 0 -33 -4 -60 -10 -60
-5 0 -10 -7 -10 -16 0 -8 -18 -33 -40 -54 -22 -21 -40 -44 -40 -50 0 -6 -18
-29 -40 -50 -22 -21 -40 -46 -40 -54 0 -9 -4 -16 -10 -16 -5 0 -10 -9 -10 -20
0 -11 -4 -20 -10 -20 -5 0 -10 -13 -10 -30 0 -16 -4 -30 -10 -30 -5 0 -10 -13
-10 -30 0 -16 -4 -30 -10 -30 -5 0 -10 -13 -10 -30 0 -16 -4 -30 -10 -30 -5 0
-10 -18 -10 -40 0 -22 -4 -40 -10 -40 -5 0 -10 -13 -10 -30 0 -16 -4 -30 -10
-30 -5 0 -10 -9 -10 -20 0 -11 -4 -20 -10 -20 -5 0 -10 -7 -10 -15 0 -19 -44
-65 -62 -65 -8 0 -20 -9 -28 -20 -8 -11 -21 -20 -30 -20 -9 0 -22 -9 -30 -20
-8 -11 -21 -20 -30 -20 -9 0 -22 -9 -30 -20 -8 -11 -20 -20 -27 -20 -16 0
-123 -105 -123 -120 0 -6 -16 -26 -35 -46 l-35 -35 -55 56 c-30 30 -55 60 -55
68 0 7 -9 19 -20 27 -11 8 -20 20 -20 28 0 18 -66 82 -85 82 -8 0 -15 5 -15
10 0 6 -9 10 -20 10 -11 0 -20 5 -20 10 0 6 -70 10 -190 10 -120 0 -190 4
-190 10 0 6 -12 10 -26 10 -28 0 -54 20 -54 42 0 8 -9 20 -20 28 -12 8 -20 26
-20 42 0 15 -4 28 -10 28 -5 0 -10 18 -10 40 0 22 -4 40 -10 40 -5 0 -10 14
-10 30 0 17 5 30 10 30 6 0 10 33 10 80 0 47 -4 80 -10 80 -5 0 -10 9 -10 20
0 11 -4 20 -10 20 -5 0 -10 7 -10 16 0 19 -24 44 -42 44 -8 0 -20 9 -28 20 -8
11 -22 20 -32 20 -10 0 -18 5 -18 10 0 6 -9 10 -20 10 -11 0 -20 5 -20 10 0 6
-13 10 -30 10 -16 0 -30 5 -30 10 0 6 -27 10 -60 10 -33 0 -60 -4 -60 -10 0
-5 -9 -10 -20 -10 -11 0 -20 -4 -20 -10 0 -5 -8 -10 -18 -10 -10 0 -24 -9 -32
-20 -8 -11 -20 -20 -27 -20 -8 0 -38 -25 -68 -55 -30 -30 -55 -60 -55 -68 0
-7 -9 -19 -20 -27 -11 -8 -20 -22 -20 -32 0 -10 -4 -18 -10 -18 -5 0 -10 -9
-10 -20 0 -23 -25 -27 -46 -6 -8 8 -14 26 -14 40 0 14 -4 26 -10 26 -5 0 -10
13 -10 28 0 16 -8 34 -20 42 -11 8 -20 22 -20 32 0 11 -7 18 -20 18 -11 0 -20
5 -20 10 0 6 -13 10 -30 10 -16 0 -30 5 -30 10 0 6 -32 10 -76 10 -86 0 -104
11 -104 60 0 32 19 60 40 60 7 0 25 14 40 30 15 17 34 30 42 30 7 0 20 9 28
20 8 11 21 20 28 20 8 0 27 14 42 30 15 17 33 30 40 30 7 0 25 14 40 30 15 17
34 30 42 30 7 0 20 9 28 20 8 11 21 20 30 20 9 0 22 9 30 20 8 11 22 20 32 20
10 0 18 5 18 10 0 6 8 10 18 10 10 0 24 9 32 20 8 11 21 20 28 20 8 0 27 14
42 30 15 17 33 30 39 30 14 0 121 106 121 120 0 14 167 180 181 180 6 0 24 14
39 30 15 17 35 30 44 30 9 0 16 5 16 10 0 6 8 10 18 10 10 0 24 9 32 20 8 11
22 20 32 20 10 0 18 5 18 10 0 6 9 10 20 10 11 0 20 5 20 10 0 6 9 10 20 10
11 0 20 5 20 10 0 6 9 10 20 10 11 0 20 5 20 10 0 6 9 10 20 10 11 0 20 5 20
10 0 6 9 10 20 10 11 0 20 5 20 10 0 6 9 10 20 10 11 0 20 5 20 10 0 6 9 10
20 10 11 0 20 5 20 10 0 6 9 10 20 10 11 0 20 5 20 10 0 6 14 10 30 10 17 0
30 5 30 10 0 6 9 10 20 10 11 0 20 5 20 10 0 6 14 10 30 10 17 0 30 5 30 10 0
6 9 10 20 10 11 0 20 5 20 10 0 6 18 10 40 10 22 0 40 5 40 10 0 6 23 10 50
10 28 0 50 5 50 10 0 6 18 10 40 10 22 0 40 5 40 10 0 6 9 10 20 10 11 0 20
-3 20 -6z"/>
<path d="M7980 2610 c0 -5 -12 -10 -26 -10 -17 0 -39 -14 -64 -40 -21 -22 -45
-40 -52 -40 -7 0 -20 -9 -28 -20 -8 -11 -22 -20 -32 -20 -10 0 -18 -4 -18 -10
0 -5 -9 -10 -20 -10 -11 0 -20 -4 -20 -10 0 -5 -9 -10 -20 -10 -11 0 -20 -4
-20 -10 0 -5 -7 -10 -16 -10 -18 0 -44 -23 -44 -40 0 -27 30 -40 94 -40 37 0
66 4 66 10 0 6 14 10 30 10 17 0 30 5 30 10 0 6 8 10 18 10 10 0 24 9 32 20 8
11 21 20 30 20 9 0 22 9 30 20 8 11 21 20 30 20 9 0 22 -9 30 -20 8 -11 21
-20 28 -20 8 0 27 -13 42 -30 15 -16 34 -30 42 -30 7 0 20 -9 28 -20 8 -11 22
-20 32 -20 10 0 18 -4 18 -10 0 -5 14 -10 30 -10 17 0 30 -4 30 -10 0 -6 40
-10 100 -10 60 0 100 4 100 10 0 6 14 10 30 10 17 0 30 5 30 10 0 6 8 10 18
10 10 0 24 9 32 20 8 11 21 20 28 20 8 0 27 14 42 30 15 17 35 30 43 30 9 0
18 6 21 13 5 10 7 10 12 0 3 -7 13 -13 23 -13 9 0 23 -9 31 -20 8 -11 22 -20
32 -20 10 0 18 -4 18 -10 0 -5 14 -10 30 -10 17 0 30 -4 30 -10 0 -5 14 -10
30 -10 17 0 30 -4 30 -10 0 -6 50 -10 130 -10 80 0 130 4 130 10 0 6 9 10 20
10 11 0 20 5 20 10 0 6 9 10 20 10 13 0 20 7 20 19 0 11 6 21 12 23 9 3 8 9
-4 21 -13 14 -37 17 -122 17 -64 0 -106 4 -106 10 0 6 -18 10 -40 10 -22 0
-40 5 -40 10 0 6 -8 10 -18 10 -10 0 -24 9 -32 20 -8 11 -21 20 -30 20 -9 0
-22 9 -30 20 -8 11 -22 20 -32 20 -10 0 -18 5 -18 10 0 6 -13 10 -30 10 -16 0
-30 5 -30 10 0 6 -22 10 -50 10 -27 0 -50 -4 -50 -10 0 -5 -8 -10 -18 -10 -10
0 -24 -9 -32 -20 -8 -11 -21 -20 -30 -20 -9 0 -22 -9 -30 -20 -8 -11 -21 -20
-30 -20 -9 0 -22 -9 -30 -20 -8 -11 -22 -20 -32 -20 -10 0 -18 -4 -18 -10 0
-6 -36 -10 -88 -10 -76 0 -89 3 -102 20 -8 11 -20 20 -28 20 -7 0 -35 23 -62
50 -27 28 -56 50 -64 50 -9 0 -16 5 -16 10 0 6 -13 10 -30 10 -16 0 -30 5 -30
10 0 6 -9 10 -20 10 -11 0 -20 -4 -20 -10z"/>
<path d="M2360 2430 c0 -5 -13 -10 -30 -10 -16 0 -30 -4 -30 -10 0 -5 -9 -10
-20 -10 -11 0 -20 -4 -20 -10 0 -5 -8 -10 -18 -10 -10 0 -24 -9 -32 -20 -8
-11 -22 -20 -32 -20 -10 0 -18 -4 -18 -10 0 -5 -9 -10 -20 -10 -11 0 -20 -4
-20 -10 0 -5 -13 -10 -30 -10 -16 0 -30 -4 -30 -10 0 -5 -13 -10 -30 -10 -16
0 -30 -4 -30 -10 0 -5 -13 -10 -30 -10 -16 0 -30 -4 -30 -10 0 -5 -7 -10 -15
-10 -20 0 -125 -105 -125 -125 0 -8 -4 -15 -10 -15 -5 0 -10 -9 -10 -20 0 -11
-4 -20 -10 -20 -6 0 -10 -27 -10 -60 l0 -60 -70 0 c-40 0 -70 -4 -70 -10 0 -5
-7 -10 -16 -10 -20 0 -44 -24 -44 -44 0 -9 -4 -16 -10 -16 -5 0 -10 -13 -10
-29 0 -16 -6 -32 -12 -35 -10 -5 -10 -7 0 -12 6 -3 12 -19 12 -35 0 -16 5 -29
10 -29 6 0 10 -9 10 -20 0 -11 5 -20 10 -20 6 0 10 -9 10 -20 0 -11 -4 -20
-10 -20 -5 0 -10 -9 -10 -20 0 -11 -4 -20 -10 -20 -5 0 -10 -13 -10 -30 0 -16
-4 -30 -10 -30 -5 0 -10 -22 -10 -50 0 -27 5 -50 10 -50 6 0 10 -7 10 -15 0
-26 66 -85 95 -85 14 0 25 -4 25 -10 0 -6 27 -10 60 -10 33 0 60 4 60 10 0 6
14 10 30 10 17 0 30 5 30 10 0 6 18 10 40 10 22 0 40 -4 40 -10 0 -5 9 -10 20
-10 11 0 20 -4 20 -10 0 -5 9 -10 20 -10 11 0 20 -4 20 -10 0 -5 9 -10 20 -10
11 0 20 -4 20 -10 0 -5 14 -10 30 -10 17 0 30 -4 30 -10 0 -6 33 -10 80 -10
47 0 80 4 80 10 0 6 9 10 20 10 13 0 20 7 20 20 0 11 5 20 10 20 6 0 10 14 10
30 0 17 -4 30 -10 30 -5 0 -10 11 -10 25 0 29 40 75 65 75 8 0 15 5 15 10 0 6
14 10 30 10 17 0 30 5 30 10 0 6 9 10 20 10 11 0 20 5 20 10 0 6 7 10 15 10
20 0 125 105 125 125 0 8 5 15 10 15 6 0 10 8 10 18 0 10 9 24 20 32 11 8 20
20 20 28 0 7 36 48 80 92 44 44 80 86 80 95 0 8 5 15 10 15 6 0 10 40 10 100
0 60 -4 100 -10 100 -5 0 -10 16 -10 35 0 29 -9 44 -45 80 -24 25 -51 45 -60
45 -8 0 -15 5 -15 10 0 6 -12 10 -26 10 -16 0 -37 12 -54 30 -15 17 -35 30
-44 30 -9 0 -16 5 -16 10 0 6 -9 10 -20 10 -11 0 -20 5 -20 10 0 6 -37 10 -90
10 -53 0 -90 -4 -90 -10z m130 -190 c8 -11 21 -20 30 -20 9 0 22 -9 30 -20 8
-12 26 -20 42 -20 15 0 28 -4 28 -10 0 -5 9 -10 20 -10 16 0 20 -7 20 -30 0
-16 5 -30 10 -30 6 0 10 -16 10 -36 0 -30 -9 -44 -60 -94 -33 -32 -60 -65 -60
-72 0 -8 -9 -20 -20 -28 -11 -8 -20 -21 -20 -30 0 -9 -9 -22 -20 -30 -11 -8
-20 -22 -20 -32 0 -10 -4 -18 -10 -18 -5 0 -10 -7 -10 -15 0 -20 -45 -65 -65
-65 -8 0 -15 -4 -15 -10 0 -5 -18 -10 -40 -10 -22 0 -40 -4 -40 -10 0 -5 -7
-10 -15 -10 -20 0 -85 -65 -85 -85 0 -8 -4 -15 -10 -15 -5 0 -10 -9 -10 -20 0
-11 -4 -20 -10 -20 -5 0 -10 -7 -10 -16 0 -19 -24 -44 -42 -44 -8 0 -20 9 -28
20 -8 11 -22 20 -32 20 -10 0 -18 5 -18 10 0 6 -9 10 -20 10 -11 0 -20 5 -20
10 0 6 -13 10 -30 10 -16 0 -30 5 -30 10 0 6 -27 10 -60 10 -33 0 -60 -4 -60
-10 0 -5 -22 -10 -50 -10 -27 0 -50 5 -50 10 0 6 5 10 10 10 6 0 10 9 10 20 0
11 5 20 10 20 6 0 10 30 10 70 0 40 -4 70 -10 70 -5 0 -10 9 -10 20 0 11 5 20
10 20 6 0 10 -4 10 -10 0 -5 20 -10 45 -10 39 0 51 5 80 35 27 26 35 43 35 70
0 19 5 35 10 35 15 0 12 97 -2 104 -10 5 -10 7 0 12 6 3 12 14 12 25 0 10 5
19 10 19 6 0 10 9 10 20 0 13 7 20 20 20 11 0 20 5 20 10 0 6 18 10 40 10 22
0 40 5 40 10 0 6 14 10 30 10 17 0 30 5 30 10 0 6 9 10 20 10 11 0 20 5 20 10
0 6 9 10 20 10 11 0 20 5 20 10 0 6 9 10 20 10 11 0 20 5 20 10 0 6 9 10 20
10 11 0 20 5 20 10 0 6 9 10 20 10 11 0 20 5 20 10 0 6 9 10 20 10 11 0 20 5
20 10 0 6 22 10 48 10 36 0 51 -5 62 -20z"/>
<path d="M5373 2205 c-29 -30 -33 -41 -33 -90 0 -30 5 -55 10 -55 6 0 10 -4
10 -10 0 -5 -9 -10 -20 -10 -11 0 -20 5 -20 10 0 6 -9 10 -20 10 -11 0 -20 5
-20 10 0 18 -31 10 -55 -15 -25 -24 -35 -75 -15 -75 6 0 10 -7 10 -15 0 -9 16
-31 35 -50 32 -33 38 -35 100 -35 37 0 65 4 65 10 0 6 7 10 15 10 26 0 85 66
85 95 0 14 5 25 10 25 6 0 10 30 10 70 0 40 -4 70 -10 70 -5 0 -10 7 -10 16 0
20 -24 44 -44 44 -9 0 -16 5 -16 10 0 24 -56 7 -87 -25z"/>
<path d="M6430 1560 c-8 -11 -20 -20 -28 -20 -7 0 -48 -36 -92 -80 -44 -44
-86 -80 -95 -80 -8 0 -15 -4 -15 -10 0 -5 -9 -10 -20 -10 -11 0 -20 -4 -20
-10 0 -5 -9 -10 -20 -10 -11 0 -20 -4 -20 -10 0 -5 -13 -10 -30 -10 -16 0 -30
-4 -30 -10 0 -6 -33 -10 -80 -10 -47 0 -80 -4 -80 -10 0 -5 -9 -10 -20 -10
-12 0 -20 -7 -20 -16 0 -20 24 -44 44 -44 9 0 16 -4 16 -10 0 -6 37 -10 90
-10 53 0 90 4 90 10 0 6 18 10 40 10 22 0 40 5 40 10 0 6 9 10 20 10 11 0 20
5 20 10 0 6 9 10 20 10 11 0 20 5 20 10 0 6 7 10 16 10 8 0 33 18 54 40 21 22
44 40 50 40 17 0 40 26 40 44 0 9 8 16 20 16 11 0 20 -7 20 -15 0 -19 64 -85
82 -85 8 0 20 -9 28 -20 8 -11 22 -20 32 -20 10 0 18 -4 18 -10 0 -5 9 -10 20
-10 11 0 20 -4 20 -10 0 -5 14 -10 30 -10 17 0 30 -4 30 -10 0 -6 43 -10 110
-10 67 0 110 4 110 10 0 6 14 10 30 10 17 0 30 5 30 10 0 6 9 10 20 10 11 0
20 5 20 10 0 6 9 10 20 10 11 0 20 5 20 10 0 6 8 10 18 10 10 0 24 9 32 20 8
11 21 20 28 20 8 0 27 14 42 30 15 17 35 30 44 30 9 0 16 5 16 10 0 6 9 10 20
10 11 0 20 -4 20 -10 0 -5 9 -10 20 -10 11 0 20 -4 20 -10 0 -5 9 -10 20 -10
11 0 20 -4 20 -10 0 -5 9 -10 20 -10 11 0 20 -4 20 -10 0 -5 9 -10 20 -10 11
0 20 -4 20 -10 0 -5 9 -10 20 -10 11 0 20 -4 20 -10 0 -5 18 -10 40 -10 22 0
40 -4 40 -10 0 -6 47 -10 120 -10 73 0 120 4 120 10 0 6 14 10 30 10 17 0 30
5 30 10 0 6 9 10 20 10 11 0 20 5 20 10 0 6 7 10 15 10 18 0 65 44 65 60 0 24
-30 40 -74 40 -25 0 -46 -4 -46 -10 0 -6 -47 -10 -120 -10 -73 0 -120 4 -120
10 0 6 -13 10 -30 10 -16 0 -30 5 -30 10 0 6 -13 10 -30 10 -16 0 -30 5 -30
10 0 6 -8 10 -18 10 -10 0 -24 9 -32 20 -8 11 -22 20 -32 20 -10 0 -18 5 -18
10 0 6 -9 10 -20 10 -11 0 -20 5 -20 10 0 6 -9 10 -20 10 -11 0 -20 5 -20 10
0 6 -27 10 -60 10 -33 0 -60 -4 -60 -10 0 -5 -8 -10 -18 -10 -10 0 -24 -9 -32
-20 -8 -11 -21 -20 -28 -20 -7 0 -31 -18 -52 -40 -21 -22 -46 -40 -54 -40 -9
0 -16 -4 -16 -10 0 -5 -9 -10 -20 -10 -11 0 -20 -4 -20 -10 0 -5 -9 -10 -20
-10 -11 0 -20 -4 -20 -10 0 -5 -13 -10 -30 -10 -16 0 -30 -4 -30 -10 0 -6 -27
-10 -60 -10 -33 0 -60 4 -60 10 0 6 -13 10 -30 10 -16 0 -30 5 -30 10 0 6 -7
10 -15 10 -17 0 -125 104 -125 120 0 6 -11 22 -25 35 -31 32 -84 34 -105 5z"/>
<path d="M2280 1210 c0 -5 -13 -10 -30 -10 -16 0 -30 -4 -30 -10 0 -5 -8 -10
-18 -10 -10 0 -24 -9 -32 -20 -8 -11 -20 -20 -28 -20 -17 0 -62 -45 -62 -62 0
-8 -9 -20 -20 -28 -11 -8 -20 -22 -20 -32 0 -10 -4 -18 -10 -18 -5 0 -10 -13
-10 -30 0 -16 -4 -30 -10 -30 -6 0 -10 -40 -10 -100 0 -60 4 -100 10 -100 6 0
10 -11 10 -25 0 -29 59 -95 85 -95 8 0 15 -4 15 -10 0 -5 14 -10 30 -10 17 0
30 5 30 10 0 6 9 10 20 10 11 0 20 5 20 10 0 6 7 10 15 10 18 0 85 64 85 80 0
16 26 40 42 40 8 0 20 -9 28 -20 8 -11 21 -20 30 -20 9 0 22 -9 30 -20 11 -15
26 -20 62 -20 26 0 48 -4 48 -10 0 -5 14 -10 30 -10 17 0 30 5 30 10 0 6 18
10 40 10 22 0 40 5 40 10 0 6 7 10 15 10 20 0 65 45 65 65 0 8 5 15 10 15 6 0
10 9 10 20 0 11 5 20 10 20 6 0 10 18 10 40 0 22 -4 40 -10 40 -5 0 -10 9 -10
20 0 11 -4 20 -10 20 -5 0 -10 9 -10 20 0 13 -7 20 -20 20 -11 0 -20 5 -20 10
0 6 -27 10 -60 10 -33 0 -60 -4 -60 -10 0 -5 -11 -10 -25 -10 -27 0 -75 40
-75 62 0 8 -9 20 -20 28 -11 8 -20 20 -20 27 0 8 -25 38 -55 68 -50 50 -58 55
-100 55 -25 0 -45 -4 -45 -10z m60 -186 c0 -9 14 -29 30 -44 17 -15 30 -33 30
-40 0 -16 25 -40 42 -40 8 0 20 -9 28 -20 8 -12 26 -20 42 -20 15 0 28 -4 28
-10 0 -5 18 -10 40 -10 22 0 40 -4 40 -10 0 -5 -18 -10 -40 -10 -22 0 -40 5
-40 10 0 6 -13 10 -30 10 -16 0 -30 5 -30 10 0 6 -9 10 -20 10 -11 0 -20 5
-20 10 0 6 -13 10 -30 10 -16 0 -30 5 -30 10 0 6 -13 10 -30 10 -16 0 -30 -4
-30 -10 0 -5 -9 -10 -20 -10 -11 0 -20 -4 -20 -10 0 -5 -7 -10 -16 -10 -8 0
-33 -18 -54 -40 -21 -22 -41 -40 -44 -40 -3 0 -6 23 -6 50 0 28 5 50 10 50 6
0 10 9 10 20 0 11 5 20 10 20 6 0 10 7 10 15 0 27 82 103 113 104 18 1 27 -4
27 -15z"/>
<path d="M8020 1050 c0 -5 -13 -10 -30 -10 -16 0 -30 -4 -30 -10 0 -5 -7 -10
-16 -10 -9 0 -29 -13 -44 -30 -15 -16 -35 -30 -44 -30 -9 0 -16 -4 -16 -10 0
-5 -13 -10 -30 -10 -16 0 -30 -4 -30 -10 0 -6 -43 -10 -110 -10 -67 0 -110 4
-110 10 0 6 -9 10 -20 10 -11 0 -20 5 -20 10 0 6 -9 10 -20 10 -11 0 -20 5
-20 10 0 6 -9 10 -20 10 -11 0 -20 5 -20 10 0 6 -9 10 -20 10 -11 0 -20 5 -20
10 0 6 -16 10 -35 10 -31 0 -46 -10 -115 -80 -44 -44 -85 -80 -92 -80 -8 0
-20 -9 -28 -20 -8 -11 -22 -20 -32 -20 -11 0 -18 -7 -18 -20 0 -16 7 -20 30
-20 17 0 30 5 30 10 0 6 14 10 30 10 17 0 30 5 30 10 0 6 8 10 18 10 10 0 24
9 32 20 8 11 21 20 30 20 9 0 22 9 30 20 8 11 21 20 30 20 9 0 22 -9 30 -20 8
-11 22 -20 32 -20 10 0 18 -4 18 -10 0 -5 9 -10 20 -10 11 0 20 -4 20 -10 0
-5 9 -10 20 -10 11 0 20 -4 20 -10 0 -5 14 -10 30 -10 17 0 30 -4 30 -10 0 -6
47 -10 120 -10 73 0 120 4 120 10 0 6 14 10 30 10 17 0 30 5 30 10 0 6 9 10
20 10 11 0 20 5 20 10 0 6 8 10 18 10 10 0 24 9 32 20 8 11 22 20 32 20 10 0
18 5 18 10 0 6 18 10 40 10 22 0 40 -4 40 -10 0 -5 9 -10 20 -10 11 0 20 -4
20 -10 0 -5 9 -10 20 -10 11 0 20 -4 20 -10 0 -5 14 -10 30 -10 17 0 30 -4 30
-10 0 -6 27 -10 60 -10 33 0 60 4 60 10 0 6 18 10 40 10 22 0 40 5 40 10 0 6
9 10 20 10 23 0 27 25 6 46 -8 8 -26 14 -40 14 -14 0 -26 5 -26 10 0 6 -27 10
-60 10 -33 0 -60 4 -60 10 0 6 -9 10 -20 10 -11 0 -20 5 -20 10 0 6 -8 10 -18
10 -10 0 -24 9 -32 20 -8 11 -22 20 -32 20 -10 0 -18 5 -18 10 0 6 -9 10 -20
10 -11 0 -20 5 -20 10 0 6 -13 10 -30 10 -16 0 -30 -4 -30 -10z"/>
</g>
</svg>
