<svg xmlns="http://www.w3.org/2000/svg" viewBox="0 0 670.000000 340.000000" fill="currentColor" aria-hidden="true">
<g transform="translate(0.000000,340.000000) scale(0.100000,-0.100000)" fill="currentColor" stroke="none">
<path d="M0 1700 l0 -1700 1264 0 c1196 0 1265 1 1270 18 2 9 10 132 15 272 6
140 13 272 16 292 l5 38 -47 0 c-60 -1 -462 -40 -783 -76 -317 -36 -316 -37
-341 114 -18 108 -15 449 5 577 10 60 24 124 31 142 l14 33 138 0 c76 0 284
-9 463 -20 179 -11 367 -20 418 -20 l94 0 -6 48 c-3 26 -11 103 -16 172 -6 69
-24 247 -40 395 -45 425 -46 455 -21 487 30 38 69 46 277 59 251 16 530 -7
577 -49 9 -8 17 -12 17 -7 0 4 7 2 16 -6 12 -10 14 -25 9 -73 -25 -266 -36
-422 -45 -616 -5 -124 -12 -264 -16 -312 l-6 -88 50 0 c26 0 219 16 428 35
639 59 601 57 634 40 39 -20 48 -56 61 -257 9 -125 8 -199 0 -299 -15 -169
-36 -288 -54 -306 -34 -34 -39 5 -48 349 -4 183 -11 352 -15 376 -6 40 -9 43
-33 38 -85 -17 -838 -76 -973 -76 -125 0 -138 10 -138 104 0 100 29 555 46
721 13 135 41 291 59 338 6 15 4 16 -16 8 -13 -5 -178 -15 -367 -21 -189 -6
-350 -14 -358 -17 -11 -4 -13 -16 -9 -47 3 -22 21 -212 40 -421 33 -358 44
-616 27 -641 -27 -41 -46 -41 -572 -3 -295 21 -405 33 -514 55 -38 8 -71 12
-74 10 -5 -6 17 -633 25 -692 5 -42 8 -45 32 -40 158 32 963 94 1042 81 40 -7
62 -26 73 -62 7 -20 -16 -482 -30 -600 l-5 -53 316 0 316 0 -6 53 c-33 293
-45 570 -25 607 16 30 60 33 351 20 544 -23 805 -57 763 -100 -13 -14 -192
-14 -474 0 -113 5 -285 10 -383 10 l-178 0 6 -47 c7 -68 55 -530 55 -537 0 -3
752 -6 1670 -6 l1670 0 0 1700 0 1700 -3350 0 -3350 0 0 -1700z"/>
</g>
</svg>
