<svg xmlns="http://www.w3.org/2000/svg" viewBox="0 0 839.799665 630.000000" fill="currentColor" aria-hidden="true">
<g transform="translate(-86.128647,677.000000) scale(0.100000,-0.100000)" fill="currentColor" stroke="none">
<path d="M5940 6760 c0 -5 -18 -10 -40 -10 -22 0 -40 -4 -40 -10 0 -5 -9 -10
-20 -10 -11 0 -20 -4 -20 -10 0 -5 -9 -10 -20 -10 -11 0 -20 -4 -20 -10 0 -5
-7 -10 -16 -10 -8 0 -37 -22 -64 -50 -27 -27 -56 -50 -64 -50 -9 0 -16 -7 -16
-16 0 -8 -18 -33 -40 -54 -22 -21 -40 -46 -40 -54 0 -9 -4 -16 -10 -16 -15 0
-12 -29 4 -46 17 -16 46 -19 46 -4 0 6 13 10 28 10 16 0 34 8 42 20 8 11 21
20 30 20 9 0 22 9 30 20 8 11 21 20 30 20 9 0 22 9 30 20 8 11 22 20 32 20 10
0 18 5 18 10 0 6 9 10 20 10 11 0 20 5 20 10 0 6 9 10 20 10 11 0 20 5 20 10
0 6 30 10 70 10 40 0 70 -4 70 -10 0 -5 7 -10 16 -10 8 0 33 -18 54 -40 21
-22 45 -40 52 -40 7 0 20 -9 28 -20 8 -11 22 -20 32 -20 10 0 18 -4 18 -10 0
-5 9 -10 20 -10 11 0 20 -4 20 -10 0 -5 14 -10 30 -10 17 0 30 -4 30 -10 0 -6
43 -10 110 -10 67 0 110 4 110 10 0 6 14 10 30 10 17 0 30 5 30 10 0 6 9 10
20 10 11 0 20 5 20 10 0 6 8 10 18 10 10 0 24 9 32 20 8 11 20 20 27 20 8 0
43 29 78 65 66 66 78 94 51 121 -16 16 -86 19 -86 4 0 -5 -9 -10 -20 -10 -11
0 -20 -4 -20 -10 0 -5 -9 -10 -20 -10 -11 0 -20 -4 -20 -10 0 -5 -9 -10 -20
-10 -11 0 -20 -4 -20 -10 0 -5 -9 -10 -20 -10 -11 0 -20 -4 -20 -10 0 -5 -9
-10 -20 -10 -11 0 -20 -4 -20 -10 0 -5 -13 -10 -30 -10 -16 0 -30 -4 -30 -10
0 -6 -30 -10 -70 -10 -40 0 -70 4 -70 10 0 6 -13 10 -28 10 -16 0 -34 8 -42
20 -8 11 -21 20 -28 20 -8 0 -27 14 -42 30 -15 17 -33 30 -40 30 -7 0 -25 14
-40 30 -15 17 -35 30 -44 30 -9 0 -16 5 -16 10 0 6 -13 10 -30 10 -16 0 -30 5
-30 10 0 6 -22 10 -50 10 -27 0 -50 -4 -50 -10z"/>
<path d="M3440 6360 c0 -5 -9 -10 -20 -10 -11 0 -20 -4 -20 -10 0 -5 -8 -10
-18 -10 -10 0 -24 -9 -32 -20 -8 -11 -20 -20 -27 -20 -16 0 -103 -85 -103
-100 0 -14 -107 -120 -121 -120 -6 0 -24 -13 -39 -30 -15 -16 -35 -30 -44 -30
-9 0 -16 -4 -16 -10 0 -5 -18 -10 -40 -10 -22 0 -40 -4 -40 -10 0 -5 -13 -10
-30 -10 -16 0 -30 5 -30 10 0 6 -16 10 -35 10 -29 0 -44 9 -80 45 -25 24 -45
51 -45 60 0 8 -4 15 -10 15 -5 0 -10 9 -10 20 0 11 -4 20 -10 20 -5 0 -10 11
-10 25 0 28 -40 75 -64 75 -8 0 -17 6 -20 13 -5 10 -7 10 -12 0 -3 -7 -14 -13
-25 -13 -10 0 -19 -4 -19 -10 0 -5 -7 -10 -15 -10 -9 0 -60 -45 -115 -100 -55
-55 -106 -100 -115 -100 -8 0 -15 -4 -15 -10 0 -5 -8 -10 -18 -10 -10 0 -24
-9 -32 -20 -8 -11 -22 -20 -32 -20 -10 0 -18 -4 -18 -10 0 -5 -13 -10 -30 -10
-16 0 -30 -4 -30 -10 0 -5 -9 -10 -20 -10 -11 0 -20 -4 -20 -10 0 -5 -18 -10
-40 -10 -22 0 -40 -4 -40 -10 0 -5 -22 -10 -50 -10 -27 0 -50 -4 -50 -10 0 -5
-9 -10 -20 -10 -27 0 -25 -26 5 -55 23 -24 30 -25 140 -25 70 0 115 4 115 10
0 6 14 10 30 10 17 0 30 5 30 10 0 6 9 10 20 10 11 0 20 5 20 10 0 6 9 10 20
10 11 0 20 5 20 10 0 6 9 10 20 10 11 0 20 5 20 10 0 6 7 10 16 10 9 0 29 14
44 30 15 17 33 30 40 30 6 0 33 23 60 50 51 53 80 64 80 30 0 -11 5 -20 10
-20 6 0 10 -7 10 -15 0 -20 105 -125 125 -125 8 0 15 -4 15 -10 0 -5 9 -10 20
-10 11 0 20 -4 20 -10 0 -5 18 -10 40 -10 22 0 40 -4 40 -10 0 -6 33 -10 80
-10 47 0 80 4 80 10 0 6 14 10 30 10 17 0 30 5 30 10 0 6 13 10 28 10 16 0 34
8 42 20 8 11 20 20 27 20 8 0 76 63 153 140 77 77 144 140 150 140 14 0 60
-46 60 -60 0 -16 128 -140 145 -140 8 0 15 -4 15 -10 0 -5 9 -10 20 -10 11 0
20 -4 20 -10 0 -5 9 -10 20 -10 11 0 20 -4 20 -10 0 -5 14 -10 30 -10 17 0 30
-4 30 -10 0 -6 50 -10 130 -10 80 0 130 4 130 10 0 6 7 10 16 10 22 0 44 25
44 50 0 25 -22 50 -44 50 -9 0 -16 5 -16 10 0 6 -22 10 -50 10 -27 0 -50 5
-50 10 0 6 -18 10 -40 10 -22 0 -40 5 -40 10 0 6 -13 10 -30 10 -16 0 -30 5
-30 10 0 6 -13 10 -30 10 -16 0 -30 5 -30 10 0 6 -7 10 -15 10 -20 0 -125 105
-125 125 0 8 -4 15 -10 15 -5 0 -10 9 -10 20 0 11 -4 20 -10 20 -5 0 -10 7
-10 16 0 20 -24 44 -44 44 -9 0 -16 5 -16 10 0 6 -18 10 -40 10 -22 0 -40 -4
-40 -10z"/>
<path d="M5140 6080 c0 -5 -9 -10 -20 -10 -11 0 -20 -4 -20 -10 0 -5 -7 -10
-15 -10 -20 0 -65 -45 -65 -65 0 -8 -4 -15 -10 -15 -6 0 -10 -28 -10 -65 0
-57 -3 -69 -25 -90 -20 -21 -34 -25 -86 -25 -55 0 -64 -3 -89 -30 -15 -16 -33
-30 -39 -30 -6 0 -106 -94 -221 -210 -162 -162 -215 -210 -235 -210 -14 0 -25
-4 -25 -10 0 -5 -13 -10 -30 -10 -16 0 -30 -4 -30 -10 0 -5 -7 -10 -16 -10 -9
0 -29 -13 -44 -30 -15 -16 -33 -30 -40 -30 -7 0 -25 -13 -40 -30 -15 -16 -34
-30 -42 -30 -7 0 -20 -9 -28 -20 -8 -12 -26 -20 -42 -20 -15 0 -28 -4 -28 -10
0 -5 -13 -10 -30 -10 -16 0 -30 5 -30 10 0 6 -30 10 -70 10 -40 0 -70 4 -70
10 0 6 -18 10 -40 10 -22 0 -40 5 -40 10 0 6 -13 10 -30 10 -16 0 -30 5 -30
10 0 6 -7 10 -15 10 -25 0 -65 46 -65 75 0 14 -4 25 -10 25 -5 0 -10 9 -10 20
0 11 -4 20 -10 20 -5 0 -10 9 -10 20 0 11 -4 20 -10 20 -5 0 -10 5 -10 10 0 6
16 10 36 10 44 0 64 19 64 60 0 33 -38 80 -65 80 -8 0 -15 5 -15 10 0 6 -13
10 -30 10 -16 0 -30 -4 -30 -10 0 -5 -7 -10 -16 -10 -18 0 -44 -23 -44 -40 0
-6 -22 -33 -50 -60 -34 -33 -50 -57 -50 -74 0 -14 -4 -26 -10 -26 -5 0 -10
-18 -10 -40 0 -22 5 -40 10 -40 6 0 10 -13 10 -30 0 -16 5 -30 10 -30 6 0 10
-13 10 -30 0 -16 -4 -30 -10 -30 -5 0 -10 -13 -10 -30 0 -16 -4 -30 -10 -30
-5 0 -10 -13 -10 -30 0 -16 -4 -30 -10 -30 -5 0 -10 -9 -10 -20 0 -11 -4 -20
-10 -20 -5 0 -10 -9 -10 -20 0 -11 -4 -20 -10 -20 -5 0 -10 -13 -10 -30 0 -16
-4 -30 -10 -30 -6 0 -10 -27 -10 -60 0 -33 4 -60 10 -60 6 0 10 -8 10 -18 0
-10 9 -24 20 -32 21 -15 28 -70 10 -70 -5 0 -10 -13 -10 -30 0 -16 -4 -30 -10
-30 -6 0 -10 -33 -10 -80 0 -47 4 -80 10 -80 6 0 10 -7 10 -15 0 -9 11 -27 25
-40 13 -14 31 -25 40 -25 8 0 15 -4 15 -10 0 -5 23 -10 50 -10 28 0 50 5 50
10 0 6 14 10 30 10 17 0 30 5 30 10 0 18 31 10 55 -15 14 -13 25 -31 25 -40 0
-8 5 -15 10 -15 6 0 10 -9 10 -20 0 -11 5 -20 10 -20 6 0 10 -9 10 -20 0 -11
5 -20 10 -20 6 0 10 -9 10 -20 0 -11 5 -20 10 -20 6 0 10 -9 10 -20 0 -11 5
-20 10 -20 6 0 10 -18 10 -40 0 -22 -4 -40 -10 -40 -5 0 -10 -25 -10 -55 0
-54 2 -57 55 -110 30 -30 61 -55 70 -55 10 0 15 -10 15 -30 0 -16 5 -30 10
-30 6 0 10 -22 10 -50 0 -27 -4 -50 -10 -50 -6 0 -10 -27 -10 -60 0 -33 4 -60
10 -60 6 0 10 -33 10 -80 0 -65 -3 -80 -15 -80 -20 0 -65 -45 -65 -65 0 -8 -4
-15 -10 -15 -5 0 -10 -9 -10 -20 0 -11 -4 -20 -10 -20 -6 0 -10 -40 -10 -100
0 -60 4 -100 10 -100 6 0 10 -30 10 -70 0 -40 4 -70 10 -70 6 0 10 -7 10 -15
0 -20 45 -65 65 -65 8 0 15 -4 15 -10 0 -5 14 -10 30 -10 17 0 30 5 30 10 0 6
8 10 18 10 10 0 24 9 32 20 8 12 26 20 42 20 24 0 28 -4 28 -30 0 -16 5 -30
10 -30 6 0 10 -22 10 -50 0 -27 -4 -50 -10 -50 -5 0 -10 -12 -10 -26 0 -14 -7
-32 -15 -41 -14 -13 -18 -11 -44 16 -28 30 -81 44 -81 21 0 -5 -9 -10 -20 -10
-13 0 -20 -7 -20 -20 0 -11 -4 -20 -10 -20 -6 0 -10 -87 -10 -240 0 -153 -4
-240 -10 -240 -5 0 -10 -9 -10 -20 0 -11 -4 -20 -10 -20 -5 0 -10 -9 -10 -20
0 -11 -4 -20 -10 -20 -5 0 -10 -9 -10 -20 0 -11 -4 -20 -10 -20 -5 0 -10 -13
-10 -30 0 -16 -4 -30 -10 -30 -5 0 -10 -13 -10 -30 0 -16 -4 -30 -10 -30 -6 0
-10 -47 -10 -120 0 -73 4 -120 10 -120 6 0 10 -9 10 -20 0 -11 5 -20 10 -20 6
0 10 -9 10 -20 0 -11 5 -20 10 -20 6 0 10 -13 10 -30 0 -16 -4 -30 -10 -30 -5
0 -10 -8 -10 -18 0 -10 -9 -24 -20 -32 -11 -8 -20 -22 -20 -32 0 -10 -4 -18
-10 -18 -5 0 -10 -18 -10 -40 0 -22 5 -40 10 -40 6 0 10 -9 10 -20 0 -11 5
-20 10 -20 6 0 10 -8 10 -18 0 -10 9 -24 20 -32 11 -8 20 -22 20 -32 0 -10 5
-18 10 -18 6 0 10 -13 10 -30 0 -23 -4 -30 -20 -30 -11 0 -20 -4 -20 -10 0 -5
-7 -10 -15 -10 -20 0 -65 -45 -65 -65 0 -8 -4 -15 -10 -15 -5 0 -10 -13 -10
-30 0 -16 5 -30 10 -30 6 0 10 -13 10 -30 0 -16 5 -30 10 -30 6 0 10 -9 10
-20 0 -11 5 -20 10 -20 6 0 10 -9 10 -20 0 -11 5 -20 10 -20 6 0 10 -13 10
-28 0 -16 8 -34 20 -42 11 -8 20 -20 20 -28 0 -25 48 -62 80 -62 23 0 42 11
75 45 25 24 45 51 45 60 0 8 5 15 10 15 6 0 10 16 10 36 0 19 6 42 14 50 19
19 26 18 26 -4 0 -10 9 -24 20 -32 11 -8 20 -22 20 -32 0 -10 5 -18 10 -18 6
0 10 -9 10 -20 0 -11 5 -20 10 -20 6 0 10 -9 10 -20 0 -11 5 -20 10 -20 6 0
10 -9 10 -20 0 -11 5 -20 10 -20 6 0 10 -9 10 -20 0 -11 5 -20 10 -20 6 0 10
-18 10 -40 0 -22 5 -40 10 -40 6 0 10 -7 10 -16 0 -20 24 -44 44 -44 9 0 16
-4 16 -10 0 -5 9 -10 20 -10 11 0 20 5 20 10 0 6 12 10 26 10 16 0 37 12 54
30 15 17 34 30 40 30 7 0 21 10 31 21 l19 22 29 -32 c16 -17 36 -31 45 -31 9
0 16 -4 16 -10 0 -5 9 -10 20 -10 11 0 20 -4 20 -10 0 -6 27 -10 60 -10 33 0
60 4 60 10 0 6 13 10 28 10 16 0 34 8 42 20 8 11 20 20 28 20 7 0 40 27 72 60
32 33 64 60 70 60 14 0 60 46 60 61 0 6 14 24 30 39 17 15 30 35 30 44 0 9 5
16 10 16 6 0 10 9 10 20 0 11 5 20 10 20 6 0 10 40 10 100 0 60 -4 100 -10
100 -5 0 -10 23 -10 50 0 28 5 50 10 50 6 0 10 7 10 15 0 24 46 65 72 65 13 0
30 -9 38 -20 15 -21 70 -28 70 -10 0 6 8 10 18 10 10 0 24 9 32 20 12 16 26
20 72 20 32 0 58 -4 58 -10 0 -5 7 -10 15 -10 9 0 51 -36 95 -80 58 -58 86
-80 105 -80 14 0 25 -4 25 -10 0 -5 25 -10 56 -10 49 0 59 -4 84 -30 27 -29
80 -42 80 -20 0 6 7 10 15 10 9 0 40 25 70 55 50 50 55 58 55 100 0 25 5 45
10 45 6 0 10 37 10 90 0 53 4 90 10 90 6 0 10 12 10 26 0 17 14 39 43 66 25
25 37 43 30 45 -8 3 -13 21 -13 44 0 21 -4 39 -10 39 -5 0 -10 14 -10 30 0 17
5 30 10 30 6 0 10 18 10 40 0 22 5 40 10 40 6 0 10 14 10 30 0 17 5 30 10 30
6 0 10 63 10 170 0 107 4 170 10 170 6 0 10 37 10 90 0 53 4 90 10 90 6 0 10
30 10 70 0 40 4 70 10 70 6 0 10 43 10 110 0 67 4 110 10 110 6 0 10 47 10
120 0 73 4 120 10 120 6 0 10 23 10 50 0 28 5 50 10 50 6 0 10 18 10 40 0 22
5 40 10 40 6 0 10 14 10 30 0 17 5 30 10 30 6 0 10 29 10 68 0 56 -3 70 -20
82 -11 8 -20 21 -20 30 0 9 -9 22 -20 30 -11 8 -20 21 -20 30 0 9 -9 22 -20
30 -11 8 -20 21 -20 30 0 9 -9 22 -20 30 -11 8 -20 22 -20 32 0 10 -4 18 -10
18 -5 0 -10 18 -10 39 0 22 -6 42 -12 45 -10 5 -10 7 0 12 6 3 12 23 12 45 0
21 5 39 10 39 6 0 10 7 10 16 0 9 14 29 30 44 17 15 30 33 30 39 0 7 31 43 70
81 39 38 70 75 70 82 0 8 9 20 20 28 11 8 20 22 20 32 0 10 5 18 10 18 6 0 10
9 10 20 0 11 5 20 10 20 6 0 10 9 10 20 0 11 5 20 10 20 6 0 10 40 10 100 0
60 -4 100 -10 100 -5 0 -10 13 -10 28 0 16 -8 34 -20 42 -11 8 -20 21 -20 28
0 8 -13 27 -30 42 -26 25 -30 35 -30 84 0 31 -4 56 -10 56 -5 0 -10 18 -10 40
0 22 -4 40 -10 40 -5 0 -10 14 -10 30 0 17 -4 30 -10 30 -5 0 -10 9 -10 20 0
11 -4 20 -10 20 -5 0 -10 8 -10 18 0 10 -9 24 -20 32 -11 8 -20 22 -20 31 0
10 -6 19 -12 22 -8 2 4 20 30 45 23 22 42 50 42 61 0 29 -202 231 -231 231
-11 0 -27 7 -35 15 -14 13 -14 17 0 30 8 8 20 15 26 15 14 0 80 66 80 80 0 6
-20 31 -45 55 -42 42 -48 45 -100 45 -48 0 -55 2 -55 20 0 11 5 20 10 20 6 0
10 9 10 20 0 11 5 20 10 20 6 0 10 29 10 68 0 56 -3 70 -20 82 -11 8 -20 22
-20 32 0 11 -7 18 -18 18 -10 0 -24 9 -32 20 -12 16 -26 20 -72 20 -32 0 -58
-4 -58 -10 0 -5 -7 -10 -16 -10 -18 0 -44 23 -44 40 0 6 -20 31 -45 55 -43 43
-47 45 -105 45 -60 0 -90 13 -90 40 0 16 -47 60 -65 60 -8 0 -15 5 -15 10 0 6
-13 10 -30 10 -16 0 -30 5 -30 10 0 6 -27 10 -60 10 -33 0 -60 -4 -60 -10z"/>
<path d="M7260 5520 c0 -5 -9 -10 -20 -10 -11 0 -20 -4 -20 -10 0 -5 -7 -10
-15 -10 -9 0 -65 -49 -125 -110 -60 -60 -115 -110 -122 -110 -8 0 -20 -9 -28
-20 -8 -11 -22 -20 -32 -20 -10 0 -18 -4 -18 -10 0 -5 -13 -10 -30 -10 -16 0
-30 -4 -30 -10 0 -5 -11 -10 -25 -10 -31 0 -75 -41 -75 -70 0 -36 24 -50 84
-50 31 0 56 5 56 10 0 6 14 10 30 10 17 0 30 5 30 10 0 6 14 10 30 10 17 0 30
5 30 10 0 6 8 10 18 10 10 0 24 9 32 20 8 11 21 20 28 20 8 0 27 14 42 30 15
17 33 30 39 30 15 0 61 46 61 60 0 17 26 40 44 40 9 0 16 -8 16 -20 0 -11 5
-20 10 -20 6 0 10 -9 10 -20 0 -11 5 -20 10 -20 6 0 10 -7 10 -15 0 -8 34 -49
75 -90 41 -41 82 -75 90 -75 8 0 15 -4 15 -10 0 -5 9 -10 20 -10 11 0 20 -4
20 -10 0 -5 14 -10 30 -10 17 0 30 -4 30 -10 0 -6 40 -10 100 -10 60 0 100 4
100 10 0 6 9 10 20 10 11 0 20 5 20 10 0 6 8 10 18 10 10 0 24 9 32 20 8 11
20 20 28 20 16 0 62 45 62 60 0 14 46 60 60 60 7 0 29 -18 50 -40 21 -22 45
-40 52 -40 7 0 20 -9 28 -20 8 -11 22 -20 32 -20 10 0 18 -4 18 -10 0 -5 18
-10 40 -10 22 0 40 -4 40 -10 0 -6 33 -10 80 -10 47 0 80 4 80 10 0 6 14 10
30 10 23 0 30 5 30 19 0 11 5 21 12 23 21 7 -38 58 -67 58 -14 0 -25 5 -25 10
0 6 -13 10 -30 10 -16 0 -30 5 -30 10 0 6 -13 10 -30 10 -16 0 -30 5 -30 10 0
6 -9 10 -20 10 -11 0 -20 5 -20 10 0 6 -7 10 -15 10 -20 0 -125 105 -125 125
0 8 -4 15 -10 15 -5 0 -10 7 -10 16 0 20 -24 44 -44 44 -9 0 -16 5 -16 10 0 6
-9 10 -20 10 -11 0 -20 -4 -20 -10 0 -5 -7 -10 -16 -10 -20 0 -44 -24 -44 -44
0 -9 -4 -16 -10 -16 -5 0 -10 -7 -10 -16 0 -9 -13 -29 -30 -44 -16 -15 -30
-33 -30 -39 0 -17 -67 -81 -85 -81 -8 0 -15 -4 -15 -10 0 -5 -9 -10 -20 -10
-11 0 -20 -4 -20 -10 0 -5 -18 -10 -40 -10 -22 0 -40 5 -40 10 0 6 -13 10 -30
10 -16 0 -30 5 -30 10 0 6 -9 10 -20 10 -11 0 -20 5 -20 10 0 6 -7 10 -16 10
-18 0 -44 24 -44 40 0 7 -13 25 -30 40 -16 15 -30 35 -30 44 0 9 -4 16 -10 16
-5 0 -10 9 -10 20 0 11 -4 20 -10 20 -5 0 -10 11 -10 25 0 29 -40 75 -65 75
-8 0 -15 5 -15 10 0 6 -9 10 -20 10 -11 0 -20 -4 -20 -10z"/>
<path d="M2160 4980 c0 -5 -18 -10 -40 -10 -22 0 -40 -4 -40 -10 0 -5 -8 -10
-18 -10 -10 0 -24 -9 -32 -20 -8 -11 -21 -20 -28 -20 -8 0 -27 -13 -42 -30
-15 -16 -35 -30 -44 -30 -9 0 -16 -4 -16 -10 0 -5 -9 -10 -20 -10 -11 0 -20
-4 -20 -10 0 -5 -9 -10 -20 -10 -11 0 -20 -4 -20 -10 0 -6 -27 -10 -60 -10
-33 0 -60 4 -60 10 0 6 -13 10 -30 10 -16 0 -30 5 -30 10 0 6 -18 10 -40 10
-22 0 -40 5 -40 10 0 6 -16 10 -35 10 -26 0 -44 -8 -63 -27 -17 -17 -22 -28
-14 -31 7 -2 12 -12 12 -23 0 -12 7 -19 18 -19 10 0 24 -9 32 -20 8 -11 22
-20 32 -20 10 0 18 -4 18 -10 0 -5 9 -10 20 -10 11 0 20 -4 20 -10 0 -5 9 -10
20 -10 11 0 20 -4 20 -10 0 -5 18 -10 40 -10 22 0 40 -4 40 -10 0 -5 23 -10
50 -10 28 0 50 5 50 10 0 6 18 10 40 10 22 0 40 5 40 10 0 6 14 10 30 10 17 0
30 5 30 10 0 6 8 10 18 10 10 0 24 9 32 20 8 11 21 20 28 20 8 0 27 14 42 30
15 17 35 30 44 30 9 0 16 5 16 10 0 6 9 10 20 10 11 0 20 -4 20 -10 0 -5 8
-10 18 -10 10 0 24 -9 32 -20 8 -11 21 -20 30 -20 9 0 22 -9 30 -20 8 -11 22
-20 32 -20 10 0 18 -4 18 -10 0 -5 9 -10 20 -10 11 0 20 -4 20 -10 0 -5 18
-10 40 -10 22 0 40 -4 40 -10 0 -6 33 -10 80 -10 47 0 80 4 80 10 0 6 14 10
30 10 23 0 30 4 30 20 0 11 5 20 10 20 18 0 10 31 -15 55 -18 19 -35 25 -70
25 -25 0 -45 5 -45 10 0 6 -18 10 -40 10 -22 0 -40 5 -40 10 0 6 -9 10 -20 10
-11 0 -20 5 -20 10 0 6 -7 10 -16 10 -9 0 -29 14 -44 30 -15 17 -34 30 -42 30
-7 0 -20 9 -28 20 -8 11 -22 20 -32 20 -10 0 -18 5 -18 10 0 6 -13 10 -30 10
-16 0 -30 5 -30 10 0 6 -9 10 -20 10 -11 0 -20 -4 -20 -10z"/>
<path d="M7720 4260 c0 -5 -13 -10 -30 -10 -16 0 -30 -4 -30 -10 0 -5 -9 -10
-20 -10 -11 0 -20 -4 -20 -10 0 -5 -9 -10 -20 -10 -11 0 -20 -4 -20 -10 0 -5
-9 -10 -20 -10 -11 0 -20 -4 -20 -10 0 -5 -7 -10 -16 -10 -8 0 -33 -18 -54
-40 -21 -22 -43 -40 -50 -40 -14 0 -60 -46 -60 -60 0 -15 -287 -300 -303 -300
-7 0 -19 -9 -27 -20 -8 -11 -22 -20 -32 -20 -10 0 -18 -4 -18 -10 0 -5 -9 -10
-20 -10 -11 0 -20 -4 -20 -10 0 -5 -18 -10 -40 -10 -22 0 -40 -4 -40 -10 0 -6
-39 -10 -96 -10 -76 0 -99 -3 -112 -17 -12 -12 -13 -18 -4 -21 6 -2 12 -12 12
-23 0 -12 7 -19 20 -19 11 0 20 -4 20 -10 0 -5 14 -10 30 -10 17 0 30 -4 30
-10 0 -6 33 -10 80 -10 47 0 80 4 80 10 0 6 14 10 30 10 17 0 30 5 30 10 0 6
14 10 30 10 17 0 30 5 30 10 0 6 9 10 20 10 11 0 20 5 20 10 0 6 8 10 18 10
10 0 24 9 32 20 8 11 21 20 28 20 8 0 27 14 42 30 15 17 33 30 39 30 14 0 181
166 181 180 0 14 87 100 101 100 6 0 24 14 39 30 15 17 34 30 42 30 7 0 20 9
28 20 8 11 22 20 32 20 10 0 18 5 18 10 0 6 14 10 30 10 17 0 30 5 30 10 0 6
14 10 30 10 17 0 30 -4 30 -10 0 -5 -4 -10 -10 -10 -5 0 -10 -13 -10 -30 0
-16 -4 -30 -10 -30 -6 0 -10 -43 -10 -110 0 -67 4 -110 10 -110 6 0 10 -9 10
-20 0 -11 5 -20 10 -20 6 0 10 -7 10 -15 0 -19 64 -85 82 -85 8 0 20 -9 28
-20 8 -12 26 -20 42 -20 15 0 28 -4 28 -10 0 -6 40 -10 100 -10 60 0 100 4
100 10 0 6 9 10 20 10 11 0 20 5 20 10 0 6 8 10 18 10 10 0 24 9 32 20 8 11
20 20 28 20 16 0 62 45 62 61 0 6 14 24 30 39 17 15 30 33 30 40 0 7 14 25 30
40 17 15 30 33 30 39 0 17 87 101 105 101 11 0 15 -11 15 -40 0 -22 5 -40 10
-40 6 0 10 -18 10 -40 0 -22 5 -40 10 -40 6 0 10 -7 10 -15 0 -20 125 -145
145 -145 8 0 15 -4 15 -10 0 -5 9 -10 20 -10 11 0 20 -4 20 -10 0 -5 9 -10 20
-10 11 0 20 -4 20 -10 0 -5 23 -10 50 -10 28 0 50 -4 50 -10 0 -6 33 -10 80
-10 47 0 80 4 80 10 0 6 16 10 35 10 63 0 108 68 71 106 -9 8 -34 14 -60 14
-25 0 -46 5 -46 10 0 6 -30 10 -70 10 -40 0 -70 4 -70 10 0 6 -13 10 -30 10
-16 0 -30 5 -30 10 0 6 -13 10 -28 10 -16 0 -34 8 -42 20 -8 11 -20 20 -28 20
-22 0 -62 48 -62 75 0 14 -4 25 -10 25 -5 0 -10 14 -10 30 0 17 5 30 10 30 6
0 10 9 10 20 0 11 5 20 10 20 6 0 10 9 10 20 0 11 5 20 10 20 6 0 10 9 10 19
0 11 6 22 13 25 10 5 10 7 0 12 -7 3 -13 12 -13 21 0 34 -26 43 -124 43 -57 0
-96 -4 -96 -10 0 -5 -9 -10 -20 -10 -11 0 -20 -4 -20 -10 0 -5 -9 -10 -20 -10
-11 0 -20 -4 -20 -10 0 -5 -7 -10 -15 -10 -19 0 -185 -164 -185 -183 0 -7 -9
-19 -20 -27 -11 -8 -20 -20 -20 -27 0 -19 -106 -123 -125 -123 -8 0 -15 -4
-15 -10 0 -6 -30 -10 -70 -10 -40 0 -70 4 -70 10 0 6 -7 10 -15 10 -25 0 -65
46 -65 75 0 14 -4 25 -10 25 -5 0 -10 23 -10 50 0 28 5 50 10 50 6 0 10 7 10
15 0 19 44 65 62 65 8 0 20 9 28 20 8 11 20 20 28 20 7 0 20 6 28 14 16 17 19
66 4 66 -5 0 -10 9 -10 20 0 13 -7 20 -20 20 -11 0 -20 5 -20 10 0 6 -9 10
-20 10 -11 0 -20 5 -20 10 0 6 -50 10 -130 10 -80 0 -130 -4 -130 -10z"/>
<path d="M2020 3840 c0 -5 -22 -10 -50 -10 -27 0 -50 -4 -50 -10 0 -5 -13 -10
-30 -10 -16 0 -30 -4 -30 -10 0 -5 -9 -10 -20 -10 -11 0 -20 -4 -20 -10 0 -5
-7 -10 -16 -10 -9 0 -29 -13 -44 -30 -15 -16 -33 -30 -39 -30 -15 0 -81 -66
-81 -81 0 -6 -13 -24 -30 -39 -16 -15 -30 -33 -30 -40 0 -7 -13 -25 -30 -40
-16 -15 -30 -34 -30 -42 0 -7 -9 -20 -20 -28 -11 -8 -20 -20 -20 -27 0 -17
-166 -183 -183 -183 -7 0 -19 -9 -27 -20 -8 -11 -22 -20 -32 -20 -10 0 -18 -4
-18 -10 0 -5 -13 -10 -30 -10 -16 0 -30 -4 -30 -10 0 -6 -47 -10 -120 -10 -73
0 -120 4 -120 10 0 15 -29 12 -46 -4 -21 -21 -18 -33 21 -71 26 -27 43 -35 70
-35 19 0 35 -4 35 -10 0 -6 40 -10 100 -10 60 0 100 4 100 10 0 6 18 10 40 10
22 0 40 5 40 10 0 6 9 10 20 10 11 0 20 5 20 10 0 6 9 10 20 10 11 0 20 5 20
10 0 6 8 10 18 10 10 0 24 9 32 20 8 11 20 20 27 20 16 0 123 105 123 121 0 6
14 24 30 39 17 15 30 33 30 40 0 7 14 25 30 40 17 15 30 33 30 40 0 7 14 25
30 40 17 15 30 33 30 39 0 16 66 81 82 81 8 0 20 9 28 20 8 11 22 20 32 20 10
0 18 5 18 10 0 6 9 10 20 10 11 0 20 5 20 10 0 6 18 10 40 10 22 0 40 -4 40
-10 0 -5 -4 -10 -10 -10 -5 0 -10 -9 -10 -20 0 -11 -4 -20 -10 -20 -5 0 -10
-18 -10 -40 0 -22 -4 -40 -10 -40 -5 0 -10 -18 -10 -40 0 -22 5 -40 10 -40 6
0 10 -18 10 -40 0 -22 5 -40 10 -40 6 0 10 -13 10 -28 0 -16 8 -34 20 -42 11
-8 20 -20 20 -27 0 -17 86 -103 103 -103 7 0 19 -9 27 -20 8 -12 26 -20 42
-20 15 0 28 -4 28 -10 0 -5 14 -10 30 -10 17 0 30 -4 30 -10 0 -6 37 -10 90
-10 53 0 90 4 90 10 0 6 14 10 30 10 17 0 30 5 30 10 0 6 8 10 18 10 10 0 24
9 32 20 8 11 20 20 28 20 17 0 42 24 42 40 0 7 14 25 30 40 17 15 30 35 30 44
0 9 5 16 10 16 6 0 10 7 10 16 0 8 7 22 15 30 13 14 17 14 30 0 8 -8 15 -19
15 -25 0 -17 128 -141 145 -141 8 0 15 -4 15 -10 0 -5 14 -10 30 -10 17 0 30
-4 30 -10 0 -6 37 -10 90 -10 53 0 90 4 90 10 0 6 9 10 20 10 16 0 20 7 20 36
0 38 -18 64 -44 64 -9 0 -16 5 -16 10 0 6 -18 10 -40 10 -22 0 -40 5 -40 10 0
6 -13 10 -30 10 -16 0 -30 5 -30 10 0 6 -7 10 -15 10 -20 0 -85 65 -85 85 0 8
-4 15 -10 15 -5 0 -10 14 -10 30 0 17 -4 30 -10 30 -5 0 -10 11 -10 25 0 38
-42 75 -85 75 -19 0 -35 -4 -35 -10 0 -5 -7 -10 -15 -10 -19 0 -165 -144 -165
-163 0 -7 -9 -19 -20 -27 -11 -8 -20 -20 -20 -28 0 -18 -46 -62 -65 -62 -8 0
-15 -4 -15 -10 0 -5 -9 -10 -20 -10 -11 0 -20 -4 -20 -10 0 -5 -22 -10 -50
-10 -27 0 -50 5 -50 10 0 6 -13 10 -30 10 -16 0 -30 5 -30 10 0 6 -7 10 -15
10 -20 0 -105 85 -105 105 0 8 -4 15 -10 15 -5 0 -10 9 -10 20 0 11 -4 20 -10
20 -5 0 -10 18 -10 40 0 22 5 40 10 40 6 0 10 9 10 20 0 11 5 20 10 20 6 0 10
9 10 20 0 13 7 20 18 20 10 0 24 9 32 20 8 11 20 20 28 20 22 0 62 48 62 75 0
14 -4 25 -10 25 -5 0 -10 9 -10 20 0 13 -7 20 -18 20 -10 0 -24 9 -32 20 -10
14 -26 20 -52 20 -21 0 -38 5 -38 10 0 6 -27 10 -60 10 -33 0 -60 -4 -60 -10z"/>
<path d="M7200 2780 c0 -5 -13 -10 -30 -10 -16 0 -30 -4 -30 -10 0 -5 -8 -10
-18 -10 -10 0 -24 -9 -32 -20 -8 -11 -20 -20 -27 -20 -8 0 -85 -72 -173 -160
-88 -88 -166 -160 -175 -160 -8 0 -15 -4 -15 -10 0 -5 -13 -10 -30 -10 -16 0
-30 -4 -30 -10 0 -6 -29 -10 -66 -10 -71 0 -94 -12 -94 -50 0 -25 22 -50 44
-50 9 0 16 -4 16 -10 0 -6 37 -10 90 -10 53 0 90 4 90 10 0 6 9 10 20 10 11 0
20 5 20 10 0 6 9 10 20 10 11 0 20 5 20 10 0 6 7 10 15 10 9 0 74 59 145 130
71 72 136 130 145 130 8 0 15 5 15 10 0 6 5 10 10 10 6 0 10 -13 10 -30 0 -16
5 -30 10 -30 6 0 10 -18 10 -40 0 -22 5 -40 10 -40 6 0 10 -9 10 -20 0 -11 5
-20 10 -20 6 0 10 -7 10 -15 0 -19 84 -105 103 -105 7 0 19 -9 27 -20 8 -12
26 -20 42 -20 15 0 28 -4 28 -10 0 -5 18 -10 40 -10 22 0 40 -4 40 -10 0 -5
23 -10 50 -10 28 0 50 5 50 10 0 6 18 10 40 10 22 0 40 5 40 10 0 6 9 10 20
10 11 0 20 5 20 10 0 6 7 10 15 10 19 0 165 144 165 163 0 7 9 19 20 27 11 8
20 22 20 32 0 11 7 18 20 18 13 0 20 -7 20 -18 0 -10 9 -24 20 -32 11 -8 20
-20 20 -27 0 -19 106 -123 125 -123 8 0 15 -4 15 -10 0 -5 9 -10 20 -10 11 0
20 -4 20 -10 0 -5 9 -10 20 -10 11 0 20 -4 20 -10 0 -5 14 -10 30 -10 17 0 30
-4 30 -10 0 -6 60 -10 160 -10 100 0 160 4 160 10 0 6 14 10 30 10 17 0 30 5
30 10 0 6 9 10 20 10 15 0 20 7 20 26 0 45 -20 54 -124 54 -57 0 -96 4 -96 10
0 6 -22 10 -50 10 -27 0 -50 5 -50 10 0 6 -13 10 -30 10 -16 0 -30 5 -30 10 0
6 -13 10 -28 10 -16 0 -34 8 -42 20 -8 11 -20 20 -28 20 -18 0 -82 66 -82 85
0 8 -4 15 -10 15 -5 0 -10 9 -10 20 0 11 -4 20 -10 20 -5 0 -10 14 -10 30 0
17 -4 30 -10 30 -5 0 -10 20 -10 45 0 35 -6 52 -25 70 -24 25 -75 35 -75 15 0
-5 -7 -10 -15 -10 -19 0 -145 -124 -145 -143 0 -7 -9 -19 -20 -27 -11 -8 -20
-21 -20 -30 0 -9 -9 -22 -20 -30 -11 -8 -20 -20 -20 -27 0 -19 -86 -103 -105
-103 -8 0 -15 -4 -15 -10 0 -5 -9 -10 -20 -10 -11 0 -20 -4 -20 -10 0 -5 -18
-10 -40 -10 -22 0 -40 5 -40 10 0 6 -13 10 -30 10 -16 0 -30 5 -30 10 0 6 -7
10 -15 10 -26 0 -105 86 -105 115 0 14 -4 25 -10 25 -6 0 -10 27 -10 60 0 33
4 60 10 60 6 0 10 20 10 45 0 59 -32 95 -85 95 -19 0 -35 -4 -35 -10z"/>
<path d="M2640 2460 c0 -5 -7 -10 -15 -10 -18 0 -65 -44 -65 -60 0 -16 -168
-180 -185 -180 -8 0 -15 -4 -15 -10 0 -5 -18 -10 -40 -10 -22 0 -40 5 -40 10
0 6 -13 10 -28 10 -16 0 -34 8 -42 20 -8 11 -21 20 -28 20 -7 0 -31 18 -52 40
-21 22 -46 40 -54 40 -9 0 -16 5 -16 10 0 6 -13 10 -30 10 -16 0 -30 5 -30 10
0 6 -13 10 -30 10 -16 0 -30 -4 -30 -10 0 -5 -7 -10 -16 -10 -8 0 -37 -22 -64
-50 -27 -27 -54 -50 -60 -50 -6 0 -29 -18 -50 -40 -21 -22 -45 -40 -52 -40 -7
0 -20 -9 -28 -20 -8 -11 -22 -20 -32 -20 -10 0 -18 -4 -18 -10 0 -5 -9 -10
-20 -10 -17 0 -20 -7 -20 -40 0 -33 3 -40 19 -40 11 0 22 -6 25 -12 5 -10 7
-10 12 0 3 6 23 12 45 12 21 0 39 5 39 10 0 6 13 10 28 10 16 0 34 8 42 20 8
11 21 20 30 20 9 0 22 9 30 20 8 11 21 20 28 20 8 0 27 14 42 30 33 35 69 39
90 10 8 -11 21 -20 30 -20 9 0 22 -9 30 -20 8 -11 21 -20 30 -20 9 0 22 -9 30
-20 8 -11 22 -20 32 -20 10 0 18 -4 18 -10 0 -5 18 -10 40 -10 22 0 40 -4 40
-10 0 -6 30 -10 70 -10 40 0 70 4 70 10 0 6 9 10 20 10 11 0 20 5 20 10 0 6 9
10 20 10 11 0 20 5 20 10 0 6 7 10 15 10 18 0 105 84 105 100 0 16 47 60 65
60 8 0 15 5 15 10 0 6 11 10 26 10 18 0 42 -18 84 -60 32 -33 65 -60 72 -60 8
0 20 -9 28 -20 8 -11 22 -20 32 -20 10 0 18 -4 18 -10 0 -5 9 -10 20 -10 11 0
20 -4 20 -10 0 -5 18 -10 40 -10 22 0 40 -4 40 -10 0 -5 23 -10 50 -10 28 0
50 5 50 10 0 6 7 10 16 10 22 0 44 25 44 50 0 29 -44 70 -75 70 -14 0 -25 5
-25 10 0 6 -9 10 -20 10 -11 0 -20 5 -20 10 0 6 -9 10 -20 10 -11 0 -20 5 -20
10 0 6 -7 10 -16 10 -9 0 -29 14 -44 30 -15 17 -33 30 -39 30 -7 0 -43 32 -81
70 -38 39 -76 70 -85 70 -8 0 -15 5 -15 10 0 6 -27 10 -60 10 -33 0 -60 -4
-60 -10z"/>
<path d="M6920 1420 c0 -5 -9 -10 -20 -10 -11 0 -20 -4 -20 -10 0 -5 -8 -10
-18 -10 -10 0 -24 -9 -32 -20 -8 -11 -21 -20 -28 -20 -7 0 -31 -18 -52 -40
-21 -22 -44 -40 -50 -40 -7 0 -25 -13 -40 -30 -15 -16 -35 -30 -44 -30 -9 0
-16 -4 -16 -10 0 -5 -9 -10 -20 -10 -11 0 -20 -4 -20 -10 0 -5 -7 -10 -16 -10
-18 0 -44 -23 -44 -40 0 -27 30 -40 94 -40 37 0 66 4 66 10 0 6 14 10 30 10
17 0 30 5 30 10 0 6 8 10 18 10 10 0 24 9 32 20 8 11 21 20 30 20 9 0 22 9 30
20 8 11 21 20 30 20 9 0 22 9 30 20 8 11 22 20 32 20 10 0 18 5 18 10 0 6 23
10 50 10 28 0 50 -4 50 -10 0 -5 8 -10 18 -10 10 0 24 -9 32 -20 8 -11 21 -20
30 -20 9 0 22 -9 30 -20 8 -11 22 -20 32 -20 10 0 18 -4 18 -10 0 -5 9 -10 20
-10 11 0 20 -4 20 -10 0 -5 9 -10 20 -10 11 0 20 -4 20 -10 0 -5 9 -10 20 -10
11 0 20 -4 20 -10 0 -5 14 -10 30 -10 17 0 30 -4 30 -10 0 -6 33 -10 80 -10
47 0 80 4 80 10 0 6 14 10 30 10 17 0 30 5 30 10 0 6 7 10 15 10 20 0 125 105
125 125 0 8 5 15 10 15 15 0 12 49 -4 66 -17 16 -46 19 -46 4 0 -5 -7 -10 -16
-10 -9 0 -29 -13 -44 -30 -15 -16 -35 -30 -44 -30 -9 0 -16 -4 -16 -10 0 -6
-37 -10 -90 -10 -53 0 -90 4 -90 10 0 6 -9 10 -20 10 -11 0 -20 5 -20 10 0 6
-9 10 -20 10 -11 0 -20 5 -20 10 0 6 -8 10 -18 10 -10 0 -24 9 -32 20 -8 11
-21 20 -30 20 -9 0 -22 9 -30 20 -8 11 -22 20 -32 20 -10 0 -18 5 -18 10 0 6
-9 10 -20 10 -11 0 -20 5 -20 10 0 6 -9 10 -20 10 -11 0 -20 5 -20 10 0 6 -33
10 -80 10 -47 0 -80 -4 -80 -10z"/>
<path d="M3420 1320 c0 -5 -9 -10 -20 -10 -11 0 -20 -4 -20 -10 0 -5 -7 -10
-15 -10 -9 0 -27 -11 -40 -25 -21 -20 -25 -34 -25 -80 0 -30 5 -55 10 -55 6 0
10 -8 10 -18 0 -10 9 -24 20 -32 11 -8 20 -22 20 -32 0 -11 7 -18 20 -18 11 0
20 -4 20 -10 0 -5 25 -10 55 -10 50 0 59 3 90 35 19 19 35 41 35 50 0 8 5 15
10 15 6 0 10 28 10 65 0 64 -1 66 -45 110 -40 40 -49 45 -90 45 -25 0 -45 -4
-45 -10z"/>
</g>
</svg>
