<svg xmlns="http://www.w3.org/2000/svg" viewBox="0 0 670.000000 369.000000" fill="currentColor" aria-hidden="true">
<g transform="translate(0.000000,369.000000) scale(0.100000,-0.100000)" fill="currentColor" stroke="none">
<path d="M0 1845 l0 -1845 661 0 c626 0 661 1 654 18 -4 9 -11 152 -16 317 -5
165 -18 388 -29 495 -29 278 -34 431 -20 620 7 91 15 327 19 525 7 386 9 399
59 412 38 10 245 9 757 -1 448 -9 520 -6 870 29 304 31 568 45 823 45 325 0
734 -16 783 -30 19 -5 46 -22 60 -36 23 -24 24 -33 26 -157 4 -176 19 -486 45
-857 22 -334 21 -553 -7 -945 -8 -116 -15 -252 -15 -303 0 -51 -5 -102 -10
-113 -11 -19 4 -19 1015 -19 l1025 0 0 1845 0 1845 -3350 0 -3350 0 0 -1845z"/>
<path d="M3365 2349 c-66 -5 -241 -21 -390 -35 -362 -35 -723 -41 -1200 -20
-198 9 -375 19 -393 22 -17 3 -32 1 -32 -3 0 -4 5 -46 10 -93 16 -134 13 -465
-5 -700 -20 -247 -16 -413 15 -700 11 -102 23 -291 27 -421 l6 -237 31 42 c42
55 109 98 209 135 199 74 253 118 350 283 102 174 188 235 442 313 228 70 290
119 427 338 47 76 107 156 140 188 73 72 183 127 350 173 238 67 285 101 393
281 108 182 169 228 418 317 111 39 227 94 227 108 0 17 -806 24 -1025 9z"/>
<path d="M4455 2290 c-84 -61 -136 -86 -274 -134 -216 -75 -280 -125 -385
-300 -101 -170 -178 -226 -394 -285 -263 -73 -350 -135 -471 -334 -71 -119
-121 -182 -188 -238 -68 -58 -120 -81 -308 -144 -92 -30 -184 -65 -204 -76
-64 -39 -111 -92 -184 -209 -110 -177 -154 -213 -343 -281 -47 -17 -112 -49
-144 -71 -59 -39 -135 -128 -128 -149 2 -6 39 13 83 43 101 69 125 81 233 119
194 69 266 125 342 269 93 175 196 248 410 295 207 46 320 120 415 274 191
309 263 368 536 435 75 18 158 43 185 56 76 37 151 121 214 241 92 174 162
231 395 318 191 72 312 152 303 199 -5 28 -22 23 -93 -28z"/>
<path d="M3603 3 c64 -2 170 -2 235 0 64 1 11 3 -118 3 -129 0 -182 -2 -117
-3z"/>
</g>
</svg>
