<svg xmlns="http://www.w3.org/2000/svg" viewBox="0 0 670.000000 347.000000" fill="currentColor" aria-hidden="true">
<g transform="translate(0.000000,347.000000) scale(0.100000,-0.100000)" fill="currentColor" stroke="none">
<path d="M0 1735 l0 -1735 568 0 567 0 16 52 c14 43 15 56 4 81 -24 58 10 107
74 107 27 0 31 4 31 26 0 57 53 117 124 140 28 9 79 32 114 51 79 41 133 44
185 9 19 -13 44 -27 54 -30 42 -14 65 -52 70 -119 l5 -64 -50 -56 c-28 -31
-58 -69 -66 -84 -20 -40 -54 -69 -106 -92 l-45 -20 995 0 995 0 35 29 c43 38
63 38 90 0 l21 -30 115 0 c111 0 115 1 156 30 52 38 78 38 145 0 l53 -30 1275
0 1275 0 0 1735 0 1735 -3350 0 -3350 0 0 -1735z m4430 207 c14 -9 35 -18 48
-19 25 -2 58 -25 134 -93 53 -47 78 -86 78 -120 0 -12 11 -36 25 -55 42 -55
48 -91 25 -157 -11 -32 -20 -67 -20 -78 0 -28 -58 -55 -102 -46 -33 6 -112 48
-261 141 l-77 48 -98 -12 c-112 -15 -146 -7 -163 36 -6 15 -8 42 -4 59 4 26 0
37 -25 62 -24 24 -30 39 -30 72 0 81 84 132 220 134 36 1 82 -3 103 -7 28 -6
37 -5 37 5 0 8 7 24 16 37 18 25 49 23 94 -7z m-1020 -233 c15 -26 -2 -72 -37
-99 l-24 -19 28 -3 c35 -4 57 -46 48 -89 -4 -16 -23 -45 -42 -64 -20 -20 -34
-37 -32 -38 63 -50 95 -49 159 8 28 25 56 45 63 44 7 0 50 -19 97 -42 114 -57
128 -79 110 -184 -11 -62 -19 -80 -45 -107 -19 -19 -35 -46 -39 -68 -4 -25
-24 -58 -57 -95 -49 -56 -53 -65 -90 -208 -14 -54 -72 -125 -122 -152 -17 -8
-61 -44 -98 -79 -56 -53 -74 -64 -102 -64 -42 0 -75 25 -127 95 l-39 53 -98 4
c-122 4 -163 22 -200 86 -22 36 -28 61 -31 129 -4 71 -8 86 -25 98 -48 34
-101 5 -142 -76 -14 -26 -34 -53 -44 -59 -51 -27 -114 2 -142 66 -19 43 -21
44 -67 44 -53 1 -71 11 -101 60 -23 39 -27 84 -8 116 14 25 139 123 253 198
44 30 103 80 129 111 73 85 147 137 301 210 110 53 163 72 251 90 62 13 125
31 140 39 15 8 49 15 75 16 38 0 50 -4 58 -21z m1056 -1180 c69 -53 106 -53
191 2 74 48 97 48 175 -2 36 -23 63 -32 110 -36 80 -6 89 -9 82 -27 -17 -45
-158 -48 -241 -4 l-51 26 -52 -37 c-47 -33 -58 -36 -120 -36 -64 0 -72 3 -129
43 l-61 42 -41 -27 c-29 -19 -54 -27 -86 -27 -63 -1 -65 18 -5 48 27 14 62 36
78 49 55 46 74 44 150 -14z m-1335 -160 c18 -18 20 -30 16 -67 -7 -60 -43 -94
-95 -90 -44 4 -83 49 -65 76 11 17 25 19 54 8 13 -6 15 -1 11 24 -3 20 2 37
13 50 23 26 40 25 66 -1z"/>
<path d="M4370 1835 c-12 -14 -29 -16 -119 -10 -120 7 -193 -7 -199 -39 -2
-11 3 -23 12 -28 29 -16 47 -64 36 -94 -6 -15 -7 -30 -3 -34 4 -4 42 -3 84 3
101 13 131 6 230 -55 126 -76 202 -118 220 -118 10 0 19 11 22 28 3 15 9 39
12 54 6 21 0 35 -23 65 -17 21 -34 56 -37 78 -8 43 -30 67 -83 90 -18 8 -36
24 -41 36 -5 15 -10 18 -15 11 -11 -18 -37 -14 -61 8 -20 19 -23 19 -35 5z"/>
<path d="M3175 1600 c-91 -22 -155 -49 -290 -118 -95 -49 -123 -70 -201 -149
-51 -50 -118 -108 -150 -129 -33 -20 -103 -69 -157 -108 -75 -54 -97 -75 -95
-91 2 -14 12 -21 33 -23 86 -7 109 -23 135 -94 5 -16 13 -28 17 -27 5 0 22 21
38 47 34 54 115 112 154 112 42 0 130 -48 146 -80 9 -17 14 -53 13 -92 -2 -74
22 -135 59 -149 13 -5 62 -9 109 -9 101 0 131 -13 172 -73 16 -23 39 -50 50
-60 19 -17 20 -17 52 23 18 23 65 63 105 90 78 53 77 50 125 202 14 45 38 88
71 129 28 36 49 72 49 86 0 33 16 63 48 90 15 13 31 41 38 69 l12 46 -65 30
-64 29 -36 -31 c-65 -57 -116 -64 -192 -25 -63 32 -101 77 -101 120 0 28 7 39
37 60 l38 25 -46 0 c-73 0 -92 40 -42 92 31 32 32 32 -62 8z"/>
<path d="M1520 370 c-30 -16 -78 -37 -107 -45 -56 -17 -64 -29 -67 -96 -3 -55
-31 -92 -66 -87 -27 4 -27 3 -23 -32 3 -21 0 -47 -7 -60 -12 -22 -11 -22 38
-15 40 5 60 2 97 -14 59 -26 72 -26 80 -2 12 38 47 71 85 81 33 9 46 21 83 78
24 37 54 76 65 86 12 11 22 29 22 42 0 24 -24 54 -43 54 -7 0 -23 9 -37 20
-34 26 -55 24 -120 -10z"/>
</g>
</svg>
