<svg xmlns="http://www.w3.org/2000/svg" width="24" height="24" viewBox="0 0 24 24" fill="currentColor" aria-hidden="true">
  <!-- Altres / Diaspora — Globe with meridians (dispersion worldwide) -->
  <!-- Outer circle (ring) -->
  <path fill-rule="evenodd" d="M12 2 C6.48 2 2 6.48 2 12 C2 17.52 6.48 22 12 22 C17.52 22 22 17.52 22 12 C22 6.48 17.52 2 12 2 Z M12 3.8 C16.53 3.8 20.2 7.47 20.2 12 C20.2 16.53 16.53 20.2 12 20.2 C7.47 20.2 3.8 16.53 3.8 12 C3.8 7.47 7.47 3.8 12 3.8 Z"/>
  <!-- Equator line -->
  <rect x="3" y="11.2" width="18" height="1.6" rx="0.8"/>
  <!-- Vertical meridian (ellipse via path) -->
  <path fill-rule="evenodd" d="M12 3 C9 6.5 8 9 8 12 C8 15 9 17.5 12 21 C15 17.5 16 15 16 12 C16 9 15 6.5 12 3 Z M12 5.5 C10.5 7.8 9.8 9.8 9.8 12 C9.8 14.2 10.5 16.2 12 18.5 C13.5 16.2 14.2 14.2 14.2 12 C14.2 9.8 13.5 7.8 12 5.5 Z"/>
</svg>
