<svg xmlns="http://www.w3.org/2000/svg" viewBox="0 0 628.000000 696.000000" fill="currentColor" aria-hidden="true">
<g transform="translate(-150.000000,724.000000) scale(0.100000,-0.100000)" fill="currentColor" stroke="none">
<path d="M6920 7230 c0 -5 -9 -10 -20 -10 -13 0 -20 -7 -20 -20 0 -11 -4 -20
-10 -20 -5 0 -10 -9 -10 -20 0 -11 5 -20 10 -20 6 0 10 -7 10 -15 0 -9 11 -27
25 -40 13 -14 31 -25 40 -25 8 0 15 -4 15 -10 0 -5 9 -10 20 -10 11 0 20 5 20
10 0 6 9 10 20 10 17 0 20 7 20 50 0 28 -4 50 -10 50 -5 0 -10 7 -10 15 0 25
-46 65 -75 65 -14 0 -25 -4 -25 -10z"/>
<path d="M2460 6930 c0 -5 -7 -10 -16 -10 -20 0 -44 -24 -44 -44 0 -9 -4 -16
-10 -16 -5 0 -10 -13 -10 -30 0 -16 5 -30 10 -30 6 0 10 -9 10 -20 0 -13 7
-20 20 -20 11 0 20 -4 20 -10 0 -5 18 -10 40 -10 22 0 40 -4 40 -10 0 -5 23
-10 50 -10 28 0 50 5 50 10 0 6 16 10 35 10 27 0 44 8 70 35 33 33 48 85 25
85 -5 0 -10 9 -10 20 0 13 -7 20 -20 20 -11 0 -20 5 -20 10 0 6 -13 10 -30 10
-16 0 -30 5 -30 10 0 6 -37 10 -90 10 -53 0 -90 -4 -90 -10z"/>
<path d="M7460 6930 c0 -5 -7 -10 -16 -10 -23 0 -44 -25 -44 -53 0 -14 -6 -28
-12 -31 -10 -5 -10 -7 0 -12 6 -3 12 -17 12 -30 0 -28 60 -94 85 -94 8 0 15
-4 15 -10 0 -6 28 -10 65 -10 57 0 69 3 90 25 21 20 25 34 25 80 0 30 -4 55
-10 55 -5 0 -10 7 -10 16 0 8 -6 22 -14 30 -8 8 -22 14 -30 14 -9 0 -16 5 -16
10 0 6 -9 10 -20 10 -11 0 -20 5 -20 10 0 6 -22 10 -50 10 -27 0 -50 -4 -50
-10z"/>
<path d="M1900 6690 c0 -5 -7 -10 -15 -10 -20 0 -85 -65 -85 -85 0 -8 -4 -15
-10 -15 -5 0 -10 -16 -10 -35 0 -41 36 -85 70 -85 24 0 110 82 110 105 0 8 5
15 10 15 6 0 10 13 10 29 0 16 5 31 12 33 21 7 -38 58 -67 58 -14 0 -25 -4
-25 -10z"/>
<path d="M4420 6450 c0 -6 -110 -10 -310 -10 -200 0 -310 -4 -310 -10 0 -6
-80 -10 -220 -10 -140 0 -220 -4 -220 -10 0 -6 -60 -10 -160 -10 -100 0 -160
-4 -160 -10 0 -6 -50 -10 -130 -10 -80 0 -130 -4 -130 -10 0 -6 -37 -10 -90
-10 -53 0 -90 -4 -90 -10 0 -5 -22 -10 -50 -10 -27 0 -50 -4 -50 -10 0 -5 -13
-10 -30 -10 -16 0 -30 -4 -30 -10 0 -5 -13 -10 -30 -10 -16 0 -30 -4 -30 -10
0 -5 -7 -10 -15 -10 -25 0 -65 -46 -65 -75 0 -14 -4 -25 -10 -25 -6 0 -10 -30
-10 -70 0 -40 -4 -70 -10 -70 -6 0 -10 -47 -10 -120 0 -73 -4 -120 -10 -120
-7 0 -10 -160 -10 -460 0 -300 -3 -460 -10 -460 -6 0 -10 -97 -10 -270 0 -173
4 -270 10 -270 6 0 10 -117 10 -330 0 -213 4 -330 10 -330 6 0 10 -70 10 -190
0 -120 4 -190 10 -190 6 0 10 -47 10 -120 0 -73 4 -120 10 -120 6 0 10 -33 10
-80 0 -47 4 -80 10 -80 6 0 10 -27 10 -60 0 -33 4 -60 10 -60 6 0 10 -22 10
-50 0 -27 5 -50 10 -50 6 0 10 -18 10 -40 0 -22 5 -40 10 -40 6 0 10 -18 10
-40 0 -22 5 -40 10 -40 6 0 10 -13 10 -30 0 -16 5 -30 10 -30 6 0 10 -13 10
-30 0 -16 5 -30 10 -30 6 0 10 -13 10 -30 0 -16 5 -30 10 -30 6 0 10 -9 10
-20 0 -11 5 -20 10 -20 6 0 10 -13 10 -30 0 -16 5 -30 10 -30 6 0 10 -9 10
-20 0 -11 5 -20 10 -20 6 0 10 -9 10 -20 0 -11 5 -20 10 -20 6 0 10 -9 10 -20
0 -11 5 -20 10 -20 6 0 10 -9 10 -20 0 -11 5 -20 10 -20 6 0 10 -9 10 -20 0
-11 5 -20 10 -20 6 0 10 -8 10 -18 0 -10 9 -24 20 -32 11 -8 20 -22 20 -32 0
-10 5 -18 10 -18 6 0 10 -8 10 -18 0 -10 9 -24 20 -32 11 -8 20 -21 20 -28 0
-8 14 -27 30 -42 17 -15 30 -33 30 -40 0 -7 14 -25 30 -40 17 -15 30 -33 30
-40 0 -6 23 -33 50 -60 28 -27 50 -54 50 -59 0 -14 206 -221 220 -221 6 0 42
-32 80 -70 38 -39 74 -70 80 -70 6 0 29 -18 50 -40 21 -22 44 -40 50 -40 7 0
25 -13 40 -30 15 -16 34 -30 42 -30 7 0 20 -9 28 -20 8 -11 21 -20 28 -20 8 0
27 -13 42 -30 15 -16 34 -30 42 -30 7 0 20 -9 28 -20 8 -11 21 -20 30 -20 9 0
22 -9 30 -20 8 -11 21 -20 30 -20 9 0 22 -9 30 -20 8 -11 21 -20 30 -20 9 0
22 -9 30 -20 8 -11 22 -20 32 -20 10 0 18 -4 18 -10 0 -5 8 -10 18 -10 10 0
24 -9 32 -20 8 -11 22 -20 32 -20 10 0 18 -4 18 -10 0 -5 8 -10 18 -10 10 0
24 -9 32 -20 8 -11 21 -20 30 -20 9 0 22 -9 30 -20 8 -11 22 -20 32 -20 10 0
18 -4 18 -10 0 -5 8 -10 18 -10 10 0 24 -9 32 -20 8 -11 22 -20 32 -20 10 0
18 -4 18 -10 0 -5 8 -10 18 -10 10 0 24 -9 32 -20 8 -11 22 -20 32 -20 10 0
18 -4 18 -10 0 -5 9 -10 20 -10 11 0 20 -4 20 -10 0 -5 8 -10 18 -10 10 0 24
-9 32 -20 8 -11 22 -20 32 -20 10 0 18 -4 18 -10 0 -5 9 -10 20 -10 11 0 20
-4 20 -10 0 -5 8 -10 18 -10 10 0 24 -9 32 -20 8 -11 22 -20 32 -20 10 0 18
-4 18 -10 0 -5 9 -10 20 -10 11 0 20 -4 20 -10 0 -5 9 -10 20 -10 11 0 20 -4
20 -10 0 -5 9 -10 20 -10 11 0 20 -4 20 -10 0 -5 14 -10 30 -10 17 0 30 -4 30
-10 0 -5 9 -10 20 -10 11 0 20 5 20 10 0 6 9 10 20 10 11 0 20 5 20 10 0 6 9
10 20 10 11 0 20 5 20 10 0 6 9 10 20 10 11 0 20 5 20 10 0 6 8 10 18 10 10 0
24 9 32 20 8 11 22 20 32 20 10 0 18 5 18 10 0 6 9 10 20 10 11 0 20 5 20 10
0 6 9 10 20 10 11 0 20 5 20 10 0 6 8 10 18 10 10 0 24 9 32 20 8 11 22 20 32
20 10 0 18 5 18 10 0 6 9 10 20 10 11 0 20 5 20 10 0 6 9 10 20 10 11 0 20 5
20 10 0 6 8 10 18 10 10 0 24 9 32 20 8 11 22 20 32 20 10 0 18 5 18 10 0 6 9
10 20 10 11 0 20 5 20 10 0 6 8 10 18 10 10 0 24 9 32 20 8 11 22 20 32 20 10
0 18 5 18 10 0 6 8 10 18 10 10 0 24 9 32 20 8 11 21 20 30 20 9 0 22 9 30 20
8 11 22 20 32 20 10 0 18 5 18 10 0 6 8 10 18 10 10 0 24 9 32 20 8 11 21 20
30 20 9 0 22 9 30 20 8 11 21 20 28 20 8 0 27 14 42 30 15 17 34 30 42 30 7 0
20 9 28 20 8 11 21 20 30 20 9 0 22 9 30 20 8 11 21 20 30 20 9 0 22 9 30 20
8 11 21 20 28 20 8 0 27 14 42 30 15 17 33 30 40 30 6 0 29 18 50 40 21 22 44
40 50 40 6 0 33 23 60 50 27 28 54 50 59 50 14 0 281 267 281 281 0 5 23 32
50 59 28 27 50 54 50 60 0 7 14 25 30 40 17 15 30 34 30 42 0 7 9 20 20 28 11
8 20 21 20 30 0 9 9 22 20 30 11 8 20 21 20 30 0 9 9 22 20 30 11 8 20 21 20
30 0 9 9 22 20 30 11 8 20 22 20 32 0 10 5 18 10 18 6 0 10 9 10 20 0 11 5 20
10 20 6 0 10 9 10 20 0 11 5 20 10 20 6 0 10 9 10 20 0 11 5 20 10 20 6 0 10
9 10 20 0 11 5 20 10 20 6 0 10 14 10 30 0 17 5 30 10 30 6 0 10 9 10 20 0 11
5 20 10 20 6 0 10 14 10 30 0 17 5 30 10 30 6 0 10 14 10 30 0 17 5 30 10 30
6 0 10 14 10 30 0 17 5 30 10 30 6 0 10 18 10 40 0 22 5 40 10 40 6 0 10 18
10 40 0 22 5 40 10 40 6 0 10 23 10 50 0 28 5 50 10 50 6 0 10 27 10 60 0 33
4 60 10 60 6 0 10 30 10 70 0 40 4 70 10 70 6 0 10 37 10 90 0 53 4 90 10 90
6 0 10 47 10 120 0 73 4 120 10 120 6 0 10 67 10 180 0 113 4 180 10 180 7 0
10 417 10 1230 0 813 -3 1230 -10 1230 -5 0 -10 14 -10 30 0 17 -4 30 -10 30
-5 0 -10 7 -10 15 0 20 -45 65 -65 65 -8 0 -15 5 -15 10 0 6 -18 10 -40 10
-22 0 -40 5 -40 10 0 7 -207 10 -600 10 -393 0 -600 3 -600 10 0 6 -127 10
-360 10 -233 0 -360 4 -360 10 0 7 -147 10 -420 10 -273 0 -420 -3 -420 -10z
m700 -200 c0 -6 87 -10 240 -10 153 0 240 -4 240 -10 0 -6 83 -10 230 -10 147
0 230 -4 230 -10 0 -6 103 -10 290 -10 187 0 290 -4 290 -10 0 -6 27 -10 60
-10 33 0 60 4 60 10 0 6 72 10 196 10 169 0 198 -2 212 -17 12 -12 13 -18 4
-21 -16 -5 -18 -1182 -2 -1182 7 0 10 -190 10 -550 0 -360 -3 -550 -10 -550
-6 0 -10 -70 -10 -190 0 -120 -4 -190 -10 -190 -6 0 -10 -53 -10 -140 0 -87
-4 -140 -10 -140 -6 0 -10 -37 -10 -90 0 -53 -4 -90 -10 -90 -6 0 -10 -30 -10
-70 0 -40 -4 -70 -10 -70 -5 0 -10 -22 -10 -50 0 -27 -4 -50 -10 -50 -5 0 -10
-22 -10 -50 0 -27 -4 -50 -10 -50 -5 0 -10 -18 -10 -40 0 -22 -4 -40 -10 -40
-5 0 -10 -13 -10 -30 0 -16 -4 -30 -10 -30 -5 0 -10 -13 -10 -30 0 -16 -4 -30
-10 -30 -5 0 -10 -13 -10 -30 0 -16 -4 -30 -10 -30 -5 0 -10 -13 -10 -30 0
-16 -4 -30 -10 -30 -5 0 -10 -9 -10 -20 0 -11 -4 -20 -10 -20 -5 0 -10 -9 -10
-20 0 -11 -4 -20 -10 -20 -5 0 -10 -13 -10 -30 0 -16 -4 -30 -10 -30 -5 0 -10
-9 -10 -20 0 -11 -4 -20 -10 -20 -5 0 -10 -9 -10 -20 0 -11 -4 -20 -10 -20 -5
0 -10 -8 -10 -18 0 -10 -9 -24 -20 -32 -11 -8 -20 -22 -20 -32 0 -10 -4 -18
-10 -18 -5 0 -10 -8 -10 -18 0 -10 -9 -24 -20 -32 -11 -8 -20 -21 -20 -30 0
-9 -9 -22 -20 -30 -11 -8 -20 -21 -20 -28 0 -8 -13 -27 -30 -42 -16 -15 -30
-33 -30 -40 0 -6 -27 -38 -60 -70 -33 -32 -60 -64 -60 -70 0 -14 -187 -200
-201 -200 -5 0 -32 -22 -59 -50 -27 -27 -54 -50 -60 -50 -7 0 -25 -13 -40 -30
-15 -16 -33 -30 -40 -30 -7 0 -25 -13 -40 -30 -15 -16 -33 -30 -40 -30 -7 0
-25 -13 -40 -30 -15 -16 -34 -30 -42 -30 -7 0 -20 -9 -28 -20 -8 -11 -21 -20
-30 -20 -9 0 -22 -9 -30 -20 -8 -11 -21 -20 -30 -20 -9 0 -22 -9 -30 -20 -8
-11 -21 -20 -30 -20 -9 0 -22 -9 -30 -20 -8 -11 -22 -20 -32 -20 -10 0 -18 -4
-18 -10 0 -5 -8 -10 -18 -10 -10 0 -24 -9 -32 -20 -8 -11 -21 -20 -30 -20 -9
0 -22 -9 -30 -20 -8 -11 -22 -20 -32 -20 -10 0 -18 -4 -18 -10 0 -5 -8 -10
-18 -10 -10 0 -24 -9 -32 -20 -8 -11 -22 -20 -32 -20 -10 0 -18 -4 -18 -10 0
-5 -8 -10 -18 -10 -10 0 -24 -9 -32 -20 -8 -11 -22 -20 -32 -20 -10 0 -18 -4
-18 -10 0 -5 -8 -10 -18 -10 -10 0 -24 -9 -32 -20 -8 -11 -22 -20 -32 -20 -10
0 -18 -4 -18 -10 0 -5 -8 -10 -18 -10 -10 0 -24 -9 -32 -20 -8 -11 -21 -20
-30 -20 -9 0 -22 -9 -30 -20 -8 -11 -22 -20 -32 -20 -15 0 -18 9 -18 60 0 33
4 60 10 60 7 0 10 207 10 600 0 393 -3 600 -10 600 -6 0 -10 110 -10 310 0
200 -4 310 -10 310 -6 0 -10 33 -10 80 0 73 2 80 20 80 11 0 20 5 20 10 0 6 7
10 16 10 20 0 44 24 44 44 0 9 5 16 10 16 6 0 10 9 10 20 0 11 5 20 10 20 6 0
10 18 10 40 0 22 -4 40 -10 40 -15 0 -12 49 4 66 8 8 22 14 30 14 9 0 16 8 16
18 0 10 9 24 20 32 17 12 20 26 20 82 0 39 -4 68 -10 68 -5 0 -10 7 -10 15 0
20 -65 85 -85 85 -8 0 -15 5 -15 10 0 6 -13 10 -30 10 -27 0 -30 3 -30 30 0
17 5 30 10 30 6 0 10 14 10 30 0 17 5 30 10 30 6 0 10 9 10 20 0 11 5 20 10
20 6 0 10 9 10 20 0 11 5 20 10 20 6 0 10 7 10 16 0 9 14 29 30 44 17 15 30
33 30 39 0 6 38 49 85 96 61 62 92 85 110 85 14 0 25 -4 25 -10 0 -5 18 -10
40 -10 22 0 40 -4 40 -10 0 -5 14 -10 30 -10 17 0 30 5 30 10 0 6 17 10 38 10
26 0 42 6 52 20 8 11 20 20 28 20 17 0 42 25 42 42 0 8 9 20 20 28 14 10 20
26 20 52 0 21 5 38 10 38 6 0 10 14 10 30 0 17 -4 30 -10 30 -5 0 -10 14 -10
30 0 17 -4 30 -10 30 -5 0 -10 7 -10 16 0 9 -15 30 -32 47 -21 19 -28 32 -20
34 6 3 12 13 12 24 0 10 5 19 10 19 6 0 10 9 10 20 0 11 5 20 10 20 6 0 10 14
10 30 0 17 5 30 10 30 6 0 10 14 10 30 0 17 5 30 10 30 6 0 10 12 10 26 0 33
21 54 54 54 14 0 26 5 26 10 0 6 9 10 20 10 11 0 20 5 20 10 0 6 7 10 15 10
20 0 65 45 65 65 0 8 5 15 10 15 6 0 10 9 10 20 0 11 5 20 10 20 6 0 10 33 10
80 0 47 -4 80 -10 80 -5 0 -10 11 -10 25 0 29 -79 115 -105 115 -8 0 -15 5
-15 10 0 6 -21 10 -46 10 -52 0 -74 16 -74 54 0 14 -4 26 -10 26 -5 0 -10 14
-10 30 0 17 -4 30 -10 30 -5 0 -10 9 -10 20 0 11 -4 20 -10 20 -5 0 -10 9 -10
20 0 11 -4 20 -10 20 -5 0 -10 9 -10 20 0 11 -4 20 -10 20 -5 0 -10 14 -10 30
0 17 5 30 10 30 6 0 10 14 10 30 0 17 5 30 10 30 6 0 10 30 10 70 0 40 -4 70
-10 70 -5 0 -10 9 -10 20 0 11 -4 20 -10 20 -5 0 -10 7 -10 15 0 20 -65 85
-85 85 -8 0 -15 5 -15 10 0 6 -36 10 -88 10 -76 0 -89 -3 -102 -20 -8 -11 -22
-20 -31 -20 -10 0 -20 -6 -23 -12 -5 -10 -7 -10 -12 0 -3 6 -14 12 -25 12 -10
0 -19 5 -19 10 0 6 -9 10 -20 10 -11 0 -20 5 -20 10 0 6 -9 10 -20 10 -11 0
-20 5 -20 10 0 6 -13 10 -30 10 -16 0 -30 5 -30 10 0 6 -13 10 -30 10 -16 0
-30 5 -30 10 0 6 -12 10 -26 10 -33 0 -54 21 -54 54 0 14 -4 26 -10 26 -5 0
-10 7 -10 15 0 20 -85 105 -105 105 -8 0 -15 5 -15 10 0 6 -33 10 -80 10 -47
0 -80 -4 -80 -10 0 -5 -7 -10 -15 -10 -20 0 -105 -85 -105 -105 0 -8 -4 -15
-10 -15 -5 0 -10 -22 -10 -50 0 -49 -1 -50 -30 -50 -16 0 -30 -4 -30 -10 0 -5
-9 -10 -20 -10 -11 0 -20 -4 -20 -10 0 -5 -13 -10 -30 -10 -16 0 -30 -4 -30
-10 0 -5 -9 -10 -20 -10 -11 0 -20 -4 -20 -10 0 -5 -9 -10 -20 -10 -11 0 -20
-4 -20 -10 0 -5 -9 -10 -20 -10 -11 0 -20 -4 -20 -10 0 -5 -13 -10 -30 -10
-16 0 -30 5 -30 10 0 6 -9 10 -20 10 -11 0 -20 5 -20 10 0 6 -33 10 -80 10
-47 0 -80 -4 -80 -10 0 -5 -7 -10 -15 -10 -26 0 -105 -86 -105 -115 0 -14 -4
-25 -10 -25 -6 0 -10 -27 -10 -60 0 -33 4 -60 10 -60 6 0 10 -9 10 -20 0 -11
5 -20 10 -20 6 0 10 -9 10 -19 0 -11 6 -22 13 -25 10 -5 10 -7 0 -12 -7 -3
-13 -14 -13 -25 0 -10 -4 -19 -10 -19 -5 0 -10 -9 -10 -20 0 -11 -4 -20 -10
-20 -5 0 -10 -13 -10 -30 0 -16 -4 -30 -10 -30 -5 0 -10 -18 -10 -40 0 -22 -4
-40 -10 -40 -5 0 -10 -12 -10 -26 0 -33 -21 -54 -54 -54 -14 0 -26 -4 -26 -10
0 -5 -7 -10 -15 -10 -20 0 -85 -65 -85 -85 0 -8 -4 -15 -10 -15 -6 0 -10 -36
-10 -88 0 -76 3 -89 20 -102 11 -8 20 -20 20 -28 0 -18 46 -62 65 -62 8 0 15
-4 15 -10 0 -5 9 -10 20 -10 11 0 20 -4 20 -10 0 -5 18 -10 40 -10 33 0 40 -3
40 -20 0 -11 5 -20 10 -20 6 0 10 -9 10 -20 0 -11 5 -20 10 -20 6 0 10 -8 10
-18 0 -10 9 -24 20 -32 11 -8 20 -20 20 -28 0 -7 23 -35 50 -62 l50 -49 0 -85
c0 -51 4 -86 10 -86 6 0 10 -7 10 -15 0 -20 85 -105 105 -105 8 0 15 -4 15
-10 0 -6 33 -10 80 -10 47 0 80 4 80 10 0 6 7 10 15 10 20 0 105 85 105 105 0
12 14 15 70 15 40 0 70 4 70 10 0 6 18 10 40 10 22 0 40 5 40 10 0 6 9 10 20
10 11 0 20 5 20 10 0 6 9 10 20 10 11 0 20 5 20 10 0 6 7 10 15 10 20 0 145
125 145 145 0 8 5 15 10 15 6 0 10 9 10 20 0 11 5 20 10 20 6 0 10 14 10 30 0
17 5 30 10 30 6 0 10 50 10 130 0 80 -4 130 -10 130 -5 0 -10 13 -10 28 0 16
-8 34 -20 42 -11 8 -20 20 -20 28 0 17 -45 62 -62 62 -8 0 -20 9 -28 20 -8 12
-26 20 -42 20 -15 0 -28 5 -28 10 0 6 -33 10 -80 10 -47 0 -80 -4 -80 -10 0
-5 -11 -10 -25 -10 -35 0 -135 -100 -135 -135 0 -14 -4 -25 -10 -25 -5 0 -10
-18 -10 -40 0 -33 -3 -40 -20 -40 -11 0 -20 5 -20 10 0 6 -9 10 -20 10 -13 0
-20 7 -20 20 0 11 -4 20 -10 20 -5 0 -10 9 -10 20 0 11 -4 20 -10 20 -5 0 -10
14 -10 30 0 17 -4 30 -10 30 -5 0 -10 14 -10 30 0 17 5 30 10 30 6 0 10 23 10
50 0 28 5 50 10 50 6 0 10 9 10 20 0 11 5 20 10 20 6 0 10 9 10 20 0 11 5 20
10 20 6 0 10 7 10 15 0 19 104 125 123 125 7 0 19 9 27 20 8 11 22 20 32 20
10 0 18 5 18 10 0 6 9 10 20 10 11 0 20 5 20 10 0 6 18 10 40 10 22 0 40 5 40
10 0 6 33 10 80 10 47 0 80 -4 80 -10 0 -5 23 -10 50 -10 28 0 50 -4 50 -10 0
-5 9 -10 20 -10 11 0 20 -4 20 -10 0 -5 9 -10 20 -10 11 0 20 -4 20 -10 0 -5
7 -10 15 -10 9 0 49 -34 90 -75 41 -41 75 -81 75 -90 0 -8 5 -15 10 -15 6 0
10 -9 10 -20 0 -11 5 -20 10 -20 6 0 10 -9 10 -20 0 -11 5 -20 10 -20 6 0 10
-13 10 -30 0 -16 5 -30 10 -30 6 0 10 -60 10 -160 0 -100 -4 -160 -10 -160 -5
0 -10 -13 -10 -30 0 -16 -4 -30 -10 -30 -5 0 -10 -9 -10 -20 0 -11 -4 -20 -10
-20 -5 0 -10 -9 -10 -20 0 -11 -4 -20 -10 -20 -5 0 -10 -8 -10 -18 0 -10 -9
-24 -20 -32 -11 -8 -20 -20 -20 -27 0 -16 -185 -203 -200 -203 -15 0 -260
-248 -260 -263 0 -7 -9 -19 -20 -27 -11 -8 -20 -21 -20 -30 0 -9 -9 -22 -20
-30 -12 -8 -20 -26 -20 -42 0 -15 -4 -28 -10 -28 -5 0 -10 -9 -10 -20 0 -11
-4 -20 -10 -20 -5 0 -10 -13 -10 -30 0 -16 -4 -30 -10 -30 -6 0 -10 -30 -10
-70 0 -40 -4 -70 -10 -70 -5 0 -10 -9 -10 -20 0 -11 5 -20 10 -20 15 0 12 -49
-4 -66 -8 -8 -34 -14 -60 -14 -25 0 -46 -4 -46 -10 0 -5 -9 -10 -20 -10 -11 0
-20 -4 -20 -10 0 -5 -7 -10 -15 -10 -9 0 -31 -16 -50 -35 -32 -32 -35 -39 -35
-95 0 -58 2 -62 45 -105 24 -25 49 -45 55 -45 6 0 18 -7 27 -15 14 -14 13 -18
-6 -34 -17 -15 -21 -30 -21 -85 0 -37 4 -66 10 -66 6 0 10 -7 10 -16 0 -20 24
-44 44 -44 9 0 16 -4 16 -10 0 -5 9 -10 20 -10 20 0 20 -7 20 -920 0 -607 3
-920 10 -920 6 0 10 -57 10 -150 0 -82 -4 -150 -8 -150 -4 0 -14 9 -22 20 -8
11 -22 20 -32 20 -10 0 -18 5 -18 10 0 6 -8 10 -18 10 -10 0 -24 9 -32 20 -8
11 -21 20 -30 20 -9 0 -22 9 -30 20 -8 11 -22 20 -32 20 -10 0 -18 5 -18 10 0
6 -8 10 -18 10 -10 0 -24 9 -32 20 -8 11 -21 20 -30 20 -9 0 -22 9 -30 20 -8
11 -22 20 -32 20 -10 0 -18 5 -18 10 0 6 -8 10 -18 10 -10 0 -24 9 -32 20 -8
11 -21 20 -30 20 -9 0 -22 9 -30 20 -8 11 -22 20 -32 20 -10 0 -18 5 -18 10 0
6 -8 10 -18 10 -10 0 -24 9 -32 20 -8 11 -22 20 -32 20 -10 0 -18 5 -18 10 0
6 -8 10 -18 10 -10 0 -24 9 -32 20 -8 11 -21 20 -30 20 -9 0 -22 9 -30 20 -8
11 -21 20 -30 20 -9 0 -22 9 -30 20 -8 11 -21 20 -30 20 -9 0 -22 9 -30 20 -8
11 -21 20 -28 20 -8 0 -27 13 -42 30 -15 16 -33 30 -40 30 -7 0 -25 14 -40 30
-15 17 -33 30 -40 30 -6 0 -33 23 -60 50 -27 28 -54 50 -60 50 -6 0 -42 32
-80 70 -38 39 -74 70 -80 70 -14 0 -100 86 -100 100 0 6 -27 38 -60 70 -33 32
-60 64 -60 70 0 7 -13 25 -30 40 -16 15 -30 33 -30 40 0 7 -13 25 -30 40 -16
15 -30 34 -30 42 0 7 -9 20 -20 28 -11 8 -20 22 -20 32 0 10 -4 18 -10 18 -5
0 -10 9 -10 20 0 11 -4 20 -10 20 -5 0 -10 8 -10 18 0 10 -9 24 -20 32 -11 8
-20 22 -20 32 0 10 -4 18 -10 18 -5 0 -10 9 -10 20 0 11 -4 20 -10 20 -5 0
-10 9 -10 20 0 11 -4 20 -10 20 -5 0 -10 9 -10 20 0 11 -4 20 -10 20 -5 0 -10
14 -10 30 0 17 -4 30 -10 30 -5 0 -10 9 -10 20 0 11 -4 20 -10 20 -5 0 -10 14
-10 30 0 17 -4 30 -10 30 -5 0 -10 14 -10 30 0 17 -4 30 -10 30 -5 0 -10 14
-10 30 0 17 -4 30 -10 30 -5 0 -10 18 -10 40 0 22 -4 40 -10 40 -5 0 -10 23
-10 50 0 28 -4 50 -10 50 -5 0 -10 23 -10 50 0 28 -4 50 -10 50 -6 0 -10 33
-10 80 0 47 -4 80 -10 80 -6 0 -10 43 -10 110 0 67 -4 110 -10 110 -6 0 -10
63 -10 170 0 107 -4 170 -10 170 -6 0 -10 77 -10 210 0 133 -4 210 -10 210 -7
0 -10 273 -10 800 0 527 -3 800 -10 800 -6 0 -10 80 -10 220 0 140 -4 220 -10
220 -6 0 -10 27 -10 60 l0 60 170 0 c107 0 170 4 170 10 0 6 77 10 210 10 133
0 210 4 210 10 0 6 83 10 230 10 147 0 230 4 230 10 0 6 100 10 280 10 180 0
280 4 280 10 0 7 163 10 470 10 307 0 470 -3 470 -10z m-245 -435 c14 -13 25
-27 25 -30 0 -3 -31 -5 -70 -5 -40 0 -70 -4 -70 -10 0 -5 -9 -10 -20 -10 -16
0 -20 7 -20 30 0 23 4 30 20 30 11 0 20 5 20 10 0 6 20 10 45 10 35 0 52 -6
70 -25z m85 -205 c0 -5 18 -10 40 -10 22 0 40 -4 40 -10 0 -5 18 -10 40 -10
22 0 40 -4 40 -10 0 -5 9 -10 20 -10 11 0 20 -4 20 -10 0 -5 14 -10 30 -10 17
0 30 -4 30 -10 0 -5 8 -10 18 -10 10 0 24 -9 32 -20 8 -11 21 -20 28 -20 8 0
27 -13 42 -30 15 -16 33 -30 39 -30 15 0 121 -106 121 -121 0 -6 14 -24 30
-39 17 -15 30 -35 30 -44 0 -9 5 -16 10 -16 6 0 10 -9 10 -20 0 -11 5 -20 10
-20 6 0 10 -9 10 -20 0 -11 5 -20 10 -20 6 0 10 -9 10 -20 0 -11 5 -20 10 -20
6 0 10 -13 10 -30 0 -16 5 -30 10 -30 6 0 10 -13 10 -30 0 -16 5 -30 10 -30 6
0 10 -30 10 -70 0 -40 4 -70 10 -70 6 0 10 -33 10 -80 0 -47 -4 -80 -10 -80
-6 0 -10 -27 -10 -60 0 -33 -4 -60 -10 -60 -5 0 -10 -13 -10 -30 0 -16 -4 -30
-10 -30 -5 0 -10 -13 -10 -30 0 -16 -4 -30 -10 -30 -5 0 -10 -9 -10 -20 0 -11
-4 -20 -10 -20 -5 0 -10 -8 -10 -18 0 -10 -9 -24 -20 -32 -11 -8 -20 -21 -20
-30 0 -9 -9 -22 -20 -30 -11 -8 -20 -20 -20 -27 0 -8 -90 -103 -200 -213 -110
-110 -200 -205 -200 -211 0 -6 -13 -24 -30 -39 -16 -15 -30 -34 -30 -42 0 -7
-9 -20 -20 -28 -11 -8 -20 -22 -20 -32 0 -10 -4 -18 -10 -18 -5 0 -10 -9 -10
-20 0 -11 -4 -20 -10 -20 -5 0 -10 -13 -10 -30 0 -16 -4 -30 -10 -30 -5 0 -10
-13 -10 -30 0 -16 -4 -30 -10 -30 -5 0 -10 -22 -10 -50 l0 -50 -110 0 c-67 0
-110 4 -110 10 0 6 5 10 10 10 6 0 10 30 10 70 0 40 4 70 10 70 6 0 10 14 10
30 0 17 5 30 10 30 6 0 10 14 10 30 0 17 5 30 10 30 6 0 10 9 10 20 0 11 5 20
10 20 6 0 10 8 10 18 0 10 9 24 20 32 11 8 20 20 20 27 0 15 205 223 220 223
15 0 260 248 260 263 0 7 9 19 20 27 11 8 20 22 20 32 0 10 5 18 10 18 6 0 10
9 10 20 0 11 5 20 10 20 6 0 10 9 10 20 0 11 5 20 10 20 6 0 10 9 10 20 0 11
5 20 10 20 6 0 10 18 10 40 0 22 5 40 10 40 6 0 10 63 10 170 0 107 -4 170
-10 170 -5 0 -10 18 -10 40 0 22 -4 40 -10 40 -5 0 -10 14 -10 30 0 17 -4 30
-10 30 -5 0 -10 9 -10 20 0 11 -4 20 -10 20 -5 0 -10 9 -10 20 0 11 -4 20 -10
20 -5 0 -10 8 -10 18 0 10 -9 24 -20 32 -11 8 -20 20 -20 27 0 16 -85 103
-101 103 -6 0 -24 14 -39 30 -15 17 -35 30 -44 30 -9 0 -16 5 -16 10 0 6 -9
10 -20 10 -11 0 -20 5 -20 10 0 6 -13 10 -30 10 -16 0 -30 5 -30 10 0 6 -13
10 -30 10 -16 0 -30 5 -30 10 0 6 -30 10 -70 10 -40 0 -70 4 -70 10 0 6 -18
10 -40 10 -22 0 -40 -4 -40 -10 0 -6 -27 -10 -60 -10 -33 0 -60 -4 -60 -10 0
-5 -13 -10 -30 -10 -16 0 -30 -4 -30 -10 0 -5 -13 -10 -28 -10 -16 0 -34 -8
-42 -20 -8 -11 -22 -20 -32 -20 -10 0 -18 -4 -18 -10 0 -5 -7 -10 -15 -10 -19
0 -165 -144 -165 -163 0 -7 -9 -19 -20 -27 -11 -8 -20 -22 -20 -32 0 -10 -4
-18 -10 -18 -5 0 -10 -9 -10 -20 0 -11 -4 -20 -10 -20 -5 0 -10 -18 -10 -40 0
-22 -4 -40 -10 -40 -6 0 -10 -47 -10 -120 0 -73 4 -120 10 -120 6 0 10 -13 10
-30 0 -16 5 -30 10 -30 6 0 10 -9 10 -20 0 -11 5 -20 10 -20 6 0 10 -7 10 -15
0 -19 64 -85 82 -85 8 0 20 -9 28 -20 8 -12 26 -20 42 -20 15 0 28 -4 28 -10
0 -5 23 -10 50 -10 28 0 50 5 50 10 0 6 7 10 16 10 20 0 44 24 44 44 0 9 5 16
10 16 6 0 10 30 10 70 0 40 4 70 10 70 6 0 10 7 10 16 0 20 24 44 44 44 9 0
16 5 16 10 0 6 23 10 50 10 28 0 50 -4 50 -10 0 -5 7 -10 15 -10 20 0 65 -45
65 -65 0 -8 5 -15 10 -15 6 0 10 -13 10 -30 0 -16 5 -30 10 -30 6 0 10 -27 10
-60 0 -33 -4 -60 -10 -60 -5 0 -10 -13 -10 -28 0 -16 -8 -34 -20 -42 -11 -8
-20 -20 -20 -28 0 -18 -66 -82 -85 -82 -8 0 -15 -4 -15 -10 0 -5 -9 -10 -20
-10 -11 0 -20 -4 -20 -10 0 -5 -13 -10 -30 -10 -16 0 -30 -4 -30 -10 0 -6 -50
-10 -130 -10 -80 0 -130 4 -130 10 0 6 -13 10 -30 10 -16 0 -30 5 -30 10 0 6
-8 10 -18 10 -10 0 -24 9 -32 20 -8 11 -20 20 -27 20 -17 0 -123 106 -123 123
0 7 -9 19 -20 27 -11 8 -20 22 -20 32 0 10 -4 18 -10 18 -5 0 -10 9 -10 20 0
11 -4 20 -10 20 -5 0 -10 14 -10 30 0 17 -4 30 -10 30 -5 0 -10 14 -10 30 0
17 -4 30 -10 30 -6 0 -10 60 -10 160 0 100 4 160 10 160 6 0 10 18 10 40 0 22
5 40 10 40 6 0 10 14 10 30 0 17 5 30 10 30 6 0 10 9 10 20 0 11 5 20 10 20 6
0 10 8 10 18 0 10 9 24 20 32 11 8 20 20 20 27 0 17 166 183 183 183 7 0 19 9
27 20 8 11 22 20 32 20 10 0 18 5 18 10 0 6 9 10 20 10 11 0 20 5 20 10 0 6 9
10 20 10 11 0 20 5 20 10 0 6 14 10 30 10 17 0 30 5 30 10 0 6 14 10 30 10 17
0 30 5 30 10 0 6 27 10 60 10 33 0 60 4 60 10 0 6 50 10 130 10 80 0 130 -4
130 -10z m580 -40 c0 -5 7 -10 16 -10 28 0 44 -27 44 -74 0 -25 -3 -46 -6 -46
-11 0 -34 29 -34 44 0 9 -7 16 -15 16 -9 0 -27 11 -41 25 -21 21 -23 27 -12
40 15 16 48 20 48 5z m-1400 -55 c0 -7 -88 -95 -95 -95 -11 0 -5 71 8 85 11
13 87 22 87 10z m1740 -653 c0 -10 9 -24 20 -32 30 -22 28 -93 -5 -125 -24
-25 -55 -33 -55 -15 0 6 5 10 10 10 6 0 10 30 10 70 0 40 -4 70 -10 70 -5 0
-10 9 -10 20 0 13 7 20 20 20 13 0 20 -7 20 -18z m-2040 -62 c0 -22 5 -40 10
-40 6 0 10 -13 10 -30 0 -33 -21 -40 -46 -16 -27 27 -13 124 19 126 4 0 7 -18
7 -40z m400 -630 c0 -5 9 -10 20 -10 11 0 20 -4 20 -10 0 -5 14 -10 30 -10 23
0 30 -4 30 -20 0 -31 -63 -28 -95 5 -25 24 -33 55 -15 55 6 0 10 -4 10 -10z
m1420 -95 c0 -54 -33 -95 -75 -95 -41 0 -33 42 18 95 23 24 45 44 50 44 4 1 7
-19 7 -44z m-580 -845 c0 -5 7 -10 16 -10 15 0 44 -23 44 -34 0 -3 -9 -6 -20
-6 -11 0 -20 -4 -20 -10 0 -5 -13 -10 -30 -10 -16 0 -30 -4 -30 -10 0 -6 -70
-10 -190 -10 -120 0 -190 4 -190 10 0 6 -29 10 -66 10 -43 0 -70 5 -80 14 -21
21 -17 46 6 46 11 0 20 5 20 10 0 6 97 10 270 10 173 0 270 -4 270 -10z m-300
-260 c0 -6 50 -10 130 -10 123 0 130 -1 130 -20 0 -16 -7 -20 -30 -20 -16 0
-30 -4 -30 -10 0 -6 -73 -10 -200 -10 l-200 0 0 40 0 40 100 0 c60 0 100 -4
100 -10z m20 -330 c0 -73 -4 -120 -10 -120 -5 0 -10 -13 -10 -30 0 -16 5 -30
10 -30 6 0 10 -80 10 -220 0 -140 4 -220 10 -220 6 0 10 -47 10 -120 0 -73 4
-120 10 -120 6 0 10 -40 10 -100 0 -60 4 -100 10 -100 6 0 10 -40 10 -100 0
-60 4 -100 10 -100 7 0 10 170 10 490 0 320 -3 490 -10 490 -6 0 -10 63 -10
170 0 107 -4 170 -10 170 -5 0 -10 14 -10 30 0 27 3 30 30 30 l30 0 0 -200 c0
-127 4 -200 10 -200 7 0 10 -143 10 -410 0 -267 3 -410 10 -410 7 0 10 -153
10 -440 0 -287 3 -440 10 -440 15 0 12 -49 -4 -66 -8 -8 -21 -14 -28 -14 -8 0
-20 -9 -28 -20 -8 -11 -21 -20 -29 -20 -7 0 -23 -10 -34 -22 -13 -16 -21 -19
-24 -10 -3 6 -12 12 -22 12 -9 0 -23 9 -31 20 -8 11 -20 20 -28 20 -20 0 -50
32 -34 38 16 5 18 2042 2 2042 -6 0 -10 27 -10 60 l0 60 60 0 60 0 0 -120z"/>
<path d="M3140 5970 c0 -6 -57 -10 -150 -10 -93 0 -150 -4 -150 -10 0 -5 -11
-10 -25 -10 -29 0 -95 -59 -95 -85 0 -8 -4 -15 -10 -15 -6 0 -10 -27 -10 -60
0 -33 -4 -60 -10 -60 -6 0 -10 -127 -10 -360 0 -233 4 -360 10 -360 6 0 10
-27 10 -60 0 -33 4 -60 10 -60 6 0 10 -13 10 -30 0 -26 4 -30 26 -30 42 0 54
21 54 94 0 37 4 66 10 66 6 0 10 63 10 170 0 107 4 170 10 170 6 0 10 87 10
240 l0 240 50 0 c28 0 50 5 50 10 0 6 57 10 150 10 93 0 150 4 150 10 0 6 33
10 80 10 47 0 80 4 80 10 0 6 7 10 16 10 18 0 44 23 44 40 0 20 -49 60 -75 60
-14 0 -25 5 -25 10 0 6 -43 10 -110 10 -67 0 -110 -4 -110 -10z"/>
<path d="M2733 4465 c-7 -8 -13 -26 -13 -40 0 -14 -4 -25 -10 -25 -6 0 -10
-43 -10 -110 0 -67 4 -110 10 -110 6 0 10 -11 10 -25 0 -29 51 -88 58 -67 2 7
12 12 23 12 17 0 19 8 19 60 0 33 4 60 10 60 6 0 10 9 10 20 0 11 -4 20 -10
20 -6 0 -10 33 -10 80 0 47 -4 80 -10 80 -5 0 -10 7 -10 16 0 19 -24 44 -42
44 -7 -1 -19 -7 -25 -15z"/>
<path d="M6773 3325 c-7 -8 -13 -21 -13 -30 0 -8 -4 -15 -10 -15 -5 0 -10 -18
-10 -40 0 -22 -4 -40 -10 -40 -5 0 -10 -22 -10 -50 0 -27 -4 -50 -10 -50 -6 0
-10 -32 -10 -76 0 -57 4 -79 17 -92 12 -12 18 -13 21 -4 2 6 10 12 19 12 22 0
43 26 43 54 0 14 5 26 10 26 6 0 10 18 10 40 0 22 5 40 10 40 6 0 10 47 10
120 l0 120 -27 0 c-16 -1 -34 -7 -40 -15z"/>
<path d="M6573 2545 c-7 -8 -13 -21 -13 -30 0 -8 -4 -15 -10 -15 -5 0 -10 -9
-10 -20 0 -11 -4 -20 -10 -20 -5 0 -10 -8 -10 -18 0 -10 -9 -24 -20 -32 -11
-8 -20 -22 -20 -32 0 -10 -4 -18 -10 -18 -5 0 -10 -9 -10 -20 0 -11 -4 -20
-10 -20 -5 0 -10 -9 -10 -20 0 -11 -4 -20 -10 -20 -5 0 -10 -8 -10 -18 0 -10
-9 -24 -20 -32 -11 -8 -20 -21 -20 -30 0 -9 -9 -22 -20 -30 -11 -8 -20 -21
-20 -30 0 -9 -9 -22 -20 -30 -11 -8 -20 -21 -20 -28 0 -8 -13 -27 -30 -42 -16
-15 -30 -33 -30 -39 0 -7 -31 -43 -70 -81 -38 -38 -70 -74 -70 -80 0 -6 -49
-60 -110 -120 -60 -60 -110 -115 -110 -122 0 -8 -9 -20 -20 -28 -11 -8 -20
-22 -20 -32 0 -10 -4 -18 -10 -18 -5 0 -10 -9 -10 -20 0 -17 7 -20 40 -20 22
0 40 5 40 10 0 6 9 10 20 10 11 0 20 5 20 10 0 6 9 10 20 10 11 0 20 5 20 10
0 6 7 10 16 10 9 0 29 14 44 30 15 17 33 30 39 30 14 0 241 226 241 241 0 6
18 28 40 49 22 21 40 45 40 52 0 7 9 20 20 28 11 8 20 21 20 30 0 9 9 22 20
30 11 8 20 21 20 30 0 9 9 22 20 30 11 8 20 22 20 32 0 10 5 18 10 18 6 0 10
9 10 20 0 11 5 20 10 20 6 0 10 9 10 20 0 11 5 20 10 20 6 0 10 9 10 20 0 11
5 20 10 20 6 0 10 14 10 30 0 17 5 30 10 30 6 0 10 14 10 30 0 17 5 30 10 30
6 0 10 14 10 30 0 17 5 30 10 30 16 0 12 89 -4 106 -18 18 -57 18 -73 -1z"/>
<path d="M4880 1340 c0 -11 5 -20 10 -20 6 0 10 9 10 20 0 11 -4 20 -10 20 -5
0 -10 -9 -10 -20z"/>
<path d="M1533 5605 c-30 -32 -33 -40 -33 -100 0 -37 4 -65 10 -65 6 0 10 -7
10 -15 0 -20 85 -105 105 -105 8 0 15 -4 15 -10 0 -6 27 -10 60 -10 33 0 60 4
60 10 0 6 9 10 20 10 13 0 20 7 20 20 0 11 5 20 10 20 6 0 10 27 10 60 0 33
-4 60 -10 60 -5 0 -10 7 -10 15 0 20 -105 125 -125 125 -8 0 -15 5 -15 10 0 6
-21 10 -47 9 -41 0 -53 -5 -80 -34z"/>
<path d="M7540 1850 c0 -5 -9 -10 -20 -10 -11 0 -20 -4 -20 -10 0 -5 -7 -10
-16 -10 -25 0 -44 -26 -44 -60 0 -34 19 -60 44 -60 9 0 16 -4 16 -10 0 -6 27
-10 60 -10 33 0 60 4 60 10 0 6 14 10 30 10 17 0 30 5 30 10 0 6 9 10 20 10
11 0 20 5 20 10 0 6 7 10 16 10 18 0 44 23 44 40 0 25 -49 60 -85 60 -19 0
-35 5 -35 10 0 6 -27 10 -60 10 -33 0 -60 -4 -60 -10z"/>
<path d="M2220 1590 c0 -5 -9 -10 -20 -10 -13 0 -20 -7 -20 -20 0 -11 -4 -20
-10 -20 -5 0 -10 -13 -10 -30 0 -16 5 -30 10 -30 6 0 10 -9 10 -20 0 -13 7
-20 20 -20 11 0 20 -4 20 -10 0 -6 33 -10 80 -10 47 0 80 4 80 10 0 6 7 10 16
10 22 0 44 25 44 50 0 24 -22 50 -42 50 -8 0 -20 9 -28 20 -8 12 -26 20 -42
20 -15 0 -28 5 -28 10 0 6 -18 10 -40 10 -22 0 -40 -4 -40 -10z"/>
<path d="M7253 1445 c-15 -17 -17 -85 -3 -85 6 0 10 -7 10 -15 0 -20 125 -145
145 -145 8 0 15 -4 15 -10 0 -5 9 -10 20 -10 11 0 20 -4 20 -10 0 -21 70 -10
95 15 25 24 33 55 15 55 -5 0 -10 9 -10 20 0 11 -4 20 -10 20 -5 0 -10 7 -10
15 0 20 -125 145 -145 145 -8 0 -15 5 -15 10 0 16 -113 12 -127 -5z"/>
<path d="M6883 1115 c-21 -23 -23 -33 -23 -150 0 -77 4 -125 10 -125 6 0 10
-9 10 -20 0 -11 5 -20 10 -20 6 0 10 -7 10 -16 0 -26 26 -44 64 -44 29 0 36 4
36 20 0 11 5 20 10 20 6 0 10 14 10 30 0 17 5 30 10 30 6 0 10 33 10 80 0 47
-4 80 -10 80 -5 0 -10 14 -10 30 0 17 -4 30 -10 30 -5 0 -10 7 -10 15 0 24
-46 65 -72 64 -13 0 -33 -11 -45 -24z"/>
<path d="M2883 855 c-13 -13 -23 -31 -23 -40 0 -8 -4 -15 -10 -15 -6 0 -10
-33 -10 -80 0 -47 4 -80 10 -80 6 0 10 -7 10 -16 0 -20 24 -44 44 -44 9 0 16
-4 16 -10 0 -5 23 -10 50 -10 28 0 50 5 50 10 0 6 7 10 15 10 20 0 65 45 65
65 0 8 5 15 10 15 6 0 10 18 10 40 0 22 -4 40 -10 40 -5 0 -10 9 -10 20 0 17
-7 20 -40 20 -22 0 -40 -4 -40 -10 0 -5 -4 -10 -10 -10 -5 0 -10 21 -10 46 0
26 -6 52 -14 60 -23 22 -78 16 -103 -11z"/>
</g>
</svg>
