<svg xmlns="http://www.w3.org/2000/svg" viewBox="0 0 856.000000 738.000000" fill="currentColor" aria-hidden="true">
<g transform="translate(0.000000,738.000000) scale(0.100000,-0.100000)" fill="currentColor" stroke="none">
<path d="M0 3690 l0 -3690 4280 0 4280 0 0 3690 0 3690 -4280 0 -4280 0 0
-3690z m4620 2800 c0 -6 37 -10 90 -10 53 0 90 -4 90 -10 0 -6 27 -10 60 -10
33 0 60 -4 60 -10 0 -5 23 -10 50 -10 28 0 50 -4 50 -10 0 -5 18 -10 40 -10
22 0 40 -4 40 -10 0 -5 18 -10 40 -10 22 0 40 -4 40 -10 0 -5 18 -10 40 -10
22 0 40 -4 40 -10 0 -5 14 -10 30 -10 17 0 30 -4 30 -10 0 -5 14 -10 30 -10
17 0 30 -4 30 -10 0 -5 9 -10 20 -10 11 0 20 -4 20 -10 0 -5 14 -10 30 -10 17
0 30 -4 30 -10 0 -5 14 -10 30 -10 17 0 30 -4 30 -10 0 -5 9 -10 20 -10 11 0
20 -4 20 -10 0 -5 9 -10 20 -10 11 0 20 -4 20 -10 0 -5 9 -10 20 -10 11 0 20
-4 20 -10 0 -5 9 -10 20 -10 11 0 20 -4 20 -10 0 -5 9 -10 20 -10 11 0 20 -4
20 -10 0 -5 9 -10 20 -10 11 0 20 -4 20 -10 0 -5 9 -10 20 -10 11 0 20 -4 20
-10 0 -5 8 -10 18 -10 10 0 24 -9 32 -20 8 -11 22 -20 32 -20 10 0 18 -4 18
-10 0 -5 8 -10 18 -10 10 0 24 -9 32 -20 8 -11 21 -20 30 -20 9 0 22 -9 30
-20 8 -11 21 -20 28 -20 8 0 27 -13 42 -30 15 -16 33 -30 40 -30 7 0 25 -13
40 -30 15 -16 33 -30 40 -30 6 0 29 -18 50 -40 21 -22 43 -40 49 -40 14 0 381
-366 381 -381 0 -5 23 -32 50 -59 28 -27 50 -54 50 -60 0 -7 14 -25 30 -40 17
-15 30 -34 30 -42 0 -7 9 -20 20 -28 11 -8 20 -21 20 -30 0 -9 9 -22 20 -30
11 -8 20 -21 20 -30 0 -9 9 -22 20 -30 11 -8 20 -21 20 -30 0 -9 9 -22 20 -30
11 -8 20 -22 20 -32 0 -10 5 -18 10 -18 6 0 10 -9 10 -20 0 -11 5 -20 10 -20
6 0 10 -8 10 -18 0 -10 9 -24 20 -32 11 -8 20 -22 20 -32 0 -10 5 -18 10 -18
6 0 10 -9 10 -20 0 -11 5 -20 10 -20 6 0 10 -13 10 -30 0 -16 5 -30 10 -30 6
0 10 -9 10 -20 0 -11 5 -20 10 -20 6 0 10 -9 10 -20 0 -11 5 -20 10 -20 6 0
10 -13 10 -30 0 -16 5 -30 10 -30 6 0 10 -13 10 -30 0 -16 5 -30 10 -30 6 0
10 -9 10 -20 0 -11 5 -20 10 -20 6 0 10 -13 10 -30 0 -16 5 -30 10 -30 6 0 10
-13 10 -30 0 -16 5 -30 10 -30 6 0 10 -13 10 -30 0 -16 5 -30 10 -30 6 0 10
-18 10 -40 0 -22 5 -40 10 -40 6 0 10 -18 10 -40 0 -22 5 -40 10 -40 6 0 10
-18 10 -40 0 -22 5 -40 10 -40 6 0 10 -18 10 -40 0 -22 5 -40 10 -40 6 0 10
-22 10 -50 0 -27 5 -50 10 -50 6 0 10 -30 10 -70 0 -40 4 -70 10 -70 6 0 10
-40 10 -100 0 -60 4 -100 10 -100 6 0 10 -73 10 -200 0 -127 -4 -200 -10 -200
-6 0 -10 -37 -10 -90 0 -53 -4 -90 -10 -90 -6 0 -10 -30 -10 -70 0 -40 -4 -70
-10 -70 -5 0 -10 -22 -10 -50 0 -27 -4 -50 -10 -50 -5 0 -10 -18 -10 -40 0
-22 -4 -40 -10 -40 -5 0 -10 -13 -10 -30 0 -16 -4 -30 -10 -30 -5 0 -10 -13
-10 -30 0 -16 -4 -30 -10 -30 -5 0 -10 -13 -10 -30 0 -16 -4 -30 -10 -30 -5 0
-10 -13 -10 -30 0 -16 -4 -30 -10 -30 -5 0 -10 -9 -10 -20 0 -11 -4 -20 -10
-20 -5 0 -10 -13 -10 -30 0 -16 -4 -30 -10 -30 -5 0 -10 -9 -10 -20 0 -11 -4
-20 -10 -20 -5 0 -10 -9 -10 -20 0 -11 -4 -20 -10 -20 -5 0 -10 -9 -10 -20 0
-11 -4 -20 -10 -20 -5 0 -10 -9 -10 -20 0 -11 -4 -20 -10 -20 -5 0 -10 -9 -10
-20 0 -11 -4 -20 -10 -20 -5 0 -10 -9 -10 -20 0 -11 -4 -20 -10 -20 -5 0 -10
-8 -10 -18 0 -10 -9 -24 -20 -32 -11 -8 -20 -22 -20 -32 0 -10 -4 -18 -10 -18
-5 0 -10 -8 -10 -18 0 -10 -9 -24 -20 -32 -11 -8 -20 -21 -20 -30 0 -9 -9 -22
-20 -30 -11 -8 -20 -21 -20 -30 0 -9 -9 -22 -20 -30 -11 -8 -20 -21 -20 -28 0
-8 -13 -27 -30 -42 -16 -15 -30 -33 -30 -40 0 -7 -13 -25 -30 -40 -16 -15 -30
-33 -30 -40 0 -6 -22 -33 -50 -60 -27 -27 -50 -54 -50 -60 0 -6 -40 -51 -90
-100 -49 -49 -90 -94 -90 -100 0 -14 -106 -120 -120 -120 -6 0 -51 -41 -100
-90 -49 -50 -94 -90 -100 -90 -7 0 -29 -18 -50 -40 -21 -22 -44 -40 -50 -40
-7 0 -25 -13 -40 -30 -15 -16 -33 -30 -40 -30 -7 0 -25 -13 -40 -30 -15 -16
-34 -30 -42 -30 -7 0 -20 -9 -28 -20 -8 -11 -21 -20 -30 -20 -9 0 -22 -9 -30
-20 -8 -11 -22 -20 -32 -20 -10 0 -18 -4 -18 -10 0 -5 -8 -10 -18 -10 -10 0
-24 -9 -32 -20 -8 -11 -22 -20 -32 -20 -10 0 -18 -4 -18 -10 0 -5 -9 -10 -20
-10 -11 0 -20 -4 -20 -10 0 -5 -9 -10 -20 -10 -11 0 -20 -4 -20 -10 0 -5 -9
-10 -20 -10 -11 0 -20 -4 -20 -10 0 -5 -9 -10 -20 -10 -11 0 -20 -4 -20 -10 0
-5 -9 -10 -20 -10 -11 0 -20 -4 -20 -10 0 -5 -9 -10 -20 -10 -11 0 -20 -4 -20
-10 0 -5 -13 -10 -30 -10 -16 0 -30 -4 -30 -10 0 -5 -9 -10 -20 -10 -11 0 -20
-4 -20 -10 0 -5 -13 -10 -30 -10 -16 0 -30 -4 -30 -10 0 -5 -13 -10 -30 -10
-16 0 -30 -4 -30 -10 0 -5 -13 -10 -30 -10 -16 0 -30 -4 -30 -10 0 -5 -18 -10
-40 -10 -22 0 -40 -4 -40 -10 0 -5 -18 -10 -40 -10 -22 0 -40 -4 -40 -10 0 -5
-18 -10 -40 -10 -22 0 -40 -4 -40 -10 0 -6 -27 -10 -60 -10 -33 0 -60 -4 -60
-10 0 -6 -37 -10 -90 -10 -53 0 -90 -4 -90 -10 0 -6 -77 -10 -210 -10 -133 0
-210 4 -210 10 0 6 -43 10 -110 10 -67 0 -110 4 -110 10 0 6 -27 10 -60 10
-33 0 -60 4 -60 10 0 6 -22 10 -50 10 -27 0 -50 5 -50 10 0 6 -22 10 -50 10
-27 0 -50 5 -50 10 0 6 -18 10 -40 10 -22 0 -40 5 -40 10 0 6 -13 10 -30 10
-16 0 -30 5 -30 10 0 6 -18 10 -40 10 -22 0 -40 5 -40 10 0 6 -13 10 -30 10
-16 0 -30 5 -30 10 0 6 -13 10 -30 10 -16 0 -30 5 -30 10 0 6 -13 10 -30 10
-16 0 -30 5 -30 10 0 6 -13 10 -30 10 -16 0 -30 5 -30 10 0 6 -9 10 -20 10
-11 0 -20 5 -20 10 0 6 -13 10 -30 10 -16 0 -30 5 -30 10 0 6 -13 10 -30 10
-16 0 -30 5 -30 10 0 6 -9 10 -20 10 -11 0 -20 5 -20 10 0 6 -9 10 -20 10 -11
0 -20 5 -20 10 0 6 -13 10 -30 10 -16 0 -30 5 -30 10 0 6 -9 10 -20 10 -11 0
-20 5 -20 10 0 6 -9 10 -20 10 -11 0 -20 5 -20 10 0 6 -9 10 -20 10 -11 0 -20
5 -20 10 0 6 -9 10 -20 10 -11 0 -20 5 -20 10 0 6 -9 10 -20 10 -11 0 -20 5
-20 10 0 6 -9 10 -20 10 -11 0 -20 5 -20 10 0 6 -9 10 -20 10 -11 0 -20 5 -20
10 0 6 -9 10 -20 10 -11 0 -20 5 -20 10 0 6 -8 10 -18 10 -10 0 -24 9 -32 20
-8 11 -22 20 -32 20 -10 0 -18 5 -18 10 0 6 -8 10 -18 10 -10 0 -24 9 -32 20
-8 11 -21 20 -30 20 -9 0 -22 9 -30 20 -8 11 -21 20 -30 20 -9 0 -22 9 -30 20
-8 11 -21 20 -30 20 -9 0 -22 9 -30 20 -8 11 -21 20 -28 20 -8 0 -27 14 -42
30 -15 17 -33 30 -40 30 -6 0 -29 18 -50 40 -21 22 -43 40 -49 40 -14 0 -341
327 -341 341 0 6 -18 28 -40 49 -22 21 -40 45 -40 52 0 7 -9 20 -20 28 -11 8
-20 21 -20 30 0 9 -9 22 -20 30 -11 8 -20 21 -20 30 0 9 -9 22 -20 30 -11 8
-20 21 -20 30 0 9 -9 22 -20 30 -11 8 -20 22 -20 32 0 10 -4 18 -10 18 -5 0
-10 9 -10 20 0 11 -4 20 -10 20 -5 0 -10 9 -10 20 0 11 -4 20 -10 20 -5 0 -10
9 -10 20 0 11 -4 20 -10 20 -5 0 -10 9 -10 20 0 11 -4 20 -10 20 -5 0 -10 9
-10 20 0 11 -4 20 -10 20 -5 0 -10 9 -10 20 0 11 -4 20 -10 20 -5 0 -10 9 -10
20 0 11 -4 20 -10 20 -5 0 -10 14 -10 30 0 17 -4 30 -10 30 -5 0 -10 9 -10 20
0 11 -4 20 -10 20 -5 0 -10 14 -10 30 0 17 -4 30 -10 30 -5 0 -10 14 -10 30 0
17 -4 30 -10 30 -5 0 -10 14 -10 30 0 17 -4 30 -10 30 -5 0 -10 18 -10 40 0
22 -4 40 -10 40 -5 0 -10 18 -10 40 0 22 -4 40 -10 40 -5 0 -10 23 -10 50 0
28 -4 50 -10 50 -6 0 -10 27 -10 60 0 33 -4 60 -10 60 -6 0 -10 37 -10 90 0
53 -4 90 -10 90 -6 0 -10 90 -10 250 0 160 4 250 10 250 6 0 10 40 10 100 0
60 4 100 10 100 6 0 10 30 10 70 0 40 4 70 10 70 6 0 10 27 10 60 0 33 4 60
10 60 6 0 10 23 10 50 0 28 5 50 10 50 6 0 10 18 10 40 0 22 5 40 10 40 6 0
10 18 10 40 0 22 5 40 10 40 6 0 10 18 10 40 0 22 5 40 10 40 6 0 10 14 10 30
0 17 5 30 10 30 6 0 10 14 10 30 0 17 5 30 10 30 6 0 10 14 10 30 0 17 5 30
10 30 6 0 10 14 10 30 0 17 5 30 10 30 6 0 10 14 10 30 0 17 5 30 10 30 6 0
10 9 10 20 0 11 5 20 10 20 6 0 10 9 10 20 0 11 5 20 10 20 6 0 10 14 10 30 0
17 5 30 10 30 6 0 10 9 10 20 0 11 5 20 10 20 6 0 10 9 10 20 0 11 5 20 10 20
6 0 10 9 10 20 0 11 5 20 10 20 6 0 10 9 10 20 0 11 5 20 10 20 6 0 10 8 10
18 0 10 9 24 20 32 11 8 20 22 20 32 0 10 5 18 10 18 6 0 10 8 10 18 0 10 9
24 20 32 11 8 20 21 20 30 0 9 9 22 20 30 11 8 20 21 20 28 0 8 14 27 30 42
17 15 30 33 30 39 0 7 32 43 70 81 39 38 70 74 70 80 0 14 46 60 60 60 6 0 42
32 80 70 38 39 74 70 80 70 6 0 42 32 80 70 38 39 76 70 85 70 8 0 15 5 15 10
0 6 9 10 20 10 11 0 20 5 20 10 0 6 14 10 30 10 17 0 30 5 30 10 0 6 9 10 20
10 11 0 20 5 20 10 0 6 9 10 20 10 11 0 20 5 20 10 0 6 8 10 18 10 10 0 24 9
32 20 8 11 22 20 32 20 10 0 18 5 18 10 0 6 9 10 20 10 11 0 20 5 20 10 0 6
14 10 30 10 17 0 30 5 30 10 0 6 7 10 16 10 23 0 44 25 44 52 0 13 9 30 20 38
11 8 20 20 20 28 0 17 24 42 40 42 7 0 25 14 40 30 15 17 34 30 42 30 7 0 20
9 28 20 8 11 22 20 32 20 10 0 18 5 18 10 0 6 9 10 20 10 11 0 20 5 20 10 0 6
9 10 20 10 11 0 20 5 20 10 0 6 9 10 20 10 11 0 20 5 20 10 0 6 9 10 20 10 11
0 20 5 20 10 0 6 9 10 20 10 11 0 20 5 20 10 0 6 14 10 30 10 17 0 30 5 30 10
0 6 14 10 30 10 17 0 30 5 30 10 0 6 14 10 30 10 17 0 30 5 30 10 0 6 14 10
30 10 17 0 30 5 30 10 0 6 14 10 30 10 17 0 30 5 30 10 0 6 18 10 40 10 22 0
40 5 40 10 0 6 18 10 40 10 22 0 40 5 40 10 0 6 18 10 40 10 22 0 40 5 40 10
0 6 27 10 60 10 33 0 60 4 60 10 0 6 27 10 60 10 33 0 60 4 60 10 0 6 33 10
80 10 47 0 80 4 80 10 0 6 93 10 260 10 167 0 260 -4 260 -10z m-2680 -140 c0
-5 7 -10 16 -10 28 0 44 -27 44 -74 0 -25 -4 -46 -10 -46 -5 0 -10 -9 -10 -20
0 -13 -7 -20 -18 -20 -10 0 -24 -9 -32 -20 -12 -16 -26 -20 -78 -20 -79 0 -92
11 -92 80 0 45 4 55 35 85 19 19 41 35 50 35 8 0 15 5 15 10 0 6 18 10 40 10
22 0 40 -4 40 -10z m-560 -580 c0 -5 7 -10 16 -10 23 0 44 -25 44 -54 0 -14 5
-26 10 -26 6 0 10 -18 10 -40 0 -22 -4 -40 -10 -40 -5 0 -10 -11 -10 -25 0
-29 -79 -115 -105 -115 -8 0 -15 -4 -15 -10 0 -6 -28 -10 -65 -10 -62 0 -68 2
-100 35 -34 33 -35 37 -35 110 0 43 4 75 10 75 6 0 10 7 10 15 0 20 65 85 85
85 8 0 15 5 15 10 0 6 30 10 70 10 40 0 70 -4 70 -10z m5920 -4520 c0 -5 7
-10 15 -10 20 0 105 -85 105 -105 0 -8 -4 -15 -10 -15 -5 0 -10 -7 -10 -16 0
-20 -24 -44 -44 -44 -9 0 -16 -4 -16 -10 0 -5 -18 -10 -40 -10 -22 0 -40 -4
-40 -10 0 -5 -9 -10 -20 -10 -11 0 -20 5 -20 10 0 6 -12 10 -26 10 -29 0 -54
21 -54 44 0 9 -4 16 -10 16 -5 0 -10 23 -10 50 0 28 5 50 10 50 6 0 10 9 10
20 0 13 7 20 20 20 11 0 20 5 20 10 0 6 27 10 60 10 33 0 60 -4 60 -10z m-520
-500 c0 -5 9 -10 20 -10 13 0 20 -7 20 -20 0 -11 5 -20 10 -20 6 0 10 -13 10
-30 0 -16 5 -30 10 -30 6 0 10 -9 10 -20 0 -11 -4 -20 -10 -20 -5 0 -10 -20
-10 -45 0 -59 -32 -95 -85 -95 -19 0 -35 5 -35 10 0 6 -7 10 -15 10 -25 0 -65
46 -65 75 0 14 -4 25 -10 25 -6 0 -10 27 -10 60 0 33 4 60 10 60 6 0 10 9 10
20 0 13 7 20 20 20 11 0 20 5 20 10 0 6 23 10 50 10 28 0 50 -4 50 -10z"/>
<path d="M4160 6290 c0 -5 -13 -10 -30 -10 -16 0 -30 -4 -30 -10 0 -5 -13 -10
-30 -10 -16 0 -30 -4 -30 -10 0 -5 -9 -10 -20 -10 -11 0 -20 -4 -20 -10 0 -5
-8 -10 -18 -10 -10 0 -24 -9 -32 -20 -8 -11 -22 -20 -32 -20 -10 0 -18 -4 -18
-10 0 -5 -7 -10 -16 -10 -8 0 -33 -18 -54 -40 -21 -22 -43 -40 -49 -40 -15 0
-161 -147 -161 -161 0 -6 -10 -21 -22 -32 -16 -13 -19 -21 -10 -24 6 -3 12
-13 12 -24 0 -10 5 -19 10 -19 6 0 10 -13 10 -30 0 -16 5 -30 10 -30 6 0 10
-43 10 -110 0 -67 4 -110 10 -110 6 0 10 -27 10 -60 0 -58 1 -60 26 -60 17 0
39 14 64 40 21 22 44 40 50 40 6 0 38 27 70 60 32 33 64 60 70 60 7 0 25 14
40 30 15 17 34 30 42 30 7 0 20 9 28 20 8 11 21 20 28 20 8 0 27 14 42 30 15
17 33 30 40 30 34 0 40 27 40 174 0 91 4 146 10 146 6 0 10 40 10 100 l0 100
-30 0 c-16 0 -30 -4 -30 -10z"/>
<path d="M4360 6232 c0 -56 3 -70 20 -82 12 -8 20 -26 20 -42 0 -15 5 -28 10
-28 6 0 10 -22 10 -49 0 -30 5 -52 13 -55 10 -5 10 -7 0 -12 -8 -3 -13 -25
-13 -55 0 -27 -4 -49 -10 -49 -5 0 -10 -13 -10 -28 0 -16 -8 -34 -20 -42 -11
-8 -20 -22 -20 -32 0 -10 -4 -18 -10 -18 -6 0 -10 -107 -10 -300 l0 -300 120
0 c73 0 120 4 120 10 0 6 37 10 90 10 53 0 90 4 90 10 0 6 27 10 60 10 33 0
60 4 60 10 0 6 23 10 50 10 28 0 50 5 50 10 0 6 18 10 40 10 22 0 40 5 40 10
0 6 18 10 40 10 22 0 40 5 40 10 0 6 14 10 30 10 17 0 30 5 30 10 0 6 12 10
26 10 29 0 67 31 46 38 -6 2 -12 12 -12 23 0 10 -4 19 -10 19 -5 0 -10 9 -10
20 0 11 -4 20 -10 20 -5 0 -10 14 -10 30 0 17 -4 30 -10 30 -5 0 -10 9 -10 20
0 11 -4 20 -10 20 -5 0 -10 9 -10 20 0 11 -4 20 -10 20 -5 0 -10 9 -10 20 0
11 -4 20 -10 20 -5 0 -10 9 -10 20 0 11 -4 20 -10 20 -5 0 -10 9 -10 20 0 11
-4 20 -10 20 -5 0 -10 9 -10 20 0 11 -4 20 -10 20 -5 0 -10 9 -10 20 0 11 -4
20 -10 20 -5 0 -10 8 -10 18 0 10 -9 24 -20 32 -11 8 -20 21 -20 30 0 9 -9 22
-20 30 -11 8 -20 21 -20 28 0 8 -13 27 -30 42 -16 15 -30 33 -30 39 0 16 -227
241 -243 241 -7 0 -19 9 -27 20 -8 11 -22 20 -32 20 -10 0 -18 5 -18 10 0 6
-9 10 -20 10 -11 0 -20 5 -20 10 0 6 -13 10 -30 10 -16 0 -30 5 -30 10 0 6
-30 10 -70 10 l-70 0 0 -68z"/>
<path d="M4840 6255 c0 -3 50 -55 110 -115 61 -60 110 -114 110 -121 0 -6 14
-24 30 -39 17 -15 30 -34 30 -42 0 -7 9 -20 20 -28 11 -8 20 -22 20 -32 0 -10
5 -18 10 -18 6 0 10 -8 10 -18 0 -10 9 -24 20 -32 11 -8 20 -22 20 -32 0 -10
5 -18 10 -18 6 0 10 -9 10 -20 0 -11 5 -20 10 -20 6 0 10 -9 10 -20 0 -11 5
-20 10 -20 6 0 10 -9 10 -20 0 -11 5 -20 10 -20 6 0 10 -9 10 -20 0 -11 5 -20
10 -20 6 0 10 -9 10 -20 0 -11 5 -20 10 -20 6 0 10 -7 10 -16 0 -15 23 -44 34
-44 3 0 6 9 6 20 0 11 5 20 10 20 6 0 10 7 10 15 0 9 29 45 65 80 35 36 71 65
80 65 8 0 15 5 15 10 0 6 9 10 20 10 11 0 20 5 20 10 0 6 14 10 30 10 17 0 30
5 30 10 0 6 23 10 50 10 28 0 50 5 50 10 0 6 37 10 90 10 50 0 90 2 90 5 0 12
-50 55 -62 55 -8 0 -20 9 -28 20 -8 11 -21 20 -30 20 -9 0 -22 9 -30 20 -8 11
-22 20 -32 20 -10 0 -18 5 -18 10 0 6 -9 10 -20 10 -11 0 -20 5 -20 10 0 6 -8
10 -18 10 -10 0 -24 9 -32 20 -8 11 -22 20 -32 20 -10 0 -18 5 -18 10 0 6 -9
10 -20 10 -11 0 -20 5 -20 10 0 6 -9 10 -20 10 -11 0 -20 5 -20 10 0 6 -13 10
-30 10 -16 0 -30 5 -30 10 0 6 -9 10 -20 10 -11 0 -20 5 -20 10 0 6 -13 10
-30 10 -16 0 -30 5 -30 10 0 6 -9 10 -20 10 -11 0 -20 5 -20 10 0 6 -13 10
-30 10 -16 0 -30 5 -30 10 0 6 -13 10 -30 10 -16 0 -30 5 -30 10 0 6 -18 10
-40 10 -22 0 -40 5 -40 10 0 6 -18 10 -40 10 -22 0 -40 5 -40 10 0 6 -18 10
-40 10 -22 0 -40 5 -40 10 0 6 -22 10 -50 10 -27 0 -50 5 -50 10 0 6 -4 10
-10 10 -5 0 -10 -2 -10 -5z"/>
<path d="M3640 6190 c0 -5 -18 -10 -40 -10 -22 0 -40 -4 -40 -10 0 -5 -13 -10
-30 -10 -16 0 -30 -4 -30 -10 0 -5 -9 -10 -20 -10 -11 0 -20 -4 -20 -10 0 -5
-13 -10 -30 -10 -16 0 -30 -4 -30 -10 0 -5 -12 -10 -26 -10 -26 0 -54 -20 -54
-40 0 -17 26 -40 44 -40 9 0 16 -4 16 -10 0 -5 9 -10 20 -10 11 0 20 -4 20
-10 0 -5 11 -10 25 -10 26 0 75 39 75 60 0 6 32 42 70 80 70 69 78 80 60 80
-5 0 -10 -4 -10 -10z"/>
<path d="M3160 6010 c0 -5 -9 -10 -20 -10 -11 0 -20 -4 -20 -10 0 -5 -9 -10
-20 -10 -11 0 -20 -4 -20 -10 0 -5 -9 -10 -20 -10 -11 0 -20 -4 -20 -10 0 -5
-9 -10 -20 -10 -11 0 -20 -4 -20 -10 0 -5 -13 -10 -30 -10 -16 0 -30 -4 -30
-10 0 -5 -9 -10 -20 -10 -11 0 -20 -4 -20 -10 0 -5 -9 -10 -20 -10 -11 0 -20
-4 -20 -10 0 -5 -9 -10 -20 -10 -11 0 -20 -4 -20 -10 0 -5 9 -10 20 -10 11 0
20 -4 20 -10 0 -5 14 -10 30 -10 17 0 30 -4 30 -10 0 -5 7 -10 15 -10 9 0 36
-20 60 -45 43 -43 45 -47 45 -105 0 -58 -2 -62 -45 -105 -24 -25 -51 -45 -60
-45 -8 0 -15 -4 -15 -10 0 -5 -9 -10 -20 -10 -11 0 -20 -4 -20 -10 0 -5 -9
-10 -20 -10 -11 0 -20 -4 -20 -10 0 -5 -9 -10 -20 -10 -11 0 -20 -3 -20 -6 0
-14 31 -34 54 -34 14 0 26 -4 26 -10 0 -5 14 -10 30 -10 17 0 30 -4 30 -10 0
-5 14 -10 30 -10 17 0 30 -4 30 -10 0 -5 14 -10 30 -10 17 0 30 -4 30 -10 0
-5 18 -10 40 -10 38 0 40 2 40 30 0 17 5 30 10 30 6 0 10 14 10 30 0 17 5 30
10 30 6 0 10 9 10 20 0 11 5 20 10 20 6 0 10 9 10 20 0 11 5 20 10 20 6 0 10
14 10 30 0 17 5 30 10 30 6 0 10 9 10 20 0 11 5 20 10 20 6 0 10 9 10 20 0 11
5 20 10 20 6 0 10 9 10 20 0 11 5 20 10 20 6 0 10 9 10 20 0 11 5 20 10 20 6
0 10 8 10 18 0 10 9 24 20 32 11 8 20 22 20 32 0 10 5 18 10 18 6 0 10 5 10
10 0 6 -9 10 -20 10 -11 0 -20 5 -20 10 0 6 -9 10 -20 10 -11 0 -20 5 -20 10
0 6 -7 10 -15 10 -23 0 -65 46 -65 70 0 12 -6 28 -14 36 -17 16 -46 19 -46 4z"/>
<path d="M3473 5705 c-7 -8 -13 -20 -13 -27 0 -8 -9 -20 -20 -28 -11 -8 -20
-22 -20 -32 0 -10 -4 -18 -10 -18 -5 0 -10 -9 -10 -20 0 -11 -4 -20 -10 -20
-5 0 -10 -9 -10 -20 0 -11 -4 -20 -10 -20 -5 0 -10 -13 -10 -30 0 -16 -4 -30
-10 -30 -5 0 -10 -9 -10 -20 0 -11 -4 -20 -10 -20 -5 0 -10 -9 -10 -20 0 -11
-4 -20 -10 -20 -5 0 -10 -13 -10 -30 0 -16 -4 -30 -10 -30 -5 0 -10 -13 -10
-30 0 -23 4 -30 20 -30 11 0 20 -4 20 -10 0 -6 27 -10 60 -10 33 0 60 -4 60
-10 0 -5 23 -10 50 -10 28 0 50 -4 50 -10 0 -6 27 -10 60 -10 33 0 60 -4 60
-10 0 -6 30 -10 70 -10 40 0 70 -4 70 -10 0 -6 40 -10 100 -10 60 0 100 -4
100 -10 0 -6 37 -10 90 -10 l90 0 0 200 c0 127 4 200 10 200 6 0 10 18 10 40
0 30 -4 40 -16 40 -8 0 -33 -18 -54 -40 -21 -22 -43 -40 -50 -40 -6 0 -64 -54
-130 -120 -66 -66 -126 -120 -135 -120 -8 0 -15 -4 -15 -10 0 -5 -9 -10 -20
-10 -11 0 -20 -4 -20 -10 0 -5 -9 -10 -20 -10 -11 0 -20 -4 -20 -10 0 -5 -13
-10 -30 -10 -16 0 -30 5 -30 10 0 6 -11 10 -25 10 -29 0 -95 59 -95 85 0 8 -4
15 -10 15 -5 0 -10 18 -10 40 0 22 -4 40 -10 40 -6 0 -10 53 -10 140 0 77 -3
140 -7 140 -5 -1 -14 -7 -20 -15z"/>
<path d="M2620 5690 c0 -5 -9 -10 -20 -10 -11 0 -20 -4 -20 -10 0 -5 -9 -10
-20 -10 -11 0 -20 -4 -20 -10 0 -5 -8 -10 -18 -10 -10 0 -24 -9 -32 -20 -8
-11 -22 -20 -32 -20 -10 0 -18 -4 -18 -10 0 -5 8 -10 18 -10 10 0 24 -9 32
-20 8 -12 26 -20 42 -20 15 0 28 -4 28 -10 0 -5 9 -10 20 -10 11 0 20 -4 20
-10 0 -5 9 -10 20 -10 11 0 20 5 20 10 0 6 9 10 20 10 11 0 20 5 20 10 0 6 8
10 18 10 10 0 24 9 32 20 8 11 22 20 32 20 10 0 18 5 18 10 0 6 9 10 20 10 11
0 20 5 20 10 0 6 7 10 16 10 8 0 22 7 30 15 14 13 14 17 0 30 -8 8 -22 15 -30
15 -9 0 -16 5 -16 10 0 6 -40 10 -100 10 -60 0 -100 -4 -100 -10z"/>
<path d="M6080 5650 c0 -5 -22 -10 -50 -10 -27 0 -50 -4 -50 -10 0 -6 -57 -10
-150 -10 -93 0 -150 -4 -150 -10 0 -5 -9 -10 -20 -10 -11 0 -20 -4 -20 -10 0
-5 -8 -10 -18 -10 -10 0 -24 -9 -32 -20 -8 -11 -20 -20 -28 -20 -17 0 -42 -24
-42 -40 0 -7 -13 -25 -30 -40 -16 -15 -30 -35 -30 -44 0 -9 -4 -16 -10 -16 -5
0 -10 -9 -10 -20 0 -16 7 -20 30 -20 17 0 30 5 30 10 0 6 9 10 20 10 11 0 20
5 20 10 0 6 9 10 20 10 11 0 20 5 20 10 0 6 9 10 20 10 11 0 20 5 20 10 0 6 9
10 20 10 11 0 20 5 20 10 0 6 14 10 30 10 17 0 30 5 30 10 0 6 27 10 60 10 33
0 60 4 60 10 0 6 14 10 30 10 17 0 30 5 30 10 0 6 9 10 20 10 11 0 20 5 20 10
0 6 9 10 20 10 11 0 20 5 20 10 0 6 9 10 20 10 11 0 20 5 20 10 0 6 9 10 20
10 11 0 20 5 20 10 0 6 9 10 20 10 11 0 20 5 20 10 0 6 9 10 20 10 13 0 20 7
20 20 0 16 -7 20 -30 20 -16 0 -30 -4 -30 -10z"/>
<path d="M6230 5520 c-8 -11 -22 -20 -32 -20 -10 0 -18 -4 -18 -10 0 -5 -9
-10 -20 -10 -11 0 -20 -4 -20 -10 0 -5 -9 -10 -20 -10 -11 0 -20 -4 -20 -10 0
-5 -9 -10 -20 -10 -11 0 -20 -4 -20 -10 0 -5 -9 -10 -20 -10 -11 0 -20 -4 -20
-10 0 -5 -9 -10 -20 -10 -11 0 -20 -4 -20 -10 0 -5 -7 -10 -16 -10 -22 0 -53
-32 -36 -38 14 -4 17 -82 2 -82 -5 0 -10 -13 -10 -30 0 -16 -4 -30 -10 -30 -5
0 -10 -8 -10 -18 0 -10 -9 -24 -20 -32 -11 -8 -20 -20 -20 -28 0 -18 -66 -82
-85 -82 -8 0 -15 -4 -15 -10 0 -5 -9 -10 -20 -10 -11 0 -20 -4 -20 -10 0 -5
-13 -10 -30 -10 -16 0 -30 -4 -30 -10 0 -5 -22 -10 -50 -10 l-50 0 0 -40 c0
-22 5 -40 10 -40 6 0 10 -18 10 -40 0 -22 5 -40 10 -40 6 0 10 -18 10 -40 0
-22 5 -40 10 -40 6 0 10 -13 10 -30 0 -23 4 -30 20 -30 11 0 20 -4 20 -10 0
-5 18 -10 40 -10 22 0 40 -4 40 -10 0 -5 14 -10 30 -10 17 0 30 -4 30 -10 0
-5 14 -10 30 -10 17 0 30 -4 30 -10 0 -5 9 -10 20 -10 11 0 20 -4 20 -10 0 -5
9 -10 20 -10 11 0 20 -4 20 -10 0 -5 9 -10 20 -10 11 0 20 -4 20 -10 0 -5 14
-10 30 -10 17 0 30 -4 30 -10 0 -6 47 -10 120 -10 73 0 120 -4 120 -10 0 -5
18 -10 40 -10 22 0 40 -4 40 -10 0 -5 9 -10 20 -10 11 0 20 -4 20 -10 0 -5 7
-10 15 -10 25 0 65 -46 65 -75 0 -14 5 -25 10 -25 6 0 10 -9 10 -20 0 -11 -4
-20 -10 -20 -5 0 -10 -4 -10 -10 0 -5 18 -10 40 -10 22 0 40 5 40 10 0 6 9 10
20 10 11 0 20 5 20 10 0 6 14 10 30 10 17 0 30 5 30 10 0 6 9 10 20 10 11 0
20 5 20 10 0 6 14 10 30 10 17 0 30 5 30 10 0 6 14 10 30 10 17 0 30 5 30 10
0 6 9 10 20 10 11 0 20 5 20 10 0 6 14 10 30 10 17 0 30 5 30 10 0 6 18 10 40
10 l40 0 0 40 c0 22 -4 40 -10 40 -5 0 -10 9 -10 20 0 11 -4 20 -10 20 -5 0
-10 9 -10 20 0 11 -4 20 -10 20 -5 0 -10 14 -10 30 0 17 -4 30 -10 30 -5 0
-10 9 -10 20 0 11 -4 20 -10 20 -5 0 -10 8 -10 18 0 10 -9 24 -20 32 -11 8
-20 22 -20 32 0 10 -4 18 -10 18 -5 0 -10 9 -10 20 0 11 -4 20 -10 20 -5 0
-10 8 -10 18 0 10 -9 24 -20 32 -11 8 -20 21 -20 30 0 9 -9 22 -20 30 -11 8
-20 21 -20 30 0 9 -9 22 -20 30 -11 8 -20 21 -20 28 0 8 -13 27 -30 42 -16 15
-30 33 -30 40 0 6 -18 29 -40 50 -22 21 -40 43 -40 49 0 16 -287 301 -303 301
-7 0 -19 -9 -27 -20z"/>
<path d="M2290 5480 c-19 -21 -41 -39 -48 -40 -15 0 -262 -246 -262 -261 0 -6
-18 -28 -40 -49 -22 -21 -40 -45 -40 -52 0 -7 -9 -20 -20 -28 -11 -8 -20 -21
-20 -30 0 -9 -9 -22 -20 -30 -11 -8 -20 -21 -20 -30 0 -9 -9 -22 -20 -30 -11
-8 -20 -21 -20 -30 0 -9 -9 -22 -20 -30 -11 -8 -20 -22 -20 -32 0 -10 -4 -18
-10 -18 -5 0 -10 -9 -10 -20 0 -11 -4 -20 -10 -20 -5 0 -10 -9 -10 -20 0 -11
-4 -20 -10 -20 -5 0 -10 -9 -10 -20 0 -11 -4 -20 -10 -20 -5 0 -10 -9 -10 -20
0 -11 -4 -20 -10 -20 -5 0 -10 -9 -10 -20 0 -11 -4 -20 -10 -20 -5 0 -10 -9
-10 -20 0 -11 -4 -20 -10 -20 -5 0 -10 -13 -10 -30 0 -16 -4 -30 -10 -30 -5 0
-10 -9 -10 -20 0 -11 -4 -20 -10 -20 -15 0 -12 -29 4 -46 8 -8 22 -14 30 -14
9 0 16 -4 16 -10 0 -5 14 -10 30 -10 17 0 30 -4 30 -10 0 -5 14 -10 30 -10 17
0 30 -4 30 -10 0 -5 14 -10 30 -10 17 0 30 -4 30 -10 0 -5 14 -10 30 -10 17 0
30 -4 30 -10 0 -5 14 -10 30 -10 17 0 30 -4 30 -10 0 -5 14 -10 30 -10 17 0
30 -4 30 -10 0 -5 18 -10 40 -10 22 0 40 -4 40 -10 0 -5 14 -10 30 -10 17 0
30 -4 30 -10 0 -5 18 -10 40 -10 22 0 40 -4 40 -10 0 -5 18 -10 40 -10 22 0
40 -4 40 -10 0 -5 18 -10 40 -10 22 0 40 -4 40 -10 0 -5 9 -10 20 -10 13 0 20
7 20 20 0 11 5 20 10 20 6 0 10 14 10 30 0 17 5 30 10 30 6 0 10 9 10 20 0 11
5 20 10 20 6 0 10 9 10 20 0 11 5 20 10 20 6 0 10 8 10 18 0 10 9 24 20 32 11
8 20 20 20 28 0 16 65 82 81 82 6 0 24 14 39 30 15 17 35 30 44 30 9 0 16 5
16 10 0 6 8 10 18 10 10 0 24 9 32 20 8 11 22 20 32 20 10 0 18 5 18 10 0 6 8
10 18 10 10 0 24 9 32 20 8 11 20 20 28 20 22 0 62 48 62 75 0 14 5 25 10 25
6 0 10 18 10 40 0 22 5 40 10 40 6 0 10 14 10 30 0 17 5 30 10 30 6 0 10 18
10 40 0 22 5 40 10 40 6 0 10 13 10 29 0 16 6 31 12 33 17 6 -14 38 -36 38 -9
0 -16 5 -16 10 0 6 -16 10 -35 10 -31 0 -45 -9 -105 -70 -38 -38 -76 -70 -85
-70 -8 0 -15 -4 -15 -10 0 -6 -37 -10 -90 -10 -53 0 -90 4 -90 10 0 6 -7 10
-15 10 -20 0 -65 45 -65 65 0 8 -4 15 -10 15 -5 0 -10 9 -10 20 0 11 -4 20
-10 20 -6 0 -10 33 -10 80 0 47 4 80 10 80 6 0 10 14 10 30 0 17 5 30 10 30 6
0 10 7 10 16 0 9 9 25 21 35 19 16 20 20 6 34 -9 8 -22 15 -29 15 -8 0 -20 9
-28 20 -8 11 -21 20 -30 20 -9 0 -22 9 -30 20 -23 32 -60 24 -100 -20z"/>
<path d="M2643 5315 c-13 -13 -23 -31 -23 -40 0 -8 -4 -15 -10 -15 -6 0 -10
-27 -10 -60 0 -53 2 -60 20 -60 11 0 20 -4 20 -10 0 -5 9 -10 20 -10 11 0 20
5 20 10 0 6 7 10 15 10 19 0 85 64 85 82 0 8 9 20 20 28 28 20 25 30 -10 30
-16 0 -30 5 -30 10 0 6 -9 10 -20 10 -11 0 -20 5 -20 10 0 6 -9 10 -20 10 -11
0 -20 5 -20 10 0 16 -13 11 -37 -15z"/>
<path d="M5740 5290 c0 -5 -9 -10 -20 -10 -11 0 -20 -4 -20 -10 0 -5 -13 -10
-30 -10 -16 0 -30 -4 -30 -10 0 -5 -9 -10 -20 -10 -11 0 -20 -4 -20 -10 0 -5
-13 -10 -30 -10 -16 0 -30 -4 -30 -10 0 -5 -13 -10 -30 -10 -26 0 -30 -4 -30
-26 0 -14 6 -32 14 -40 17 -16 66 -19 66 -4 0 6 18 10 40 10 22 0 40 5 40 10
0 6 13 10 28 10 16 0 34 8 42 20 8 11 20 20 28 20 18 0 42 25 42 44 0 9 5 16
10 16 6 0 10 9 10 20 0 16 -7 20 -30 20 -16 0 -30 -4 -30 -10z"/>
<path d="M5300 5130 c0 -5 -18 -10 -40 -10 -22 0 -40 -4 -40 -10 0 -5 -18 -10
-40 -10 -22 0 -40 -4 -40 -10 0 -5 -18 -10 -40 -10 -22 0 -40 -4 -40 -10 0 -5
-18 -10 -40 -10 -22 0 -40 -4 -40 -10 0 -6 -27 -10 -60 -10 -33 0 -60 -4 -60
-10 0 -6 -33 -10 -80 -10 -47 0 -80 -4 -80 -10 0 -6 -47 -10 -120 -10 -73 0
-120 -4 -120 -10 0 -6 -27 -10 -60 -10 l-60 0 0 -230 c0 -147 -4 -230 -10
-230 -6 0 -10 -95 -10 -266 0 -217 3 -268 14 -280 12 -11 51 -14 190 -14 111
0 176 4 176 10 0 6 11 10 25 10 19 0 47 22 105 80 44 44 85 80 92 80 8 0 20 9
28 20 8 11 22 20 32 20 10 0 18 5 18 10 0 6 8 10 18 10 10 0 24 9 32 20 8 12
26 20 42 20 15 0 28 5 28 10 0 6 14 10 30 10 17 0 30 5 30 10 0 6 23 10 50 10
28 0 50 5 50 10 0 6 30 10 70 10 40 0 70 -4 70 -10 0 -5 23 -10 50 -10 l50 0
0 60 c0 33 -4 60 -10 60 -5 0 -10 23 -10 50 0 43 -3 50 -20 50 -11 0 -20 -4
-20 -10 0 -5 -9 -10 -20 -10 -11 0 -20 -4 -20 -10 0 -5 -9 -10 -20 -10 -11 0
-20 -4 -20 -10 0 -5 -9 -10 -20 -10 -11 0 -20 -4 -20 -10 0 -5 -9 -10 -20 -10
-11 0 -20 -4 -20 -10 0 -5 -13 -10 -30 -10 -16 0 -30 -4 -30 -10 0 -5 -13 -10
-30 -10 -16 0 -30 -4 -30 -10 0 -6 -40 -10 -100 -10 -60 0 -100 4 -100 10 0 6
-11 10 -25 10 -34 0 -95 61 -95 95 0 14 -4 25 -10 25 -5 0 -10 18 -10 40 0 22
5 40 10 40 6 0 10 13 10 28 0 16 8 34 20 42 11 8 20 20 20 28 0 16 45 62 60
62 7 0 29 18 50 40 21 22 44 40 50 40 15 0 40 25 40 39 0 16 127 141 143 141
7 0 19 9 27 20 8 11 22 20 32 20 10 0 18 5 18 10 0 6 9 10 20 10 11 0 20 5 20
10 0 6 -4 10 -10 10 -5 0 -10 7 -10 16 0 15 -23 44 -34 44 -3 0 -6 -4 -6 -10z"/>
<path d="M3240 5110 c0 -5 5 -10 10 -10 6 0 10 -8 10 -18 0 -10 9 -24 20 -32
11 -8 20 -22 20 -32 0 -10 5 -18 10 -18 6 0 10 -9 10 -20 0 -11 5 -20 10 -20
6 0 10 -25 10 -55 0 -50 -3 -59 -35 -90 -19 -19 -41 -35 -50 -35 -8 0 -15 -4
-15 -10 0 -5 -9 -10 -20 -10 -11 0 -20 -4 -20 -10 0 -5 -9 -10 -20 -10 -11 0
-20 -4 -20 -10 0 -5 -7 -10 -15 -10 -20 0 -65 -45 -65 -65 0 -8 -4 -15 -10
-15 -5 0 -10 -22 -10 -50 0 -27 -4 -50 -10 -50 -5 0 -10 -22 -10 -50 0 -27 -4
-50 -10 -50 -6 0 -10 -27 -10 -60 0 -33 -4 -60 -10 -60 -6 0 -10 -30 -10 -70
0 -40 -4 -70 -10 -70 -6 0 -10 -27 -10 -60 l0 -60 40 0 c22 0 40 -4 40 -10 0
-6 33 -10 80 -10 47 0 80 -4 80 -10 0 -6 37 -10 90 -10 53 0 90 -4 90 -10 0
-6 47 -10 120 -10 73 0 120 -4 120 -10 0 -6 57 -10 150 -10 93 0 150 -4 150
-10 0 -6 43 -10 110 -10 l110 0 0 480 c0 313 3 480 10 480 6 0 10 14 10 30 0
29 -1 30 -50 30 -27 0 -50 5 -50 10 0 6 -50 10 -130 10 -80 0 -130 4 -130 10
0 6 -30 10 -70 10 -40 0 -70 4 -70 10 0 6 -22 10 -50 10 -27 0 -50 5 -50 10 0
6 -22 10 -50 10 -27 0 -50 5 -50 10 0 6 -22 10 -50 10 -27 0 -50 5 -50 10 0 6
-18 10 -40 10 -22 0 -40 5 -40 10 0 6 -13 10 -30 10 -16 0 -30 -4 -30 -10z"/>
<path d="M3140 4930 c0 -16 -4 -30 -10 -30 -5 0 -10 -9 -10 -20 0 -11 5 -20
10 -20 6 0 10 5 10 10 0 6 7 10 16 10 22 0 53 32 36 38 -6 2 -12 12 -12 23 0
12 -7 19 -20 19 -16 0 -20 -7 -20 -30z"/>
<path d="M5370 4900 c-8 -11 -20 -20 -27 -20 -16 0 -103 -85 -103 -100 0 -14
-126 -140 -140 -140 -6 0 -26 -16 -45 -35 -40 -39 -48 -85 -16 -85 11 0 22 -6
25 -12 5 -10 7 -10 12 0 3 6 23 12 45 12 21 0 39 5 39 10 0 6 9 10 20 10 11 0
20 5 20 10 0 6 9 10 20 10 11 0 20 5 20 10 0 6 9 10 20 10 11 0 20 5 20 10 0
6 14 10 30 10 17 0 30 5 30 10 0 6 9 10 20 10 11 0 20 5 20 10 0 6 12 10 26
10 14 0 32 6 40 14 16 16 19 86 4 86 -5 0 -10 18 -10 40 0 22 -4 40 -10 40 -5
0 -10 14 -10 30 0 17 -4 30 -10 30 -5 0 -10 9 -10 20 0 11 -4 20 -8 20 -4 0
-14 -9 -22 -20z"/>
<path d="M2860 4510 c0 -5 -8 -10 -18 -10 -10 0 -24 -9 -32 -20 -8 -11 -21
-20 -28 -20 -8 0 -27 -13 -42 -30 -15 -16 -33 -30 -39 -30 -16 0 -61 -46 -61
-62 0 -8 -9 -20 -20 -28 -11 -8 -20 -22 -20 -32 0 -10 -4 -18 -10 -18 -5 0
-10 -9 -10 -20 0 -11 -4 -20 -10 -20 -5 0 -10 -18 -10 -40 0 -38 2 -40 30 -40
17 0 30 -4 30 -10 0 -5 18 -10 40 -10 22 0 40 -4 40 -10 0 -5 23 -10 50 -10
28 0 50 -4 50 -10 0 -5 5 -10 10 -10 6 0 10 9 10 20 0 11 5 20 10 20 6 0 10
30 10 70 0 40 4 70 10 70 6 0 10 30 10 70 0 40 4 70 10 70 6 0 10 23 10 50 0
28 5 50 10 50 6 0 10 5 10 10 0 6 -9 10 -20 10 -11 0 -20 -4 -20 -10z"/>
<path d="M5660 4450 c0 -40 4 -70 10 -70 6 0 10 -30 10 -70 0 -63 2 -70 20
-70 11 0 20 -4 20 -10 0 -6 33 -10 80 -10 47 0 80 -4 80 -10 0 -6 43 -10 110
-10 67 0 110 4 110 10 0 6 30 10 70 10 40 0 70 4 70 10 0 6 11 10 25 10 14 0
37 11 50 25 46 45 25 95 -39 95 -20 0 -36 5 -36 10 0 6 -47 10 -120 10 -73 0
-120 4 -120 10 0 6 -9 10 -20 10 -11 0 -20 5 -20 10 0 6 -9 10 -20 10 -11 0
-20 5 -20 10 0 6 -9 10 -20 10 -11 0 -20 5 -20 10 0 6 -9 10 -20 10 -11 0 -20
5 -20 10 0 6 -13 10 -30 10 -16 0 -30 5 -30 10 0 6 -13 10 -30 10 -16 0 -30 5
-30 10 0 6 -13 10 -30 10 l-30 0 0 -70z"/>
<path d="M1520 4330 c0 -16 -4 -30 -10 -30 -5 0 -10 -18 -10 -40 0 -22 -4 -40
-10 -40 -6 0 -10 -37 -10 -90 0 -53 4 -90 10 -90 6 0 10 -18 10 -40 0 -22 5
-40 10 -40 6 0 10 -9 10 -20 0 -11 5 -20 10 -20 6 0 10 -13 10 -30 0 -16 5
-30 10 -30 6 0 10 -9 10 -20 0 -11 5 -20 10 -20 6 0 10 -13 10 -30 0 -16 5
-30 10 -30 6 0 10 -9 10 -20 0 -11 5 -20 10 -20 6 0 10 -8 10 -18 0 -10 9 -24
20 -32 11 -8 20 -20 20 -27 0 -19 86 -103 105 -103 8 0 15 -4 15 -10 0 -5 9
-10 20 -10 11 0 20 -4 20 -10 0 -5 9 -10 20 -10 11 0 20 -4 20 -10 0 -5 9 -10
20 -10 11 0 20 -4 20 -10 0 -5 9 -10 20 -10 11 0 20 -4 20 -10 0 -5 8 -10 18
-10 10 0 24 -9 32 -20 8 -11 20 -20 27 -20 17 0 103 -86 103 -103 0 -7 9 -19
20 -27 11 -8 20 -22 20 -32 0 -10 5 -18 10 -18 6 0 10 -13 10 -30 0 -16 5 -30
10 -30 6 0 10 -35 10 -86 0 -94 10 -114 54 -114 14 0 26 -4 26 -10 0 -5 18
-10 40 -10 22 0 40 -4 40 -10 0 -5 18 -10 40 -10 22 0 40 -4 40 -10 0 -5 18
-10 40 -10 22 0 40 -4 40 -10 0 -5 18 -10 40 -10 22 0 40 -4 40 -10 0 -5 23
-10 50 -10 28 0 50 -4 50 -10 0 -5 23 -10 50 -10 28 0 50 -4 50 -10 0 -5 5
-10 10 -10 6 0 10 43 10 110 0 67 -4 110 -10 110 -5 0 -10 25 -10 56 0 62 -14
84 -54 84 -14 0 -26 5 -26 10 0 6 -18 10 -40 10 -22 0 -40 5 -40 10 0 6 -22
10 -50 10 -27 0 -50 5 -50 10 0 6 -37 10 -90 10 -53 0 -90 4 -90 10 0 6 -18
10 -40 10 -22 0 -40 5 -40 10 0 6 -11 10 -25 10 -35 0 -155 120 -155 155 0 14
-4 25 -10 25 -5 0 -10 9 -10 20 0 11 -4 20 -10 20 -5 0 -10 7 -10 15 0 20 -45
65 -65 65 -8 0 -15 5 -15 10 0 6 -8 10 -18 10 -10 0 -24 9 -32 20 -8 11 -20
20 -28 20 -17 0 -42 25 -42 42 0 8 -9 20 -20 28 -12 8 -20 26 -20 42 0 15 -4
28 -10 28 -6 0 -10 43 -10 110 0 67 4 110 10 110 6 0 10 9 10 20 0 11 5 20 10
20 6 0 10 7 10 16 0 8 23 38 51 65 45 44 49 51 35 64 -8 8 -26 15 -40 15 -14
0 -26 5 -26 10 0 6 -9 10 -20 10 -11 0 -20 5 -20 10 0 6 -9 10 -20 10 -11 0
-20 5 -20 10 0 6 -13 10 -30 10 -16 0 -30 5 -30 10 0 6 -9 10 -20 10 -11 0
-20 5 -20 10 0 6 -9 10 -20 10 -11 0 -20 5 -20 10 0 6 -9 10 -20 10 -11 0 -20
5 -20 10 0 6 -9 10 -20 10 -11 0 -20 5 -20 10 0 6 -9 10 -20 10 -16 0 -20 -7
-20 -30z"/>
<path d="M7020 4350 c0 -5 -9 -10 -20 -10 -11 0 -20 -4 -20 -10 0 -5 -13 -10
-30 -10 -16 0 -30 -4 -30 -10 0 -5 -9 -10 -20 -10 -11 0 -20 -4 -20 -10 0 -5
-9 -10 -20 -10 -11 0 -20 -4 -20 -10 0 -5 -13 -10 -30 -10 -16 0 -30 -4 -30
-10 0 -5 -9 -10 -20 -10 -11 0 -20 -4 -20 -10 0 -5 -13 -10 -30 -10 -16 0 -30
-4 -30 -10 0 -5 -13 -10 -30 -10 -16 0 -30 -4 -30 -10 0 -5 -13 -10 -30 -10
-16 0 -30 -4 -30 -10 0 -5 -9 -10 -20 -10 -11 0 -20 -4 -20 -10 0 -5 -13 -10
-30 -10 -16 0 -30 -4 -30 -10 0 -5 -13 -10 -30 -10 -16 0 -30 -4 -30 -10 0 -5
-13 -10 -30 -10 -16 0 -30 -4 -30 -10 0 -5 -13 -10 -30 -10 -16 0 -30 -4 -30
-10 0 -5 -18 -10 -40 -10 -22 0 -40 -4 -40 -10 0 -5 -18 -10 -40 -10 -22 0
-40 -4 -40 -10 0 -5 -18 -10 -40 -10 -22 0 -40 -4 -40 -10 0 -5 -18 -10 -40
-10 -22 0 -40 -4 -40 -10 0 -5 -22 -10 -50 -10 -27 0 -50 -4 -50 -10 0 -5 -18
-10 -40 -10 -22 0 -40 -4 -40 -10 0 -5 -13 -10 -30 -10 -27 0 -30 -3 -30 -30
0 -16 5 -30 10 -30 6 0 10 -43 10 -110 0 -67 4 -110 10 -110 6 0 10 -97 10
-270 0 -173 -4 -270 -10 -270 -6 0 -10 -50 -10 -130 0 -123 1 -130 20 -130 11
0 20 5 20 10 0 6 18 10 40 10 22 0 40 5 40 10 0 6 23 10 50 10 28 0 50 5 50
10 0 6 18 10 40 10 22 0 40 5 40 10 0 6 18 10 40 10 22 0 40 5 40 10 0 6 14
10 30 10 17 0 30 5 30 10 0 6 18 10 40 10 22 0 40 5 40 10 0 6 14 10 30 10 17
0 30 5 30 10 0 6 18 10 40 10 22 0 40 5 40 10 0 6 14 10 30 10 17 0 30 5 30
10 0 6 14 10 30 10 17 0 30 5 30 10 0 6 14 10 30 10 17 0 30 5 30 10 0 6 14
10 30 10 17 0 30 5 30 10 0 6 7 10 15 10 19 0 85 64 85 82 0 8 9 20 20 28 11
8 20 22 20 32 0 11 -7 18 -20 18 -11 0 -20 5 -20 10 0 6 -13 10 -30 10 -16 0
-30 5 -30 10 0 6 -9 10 -20 10 -11 0 -20 5 -20 10 0 6 -8 10 -18 10 -10 0 -24
9 -32 20 -8 11 -20 20 -28 20 -17 0 -62 45 -62 62 0 8 -9 20 -20 28 -11 8 -20
21 -20 30 0 9 -9 22 -20 30 -11 8 -20 22 -20 32 0 10 -4 18 -10 18 -5 0 -10
14 -10 30 0 17 -4 30 -10 30 -5 0 -10 14 -10 30 0 17 -4 30 -10 30 -6 0 -10
42 -10 105 l0 106 35 34 c29 30 41 35 80 35 25 0 45 -4 45 -10 0 -5 12 -10 26
-10 16 0 37 -12 54 -30 15 -16 35 -30 44 -30 9 0 16 -7 16 -16 0 -8 18 -33 40
-54 22 -21 40 -43 40 -49 0 -7 20 -32 45 -56 38 -39 50 -45 85 -45 48 0 90 35
90 75 0 14 5 25 10 25 6 0 10 18 10 40 0 22 5 40 10 40 6 0 10 18 10 40 0 22
5 40 10 40 6 0 10 7 10 15 0 29 47 65 85 65 19 0 35 -4 35 -10 0 -5 5 -10 10
-10 6 0 10 14 10 30 0 17 -4 30 -10 30 -5 0 -10 14 -10 30 0 17 -4 30 -10 30
-5 0 -10 18 -10 40 0 22 -4 40 -10 40 -5 0 -10 14 -10 30 0 17 -4 30 -10 30
-5 0 -10 14 -10 30 0 17 -4 30 -10 30 -5 0 -10 9 -10 20 0 13 -7 20 -20 20
-11 0 -20 -4 -20 -10z"/>
<path d="M5260 4130 c0 -5 -13 -10 -30 -10 -16 0 -30 -4 -30 -10 0 -5 -13 -10
-30 -10 -16 0 -30 -4 -30 -10 0 -5 -9 -10 -20 -10 -11 0 -20 -4 -20 -10 0 -5
-8 -10 -18 -10 -10 0 -24 -9 -32 -20 -8 -11 -22 -20 -32 -20 -10 0 -18 -4 -18
-10 0 -6 33 -10 80 -10 47 0 80 4 80 10 0 6 33 10 80 10 47 0 80 4 80 10 0 6
30 10 70 10 40 0 70 4 70 10 0 6 23 10 50 10 39 0 50 4 50 16 0 28 -27 44 -74
44 -25 0 -46 5 -46 10 0 6 -37 10 -90 10 -53 0 -90 -4 -90 -10z"/>
<path d="M1993 4025 c-20 -20 -33 -45 -33 -60 0 -14 -4 -25 -10 -25 -5 0 -10
-22 -10 -50 0 -27 5 -50 10 -50 6 0 10 -11 10 -25 0 -29 40 -75 65 -75 8 0 15
-4 15 -10 0 -5 13 -10 28 -10 16 0 34 -8 42 -20 8 -11 20 -20 28 -20 17 0 42
-25 42 -42 0 -8 9 -20 20 -28 11 -8 20 -22 20 -32 0 -10 5 -18 10 -18 6 0 10
-13 10 -30 0 -16 5 -30 10 -30 6 0 10 -7 10 -15 0 -20 45 -65 65 -65 8 0 15
-4 15 -10 0 -6 33 -10 80 -10 47 0 80 -4 80 -10 0 -6 27 -10 60 -10 33 0 60
-4 60 -10 0 -5 18 -10 40 -10 22 0 40 -4 40 -10 0 -5 14 -10 30 -10 17 0 30
-4 30 -10 0 -5 9 -10 20 -10 20 0 20 7 20 270 0 173 4 270 10 270 6 0 10 18
10 40 0 38 -2 40 -30 40 -16 0 -30 5 -30 10 0 6 -27 10 -60 10 -33 0 -60 4
-60 10 0 6 -18 10 -40 10 -22 0 -40 5 -40 10 0 6 -13 10 -30 10 -28 0 -30 -2
-30 -40 0 -22 -4 -40 -10 -40 -5 0 -10 -9 -10 -20 0 -11 -4 -20 -10 -20 -5 0
-10 -7 -10 -16 0 -28 -27 -44 -74 -44 -25 0 -46 5 -46 10 0 6 -7 10 -16 10
-18 0 -44 23 -44 39 0 17 -148 161 -165 161 -8 0 -15 5 -15 10 0 6 -17 10 -37
9 -30 0 -45 -8 -70 -34z"/>
<path d="M2320 4054 c0 -10 31 -36 37 -31 3 3 -2 13 -10 22 -16 15 -27 19 -27
9z"/>
<path d="M2960 3790 c0 -80 -4 -130 -10 -130 -6 0 -10 -60 -10 -160 0 -100 4
-160 10 -160 6 0 10 -16 10 -36 0 -42 19 -64 54 -64 14 0 26 -4 26 -10 0 -5 9
-10 20 -10 11 0 20 -4 20 -10 0 -5 7 -10 16 -10 9 0 29 -13 44 -30 15 -16 33
-30 39 -30 15 0 61 -46 61 -61 0 -6 14 -24 30 -39 17 -15 30 -33 30 -40 0 -16
26 -40 44 -40 9 0 16 -4 16 -10 0 -5 14 -10 30 -10 17 0 30 -4 30 -10 0 -5 18
-10 40 -10 22 0 40 -4 40 -10 0 -5 18 -10 40 -10 22 0 40 -4 40 -10 0 -5 9
-10 20 -10 11 0 20 -4 20 -10 0 -5 7 -10 15 -10 9 0 47 -31 85 -70 l69 -70
196 0 195 0 0 290 c0 187 -4 290 -10 290 -6 0 -10 93 -10 260 l0 260 -190 0
c-120 0 -190 4 -190 10 0 6 -53 10 -140 10 -87 0 -140 4 -140 10 0 6 -40 10
-100 10 -60 0 -100 4 -100 10 0 6 -33 10 -80 10 -47 0 -80 4 -80 10 0 6 -30
10 -70 10 -40 0 -70 4 -70 10 0 6 -9 10 -20 10 -19 0 -20 -7 -20 -130z"/>
<path d="M5440 3890 c0 -6 -30 -10 -70 -10 -40 0 -70 -4 -70 -10 0 -6 -33 -10
-80 -10 -47 0 -80 -4 -80 -10 0 -6 -47 -10 -120 -10 -73 0 -120 -4 -120 -10 0
-5 -18 -10 -40 -10 -33 0 -40 -3 -40 -20 0 -11 -4 -20 -10 -20 -5 0 -10 -13
-10 -30 0 -16 -4 -30 -10 -30 -5 0 -10 -22 -10 -50 0 -27 -4 -50 -10 -50 -6 0
-10 -30 -10 -70 0 -40 4 -70 10 -70 6 0 10 -27 10 -60 0 -33 4 -60 10 -60 6 0
10 -9 10 -20 0 -11 5 -20 10 -20 6 0 10 -9 10 -20 0 -11 5 -20 10 -20 6 0 10
-7 10 -15 0 -20 85 -105 105 -105 8 0 15 -4 15 -10 0 -5 9 -10 20 -10 11 0 20
-4 20 -10 0 -6 70 -10 190 -10 120 0 190 -4 190 -10 0 -5 14 -10 30 -10 17 0
30 -4 30 -10 0 -5 9 -10 20 -10 11 0 20 -4 20 -10 0 -5 9 -10 20 -10 11 0 20
-4 20 -10 0 -5 9 -10 20 -10 11 0 20 -4 20 -10 0 -5 9 -10 20 -10 20 0 20 7
20 300 0 193 -4 300 -10 300 -6 0 -10 53 -10 140 l0 140 -70 0 c-40 0 -70 -4
-70 -10z"/>
<path d="M1400 3820 c0 -33 -4 -60 -10 -60 -6 0 -10 -30 -10 -70 0 -40 -4 -70
-10 -70 -6 0 -10 -43 -10 -110 0 -67 -4 -110 -10 -110 -5 0 -10 -11 -10 -25 0
-29 59 -95 85 -95 8 0 15 -4 15 -10 0 -5 9 -10 20 -10 11 0 20 -4 20 -10 0 -5
9 -10 20 -10 11 0 20 -4 20 -10 0 -5 9 -10 20 -10 11 0 20 -4 20 -10 0 -5 9
-10 20 -10 11 0 20 -4 20 -10 0 -5 14 -10 30 -10 17 0 30 -4 30 -10 0 -5 9
-10 20 -10 11 0 20 -4 20 -10 0 -5 14 -10 30 -10 17 0 30 -4 30 -10 0 -5 9
-10 20 -10 11 0 20 -4 20 -10 0 -5 14 -10 30 -10 17 0 30 -4 30 -10 0 -5 14
-10 30 -10 17 0 30 -4 30 -10 0 -5 9 -10 20 -10 11 0 20 -4 20 -10 0 -5 14
-10 30 -10 17 0 30 -4 30 -10 0 -5 9 -10 20 -10 17 0 20 7 20 50 0 28 -4 50
-10 50 -5 0 -10 9 -10 20 0 11 -4 20 -10 20 -5 0 -10 7 -10 15 0 20 -125 145
-145 145 -8 0 -15 5 -15 10 0 6 -9 10 -20 10 -11 0 -20 5 -20 10 0 6 -13 10
-30 10 -16 0 -30 5 -30 10 0 6 -9 10 -20 10 -11 0 -20 5 -20 10 0 6 -7 10 -15
10 -19 0 -145 124 -145 143 0 7 -9 19 -20 27 -11 8 -20 22 -20 32 0 10 -4 18
-10 18 -5 0 -10 14 -10 30 0 17 -4 30 -10 30 -5 0 -10 14 -10 30 0 17 -4 30
-10 30 -5 0 -10 14 -10 30 0 17 -4 30 -10 30 -5 0 -10 18 -10 40 0 33 -3 40
-20 40 -18 0 -20 -7 -20 -60z"/>
<path d="M7140 3830 c0 -16 -4 -30 -10 -30 -5 0 -10 -22 -10 -50 0 -27 -4 -50
-10 -50 -5 0 -10 -13 -10 -30 0 -16 -4 -30 -10 -30 -5 0 -10 -7 -10 -15 0 -20
-65 -85 -85 -85 -8 0 -15 -4 -15 -10 0 -5 -13 -10 -30 -10 -16 0 -30 -4 -30
-10 0 -5 -18 -10 -40 -10 -22 0 -40 5 -40 10 0 6 -13 10 -30 10 -16 0 -30 5
-30 10 0 6 -7 10 -15 10 -18 0 -145 124 -145 141 0 6 -13 24 -30 39 -16 15
-30 35 -30 44 0 9 -8 16 -20 16 -13 0 -20 -7 -20 -20 0 -11 5 -20 10 -20 6 0
10 -13 10 -30 0 -16 5 -30 10 -30 6 0 10 -9 10 -20 0 -11 5 -20 10 -20 6 0 10
-8 10 -18 0 -10 9 -24 20 -32 11 -8 20 -20 20 -28 0 -17 65 -82 82 -82 8 0 20
-9 28 -20 12 -16 26 -20 72 -20 32 0 58 -4 58 -10 0 -5 7 -10 15 -10 9 0 27
-11 40 -25 22 -21 25 -33 25 -100 0 -43 4 -75 10 -75 6 0 10 5 10 10 0 6 9 10
20 10 11 0 20 5 20 10 0 6 9 10 20 10 11 0 20 5 20 10 0 6 9 10 20 10 11 0 20
5 20 10 0 6 14 10 30 10 17 0 30 5 30 10 0 6 9 10 20 10 11 0 20 5 20 10 0 6
7 10 16 10 34 0 44 26 44 114 0 51 -4 86 -10 86 -6 0 -10 37 -10 90 0 53 -4
90 -10 90 -5 0 -10 20 -10 45 0 35 -6 52 -25 70 -31 32 -35 31 -35 -5z"/>
<path d="M4333 3805 c-16 -17 -18 -185 -3 -185 7 0 10 -157 10 -450 l0 -450
150 0 c93 0 150 4 150 10 0 6 47 10 120 10 73 0 120 4 120 10 0 6 40 10 100
10 60 0 100 4 100 10 0 6 33 10 80 10 47 0 80 4 80 10 0 6 30 10 70 10 40 0
70 4 70 10 0 6 29 10 66 10 75 0 107 18 80 45 -8 8 -22 15 -30 15 -9 0 -16 5
-16 10 0 6 -9 10 -20 10 -11 0 -20 5 -20 10 0 6 -9 10 -20 10 -11 0 -20 5 -20
10 0 6 -13 10 -30 10 -16 0 -30 5 -30 10 0 6 -70 10 -190 10 -120 0 -190 4
-190 10 0 6 -13 10 -30 10 -16 0 -30 5 -30 10 0 6 -8 10 -18 10 -10 0 -24 9
-32 20 -8 11 -20 20 -27 20 -17 0 -103 86 -103 103 0 7 -9 19 -20 27 -11 8
-20 22 -20 32 0 10 -4 18 -10 18 -5 0 -10 14 -10 30 0 17 -4 30 -10 30 -5 0
-10 14 -10 30 0 17 -4 30 -10 30 -6 0 -10 27 -10 60 0 33 -4 60 -10 60 -6 0
-10 40 -10 100 0 60 4 100 10 100 6 0 10 18 10 40 0 22 5 40 10 40 6 0 10 18
10 40 l0 40 -147 0 c-115 -1 -151 -4 -160 -15z"/>
<path d="M1340 3130 c0 -53 4 -90 10 -90 6 0 10 -40 10 -100 0 -60 4 -100 10
-100 6 0 10 -27 10 -60 0 -33 4 -60 10 -60 6 0 10 -22 10 -50 0 -27 5 -50 10
-50 6 0 10 -18 10 -40 0 -22 5 -40 10 -40 6 0 10 -13 10 -30 0 -16 5 -30 10
-30 6 0 10 -18 10 -40 0 -22 5 -40 10 -40 6 0 10 -9 10 -20 0 -11 5 -20 10
-20 6 0 10 -13 10 -30 0 -16 5 -30 10 -30 6 0 10 -9 10 -20 0 -11 5 -20 10
-20 6 0 10 -13 10 -30 0 -16 5 -30 10 -30 6 0 10 -9 10 -20 0 -11 5 -20 10
-20 6 0 10 -9 10 -20 0 -11 5 -20 10 -20 6 0 10 -9 10 -20 0 -11 5 -20 10 -20
6 0 10 -9 10 -20 0 -11 5 -20 10 -20 6 0 10 -9 10 -20 0 -11 5 -20 10 -20 6 0
10 -9 10 -20 0 -11 5 -20 10 -20 6 0 10 -8 10 -18 0 -10 9 -24 20 -32 11 -8
20 -21 20 -30 0 -9 9 -22 20 -30 11 -8 20 -21 20 -30 0 -9 9 -22 20 -30 11 -8
20 -21 20 -28 0 -8 13 -27 30 -42 16 -15 30 -33 30 -39 0 -7 32 -43 70 -81 39
-38 70 -74 70 -80 0 -14 86 -100 100 -100 6 0 38 -27 70 -60 32 -33 64 -60 70
-60 7 0 25 -13 40 -30 33 -35 69 -39 90 -10 8 11 22 20 32 20 10 0 18 5 18 10
0 6 9 10 20 10 11 0 20 5 20 10 0 6 8 10 18 10 10 0 24 9 32 20 8 11 22 20 32
20 10 0 18 5 18 10 0 6 9 10 20 10 11 0 20 5 20 10 0 6 12 10 26 10 14 0 32 6
40 14 16 16 19 86 4 86 -5 0 -10 14 -10 30 0 17 -4 30 -10 30 -5 0 -10 18 -10
40 0 22 -4 40 -10 40 -5 0 -10 23 -10 50 0 28 -4 50 -10 50 -6 0 -10 27 -10
60 0 33 -4 60 -10 60 -5 0 -10 14 -10 30 0 17 -4 30 -10 30 -5 0 -10 14 -10
30 0 17 -4 30 -10 30 -5 0 -10 7 -10 15 0 19 -124 145 -143 145 -7 0 -19 9
-27 20 -8 11 -22 20 -32 20 -10 0 -18 5 -18 10 0 6 -9 10 -20 10 -11 0 -20 5
-20 10 0 6 -8 10 -18 10 -10 0 -24 9 -32 20 -8 11 -20 20 -27 20 -19 0 -143
126 -143 145 0 8 -4 15 -10 15 -5 0 -10 9 -10 20 0 11 -4 20 -10 20 -5 0 -10
9 -10 20 0 11 -4 20 -10 20 -5 0 -10 18 -10 40 0 22 -4 40 -10 40 -6 0 -10 40
-10 100 0 60 4 100 10 100 6 0 10 18 10 39 0 22 5 41 12 43 17 6 -14 38 -36
38 -9 0 -16 5 -16 10 0 6 -13 10 -30 10 -16 0 -30 5 -30 10 0 6 -13 10 -30 10
-16 0 -30 5 -30 10 0 6 -9 10 -20 10 -11 0 -20 5 -20 10 0 6 -9 10 -20 10 -11
0 -20 5 -20 10 0 6 -9 10 -20 10 -11 0 -20 5 -20 10 0 6 -13 10 -28 10 -16 0
-34 8 -42 20 -8 11 -22 20 -32 20 -10 0 -18 5 -18 10 0 6 -9 10 -20 10 -11 0
-20 5 -20 10 0 6 -9 10 -20 10 -11 0 -20 5 -20 10 0 6 -8 10 -18 10 -10 0 -24
9 -32 20 -8 11 -21 20 -28 20 -8 0 -27 14 -42 30 -50 53 -60 43 -60 -60z"/>
<path d="M7220 3210 c0 -5 -9 -10 -20 -10 -11 0 -20 -4 -20 -10 0 -5 -9 -10
-20 -10 -11 0 -20 -4 -20 -10 0 -5 -13 -10 -30 -10 -16 0 -30 -4 -30 -10 0 -5
-9 -10 -20 -10 -11 0 -20 -4 -20 -10 0 -5 -9 -10 -20 -10 -11 0 -20 -4 -20
-10 0 -5 -13 -10 -30 -10 -16 0 -30 -4 -30 -10 0 -5 -9 -10 -20 -10 -11 0 -20
-4 -20 -10 0 -5 -7 -10 -15 -10 -19 0 -165 -144 -165 -163 0 -7 -9 -19 -20
-27 -11 -8 -20 -22 -20 -32 0 -10 -4 -18 -10 -18 -5 0 -10 -13 -10 -30 0 -16
-4 -30 -10 -30 -5 0 -10 -13 -10 -30 0 -16 -4 -30 -10 -30 -6 0 -10 -30 -10
-70 0 -40 -4 -70 -10 -70 -6 0 -10 -30 -10 -70 0 -40 -4 -70 -10 -70 -5 0 -10
-18 -10 -40 0 -22 -4 -40 -10 -40 -5 0 -10 -9 -10 -20 0 -11 -4 -20 -10 -20
-5 0 -10 -7 -10 -16 0 -8 -18 -33 -40 -54 -22 -21 -40 -45 -40 -52 0 -7 -9
-20 -20 -28 -11 -8 -20 -22 -20 -32 0 -10 -4 -18 -10 -18 -5 0 -10 -9 -10 -20
0 -11 -4 -20 -10 -20 -5 0 -10 -9 -10 -20 0 -11 -4 -20 -10 -20 -5 0 -10 -9
-10 -20 0 -11 -4 -20 -10 -20 -5 0 -10 -9 -10 -20 0 -11 -4 -20 -10 -20 -5 0
-10 -9 -10 -20 0 -11 -4 -20 -10 -20 -5 0 -10 -9 -10 -20 0 -11 -4 -20 -10
-20 -5 0 -10 -8 -10 -18 0 -10 -9 -24 -20 -32 -11 -8 -20 -20 -20 -27 0 -17
-86 -103 -103 -103 -7 0 -19 -9 -27 -20 -8 -11 -22 -20 -32 -20 -10 0 -18 -4
-18 -10 0 -5 -13 -10 -30 -10 -16 0 -30 -4 -30 -10 0 -5 -18 -10 -40 -10 -22
0 -40 -4 -40 -10 0 -5 -13 -10 -30 -10 -16 0 -30 5 -30 10 0 6 -13 10 -30 10
-16 0 -30 5 -30 10 0 6 -7 10 -16 10 -20 0 -44 24 -44 44 0 9 -4 16 -10 16 -5
0 -10 14 -10 30 0 17 -4 30 -10 30 -5 0 -10 14 -10 30 0 17 -4 30 -10 30 -5 0
-10 18 -10 40 0 22 -4 40 -10 40 -5 0 -10 18 -10 40 0 22 -4 40 -10 40 -5 0
-10 23 -10 50 0 43 -3 50 -20 50 -17 0 -20 -7 -20 -40 0 -22 -4 -40 -10 -40
-5 0 -10 -18 -10 -40 0 -22 -4 -40 -10 -40 -5 0 -10 -13 -10 -30 0 -16 -4 -30
-10 -30 -5 0 -10 -18 -10 -40 0 -22 -4 -40 -10 -40 -5 0 -10 -13 -10 -30 0
-16 -4 -30 -10 -30 -5 0 -10 -13 -10 -30 0 -16 -4 -30 -10 -30 -5 0 -10 -18
-10 -40 0 -38 2 -40 30 -40 17 0 30 -4 30 -10 0 -5 14 -10 30 -10 17 0 30 -4
30 -10 0 -5 14 -10 30 -10 17 0 30 -4 30 -10 0 -5 9 -10 20 -10 11 0 20 -4 20
-10 0 -5 14 -10 30 -10 17 0 30 -4 30 -10 0 -5 9 -10 20 -10 11 0 20 -4 20
-10 0 -5 9 -10 20 -10 11 0 20 -4 20 -10 0 -5 9 -10 20 -10 11 0 20 -4 20 -10
0 -5 9 -10 20 -10 11 0 20 -4 20 -10 0 -5 9 -10 20 -10 11 0 20 -4 20 -10 0
-5 8 -10 18 -10 10 0 24 -9 32 -20 8 -11 22 -20 32 -20 10 0 18 -4 18 -10 0
-5 8 -10 18 -10 10 0 24 -9 32 -20 8 -11 21 -20 29 -20 7 0 22 -9 32 -21 17
-20 19 -19 203 165 102 102 186 191 186 197 0 6 18 28 40 49 22 21 40 44 40
50 0 7 14 25 30 40 17 15 30 34 30 42 0 7 9 20 20 28 11 8 20 21 20 28 0 8 14
27 30 42 17 15 30 35 30 44 0 9 5 16 10 16 6 0 10 8 10 18 0 10 9 24 20 32 11
8 20 21 20 30 0 9 9 22 20 30 11 8 20 22 20 32 0 10 5 18 10 18 6 0 10 9 10
20 0 11 5 20 10 20 6 0 10 9 10 20 0 11 5 20 10 20 6 0 10 8 10 18 0 10 9 24
20 32 11 8 20 22 20 32 0 10 5 18 10 18 6 0 10 14 10 30 0 17 5 30 10 30 6 0
10 9 10 20 0 11 5 20 10 20 6 0 10 9 10 20 0 11 5 20 10 20 6 0 10 9 10 20 0
11 5 20 10 20 6 0 10 14 10 30 0 17 5 30 10 30 6 0 10 14 10 30 0 17 5 30 10
30 6 0 10 14 10 30 0 17 5 30 10 30 6 0 10 18 10 40 0 22 5 40 10 40 6 0 10
18 10 40 0 22 5 40 10 40 6 0 10 23 10 50 0 28 5 50 10 50 6 0 10 30 10 70 0
40 4 70 10 70 6 0 10 37 10 90 0 53 -4 90 -10 90 -5 0 -10 -4 -10 -10z m-400
-800 c0 -5 9 -10 20 -10 13 0 20 -7 20 -20 0 -11 5 -20 10 -20 6 0 10 -22 10
-50 0 -27 -4 -50 -10 -50 -5 0 -10 -13 -10 -30 0 -16 -4 -30 -10 -30 -5 0 -10
-9 -10 -20 0 -11 -4 -20 -10 -20 -5 0 -10 -9 -10 -20 0 -11 -4 -20 -10 -20 -5
0 -10 -9 -10 -20 0 -11 -4 -20 -10 -20 -5 0 -10 -7 -10 -15 0 -20 -105 -125
-124 -125 -8 0 -17 -6 -20 -12 -5 -10 -7 -10 -12 0 -3 6 -17 12 -31 12 -31 0
-53 22 -53 53 0 14 -6 28 -12 31 -10 5 -10 7 0 12 6 3 12 23 12 45 0 21 5 39
10 39 6 0 10 14 10 30 0 17 5 30 10 30 6 0 10 8 10 18 0 10 9 24 20 32 11 8
20 21 20 28 0 8 14 27 30 42 17 15 30 33 30 40 0 16 26 40 44 40 9 0 16 5 16
10 0 6 9 10 20 10 11 0 20 5 20 10 0 6 9 10 20 10 11 0 20 -4 20 -10z"/>
<path d="M2960 3010 c0 -40 4 -70 10 -70 6 0 10 -30 10 -70 l0 -70 40 0 c22 0
40 -4 40 -10 0 -6 30 -10 70 -10 40 0 70 -4 70 -10 0 -6 37 -10 90 -10 53 0
90 -4 90 -10 0 -5 18 -10 40 -10 22 0 40 5 40 10 0 6 -13 10 -30 10 -16 0 -30
5 -30 10 0 6 -18 10 -40 10 -22 0 -40 5 -40 10 0 6 -9 10 -20 10 -11 0 -20 5
-20 10 0 6 -7 10 -15 10 -17 0 -125 104 -125 120 0 16 -108 120 -125 120 -8 0
-15 5 -15 10 0 6 -9 10 -20 10 -18 0 -20 -7 -20 -70z"/>
<path d="M6520 2930 c0 -5 -13 -10 -30 -10 -16 0 -30 -4 -30 -10 0 -5 -13 -10
-30 -10 -16 0 -30 -4 -30 -10 0 -5 -13 -10 -30 -10 -16 0 -30 -4 -30 -10 0 -5
-18 -10 -40 -10 -22 0 -40 -4 -40 -10 0 -5 -13 -10 -30 -10 -16 0 -30 -4 -30
-10 0 -5 -13 -10 -30 -10 -16 0 -30 -4 -30 -10 0 -5 -18 -10 -40 -10 -22 0
-40 -4 -40 -10 0 -5 -18 -10 -40 -10 -22 0 -40 -4 -40 -10 0 -5 -18 -10 -40
-10 -22 0 -40 -4 -40 -10 0 -5 -18 -10 -40 -10 -22 0 -40 -4 -40 -10 0 -5 -9
-10 -20 -10 -11 0 -20 -4 -20 -10 0 -5 5 -10 10 -10 6 0 10 -22 10 -50 0 -27
5 -50 10 -50 6 0 10 -43 10 -110 0 -67 -4 -110 -10 -110 -6 0 -10 -30 -10 -70
0 -40 -4 -70 -10 -70 -6 0 -10 -27 -10 -60 0 -33 4 -60 10 -60 6 0 10 -27 10
-60 0 -33 4 -60 10 -60 6 0 10 -22 10 -50 0 -27 5 -50 10 -50 6 0 10 -22 10
-50 0 -27 5 -50 10 -50 6 0 10 -7 10 -16 0 -22 32 -53 38 -36 2 6 17 12 33 12
16 0 29 5 29 10 0 6 9 10 20 10 11 0 20 5 20 10 0 6 7 10 15 10 20 0 105 85
105 105 0 8 5 15 10 15 6 0 10 9 10 20 0 11 5 20 10 20 6 0 10 9 10 20 0 11 5
20 10 20 6 0 10 9 10 20 0 11 5 20 10 20 6 0 10 9 10 20 0 11 5 20 10 20 6 0
10 9 10 20 0 11 5 20 10 20 6 0 10 9 10 20 0 11 5 20 10 20 6 0 10 9 10 20 0
11 5 20 10 20 6 0 10 7 10 16 0 9 14 29 30 44 17 15 30 33 30 40 0 6 18 29 40
50 22 21 40 46 40 54 0 9 5 16 10 16 6 0 10 27 10 60 0 33 4 60 10 60 6 0 10
37 10 90 0 53 4 90 10 90 6 0 10 18 10 40 0 22 5 40 10 40 6 0 10 14 10 30 0
17 5 30 10 30 6 0 10 9 10 20 0 11 5 20 10 20 6 0 10 9 10 20 0 11 -4 20 -10
20 -5 0 -10 -4 -10 -10z"/>
<path d="M2153 2825 c-16 -18 -18 -245 -3 -245 6 0 10 -13 10 -28 0 -16 8 -34
20 -42 11 -8 20 -20 20 -28 0 -7 16 -28 35 -47 19 -19 40 -35 47 -35 8 0 20
-9 28 -20 8 -11 21 -20 30 -20 9 0 22 -9 30 -20 8 -11 22 -20 32 -20 10 0 18
-4 18 -10 0 -5 9 -10 20 -10 11 0 20 -4 20 -10 0 -5 8 -10 18 -10 10 0 24 -9
32 -20 8 -11 20 -20 28 -20 17 0 82 -65 82 -82 0 -8 9 -20 20 -28 11 -8 20
-22 20 -32 0 -10 5 -18 10 -18 6 0 10 -9 10 -20 0 -11 5 -20 10 -20 6 0 10 -9
10 -20 0 -11 5 -20 10 -20 6 0 10 -18 10 -40 0 -22 5 -40 10 -40 6 0 10 -18
10 -40 0 -22 5 -40 10 -40 6 0 10 -27 10 -60 0 -33 4 -60 10 -60 6 0 10 -18
10 -40 0 -22 5 -40 10 -40 6 0 10 -18 10 -40 0 -22 5 -40 10 -40 6 0 10 -13
10 -30 0 -27 3 -30 30 -30 17 0 30 5 30 10 0 6 14 10 30 10 17 0 30 5 30 10 0
6 14 10 30 10 17 0 30 5 30 10 0 6 9 10 20 10 11 0 20 5 20 10 0 6 9 10 20 10
13 0 20 7 20 20 0 11 -4 20 -10 20 -5 0 -10 14 -10 30 0 17 -4 30 -10 30 -5 0
-10 14 -10 30 0 17 -4 30 -10 30 -5 0 -10 14 -10 30 0 17 -4 30 -10 30 -5 0
-10 18 -10 40 0 22 -4 40 -10 40 -5 0 -10 14 -10 30 0 17 -4 30 -10 30 -5 0
-10 18 -10 40 0 22 -4 40 -10 40 -5 0 -10 18 -10 40 0 22 -4 40 -10 40 -5 0
-10 23 -10 50 0 28 -4 50 -10 50 -5 0 -10 23 -10 50 0 28 -4 50 -10 50 -6 0
-10 27 -10 60 0 33 -4 60 -10 60 -6 0 -10 33 -10 80 0 47 -4 80 -10 80 -5 0
-10 23 -10 50 l0 50 -40 0 c-22 0 -40 5 -40 10 0 6 -22 10 -50 10 -27 0 -50 5
-50 10 0 6 -22 10 -50 10 -27 0 -50 5 -50 10 0 6 -18 10 -40 10 -22 0 -40 5
-40 10 0 6 -18 10 -40 10 -22 0 -40 5 -40 10 0 6 -18 10 -40 10 -22 0 -40 5
-40 10 0 6 -18 10 -40 10 -22 0 -40 5 -40 10 0 6 -13 10 -30 10 -16 0 -30 5
-30 10 0 14 -13 12 -27 -5z"/>
<path d="M5500 2670 c0 -6 -27 -10 -60 -10 -33 0 -60 -4 -60 -10 0 -6 -30 -10
-70 -10 -40 0 -70 -4 -70 -10 0 -6 -37 -10 -90 -10 -53 0 -90 -4 -90 -10 0 -6
-47 -10 -120 -10 -73 0 -120 -4 -120 -10 0 -6 -82 -10 -226 -10 -182 0 -228
-3 -240 -14 -11 -12 -14 -50 -14 -180 0 -104 4 -166 10 -166 6 0 10 -83 10
-230 l0 -230 170 0 c107 0 170 -4 170 -10 0 -6 30 -10 70 -10 40 0 70 -4 70
-10 0 -6 27 -10 60 -10 33 0 60 -4 60 -10 0 -5 23 -10 50 -10 28 0 50 -4 50
-10 0 -5 18 -10 40 -10 22 0 40 -4 40 -10 0 -5 18 -10 40 -10 22 0 40 -4 40
-10 0 -5 18 -10 40 -10 22 0 40 -4 40 -10 0 -5 9 -10 20 -10 13 0 20 7 20 20
0 11 5 20 10 20 6 0 10 14 10 30 0 17 5 30 10 30 6 0 10 18 10 40 0 22 5 40
10 40 6 0 10 14 10 30 0 17 5 30 10 30 6 0 10 18 10 40 0 22 5 40 10 40 6 0
10 18 10 40 0 22 5 40 10 40 6 0 10 18 10 40 0 22 5 40 10 40 6 0 10 23 10 50
0 28 5 50 10 50 6 0 10 23 10 50 0 28 5 50 10 50 6 0 10 23 10 50 0 28 5 50
10 50 6 0 10 30 10 70 0 40 4 70 10 70 6 0 10 30 10 70 l0 70 -30 0 c-16 0
-30 -4 -30 -10z"/>
<path d="M3000 2620 c0 -11 5 -20 10 -20 6 0 10 -30 10 -70 0 -40 4 -70 10
-70 6 0 10 -27 10 -60 0 -33 4 -60 10 -60 6 0 10 -22 10 -50 0 -27 5 -50 10
-50 6 0 10 -22 10 -50 0 -27 5 -50 10 -50 6 0 10 -22 10 -50 0 -27 5 -50 10
-50 6 0 10 -13 10 -30 0 -16 5 -30 10 -30 6 0 10 -18 10 -40 0 -22 5 -40 10
-40 6 0 10 -18 10 -40 0 -22 5 -40 10 -40 6 0 10 -13 10 -30 0 -16 5 -30 10
-30 6 0 10 -13 10 -30 0 -23 4 -30 20 -30 13 0 20 7 20 20 0 11 5 20 10 20 6
0 10 9 10 20 0 11 5 20 10 20 6 0 10 9 10 20 0 11 5 20 10 20 6 0 10 9 10 20
0 11 5 20 10 20 6 0 10 8 10 18 0 10 9 24 20 32 11 8 20 20 20 28 0 7 36 48
80 92 44 44 80 86 80 95 0 8 5 15 10 15 6 0 10 9 10 20 0 11 5 20 10 20 6 0
10 9 10 20 0 11 5 20 10 20 6 0 10 18 10 40 0 22 5 40 10 40 6 0 10 18 10 40
0 22 5 40 10 40 6 0 10 18 10 40 0 22 5 40 10 40 6 0 10 27 10 60 l0 60 -60 0
c-33 0 -60 4 -60 10 0 6 -40 10 -100 10 -60 0 -100 4 -100 10 0 6 -40 10 -100
10 -60 0 -100 4 -100 10 0 6 -27 10 -60 10 -53 0 -60 -2 -60 -20z"/>
<path d="M3813 2565 c-7 -8 -13 -39 -13 -70 0 -30 -4 -55 -10 -55 -5 0 -10
-18 -10 -40 0 -22 -4 -40 -10 -40 -5 0 -10 -18 -10 -40 0 -22 -4 -40 -10 -40
-5 0 -10 -13 -10 -30 0 -16 -4 -30 -10 -30 -5 0 -10 -13 -10 -30 0 -16 -4 -30
-10 -30 -5 0 -10 -13 -10 -30 0 -16 -4 -30 -10 -30 -5 0 -10 -8 -10 -18 0 -10
-9 -24 -20 -32 -11 -8 -20 -20 -20 -28 0 -7 -31 -44 -70 -82 -38 -38 -70 -75
-70 -82 0 -8 -9 -20 -20 -28 -11 -8 -20 -21 -20 -30 0 -9 -9 -22 -20 -30 -11
-8 -20 -22 -20 -32 0 -10 -4 -18 -10 -18 -5 0 -10 -9 -10 -20 0 -11 -4 -20
-10 -20 -5 0 -10 -4 -10 -10 0 -5 14 -10 30 -10 17 0 30 5 30 10 0 6 18 10 40
10 22 0 40 5 40 10 0 6 23 10 50 10 28 0 50 5 50 10 0 6 27 10 60 10 33 0 60
4 60 10 0 6 37 10 90 10 53 0 90 4 90 10 0 6 53 10 140 10 l140 0 0 270 c0
173 -4 270 -10 270 -6 0 -10 50 -10 130 l0 130 -150 0 c-93 0 -150 4 -150 10
0 15 -53 11 -67 -5z"/>
<path d="M3960 1610 c0 -6 -37 -10 -90 -10 -53 0 -90 -4 -90 -10 0 -6 -27 -10
-60 -10 -33 0 -60 -4 -60 -10 0 -5 -22 -10 -50 -10 -27 0 -50 -4 -50 -10 0 -5
-22 -10 -50 -10 -27 0 -50 -4 -50 -10 0 -5 -18 -10 -40 -10 -22 0 -40 -4 -40
-10 0 -5 -13 -10 -30 -10 -28 0 -30 -2 -30 -40 0 -22 5 -40 10 -40 6 0 10 -9
10 -20 0 -11 5 -20 10 -20 6 0 10 -9 10 -20 0 -11 5 -20 10 -20 6 0 10 -13 10
-30 0 -16 5 -30 10 -30 6 0 10 -8 10 -18 0 -10 9 -24 20 -32 11 -8 20 -22 20
-32 0 -10 5 -18 10 -18 6 0 10 -9 10 -20 0 -11 5 -20 10 -20 6 0 10 -9 10 -20
0 -11 5 -20 10 -20 6 0 10 -8 10 -18 0 -10 9 -24 20 -32 11 -8 20 -21 20 -30
0 -9 9 -22 20 -30 11 -8 20 -21 20 -28 0 -8 14 -27 30 -42 17 -15 30 -33 30
-39 0 -16 207 -221 223 -221 7 0 19 -9 27 -20 8 -11 22 -20 32 -20 10 0 18 -4
18 -10 0 -5 9 -10 20 -10 11 0 20 -4 20 -10 0 -5 9 -10 20 -10 11 0 20 -4 20
-10 0 -5 9 -10 20 -10 11 0 20 -4 20 -10 0 -5 14 -10 30 -10 17 0 30 -4 30
-10 0 -5 18 -10 40 -10 22 0 40 -4 40 -10 0 -16 50 -11 68 7 12 12 13 18 4 21
-9 3 -12 39 -12 133 0 79 -4 129 -10 129 -6 0 -10 67 -10 180 0 113 -4 180
-10 180 -6 0 -10 83 -10 230 l0 230 -130 0 c-80 0 -130 -4 -130 -10z"/>
<path d="M4360 1250 c0 -240 -4 -370 -10 -370 -6 0 -10 -70 -10 -190 l0 -190
100 0 c60 0 100 4 100 10 0 6 9 10 20 10 11 0 20 5 20 10 0 6 9 10 20 10 11 0
20 5 20 10 0 6 9 10 20 10 11 0 20 5 20 10 0 6 7 10 15 10 18 0 285 265 285
283 0 7 9 19 20 27 11 8 20 21 20 30 0 9 9 22 20 30 11 8 20 21 20 30 0 9 9
22 20 30 11 8 20 22 20 32 0 10 5 18 10 18 6 0 10 9 10 20 0 11 5 20 10 20 6
0 10 9 10 20 0 11 5 20 10 20 6 0 10 9 10 20 0 11 5 20 10 20 6 0 10 9 10 20
0 11 5 20 10 20 6 0 10 9 10 20 0 11 5 20 10 20 6 0 10 9 10 20 0 11 5 20 10
20 6 0 10 9 10 20 0 11 5 20 10 20 6 0 10 14 10 30 0 17 5 30 10 30 6 0 10 9
10 20 0 11 5 20 10 20 15 0 12 29 -4 46 -8 8 -26 14 -40 14 -14 0 -26 5 -26
10 0 6 -22 10 -50 10 -27 0 -50 5 -50 10 0 6 -18 10 -40 10 -22 0 -40 5 -40
10 0 6 -18 10 -40 10 -22 0 -40 5 -40 10 0 6 -27 10 -60 10 -33 0 -60 4 -60
10 0 6 -37 10 -90 10 -53 0 -90 4 -90 10 0 6 -53 10 -140 10 l-140 0 0 -370z"/>
<path d="M5413 1425 c-7 -8 -13 -26 -13 -40 0 -14 -4 -25 -10 -25 -5 0 -10 -9
-10 -20 0 -11 -4 -20 -10 -20 -5 0 -10 -13 -10 -30 0 -16 -4 -30 -10 -30 -5 0
-10 -9 -10 -20 0 -11 -4 -20 -10 -20 -5 0 -10 -9 -10 -20 0 -11 -4 -20 -10
-20 -5 0 -10 -9 -10 -20 0 -11 -4 -20 -10 -20 -5 0 -10 -9 -10 -20 0 -11 -4
-20 -10 -20 -5 0 -10 -9 -10 -20 0 -11 -4 -20 -10 -20 -5 0 -10 -8 -10 -18 0
-10 -9 -24 -20 -32 -11 -8 -20 -22 -20 -32 0 -10 -4 -18 -10 -18 -5 0 -10 -8
-10 -18 0 -10 -9 -24 -20 -32 -11 -8 -20 -21 -20 -30 0 -9 -9 -22 -20 -30 -11
-8 -20 -21 -20 -28 0 -8 -13 -27 -30 -42 -16 -15 -30 -33 -30 -39 0 -15 -166
-181 -181 -181 -11 0 -39 -24 -39 -34 0 -3 18 -6 40 -6 22 0 40 5 40 10 0 6
18 10 40 10 22 0 40 5 40 10 0 6 18 10 40 10 22 0 40 5 40 10 0 6 14 10 30 10
17 0 30 5 30 10 0 6 14 10 30 10 17 0 30 5 30 10 0 6 14 10 30 10 17 0 30 5
30 10 0 6 14 10 30 10 17 0 30 5 30 10 0 6 14 10 30 10 17 0 30 5 30 10 0 6 9
10 20 10 11 0 20 5 20 10 0 6 9 10 20 10 11 0 20 5 20 10 0 6 9 10 20 10 11 0
20 5 20 10 0 6 9 10 20 10 11 0 20 5 20 10 0 6 9 10 20 10 11 0 20 5 20 10 0
6 9 10 20 10 11 0 20 5 20 10 0 6 9 10 20 10 11 0 20 5 20 10 0 6 8 10 18 10
10 0 24 9 32 20 8 11 21 20 30 20 9 0 22 9 30 20 8 11 21 20 30 20 9 0 22 9
30 20 8 11 21 20 30 20 9 0 22 9 30 20 8 11 21 20 28 20 8 0 27 14 42 30 15
17 33 30 39 30 17 0 101 87 101 105 0 8 -8 15 -18 15 -10 0 -24 9 -32 20 -8
11 -22 20 -32 20 -10 0 -18 5 -18 10 0 6 -9 10 -20 10 -11 0 -20 5 -20 10 0 6
-13 10 -30 10 -16 0 -30 5 -30 10 0 6 -9 10 -20 10 -11 0 -20 5 -20 10 0 6 -9
10 -20 10 -11 0 -20 5 -20 10 0 6 -9 10 -20 10 -11 0 -20 5 -20 10 0 6 -9 10
-20 10 -11 0 -20 5 -20 10 0 6 -13 10 -30 10 -16 0 -30 5 -30 10 0 6 -9 10
-20 10 -11 0 -20 5 -20 10 0 6 -13 10 -30 10 -16 0 -30 5 -30 10 0 6 -13 10
-30 10 -16 0 -30 5 -30 10 0 6 -13 10 -30 10 -16 0 -30 5 -30 10 0 14 -13 12
-27 -5z"/>
<path d="M3020 1410 c0 -5 -13 -10 -30 -10 -16 0 -30 -4 -30 -10 0 -5 -7 -10
-16 -10 -8 0 -22 -7 -31 -15 -14 -14 -13 -18 6 -34 12 -10 21 -24 21 -30 0
-17 187 -201 205 -201 8 0 15 5 15 10 0 6 -4 10 -10 10 -5 0 -10 9 -10 20 0
11 -4 20 -10 20 -5 0 -10 14 -10 30 0 17 -4 30 -10 30 -6 0 -10 40 -10 100 l0
100 -40 0 c-22 0 -40 -4 -40 -10z"/>
<path d="M2740 1310 c0 -5 -9 -10 -20 -10 -11 0 -20 -4 -20 -10 0 -5 -13 -10
-30 -10 -16 0 -30 -4 -30 -10 0 -5 -9 -10 -20 -10 -11 0 -20 -4 -20 -10 0 -5
-9 -10 -20 -10 -11 0 -20 -4 -20 -10 0 -5 -9 -10 -20 -10 -11 0 -20 -4 -20
-10 0 -5 -12 -10 -26 -10 -29 0 -54 -21 -54 -44 0 -9 8 -16 18 -16 10 0 24 -9
32 -20 8 -11 21 -20 30 -20 9 0 22 -9 30 -20 8 -11 22 -20 32 -20 10 0 18 -4
18 -10 0 -5 9 -10 20 -10 11 0 20 -4 20 -10 0 -5 9 -10 20 -10 11 0 20 -4 20
-10 0 -5 8 -10 18 -10 10 0 24 -9 32 -20 8 -11 22 -20 32 -20 10 0 18 -4 18
-10 0 -5 9 -10 20 -10 11 0 20 -4 20 -10 0 -5 14 -10 30 -10 17 0 30 -4 30
-10 0 -5 9 -10 20 -10 11 0 20 -4 20 -10 0 -5 9 -10 20 -10 11 0 20 -4 20 -10
0 -5 9 -10 20 -10 11 0 20 -4 20 -10 0 -5 9 -10 20 -10 11 0 20 -4 20 -10 0
-5 14 -10 30 -10 17 0 30 -4 30 -10 0 -5 9 -10 20 -10 11 0 20 -4 20 -10 0 -5
9 -10 20 -10 11 0 20 -4 20 -10 0 -5 14 -10 30 -10 17 0 30 -4 30 -10 0 -5 9
-10 20 -10 11 0 20 -4 20 -10 0 -5 14 -10 30 -10 17 0 30 -4 30 -10 0 -5 14
-10 30 -10 17 0 30 -4 30 -10 0 -5 9 -10 20 -10 11 0 20 -4 20 -10 0 -5 14
-10 30 -10 17 0 30 -4 30 -10 0 -5 14 -10 30 -10 17 0 30 -4 30 -10 0 -5 14
-10 30 -10 17 0 30 -4 30 -10 0 -5 5 -10 10 -10 6 0 10 9 10 20 0 13 -7 20
-20 20 -11 0 -20 7 -20 16 0 8 -22 37 -50 64 -27 27 -50 55 -50 62 0 8 -9 20
-20 28 -11 8 -20 21 -20 30 0 9 -9 22 -20 30 -11 8 -20 21 -20 30 0 9 -9 22
-20 30 -11 8 -20 22 -20 32 0 10 -4 18 -10 18 -5 0 -10 9 -10 20 0 11 -4 20
-10 20 -5 0 -10 -13 -10 -30 0 -23 -4 -30 -20 -30 -11 0 -20 -4 -20 -10 0 -6
-33 -10 -80 -10 -47 0 -80 4 -80 10 0 6 -9 10 -20 10 -11 0 -20 5 -20 10 0 6
-9 10 -20 10 -11 0 -20 5 -20 10 0 6 -7 10 -16 10 -9 0 -29 14 -44 30 -15 17
-33 30 -39 30 -15 0 -81 66 -81 80 0 7 -18 29 -40 50 -22 21 -40 45 -40 52 0
7 -9 20 -20 28 -11 8 -20 22 -20 32 0 10 -4 18 -10 18 -5 0 -10 -4 -10 -10z"/>
</g>
</svg>
