<svg xmlns="http://www.w3.org/2000/svg" viewBox="0 0 1536.000000 1024.000000" fill="currentColor" aria-hidden="true">
<g transform="translate(0.000000,1024.000000) scale(0.100000,-0.100000)" fill="currentColor" stroke="none">
<path d="M0 5120 l0 -5120 7680 0 7680 0 0 5120 0 5120 -7680 0 -7680 0 0
-5120z m9465 5000 c563 -26 947 -92 1600 -273 227 -63 806 -262 934 -322 258
-119 567 -310 731 -452 143 -123 491 -479 572 -583 271 -351 362 -575 442
-1090 58 -370 70 -533 81 -1085 4 -165 13 -383 20 -485 33 -435 39 -698 26
-1155 -22 -831 -41 -980 -206 -1630 -74 -294 -109 -403 -184 -575 -51 -116
-155 -306 -229 -418 -126 -190 -394 -473 -574 -608 -108 -81 -325 -207 -452
-264 -343 -153 -1297 -389 -1991 -494 -292 -44 -783 -101 -1190 -138 -298 -27
-1182 -14 -1490 22 -133 16 -274 30 -400 40 -66 6 -203 19 -305 30 -192 20
-628 63 -810 80 -58 5 -175 11 -260 15 -1060 38 -1742 145 -2410 377 -200 69
-330 133 -482 235 -186 126 -329 249 -522 451 -260 272 -334 365 -443 562 -58
105 -181 396 -223 525 -23 72 -81 252 -130 400 -132 400 -166 564 -196 933
-13 166 -15 277 -10 555 4 192 11 394 16 450 5 56 16 224 25 372 8 149 17 281
20 295 3 14 14 160 25 325 11 165 22 311 25 325 2 14 16 131 30 260 30 269
106 774 135 900 56 235 157 463 311 695 100 152 245 307 425 457 185 154 271
206 499 303 61 26 191 84 290 130 265 122 333 152 447 194 309 115 659 202
1058 266 556 87 868 128 1155 150 287 22 756 66 1105 104 102 11 246 25 320
31 74 6 167 15 205 20 39 5 147 14 240 19 94 6 231 16 305 22 425 35 1073 48
1465 29z"/>
<path d="M9037 9819 c-29 -22 -31 -22 -134 2 -41 10 -62 10 -105 0 -41 -10
-63 -10 -93 -2 -60 17 -110 13 -155 -10 -40 -21 -43 -21 -101 -5 -78 21 -101
20 -135 -6 -21 -17 -38 -22 -68 -19 -23 2 -67 3 -98 2 -32 0 -75 -1 -95 -1
-21 0 -63 2 -93 6 -43 4 -70 1 -115 -15 -43 -15 -73 -19 -105 -15 -31 4 -65
-1 -109 -15 -60 -19 -66 -19 -104 -4 -34 14 -49 15 -116 3 -42 -7 -117 -13
-168 -14 -79 -1 -96 -4 -123 -24 -33 -25 -42 -26 -110 -17 -33 5 -61 2 -102
-13 -57 -20 -58 -20 -95 -1 -48 25 -79 24 -150 -3 -39 -14 -84 -22 -138 -23
-55 -1 -96 -9 -132 -23 -41 -17 -59 -19 -79 -12 -39 15 -73 12 -146 -11 l-67
-22 -59 21 c-74 27 -84 27 -131 0 -35 -20 -42 -21 -79 -9 -56 19 -108 8 -147
-29 -34 -33 -69 -38 -99 -15 -24 18 -118 20 -149 3 -13 -7 -61 -10 -123 -9
-84 2 -103 -1 -115 -15 -25 -31 -70 -43 -124 -34 -75 13 -81 12 -114 -16 -26
-21 -38 -25 -64 -19 -96 20 -120 18 -164 -14 -47 -34 -68 -38 -97 -16 -28 21
-51 19 -136 -15 -60 -23 -91 -29 -152 -30 -73 0 -80 -2 -114 -32 -35 -31 -43
-33 -123 -36 -72 -3 -91 -8 -118 -28 -26 -20 -43 -24 -98 -24 -78 0 -98 -9
-145 -62 -27 -31 -43 -40 -65 -40 -49 1 -105 -17 -210 -68 -55 -27 -112 -52
-127 -55 -15 -4 -47 -24 -71 -46 -28 -24 -61 -42 -89 -48 -25 -6 -82 -26 -127
-46 -45 -19 -114 -45 -153 -56 -43 -14 -85 -34 -107 -54 -20 -17 -67 -52 -106
-78 -38 -25 -89 -69 -113 -96 -24 -28 -78 -77 -120 -109 -98 -75 -194 -184
-259 -292 -28 -47 -83 -139 -122 -205 -61 -102 -78 -141 -112 -255 -53 -186
-89 -403 -89 -546 0 -79 -5 -126 -15 -151 -8 -19 -15 -52 -15 -72 0 -20 -16
-74 -35 -121 -40 -99 -40 -95 -19 -182 15 -62 15 -75 1 -155 -8 -49 -13 -111
-10 -139 3 -33 -1 -71 -11 -107 -9 -30 -16 -75 -16 -99 0 -23 -7 -65 -15 -92
-19 -62 -19 -110 -1 -170 12 -40 12 -59 1 -132 -8 -46 -12 -90 -9 -97 2 -7 -3
-44 -12 -82 -12 -51 -18 -144 -24 -345 -5 -204 -11 -299 -25 -366 -17 -86 -18
-100 -3 -231 10 -89 12 -158 7 -189 -13 -78 -10 -232 6 -319 26 -137 53 -326
63 -427 8 -90 12 -102 51 -162 57 -87 100 -200 122 -322 31 -173 48 -234 78
-278 16 -23 39 -76 52 -116 12 -41 62 -157 110 -258 67 -138 100 -195 137
-235 27 -28 64 -74 82 -102 19 -27 70 -86 115 -130 44 -44 113 -114 153 -155
40 -41 82 -84 93 -95 11 -11 35 -40 52 -65 24 -32 51 -54 99 -78 36 -18 97
-59 134 -92 38 -33 93 -74 122 -92 30 -18 76 -48 103 -66 35 -23 78 -39 141
-53 50 -11 110 -31 133 -45 29 -17 68 -28 119 -33 63 -7 82 -14 118 -42 39
-32 46 -34 125 -35 72 -1 87 -4 121 -28 36 -24 47 -27 121 -25 76 2 84 0 110
-25 26 -25 33 -27 117 -26 64 1 108 -5 154 -19 71 -23 106 -26 142 -12 18 7
39 3 83 -16 60 -24 88 -25 171 -8 22 5 40 2 57 -10 21 -14 40 -15 106 -9 66 5
88 3 123 -12 28 -12 71 -19 123 -19 44 -1 110 -5 147 -10 58 -7 72 -5 114 16
58 28 74 27 117 -3 27 -19 46 -23 117 -25 47 -1 101 -5 121 -8 20 -4 68 -2
107 4 58 9 77 8 113 -5 34 -12 64 -14 127 -9 74 5 93 3 164 -21 51 -17 90 -24
109 -20 18 3 48 -2 80 -14 56 -23 127 -26 176 -8 27 10 42 9 86 -5 66 -21 94
-21 140 -2 38 16 58 12 96 -17 16 -12 41 -18 78 -18 30 0 83 -7 117 -16 46
-12 88 -15 176 -11 101 5 120 3 162 -15 43 -18 53 -19 93 -8 38 11 50 10 84
-3 62 -25 131 -31 170 -14 30 13 40 13 75 0 26 -9 74 -13 131 -12 50 1 115 -2
146 -6 43 -5 70 -3 108 10 41 13 58 15 83 6 43 -15 108 -14 157 4 37 13 46 12
86 -3 40 -14 51 -15 107 -2 35 8 78 13 96 12 140 -7 147 -6 194 17 35 18 53
22 75 16 15 -5 54 -8 85 -9 45 -1 63 4 88 23 27 19 38 22 69 15 63 -13 125
-10 170 10 38 18 49 18 101 8 66 -14 102 -8 142 21 26 19 32 20 91 8 73 -14
109 -8 156 27 32 24 37 24 78 14 74 -20 128 -10 162 32 17 20 55 21 71 1 25
-30 111 -12 162 33 11 9 53 18 112 23 52 5 112 17 136 28 27 12 55 17 83 14
29 -3 69 4 132 25 50 17 116 33 147 37 42 5 67 14 95 36 35 28 41 30 95 24 62
-7 114 5 161 38 21 14 47 20 96 21 55 2 81 9 142 39 41 20 84 37 95 37 12 0
43 12 70 26 27 15 72 35 99 45 135 48 170 68 215 118 37 42 60 57 125 82 63
25 87 40 119 78 22 25 88 96 147 156 58 61 132 144 163 185 31 41 83 107 116
145 56 66 92 134 143 275 10 25 35 68 56 97 59 78 70 103 97 235 14 67 34 144
45 172 10 28 26 92 34 141 9 50 34 153 57 230 51 173 77 295 78 360 0 64 26
328 41 425 9 58 9 113 0 235 -10 141 -10 167 5 220 10 39 15 97 15 165 -1 58
-2 177 -3 265 0 88 0 224 1 303 1 99 -3 161 -14 201 -15 57 -38 231 -38 286 0
17 4 69 8 116 5 57 4 97 -4 120 -18 54 -23 356 -11 555 13 195 14 187 -45 437
-9 39 -12 91 -8 160 4 86 1 121 -21 222 -14 66 -37 158 -51 204 -14 47 -30
117 -37 155 -12 78 -45 146 -107 222 -22 25 -63 87 -93 137 -59 101 -247 310
-431 481 -59 54 -121 121 -139 149 -25 39 -44 55 -86 74 -30 13 -89 52 -130
86 -42 34 -94 71 -116 83 -23 12 -111 57 -196 101 -85 45 -175 98 -200 119
-41 36 -50 39 -121 45 -68 5 -81 9 -113 37 -40 35 -89 48 -144 37 -60 -11 -75
-8 -102 24 -32 37 -70 56 -154 75 -36 9 -85 26 -109 38 -30 15 -62 22 -114 23
-65 2 -75 5 -108 34 -36 31 -39 32 -120 29 l-84 -3 -38 36 c-66 63 -115 76
-148 39 -29 -32 -68 -26 -100 16 l-28 36 -66 -6 c-99 -9 -102 -9 -126 14 -31
29 -81 35 -135 16 -67 -23 -86 -20 -116 19 -30 40 -61 44 -129 20 -56 -20 -73
-19 -107 10 -37 32 -72 32 -134 0 -61 -31 -75 -31 -104 0 -31 33 -114 36 -153
5 -32 -26 -61 -25 -99 2 -44 31 -115 34 -151 7z m1868 -1503 c491 -4 579 -7
715 -25 328 -44 505 -115 642 -258 127 -132 195 -306 217 -553 19 -216 31
-1313 33 -3010 1 -1141 -1 -1299 -15 -1410 -28 -212 -87 -350 -188 -444 -75
-70 -140 -106 -269 -151 -120 -41 -225 -59 -430 -75 -148 -12 -3157 -24 -6165
-24 -1413 0 -1432 0 -1635 22 -243 26 -281 34 -424 79 -290 92 -418 272 -472
660 -22 159 -33 929 -38 2648 -5 1715 -3 1779 68 1987 89 258 281 414 590 478
284 60 492 71 1131 63 690 -10 1276 -9 2125 1 975 12 2639 22 3150 19 223 -1
657 -5 965 -7z"/>
<path d="M7699 8096 c-2 -2 -197 -6 -434 -10 -236 -3 -632 -11 -880 -18 -357
-9 -579 -9 -1075 2 -784 16 -1265 15 -1421 -4 -128 -16 -329 -58 -399 -84
-160 -58 -265 -171 -319 -342 -38 -120 -65 -350 -43 -364 5 -3 73 8 153 23
476 94 930 103 1824 36 798 -60 924 -59 1630 9 504 49 889 46 1630 -13 374
-30 630 -43 725 -36 287 20 369 27 490 40 497 54 826 56 1350 9 704 -63 930
-68 1247 -28 75 9 78 16 65 132 -14 118 -42 213 -89 304 -87 167 -216 252
-460 303 -176 36 -273 38 -2149 42 -1012 1 -1843 1 -1845 -1z"/>
<path d="M4895 7301 c-7 -12 12 -24 25 -16 11 7 4 25 -10 25 -5 0 -11 -4 -15
-9z"/>
<path d="M3365 7290 c-16 -5 -55 -13 -86 -20 -31 -6 -65 -17 -75 -25 -17 -12
-17 -17 -6 -35 11 -18 11 -25 0 -38 -7 -10 -18 -26 -24 -37 -15 -27 -12 -214
4 -242 6 -12 12 -30 12 -40 0 -10 7 -27 15 -37 8 -11 13 -28 10 -37 -12 -38
35 -40 165 -7 25 7 54 12 65 12 27 1 25 21 -2 21 -37 1 -36 12 2 25 20 7 39 9
42 6 3 -3 19 2 34 11 22 13 32 14 41 5 9 -9 19 -6 44 13 37 28 56 31 73 11 16
-19 69 -26 81 -11 6 7 22 13 36 13 14 0 39 9 55 22 30 21 31 21 57 3 28 -19
36 -20 113 -25 34 -2 52 2 66 15 26 23 56 22 78 -3 17 -18 20 -19 36 -4 12 11
19 12 24 4 5 -8 21 -10 40 -7 18 3 37 1 43 -5 7 -7 14 -3 21 11 12 22 64 30
76 11 3 -5 20 -7 37 -3 24 5 33 2 42 -13 6 -10 11 -23 11 -29 0 -16 40 -11 40
5 0 8 8 21 18 28 9 7 17 20 17 28 0 20 13 18 69 -11 57 -30 143 -30 165 0 19
26 56 13 85 -30 19 -28 30 -35 50 -33 14 2 25 8 24 14 -3 15 124 11 139 -4 6
-6 12 -22 13 -34 1 -20 7 -23 45 -23 42 0 44 1 45 29 0 33 24 53 51 41 36 -15
175 -18 201 -4 18 10 29 10 42 2 11 -7 22 -8 27 -3 11 11 91 -48 98 -73 3 -13
12 -18 28 -15 18 2 22 8 20 26 -3 21 0 23 25 20 23 -2 28 0 25 17 -3 18 -1 18
16 -3 l18 -23 19 20 c23 26 37 26 60 1 10 -11 20 -18 23 -15 3 3 10 1 16 -4
15 -12 56 5 56 23 0 24 42 27 66 5 16 -15 24 -17 29 -8 5 8 25 10 61 6 40 -4
56 -2 66 10 21 26 60 36 70 18 10 -17 48 -19 97 -5 21 6 40 6 51 0 11 -6 21
-5 27 1 7 7 17 7 31 -2 16 -10 26 -10 44 -2 39 19 57 23 63 13 4 -6 16 -4 29
5 12 8 26 12 29 8 4 -3 24 0 46 7 33 10 43 10 74 -5 28 -13 45 -15 88 -7 30 6
61 6 69 2 9 -5 22 -3 33 5 15 11 26 9 72 -16 l55 -29 17 37 c15 31 23 37 49
37 16 0 34 -3 40 -6 5 -4 28 -5 51 -3 38 4 60 -6 62 -27 2 -17 14 -12 17 6 5
34 27 48 58 36 15 -5 43 -10 62 -10 29 0 36 -5 49 -36 13 -31 18 -35 46 -32
22 2 33 9 35 21 7 48 38 64 63 33 21 -25 85 -30 127 -10 44 21 99 22 122 1 26
-22 78 -29 93 -11 9 11 23 13 55 8 35 -5 45 -3 50 10 6 16 8 16 25 0 12 -11
38 -17 76 -18 117 -4 133 -6 130 -17 -1 -8 17 -12 53 -11 30 0 60 -4 67 -9 8
-7 20 -5 37 7 21 13 29 14 41 4 9 -7 27 -10 44 -7 15 3 33 1 39 -5 8 -8 15 -8
24 -1 7 6 39 16 71 22 62 11 90 4 113 -27 8 -11 13 -12 18 -4 4 7 17 12 30 12
12 0 31 6 42 14 13 10 23 11 32 4 7 -6 29 -8 51 -4 22 3 42 2 45 -3 7 -10 44
-3 64 12 6 5 33 8 60 7 26 -1 61 -2 78 -1 18 0 37 -6 44 -14 16 -19 39 -19 61
0 9 9 37 17 62 19 25 1 52 8 60 15 13 10 19 7 38 -18 l22 -29 38 20 c22 11 42
24 45 29 3 5 16 6 30 3 13 -3 32 -3 41 2 36 16 67 13 80 -6 21 -30 40 -24 80
20 20 22 40 40 45 40 5 0 18 -16 30 -36 16 -27 26 -34 41 -30 13 3 31 -4 50
-20 36 -30 61 -28 64 6 3 50 3 55 12 69 8 12 12 12 25 2 9 -7 22 -11 31 -8 8
4 17 2 20 -3 4 -6 18 -10 32 -10 16 0 27 -7 30 -20 3 -10 15 -26 27 -34 21
-13 25 -12 53 19 24 26 39 33 66 33 22 0 35 -5 34 -11 -1 -8 24 -15 65 -21 73
-10 98 -1 98 35 0 11 7 20 15 21 8 0 20 1 26 2 6 1 19 -14 28 -33 16 -33 18
-34 84 -38 64 -3 68 -2 79 22 15 34 34 32 72 -8 28 -30 35 -33 65 -26 19 4 45
3 57 -2 15 -5 26 -4 30 2 3 6 17 8 33 3 14 -3 50 -8 80 -10 30 -2 61 -10 71
-19 16 -14 18 -14 30 0 9 10 17 12 23 6 6 -6 19 -6 34 0 18 7 34 5 56 -6 22
-11 34 -12 43 -4 7 6 35 9 63 8 50 -3 81 11 81 36 0 7 6 15 14 18 17 7 51 -27
42 -42 -10 -15 13 -24 29 -11 9 8 19 8 32 1 30 -16 85 -31 94 -25 5 3 9 11 9
18 0 7 12 11 28 11 15 -1 34 2 43 6 10 5 19 1 28 -13 9 -15 19 -18 38 -13 14
3 31 1 40 -7 12 -10 17 -9 28 5 13 19 79 23 105 7 25 -16 -3 -31 -65 -35 -56
-3 -87 -16 -67 -29 11 -7 320 12 333 20 14 8 0 24 -22 24 -24 0 -24 11 0 54
25 44 36 100 23 122 -7 12 -6 24 1 36 9 14 9 23 -1 39 -8 12 -11 32 -7 49 5
22 0 32 -25 53 -26 22 -29 30 -20 46 7 14 7 22 -1 27 -6 3 -8 15 -6 26 8 28
-11 31 -72 11 -50 -16 -56 -22 -68 -59 -12 -36 -17 -40 -38 -36 -14 2 -25 11
-25 18 0 21 -47 36 -71 24 -10 -6 -19 -15 -19 -20 0 -5 -7 -7 -15 -4 -8 4 -17
-1 -21 -10 -4 -10 -18 -16 -36 -16 -17 0 -27 4 -23 10 11 18 -5 32 -21 19 -8
-7 -27 -9 -45 -5 -18 3 -45 0 -67 -10 -20 -8 -53 -17 -72 -20 -19 -2 -39 -9
-44 -14 -17 -17 -36 -11 -48 15 -23 50 -130 74 -170 38 -19 -17 -19 -17 -112
29 -14 7 -24 4 -42 -13 -20 -18 -28 -21 -46 -12 -58 27 -81 33 -92 25 -6 -4
-48 -6 -94 -3 -75 5 -84 4 -96 -14 -11 -17 -16 -18 -29 -7 -9 8 -20 11 -25 8
-6 -3 -17 5 -26 19 -19 29 -39 31 -80 10 -20 -11 -32 -12 -41 -5 -10 8 -17 5
-28 -11 -21 -29 -74 -18 -83 17 -4 15 -19 30 -38 38 -28 12 -33 12 -46 -5 -23
-29 -137 -38 -178 -14 -30 18 -31 18 -64 -7 -26 -20 -38 -24 -52 -16 -13 7
-22 5 -35 -6 -26 -24 -40 -20 -77 21 l-34 37 -30 -29 c-23 -22 -33 -26 -42
-17 -9 9 -17 7 -35 -10 -30 -28 -49 -30 -84 -12 -36 18 -63 18 -79 -1 -9 -11
-17 -12 -31 -4 -11 5 -30 7 -42 3 -31 -10 -87 -6 -103 7 -17 14 -80 -5 -93
-28 -5 -10 -13 -13 -22 -7 -8 4 -32 9 -54 10 -22 1 -58 6 -79 9 -33 7 -41 4
-56 -15 -15 -20 -19 -21 -38 -9 -17 11 -24 11 -34 1 -17 -17 -79 -15 -118 4
-31 16 -34 16 -45 0 -10 -13 -18 -14 -39 -7 -26 11 -42 8 -83 -12 -18 -8 -27
-7 -41 6 -13 12 -21 14 -29 6 -8 -8 -20 -7 -43 5 -30 15 -32 14 -37 -4 -6 -23
-23 -26 -41 -8 -9 9 -15 9 -23 1 -8 -8 -20 -6 -45 8 -26 14 -51 18 -105 17
-39 -1 -73 -6 -75 -10 -9 -15 -25 -8 -22 10 2 13 -4 17 -27 16 -16 -1 -38 -5
-47 -8 -9 -4 -54 -5 -100 -2 -46 3 -96 5 -113 5 -82 -3 -168 7 -195 21 -12 7
-32 10 -44 7 -11 -3 -37 -10 -57 -15 -30 -8 -38 -6 -47 9 -13 21 -66 23 -156
7 -49 -9 -60 -9 -67 3 -6 11 -27 15 -88 14 -45 -1 -84 -5 -88 -8 -11 -12 -78
-8 -91 5 -9 9 -18 8 -37 -2 -15 -8 -51 -14 -81 -13 -29 1 -56 -3 -60 -8 -3 -6
-12 -5 -21 3 -24 19 -73 18 -112 -3 -44 -23 -51 -23 -66 -2 -8 10 -17 13 -26
8 -19 -12 -100 -14 -122 -3 -12 6 -23 5 -32 -2 -13 -11 -288 -26 -400 -22 -49
2 -106 -23 -99 -42 3 -8 1 -17 -5 -21 -6 -3 -11 0 -11 9 0 18 -57 54 -99 62
-27 6 -33 3 -38 -15 -3 -11 -12 -21 -20 -21 -8 0 -12 4 -8 9 12 20 -18 22 -36
2 -25 -27 -42 -27 -54 1 -13 30 -73 43 -97 21 -10 -9 -18 -22 -18 -29 0 -22
-20 -27 -39 -10 -12 11 -20 13 -28 5 -8 -8 -17 -8 -30 0 -14 7 -24 7 -33 -2
-8 -8 -11 -8 -7 -1 15 27 -82 60 -98 33 -4 -6 -13 -8 -19 -6 -7 3 -31 -3 -54
-13 -27 -12 -44 -15 -48 -9 -3 6 -17 8 -30 5 -14 -4 -37 0 -54 9 -16 8 -31 11
-35 6 -3 -5 -31 -9 -62 -9 -49 1 -60 4 -79 28 -19 22 -29 26 -56 22 -18 -2
-38 -8 -44 -13 -21 -17 -125 -9 -171 13 -26 13 -73 -12 -73 -38 0 -13 -3 -14
-15 -4 -8 7 -21 10 -29 7 -8 -3 -20 0 -26 8 -15 18 -138 31 -153 16 -15 -15
-48 -13 -71 4 -11 8 -27 15 -37 15 -9 0 -22 7 -29 15 -8 10 -17 12 -24 6 -15
-12 -74 -23 -116 -21 -19 0 -61 2 -92 3 -31 1 -63 8 -69 14 -10 10 -18 8 -39
-12 -24 -23 -29 -24 -85 -15 -92 15 -141 12 -177 -10 -41 -25 -43 -25 -67 1
-15 16 -27 20 -49 16 -16 -3 -34 -1 -39 4 -14 14 -66 -12 -87 -43 -15 -22 -16
-22 -30 -3 -11 15 -29 20 -82 22 -114 6 -138 9 -142 21 -2 6 7 12 20 14 13 2
23 8 23 13 0 13 -52 16 -90 5z"/>
<path d="M5125 7290 c-8 -13 20 -24 41 -16 20 8 9 26 -16 26 -10 0 -22 -5 -25
-10z"/>
<path d="M9476 7291 c-4 -5 -2 -12 3 -15 5 -4 12 -2 15 3 4 5 2 12 -3 15 -5 4
-12 2 -15 -3z"/>
<path d="M6926 6800 c-93 -5 -183 -11 -200 -14 -32 -6 -111 -14 -396 -41 -294
-28 -747 -19 -1320 25 -341 27 -845 36 -1095 21 -324 -20 -746 -76 -782 -104
-19 -14 -19 -685 0 -693 8 -3 83 9 169 26 498 97 1062 105 1923 25 94 -9 301
-19 461 -22 296 -6 350 -3 729 37 621 65 944 63 1795 -12 374 -33 675 -30
1085 12 262 26 379 33 646 37 332 6 437 1 899 -38 383 -32 656 -49 805 -49
162 0 472 24 560 42 l60 13 0 345 0 345 -75 -2 c-41 -2 -133 -10 -205 -19
-179 -23 -690 -23 -940 0 -99 9 -229 21 -290 26 -60 6 -189 17 -285 26 -268
25 -712 23 -960 -5 -615 -68 -873 -66 -1710 9 -160 14 -670 20 -874 10z"/>
<path d="M8326 6801 c-4 -5 -2 -12 3 -15 5 -4 12 -2 15 3 4 5 2 12 -3 15 -5 4
-12 2 -15 -3z"/>
<path d="M9215 6800 c-4 -6 0 -12 7 -14 22 -8 58 -2 58 9 0 13 -57 17 -65 5z"/>
<path d="M10926 6801 c-4 -5 -2 -12 3 -15 5 -4 12 -2 15 3 4 5 2 12 -3 15 -5
4 -12 2 -15 -3z"/>
<path d="M5565 6791 c-7 -12 12 -24 25 -16 11 7 4 25 -10 25 -5 0 -11 -4 -15
-9z"/>
<path d="M8365 6791 c-7 -12 12 -24 25 -16 11 7 4 25 -10 25 -5 0 -11 -4 -15
-9z"/>
<path d="M8505 6790 c-8 -13 20 -24 41 -16 20 8 9 26 -16 26 -10 0 -22 -5 -25
-10z"/>
<path d="M11175 6790 c-4 -6 -10 -8 -15 -5 -5 3 -11 1 -14 -4 -4 -5 -2 -12 3
-15 5 -4 12 -2 16 4 4 6 10 8 15 5 5 -3 11 -1 14 4 4 5 2 12 -3 15 -5 4 -12 2
-16 -4z"/>
<path d="M3685 6030 c-4 -6 -3 -16 3 -22 6 -6 12 -6 17 2 4 6 3 16 -3 22 -6 6
-12 6 -17 -2z"/>
<path d="M9465 6027 c-11 -9 -14 -16 -7 -21 15 -9 65 12 57 24 -9 14 -28 13
-50 -3z"/>
<path d="M4164 6019 c-9 -14 -10 -19 -13 -39 -2 -14 -58 -12 -112 4 -40 12
-51 12 -73 1 -15 -8 -33 -12 -41 -9 -7 3 -18 -4 -25 -15 -15 -29 -48 -27 -60
4 -11 28 -13 29 -41 14 -16 -8 -25 -7 -38 5 -25 22 -46 20 -64 -8 -21 -31 -73
-38 -168 -22 -42 8 -88 11 -104 8 -21 -3 -26 -1 -23 9 3 8 19 16 37 19 36 6
43 23 10 28 -22 4 -192 -32 -237 -49 -13 -5 -20 -14 -17 -20 4 -5 0 -25 -9
-43 -9 -20 -16 -65 -17 -117 -1 -46 -6 -94 -10 -107 -5 -13 -5 -30 1 -40 5 -9
11 -29 14 -43 3 -14 16 -42 30 -61 13 -20 26 -44 28 -55 3 -14 12 -18 43 -16
46 3 125 22 141 34 6 5 14 6 17 3 3 -4 14 -4 23 0 13 5 14 9 4 21 -12 14 -15
14 -30 0 -14 -13 -19 -13 -28 -2 -17 20 1 39 31 32 20 -5 28 -3 33 9 6 16 35
23 33 9 -3 -20 3 -22 26 -7 13 8 28 13 33 10 6 -3 30 2 54 11 28 10 52 13 64
8 10 -4 25 -7 32 -6 8 1 19 -3 26 -9 10 -7 17 -6 26 5 7 9 23 15 35 13 12 -1
33 5 48 15 25 16 30 16 63 2 42 -17 110 -20 119 -4 4 6 12 8 19 6 7 -3 30 4
51 14 42 20 65 19 65 -4 0 -8 9 -22 20 -32 16 -14 23 -16 32 -7 7 7 28 12 47
12 22 0 43 8 58 21 18 18 25 20 37 10 10 -9 16 -9 21 -1 5 8 15 4 31 -11 23
-22 24 -22 44 -4 20 18 21 18 45 -5 l24 -23 35 31 c30 27 41 30 73 25 21 -3
41 -10 44 -15 9 -14 120 -20 135 -7 8 6 11 15 8 20 -13 21 19 6 53 -24 46 -41
71 -51 89 -36 8 6 23 9 34 6 11 -3 23 -1 26 4 3 5 27 9 54 9 38 0 52 -4 59
-19 16 -29 49 -33 66 -8 12 18 25 22 68 22 28 0 57 3 63 7 7 4 17 1 24 -7 9
-11 17 -12 31 -5 28 16 197 5 217 -13 13 -12 22 -13 35 -5 13 7 22 7 30 -1 9
-9 16 -6 27 9 13 18 20 19 43 11 17 -7 28 -7 32 -1 9 14 59 12 73 -2 16 -16
63 -17 86 -2 13 9 46 11 109 8 70 -4 102 -1 135 11 23 10 50 14 60 10 26 -11
231 -14 238 -3 4 5 10 5 17 -1 22 -17 53 -16 82 3 21 14 33 16 45 8 13 -8 25
-6 50 10 30 18 34 18 42 4 11 -20 82 -21 119 -2 18 9 32 10 43 4 10 -5 23 -7
31 -4 21 8 70 -9 70 -25 1 -26 16 -39 44 -39 28 0 57 21 45 33 -3 3 -21 3 -40
0 -20 -3 -34 -1 -34 5 0 13 26 23 44 16 8 -3 20 4 28 15 12 17 23 20 71 17 35
-1 64 -9 75 -19 10 -9 23 -17 29 -17 6 0 16 -7 23 -15 15 -18 30 -10 30 16 0
18 5 19 43 14 23 -4 55 -6 71 -6 16 0 37 -4 47 -9 12 -7 20 -7 24 0 3 6 17 7
30 4 13 -3 32 -1 43 5 15 8 23 7 31 -3 16 -19 129 -32 144 -17 14 14 64 14 72
1 5 -8 12 -7 22 2 12 10 17 9 24 -3 8 -16 34 -16 144 -3 22 3 51 4 65 4 109
-5 146 -7 150 -9 3 -1 35 -3 71 -4 37 -2 73 -7 80 -13 31 -24 49 -24 58 0 8
19 15 22 43 18 18 -2 39 -9 45 -14 7 -6 21 -7 30 -3 10 4 37 9 60 10 24 1 56
8 73 15 22 9 33 10 44 1 13 -11 60 -12 243 -8 77 2 96 5 122 25 31 23 32 23
59 4 21 -15 31 -17 44 -9 13 9 21 7 37 -7 17 -15 25 -17 52 -7 18 6 47 11 65
11 18 0 36 5 39 11 4 6 14 8 22 5 9 -4 22 -1 30 5 15 13 23 9 27 -15 3 -21 55
-68 67 -60 6 4 7 10 0 17 -15 19 31 65 72 72 24 5 46 2 68 -9 18 -9 38 -16 45
-16 20 0 27 -19 14 -35 -10 -12 -9 -16 4 -21 27 -10 46 4 46 35 0 30 22 61 43
61 39 -1 57 -14 63 -46 8 -41 27 -53 91 -57 l47 -2 2 48 c2 55 15 77 37 58 8
-6 22 -8 32 -5 13 5 16 3 13 -7 -3 -8 -1 -23 5 -33 9 -18 10 -18 28 5 l19 24
29 -33 c25 -29 31 -32 55 -22 14 5 29 17 32 25 5 11 10 13 19 5 7 -6 20 -8 29
-4 9 3 23 1 31 -6 8 -6 20 -10 27 -7 7 2 28 -2 47 -9 52 -22 71 -18 84 16 19
50 59 52 77 4 7 -18 18 -24 42 -26 18 -1 42 -2 53 -3 11 -1 26 -4 33 -9 8 -5
15 2 22 18 5 14 18 30 30 36 17 9 25 6 53 -24 29 -33 37 -36 82 -34 28 1 55 5
62 10 7 6 42 5 84 -1 40 -5 76 -8 80 -5 4 2 10 1 13 -4 6 -10 84 -7 110 3 11
5 26 3 37 -3 13 -9 20 -9 25 -1 5 8 10 6 16 -4 7 -13 21 -15 71 -12 59 4 62 5
72 36 14 40 30 48 38 18 3 -12 10 -18 17 -14 6 4 20 -1 30 -10 10 -9 27 -16
37 -15 10 1 20 1 23 1 19 -7 77 -8 89 -1 8 4 27 4 43 0 16 -5 30 -5 33 1 8 11
52 12 59 0 3 -4 21 -7 39 -6 19 2 40 -1 47 -5 7 -4 26 -3 42 2 34 12 60 -4 56
-36 -3 -19 1 -21 37 -18 73 4 151 34 139 53 -2 5 2 19 9 31 18 29 17 251 -1
285 -7 12 -9 28 -6 37 4 10 -5 20 -25 31 -40 20 -39 33 2 37 57 5 24 23 -41
21 -71 -1 -104 -18 -123 -62 -12 -26 -15 -28 -33 -16 -13 10 -25 11 -37 4 -11
-5 -35 -9 -55 -7 -26 2 -40 -3 -50 -16 -10 -14 -17 -16 -26 -8 -16 13 -65 9
-81 -7 -15 -15 -27 -14 -21 3 3 8 1 17 -5 20 -10 7 -76 -20 -103 -42 -14 -12
-18 -11 -28 8 l-12 22 -24 -23 c-13 -12 -24 -29 -24 -38 0 -18 -17 -4 -34 30
-6 12 -18 25 -26 29 -8 4 -26 12 -38 19 -20 10 -27 10 -42 -4 -17 -15 -20 -15
-43 -1 -22 15 -26 15 -37 1 -16 -19 -34 -19 -50 0 -10 12 -16 13 -27 4 -17
-14 -91 -20 -99 -8 -3 5 -9 7 -14 4 -5 -3 -20 1 -32 9 -14 9 -47 15 -83 15
-33 0 -85 1 -115 3 -54 3 -55 2 -60 -27 -4 -23 -7 -26 -12 -13 -4 10 -13 15
-22 12 -9 -4 -20 5 -30 25 -14 26 -19 29 -45 21 -19 -5 -33 -4 -40 3 -8 8 -14
8 -23 -1 -7 -7 -22 -12 -34 -12 -12 0 -29 -11 -38 -25 -23 -36 -51 -18 -68 43
-12 40 -18 47 -42 50 -15 2 -35 -3 -44 -11 -27 -22 -86 -46 -113 -45 -13 1
-33 9 -44 18 -39 33 -54 32 -78 -5 -25 -39 -33 -42 -59 -18 -17 15 -19 15 -36
0 -27 -25 -40 -21 -64 19 -16 28 -26 34 -47 32 -20 -2 -25 -8 -23 -23 3 -15 1
-17 -8 -8 -14 13 -33 8 -72 -19 -29 -20 -58 -18 -88 6 -18 15 -60 18 -75 6 -5
-4 -35 -13 -65 -18 -30 -6 -63 -14 -72 -17 -12 -5 -18 -2 -18 8 0 26 -26 39
-40 21 -8 -8 -22 -13 -31 -11 -12 3 -24 -4 -34 -20 -15 -23 -17 -23 -29 -7 -7
9 -18 14 -24 10 -6 -3 -22 -2 -36 4 -16 6 -35 6 -50 0 -18 -7 -28 -5 -37 6
-10 13 -15 12 -36 -7 -12 -13 -23 -28 -23 -36 0 -16 -1 -16 -36 2 -19 9 -32
11 -38 5 -6 -6 -20 -10 -32 -10 -13 0 -26 -5 -29 -11 -5 -7 -13 -5 -24 5 -16
15 -68 16 -124 1 -17 -5 -33 -3 -43 6 -20 16 -65 21 -81 8 -6 -6 -17 -8 -23
-4 -6 4 -27 -1 -48 -11 -43 -20 -88 -21 -111 -1 -11 11 -35 14 -86 12 -38 -1
-75 2 -82 7 -7 6 -14 5 -18 -2 -4 -7 -11 -8 -18 -2 -19 15 -64 20 -105 12 -20
-3 -66 -3 -102 0 -36 4 -69 5 -74 2 -20 -11 -82 -9 -102 3 -12 8 -31 11 -43 8
-15 -4 -30 2 -46 17 -19 18 -30 21 -57 16 -86 -18 -149 -14 -225 15 -15 6 -25
4 -30 -5 -9 -14 -46 -36 -61 -36 -5 0 -12 8 -14 18 -5 16 -14 18 -64 17 -33
-2 -70 1 -82 6 -13 5 -29 6 -35 2 -22 -14 -61 -9 -81 11 -19 19 -19 19 -40 -6
-16 -18 -32 -25 -63 -27 -23 -1 -44 3 -48 9 -5 8 -14 7 -30 -4 -16 -10 -25
-12 -33 -4 -16 16 -90 18 -103 2 -13 -16 -65 -19 -74 -5 -3 5 -21 7 -40 4 -20
-3 -41 -1 -49 6 -10 9 -16 8 -26 -3 -9 -12 -16 -13 -31 -3 -17 10 -23 8 -39
-13 -17 -22 -21 -23 -43 -11 -19 10 -29 10 -47 1 -12 -6 -29 -8 -38 -4 -32 13
-77 15 -98 3 -14 -7 -28 -8 -38 -2 -8 5 -48 5 -88 1 -90 -8 -103 -11 -119 -25
-11 -8 -23 -7 -51 7 -26 13 -39 15 -47 7 -9 -9 -17 -8 -30 0 -16 10 -22 9 -32
-3 -9 -10 -22 -14 -41 -10 -15 3 -30 1 -33 -4 -10 -16 -42 -11 -56 9 -19 25
-73 35 -89 16 -7 -8 -25 -15 -40 -15 -15 0 -35 -9 -45 -20 -15 -16 -20 -17
-29 -6 -13 16 -69 36 -100 36 -12 0 -30 -9 -39 -21 -14 -16 -21 -18 -32 -9 -9
7 -30 9 -59 5 -27 -4 -51 -3 -59 3 -19 15 -108 31 -142 25 -16 -3 -35 -12 -42
-20 -10 -13 -12 -12 -20 1 -5 9 -23 27 -41 40 -20 14 -29 27 -22 31 17 11 1
25 -29 25 -34 0 -44 -9 -30 -27 9 -10 8 -18 -6 -33 -22 -24 -48 -26 -65 -5 -7
8 -19 15 -28 15 -37 0 -92 24 -90 39 2 10 -4 16 -16 16 -13 0 -20 -8 -22 -29
-6 -55 -21 -60 -109 -37 -70 19 -80 19 -95 6 -13 -11 -19 -12 -28 -3 -7 7 -12
8 -12 4 0 -5 -7 -3 -15 4 -13 10 -19 10 -33 -4 -22 -20 -32 -20 -32 -3 0 39
-75 62 -100 32 -15 -18 -40 -16 -57 5 -11 13 -14 12 -19 -8 -5 -17 -11 -21
-28 -16 -11 3 -28 13 -38 21 -13 12 -20 12 -37 1 -17 -11 -22 -10 -33 5 -17
23 -82 34 -94 16z m5746 -399 c0 -11 -2 -20 -4 -20 -2 0 -6 9 -9 20 -3 11 -1
20 4 20 5 0 9 -9 9 -20z"/>
<path d="M4956 6021 c-3 -5 1 -14 8 -21 17 -13 61 4 51 21 -8 11 -52 12 -59 0z"/>
<path d="M9245 6020 c-8 -12 20 -24 35 -15 6 3 8 11 5 16 -8 12 -32 12 -40 -1z"/>
<path d="M10576 6021 c-4 -5 -2 -12 3 -15 5 -4 12 -2 15 3 4 5 2 12 -3 15 -5
4 -12 2 -15 -3z"/>
<path d="M10815 6020 c-3 -5 0 -13 9 -16 21 -8 61 -1 61 11 0 14 -62 19 -70 5z"/>
<path d="M6275 6011 c-7 -12 12 -24 25 -16 11 7 4 25 -10 25 -5 0 -11 -4 -15
-9z"/>
<path d="M8255 6011 c-7 -12 12 -24 25 -16 11 7 4 25 -10 25 -5 0 -11 -4 -15
-9z"/>
<path d="M10975 6010 c-8 -12 20 -24 35 -15 6 3 8 11 5 16 -8 12 -32 12 -40
-1z"/>
<path d="M7386 5602 c-3 -6 1 -15 8 -21 8 -7 17 -8 20 -3 3 6 -1 15 -8 21 -8
7 -17 8 -20 3z"/>
<path d="M4436 5591 c-4 -5 -2 -12 3 -15 5 -4 12 -2 15 3 4 5 2 12 -3 15 -5 4
-12 2 -15 -3z"/>
<path d="M7076 5591 c-4 -5 -2 -12 3 -15 5 -4 12 -2 15 3 4 5 2 12 -3 15 -5 4
-12 2 -15 -3z"/>
<path d="M7466 5581 c-4 -5 -2 -12 3 -15 5 -4 12 -2 15 3 4 5 2 12 -3 15 -5 4
-12 2 -15 -3z"/>
<path d="M6820 5530 c-280 -7 -478 -19 -690 -41 -52 -5 -223 -12 -380 -15
-232 -5 -338 -2 -570 16 -476 35 -858 46 -1135 32 -365 -18 -864 -87 -912
-125 -10 -7 -13 -87 -13 -337 0 -179 3 -329 6 -333 3 -3 28 1 54 9 423 126
1117 162 1865 99 531 -45 837 -47 1273 -9 364 31 747 43 1072 33 223 -8 347
-16 762 -50 190 -16 650 -6 903 20 496 51 975 49 1620 -6 271 -23 375 -27 685
-27 212 -1 420 4 495 12 211 19 399 44 413 55 9 7 12 85 12 328 0 175 -3 320
-7 322 -5 2 -80 -4 -168 -14 -312 -36 -430 -42 -785 -36 -316 5 -652 24 -840
46 -108 13 -278 16 -775 15 -358 0 -497 -5 -745 -23 -266 -20 -350 -23 -655
-18 -192 3 -429 12 -525 21 -96 8 -256 17 -355 20 -99 4 -209 8 -245 10 -36 2
-198 0 -360 -4z"/>
<path d="M5635 5521 c-7 -12 12 -24 25 -16 11 7 4 25 -10 25 -5 0 -11 -4 -15
-9z"/>
<path d="M10915 5520 c-8 -12 20 -24 35 -15 6 3 8 11 5 16 -8 12 -32 12 -40
-1z"/>
<path d="M11136 5521 c-4 -5 -2 -12 3 -15 5 -4 12 -2 15 3 4 5 2 12 -3 15 -5
4 -12 2 -15 -3z"/>
<path d="M11176 5521 c-4 -5 -2 -12 3 -15 5 -4 12 -2 15 3 4 5 2 12 -3 15 -5
4 -12 2 -15 -3z"/>
<path d="M11815 5520 c-3 -5 0 -13 8 -16 23 -8 102 0 102 11 0 14 -102 19
-110 5z"/>
<path d="M11264 5509 c-7 -11 7 -15 53 -15 24 1 42 6 40 11 -2 11 -86 15 -93
4z"/>
<path d="M11385 5510 c-8 -12 20 -24 35 -15 6 3 8 11 5 16 -8 12 -32 12 -40
-1z"/>
<path d="M11625 5510 c-8 -13 20 -24 41 -16 20 8 9 26 -16 26 -10 0 -22 -5
-25 -10z"/>
<path d="M9225 4810 c-8 -12 20 -24 35 -15 6 3 8 11 5 16 -8 12 -32 12 -40 -1z"/>
<path d="M10175 4811 c-7 -12 12 -24 25 -16 11 7 4 25 -10 25 -5 0 -11 -4 -15
-9z"/>
<path d="M12130 4810 c-25 -4 -58 -14 -75 -23 -16 -9 -35 -17 -42 -17 -14 0
-38 -40 -35 -57 2 -9 -14 -12 -52 -11 -31 1 -54 6 -53 12 2 12 -29 20 -49 12
-11 -4 -12 -10 -4 -25 9 -18 7 -19 -27 -14 -21 3 -43 10 -50 15 -7 5 -14 5
-17 0 -8 -14 -67 -21 -92 -11 -14 5 -32 2 -49 -7 -15 -8 -36 -14 -46 -14 -10
0 -23 -9 -29 -20 -10 -19 -12 -19 -38 -3 -15 10 -31 24 -35 31 -6 8 -13 10
-20 4 -14 -11 -78 -12 -92 -2 -5 5 -30 1 -53 -7 -25 -8 -51 -11 -60 -7 -10 4
-21 8 -27 9 -5 0 -16 4 -22 8 -7 5 -19 5 -25 1 -18 -11 -127 -13 -134 -3 -3 5
-14 5 -24 -1 -13 -7 -21 -7 -25 0 -4 6 -16 8 -26 5 -11 -4 -25 -2 -32 3 -27
21 -66 23 -85 4 -11 -11 -31 -22 -45 -26 -21 -5 -29 -1 -47 30 -22 34 -23 35
-42 17 -19 -17 -20 -17 -29 0 -6 10 -22 17 -40 17 -23 0 -34 -7 -50 -35 -18
-30 -24 -33 -41 -24 -11 6 -24 24 -30 40 -5 16 -18 34 -28 39 -28 15 -122 -6
-141 -31 -15 -21 -17 -21 -42 -5 -14 10 -28 23 -30 30 -8 20 -86 19 -94 0 -3
-8 -11 -13 -18 -10 -7 2 -25 -2 -40 -10 -15 -8 -31 -11 -36 -8 -5 2 -17 0 -28
-5 -17 -10 -21 -6 -31 24 -15 45 -21 48 -71 31 -23 -8 -47 -12 -54 -9 -8 2
-19 -5 -25 -17 -9 -18 -17 -20 -43 -14 -17 3 -37 14 -43 22 -14 20 -55 23 -74
7 -8 -7 -33 -17 -55 -20 -22 -4 -46 -13 -54 -19 -11 -8 -13 -8 -8 1 4 6 3 14
-2 17 -5 4 -12 2 -16 -3 -8 -14 -35 -2 -35 14 0 20 -20 29 -33 16 -6 -6 -19
-11 -28 -11 -9 0 -22 -6 -28 -14 -13 -15 -53 -15 -149 2 -49 9 -54 8 -72 -15
-14 -18 -24 -22 -44 -17 -15 3 -32 1 -41 -6 -8 -6 -22 -9 -33 -6 -32 11 -107
14 -117 6 -15 -11 -130 -19 -146 -10 -7 5 -21 4 -31 -1 -13 -7 -31 -6 -55 2
-32 10 -38 9 -49 -6 -15 -20 -110 -27 -125 -9 -16 19 -70 25 -93 11 -34 -22
-64 -26 -70 -11 -9 25 -48 32 -84 17 -25 -10 -37 -11 -47 -3 -9 8 -15 8 -20 0
-3 -6 -10 -8 -15 -5 -5 3 -12 1 -15 -5 -5 -8 -11 -7 -21 1 -8 6 -26 9 -40 6
-15 -2 -41 -1 -57 4 -23 6 -37 5 -54 -6 -27 -18 -54 -20 -50 -3 1 6 -15 16
-35 22 -20 6 -40 14 -43 18 -4 4 -20 5 -35 2 -16 -4 -31 -1 -35 6 -5 8 -14 5
-31 -11 -18 -17 -26 -19 -37 -10 -8 6 -27 8 -44 5 -22 -4 -32 -2 -36 10 -4 10
-17 16 -34 16 -16 -1 -37 0 -47 2 -12 2 -24 -5 -31 -18 -10 -19 -13 -20 -30
-8 -10 8 -28 14 -40 14 -12 0 -30 6 -41 14 -14 11 -22 12 -33 3 -8 -7 -31 -12
-52 -13 -21 0 -50 -7 -65 -14 -25 -14 -28 -13 -49 14 -13 16 -27 26 -32 23
-12 -7 -100 -20 -133 -19 -14 0 -30 -4 -36 -9 -7 -6 -17 -2 -29 11 -19 21 -55
19 -113 -8 -30 -14 -34 -13 -46 4 -12 16 -18 17 -37 6 -13 -6 -48 -10 -77 -9
-34 2 -57 -2 -64 -10 -13 -16 -44 -17 -53 -3 -5 8 -11 8 -20 0 -10 -8 -15 -8
-20 0 -5 8 -10 8 -20 0 -10 -8 -20 -8 -37 2 -14 8 -53 13 -98 13 -64 0 -75 -2
-72 -17 1 -9 -2 -19 -7 -23 -12 -6 -50 13 -67 34 -15 19 -33 6 -27 -19 6 -21
-6 -27 -22 -11 -12 11 -55 -4 -55 -18 0 -15 -58 -10 -64 6 -3 7 -14 13 -25 13
-11 0 -21 9 -24 21 -8 30 -43 21 -39 -9 3 -22 3 -23 -94 -18 -53 3 -102 10
-109 16 -9 8 -17 4 -28 -14 -16 -24 -63 -40 -73 -25 -3 5 -14 9 -25 9 -11 0
-37 6 -59 12 -31 10 -39 17 -34 30 6 20 -18 34 -37 22 -9 -5 -7 -11 7 -22 15
-11 15 -13 2 -9 -9 3 -24 -3 -34 -14 -13 -15 -26 -19 -45 -15 -14 3 -31 0 -37
-6 -8 -8 -21 -6 -47 7 -26 12 -40 14 -48 6 -6 -6 -16 -7 -28 -1 -19 11 -83 8
-113 -5 -15 -7 -26 -1 -50 26 -55 62 -91 67 -109 17 -9 -25 -65 -25 -63 -1 1
17 -30 28 -112 37 -29 4 -36 0 -50 -24 -13 -23 -22 -28 -46 -25 -16 2 -34 11
-39 20 -7 13 -17 15 -42 11 -18 -4 -36 -2 -39 3 -8 13 -74 -4 -98 -26 -20 -18
-21 -17 -48 16 -16 18 -33 30 -39 27 -6 -4 -20 -2 -32 4 -11 6 -28 8 -37 4 -9
-4 -27 -6 -38 -5 -13 1 -30 -8 -41 -23 l-20 -25 -22 23 c-23 25 -85 34 -97 14
-3 -5 -15 -3 -28 5 -20 13 -25 13 -47 -4 -13 -10 -30 -19 -37 -19 -7 0 -15 -7
-19 -16 -5 -13 -9 -12 -27 9 -22 27 -91 44 -102 25 -4 -5 -19 -7 -35 -4 -22 4
-31 1 -39 -14 -14 -25 -56 -26 -69 -2 -7 14 -18 18 -41 14 -16 -2 -33 -8 -35
-12 -3 -5 -20 -6 -39 -3 -27 4 -36 1 -54 -22 -19 -24 -26 -26 -59 -19 -21 4
-42 6 -48 5 -79 -20 -169 -5 -145 25 18 21 -10 28 -90 20 -114 -10 -114 -11
-150 -121 -19 -57 -21 -223 -4 -257 8 -15 11 -33 8 -41 -3 -8 0 -18 5 -22 6
-3 9 -11 5 -16 -3 -5 0 -16 6 -24 6 -8 9 -19 6 -24 -15 -24 31 -30 98 -14 60
15 69 20 88 55 12 21 25 38 28 38 4 0 12 -12 19 -26 l12 -27 19 21 c20 21 58
23 109 7 15 -5 23 -1 28 12 15 41 59 45 73 7 10 -26 12 -26 78 -19 79 8 82 10
82 39 0 44 45 62 68 26 7 -12 21 -19 35 -17 16 1 22 -3 22 -17 0 -23 19 -31
43 -20 9 4 23 8 31 8 8 1 16 12 18 26 5 34 22 48 63 52 35 3 35 3 36 -37 0
-40 1 -40 40 -40 21 0 39 5 39 10 0 6 -4 9 -10 8 -5 -2 -10 8 -10 22 0 26 9
33 20 15 3 -6 16 -8 28 -5 12 3 40 7 62 9 22 3 42 5 45 6 11 5 46 -3 57 -11 6
-6 29 -9 50 -8 21 2 44 -1 51 -5 8 -4 16 2 22 18 8 21 16 26 44 26 18 0 39 -6
45 -14 15 -18 81 -28 98 -14 10 8 18 6 33 -7 19 -17 20 -17 31 7 8 20 16 24
37 20 32 -6 42 -18 42 -53 0 -39 20 -50 86 -47 50 3 59 6 62 23 4 27 50 49 69
33 9 -7 12 -21 9 -34 -7 -27 4 -35 47 -39 41 -3 51 3 36 21 -6 8 -10 16 -8 17
45 32 57 35 83 22 14 -8 36 -11 49 -8 38 10 235 5 273 -7 24 -8 54 -9 92 -4
31 5 64 7 72 6 8 -1 33 -2 55 -3 22 -1 45 -6 52 -11 7 -5 14 -5 18 2 3 5 21
10 40 10 19 0 37 5 40 10 4 6 21 8 41 4 21 -4 40 -2 49 6 12 10 15 9 15 -3 0
-9 9 -21 20 -27 16 -9 22 -8 27 5 3 10 13 15 25 12 14 -4 22 2 28 19 13 34 35
40 67 18 14 -11 39 -27 55 -37 29 -17 30 -17 35 3 3 11 10 20 17 21 6 0 34 3
61 5 28 2 68 5 90 7 22 2 48 -1 57 -7 13 -8 22 -5 37 8 14 13 30 17 53 13 20
-3 39 1 48 9 13 11 22 10 55 -5 37 -16 41 -16 74 0 30 14 38 15 56 3 18 -12
24 -11 43 2 15 11 27 13 35 6 27 -21 77 -24 105 -6 15 10 32 17 37 15 22 -7
113 -16 163 -16 40 0 57 5 66 18 17 23 24 22 47 -7 14 -17 25 -22 45 -18 18 3
30 0 36 -12 5 -9 14 -13 20 -10 16 10 145 16 151 7 3 -4 42 -6 87 -3 48 3 85
1 91 -5 5 -5 24 -11 42 -12 18 -1 41 -3 52 -5 13 -2 24 6 33 26 l14 28 23 -28
c21 -26 25 -27 47 -15 18 9 35 10 64 3 21 -5 54 -10 73 -11 19 -1 41 -6 48
-12 7 -6 22 -9 34 -6 11 3 46 1 77 -5 50 -9 63 -7 101 10 30 14 50 18 61 12
18 -9 112 -14 145 -7 11 2 35 7 53 11 21 5 38 4 47 -4 8 -7 26 -9 39 -6 14 3
28 2 31 -4 8 -13 56 -2 70 15 16 20 147 24 162 5 11 -13 14 -12 19 8 6 21 26
28 64 23 8 -1 36 -2 61 -1 30 1 50 -4 59 -15 14 -17 32 -19 58 -6 28 14 116
41 134 41 10 0 24 -10 33 -23 19 -29 61 -28 84 2 14 18 27 22 81 23 36 1 78
-4 93 -10 37 -15 47 -15 66 2 13 12 26 13 60 5 25 -5 50 -8 57 -5 8 3 16 1 19
-5 4 -5 12 -8 18 -7 7 1 23 -4 35 -11 21 -11 27 -10 45 7 41 37 67 45 86 28
10 -9 25 -16 34 -16 8 0 29 -11 45 -25 20 -17 32 -21 39 -14 8 8 13 7 18 0 6
-11 -4 -17 -38 -23 -31 -5 -23 -23 11 -26 46 -5 68 4 53 21 -8 10 -7 21 2 40
13 29 32 35 40 13 4 -10 20 -13 56 -11 28 2 54 -1 57 -6 3 -5 -7 -20 -22 -34
-32 -30 -20 -38 52 -33 l49 3 3 47 c4 57 22 76 57 60 14 -7 30 -23 35 -37 8
-21 13 -24 30 -15 11 5 28 14 38 19 18 9 48 -5 50 -22 1 -21 12 -16 27 12 20
40 55 41 85 4 34 -44 118 -61 156 -32 6 5 26 4 45 -2 19 -6 101 -11 183 -10
83 0 155 -3 160 -8 6 -4 29 -7 51 -7 36 1 40 4 45 31 7 38 34 44 66 14 21 -19
36 -23 92 -24 37 0 75 3 85 8 11 5 23 4 32 -3 10 -8 16 -7 24 7 9 17 11 17 39
1 31 -18 62 -22 125 -14 28 3 37 1 37 -10 0 -9 -7 -14 -17 -12 -11 2 -18 -3
-18 -12 0 -18 30 -19 188 -6 109 9 128 16 107 41 -15 18 -4 89 16 106 11 9 11
15 3 25 -8 9 -8 22 -1 41 6 19 6 34 -2 45 -8 14 -7 23 3 40 12 19 11 23 -4 34
-10 8 -16 23 -14 41 1 15 -8 50 -20 76 -21 46 -21 50 -5 61 24 18 7 23 -46 16z
m-8095 -470 c3 -5 1 -10 -4 -10 -6 0 -11 5 -11 10 0 6 2 10 4 10 3 0 8 -4 11
-10z"/>
<path d="M6006 4731 c-4 -5 -2 -12 3 -15 5 -4 12 -2 15 3 4 5 2 12 -3 15 -5 4
-12 2 -15 -3z"/>
<path d="M4656 4331 c-20 -22 -12 -31 30 -31 44 0 51 16 16 34 -27 14 -31 14
-46 -3z"/>
<path d="M4525 4331 c-7 -12 12 -24 25 -16 11 7 4 25 -10 25 -5 0 -11 -4 -15
-9z"/>
<path d="M4751 4327 c-13 -17 -5 -27 24 -27 12 0 25 3 28 7 9 8 -12 33 -28 33
-7 0 -18 -6 -24 -13z"/>
<path d="M7246 4331 c-4 -5 -2 -12 3 -15 5 -4 12 -2 15 3 4 5 2 12 -3 15 -5 4
-12 2 -15 -3z"/>
<path d="M9440 4326 c-10 -13 -9 -17 4 -22 22 -8 49 3 44 19 -7 18 -33 20 -48
3z"/>
<path d="M9916 4331 c-8 -12 2 -18 39 -22 22 -3 30 0 30 11 0 17 -60 27 -69
11z"/>
<path d="M3915 4321 c-7 -12 12 -24 25 -16 11 7 4 25 -10 25 -5 0 -11 -4 -15
-9z"/>
<path d="M6445 4321 c-7 -12 12 -24 25 -16 11 7 4 25 -10 25 -5 0 -11 -4 -15
-9z"/>
<path d="M6515 4321 c-7 -13 17 -24 40 -19 9 1 16 8 16 13 0 14 -48 19 -56 6z"/>
<path d="M7435 4320 c-8 -13 20 -24 41 -16 20 8 9 26 -16 26 -10 0 -22 -5 -25
-10z"/>
<path d="M7595 4320 c-8 -12 20 -24 39 -17 7 3 18 1 23 -4 6 -6 14 -4 23 6 7
8 11 15 9 16 -27 7 -89 6 -94 -1z"/>
<path d="M9209 4314 c-14 -17 12 -30 39 -19 9 4 25 8 34 9 10 1 19 6 20 11 5
16 -79 15 -93 -1z"/>
<path d="M7725 4310 c-8 -12 20 -24 35 -15 6 3 8 11 5 16 -8 12 -32 12 -40 -1z"/>
<path d="M7886 4311 c-4 -5 -2 -12 3 -15 5 -4 12 -2 15 3 4 5 2 12 -3 15 -5 4
-12 2 -15 -3z"/>
<path d="M10596 4312 c-3 -6 1 -15 8 -21 8 -7 17 -8 20 -3 3 6 -1 15 -8 21 -8
7 -17 8 -20 3z"/>
<path d="M3950 4274 c-372 -27 -767 -84 -807 -116 -10 -8 -13 -82 -13 -310 0
-253 2 -299 15 -304 8 -3 72 6 142 21 339 72 628 111 943 126 212 10 285 10
535 -5 160 -9 331 -21 380 -26 587 -55 812 -56 1320 -6 610 62 891 60 1555 -6
327 -32 832 -32 1145 0 596 62 904 66 1500 16 99 -8 191 -17 205 -19 14 -3
147 -14 295 -26 210 -16 312 -20 460 -15 202 7 468 29 575 49 l65 12 6 300 c3
165 3 303 0 307 -4 4 -36 3 -73 -2 -370 -53 -896 -74 -1203 -50 -66 5 -169 12
-230 15 -60 3 -159 10 -220 15 -204 18 -508 30 -790 30 -279 0 -419 -6 -800
-35 -445 -34 -660 -32 -1205 13 -262 21 -1143 24 -1350 4 -525 -49 -887 -50
-1485 -2 -125 10 -869 21 -965 14z"/>
<path d="M10398 3620 c-60 -60 -111 -68 -172 -26 -34 23 -41 24 -55 12 -9 -8
-25 -16 -36 -18 -11 -2 -19 -10 -17 -17 2 -8 -4 -10 -17 -6 -11 3 -29 0 -41
-7 -19 -12 -24 -10 -53 22 -39 44 -72 46 -95 8 -17 -30 -27 -34 -37 -17 -5 7
-15 5 -32 -6 -30 -20 -68 -13 -83 15 -9 17 -13 17 -37 5 -15 -8 -31 -11 -36
-8 -4 3 -18 -5 -29 -16 -14 -16 -25 -20 -41 -14 -12 4 -36 7 -53 8 -17 0 -37
5 -45 11 -32 26 -56 25 -77 -1 -22 -27 -37 -32 -45 -12 -3 9 -72 16 -72 7 0
-10 -64 -3 -77 8 -19 15 -38 9 -38 -14 0 -9 -11 -14 -34 -14 -19 0 -37 -4 -40
-9 -3 -5 -21 -6 -38 -2 -48 10 -95 6 -114 -10 -22 -18 -120 -13 -152 8 -22 14
-26 13 -47 -7 -15 -14 -32 -21 -45 -17 -11 3 -22 2 -25 -2 -8 -14 -95 -12 -93
1 2 7 -4 12 -13 10 -9 -1 -20 5 -23 14 -6 15 -8 15 -26 -1 -17 -15 -24 -16
-46 -6 -16 7 -31 8 -38 3 -23 -19 -68 -23 -85 -9 -21 18 -68 30 -75 18 -3 -5
-42 -8 -87 -8 -69 0 -84 -3 -95 -18 -8 -10 -14 -13 -14 -7 0 23 -50 34 -76 17
-15 -9 -25 -11 -29 -4 -4 5 -15 7 -26 4 -27 -9 -56 2 -62 24 -5 20 -73 36 -91
22 -12 -9 -87 -8 -102 2 -6 3 -37 8 -70 12 -48 5 -63 3 -74 -10 -16 -19 -34
-19 -50 0 -7 8 -24 15 -39 15 -15 0 -32 5 -37 10 -7 7 -19 2 -38 -15 -27 -25
-29 -25 -41 -8 -11 15 -17 16 -33 7 -23 -15 -73 -6 -89 15 -10 14 -13 14 -30
0 -22 -20 -97 -31 -111 -17 -6 6 -17 6 -31 -1 -17 -9 -22 -8 -31 9 -9 17 -17
20 -48 14 -20 -4 -48 -15 -60 -25 -22 -17 -26 -17 -48 -2 -19 12 -27 13 -39 3
-8 -7 -21 -10 -29 -7 -8 3 -29 2 -47 -3 -22 -7 -37 -6 -46 1 -9 8 -17 8 -25 2
-18 -14 -134 -9 -152 7 -12 9 -20 9 -29 2 -7 -6 -23 -9 -35 -5 -14 3 -24 0
-27 -9 -4 -10 -24 -14 -75 -13 -39 1 -73 4 -76 8 -8 8 -65 -3 -80 -15 -7 -4
-14 -22 -18 -38 -6 -30 -26 -42 -26 -16 0 8 -11 27 -24 43 -31 37 -94 40 -112
5 -10 -20 -13 -21 -24 -7 -16 19 -39 19 -46 0 -4 -8 -15 -15 -26 -15 -10 0
-17 4 -14 9 11 18 -30 38 -74 37 -37 -1 -44 -4 -42 -19 4 -22 -16 -22 -40 -1
-12 12 -21 14 -30 7 -9 -7 -37 -7 -87 0 -66 9 -75 8 -87 -7 -7 -10 -18 -15
-24 -11 -6 4 -20 -1 -30 -10 -14 -12 -24 -15 -32 -8 -7 5 -37 10 -66 10 -29 1
-59 7 -68 14 -19 16 -80 19 -107 6 -13 -6 -28 0 -57 23 -22 18 -38 36 -34 41
6 11 -37 29 -50 21 -5 -3 -1 -11 8 -18 16 -11 15 -14 -16 -30 -41 -22 -58 -23
-80 -5 -10 7 -25 11 -34 7 -17 -7 -74 13 -74 26 0 4 5 10 10 13 15 9 2 25 -20
25 -24 0 -35 -17 -22 -33 7 -8 3 -21 -13 -41 -21 -27 -26 -29 -47 -18 -13 7
-40 14 -62 17 -21 2 -44 10 -52 16 -9 8 -18 8 -26 2 -23 -18 -90 -23 -122 -9
-79 34 -94 38 -115 26 -12 -6 -29 -10 -39 -8 -9 1 -23 -1 -30 -5 -7 -5 -28 -3
-48 3 -19 7 -42 9 -51 6 -9 -4 -20 -1 -24 6 -4 6 -26 13 -48 14 -41 2 -61 -9
-40 -22 7 -4 -1 -12 -21 -20 -18 -8 -37 -11 -43 -7 -6 4 -29 6 -52 5 -22 -2
-56 2 -75 8 -29 8 -41 6 -83 -16 -45 -23 -51 -24 -66 -10 -10 9 -20 13 -24 10
-3 -4 -20 -2 -36 4 -25 9 -32 8 -40 -5 -5 -10 -16 -14 -30 -10 -17 4 -25 0
-33 -18 -12 -26 -57 -43 -68 -25 -4 6 -19 18 -35 26 -25 13 -30 12 -56 -7
l-30 -21 -20 26 c-16 20 -29 26 -57 25 -54 0 -182 -25 -193 -36 -6 -6 -12 -39
-15 -74 -2 -35 -6 -76 -10 -91 -3 -17 1 -41 10 -59 12 -23 13 -36 5 -45 -7 -9
-7 -19 2 -36 7 -13 12 -27 11 -32 -2 -5 0 -16 4 -25 4 -9 8 -25 8 -36 1 -18 7
-20 61 -17 69 4 194 30 212 44 7 6 14 5 18 -2 4 -7 12 -7 24 0 10 5 21 7 24 3
3 -3 14 12 24 33 9 22 24 47 32 57 19 23 44 23 37 -1 -9 -29 27 -56 61 -47 15
4 44 7 63 7 22 -1 43 7 58 21 22 20 24 20 55 5 44 -22 101 -22 134 -1 15 10
34 17 43 15 10 -1 23 4 30 13 18 22 35 18 48 -11 7 -14 16 -22 22 -19 5 3 18
1 29 -5 16 -8 22 -7 29 6 11 20 138 30 159 12 7 -6 29 -8 48 -5 19 3 37 1 41
-4 4 -6 11 -6 19 1 8 7 19 9 25 5 6 -4 19 -1 28 7 22 19 96 13 138 -10 12 -6
24 -9 27 -5 4 3 13 0 21 -6 15 -13 40 -6 32 8 -3 4 0 8 7 9 7 1 26 4 44 8 26
5 35 1 54 -20 18 -21 29 -25 50 -21 15 4 43 6 61 6 18 0 42 5 53 10 21 10 52
2 86 -23 13 -9 26 -7 60 9 36 17 55 19 107 14 35 -4 65 -4 68 0 2 5 21 7 42 5
20 -1 45 2 54 8 14 8 21 6 32 -9 10 -15 24 -19 51 -17 20 2 42 -2 50 -8 9 -8
29 -10 52 -6 50 9 181 9 214 1 17 -4 40 -1 63 10 30 14 41 15 65 5 21 -8 35
-9 48 -2 13 8 22 7 35 -5 11 -10 23 -13 35 -7 10 4 25 8 33 8 9 1 16 12 18 27
3 24 8 27 37 26 23 -1 35 -6 38 -18 6 -21 73 -34 110 -20 14 6 29 6 32 2 7
-12 107 -11 122 1 7 6 25 8 40 5 18 -3 34 1 46 11 14 12 22 14 35 5 11 -6 26
-7 41 -1 15 5 28 4 37 -3 8 -6 27 -9 44 -6 16 4 32 2 36 -4 4 -7 10 -6 19 1 8
7 19 9 24 6 5 -4 13 -2 16 4 5 8 11 7 21 -1 11 -9 18 -8 32 4 15 13 21 14 50
2 18 -8 39 -12 47 -8 9 3 21 0 29 -6 10 -8 16 -8 26 4 15 18 46 20 56 3 5 -8
10 -7 18 4 16 21 53 28 67 12 6 -8 16 -11 21 -8 5 4 54 8 108 10 78 4 100 1
110 -11 14 -16 95 -21 119 -6 8 5 34 3 65 -6 69 -20 89 -22 103 -11 15 12 110
12 126 0 17 -12 67 -8 98 7 18 9 32 10 45 3 11 -5 34 -7 52 -5 19 3 44 0 56
-7 16 -8 37 -9 73 -2 39 7 57 5 78 -5 14 -8 33 -12 41 -9 7 3 32 -1 55 -9 37
-14 44 -14 59 0 20 18 91 20 108 3 8 -8 15 -8 24 -1 21 16 71 22 92 11 16 -9
24 -6 41 14 21 25 22 25 34 6 11 -17 21 -19 94 -15 45 2 91 6 101 9 11 3 41 1
68 -4 37 -7 56 -5 82 7 19 9 43 16 53 15 31 -4 36 -1 24 14 -8 10 -9 16 -1 21
10 6 12 5 14 -17 1 -16 35 -23 48 -10 6 6 19 1 35 -14 29 -27 74 -31 92 -10 8
10 26 13 54 11 22 -2 47 1 54 7 10 8 19 6 37 -11 26 -25 43 -21 96 19 32 24
39 25 72 16 20 -6 40 -14 44 -18 4 -5 14 -8 23 -8 9 0 24 -14 34 -31 17 -31
29 -32 33 -5 6 40 17 54 46 60 22 4 37 1 49 -10 10 -9 23 -13 29 -9 6 4 22 0
35 -9 15 -10 26 -12 30 -6 4 6 11 8 16 4 5 -3 7 -10 3 -15 -3 -5 -9 -7 -14 -4
-4 3 -13 -2 -20 -9 -9 -12 -7 -17 10 -26 37 -20 64 -9 66 27 2 47 11 63 33 63
11 0 23 4 26 10 4 6 16 3 31 -6 13 -9 27 -14 31 -10 3 3 13 -4 21 -15 11 -16
21 -20 43 -15 15 3 31 1 35 -5 4 -7 15 -2 30 12 30 28 74 29 102 1 12 -12 29
-22 37 -22 8 0 15 -9 15 -20 0 -22 34 -44 55 -36 8 3 17 26 21 53 3 27 12 57
20 67 13 18 15 17 49 -13 37 -32 59 -39 70 -20 5 7 13 4 26 -7 15 -13 22 -14
33 -5 8 7 20 10 25 7 6 -4 15 3 21 15 10 17 18 20 43 15 17 -3 39 -13 48 -22
10 -9 23 -13 29 -9 6 3 19 -4 30 -17 17 -21 19 -21 25 -5 9 21 31 22 39 1 9
-23 28 -6 20 18 -4 15 -2 19 7 16 8 -3 14 -10 14 -15 0 -23 17 -27 31 -8 12
17 17 18 35 7 17 -11 24 -10 49 8 21 15 28 17 24 6 -9 -22 30 -56 58 -49 34 9
58 33 58 60 0 32 24 25 28 -8 7 -49 47 -65 122 -50 2 1 -1 6 -8 13 -12 12 -17
48 -7 48 9 0 41 -36 48 -54 4 -9 11 -15 16 -12 12 8 20 55 10 61 -4 3 -3 19 3
35 5 16 8 35 6 42 -3 7 2 18 10 24 22 16 22 51 0 71 -10 9 -18 24 -18 33 0 34
-56 65 -93 51 -12 -5 -32 -5 -44 0 -19 7 -25 4 -38 -21 -20 -38 -36 -47 -32
-18 1 12 -3 23 -10 23 -7 0 -17 5 -24 12 -6 6 -18 9 -25 6 -8 -3 -21 0 -29 7
-12 10 -18 10 -30 0 -8 -7 -12 -17 -8 -23 3 -5 1 -7 -5 -3 -6 3 -13 2 -17 -4
-4 -6 -11 -8 -16 -4 -6 4 -6 11 2 20 6 8 10 14 8 15 -10 3 -92 9 -169 13 l-85
4 -36 -41 c-32 -37 -38 -40 -53 -28 -9 8 -15 25 -14 39 3 21 -3 26 -40 37 -26
8 -44 9 -48 3 -3 -5 -19 -6 -36 -3 -37 9 -75 -20 -56 -42 15 -18 -13 -49 -36
-40 -14 6 -14 10 -4 27 11 18 10 23 -3 33 -9 7 -18 29 -22 50 -6 40 -22 67
-39 67 -5 0 -23 -14 -40 -30z m365 -301 c-6 -6 -17 -8 -24 -3 -9 5 -8 9 7 14
23 9 31 3 17 -11z m637 -9 c0 -5 -5 -10 -11 -10 -5 0 -7 5 -4 10 3 6 8 10 11
10 2 0 4 -4 4 -10z"/>
<path d="M3996 3631 c-4 -5 -2 -12 3 -15 5 -4 12 -2 15 3 4 5 2 12 -3 15 -5 4
-12 2 -15 -3z"/>
<path d="M3736 3611 c-4 -5 -2 -12 3 -15 5 -4 12 -2 15 3 4 5 2 12 -3 15 -5 4
-12 2 -15 -3z"/>
<path d="M12075 3613 c-44 -5 -85 -36 -85 -65 0 -15 -4 -17 -19 -9 -10 6 -31
8 -46 5 -15 -3 -33 0 -41 7 -11 9 -18 8 -30 -2 -9 -8 -24 -14 -32 -14 -21 0
-27 -24 -8 -31 21 -8 20 -27 -4 -55 -14 -18 -19 -20 -20 -8 0 8 5 20 12 27 12
12 9 14 -27 16 -11 1 -21 8 -21 16 -3 33 -5 34 -19 17 -7 -10 -29 -22 -48 -27
-28 -6 -34 -4 -33 9 2 27 -41 25 -69 -3 -14 -14 -32 -26 -40 -26 -20 0 -29
-20 -16 -33 13 -13 15 -31 2 -23 -20 13 -30 -20 -15 -49 13 -25 13 -30 -2 -46
-16 -17 -16 -19 0 -25 16 -6 31 1 31 14 0 4 8 17 17 30 10 16 18 20 23 12 4
-6 -1 -20 -10 -30 -16 -18 -16 -20 -2 -26 11 -4 16 -17 14 -42 -2 -31 2 -37
20 -40 13 -2 27 5 36 18 12 17 15 18 20 5 10 -23 48 -17 90 14 l38 29 24 -21
c16 -15 20 -26 14 -33 -10 -13 35 -49 50 -40 5 3 11 -4 14 -15 7 -26 31 -20
35 9 2 12 10 22 18 22 8 0 17 0 22 0 4 0 7 -10 7 -23 1 -21 4 -22 73 -20 67 2
121 17 108 30 -3 4 -1 12 5 20 6 7 9 26 6 42 -3 15 -1 33 4 38 15 15 20 161 6
184 -9 15 -9 23 1 39 10 17 9 25 -4 46 -10 14 -23 23 -30 20 -8 -3 -14 -1 -14
4 0 5 10 10 23 12 12 2 22 8 22 13 0 11 -40 14 -100 8z m-138 -105 c-3 -8 -6
-5 -6 6 -1 11 2 17 5 13 3 -3 4 -12 1 -19z m-342 -67 c7 -12 -12 -24 -25 -16
-11 7 -4 25 10 25 5 0 11 -4 15 -9z m185 -25 c0 -3 -4 -8 -10 -11 -5 -3 -10
-1 -10 4 0 6 5 11 10 11 6 0 10 -2 10 -4z m0 -71 c0 -8 -4 -17 -10 -20 -5 -3
-10 -2 -10 4 0 5 -3 17 -6 25 -5 12 -2 15 10 10 9 -3 16 -12 16 -19z"/>
<path d="M11765 3241 c-6 -11 29 -33 39 -24 7 7 -12 33 -25 33 -4 0 -10 -4
-14 -9z"/>
<path d="M9465 3191 c-6 -11 29 -33 39 -24 7 7 -12 33 -25 33 -4 0 -10 -4 -14
-9z"/>
<path d="M12170 3139 c-388 -41 -873 -47 -1530 -18 -343 14 -1127 15 -1390 1
-696 -38 -830 -38 -1600 -2 -113 6 -365 10 -560 11 -327 0 -502 -5 -1055 -31
-279 -13 -541 -12 -890 5 -508 25 -1070 30 -1370 11 -432 -26 -575 -39 -590
-50 -13 -10 -11 -22 15 -91 77 -205 194 -286 490 -339 218 -39 317 -41 1760
-38 767 2 1429 6 1470 9 41 3 1097 6 2345 8 2335 2 2364 2 2550 41 211 44 335
123 396 254 40 84 67 231 44 235 -5 1 -44 -1 -85 -6z"/>
</g>
</svg>
