<svg xmlns="http://www.w3.org/2000/svg" viewBox="0 0 670.000000 370.065821" fill="currentColor" aria-hidden="true">
<g transform="translate(0.000000,370.000000) scale(0.100000,-0.100000)" fill="currentColor" stroke="none">
<path d="M0 1850 l0 -1850 571 0 571 0 80 56 c43 30 161 116 261 191 100 74
241 174 312 220 72 47 170 112 218 145 152 103 179 105 305 29 38 -23 77 -41
88 -41 38 0 192 104 309 208 33 29 96 75 140 102 44 27 103 68 130 91 28 23
70 51 94 61 73 33 88 27 267 -127 l46 -39 48 17 c104 37 150 16 312 -140 128
-123 197 -182 236 -203 22 -11 32 -6 107 43 127 85 186 92 278 31 56 -37 257
-194 565 -441 l253 -203 754 0 755 0 0 1850 0 1850 -3350 0 -3350 0 0 -1850z
m2705 1008 c17 -22 40 -55 52 -72 13 -17 30 -61 39 -97 13 -54 14 -76 5 -120
-22 -107 -97 -197 -133 -161 -16 16 -11 73 12 131 28 72 27 144 -5 256 -14 49
-25 93 -25 97 0 21 28 3 55 -34z m406 -70 c98 -71 180 -170 240 -293 66 -136
84 -227 76 -400 l-6 -130 34 37 c35 38 65 118 65 174 0 36 22 64 49 64 56 0
191 -236 226 -394 23 -103 17 -245 -15 -336 -59 -173 -229 -331 -375 -348 -60
-6 -65 11 -24 77 51 84 87 230 62 254 -3 4 -25 -11 -48 -32 -72 -67 -149 -67
-215 -1 -70 70 -120 194 -120 298 0 28 -3 52 -7 52 -12 -1 -101 -142 -130
-206 -62 -136 -46 -272 46 -388 28 -35 30 -41 17 -54 -39 -39 -235 46 -332
143 -103 102 -164 260 -149 385 18 143 68 236 241 450 64 80 137 175 161 212
85 132 117 262 93 388 -22 118 0 127 111 48z m1017 -302 c6 -29 -64 -160 -113
-210 -70 -73 -111 -55 -80 35 38 108 117 202 164 197 16 -2 27 -10 29 -22z
m30 -478 c19 -19 14 -39 -15 -70 -29 -31 -67 -37 -77 -12 -8 20 7 47 40 73 31
24 36 25 52 9z m-2018 -113 c69 -36 176 -215 128 -215 -19 0 -101 56 -140 97
-50 51 -70 91 -57 115 12 22 31 23 69 3z m112 -465 c71 -69 63 -111 -19 -88
-45 12 -123 86 -123 116 0 56 68 43 142 -28z"/>
<path d="M3100 2616 c0 -156 -62 -277 -284 -556 -68 -86 -133 -179 -158 -229
-42 -82 -43 -85 -43 -185 0 -93 3 -106 31 -166 39 -81 88 -137 158 -184 30
-20 57 -36 60 -36 3 0 -4 20 -14 43 -29 65 -35 168 -16 252 18 77 51 141 131
255 29 42 62 95 74 118 26 52 54 56 77 10 10 -18 22 -84 29 -155 10 -91 20
-137 40 -180 30 -66 80 -123 108 -123 33 0 75 39 101 95 33 69 44 75 72 41 39
-44 57 -127 51 -225 l-5 -86 63 66 c156 166 178 374 63 608 l-41 83 -27 -58
c-40 -89 -147 -174 -218 -174 -57 0 -62 24 -36 191 32 212 -5 383 -120 543
-24 33 -56 72 -70 85 l-26 24 0 -57z"/>
<path d="M3058 921 c-35 -33 -100 -81 -144 -108 -44 -27 -125 -85 -179 -129
-170 -134 -252 -182 -316 -184 -38 0 -86 18 -161 62 -40 24 -72 37 -80 32 -29
-17 -370 -241 -463 -305 -55 -37 -171 -117 -258 -176 l-159 -108 117 -3 118
-3 66 64 c85 81 163 138 265 193 81 44 119 53 131 33 4 -6 -4 -22 -16 -36 -23
-25 -252 -190 -320 -232 l-34 -21 565 0 c323 0 559 4 550 9 -8 5 -55 23 -103
40 -135 47 -171 71 -182 122 -10 44 16 80 122 170 54 46 126 110 161 143 47
45 65 57 74 48 24 -24 -23 -94 -144 -215 -65 -65 -116 -122 -113 -127 11 -17
61 -39 198 -86 72 -26 157 -59 187 -75 l55 -29 997 2 997 3 -187 156 c-220
183 -459 372 -507 400 -43 26 -61 21 -146 -42 -155 -114 -171 -108 -502 204
-124 116 -125 116 -216 95 -67 -15 -93 -3 -194 91 -42 39 -86 71 -97 71 -10 0
-48 -27 -82 -59z"/>
</g>
</svg>
