<svg xmlns="http://www.w3.org/2000/svg" viewBox="0 0 964.000000 758.000000" fill="currentColor" aria-hidden="true">
<g transform="translate(0.000000,758.000000) scale(0.100000,-0.100000)" fill="currentColor" stroke="none">
<path d="M0 3790 l0 -3790 4820 0 4820 0 0 3790 0 3790 -4820 0 -4820 0 0
-3790z m6040 2970 c0 -5 14 -10 30 -10 17 0 30 -4 30 -10 0 -5 7 -10 16 -10 9
0 29 -13 44 -30 15 -16 33 -30 40 -30 7 0 25 -13 40 -30 15 -16 34 -30 42 -30
7 0 20 -9 28 -20 8 -12 26 -20 42 -20 15 0 28 -4 28 -10 0 -6 30 -10 70 -10
40 0 70 4 70 10 0 6 14 10 30 10 17 0 30 5 30 10 0 6 9 10 20 10 11 0 20 5 20
10 0 6 9 10 20 10 11 0 20 5 20 10 0 6 9 10 20 10 11 0 20 5 20 10 0 6 9 10
20 10 11 0 20 5 20 10 0 6 9 10 20 10 11 0 20 5 20 10 0 15 70 12 86 -4 27
-27 15 -55 -51 -121 -35 -36 -70 -65 -78 -65 -7 0 -19 -9 -27 -20 -8 -11 -22
-20 -32 -20 -10 0 -18 -4 -18 -10 0 -5 -9 -10 -20 -10 -11 0 -20 -4 -20 -10 0
-5 -13 -10 -30 -10 -16 0 -30 -4 -30 -10 0 -6 -43 -10 -110 -10 -67 0 -110 4
-110 10 0 6 -13 10 -30 10 -16 0 -30 5 -30 10 0 6 -9 10 -20 10 -11 0 -20 5
-20 10 0 6 -8 10 -18 10 -10 0 -24 9 -32 20 -8 11 -21 20 -28 20 -7 0 -31 18
-52 40 -21 22 -46 40 -54 40 -9 0 -16 5 -16 10 0 6 -30 10 -70 10 -40 0 -70
-4 -70 -10 0 -5 -9 -10 -20 -10 -11 0 -20 -4 -20 -10 0 -5 -9 -10 -20 -10 -11
0 -20 -4 -20 -10 0 -5 -8 -10 -18 -10 -10 0 -24 -9 -32 -20 -8 -11 -21 -20
-30 -20 -9 0 -22 -9 -30 -20 -8 -11 -21 -20 -30 -20 -9 0 -22 -9 -30 -20 -8
-12 -26 -20 -42 -20 -15 0 -28 -4 -28 -10 0 -15 -29 -12 -46 4 -16 17 -19 46
-4 46 6 0 10 7 10 16 0 8 18 33 40 54 22 21 40 46 40 54 0 9 7 16 16 16 8 0
37 23 64 50 27 28 56 50 64 50 9 0 16 5 16 10 0 6 9 10 20 10 11 0 20 5 20 10
0 6 9 10 20 10 11 0 20 5 20 10 0 6 18 10 40 10 22 0 40 5 40 10 0 6 23 10 50
10 28 0 50 -4 50 -10z m-2520 -400 c0 -5 7 -10 16 -10 8 0 22 -6 30 -14 8 -8
14 -22 14 -30 0 -9 5 -16 10 -16 6 0 10 -9 10 -20 0 -11 5 -20 10 -20 6 0 10
-7 10 -15 0 -20 105 -125 125 -125 8 0 15 -4 15 -10 0 -5 14 -10 30 -10 17 0
30 -4 30 -10 0 -5 14 -10 30 -10 17 0 30 -4 30 -10 0 -5 18 -10 40 -10 22 0
40 -4 40 -10 0 -5 23 -10 50 -10 28 0 50 -4 50 -10 0 -5 7 -10 16 -10 22 0 44
-25 44 -50 0 -25 -22 -50 -44 -50 -9 0 -16 -4 -16 -10 0 -6 -50 -10 -130 -10
-80 0 -130 4 -130 10 0 6 -13 10 -30 10 -16 0 -30 5 -30 10 0 6 -9 10 -20 10
-11 0 -20 5 -20 10 0 6 -9 10 -20 10 -11 0 -20 5 -20 10 0 6 -7 10 -15 10 -17
0 -145 124 -145 140 0 14 -46 60 -60 60 -6 0 -73 -63 -150 -140 -77 -77 -145
-140 -153 -140 -7 0 -19 -9 -27 -20 -8 -12 -26 -20 -42 -20 -15 0 -28 -4 -28
-10 0 -5 -13 -10 -30 -10 -16 0 -30 -4 -30 -10 0 -6 -33 -10 -80 -10 -47 0
-80 4 -80 10 0 6 -18 10 -40 10 -22 0 -40 5 -40 10 0 6 -9 10 -20 10 -11 0
-20 5 -20 10 0 6 -7 10 -15 10 -20 0 -125 105 -125 125 0 8 -4 15 -10 15 -5 0
-10 9 -10 20 0 34 -29 23 -80 -30 -27 -27 -54 -50 -60 -50 -7 0 -25 -13 -40
-30 -15 -16 -35 -30 -44 -30 -9 0 -16 -4 -16 -10 0 -5 -9 -10 -20 -10 -11 0
-20 -4 -20 -10 0 -5 -9 -10 -20 -10 -11 0 -20 -4 -20 -10 0 -5 -9 -10 -20 -10
-11 0 -20 -4 -20 -10 0 -5 -13 -10 -30 -10 -16 0 -30 -4 -30 -10 0 -6 -45 -10
-115 -10 -110 0 -117 1 -140 25 -30 29 -32 55 -5 55 11 0 20 5 20 10 0 6 23
10 50 10 28 0 50 5 50 10 0 6 18 10 40 10 22 0 40 5 40 10 0 6 9 10 20 10 11
0 20 5 20 10 0 6 14 10 30 10 17 0 30 5 30 10 0 6 8 10 18 10 10 0 24 9 32 20
8 11 22 20 32 20 10 0 18 5 18 10 0 6 7 10 15 10 9 0 60 45 115 100 55 55 106
100 115 100 8 0 15 5 15 10 0 6 9 10 19 10 11 0 22 6 25 13 5 10 7 10 12 0 3
-7 12 -13 20 -13 24 0 64 -47 64 -75 0 -14 5 -25 10 -25 6 0 10 -9 10 -20 0
-11 5 -20 10 -20 6 0 10 -7 10 -15 0 -9 20 -36 45 -60 36 -36 51 -45 80 -45
19 0 35 -4 35 -10 0 -5 14 -10 30 -10 17 0 30 5 30 10 0 6 18 10 40 10 22 0
40 5 40 10 0 6 7 10 16 10 9 0 29 14 44 30 15 17 33 30 39 30 14 0 121 106
121 120 0 15 87 100 103 100 7 0 19 9 27 20 8 11 22 20 32 20 10 0 18 5 18 10
0 6 9 10 20 10 11 0 20 5 20 10 0 6 18 10 40 10 22 0 40 -4 40 -10z m1740
-280 c0 -5 14 -10 30 -10 17 0 30 -4 30 -10 0 -5 7 -10 15 -10 18 0 65 -44 65
-60 0 -27 30 -40 90 -40 58 0 62 -2 105 -45 25 -24 45 -49 45 -55 0 -17 26
-40 44 -40 9 0 16 5 16 10 0 6 26 10 58 10 46 0 60 -4 72 -20 8 -11 22 -20 32
-20 11 0 18 -7 18 -18 0 -10 9 -24 20 -32 17 -12 20 -26 20 -82 0 -39 -4 -68
-10 -68 -5 0 -10 -9 -10 -20 0 -11 -4 -20 -10 -20 -5 0 -10 -9 -10 -20 0 -18
7 -20 55 -20 52 0 58 -3 100 -45 25 -24 45 -49 45 -55 0 -14 -66 -80 -80 -80
-6 0 -18 -7 -26 -15 -14 -13 -14 -17 0 -30 8 -8 24 -15 35 -15 29 0 231 -202
231 -231 0 -11 -19 -39 -42 -61 -26 -25 -38 -43 -30 -45 6 -3 12 -12 12 -22 0
-9 9 -23 20 -31 11 -8 20 -22 20 -32 0 -10 5 -18 10 -18 6 0 10 -9 10 -20 0
-11 5 -20 10 -20 6 0 10 -13 10 -30 0 -16 5 -30 10 -30 6 0 10 -18 10 -40 0
-22 5 -40 10 -40 6 0 10 -25 10 -56 0 -49 4 -59 30 -84 17 -15 30 -34 30 -42
0 -7 9 -20 20 -28 12 -8 20 -26 20 -42 0 -15 5 -28 10 -28 6 0 10 -40 10 -100
0 -60 -4 -100 -10 -100 -5 0 -10 -9 -10 -20 0 -11 -4 -20 -10 -20 -5 0 -10 -9
-10 -20 0 -11 -4 -20 -10 -20 -5 0 -10 -8 -10 -18 0 -10 -9 -24 -20 -32 -11
-8 -20 -20 -20 -28 0 -7 -31 -44 -70 -82 -39 -38 -70 -74 -70 -81 0 -6 -13
-24 -30 -39 -16 -15 -30 -35 -30 -44 0 -9 -4 -16 -10 -16 -5 0 -10 -18 -10
-39 0 -22 -6 -42 -12 -45 -10 -5 -10 -7 0 -12 6 -3 12 -23 12 -45 0 -21 5 -39
10 -39 6 0 10 -8 10 -18 0 -10 9 -24 20 -32 11 -8 20 -21 20 -30 0 -9 9 -22
20 -30 11 -8 20 -21 20 -30 0 -9 9 -22 20 -30 11 -8 20 -21 20 -30 0 -9 9 -22
20 -30 17 -12 20 -26 20 -82 0 -39 -4 -68 -10 -68 -5 0 -10 -13 -10 -30 0 -16
-4 -30 -10 -30 -5 0 -10 -18 -10 -40 0 -22 -4 -40 -10 -40 -5 0 -10 -22 -10
-50 0 -27 -4 -50 -10 -50 -6 0 -10 -47 -10 -120 0 -73 -4 -120 -10 -120 -6 0
-10 -43 -10 -110 0 -67 -4 -110 -10 -110 -6 0 -10 -30 -10 -70 0 -40 -4 -70
-10 -70 -6 0 -10 -37 -10 -90 0 -53 -4 -90 -10 -90 -6 0 -10 -63 -10 -170 0
-107 -4 -170 -10 -170 -5 0 -10 -13 -10 -30 0 -16 -4 -30 -10 -30 -5 0 -10
-18 -10 -40 0 -22 -4 -40 -10 -40 -5 0 -10 -13 -10 -30 0 -16 5 -30 10 -30 6
0 10 -18 10 -39 0 -23 5 -41 13 -44 7 -2 -5 -20 -30 -45 -29 -27 -43 -49 -43
-66 0 -14 -4 -26 -10 -26 -6 0 -10 -37 -10 -90 0 -53 -4 -90 -10 -90 -5 0 -10
-20 -10 -45 0 -42 -5 -50 -55 -100 -30 -30 -61 -55 -70 -55 -8 0 -15 -4 -15
-10 0 -22 -53 -9 -80 20 -25 26 -35 30 -84 30 -31 0 -56 5 -56 10 0 6 -11 10
-25 10 -19 0 -47 22 -105 80 -44 44 -86 80 -95 80 -8 0 -15 5 -15 10 0 6 -26
10 -58 10 -46 0 -60 -4 -72 -20 -8 -11 -22 -20 -32 -20 -10 0 -18 -4 -18 -10
0 -18 -55 -11 -70 10 -8 11 -25 20 -38 20 -26 0 -72 -41 -72 -65 0 -8 -4 -15
-10 -15 -5 0 -10 -22 -10 -50 0 -27 5 -50 10 -50 6 0 10 -40 10 -100 0 -60 -4
-100 -10 -100 -5 0 -10 -9 -10 -20 0 -11 -4 -20 -10 -20 -5 0 -10 -7 -10 -16
0 -9 -13 -29 -30 -44 -16 -15 -30 -33 -30 -39 0 -15 -46 -61 -60 -61 -6 0 -38
-27 -70 -60 -32 -33 -65 -60 -72 -60 -8 0 -20 -9 -28 -20 -8 -12 -26 -20 -42
-20 -15 0 -28 -4 -28 -10 0 -6 -27 -10 -60 -10 -33 0 -60 4 -60 10 0 6 -9 10
-20 10 -11 0 -20 5 -20 10 0 6 -7 10 -16 10 -9 0 -29 14 -45 31 l-29 32 -19
-22 c-10 -11 -24 -21 -31 -21 -6 0 -25 -13 -40 -30 -17 -18 -38 -30 -54 -30
-14 0 -26 -4 -26 -10 0 -5 -9 -10 -20 -10 -11 0 -20 5 -20 10 0 6 -7 10 -16
10 -20 0 -44 24 -44 44 0 9 -4 16 -10 16 -5 0 -10 18 -10 40 0 22 -4 40 -10
40 -5 0 -10 9 -10 20 0 11 -4 20 -10 20 -5 0 -10 9 -10 20 0 11 -4 20 -10 20
-5 0 -10 9 -10 20 0 11 -4 20 -10 20 -5 0 -10 9 -10 20 0 11 -4 20 -10 20 -5
0 -10 8 -10 18 0 10 -9 24 -20 32 -11 8 -20 22 -20 32 0 22 -7 23 -26 4 -8 -8
-14 -31 -14 -50 0 -20 -4 -36 -10 -36 -5 0 -10 -7 -10 -15 0 -9 -20 -36 -45
-60 -33 -34 -52 -45 -75 -45 -32 0 -80 37 -80 62 0 8 -9 20 -20 28 -12 8 -20
26 -20 42 0 15 -4 28 -10 28 -5 0 -10 9 -10 20 0 11 -4 20 -10 20 -5 0 -10 9
-10 20 0 11 -4 20 -10 20 -5 0 -10 14 -10 30 0 17 -4 30 -10 30 -5 0 -10 14
-10 30 0 17 5 30 10 30 6 0 10 7 10 15 0 20 45 65 65 65 8 0 15 5 15 10 0 6 9
10 20 10 16 0 20 7 20 30 0 17 -4 30 -10 30 -5 0 -10 8 -10 18 0 10 -9 24 -20
32 -11 8 -20 22 -20 32 0 10 -4 18 -10 18 -5 0 -10 9 -10 20 0 11 -4 20 -10
20 -5 0 -10 18 -10 40 0 22 5 40 10 40 6 0 10 8 10 18 0 10 9 24 20 32 11 8
20 22 20 32 0 10 5 18 10 18 6 0 10 14 10 30 0 17 -4 30 -10 30 -5 0 -10 9
-10 20 0 11 -4 20 -10 20 -5 0 -10 9 -10 20 0 11 -4 20 -10 20 -6 0 -10 47
-10 120 0 73 4 120 10 120 6 0 10 14 10 30 0 17 5 30 10 30 6 0 10 14 10 30 0
17 5 30 10 30 6 0 10 9 10 20 0 11 5 20 10 20 6 0 10 9 10 20 0 11 5 20 10 20
6 0 10 9 10 20 0 11 5 20 10 20 6 0 10 87 10 240 0 153 4 240 10 240 6 0 10 9
10 20 0 13 7 20 20 20 11 0 20 5 20 10 0 23 53 9 81 -21 26 -27 30 -29 44 -16
8 9 15 27 15 41 0 14 5 26 10 26 6 0 10 23 10 50 0 28 -4 50 -10 50 -5 0 -10
14 -10 30 0 26 -4 30 -28 30 -16 0 -34 -8 -42 -20 -8 -11 -22 -20 -32 -20 -10
0 -18 -4 -18 -10 0 -5 -13 -10 -30 -10 -16 0 -30 5 -30 10 0 6 -7 10 -15 10
-20 0 -65 45 -65 65 0 8 -4 15 -10 15 -6 0 -10 30 -10 70 0 40 -4 70 -10 70
-6 0 -10 40 -10 100 0 60 4 100 10 100 6 0 10 9 10 20 0 11 5 20 10 20 6 0 10
7 10 15 0 20 45 65 65 65 12 0 15 15 15 80 0 47 -4 80 -10 80 -6 0 -10 27 -10
60 0 33 4 60 10 60 6 0 10 23 10 50 0 28 -4 50 -10 50 -5 0 -10 14 -10 30 0
20 -5 30 -15 30 -9 0 -40 25 -70 55 -53 53 -55 56 -55 110 0 30 5 55 10 55 6
0 10 18 10 40 0 22 -4 40 -10 40 -5 0 -10 9 -10 20 0 11 -4 20 -10 20 -5 0
-10 9 -10 20 0 11 -4 20 -10 20 -5 0 -10 9 -10 20 0 11 -4 20 -10 20 -5 0 -10
9 -10 20 0 11 -4 20 -10 20 -5 0 -10 7 -10 15 0 9 -11 27 -25 40 -24 25 -55
33 -55 15 0 -5 -13 -10 -30 -10 -16 0 -30 -4 -30 -10 0 -5 -22 -10 -50 -10
-27 0 -50 5 -50 10 0 6 -7 10 -15 10 -9 0 -27 11 -40 25 -14 13 -25 31 -25 40
0 8 -4 15 -10 15 -6 0 -10 33 -10 80 0 47 4 80 10 80 6 0 10 14 10 30 0 17 5
30 10 30 18 0 11 55 -10 70 -11 8 -20 22 -20 32 0 10 -4 18 -10 18 -6 0 -10
27 -10 60 0 33 4 60 10 60 6 0 10 14 10 30 0 17 5 30 10 30 6 0 10 9 10 20 0
11 5 20 10 20 6 0 10 9 10 20 0 11 5 20 10 20 6 0 10 14 10 30 0 17 5 30 10
30 6 0 10 14 10 30 0 17 5 30 10 30 6 0 10 14 10 30 0 17 -4 30 -10 30 -5 0
-10 14 -10 30 0 17 -4 30 -10 30 -5 0 -10 18 -10 40 0 22 5 40 10 40 6 0 10
12 10 26 0 17 16 41 50 74 28 27 50 54 50 60 0 17 26 40 44 40 9 0 16 5 16 10
0 6 14 10 30 10 17 0 30 -4 30 -10 0 -5 7 -10 15 -10 27 0 65 -47 65 -80 0
-41 -20 -60 -64 -60 -20 0 -36 -4 -36 -10 0 -5 5 -10 10 -10 6 0 10 -9 10 -20
0 -11 5 -20 10 -20 6 0 10 -9 10 -20 0 -11 5 -20 10 -20 6 0 10 -11 10 -25 0
-29 40 -75 65 -75 8 0 15 -4 15 -10 0 -5 14 -10 30 -10 17 0 30 -4 30 -10 0
-5 18 -10 40 -10 22 0 40 -4 40 -10 0 -6 30 -10 70 -10 40 0 70 -4 70 -10 0
-5 14 -10 30 -10 17 0 30 5 30 10 0 6 13 10 28 10 16 0 34 8 42 20 8 11 21 20
28 20 8 0 27 14 42 30 15 17 33 30 40 30 7 0 25 14 40 30 15 17 35 30 44 30 9
0 16 5 16 10 0 6 14 10 30 10 17 0 30 5 30 10 0 6 11 10 25 10 20 0 73 48 235
210 115 116 215 210 221 210 6 0 24 14 39 30 25 27 34 30 89 30 52 0 66 4 86
25 22 21 25 33 25 90 0 37 4 65 10 65 6 0 10 7 10 15 0 20 45 65 65 65 8 0 15
5 15 10 0 6 9 10 20 10 11 0 20 5 20 10 0 6 27 10 60 10 33 0 60 -4 60 -10z
m2040 -560 c0 -5 7 -10 15 -10 25 0 65 -46 65 -75 0 -14 5 -25 10 -25 6 0 10
-9 10 -20 0 -11 5 -20 10 -20 6 0 10 -7 10 -16 0 -9 14 -29 30 -44 17 -15 30
-33 30 -40 0 -16 26 -40 44 -40 9 0 16 -4 16 -10 0 -5 9 -10 20 -10 11 0 20
-4 20 -10 0 -5 14 -10 30 -10 17 0 30 -4 30 -10 0 -5 18 -10 40 -10 22 0 40 5
40 10 0 6 9 10 20 10 11 0 20 5 20 10 0 6 7 10 15 10 18 0 85 64 85 81 0 6 14
24 30 39 17 15 30 35 30 44 0 9 5 16 10 16 6 0 10 7 10 16 0 20 24 44 44 44 9
0 16 5 16 10 0 6 9 10 20 10 11 0 20 -4 20 -10 0 -5 7 -10 16 -10 20 0 44 -24
44 -44 0 -9 5 -16 10 -16 6 0 10 -7 10 -15 0 -20 105 -125 125 -125 8 0 15 -4
15 -10 0 -5 9 -10 20 -10 11 0 20 -4 20 -10 0 -5 14 -10 30 -10 17 0 30 -4 30
-10 0 -5 14 -10 30 -10 17 0 30 -4 30 -10 0 -5 11 -10 25 -10 29 0 88 -51 67
-58 -7 -2 -12 -12 -12 -23 0 -14 -7 -19 -30 -19 -16 0 -30 -4 -30 -10 0 -6
-33 -10 -80 -10 -47 0 -80 4 -80 10 0 6 -18 10 -40 10 -22 0 -40 5 -40 10 0 6
-8 10 -18 10 -10 0 -24 9 -32 20 -8 11 -21 20 -28 20 -7 0 -31 18 -52 40 -21
22 -43 40 -50 40 -14 0 -60 -46 -60 -60 0 -15 -46 -60 -62 -60 -8 0 -20 -9
-28 -20 -8 -11 -22 -20 -32 -20 -10 0 -18 -4 -18 -10 0 -5 -9 -10 -20 -10 -11
0 -20 -4 -20 -10 0 -6 -40 -10 -100 -10 -60 0 -100 4 -100 10 0 6 -13 10 -30
10 -16 0 -30 5 -30 10 0 6 -9 10 -20 10 -11 0 -20 5 -20 10 0 6 -7 10 -15 10
-8 0 -49 34 -90 75 -41 41 -75 82 -75 90 0 8 -4 15 -10 15 -5 0 -10 9 -10 20
0 11 -4 20 -10 20 -5 0 -10 9 -10 20 0 12 -7 20 -16 20 -18 0 -44 -23 -44 -40
0 -14 -46 -60 -61 -60 -6 0 -24 -13 -39 -30 -15 -16 -34 -30 -42 -30 -7 0 -20
-9 -28 -20 -8 -11 -22 -20 -32 -20 -10 0 -18 -4 -18 -10 0 -5 -13 -10 -30 -10
-16 0 -30 -4 -30 -10 0 -5 -13 -10 -30 -10 -16 0 -30 -4 -30 -10 0 -5 -25 -10
-56 -10 -60 0 -84 14 -84 50 0 29 44 70 75 70 14 0 25 5 25 10 0 6 14 10 30
10 17 0 30 5 30 10 0 6 8 10 18 10 10 0 24 9 32 20 8 11 20 20 28 20 7 0 62
50 122 110 60 61 116 110 125 110 8 0 15 5 15 10 0 6 9 10 20 10 11 0 20 5 20
10 0 6 9 10 20 10 11 0 20 -4 20 -10z m-5100 -540 c0 -5 14 -10 30 -10 17 0
30 -4 30 -10 0 -5 8 -10 18 -10 10 0 24 -9 32 -20 8 -11 21 -20 28 -20 8 0 27
-13 42 -30 15 -16 35 -30 44 -30 9 0 16 -4 16 -10 0 -5 9 -10 20 -10 11 0 20
-4 20 -10 0 -5 18 -10 40 -10 22 0 40 -4 40 -10 0 -5 20 -10 45 -10 35 0 52
-6 70 -25 25 -24 33 -55 15 -55 -5 0 -10 -9 -10 -20 0 -16 -7 -20 -30 -20 -16
0 -30 -4 -30 -10 0 -6 -33 -10 -80 -10 -47 0 -80 4 -80 10 0 6 -18 10 -40 10
-22 0 -40 5 -40 10 0 6 -9 10 -20 10 -11 0 -20 5 -20 10 0 6 -8 10 -18 10 -10
0 -24 9 -32 20 -8 11 -21 20 -30 20 -9 0 -22 9 -30 20 -8 11 -22 20 -32 20
-10 0 -18 5 -18 10 0 6 -9 10 -20 10 -11 0 -20 -4 -20 -10 0 -5 -7 -10 -16
-10 -9 0 -29 -13 -44 -30 -15 -16 -34 -30 -42 -30 -7 0 -20 -9 -28 -20 -8 -11
-22 -20 -32 -20 -10 0 -18 -4 -18 -10 0 -5 -13 -10 -30 -10 -16 0 -30 -4 -30
-10 0 -5 -18 -10 -40 -10 -22 0 -40 -4 -40 -10 0 -5 -22 -10 -50 -10 -27 0
-50 5 -50 10 0 6 -18 10 -40 10 -22 0 -40 5 -40 10 0 6 -9 10 -20 10 -11 0
-20 5 -20 10 0 6 -9 10 -20 10 -11 0 -20 5 -20 10 0 6 -8 10 -18 10 -10 0 -24
9 -32 20 -8 11 -22 20 -32 20 -11 0 -18 7 -18 19 0 11 -5 21 -12 23 -8 3 -3
14 14 31 19 19 37 27 63 27 19 0 35 -4 35 -10 0 -5 18 -10 40 -10 22 0 40 -4
40 -10 0 -5 14 -10 30 -10 17 0 30 -4 30 -10 0 -6 27 -10 60 -10 33 0 60 4 60
10 0 6 9 10 20 10 11 0 20 5 20 10 0 6 9 10 20 10 11 0 20 5 20 10 0 6 7 10
16 10 9 0 29 14 44 30 15 17 34 30 42 30 7 0 20 9 28 20 8 11 22 20 32 20 10
0 18 5 18 10 0 6 18 10 40 10 22 0 40 5 40 10 0 6 9 10 20 10 11 0 20 -4 20
-10z m5780 -720 c0 -5 9 -10 20 -10 11 0 20 -4 20 -10 0 -5 9 -10 20 -10 13 0
20 -7 20 -20 0 -11 5 -20 10 -20 15 0 12 -49 -4 -66 -8 -8 -21 -14 -28 -14 -8
0 -20 -9 -28 -20 -8 -11 -20 -20 -28 -20 -18 0 -62 -46 -62 -65 0 -8 -4 -15
-10 -15 -5 0 -10 -22 -10 -50 0 -27 5 -50 10 -50 6 0 10 -11 10 -25 0 -29 40
-75 65 -75 8 0 15 -4 15 -10 0 -6 30 -10 70 -10 40 0 70 4 70 10 0 6 7 10 15
10 19 0 125 104 125 123 0 7 9 19 20 27 11 8 20 20 20 27 0 19 166 183 185
183 8 0 15 5 15 10 0 6 9 10 20 10 11 0 20 5 20 10 0 6 9 10 20 10 11 0 20 5
20 10 0 6 39 10 96 10 98 0 124 -9 124 -43 0 -9 6 -18 13 -21 10 -5 10 -7 0
-12 -7 -3 -13 -14 -13 -25 0 -10 -4 -19 -10 -19 -5 0 -10 -9 -10 -20 0 -11 -4
-20 -10 -20 -5 0 -10 -9 -10 -20 0 -11 -4 -20 -10 -20 -5 0 -10 -13 -10 -30 0
-16 5 -30 10 -30 6 0 10 -11 10 -25 0 -27 40 -75 62 -75 8 0 20 -9 28 -20 8
-12 26 -20 42 -20 15 0 28 -4 28 -10 0 -5 14 -10 30 -10 17 0 30 -4 30 -10 0
-6 30 -10 70 -10 40 0 70 -4 70 -10 0 -5 21 -10 46 -10 26 0 51 -6 60 -14 37
-38 -8 -106 -71 -106 -19 0 -35 -4 -35 -10 0 -6 -33 -10 -80 -10 -47 0 -80 4
-80 10 0 6 -22 10 -50 10 -27 0 -50 5 -50 10 0 6 -9 10 -20 10 -11 0 -20 5
-20 10 0 6 -9 10 -20 10 -11 0 -20 5 -20 10 0 6 -7 10 -15 10 -20 0 -145 125
-145 145 0 8 -4 15 -10 15 -5 0 -10 18 -10 40 0 22 -4 40 -10 40 -5 0 -10 18
-10 40 0 29 -4 40 -15 40 -18 0 -105 -84 -105 -101 0 -6 -13 -24 -30 -39 -16
-15 -30 -33 -30 -40 0 -7 -13 -25 -30 -40 -16 -15 -30 -33 -30 -39 0 -16 -46
-61 -62 -61 -8 0 -20 -9 -28 -20 -8 -11 -22 -20 -32 -20 -10 0 -18 -4 -18 -10
0 -5 -9 -10 -20 -10 -11 0 -20 -4 -20 -10 0 -6 -40 -10 -100 -10 -60 0 -100 4
-100 10 0 6 -13 10 -28 10 -16 0 -34 8 -42 20 -8 11 -20 20 -28 20 -18 0 -82
66 -82 85 0 8 -4 15 -10 15 -5 0 -10 9 -10 20 0 11 -4 20 -10 20 -6 0 -10 43
-10 110 0 67 4 110 10 110 6 0 10 14 10 30 0 17 5 30 10 30 6 0 10 5 10 10 0
6 -13 10 -30 10 -16 0 -30 -4 -30 -10 0 -5 -13 -10 -30 -10 -16 0 -30 -4 -30
-10 0 -5 -8 -10 -18 -10 -10 0 -24 -9 -32 -20 -8 -11 -21 -20 -28 -20 -8 0
-27 -13 -42 -30 -15 -16 -33 -30 -39 -30 -14 0 -101 -86 -101 -100 0 -14 -167
-180 -181 -180 -6 0 -24 -13 -39 -30 -15 -16 -34 -30 -42 -30 -7 0 -20 -9 -28
-20 -8 -11 -22 -20 -32 -20 -10 0 -18 -4 -18 -10 0 -5 -9 -10 -20 -10 -11 0
-20 -4 -20 -10 0 -5 -13 -10 -30 -10 -16 0 -30 -4 -30 -10 0 -5 -13 -10 -30
-10 -16 0 -30 -4 -30 -10 0 -6 -33 -10 -80 -10 -47 0 -80 4 -80 10 0 6 -13 10
-30 10 -16 0 -30 5 -30 10 0 6 -9 10 -20 10 -13 0 -20 7 -20 19 0 11 -6 21
-12 23 -9 3 -8 9 4 21 13 14 36 17 112 17 57 0 96 4 96 10 0 6 18 10 40 10 22
0 40 5 40 10 0 6 9 10 20 10 11 0 20 5 20 10 0 6 8 10 18 10 10 0 24 9 32 20
8 11 20 20 27 20 16 0 303 285 303 300 0 14 46 60 60 60 7 0 29 18 50 40 21
22 46 40 54 40 9 0 16 5 16 10 0 6 9 10 20 10 11 0 20 5 20 10 0 6 9 10 20 10
11 0 20 5 20 10 0 6 9 10 20 10 11 0 20 5 20 10 0 6 14 10 30 10 17 0 30 5 30
10 0 6 50 10 130 10 80 0 130 -4 130 -10z m-5840 -420 c0 -5 17 -10 38 -10 26
0 42 -6 52 -20 8 -11 22 -20 32 -20 11 0 18 -7 18 -20 0 -11 5 -20 10 -20 6 0
10 -11 10 -25 0 -27 -40 -75 -62 -75 -8 0 -20 -9 -28 -20 -8 -11 -22 -20 -32
-20 -11 0 -18 -7 -18 -20 0 -11 -4 -20 -10 -20 -5 0 -10 -9 -10 -20 0 -11 -4
-20 -10 -20 -5 0 -10 -18 -10 -40 0 -22 5 -40 10 -40 6 0 10 -9 10 -20 0 -11
5 -20 10 -20 6 0 10 -7 10 -15 0 -20 85 -105 105 -105 8 0 15 -4 15 -10 0 -5
14 -10 30 -10 17 0 30 -4 30 -10 0 -5 23 -10 50 -10 28 0 50 5 50 10 0 6 9 10
20 10 11 0 20 5 20 10 0 6 7 10 15 10 19 0 65 44 65 62 0 8 9 20 20 28 11 8
20 20 20 27 0 19 146 163 165 163 8 0 15 5 15 10 0 6 16 10 35 10 43 0 85 -37
85 -75 0 -14 5 -25 10 -25 6 0 10 -13 10 -30 0 -16 5 -30 10 -30 6 0 10 -7 10
-15 0 -20 65 -85 85 -85 8 0 15 -4 15 -10 0 -5 14 -10 30 -10 17 0 30 -4 30
-10 0 -5 18 -10 40 -10 22 0 40 -4 40 -10 0 -5 7 -10 16 -10 26 0 44 -26 44
-64 0 -29 -4 -36 -20 -36 -11 0 -20 -4 -20 -10 0 -6 -37 -10 -90 -10 -53 0
-90 4 -90 10 0 6 -13 10 -30 10 -16 0 -30 5 -30 10 0 6 -7 10 -15 10 -17 0
-145 124 -145 141 0 6 -7 17 -15 25 -13 14 -17 14 -30 0 -8 -8 -15 -22 -15
-30 0 -9 -4 -16 -10 -16 -5 0 -10 -7 -10 -16 0 -9 -13 -29 -30 -44 -16 -15
-30 -33 -30 -40 0 -16 -25 -40 -42 -40 -8 0 -20 -9 -28 -20 -8 -11 -22 -20
-32 -20 -10 0 -18 -4 -18 -10 0 -5 -13 -10 -30 -10 -16 0 -30 -4 -30 -10 0 -6
-37 -10 -90 -10 -53 0 -90 4 -90 10 0 6 -13 10 -30 10 -16 0 -30 5 -30 10 0 6
-13 10 -28 10 -16 0 -34 8 -42 20 -8 11 -20 20 -27 20 -17 0 -103 86 -103 103
0 7 -9 19 -20 27 -12 8 -20 26 -20 42 0 15 -4 28 -10 28 -5 0 -10 18 -10 40 0
22 -4 40 -10 40 -5 0 -10 18 -10 40 0 22 5 40 10 40 6 0 10 18 10 40 0 22 5
40 10 40 6 0 10 9 10 20 0 11 5 20 10 20 6 0 10 5 10 10 0 6 -18 10 -40 10
-22 0 -40 -4 -40 -10 0 -5 -9 -10 -20 -10 -11 0 -20 -4 -20 -10 0 -5 -8 -10
-18 -10 -10 0 -24 -9 -32 -20 -8 -11 -20 -20 -28 -20 -16 0 -82 -65 -82 -81 0
-6 -13 -24 -30 -39 -16 -15 -30 -33 -30 -40 0 -7 -13 -25 -30 -40 -16 -15 -30
-33 -30 -40 0 -7 -13 -25 -30 -40 -16 -15 -30 -33 -30 -39 0 -16 -107 -121
-123 -121 -7 0 -19 -9 -27 -20 -8 -11 -22 -20 -32 -20 -10 0 -18 -4 -18 -10 0
-5 -9 -10 -20 -10 -11 0 -20 -4 -20 -10 0 -5 -9 -10 -20 -10 -11 0 -20 -4 -20
-10 0 -5 -18 -10 -40 -10 -22 0 -40 -4 -40 -10 0 -6 -40 -10 -100 -10 -60 0
-100 4 -100 10 0 6 -16 10 -35 10 -27 0 -44 8 -70 35 -39 38 -42 50 -21 71 17
16 46 19 46 4 0 -6 47 -10 120 -10 73 0 120 4 120 10 0 6 14 10 30 10 17 0 30
5 30 10 0 6 8 10 18 10 10 0 24 9 32 20 8 11 20 20 27 20 17 0 183 166 183
183 0 7 9 19 20 27 11 8 20 21 20 28 0 8 14 27 30 42 17 15 30 33 30 40 0 7
14 25 30 40 17 15 30 33 30 39 0 15 66 81 81 81 6 0 24 14 39 30 15 17 35 30
44 30 9 0 16 5 16 10 0 6 9 10 20 10 11 0 20 5 20 10 0 6 14 10 30 10 17 0 30
5 30 10 0 6 23 10 50 10 28 0 50 5 50 10 0 6 27 10 60 10 33 0 60 -4 60 -10z
m5155 -1075 c19 -18 25 -35 25 -70 0 -25 -4 -45 -10 -45 -6 0 -10 -27 -10 -60
0 -33 4 -60 10 -60 6 0 10 -11 10 -25 0 -29 79 -115 105 -115 8 0 15 -4 15
-10 0 -5 14 -10 30 -10 17 0 30 -4 30 -10 0 -5 18 -10 40 -10 22 0 40 5 40 10
0 6 9 10 20 10 11 0 20 5 20 10 0 6 7 10 15 10 19 0 105 84 105 103 0 7 9 19
20 27 11 8 20 21 20 30 0 9 9 22 20 30 11 8 20 20 20 27 0 19 126 143 145 143
8 0 15 5 15 10 0 20 51 10 75 -15 19 -18 25 -35 25 -70 0 -25 5 -45 10 -45 6
0 10 -13 10 -30 0 -16 5 -30 10 -30 6 0 10 -9 10 -20 0 -11 5 -20 10 -20 6 0
10 -7 10 -15 0 -19 64 -85 82 -85 8 0 20 -9 28 -20 8 -12 26 -20 42 -20 15 0
28 -4 28 -10 0 -5 14 -10 30 -10 17 0 30 -4 30 -10 0 -5 23 -10 50 -10 28 0
50 -4 50 -10 0 -6 39 -10 96 -10 104 0 124 -9 124 -54 0 -19 -5 -26 -20 -26
-11 0 -20 -4 -20 -10 0 -5 -13 -10 -30 -10 -16 0 -30 -4 -30 -10 0 -6 -60 -10
-160 -10 -100 0 -160 4 -160 10 0 6 -13 10 -30 10 -16 0 -30 5 -30 10 0 6 -9
10 -20 10 -11 0 -20 5 -20 10 0 6 -9 10 -20 10 -11 0 -20 5 -20 10 0 6 -7 10
-15 10 -19 0 -125 104 -125 123 0 7 -9 19 -20 27 -11 8 -20 22 -20 32 0 11 -7
18 -20 18 -13 0 -20 -7 -20 -18 0 -10 -9 -24 -20 -32 -11 -8 -20 -20 -20 -27
0 -19 -146 -163 -165 -163 -8 0 -15 -4 -15 -10 0 -5 -9 -10 -20 -10 -11 0 -20
-4 -20 -10 0 -5 -18 -10 -40 -10 -22 0 -40 -4 -40 -10 0 -5 -22 -10 -50 -10
-27 0 -50 5 -50 10 0 6 -18 10 -40 10 -22 0 -40 5 -40 10 0 6 -13 10 -28 10
-16 0 -34 8 -42 20 -8 11 -20 20 -27 20 -19 0 -103 86 -103 105 0 8 -4 15 -10
15 -5 0 -10 9 -10 20 0 11 -4 20 -10 20 -5 0 -10 18 -10 40 0 22 -4 40 -10 40
-5 0 -10 14 -10 30 0 17 -4 30 -10 30 -5 0 -10 -4 -10 -10 0 -5 -7 -10 -15
-10 -9 0 -74 -58 -145 -130 -71 -71 -136 -130 -145 -130 -8 0 -15 -4 -15 -10
0 -5 -9 -10 -20 -10 -11 0 -20 -4 -20 -10 0 -5 -9 -10 -20 -10 -11 0 -20 -4
-20 -10 0 -6 -37 -10 -90 -10 -53 0 -90 4 -90 10 0 6 -7 10 -16 10 -22 0 -44
25 -44 50 0 38 23 50 94 50 37 0 66 4 66 10 0 6 14 10 30 10 17 0 30 5 30 10
0 6 7 10 15 10 9 0 87 72 175 160 88 88 165 160 173 160 7 0 19 9 27 20 8 11
22 20 32 20 10 0 18 5 18 10 0 6 14 10 30 10 17 0 30 5 30 10 0 21 70 10 95
-15z m-4535 -305 c0 -5 7 -10 15 -10 9 0 47 -31 85 -70 38 -38 74 -70 81 -70
6 0 24 -13 39 -30 15 -16 35 -30 44 -30 9 0 16 -4 16 -10 0 -5 9 -10 20 -10
11 0 20 -4 20 -10 0 -5 9 -10 20 -10 11 0 20 -4 20 -10 0 -5 11 -10 25 -10 31
0 75 -41 75 -70 0 -25 -22 -50 -44 -50 -9 0 -16 -4 -16 -10 0 -5 -22 -10 -50
-10 -27 0 -50 5 -50 10 0 6 -18 10 -40 10 -22 0 -40 5 -40 10 0 6 -9 10 -20
10 -11 0 -20 5 -20 10 0 6 -8 10 -18 10 -10 0 -24 9 -32 20 -8 11 -20 20 -28
20 -7 0 -40 27 -72 60 -42 42 -66 60 -84 60 -15 0 -26 -4 -26 -10 0 -5 -7 -10
-15 -10 -18 0 -65 -44 -65 -60 0 -16 -87 -100 -105 -100 -8 0 -15 -4 -15 -10
0 -5 -9 -10 -20 -10 -11 0 -20 -4 -20 -10 0 -5 -9 -10 -20 -10 -11 0 -20 -4
-20 -10 0 -6 -30 -10 -70 -10 -40 0 -70 4 -70 10 0 6 -18 10 -40 10 -22 0 -40
5 -40 10 0 6 -8 10 -18 10 -10 0 -24 9 -32 20 -8 11 -21 20 -30 20 -9 0 -22 9
-30 20 -8 11 -21 20 -30 20 -9 0 -22 9 -30 20 -21 29 -57 25 -90 -10 -15 -16
-34 -30 -42 -30 -7 0 -20 -9 -28 -20 -8 -11 -21 -20 -30 -20 -9 0 -22 -9 -30
-20 -8 -12 -26 -20 -42 -20 -15 0 -28 -4 -28 -10 0 -5 -18 -10 -39 -10 -22 0
-42 -6 -45 -12 -5 -10 -7 -10 -12 0 -3 6 -14 12 -25 12 -16 0 -19 7 -19 40 0
33 3 40 20 40 11 0 20 5 20 10 0 6 8 10 18 10 10 0 24 9 32 20 8 11 21 20 28
20 7 0 31 18 52 40 21 22 44 40 50 40 6 0 33 23 60 50 27 28 56 50 64 50 9 0
16 5 16 10 0 6 14 10 30 10 17 0 30 -4 30 -10 0 -5 14 -10 30 -10 17 0 30 -4
30 -10 0 -5 7 -10 16 -10 8 0 33 -18 54 -40 21 -22 45 -40 52 -40 7 0 20 -9
28 -20 8 -12 26 -20 42 -20 15 0 28 -4 28 -10 0 -5 18 -10 40 -10 22 0 40 5
40 10 0 6 7 10 15 10 17 0 185 164 185 180 0 16 47 60 65 60 8 0 15 5 15 10 0
6 27 10 60 10 33 0 60 -4 60 -10z m4320 -1040 c0 -5 9 -10 20 -10 11 0 20 -4
20 -10 0 -5 9 -10 20 -10 11 0 20 -4 20 -10 0 -5 8 -10 18 -10 10 0 24 -9 32
-20 8 -11 21 -20 30 -20 9 0 22 -9 30 -20 8 -11 22 -20 32 -20 10 0 18 -4 18
-10 0 -5 9 -10 20 -10 11 0 20 -4 20 -10 0 -5 9 -10 20 -10 11 0 20 -4 20 -10
0 -6 37 -10 90 -10 53 0 90 4 90 10 0 6 7 10 16 10 9 0 29 14 44 30 15 17 35
30 44 30 9 0 16 5 16 10 0 15 29 12 46 -4 16 -17 19 -66 4 -66 -5 0 -10 -7
-10 -15 0 -20 -105 -125 -125 -125 -8 0 -15 -4 -15 -10 0 -5 -13 -10 -30 -10
-16 0 -30 -4 -30 -10 0 -6 -33 -10 -80 -10 -47 0 -80 4 -80 10 0 6 -13 10 -30
10 -16 0 -30 5 -30 10 0 6 -9 10 -20 10 -11 0 -20 5 -20 10 0 6 -9 10 -20 10
-11 0 -20 5 -20 10 0 6 -9 10 -20 10 -11 0 -20 5 -20 10 0 6 -8 10 -18 10 -10
0 -24 9 -32 20 -8 11 -21 20 -30 20 -9 0 -22 9 -30 20 -8 11 -22 20 -32 20
-10 0 -18 5 -18 10 0 6 -22 10 -50 10 -27 0 -50 -4 -50 -10 0 -5 -8 -10 -18
-10 -10 0 -24 -9 -32 -20 -8 -11 -21 -20 -30 -20 -9 0 -22 -9 -30 -20 -8 -11
-21 -20 -30 -20 -9 0 -22 -9 -30 -20 -8 -11 -22 -20 -32 -20 -10 0 -18 -4 -18
-10 0 -5 -13 -10 -30 -10 -16 0 -30 -4 -30 -10 0 -6 -29 -10 -66 -10 -64 0
-94 13 -94 40 0 17 26 40 44 40 9 0 16 5 16 10 0 6 9 10 20 10 11 0 20 5 20
10 0 6 7 10 16 10 9 0 29 14 44 30 15 17 33 30 40 30 6 0 29 18 50 40 21 22
45 40 52 40 7 0 20 9 28 20 8 11 22 20 32 20 10 0 18 5 18 10 0 6 9 10 20 10
11 0 20 5 20 10 0 6 33 10 80 10 47 0 80 -4 80 -10z m-3525 -135 c44 -44 45
-46 45 -110 0 -37 -4 -65 -10 -65 -5 0 -10 -7 -10 -15 0 -9 -16 -31 -35 -50
-31 -32 -40 -35 -90 -35 -30 0 -55 5 -55 10 0 6 -9 10 -20 10 -13 0 -20 7 -20
18 0 10 -9 24 -20 32 -11 8 -20 22 -20 32 0 10 -4 18 -10 18 -5 0 -10 25 -10
55 0 46 4 60 25 80 13 14 31 25 40 25 8 0 15 5 15 10 0 6 9 10 20 10 11 0 20
5 20 10 0 6 20 10 45 10 41 0 50 -5 90 -45z"/>
</g>
</svg>
