<svg xmlns="http://www.w3.org/2000/svg" viewBox="0 0 868.000000 764.000000" fill="currentColor" aria-hidden="true">
<g transform="translate(0.000000,764.000000) scale(0.100000,-0.100000)" fill="currentColor" stroke="none">
<path d="M0 3820 l0 -3820 4340 0 4340 0 0 3820 0 3820 -4340 0 -4340 0 0
-3820z m6995 3395 c14 -13 25 -31 25 -40 0 -8 5 -15 10 -15 6 0 10 -22 10 -50
0 -43 -3 -50 -20 -50 -11 0 -20 -4 -20 -10 0 -5 -9 -10 -20 -10 -11 0 -20 5
-20 10 0 6 -7 10 -15 10 -9 0 -27 11 -40 25 -14 13 -25 31 -25 40 0 8 -4 15
-10 15 -5 0 -10 9 -10 20 0 11 5 20 10 20 6 0 10 9 10 20 0 13 7 20 20 20 11
0 20 5 20 10 0 20 51 10 75 -15z m-4355 -285 c0 -5 14 -10 30 -10 17 0 30 -4
30 -10 0 -5 9 -10 20 -10 13 0 20 -7 20 -20 0 -11 5 -20 10 -20 23 0 8 -52
-25 -85 -26 -27 -43 -35 -70 -35 -19 0 -35 -4 -35 -10 0 -5 -22 -10 -50 -10
-27 0 -50 5 -50 10 0 6 -18 10 -40 10 -22 0 -40 5 -40 10 0 6 -9 10 -20 10
-13 0 -20 7 -20 20 0 11 -4 20 -10 20 -5 0 -10 14 -10 30 0 17 5 30 10 30 6 0
10 7 10 16 0 20 24 44 44 44 9 0 16 5 16 10 0 6 37 10 90 10 53 0 90 -4 90
-10z m4920 0 c0 -5 9 -10 20 -10 11 0 20 -4 20 -10 0 -5 7 -10 16 -10 8 0 22
-6 30 -14 8 -8 14 -22 14 -30 0 -9 5 -16 10 -16 6 0 10 -25 10 -55 0 -46 -4
-60 -25 -80 -21 -22 -33 -25 -90 -25 -37 0 -65 4 -65 10 0 6 -7 10 -15 10 -25
0 -85 66 -85 94 0 13 -6 27 -12 30 -10 5 -10 7 0 12 6 3 12 17 12 31 0 28 21
53 44 53 9 0 16 5 16 10 0 6 23 10 50 10 28 0 50 -4 50 -10z m-5582 -257 c17
-17 22 -28 14 -31 -7 -2 -12 -17 -12 -33 0 -16 -4 -29 -10 -29 -5 0 -10 -7
-10 -15 0 -23 -86 -105 -110 -105 -34 0 -70 44 -70 85 0 19 5 35 10 35 6 0 10
7 10 15 0 20 65 85 85 85 8 0 15 5 15 10 0 20 52 9 78 -17z m3282 -223 c0 -6
127 -10 360 -10 233 0 360 -4 360 -10 0 -7 207 -10 600 -10 393 0 600 -3 600
-10 0 -5 18 -10 40 -10 22 0 40 -4 40 -10 0 -5 7 -10 15 -10 20 0 65 -45 65
-65 0 -8 5 -15 10 -15 6 0 10 -13 10 -30 0 -16 5 -30 10 -30 7 0 10 -417 10
-1230 0 -813 -3 -1230 -10 -1230 -6 0 -10 -67 -10 -180 0 -113 -4 -180 -10
-180 -6 0 -10 -47 -10 -120 0 -73 -4 -120 -10 -120 -6 0 -10 -37 -10 -90 0
-53 -4 -90 -10 -90 -6 0 -10 -30 -10 -70 0 -40 -4 -70 -10 -70 -6 0 -10 -27
-10 -60 0 -33 -4 -60 -10 -60 -5 0 -10 -22 -10 -50 0 -27 -4 -50 -10 -50 -5 0
-10 -18 -10 -40 0 -22 -4 -40 -10 -40 -5 0 -10 -18 -10 -40 0 -22 -4 -40 -10
-40 -5 0 -10 -13 -10 -30 0 -16 -4 -30 -10 -30 -5 0 -10 -13 -10 -30 0 -16 -4
-30 -10 -30 -5 0 -10 -13 -10 -30 0 -16 -4 -30 -10 -30 -5 0 -10 -9 -10 -20 0
-11 -4 -20 -10 -20 -5 0 -10 -13 -10 -30 0 -16 -4 -30 -10 -30 -5 0 -10 -9
-10 -20 0 -11 -4 -20 -10 -20 -5 0 -10 -9 -10 -20 0 -11 -4 -20 -10 -20 -5 0
-10 -9 -10 -20 0 -11 -4 -20 -10 -20 -5 0 -10 -9 -10 -20 0 -11 -4 -20 -10
-20 -5 0 -10 -8 -10 -18 0 -10 -9 -24 -20 -32 -11 -8 -20 -21 -20 -30 0 -9 -9
-22 -20 -30 -11 -8 -20 -21 -20 -30 0 -9 -9 -22 -20 -30 -11 -8 -20 -21 -20
-30 0 -9 -9 -22 -20 -30 -11 -8 -20 -21 -20 -28 0 -8 -13 -27 -30 -42 -16 -15
-30 -33 -30 -40 0 -6 -22 -33 -50 -60 -27 -27 -50 -54 -50 -59 0 -14 -267
-281 -281 -281 -5 0 -32 -22 -59 -50 -27 -27 -54 -50 -60 -50 -6 0 -29 -18
-50 -40 -21 -22 -44 -40 -50 -40 -7 0 -25 -13 -40 -30 -15 -16 -34 -30 -42
-30 -7 0 -20 -9 -28 -20 -8 -11 -21 -20 -30 -20 -9 0 -22 -9 -30 -20 -8 -11
-21 -20 -30 -20 -9 0 -22 -9 -30 -20 -8 -11 -21 -20 -28 -20 -8 0 -27 -13 -42
-30 -15 -16 -34 -30 -42 -30 -7 0 -20 -9 -28 -20 -8 -11 -21 -20 -30 -20 -9 0
-22 -9 -30 -20 -8 -11 -22 -20 -32 -20 -10 0 -18 -4 -18 -10 0 -5 -8 -10 -18
-10 -10 0 -24 -9 -32 -20 -8 -11 -21 -20 -30 -20 -9 0 -22 -9 -30 -20 -8 -11
-22 -20 -32 -20 -10 0 -18 -4 -18 -10 0 -5 -8 -10 -18 -10 -10 0 -24 -9 -32
-20 -8 -11 -22 -20 -32 -20 -10 0 -18 -4 -18 -10 0 -5 -9 -10 -20 -10 -11 0
-20 -4 -20 -10 0 -5 -8 -10 -18 -10 -10 0 -24 -9 -32 -20 -8 -11 -22 -20 -32
-20 -10 0 -18 -4 -18 -10 0 -5 -9 -10 -20 -10 -11 0 -20 -4 -20 -10 0 -5 -9
-10 -20 -10 -11 0 -20 -4 -20 -10 0 -5 -8 -10 -18 -10 -10 0 -24 -9 -32 -20
-8 -11 -22 -20 -32 -20 -10 0 -18 -4 -18 -10 0 -5 -9 -10 -20 -10 -11 0 -20
-4 -20 -10 0 -5 -9 -10 -20 -10 -11 0 -20 -4 -20 -10 0 -5 -8 -10 -18 -10 -10
0 -24 -9 -32 -20 -8 -11 -22 -20 -32 -20 -10 0 -18 -4 -18 -10 0 -5 -9 -10
-20 -10 -11 0 -20 -4 -20 -10 0 -5 -9 -10 -20 -10 -11 0 -20 -4 -20 -10 0 -5
-9 -10 -20 -10 -11 0 -20 -4 -20 -10 0 -5 -9 -10 -20 -10 -11 0 -20 5 -20 10
0 6 -13 10 -30 10 -16 0 -30 5 -30 10 0 6 -9 10 -20 10 -11 0 -20 5 -20 10 0
6 -9 10 -20 10 -11 0 -20 5 -20 10 0 6 -9 10 -20 10 -11 0 -20 5 -20 10 0 6
-8 10 -18 10 -10 0 -24 9 -32 20 -8 11 -22 20 -32 20 -10 0 -18 5 -18 10 0 6
-9 10 -20 10 -11 0 -20 5 -20 10 0 6 -8 10 -18 10 -10 0 -24 9 -32 20 -8 11
-22 20 -32 20 -10 0 -18 5 -18 10 0 6 -9 10 -20 10 -11 0 -20 5 -20 10 0 6 -8
10 -18 10 -10 0 -24 9 -32 20 -8 11 -22 20 -32 20 -10 0 -18 5 -18 10 0 6 -8
10 -18 10 -10 0 -24 9 -32 20 -8 11 -22 20 -32 20 -10 0 -18 5 -18 10 0 6 -8
10 -18 10 -10 0 -24 9 -32 20 -8 11 -21 20 -30 20 -9 0 -22 9 -30 20 -8 11
-22 20 -32 20 -10 0 -18 5 -18 10 0 6 -8 10 -18 10 -10 0 -24 9 -32 20 -8 11
-22 20 -32 20 -10 0 -18 5 -18 10 0 6 -8 10 -18 10 -10 0 -24 9 -32 20 -8 11
-21 20 -30 20 -9 0 -22 9 -30 20 -8 11 -21 20 -30 20 -9 0 -22 9 -30 20 -8 11
-21 20 -30 20 -9 0 -22 9 -30 20 -8 11 -21 20 -28 20 -8 0 -27 14 -42 30 -15
17 -34 30 -42 30 -7 0 -20 9 -28 20 -8 11 -21 20 -28 20 -8 0 -27 14 -42 30
-15 17 -33 30 -40 30 -6 0 -29 18 -50 40 -21 22 -44 40 -50 40 -6 0 -42 31
-80 70 -38 38 -74 70 -80 70 -14 0 -220 207 -220 221 0 5 -22 32 -50 59 -27
27 -50 54 -50 60 0 7 -13 25 -30 40 -16 15 -30 33 -30 40 0 7 -13 25 -30 40
-16 15 -30 34 -30 42 0 7 -9 20 -20 28 -11 8 -20 22 -20 32 0 10 -4 18 -10 18
-5 0 -10 8 -10 18 0 10 -9 24 -20 32 -11 8 -20 22 -20 32 0 10 -4 18 -10 18
-5 0 -10 9 -10 20 0 11 -4 20 -10 20 -5 0 -10 9 -10 20 0 11 -4 20 -10 20 -5
0 -10 9 -10 20 0 11 -4 20 -10 20 -5 0 -10 9 -10 20 0 11 -4 20 -10 20 -5 0
-10 9 -10 20 0 11 -4 20 -10 20 -5 0 -10 14 -10 30 0 17 -4 30 -10 30 -5 0
-10 9 -10 20 0 11 -4 20 -10 20 -5 0 -10 14 -10 30 0 17 -4 30 -10 30 -5 0
-10 14 -10 30 0 17 -4 30 -10 30 -5 0 -10 14 -10 30 0 17 -4 30 -10 30 -5 0
-10 18 -10 40 0 22 -4 40 -10 40 -5 0 -10 18 -10 40 0 22 -4 40 -10 40 -5 0
-10 23 -10 50 0 28 -4 50 -10 50 -6 0 -10 27 -10 60 0 33 -4 60 -10 60 -6 0
-10 33 -10 80 0 47 -4 80 -10 80 -6 0 -10 47 -10 120 0 73 -4 120 -10 120 -6
0 -10 70 -10 190 0 120 -4 190 -10 190 -6 0 -10 117 -10 330 0 213 -4 330 -10
330 -6 0 -10 97 -10 270 0 173 4 270 10 270 7 0 10 160 10 460 0 300 3 460 10
460 6 0 10 47 10 120 0 73 4 120 10 120 6 0 10 30 10 70 0 40 4 70 10 70 6 0
10 11 10 25 0 29 40 75 65 75 8 0 15 5 15 10 0 6 14 10 30 10 17 0 30 5 30 10
0 6 14 10 30 10 17 0 30 5 30 10 0 6 23 10 50 10 28 0 50 5 50 10 0 6 37 10
90 10 53 0 90 4 90 10 0 6 50 10 130 10 80 0 130 4 130 10 0 6 60 10 160 10
100 0 160 4 160 10 0 6 80 10 220 10 140 0 220 4 220 10 0 6 110 10 310 10
200 0 310 4 310 10 0 7 147 10 420 10 273 0 420 -3 420 -10z m-3600 -820 c0
-5 7 -10 15 -10 20 0 125 -105 125 -125 0 -8 5 -15 10 -15 6 0 10 -27 10 -60
0 -33 -4 -60 -10 -60 -5 0 -10 -9 -10 -20 0 -13 -7 -20 -20 -20 -11 0 -20 -4
-20 -10 0 -6 -27 -10 -60 -10 -33 0 -60 4 -60 10 0 6 -7 10 -15 10 -20 0 -105
85 -105 105 0 8 -4 15 -10 15 -6 0 -10 28 -10 65 0 60 3 68 33 100 27 29 39
34 80 34 26 1 47 -3 47 -9z m6000 -3780 c0 -5 16 -10 35 -10 36 0 85 -35 85
-60 0 -17 -26 -40 -44 -40 -9 0 -16 -4 -16 -10 0 -5 -9 -10 -20 -10 -11 0 -20
-4 -20 -10 0 -5 -13 -10 -30 -10 -16 0 -30 -4 -30 -10 0 -6 -27 -10 -60 -10
-33 0 -60 4 -60 10 0 6 -7 10 -16 10 -25 0 -44 26 -44 60 0 34 19 60 44 60 9
0 16 5 16 10 0 6 9 10 20 10 11 0 20 5 20 10 0 6 27 10 60 10 33 0 60 -4 60
-10z m-5360 -260 c0 -5 13 -10 28 -10 16 0 34 -8 42 -20 8 -11 20 -20 28 -20
20 0 42 -26 42 -50 0 -25 -22 -50 -44 -50 -9 0 -16 -4 -16 -10 0 -6 -33 -10
-80 -10 -47 0 -80 4 -80 10 0 6 -9 10 -20 10 -13 0 -20 7 -20 20 0 11 -4 20
-10 20 -5 0 -10 14 -10 30 0 17 5 30 10 30 6 0 10 9 10 20 0 13 7 20 20 20 11
0 20 5 20 10 0 6 18 10 40 10 22 0 40 -4 40 -10z m5080 -140 c0 -5 7 -10 15
-10 20 0 145 -125 145 -145 0 -8 5 -15 10 -15 6 0 10 -9 10 -20 0 -11 5 -20
10 -20 18 0 10 -31 -15 -55 -25 -25 -95 -36 -95 -15 0 6 -9 10 -20 10 -11 0
-20 5 -20 10 0 6 -7 10 -15 10 -20 0 -145 125 -145 145 0 8 -4 15 -10 15 -14
0 -12 68 3 85 14 17 127 21 127 5z m-405 -335 c14 -13 25 -31 25 -40 0 -8 5
-15 10 -15 6 0 10 -13 10 -30 0 -16 5 -30 10 -30 6 0 10 -33 10 -80 0 -47 -4
-80 -10 -80 -5 0 -10 -13 -10 -30 0 -16 -4 -30 -10 -30 -5 0 -10 -9 -10 -20 0
-16 -7 -20 -36 -20 -38 0 -64 18 -64 44 0 9 -4 16 -10 16 -5 0 -10 9 -10 20 0
11 -4 20 -10 20 -6 0 -10 48 -10 125 0 117 2 127 23 150 29 31 62 31 92 0z
m-3989 -249 c8 -8 14 -34 14 -60 0 -25 5 -46 10 -46 6 0 10 5 10 10 0 6 18 10
40 10 33 0 40 -3 40 -20 0 -11 5 -20 10 -20 6 0 10 -18 10 -40 0 -22 -4 -40
-10 -40 -5 0 -10 -7 -10 -15 0 -20 -45 -65 -65 -65 -8 0 -15 -4 -15 -10 0 -5
-22 -10 -50 -10 -27 0 -50 5 -50 10 0 6 -7 10 -16 10 -20 0 -44 24 -44 44 0 9
-4 16 -10 16 -6 0 -10 33 -10 80 0 47 4 80 10 80 6 0 10 7 10 15 0 9 10 27 23
40 25 27 80 33 103 11z"/>
<path d="M4180 6250 c0 -6 -100 -10 -280 -10 -180 0 -280 -4 -280 -10 0 -6
-83 -10 -230 -10 -147 0 -230 -4 -230 -10 0 -6 -77 -10 -210 -10 -133 0 -210
-4 -210 -10 0 -6 -63 -10 -170 -10 l-170 0 0 -60 c0 -33 4 -60 10 -60 6 0 10
-80 10 -220 0 -140 4 -220 10 -220 7 0 10 -273 10 -800 0 -527 3 -800 10 -800
6 0 10 -77 10 -210 0 -133 4 -210 10 -210 6 0 10 -63 10 -170 0 -107 4 -170
10 -170 6 0 10 -43 10 -110 0 -67 4 -110 10 -110 6 0 10 -33 10 -80 0 -47 4
-80 10 -80 6 0 10 -22 10 -50 0 -27 5 -50 10 -50 6 0 10 -22 10 -50 0 -27 5
-50 10 -50 6 0 10 -18 10 -40 0 -22 5 -40 10 -40 6 0 10 -13 10 -30 0 -16 5
-30 10 -30 6 0 10 -13 10 -30 0 -16 5 -30 10 -30 6 0 10 -13 10 -30 0 -16 5
-30 10 -30 6 0 10 -9 10 -20 0 -11 5 -20 10 -20 6 0 10 -13 10 -30 0 -16 5
-30 10 -30 6 0 10 -9 10 -20 0 -11 5 -20 10 -20 6 0 10 -9 10 -20 0 -11 5 -20
10 -20 6 0 10 -9 10 -20 0 -11 5 -20 10 -20 6 0 10 -8 10 -18 0 -10 9 -24 20
-32 11 -8 20 -22 20 -32 0 -10 5 -18 10 -18 6 0 10 -9 10 -20 0 -11 5 -20 10
-20 6 0 10 -8 10 -18 0 -10 9 -24 20 -32 11 -8 20 -21 20 -28 0 -8 14 -27 30
-42 17 -15 30 -33 30 -40 0 -7 14 -25 30 -40 17 -15 30 -33 30 -40 0 -6 27
-38 60 -70 33 -32 60 -64 60 -70 0 -14 86 -100 100 -100 6 0 42 -31 80 -70 38
-38 74 -70 80 -70 6 0 33 -22 60 -50 27 -27 54 -50 60 -50 7 0 25 -13 40 -30
15 -16 33 -30 40 -30 7 0 25 -14 40 -30 15 -17 34 -30 42 -30 7 0 20 -9 28
-20 8 -11 21 -20 30 -20 9 0 22 -9 30 -20 8 -11 21 -20 30 -20 9 0 22 -9 30
-20 8 -11 21 -20 30 -20 9 0 22 -9 30 -20 8 -11 22 -20 32 -20 10 0 18 -4 18
-10 0 -5 8 -10 18 -10 10 0 24 -9 32 -20 8 -11 22 -20 32 -20 10 0 18 -4 18
-10 0 -5 8 -10 18 -10 10 0 24 -9 32 -20 8 -11 21 -20 30 -20 9 0 22 -9 30
-20 8 -11 22 -20 32 -20 10 0 18 -4 18 -10 0 -5 8 -10 18 -10 10 0 24 -9 32
-20 8 -11 21 -20 30 -20 9 0 22 -9 30 -20 8 -11 22 -20 32 -20 10 0 18 -4 18
-10 0 -5 8 -10 18 -10 10 0 24 -9 32 -20 8 -11 21 -20 30 -20 9 0 22 -9 30
-20 8 -11 22 -20 32 -20 10 0 18 -4 18 -10 0 -5 8 -10 18 -10 10 0 24 -9 32
-20 8 -11 18 -20 22 -20 4 0 8 68 8 150 0 93 -4 150 -10 150 -7 0 -10 313 -10
920 0 913 0 920 -20 920 -11 0 -20 5 -20 10 0 6 -7 10 -16 10 -20 0 -44 24
-44 44 0 9 -4 16 -10 16 -6 0 -10 29 -10 66 0 55 4 70 21 85 19 16 20 20 6 34
-9 8 -21 15 -27 15 -6 0 -31 20 -55 45 -43 43 -45 47 -45 105 0 56 3 63 35 95
19 19 41 35 50 35 8 0 15 5 15 10 0 6 9 10 20 10 11 0 20 5 20 10 0 6 21 10
46 10 26 0 52 6 60 14 16 17 19 66 4 66 -5 0 -10 9 -10 20 0 11 5 20 10 20 6
0 10 30 10 70 0 40 4 70 10 70 6 0 10 14 10 30 0 17 5 30 10 30 6 0 10 9 10
20 0 11 5 20 10 20 6 0 10 13 10 28 0 16 8 34 20 42 11 8 20 21 20 30 0 9 9
22 20 30 11 8 20 20 20 27 0 15 245 263 260 263 15 0 200 187 200 203 0 7 9
19 20 27 11 8 20 22 20 32 0 10 5 18 10 18 6 0 10 9 10 20 0 11 5 20 10 20 6
0 10 9 10 20 0 11 5 20 10 20 6 0 10 14 10 30 0 17 5 30 10 30 6 0 10 60 10
160 0 100 -4 160 -10 160 -5 0 -10 14 -10 30 0 17 -4 30 -10 30 -5 0 -10 9
-10 20 0 11 -4 20 -10 20 -5 0 -10 9 -10 20 0 11 -4 20 -10 20 -5 0 -10 7 -10
15 0 9 -34 49 -75 90 -41 41 -81 75 -90 75 -8 0 -15 5 -15 10 0 6 -9 10 -20
10 -11 0 -20 5 -20 10 0 6 -9 10 -20 10 -11 0 -20 5 -20 10 0 6 -22 10 -50 10
-27 0 -50 5 -50 10 0 6 -33 10 -80 10 -47 0 -80 -4 -80 -10 0 -5 -18 -10 -40
-10 -22 0 -40 -4 -40 -10 0 -5 -9 -10 -20 -10 -11 0 -20 -4 -20 -10 0 -5 -8
-10 -18 -10 -10 0 -24 -9 -32 -20 -8 -11 -20 -20 -27 -20 -19 0 -123 -106
-123 -125 0 -8 -4 -15 -10 -15 -5 0 -10 -9 -10 -20 0 -11 -4 -20 -10 -20 -5 0
-10 -9 -10 -20 0 -11 -4 -20 -10 -20 -5 0 -10 -22 -10 -50 0 -27 -4 -50 -10
-50 -5 0 -10 -13 -10 -30 0 -16 5 -30 10 -30 6 0 10 -13 10 -30 0 -16 5 -30
10 -30 6 0 10 -9 10 -20 0 -11 5 -20 10 -20 6 0 10 -9 10 -20 0 -13 7 -20 20
-20 11 0 20 -4 20 -10 0 -5 9 -10 20 -10 17 0 20 7 20 40 0 22 5 40 10 40 6 0
10 11 10 25 0 35 100 135 135 135 14 0 25 5 25 10 0 6 33 10 80 10 47 0 80 -4
80 -10 0 -5 13 -10 28 -10 16 0 34 -8 42 -20 8 -11 20 -20 28 -20 17 0 62 -45
62 -62 0 -8 9 -20 20 -28 12 -8 20 -26 20 -42 0 -15 5 -28 10 -28 6 0 10 -50
10 -130 0 -80 -4 -130 -10 -130 -5 0 -10 -13 -10 -30 0 -16 -4 -30 -10 -30 -5
0 -10 -9 -10 -20 0 -11 -4 -20 -10 -20 -5 0 -10 -7 -10 -15 0 -20 -125 -145
-145 -145 -8 0 -15 -4 -15 -10 0 -5 -9 -10 -20 -10 -11 0 -20 -4 -20 -10 0 -5
-9 -10 -20 -10 -11 0 -20 -4 -20 -10 0 -5 -18 -10 -40 -10 -22 0 -40 -4 -40
-10 0 -6 -30 -10 -70 -10 -56 0 -70 -3 -70 -15 0 -20 -85 -105 -105 -105 -8 0
-15 -4 -15 -10 0 -6 -33 -10 -80 -10 -47 0 -80 4 -80 10 0 6 -7 10 -15 10 -20
0 -105 85 -105 105 0 8 -4 15 -10 15 -6 0 -10 35 -10 86 l0 85 -50 49 c-27 27
-50 55 -50 62 0 8 -9 20 -20 28 -11 8 -20 22 -20 32 0 10 -4 18 -10 18 -5 0
-10 9 -10 20 0 11 -4 20 -10 20 -5 0 -10 9 -10 20 0 17 -7 20 -40 20 -22 0
-40 5 -40 10 0 6 -9 10 -20 10 -11 0 -20 5 -20 10 0 6 -7 10 -15 10 -19 0 -65
44 -65 62 0 8 -9 20 -20 28 -17 13 -20 26 -20 102 0 52 4 88 10 88 6 0 10 7
10 15 0 20 65 85 85 85 8 0 15 5 15 10 0 6 12 10 26 10 33 0 54 21 54 54 0 14
5 26 10 26 6 0 10 18 10 40 0 22 5 40 10 40 6 0 10 14 10 30 0 17 5 30 10 30
6 0 10 9 10 20 0 11 5 20 10 20 6 0 10 9 10 19 0 11 6 22 13 25 10 5 10 7 0
12 -7 3 -13 14 -13 25 0 10 -4 19 -10 19 -5 0 -10 9 -10 20 0 11 -4 20 -10 20
-6 0 -10 27 -10 60 0 33 4 60 10 60 6 0 10 11 10 25 0 29 79 115 105 115 8 0
15 5 15 10 0 6 33 10 80 10 47 0 80 -4 80 -10 0 -5 9 -10 20 -10 11 0 20 -4
20 -10 0 -5 14 -10 30 -10 17 0 30 5 30 10 0 6 9 10 20 10 11 0 20 5 20 10 0
6 9 10 20 10 11 0 20 5 20 10 0 6 9 10 20 10 11 0 20 5 20 10 0 6 14 10 30 10
17 0 30 5 30 10 0 6 9 10 20 10 11 0 20 5 20 10 0 6 14 10 30 10 29 0 30 1 30
50 0 28 5 50 10 50 6 0 10 7 10 15 0 20 85 105 105 105 8 0 15 5 15 10 0 6 33
10 80 10 47 0 80 -4 80 -10 0 -5 7 -10 15 -10 20 0 105 -85 105 -105 0 -8 5
-15 10 -15 6 0 10 -12 10 -26 0 -33 21 -54 54 -54 14 0 26 -4 26 -10 0 -5 14
-10 30 -10 17 0 30 -4 30 -10 0 -5 14 -10 30 -10 17 0 30 -4 30 -10 0 -5 9
-10 20 -10 11 0 20 -4 20 -10 0 -5 9 -10 20 -10 11 0 20 -4 20 -10 0 -5 9 -10
19 -10 11 0 22 -6 25 -12 5 -10 7 -10 12 0 3 6 13 12 23 12 9 0 23 9 31 20 13
17 26 20 102 20 52 0 88 -4 88 -10 0 -5 7 -10 15 -10 20 0 85 -65 85 -85 0 -8
5 -15 10 -15 6 0 10 -9 10 -20 0 -11 5 -20 10 -20 6 0 10 -30 10 -70 0 -40 -4
-70 -10 -70 -5 0 -10 -13 -10 -30 0 -16 -4 -30 -10 -30 -5 0 -10 -13 -10 -30
0 -16 5 -30 10 -30 6 0 10 -9 10 -20 0 -11 5 -20 10 -20 6 0 10 -9 10 -20 0
-11 5 -20 10 -20 6 0 10 -9 10 -20 0 -11 5 -20 10 -20 6 0 10 -13 10 -30 0
-16 5 -30 10 -30 6 0 10 -12 10 -26 0 -38 22 -54 74 -54 25 0 46 -4 46 -10 0
-5 7 -10 15 -10 26 0 105 -86 105 -115 0 -14 5 -25 10 -25 6 0 10 -33 10 -80
0 -47 -4 -80 -10 -80 -5 0 -10 -9 -10 -20 0 -11 -4 -20 -10 -20 -5 0 -10 -7
-10 -15 0 -20 -45 -65 -65 -65 -8 0 -15 -4 -15 -10 0 -5 -9 -10 -20 -10 -11 0
-20 -4 -20 -10 0 -5 -12 -10 -26 -10 -33 0 -54 -21 -54 -54 0 -14 -4 -26 -10
-26 -5 0 -10 -13 -10 -30 0 -16 -4 -30 -10 -30 -5 0 -10 -13 -10 -30 0 -16 -4
-30 -10 -30 -5 0 -10 -9 -10 -20 0 -11 -4 -20 -10 -20 -5 0 -10 -9 -10 -19 0
-11 -6 -21 -12 -24 -8 -2 -1 -15 20 -34 17 -17 32 -38 32 -47 0 -9 5 -16 10
-16 6 0 10 -13 10 -30 0 -16 5 -30 10 -30 6 0 10 -13 10 -30 0 -16 -4 -30 -10
-30 -5 0 -10 -17 -10 -38 0 -26 -6 -42 -20 -52 -11 -8 -20 -20 -20 -28 0 -17
-25 -42 -42 -42 -8 0 -20 -9 -28 -20 -10 -14 -26 -20 -52 -20 -21 0 -38 -4
-38 -10 0 -5 -13 -10 -30 -10 -16 0 -30 5 -30 10 0 6 -18 10 -40 10 -22 0 -40
5 -40 10 0 6 -11 10 -25 10 -18 0 -49 -23 -110 -85 -47 -47 -85 -90 -85 -96 0
-6 -13 -24 -30 -39 -16 -15 -30 -35 -30 -44 0 -9 -4 -16 -10 -16 -5 0 -10 -9
-10 -20 0 -11 -4 -20 -10 -20 -5 0 -10 -9 -10 -20 0 -11 -4 -20 -10 -20 -5 0
-10 -13 -10 -30 0 -16 -4 -30 -10 -30 -5 0 -10 -13 -10 -30 0 -27 3 -30 30
-30 17 0 30 -4 30 -10 0 -5 7 -10 15 -10 20 0 85 -65 85 -85 0 -8 5 -15 10
-15 6 0 10 -29 10 -68 0 -56 -3 -70 -20 -82 -11 -8 -20 -22 -20 -32 0 -10 -7
-18 -16 -18 -8 0 -22 -6 -30 -14 -16 -17 -19 -66 -4 -66 6 0 10 -18 10 -40 0
-22 -4 -40 -10 -40 -5 0 -10 -9 -10 -20 0 -11 -4 -20 -10 -20 -5 0 -10 -7 -10
-16 0 -20 -24 -44 -44 -44 -9 0 -16 -4 -16 -10 0 -5 -9 -10 -20 -10 -18 0 -20
-7 -20 -80 0 -47 4 -80 10 -80 6 0 10 -110 10 -310 0 -200 4 -310 10 -310 7 0
10 -207 10 -600 0 -393 -3 -600 -10 -600 -6 0 -10 -27 -10 -60 0 -51 3 -60 18
-60 10 0 24 9 32 20 8 11 21 20 30 20 9 0 22 9 30 20 8 11 22 20 32 20 10 0
18 5 18 10 0 6 8 10 18 10 10 0 24 9 32 20 8 11 22 20 32 20 10 0 18 5 18 10
0 6 8 10 18 10 10 0 24 9 32 20 8 11 22 20 32 20 10 0 18 5 18 10 0 6 8 10 18
10 10 0 24 9 32 20 8 11 22 20 32 20 10 0 18 5 18 10 0 6 8 10 18 10 10 0 24
9 32 20 8 11 21 20 30 20 9 0 22 9 30 20 8 11 22 20 32 20 10 0 18 5 18 10 0
6 8 10 18 10 10 0 24 9 32 20 8 11 21 20 30 20 9 0 22 9 30 20 8 11 21 20 30
20 9 0 22 9 30 20 8 11 21 20 30 20 9 0 22 9 30 20 8 11 21 20 28 20 8 0 27
14 42 30 15 17 33 30 40 30 7 0 25 14 40 30 15 17 33 30 40 30 7 0 25 14 40
30 15 17 33 30 40 30 6 0 33 23 60 50 27 28 54 50 59 50 14 0 201 186 201 200
0 6 27 38 60 70 33 32 60 64 60 70 0 7 14 25 30 40 17 15 30 34 30 42 0 7 9
20 20 28 11 8 20 21 20 30 0 9 9 22 20 30 11 8 20 22 20 32 0 10 5 18 10 18 6
0 10 8 10 18 0 10 9 24 20 32 11 8 20 22 20 32 0 10 5 18 10 18 6 0 10 9 10
20 0 11 5 20 10 20 6 0 10 9 10 20 0 11 5 20 10 20 6 0 10 14 10 30 0 17 5 30
10 30 6 0 10 9 10 20 0 11 5 20 10 20 6 0 10 9 10 20 0 11 5 20 10 20 6 0 10
14 10 30 0 17 5 30 10 30 6 0 10 14 10 30 0 17 5 30 10 30 6 0 10 14 10 30 0
17 5 30 10 30 6 0 10 14 10 30 0 17 5 30 10 30 6 0 10 18 10 40 0 22 5 40 10
40 6 0 10 23 10 50 0 28 5 50 10 50 6 0 10 23 10 50 0 28 5 50 10 50 6 0 10
30 10 70 0 40 4 70 10 70 6 0 10 37 10 90 0 53 4 90 10 90 6 0 10 53 10 140 0
87 4 140 10 140 6 0 10 70 10 190 0 120 4 190 10 190 7 0 10 190 10 550 0 360
-3 550 -10 550 -16 0 -14 1177 2 1182 9 3 8 9 -4 21 -14 15 -43 17 -212 17
-124 0 -196 -4 -196 -10 0 -6 -27 -10 -60 -10 -33 0 -60 4 -60 10 0 6 -103 10
-290 10 -187 0 -290 4 -290 10 0 6 -83 10 -230 10 -147 0 -230 4 -230 10 0 6
-87 10 -240 10 -153 0 -240 4 -240 10 0 7 -163 10 -470 10 -307 0 -470 -3
-470 -10z m-820 -280 c0 -5 11 -10 25 -10 26 0 75 -40 75 -60 0 -17 -26 -40
-44 -40 -9 0 -16 -4 -16 -10 0 -6 -33 -10 -80 -10 -47 0 -80 -4 -80 -10 0 -6
-57 -10 -150 -10 -93 0 -150 -4 -150 -10 0 -5 -22 -10 -50 -10 l-50 0 0 -240
c0 -153 -4 -240 -10 -240 -6 0 -10 -63 -10 -170 0 -107 -4 -170 -10 -170 -6 0
-10 -29 -10 -66 0 -73 -12 -94 -54 -94 -22 0 -26 4 -26 30 0 17 -4 30 -10 30
-6 0 -10 27 -10 60 0 33 -4 60 -10 60 -6 0 -10 127 -10 360 0 233 4 360 10
360 6 0 10 27 10 60 0 33 4 60 10 60 6 0 10 7 10 15 0 26 66 85 95 85 14 0 25
5 25 10 0 6 57 10 150 10 93 0 150 4 150 10 0 6 43 10 110 10 67 0 110 -4 110
-10z m-574 -1504 c8 -8 14 -22 14 -30 0 -9 5 -16 10 -16 6 0 10 -33 10 -80 0
-47 4 -80 10 -80 6 0 10 -9 10 -20 0 -11 -4 -20 -10 -20 -6 0 -10 -27 -10 -60
0 -52 -2 -60 -19 -60 -11 0 -21 -5 -23 -12 -7 -21 -58 38 -58 67 0 14 -4 25
-10 25 -6 0 -10 43 -10 110 0 67 4 110 10 110 6 0 10 11 10 25 0 47 37 69 66
41z m4054 -1246 c0 -73 -4 -120 -10 -120 -5 0 -10 -18 -10 -40 0 -22 -4 -40
-10 -40 -5 0 -10 -12 -10 -26 0 -28 -21 -54 -43 -54 -9 0 -17 -6 -19 -12 -3
-9 -9 -8 -21 4 -13 13 -17 35 -17 92 0 44 4 76 10 76 6 0 10 23 10 50 0 28 5
50 10 50 6 0 10 18 10 40 0 22 5 40 10 40 6 0 10 7 10 15 0 25 23 44 53 45
l27 0 0 -120z m-194 -674 c16 -17 20 -106 4 -106 -5 0 -10 -13 -10 -30 0 -16
-4 -30 -10 -30 -5 0 -10 -13 -10 -30 0 -16 -4 -30 -10 -30 -5 0 -10 -13 -10
-30 0 -16 -4 -30 -10 -30 -5 0 -10 -9 -10 -20 0 -11 -4 -20 -10 -20 -5 0 -10
-9 -10 -20 0 -11 -4 -20 -10 -20 -5 0 -10 -9 -10 -20 0 -11 -4 -20 -10 -20 -5
0 -10 -8 -10 -18 0 -10 -9 -24 -20 -32 -11 -8 -20 -21 -20 -30 0 -9 -9 -22
-20 -30 -11 -8 -20 -21 -20 -30 0 -9 -9 -22 -20 -30 -11 -8 -20 -21 -20 -28 0
-7 -18 -31 -40 -52 -22 -21 -40 -43 -40 -49 0 -15 -227 -241 -241 -241 -6 0
-24 -13 -39 -30 -15 -16 -35 -30 -44 -30 -9 0 -16 -4 -16 -10 0 -5 -9 -10 -20
-10 -11 0 -20 -4 -20 -10 0 -5 -9 -10 -20 -10 -11 0 -20 -4 -20 -10 0 -5 -18
-10 -40 -10 -33 0 -40 3 -40 20 0 11 5 20 10 20 6 0 10 8 10 18 0 10 9 24 20
32 11 8 20 20 20 28 0 7 50 62 110 122 61 60 110 114 110 120 0 6 32 42 70 80
39 38 70 74 70 81 0 6 14 24 30 39 17 15 30 34 30 42 0 7 9 20 20 28 11 8 20
21 20 30 0 9 9 22 20 30 11 8 20 21 20 30 0 9 9 22 20 30 11 8 20 22 20 32 0
10 5 18 10 18 6 0 10 9 10 20 0 11 5 20 10 20 6 0 10 9 10 20 0 11 5 20 10 20
6 0 10 8 10 18 0 10 9 24 20 32 11 8 20 22 20 32 0 10 5 18 10 18 6 0 10 9 10
20 0 11 5 20 10 20 6 0 10 7 10 15 0 40 57 60 86 31z"/>
<path d="M4760 5830 c0 -5 -9 -10 -20 -10 -16 0 -20 -7 -20 -30 0 -23 4 -30
20 -30 11 0 20 5 20 10 0 6 30 10 70 10 39 0 70 2 70 5 0 3 -11 17 -25 30 -18
19 -35 25 -70 25 -25 0 -45 -4 -45 -10z"/>
<path d="M4700 5610 c0 -6 -27 -10 -60 -10 -33 0 -60 -4 -60 -10 0 -5 -13 -10
-30 -10 -16 0 -30 -4 -30 -10 0 -5 -13 -10 -30 -10 -16 0 -30 -4 -30 -10 0 -5
-9 -10 -20 -10 -11 0 -20 -4 -20 -10 0 -5 -9 -10 -20 -10 -11 0 -20 -4 -20
-10 0 -5 -8 -10 -18 -10 -10 0 -24 -9 -32 -20 -8 -11 -20 -20 -27 -20 -17 0
-183 -166 -183 -183 0 -7 -9 -19 -20 -27 -11 -8 -20 -22 -20 -32 0 -10 -4 -18
-10 -18 -5 0 -10 -9 -10 -20 0 -11 -4 -20 -10 -20 -5 0 -10 -13 -10 -30 0 -16
-4 -30 -10 -30 -5 0 -10 -18 -10 -40 0 -22 -4 -40 -10 -40 -6 0 -10 -60 -10
-160 0 -100 4 -160 10 -160 6 0 10 -13 10 -30 0 -16 5 -30 10 -30 6 0 10 -13
10 -30 0 -16 5 -30 10 -30 6 0 10 -9 10 -20 0 -11 5 -20 10 -20 6 0 10 -8 10
-18 0 -10 9 -24 20 -32 11 -8 20 -20 20 -27 0 -17 106 -123 123 -123 7 0 19
-9 27 -20 8 -11 22 -20 32 -20 10 0 18 -4 18 -10 0 -5 14 -10 30 -10 17 0 30
-4 30 -10 0 -6 50 -10 130 -10 80 0 130 4 130 10 0 6 14 10 30 10 17 0 30 5
30 10 0 6 9 10 20 10 11 0 20 5 20 10 0 6 7 10 15 10 19 0 85 64 85 82 0 8 9
20 20 28 12 8 20 26 20 42 0 15 5 28 10 28 6 0 10 27 10 60 0 33 -4 60 -10 60
-5 0 -10 14 -10 30 0 17 -4 30 -10 30 -5 0 -10 7 -10 15 0 20 -45 65 -65 65
-8 0 -15 5 -15 10 0 6 -22 10 -50 10 -27 0 -50 -4 -50 -10 0 -5 -7 -10 -16
-10 -20 0 -44 -24 -44 -44 0 -9 -4 -16 -10 -16 -6 0 -10 -30 -10 -70 0 -40 -4
-70 -10 -70 -5 0 -10 -7 -10 -16 0 -20 -24 -44 -44 -44 -9 0 -16 -4 -16 -10 0
-5 -22 -10 -50 -10 -27 0 -50 5 -50 10 0 6 -13 10 -28 10 -16 0 -34 8 -42 20
-8 11 -20 20 -28 20 -18 0 -82 66 -82 85 0 8 -4 15 -10 15 -5 0 -10 9 -10 20
0 11 -4 20 -10 20 -5 0 -10 14 -10 30 0 17 -4 30 -10 30 -6 0 -10 47 -10 120
0 73 4 120 10 120 6 0 10 18 10 40 0 22 5 40 10 40 6 0 10 9 10 20 0 11 5 20
10 20 6 0 10 8 10 18 0 10 9 24 20 32 11 8 20 20 20 27 0 19 146 163 165 163
8 0 15 5 15 10 0 6 8 10 18 10 10 0 24 9 32 20 8 12 26 20 42 20 15 0 28 5 28
10 0 6 14 10 30 10 17 0 30 5 30 10 0 6 27 10 60 10 33 0 60 4 60 10 0 6 18
10 40 10 22 0 40 -4 40 -10 0 -6 30 -10 70 -10 40 0 70 -4 70 -10 0 -5 14 -10
30 -10 17 0 30 -4 30 -10 0 -5 14 -10 30 -10 17 0 30 -4 30 -10 0 -5 9 -10 20
-10 11 0 20 -4 20 -10 0 -5 7 -10 16 -10 9 0 29 -13 44 -30 15 -16 33 -30 39
-30 16 0 101 -87 101 -103 0 -7 9 -19 20 -27 11 -8 20 -22 20 -32 0 -10 5 -18
10 -18 6 0 10 -9 10 -20 0 -11 5 -20 10 -20 6 0 10 -9 10 -20 0 -11 5 -20 10
-20 6 0 10 -13 10 -30 0 -16 5 -30 10 -30 6 0 10 -18 10 -40 0 -22 5 -40 10
-40 6 0 10 -63 10 -170 0 -107 -4 -170 -10 -170 -5 0 -10 -18 -10 -40 0 -22
-4 -40 -10 -40 -5 0 -10 -9 -10 -20 0 -11 -4 -20 -10 -20 -5 0 -10 -9 -10 -20
0 -11 -4 -20 -10 -20 -5 0 -10 -9 -10 -20 0 -11 -4 -20 -10 -20 -5 0 -10 -8
-10 -18 0 -10 -9 -24 -20 -32 -11 -8 -20 -20 -20 -27 0 -15 -245 -263 -260
-263 -15 0 -220 -208 -220 -223 0 -7 -9 -19 -20 -27 -11 -8 -20 -22 -20 -32 0
-10 -4 -18 -10 -18 -5 0 -10 -9 -10 -20 0 -11 -4 -20 -10 -20 -5 0 -10 -13
-10 -30 0 -16 -4 -30 -10 -30 -5 0 -10 -13 -10 -30 0 -16 -4 -30 -10 -30 -6 0
-10 -30 -10 -70 0 -40 -4 -70 -10 -70 -5 0 -10 -4 -10 -10 0 -6 43 -10 110
-10 l110 0 0 50 c0 28 5 50 10 50 6 0 10 14 10 30 0 17 5 30 10 30 6 0 10 14
10 30 0 17 5 30 10 30 6 0 10 9 10 20 0 11 5 20 10 20 6 0 10 8 10 18 0 10 9
24 20 32 11 8 20 21 20 28 0 8 14 27 30 42 17 15 30 33 30 39 0 6 90 101 200
211 110 110 200 205 200 213 0 7 9 19 20 27 11 8 20 21 20 30 0 9 9 22 20 30
11 8 20 22 20 32 0 10 5 18 10 18 6 0 10 9 10 20 0 11 5 20 10 20 6 0 10 14
10 30 0 17 5 30 10 30 6 0 10 14 10 30 0 17 5 30 10 30 6 0 10 27 10 60 0 33
4 60 10 60 6 0 10 33 10 80 0 47 -4 80 -10 80 -6 0 -10 30 -10 70 0 40 -4 70
-10 70 -5 0 -10 14 -10 30 0 17 -4 30 -10 30 -5 0 -10 14 -10 30 0 17 -4 30
-10 30 -5 0 -10 9 -10 20 0 11 -4 20 -10 20 -5 0 -10 9 -10 20 0 11 -4 20 -10
20 -5 0 -10 9 -10 20 0 11 -4 20 -10 20 -5 0 -10 7 -10 16 0 9 -13 29 -30 44
-16 15 -30 33 -30 39 0 15 -106 121 -121 121 -6 0 -24 14 -39 30 -15 17 -34
30 -42 30 -7 0 -20 9 -28 20 -8 11 -22 20 -32 20 -10 0 -18 5 -18 10 0 6 -13
10 -30 10 -16 0 -30 5 -30 10 0 6 -9 10 -20 10 -11 0 -20 5 -20 10 0 6 -18 10
-40 10 -22 0 -40 5 -40 10 0 6 -18 10 -40 10 -22 0 -40 5 -40 10 0 6 -50 10
-130 10 -80 0 -130 -4 -130 -10z"/>
<path d="M5492 5565 c-11 -13 -9 -19 12 -40 14 -14 32 -25 41 -25 8 0 15 -7
15 -16 0 -15 23 -44 34 -44 3 0 6 21 6 46 0 47 -16 74 -44 74 -9 0 -16 5 -16
10 0 15 -33 11 -48 -5z"/>
<path d="M4053 5505 c-13 -14 -19 -85 -8 -85 7 0 95 88 95 95 0 12 -76 3 -87
-10z"/>
<path d="M5840 4860 c0 -11 5 -20 10 -20 6 0 10 -30 10 -70 0 -40 -4 -70 -10
-70 -5 0 -10 -4 -10 -10 0 -18 31 -10 55 15 33 32 35 103 5 125 -11 8 -20 22
-20 32 0 11 -7 18 -20 18 -13 0 -20 -7 -20 -20z"/>
<path d="M3813 4825 c-18 -19 -16 -93 1 -111 25 -24 46 -17 46 16 0 17 -4 30
-10 30 -5 0 -10 18 -10 40 0 42 -7 48 -27 25z"/>
<path d="M4220 4165 c0 -29 47 -65 85 -65 28 0 35 4 35 20 0 16 -7 20 -30 20
-16 0 -30 5 -30 10 0 6 -9 10 -20 10 -11 0 -20 5 -20 10 0 6 -4 10 -10 10 -5
0 -10 -7 -10 -15z"/>
<path d="M5603 4075 c-51 -53 -59 -95 -18 -95 42 0 75 41 75 95 0 25 -3 45 -7
44 -5 0 -27 -20 -50 -44z"/>
<path d="M4540 3230 c0 -5 -9 -10 -20 -10 -23 0 -27 -25 -6 -46 10 -9 37 -14
80 -14 37 0 66 -4 66 -10 0 -6 70 -10 190 -10 120 0 190 4 190 10 0 6 14 10
30 10 17 0 30 5 30 10 0 6 9 10 20 10 11 0 20 3 20 6 0 11 -29 34 -44 34 -9 0
-16 5 -16 10 0 6 -97 10 -270 10 -173 0 -270 -4 -270 -10z"/>
<path d="M4580 2940 l0 -40 200 0 c127 0 200 4 200 10 0 6 14 10 30 10 23 0
30 4 30 20 0 19 -7 20 -130 20 -80 0 -130 4 -130 10 0 6 -40 10 -100 10 l-100
0 0 -40z"/>
<path d="M4680 2700 c0 -33 4 -60 10 -60 16 0 14 -2037 -2 -2042 -16 -6 14
-38 34 -38 8 0 20 -9 28 -20 8 -11 22 -20 31 -20 10 0 19 -6 22 -12 3 -9 11
-6 24 10 11 12 27 22 34 22 8 0 21 9 29 20 8 11 20 20 28 20 7 0 20 6 28 14
16 17 19 66 4 66 -7 0 -10 153 -10 440 0 287 -3 440 -10 440 -7 0 -10 143 -10
410 0 267 -3 410 -10 410 -6 0 -10 73 -10 200 l0 200 -30 0 c-27 0 -30 -3 -30
-30 0 -16 5 -30 10 -30 6 0 10 -63 10 -170 0 -107 4 -170 10 -170 7 0 10 -170
10 -490 0 -320 -3 -490 -10 -490 -6 0 -10 40 -10 100 0 60 -4 100 -10 100 -6
0 -10 40 -10 100 0 60 -4 100 -10 100 -6 0 -10 47 -10 120 0 73 -4 120 -10
120 -6 0 -10 80 -10 220 0 140 -4 220 -10 220 -5 0 -10 14 -10 30 0 17 5 30
10 30 6 0 10 47 10 120 l0 120 -60 0 -60 0 0 -60z m220 -1360 c0 -11 -4 -20
-10 -20 -5 0 -10 9 -10 20 0 11 5 20 10 20 6 0 10 -9 10 -20z"/>
</g>
</svg>
