<?xml version="1.0" standalone="no"?>
<!DOCTYPE svg PUBLIC "-//W3C//DTD SVG 20010904//EN"
 "http://www.w3.org/TR/2001/REC-SVG-20010904/DTD/svg10.dtd">
<svg version="1.0" xmlns="http://www.w3.org/2000/svg" viewBox="0 0 400.000000 252.000000"
 preserveAspectRatio="xMidYMid meet">
<metadata>
Created by potrace 1.16, written by Peter Selinger 2001-2019
</metadata>
<g transform="translate(0.000000,252.000000) scale(0.100000,-0.100000)"
fill="currentColor" stroke="none">
<path d="M1585 2229 c-404 -52 -764 -273 -959 -589 -64 -105 -80 -139 -161
-345 -63 -160 -69 -171 -131 -237 -119 -125 -101 -206 66 -303 36 -20 66 -38
67 -39 1 -1 -14 -36 -34 -77 -149 -308 -64 -482 237 -483 200 -1 282 83 231
237 -18 53 -6 101 22 92 12 -4 42 -12 67 -18 63 -17 67 -21 73 -73 10 -90 74
-124 234 -123 167 1 233 27 233 91 l0 28 88 0 c244 0 580 48 811 116 22 6 24
5 17 -17 -31 -113 -15 -277 32 -322 72 -69 345 -76 444 -12 44 29 49 49 52
199 4 156 18 326 27 326 21 0 32 -50 31 -135 -3 -178 21 -208 172 -213 226 -9
296 53 296 262 0 132 -28 229 -90 315 -37 50 -36 52 50 75 244 65 344 169 345
356 0 233 -159 344 -434 301 -78 -12 -211 -62 -232 -87 -16 -20 -24 -18 -36 9
-6 13 -44 43 -84 67 -50 29 -120 88 -215 181 -347 339 -752 477 -1219 418z
m86 -111 c-37 -38 -91 -128 -91 -152 0 -10 -21 -26 -57 -41 -48 -22 -170 -91
-224 -127 -13 -9 -35 -4 -100 24 -46 19 -92 38 -101 41 -19 7 -22 25 -11 77
13 70 384 205 572 209 l43 1 -31 -32z m414 2 c186 -41 299 -89 263 -111 -10
-5 -18 -15 -18 -22 0 -7 -9 -23 -20 -37 -11 -14 -20 -33 -20 -42 0 -16 -10
-18 -73 -18 -84 0 -148 -17 -260 -67 l-78 -35 -72 50 c-40 27 -96 61 -124 76
-60 30 -61 31 -31 83 32 57 47 72 113 116 l60 39 85 -6 c47 -3 126 -15 175
-26z m394 -157 c84 -49 150 -103 273 -224 l123 -120 -66 6 c-64 6 -149 -9
-188 -34 -11 -7 -44 18 -127 96 -172 162 -177 174 -113 262 36 48 39 49 98 14z
m-1439 -67 c0 -28 -6 -38 -40 -60 -135 -89 -300 -317 -365 -503 -21 -60 -26
-66 -53 -69 l-30 -4 20 58 c83 239 225 442 398 571 67 50 70 50 70 7z m648
-53 c42 -26 97 -59 121 -75 57 -36 92 -35 182 3 101 43 153 58 229 65 l65 6
19 -36 c18 -35 169 -190 228 -236 l28 -21 -30 -58 c-16 -33 -43 -69 -60 -82
-17 -13 -69 -57 -116 -97 -98 -83 -122 -96 -255 -142 l-96 -34 -84 19 c-46 10
-88 22 -93 26 -10 9 5 213 31 395 16 116 14 154 -6 154 -31 0 -105 -456 -86
-533 8 -29 -27 -59 -105 -93 -61 -26 -456 -21 -500 6 -15 9 2 94 71 350 17 63
33 150 36 193 4 58 9 77 20 77 8 0 49 19 91 42 254 137 215 128 310 71z m-563
-46 c22 -10 57 -25 78 -34 34 -15 37 -20 32 -42 -4 -14 -21 -80 -37 -146 -16
-66 -33 -133 -38 -150 -5 -16 -25 -88 -43 -160 l-34 -130 -64 -22 c-188 -63
-442 52 -371 169 11 18 41 74 67 123 86 163 326 434 364 412 3 -2 24 -11 46
-20z m1840 -244 c10 -3 -3 -20 -41 -55 -30 -28 -73 -83 -96 -122 -22 -39 -42
-72 -43 -74 -3 -3 -170 48 -217 66 l-26 11 35 70 c19 39 36 71 36 71 1 0 29
12 62 25 58 25 234 30 290 8z m618 3 c120 -36 170 -137 141 -285 l-7 -32 -58
7 c-39 4 -80 1 -126 -9 -37 -9 -89 -19 -115 -22 -60 -8 -64 -30 -8 -46 30 -9
53 -9 96 0 151 30 197 8 93 -45 -156 -79 -295 -108 -511 -108 -120 0 -158 -4
-158 -13 0 -19 45 -44 89 -50 49 -7 44 -23 -7 -23 -20 0 -56 -5 -80 -10 -41
-10 -45 -9 -83 24 -22 18 -61 44 -87 57 -26 13 -49 25 -51 26 -2 1 14 24 36
50 41 50 125 191 137 231 5 15 15 22 31 22 52 0 133 41 201 101 137 121 318
170 467 125z m-576 -111 c-27 -24 -47 -32 -47 -19 0 11 45 43 60 43 10 0 5 -8
-13 -24z m-324 -180 c31 -9 57 -22 57 -29 0 -52 -218 -286 -267 -286 -4 0 -21
23 -37 51 -16 28 -48 80 -72 115 -57 83 -57 83 84 192 l53 41 62 -34 c34 -18
88 -41 120 -50z m-2069 -115 c19 -27 32 -51 27 -54 -4 -3 -16 -27 -25 -53 -10
-26 -24 -61 -31 -78 -7 -16 -19 -47 -26 -68 -7 -20 -26 -49 -41 -64 l-28 -26
-42 19 c-118 53 -127 83 -48 170 35 38 75 96 93 135 42 90 67 94 121 19z
m1680 -4 c3 -13 33 -71 66 -128 33 -56 60 -106 60 -109 0 -18 -296 -149 -335
-149 -13 0 -43 116 -50 195 -3 33 -8 77 -10 97 l-5 37 52 11 c29 6 85 24 123
40 87 35 91 35 99 6z m-444 -31 c16 -8 57 -18 90 -22 56 -5 60 -7 53 -27 -17
-45 -9 -229 11 -274 12 -26 16 -46 10 -51 -24 -24 -340 -89 -354 -74 -19 22
-31 136 -26 246 l5 119 68 32 c37 18 74 40 82 49 17 21 24 21 61 2z m-1067
-67 c59 -18 76 -26 71 -38 -3 -8 -14 -64 -25 -125 -36 -199 -21 -187 -174
-139 -113 35 -115 37 -84 71 30 33 85 161 95 222 5 33 10 41 23 37 9 -3 51
-16 94 -28z m377 15 c14 -6 34 -14 45 -18 18 -6 18 -7 4 -15 -54 -31 -83 -269
-44 -362 9 -22 -8 -23 -122 -8 -207 27 -214 30 -189 79 19 35 40 192 33 242
-5 38 -4 39 31 44 21 3 75 16 122 29 47 13 87 23 90 22 3 -1 16 -7 30 -13z
m428 -48 c2 -2 -2 -47 -8 -100 -14 -105 -9 -169 16 -216 23 -46 15 -49 -172
-56 -230 -8 -218 -17 -211 150 2 73 10 156 18 185 l13 54 170 -7 c94 -4 172
-9 174 -10z m1116 -79 c104 -46 180 -148 195 -262 22 -159 -36 -431 -81 -386
-20 20 -65 14 -82 -10 -12 -17 -18 -19 -30 -9 -29 24 -79 9 -99 -29 -18 -37
-38 -41 -69 -13 -23 21 -24 154 -3 266 28 145 -5 242 -59 173 -11 -15 -94 12
-153 51 -32 22 -31 24 44 63 74 38 202 120 246 156 34 29 25 29 91 0z m631
-60 c72 -101 85 -176 24 -138 -26 17 -33 10 -25 -23 8 -31 32 -42 56 -27 22
13 30 6 30 -27 0 -40 -17 -61 -31 -38 -15 25 -39 21 -39 -6 0 -29 18 -47 47
-47 18 0 23 -6 23 -25 0 -21 -5 -25 -28 -25 -18 0 -38 -10 -52 -25 -16 -17
-27 -22 -34 -15 -30 30 -96 -5 -96 -52 0 -14 -8 -18 -34 -18 -56 0 -66 19 -66
123 -1 57 -7 107 -16 132 -28 73 -28 71 18 98 60 35 79 59 85 109 7 66 9 68
52 68 38 0 43 -4 86 -64z m-225 -20 c0 -3 -113 -71 -141 -84 -7 -3 -29 44 -29
63 0 8 13 15 33 18 47 6 137 8 137 3z m-839 -185 c22 -21 58 -47 80 -56 63
-29 57 -33 -101 -69 -377 -86 -951 -87 -1237 -1 -62 18 -72 40 -15 31 336 -55
851 -7 1142 107 85 33 84 33 131 -12z m-1645 -11 c28 -10 94 -28 147 -40 54
-12 97 -23 97 -24 0 -1 -10 -22 -21 -47 -12 -24 -25 -55 -29 -69 -6 -24 -8
-25 -87 -21 -121 5 -183 -29 -75 -42 165 -20 162 -19 162 -39 0 -10 -12 -30
-27 -43 l-28 -24 -22 21 c-27 26 -58 17 -83 -24 -18 -30 -18 -30 -29 -9 -31
58 -85 60 -115 4 l-14 -27 -36 36 c-44 44 -46 75 -12 168 48 131 90 211 106
204 8 -3 38 -14 66 -24z m2774 -205 c0 -8 -7 -15 -15 -15 -16 0 -20 12 -8 23
11 12 23 8 23 -8z m-112 -28 c2 -10 -3 -17 -12 -17 -10 0 -16 9 -16 21 0 24
23 21 28 -4z m-1985 -18 c133 -13 137 -14 137 -32 0 -26 -209 -38 -267 -16
-53 20 -64 76 -13 65 17 -3 81 -11 143 -17z m-477 -136 c-10 -10 -19 5 -10 18
6 11 8 11 12 0 2 -7 1 -15 -2 -18z m-238 -11 c2 -7 -3 -12 -12 -12 -9 0 -16 7
-16 16 0 17 22 14 28 -4z m142 -12 c0 -5 -7 -10 -16 -10 -8 0 -12 5 -9 10 3 6
10 10 16 10 5 0 9 -4 9 -10z m2156 -27 c-11 -11 -19 6 -11 24 8 17 8 17 12 0
3 -10 2 -21 -1 -24z m-206 -8 c0 -18 -5 -25 -20 -25 -21 0 -24 8 -14 34 10 25
34 19 34 -9z m120 -6 c0 -12 -7 -19 -20 -19 -23 0 -24 4 -9 31 12 23 29 16 29
-12z M3363 1519 c-76 -22 -105 -135 -50 -195 56 -62 191 -50 213 19 9 28 -3
33 -29 10 -78 -73 -206 -22 -183 72 7 26 60 66 80 60 6 -2 24 -6 40 -10 16 -3
44 -23 63 -43 l33 -36 0 26 c0 47 -83 115 -130 107 -3 0 -19 -5 -37 -10z
M3370 1440 c-62 -62 24 -144 94 -89 34 26 34 62 0 88 -34 26 -68 27 -94 1z
M3657 1424 c-17 -17 -7 -45 16 -42 14 2 22 10 22 23 0 20 -25 32 -38 19z
M2730 767 c0 -72 87 -113 119 -56 21 37 6 74 -16 42 -22 -33 -40 -28 -53 12
-16 48 -50 50 -50 2z M2649 677 c-12 -27 10 -83 37 -94 27 -10 64 14 64 42 0
25 -14 33 -25 15 -13 -20 -36 -9 -42 20 -8 40 -20 47 -34 17z M2780 610 c0
-31 37 -80 60 -80 26 0 50 22 50 45 0 25 -14 33 -25 15 -13 -20 -36 -9 -41 20
-9 43 -44 42 -44 0z M2630 512 c0 -26 37 -57 54 -43 19 16 21 41 4 41 -7 0
-23 3 -35 6 -13 4 -23 2 -23 -4z M2746 493 c-13 -13 -5 -50 13 -67 22 -20 56
-14 65 10 9 23 -3 37 -19 24 -16 -13 -35 -5 -35 15 0 16 -14 27 -24 18z M3274
836 c-8 -21 15 -58 34 -54 24 5 28 39 6 55 -23 17 -33 16 -40 -1z M3247 744
c-16 -16 -6 -35 16 -32 12 2 22 10 22 18 0 16 -26 25 -38 14z M3255 641 c-9
-16 14 -51 34 -51 20 0 37 29 24 41 -15 13 -51 20 -58 10z M664 549 c-10 -16
18 -39 51 -42 43 -3 46 27 4 42 -40 14 -46 14 -55 0z M675 2159 c-50 -44 -45
-89 8 -75 40 10 79 106 42 106 -8 0 -30 -14 -50 -31z M428 2129 c-22 -13 -23
-45 -2 -53 53 -20 132 16 105 48 -15 18 -76 21 -103 5z M500 1959 c-97 -58
-128 -149 -50 -149 23 0 105 56 122 83 47 73 5 112 -72 66z"/>
</g>
</svg>
