<?xml version="1.0" standalone="no"?>
<!DOCTYPE svg PUBLIC "-//W3C//DTD SVG 20010904//EN"
 "http://www.w3.org/TR/2001/REC-SVG-20010904/DTD/svg10.dtd">
<svg version="1.0" xmlns="http://www.w3.org/2000/svg" viewBox="0 0 400.000000 313.000000"
 preserveAspectRatio="xMidYMid meet">
<metadata>
Created by potrace 1.16, written by Peter Selinger 2001-2019
</metadata>
<g transform="translate(0.000000,313.000000) scale(0.100000,-0.100000)"
fill="currentColor" stroke="none">
<path d="M2295 2806 c-92 -18 -166 -47 -305 -119 l-115 -60 -70 12 c-184 29
-258 33 -389 21 -588 -51 -1050 -367 -1061 -723 l-2 -77 -85 -88 c-125 -128
-149 -215 -77 -276 54 -46 118 -38 320 39 304 117 502 157 531 108 57 -98 233
-203 341 -203 77 0 84 27 32 124 -48 90 -45 94 33 37 293 -212 657 -227 456
-19 -82 84 -80 86 48 54 374 -92 636 -274 859 -599 60 -86 60 -76 -7 -144 -99
-101 -156 -284 -114 -364 13 -23 62 -26 81 -3 23 28 107 64 166 70 32 4 73 13
90 20 30 12 37 11 78 -12 32 -18 69 -28 127 -34 101 -9 152 -26 222 -75 169
-116 117 157 -63 330 -52 51 -212 167 -243 177 -6 2 -14 42 -19 88 -53 475
-231 853 -550 1171 -91 90 -149 155 -151 170 -6 36 8 86 32 122 21 31 36 43
128 107 133 94 -63 191 -293 146z m225 -82 c5 -6 -6 -15 -73 -64 -155 -112
-137 -253 58 -440 302 -291 478 -644 545 -1100 21 -140 32 -168 78 -197 144
-91 255 -192 311 -285 26 -43 25 -43 -44 -23 -27 9 -93 23 -145 31 -77 12
-102 21 -132 45 -43 34 -73 37 -102 10 -14 -14 -45 -23 -97 -29 -41 -5 -94
-19 -118 -31 l-43 -22 7 43 c8 53 56 136 108 186 l38 37 19 -22 c95 -117 21
116 -93 290 -29 45 -73 118 -96 162 -154 285 -409 487 -738 584 -106 31 -256
56 -273 46 -23 -14 -4 -23 103 -49 336 -83 567 -214 745 -423 92 -108 95 -125
9 -55 -188 154 -416 256 -679 304 l-120 22 -34 73 c-29 61 -39 73 -59 73 -68
0 15 -206 134 -332 42 -45 30 -49 -72 -22 -134 34 -247 106 -392 246 -117 113
-152 132 -141 77 3 -18 13 -40 21 -49 23 -26 21 -27 -82 -33 -207 -14 -501
-91 -698 -183 -86 -40 -185 -61 -108 -23 96 47 314 206 328 238 16 39 -22 23
-139 -59 -181 -127 -306 -187 -306 -146 0 12 33 62 50 76 82 67 140 155 140
209 0 401 626 755 1220 690 236 -26 254 -24 415 52 206 98 408 139 455 93z
m-1210 -1047 c0 -12 11 -52 24 -89 27 -82 24 -83 -78 -33 -70 34 -175 119
-162 132 7 7 196 21 209 15 4 -2 7 -13 7 -25z M1430 2514 c-177 -22 -352 -69
-460 -124 -94 -47 -110 -90 -22 -56 285 110 516 143 805 113 134 -14 107 20
-43 52 -54 11 -231 21 -280 15z M1935 2430 c-8 -13 53 -50 83 -50 32 0 28 27
-8 45 -33 17 -66 20 -75 5z M769 1991 c-45 -45 -36 -67 26 -63 66 4 97 25 93
60 -5 43 -77 45 -119 3z M2225 825 c-56 -55 -24 -88 92 -96 48 -4 100 -10 116
-14 39 -10 37 23 -5 71 -59 67 -157 86 -203 39z m120 -35 c4 -6 -12 -10 -39
-10 -25 0 -46 5 -46 10 0 6 18 10 39 10 22 0 43 -4 46 -10z M3748 830 c-54
-16 -108 -73 -108 -112 0 -29 27 -21 71 22 25 24 51 40 65 40 34 0 30 -9 -11
-26 -19 -8 -35 -19 -35 -25 0 -17 78 -4 101 17 51 46 -9 107 -83 84z M2155
556 c-332 -83 -121 -301 299 -309 168 -4 124 25 -107 68 -323 61 -375 117
-182 198 108 46 102 71 -10 43z M2440 544 c-72 -31 -92 -83 -48 -124 70 -65
517 -110 535 -53 6 17 -17 21 -172 33 -291 23 -385 61 -275 112 83 38 45 69
-40 32z M3650 547 c0 -10 12 -19 28 -23 41 -11 132 -55 132 -66 0 -24 -121
-59 -290 -83 -160 -24 -157 -64 4 -50 297 25 432 118 291 201 -57 33 -165 46
-165 21z M2982 219 c-13 -5 -22 -14 -20 -21 13 -39 413 -27 413 12 0 18 -352
26 -393 9z"/>
</g>
</svg>
