<?xml version="1.0" standalone="no"?>
<!DOCTYPE svg PUBLIC "-//W3C//DTD SVG 20010904//EN"
 "http://www.w3.org/TR/2001/REC-SVG-20010904/DTD/svg10.dtd">
<svg version="1.0" xmlns="http://www.w3.org/2000/svg" viewBox="0 0 400.000000 396.000000"
 preserveAspectRatio="xMidYMid meet">
<metadata>
Created by potrace 1.16, written by Peter Selinger 2001-2019
</metadata>
<g transform="translate(0.000000,396.000000) scale(0.100000,-0.100000)"
fill="currentColor" stroke="none">
<path d="M1113 3702 c-63 -23 -107 -58 -244 -198 -307 -313 -364 -412 -363
-629 0 -145 3 -156 117 -436 31 -75 61 -164 67 -199 13 -71 44 -176 70 -235
38 -87 39 -92 29 -136 -10 -44 -64 -139 -79 -139 -4 0 -38 -26 -76 -57 -106
-89 -251 -158 -387 -183 -61 -12 -77 -24 -77 -59 0 -102 256 -152 458 -90 l82
26 0 -116 c1 -686 245 -1105 662 -1137 277 -21 451 124 529 442 17 70 40 150
50 177 52 132 -32 218 -153 156 l-41 -21 -42 21 c-112 56 -158 6 -139 -151 13
-110 -16 -168 -84 -168 -109 0 -162 222 -116 484 20 114 23 121 81 136 167 46
325 182 419 362 24 48 49 87 54 85 4 -1 28 14 52 34 25 21 72 45 112 58 81 26
182 75 213 103 l21 20 4 -169 c5 -252 60 -333 235 -341 106 -6 158 22 266 141
156 174 186 199 274 230 88 30 140 69 238 179 44 49 80 77 134 105 121 62 162
106 232 249 34 69 78 143 100 166 124 135 120 244 -23 602 -169 426 -310 593
-558 662 -181 51 -588 -12 -828 -128 l-83 -40 -82 36 c-206 90 -489 108 -695
44 -31 -9 -35 -7 -86 39 -89 81 -235 113 -343 75z m208 -92 c59 -19 120 -54
109 -62 -3 -3 -29 -19 -58 -37 -53 -34 -126 -108 -144 -147 -9 -19 -21 -22
-97 -26 -131 -8 -229 -65 -301 -179 -62 -95 -13 -107 75 -19 82 84 265 156
265 106 0 -31 -65 -139 -125 -207 -112 -127 -153 -265 -116 -395 40 -136 27
-263 -46 -468 -54 -150 -61 -150 -87 -3 -28 152 -35 177 -86 292 -194 448
-166 555 264 1002 157 164 211 186 347 143z m1859 -25 c227 -53 358 -208 519
-613 123 -308 129 -392 34 -493 -18 -19 -66 -97 -106 -174 -108 -207 -187
-260 -198 -135 -8 93 -36 162 -97 238 -30 37 -69 97 -88 135 -36 70 -44 77
-64 52 -22 -26 25 -141 104 -252 77 -108 98 -253 45 -319 -110 -141 -224 -227
-309 -236 l-35 -3 -6 95 c-10 134 -58 255 -90 223 -7 -7 -5 -30 5 -71 10 -38
16 -104 16 -182 l0 -122 -67 -85 c-136 -171 -165 -195 -251 -209 -132 -21
-178 56 -174 296 5 448 17 523 106 684 65 118 79 184 70 346 -8 152 7 202 88
298 208 245 439 280 589 90 61 -78 101 -51 46 30 -257 382 -900 50 -838 -433
15 -119 4 -180 -54 -302 -54 -114 -71 -178 -84 -332 l-9 -114 -52 -52 c-49
-50 -134 -100 -221 -130 l-41 -15 6 33 c28 163 30 297 2 297 -40 0 -60 -55
-81 -217 -23 -183 -28 -191 -93 -148 -125 82 -244 49 -316 -89 -99 -188 -242
-301 -430 -340 -188 -40 -90 -165 131 -166 77 0 77 -1 51 -96 -66 -244 -4
-508 136 -579 146 -74 250 21 243 222 -1 51 0 93 3 93 3 -1 16 -7 30 -15 33
-19 82 -19 127 0 48 20 49 17 19 -59 -14 -35 -26 -73 -26 -83 -2 -157 -107
-340 -232 -405 -116 -61 -440 -32 -363 32 38 32 14 49 -29 21 -40 -27 -62 -14
-159 89 -90 95 -97 120 -36 120 84 0 169 44 141 72 -8 8 -26 8 -69 -2 -135
-31 -155 -22 -187 87 -41 138 -47 127 66 128 79 0 101 3 115 17 32 32 4 42
-111 39 -125 -3 -126 -2 -129 117 l-2 77 45 3 c25 2 76 -4 114 -13 99 -24 118
2 33 47 -31 16 -63 23 -122 25 l-80 2 -3 137 c-3 156 21 401 41 421 38 38 163
27 275 -24 107 -49 127 -4 25 55 -89 52 -155 68 -224 53 -69 -15 -71 -11 -40
94 26 88 26 89 66 101 79 24 153 17 234 -21 82 -39 93 -41 111 -20 52 62 -224
157 -334 115 -31 -12 -31 -10 -5 71 45 135 134 146 339 43 102 -51 132 -35 58
31 -72 66 -139 90 -246 90 l-94 0 6 30 c28 144 29 173 11 287 -36 232 -34 244
85 393 66 83 170 259 170 288 0 19 84 138 113 160 259 197 838 118 1002 -137
48 -75 69 -92 100 -78 50 23 13 136 -70 215 l-46 45 78 25 c295 96 569 135
713 102z m-1376 -1896 c35 -27 33 -38 -15 -122 -108 -187 -289 -299 -506 -314
-121 -8 -119 2 12 67 133 66 237 163 304 285 62 112 132 141 205 84z m-1070
-101 c-4 -29 -9 -71 -13 -93 l-7 -40 -79 -24 c-44 -13 -115 -25 -157 -28 -121
-8 -193 14 -105 32 80 17 282 129 331 184 30 33 37 25 30 -31z M2000 2774 c-8
-1 -32 -5 -53 -9 -64 -10 -137 -90 -137 -150 0 -37 32 -32 64 9 46 60 91 81
176 81 68 0 75 2 75 20 0 28 -77 58 -125 49z M1986 2630 c-56 -17 -110 -96
-86 -125 31 -37 144 -23 180 22 61 78 11 134 -94 103z M1122 2448 c-52 -25
-22 -43 83 -48 87 -5 109 -10 168 -40 70 -35 83 -35 73 -2 -23 70 -240 130
-324 90z M2820 1094 c-74 -12 -93 -18 -120 -40 -86 -73 24 -132 134 -72 102
57 93 128 -14 112z M2482 940 c-59 -24 -104 -205 -58 -235 59 -39 136 56 136
167 0 72 -21 90 -78 68z M2712 754 c-48 -33 -33 -160 22 -179 40 -14 66 20 66
84 0 80 -43 127 -88 95z"/>
</g>
</svg>
