<?xml version="1.0" standalone="no"?>
<!DOCTYPE svg PUBLIC "-//W3C//DTD SVG 20010904//EN"
 "http://www.w3.org/TR/2001/REC-SVG-20010904/DTD/svg10.dtd">
<svg version="1.0" xmlns="http://www.w3.org/2000/svg" viewBox="0 0 400.000000 369.000000"
 preserveAspectRatio="xMidYMid meet">
<metadata>
Created by potrace 1.16, written by Peter Selinger 2001-2019
</metadata>
<g transform="translate(0.000000,369.000000) scale(0.100000,-0.100000)"
fill="currentColor" stroke="none">
<path d="M1298 3400 c-93 -50 -127 -165 -77 -267 55 -114 198 -131 259 -30 45
73 -10 172 -84 153 -48 -12 -43 -86 6 -86 28 0 19 -32 -14 -48 -80 -38 -149
85 -94 168 101 152 311 6 417 -289 l23 -65 -28 -20 c-204 -148 -246 -299 -118
-419 l30 -28 -33 -49 c-18 -27 -35 -55 -38 -62 -3 -10 -12 -8 -38 7 -584 336
-971 448 -1241 357 -344 -115 -137 -633 331 -827 107 -44 104 -37 41 -113
-160 -191 -152 -372 20 -460 198 -101 463 -18 715 222 44 42 81 76 82 76 1 0
-8 -21 -19 -47 -183 -414 -22 -922 340 -1069 61 -24 70 -41 89 -162 3 -18 9
-35 14 -38 5 -3 9 -13 9 -23 0 -26 38 -71 60 -71 28 0 45 31 83 160 l35 114
64 26 c361 146 504 629 322 1085 -4 11 27 -12 70 -52 192 -179 358 -262 523
-263 321 -1 428 265 205 511 -59 65 -59 70 3 89 336 105 634 508 527 716 -135
263 -690 182 -1327 -195 -87 -51 -82 -52 -128 16 -32 47 -36 59 -25 67 126 97
85 299 -82 406 -60 38 -62 51 -23 147 101 254 285 382 394 274 61 -62 24 -191
-55 -191 -54 0 -78 42 -30 54 37 10 31 66 -9 80 -86 30 -130 -116 -56 -185
155 -145 351 141 204 295 -153 158 -414 -2 -515 -317 -20 -62 -24 -68 -44 -62
-126 40 -165 41 -246 7 l-45 -19 -33 89 c-105 281 -302 423 -464 338z m747
-504 c72 -33 77 -42 59 -102 -16 -52 -12 -98 12 -168 16 -45 14 -52 -14 -37
-11 6 -51 15 -89 21 -69 11 -81 10 -242 -27 l-25 -6 22 28 c43 54 51 152 19
222 -12 27 -13 27 67 70 55 30 126 30 191 -1z m-1310 -281 c149 -45 340 -124
530 -221 277 -140 250 -119 250 -200 l0 -69 -110 -2 c-181 -3 -329 -43 -511
-138 l-105 -54 -89 29 c-351 115 -641 524 -456 645 83 55 325 59 491 10z
m2890 4 c228 -114 -66 -553 -444 -665 l-74 -21 -103 52 c-181 93 -340 135
-510 135 -57 0 -104 3 -105 8 -8 57 -6 132 4 140 13 11 124 70 257 137 434
219 804 300 975 214z m-1527 -134 c200 -92 249 -339 102 -517 -129 -156 -419
-124 -536 59 -174 272 134 595 434 458z m-603 -425 c-3 -5 -11 -10 -16 -10 -5
0 -65 -21 -132 -46 -156 -58 -414 -110 -382 -76 38 39 261 106 410 123 55 6
102 13 104 15 9 8 22 4 16 -6z m1110 -22 c73 -11 244 -66 305 -99 l35 -18 -45
0 c-93 -1 -392 82 -469 129 -18 12 54 7 174 -12z m-1037 -50 c49 -49 -235
-398 -420 -517 -398 -256 -724 2 -391 309 l63 57 73 -5 c166 -10 424 52 602
146 47 25 57 26 73 10z m859 -24 c211 -97 318 -124 521 -131 l153 -6 57 -63
c323 -352 -76 -553 -476 -240 -162 127 -379 406 -352 455 13 26 5 27 97 -15z
m-615 -165 c110 -37 211 -37 310 1 l58 21 32 -37 c18 -20 37 -44 42 -53 5 -9
18 -22 28 -29 131 -94 -378 -147 -630 -66 -64 21 -64 24 9 121 64 86 40 79
151 42z m-92 -506 c179 -41 453 -18 615 52 96 42 94 43 97 -79 l3 -98 -70 -28
c-233 -94 -657 -94 -845 -2 l-55 27 1 92 c2 131 -2 127 96 87 46 -18 117 -41
158 -51z m614 -495 c-122 -237 -440 -302 -648 -132 -79 64 -162 184 -108 156
101 -53 437 -75 587 -38 39 9 86 21 105 25 20 4 44 12 55 18 27 16 29 10 9
-29z M837 3094 c-18 -19 30 -97 96 -156 50 -46 127 -9 97 46 -24 45 -173 130
-193 110z M3069 1038 c-48 -39 -14 -91 66 -104 59 -8 99 4 103 33 6 42 -132
100 -169 71z M2891 871 c-28 -28 -26 -66 5 -129 53 -107 134 -117 134 -16 0
102 -89 195 -139 145z"/>
</g>
</svg>
