<?xml version="1.0" standalone="no"?>
<!DOCTYPE svg PUBLIC "-//W3C//DTD SVG 20010904//EN"
 "http://www.w3.org/TR/2001/REC-SVG-20010904/DTD/svg10.dtd">
<svg version="1.0" xmlns="http://www.w3.org/2000/svg" viewBox="0 0 400.000000 335.000000"
 preserveAspectRatio="xMidYMid meet">
<metadata>
Created by potrace 1.16, written by Peter Selinger 2001-2019
</metadata>
<g transform="translate(0.000000,335.000000) scale(0.100000,-0.100000)"
fill="currentColor" stroke="none">
<path d="M1730 3044 c-143 -22 -361 -78 -495 -129 -521 -197 -746 -426 -722
-735 6 -74 5 -79 -17 -94 -364 -238 -480 -777 -239 -1108 70 -96 90 -80 103
82 10 139 12 144 60 130 56 -16 180 -22 250 -12 78 11 77 12 117 -41 144 -191
170 -417 88 -764 -48 -201 44 -172 110 35 90 279 39 618 -118 789 -16 18 -17
23 -6 27 168 54 165 52 161 97 -7 63 140 127 313 138 136 8 145 11 145 51 0
44 -43 86 -134 130 -162 77 -216 132 -248 251 -38 142 -94 214 -210 269 -93
44 -148 47 -255 15 -29 -9 -31 38 -7 130 118 457 1254 804 1849 566 230 -93
514 -331 626 -527 9 -16 33 -55 53 -88 61 -100 161 -312 241 -516 175 -444
175 -445 205 -390 42 78 -224 774 -402 1051 -319 497 -860 734 -1468 643z
m-918 -928 c126 -37 206 -129 235 -266 24 -115 78 -171 248 -260 138 -72 136
-89 -5 -60 -25 5 -101 14 -170 20 -87 8 -127 15 -133 25 -25 45 -102 102 -212
155 -129 63 -163 94 -191 172 -8 24 -23 56 -33 73 l-18 31 45 39 c91 79 149
97 234 71z m-286 -208 c38 -115 73 -148 245 -232 102 -50 193 -105 186 -112
-1 -1 -39 -7 -84 -14 -81 -11 -170 -37 -270 -81 l-53 -23 -27 26 c-16 14 -46
37 -69 51 -62 38 -134 146 -134 201 0 50 141 227 187 236 1 0 9 -24 19 -52z
m584 -425 c0 -5 -26 -21 -57 -38 -41 -21 -64 -41 -80 -69 -33 -61 -162 -95
-388 -103 l-130 -4 35 30 c49 43 211 125 299 151 62 19 122 27 299 39 12 0 22
-2 22 -6z M742 1954 c-22 -15 -30 -62 -16 -98 8 -20 40 -21 48 -1 9 24 49 20
41 -4 -12 -39 54 -39 75 0 41 75 -73 156 -148 103z M3382 2955 c-23 -13 -53
-25 -65 -27 -34 -5 -32 -69 3 -81 47 -17 180 60 180 104 0 36 -56 38 -118 4z
M1965 2500 c-54 -9 -108 -21 -385 -89 -289 -72 -365 -129 -385 -296 -11 -97
35 -136 57 -48 30 118 82 167 222 207 71 21 71 21 51 -49 -87 -299 362 -451
523 -176 52 88 23 282 -49 326 -12 8 -2 25 15 25 7 0 57 -29 112 -64 54 -35
126 -72 159 -82 80 -24 82 -27 38 -59 -21 -15 -90 -80 -153 -144 -235 -240
-469 -275 -724 -108 -246 162 -210 -143 45 -376 109 -100 107 -114 -24 -133
-149 -22 -143 -86 25 -233 143 -127 231 -232 294 -352 183 -351 535 -314 551
59 5 93 3 104 -46 273 -80 277 -65 361 81 459 329 219 694 -15 603 -386 -33
-131 -26 -159 32 -138 108 38 137 285 53 449 l-43 82 24 39 c66 107 15 297
-115 426 -117 116 -228 166 -391 177 -134 9 -374 124 -306 146 102 32 -121 87
-264 65z m-43 -224 c14 -31 5 -53 -27 -68 -44 -20 -88 45 -53 80 22 22 67 15
80 -12z"/>
</g>
</svg>
