<?xml version="1.0" standalone="no"?>
<!DOCTYPE svg PUBLIC "-//W3C//DTD SVG 20010904//EN"
 "http://www.w3.org/TR/2001/REC-SVG-20010904/DTD/svg10.dtd">
<svg version="1.0" xmlns="http://www.w3.org/2000/svg" viewBox="0 0 400.000000 353.000000"
 preserveAspectRatio="xMidYMid meet">
<metadata>
Created by potrace 1.16, written by Peter Selinger 2001-2019
</metadata>
<g transform="translate(0.000000,353.000000) scale(0.100000,-0.100000)"
fill="currentColor" stroke="none">
<path d="M2839 3257 c-75 -26 -128 -59 -205 -129 l-52 -48 -58 21 c-154 53
-302 64 -450 34 -92 -19 -192 -16 -304 10 -109 25 -230 16 -335 -24 -83 -32
-119 -38 -130 -21 -39 63 -264 165 -344 156 -275 -31 -371 -353 -189 -634 38
-58 40 -66 28 -85 -149 -238 -282 -785 -244 -1009 l18 -110 -22 -37 c-181
-290 -345 -991 -232 -991 32 0 48 38 70 175 38 230 99 438 176 603 47 102 54
108 72 58 58 -160 139 -151 93 10 -93 323 -101 473 -37 704 64 230 148 460
202 549 44 73 44 76 -21 171 -117 171 -124 338 -20 442 78 79 186 69 322 -29
99 -71 149 -96 176 -88 12 4 58 20 102 37 102 39 201 46 305 23 167 -36 190
-38 295 -16 146 31 252 28 406 -10 150 -38 154 -37 244 41 171 148 310 153
392 13 57 -99 35 -210 -76 -367 -53 -76 -56 -59 48 -270 151 -305 248 -657
199 -714 -12 -13 -17 -51 -21 -152 -10 -250 -109 -528 -281 -790 -42 -63 -75
-119 -73 -125 29 -86 251 188 343 424 53 135 52 134 98 43 87 -172 165 -455
185 -671 10 -111 25 -141 67 -141 126 0 -11 619 -213 963 l-45 78 11 75 c6 41
11 106 11 145 0 45 6 81 16 102 55 105 -63 546 -228 854 l-49 91 51 77 c203
312 10 672 -301 562z M2900 3101 c-73 -23 -134 -79 -174 -159 -22 -42 -13 -53
81 -109 36 -21 75 -50 86 -65 37 -51 82 -27 58 30 -12 29 -97 122 -112 122
-19 0 -8 27 24 57 45 43 69 53 121 53 39 0 46 3 46 20 0 37 -77 68 -130 51z
M932 3060 c-49 -30 -40 -54 23 -60 116 -13 141 -53 76 -118 -54 -55 -75 -119
-52 -168 18 -41 45 -29 90 40 28 44 57 74 91 95 69 43 66 64 -24 159 -71 75
-138 92 -204 52z M1453 2360 c-109 -66 22 -190 162 -151 52 14 52 21 1 -141
-154 -487 -146 -733 27 -807 26 -11 47 -25 47 -31 0 -22 73 -89 118 -108 154
-66 354 -26 438 89 19 27 43 49 53 49 65 0 122 112 129 252 7 162 -7 231 -132
622 -30 92 -30 89 15 76 115 -35 255 68 187 137 -73 72 -233 11 -272 -104 -18
-53 -13 -84 47 -284 80 -263 98 -442 56 -554 -30 -82 -35 -82 -229 -32 l-85
22 -3 37 c-3 36 -3 36 72 72 135 65 186 198 114 299 -77 108 -407 99 -473 -13
-63 -109 -3 -239 137 -292 59 -22 68 -31 68 -70 0 -34 -12 -40 -120 -66 -177
-44 -198 -32 -220 124 -15 105 -6 174 52 399 79 310 82 334 42 403 -46 78
-162 114 -231 72z m621 -1074 c128 -32 131 -38 54 -77 -95 -48 -247 -43 -332
13 -56 36 -56 36 75 58 36 6 72 16 80 21 18 11 10 13 123 -15z M3000 2141 c0
-11 10 -59 21 -108 36 -149 18 -362 -26 -313 -38 43 -70 21 -85 -59 -31 -165
-66 -244 -164 -371 -84 -108 -68 -151 27 -72 101 84 178 212 199 331 11 66 13
69 29 55 105 -94 133 377 33 534 -18 27 -34 29 -34 3z M917 2123 c-94 -189
-22 -694 82 -581 16 16 21 18 24 7 29 -101 42 -134 74 -187 52 -86 86 -126
145 -172 83 -66 117 -42 52 36 -127 151 -182 249 -213 382 -24 101 -67 120
-93 40 -9 -26 -27 6 -42 72 -21 89 -20 191 1 288 28 128 10 196 -30 115z
M3560 1592 c-60 -58 -66 -95 -17 -100 56 -7 131 63 125 116 -5 48 -48 42 -108
-16z M3576 1341 c-24 -27 7 -82 65 -111 70 -36 104 -19 79 39 -29 70 -109 111
-144 72z M873 1115 c-23 -62 89 -284 183 -363 25 -20 107 -72 182 -115 75 -43
201 -121 279 -173 137 -92 163 -115 296 -268 56 -65 90 -29 48 52 -73 141
-256 284 -595 464 -173 92 -257 179 -318 333 -29 75 -61 104 -75 70z M2439
1058 c-41 -61 -103 -120 -200 -188 -88 -63 -209 -179 -209 -201 0 -26 -39 -3
-70 42 -50 74 -93 107 -210 162 -89 42 -114 60 -167 116 -52 55 -63 63 -69 48
-23 -60 74 -164 218 -235 101 -50 110 -56 163 -126 58 -78 69 -86 116 -86 44
0 81 23 131 80 24 27 79 77 123 110 115 87 171 145 201 205 40 83 19 140 -27
73z M2632 610 c-37 -40 -98 -99 -137 -132 -279 -240 -342 -308 -300 -324 29
-11 61 6 155 87 52 45 129 107 170 139 156 120 243 250 195 290 -14 11 -26 3
-83 -60z"/>
</g>
</svg>
