<?xml version="1.0" standalone="no"?>
<!DOCTYPE svg PUBLIC "-//W3C//DTD SVG 20010904//EN"
 "http://www.w3.org/TR/2001/REC-SVG-20010904/DTD/svg10.dtd">
<svg version="1.0" xmlns="http://www.w3.org/2000/svg" viewBox="0 0 400.000000 331.000000"
 preserveAspectRatio="xMidYMid meet">
<metadata>
Created by potrace 1.16, written by Peter Selinger 2001-2019
</metadata>
<g transform="translate(0.000000,331.000000) scale(0.100000,-0.100000)"
fill="currentColor" stroke="none">
<path d="M1910 3074 c-383 -35 -793 -189 -947 -357 -37 -40 -49 -61 -80 -137
-8 -18 -30 -33 -84 -54 -349 -137 -520 -291 -609 -546 -25 -72 -25 -270 0
-351 48 -159 151 -309 212 -309 l28 0 1 118 c0 64 6 133 12 152 13 38 14 38
111 24 27 -4 134 -1 237 6 l187 13 69 -48 c297 -212 318 -451 69 -807 -85
-122 -170 -327 -153 -371 18 -47 297 31 372 104 27 27 35 8 35 -85 0 -100 13
-126 61 -126 35 0 230 168 276 237 16 24 33 22 33 -4 0 -35 42 -155 64 -179
43 -50 139 11 232 147 27 39 50 64 52 57 65 -258 280 -525 354 -440 53 60 138
320 138 422 0 28 4 25 83 -54 204 -206 282 -208 270 -8 -3 62 -3 112 0 112 4
0 35 -18 69 -41 95 -61 174 -97 267 -120 142 -36 158 -11 87 137 -66 134 -63
140 29 79 153 -103 343 -156 389 -109 23 22 21 31 -25 91 -101 135 -231 466
-170 433 109 -58 95 141 -34 481 -28 76 -50 139 -48 139 2 0 13 -5 24 -11 133
-71 14 269 -165 471 -51 58 -54 64 -23 56 148 -36 24 183 -181 322 l-53 35 31
13 c82 35 -43 159 -252 250 -99 44 -92 38 -79 62 55 103 -520 229 -889 196z
m327 -104 c103 -11 323 -52 367 -69 27 -11 28 -13 12 -30 -41 -46 -11 -79 94
-106 108 -27 260 -93 260 -114 0 -4 -14 -12 -31 -18 -63 -24 -40 -68 74 -139
54 -33 126 -86 160 -117 l62 -56 -51 0 c-99 -1 -94 -31 25 -157 74 -79 142
-172 201 -276 34 -62 32 -65 -33 -47 -86 23 -88 -21 -10 -146 7 -11 19 -33 26
-50 8 -16 24 -50 35 -75 40 -85 79 -195 96 -265 27 -115 27 -108 5 -101 -10 3
-28 9 -38 12 -82 25 -30 -252 93 -491 22 -44 42 -83 44 -87 27 -59 -214 84
-330 194 -94 90 -124 -80 -46 -261 10 -24 16 -46 13 -50 -15 -14 -241 118
-318 186 -69 61 -104 5 -108 -168 -1 -33 -6 -62 -11 -65 -11 -7 -170 154 -189
192 -87 174 -139 156 -150 -53 -10 -174 -66 -393 -100 -393 -57 0 -212 305
-234 460 -14 102 -90 102 -129 0 -30 -77 -144 -240 -168 -240 -10 0 -9 -3 -43
140 -45 190 -78 210 -139 86 -25 -51 -187 -236 -207 -236 -5 0 -9 35 -10 78
-1 158 -36 187 -134 108 -61 -50 -103 -74 -186 -106 -63 -24 -59 -23 -59 -9 0
40 56 130 112 179 33 30 81 85 105 122 52 80 60 81 42 3 -22 -101 43 -72 131
58 33 49 43 43 55 -34 13 -83 30 -87 78 -20 45 62 96 205 104 289 6 65 13 74
35 45 23 -31 78 -77 83 -71 16 16 23 126 14 200 -15 107 13 114 101 26 50 -51
55 -27 13 60 -79 160 -264 271 -566 337 -136 30 -87 40 191 40 270 0 285 3
331 61 65 82 -14 153 -192 173 -54 6 -130 22 -170 36 -40 13 -115 34 -167 45
-241 52 -237 48 -242 243 -5 184 -47 267 -137 267 -33 0 -33 16 2 62 167 218
791 395 1234 348z m-1222 -500 c42 -16 55 -63 55 -202 0 -192 19 -214 222
-267 68 -18 168 -45 223 -61 55 -16 143 -34 195 -41 131 -15 165 -31 142 -65
-24 -36 -64 -40 -342 -29 -214 7 -280 -6 -288 -60 -3 -20 -10 -21 -175 -23
-95 -1 -213 -6 -262 -12 -196 -22 -276 -9 -145 23 36 9 117 30 180 47 244 65
468 80 778 50 118 -11 136 -11 149 3 21 21 8 37 -29 37 -17 0 -94 9 -172 21
-254 38 -574 21 -764 -40 -35 -12 -106 -28 -158 -36 -184 -29 -248 -85 -279
-240 l-11 -60 -18 40 c-32 71 -35 79 -45 133 -48 236 89 506 322 636 77 43 80
43 97 -21 28 -102 70 -163 114 -163 11 0 5 14 -20 52 -19 29 -34 58 -34 66 0
7 -11 35 -25 62 -30 59 -30 66 -7 73 9 3 49 18 87 33 128 49 140 53 162 54 12
0 33 -4 48 -10z M2045 2598 c-27 -4 -135 -32 -240 -62 -279 -80 -393 -95 -443
-60 -47 33 -70 -10 -32 -59 28 -35 97 -59 172 -61 l63 -1 20 -42 c113 -234
470 -182 470 69 0 91 -7 88 111 47 125 -43 360 -27 381 27 9 24 -1 27 -101 25
-126 -3 -168 10 -221 64 -37 39 -58 49 -115 59 -8 1 -37 -1 -65 -6z m-78 -169
c15 -46 3 -98 -32 -145 -76 -100 -263 -54 -268 67 -3 47 33 49 45 2 22 -83
137 -100 176 -26 16 30 15 65 -3 89 -22 29 -18 42 13 47 47 7 57 3 69 -34z
M2796 2242 c-3 -5 25 -32 62 -60 129 -98 135 -115 32 -87 -101 27 -108 10 -22
-54 87 -65 145 -84 97 -31 -18 19 -17 20 4 20 33 0 81 28 81 48 -2 62 -227
207 -254 164z M2056 2174 c-107 -59 -263 -74 -352 -35 -93 42 -90 5 3 -41 118
-58 293 -36 376 46 36 37 20 55 -27 30z M3089 1899 c-18 -11 14 -71 65 -121
44 -44 60 -44 64 -2 5 53 -92 146 -129 123z M2870 1841 c0 -23 105 -121 130
-121 44 0 29 52 -31 103 -48 42 -99 51 -99 18z M2810 1622 c0 -10 20 -45 45
-78 25 -32 55 -74 66 -91 27 -43 59 -44 59 -4 0 34 -69 142 -110 171 -35 25
-60 26 -60 2z M3036 1561 c-3 -5 4 -21 15 -35 20 -26 20 -28 4 -40 -17 -12
-14 -18 31 -79 71 -97 122 -105 110 -19 -12 85 -133 217 -160 173z M3273 1486
c10 -59 59 -151 82 -151 42 0 24 89 -31 154 -36 43 -58 42 -51 -3z M2550 1388
c0 -30 58 -120 73 -115 24 8 18 47 -15 91 -36 50 -58 58 -58 24z M2770 1352
c0 -45 71 -196 96 -206 59 -23 31 117 -38 192 -21 21 -58 31 -58 14z M3046
1221 c-6 -9 14 -74 33 -107 6 -11 17 -36 25 -57 24 -61 84 -59 70 2 -24 102
-103 203 -128 162z M2387 1163 c-9 -16 12 -124 30 -156 23 -38 58 -48 68 -18
17 55 -73 216 -98 174z M3304 1095 c-10 -26 55 -159 84 -170 36 -14 25 70 -18
138 -30 47 -56 60 -66 32z M2596 1023 c15 -86 69 -187 105 -198 54 -17 79 75
49 184 -14 52 -42 41 -38 -15 2 -30 -7 -54 -15 -43 -2 2 -18 28 -36 57 -42 66
-76 74 -65 15z M2936 1011 c-6 -10 7 -58 24 -91 48 -89 95 -64 53 28 -28 62
-61 89 -77 63z M2254 919 c-18 -31 3 -140 37 -183 45 -57 85 -19 74 70 -5 46
-35 83 -35 44 0 -23 -19 -7 -30 24 -13 42 -35 63 -46 45z M1906 881 c-12 -19
-19 -168 -9 -174 21 -13 35 24 37 92 1 67 -13 107 -28 82z M827 2293 c-24 -23
51 -108 113 -128 22 -7 50 14 50 37 -1 49 -133 122 -163 91z"/>
</g>
</svg>
