<?xml version="1.0" standalone="no"?>
<!DOCTYPE svg PUBLIC "-//W3C//DTD SVG 20010904//EN"
 "http://www.w3.org/TR/2001/REC-SVG-20010904/DTD/svg10.dtd">
<svg version="1.0" xmlns="http://www.w3.org/2000/svg" viewBox="0 0 400.000000 386.000000"
 preserveAspectRatio="xMidYMid meet">
<metadata>
Created by potrace 1.16, written by Peter Selinger 2001-2019
</metadata>
<g transform="translate(0.000000,386.000000) scale(0.100000,-0.100000)"
fill="currentColor" stroke="none">
<path d="M2301 3582 c-68 -72 -213 -360 -276 -547 -39 -115 -52 -124 -89 -61
-67 114 -197 249 -352 365 -54 41 -137 103 -183 138 -118 89 -142 85 -160 -27
-35 -214 7 -586 86 -763 26 -57 26 -58 6 -80 -76 -85 -147 -220 -191 -357 -59
-188 -137 -290 -324 -424 -139 -98 -195 -137 -245 -166 -142 -82 -95 -229 107
-334 194 -101 344 -101 715 0 271 73 489 53 574 -54 44 -56 39 -59 -99 -61
-530 -6 -930 -245 -1150 -686 -117 -236 -108 -329 28 -261 190 95 400 106 702
36 923 -214 1330 -143 1813 319 345 330 372 888 59 1210 -65 66 -74 81 -86
135 -50 215 -190 459 -359 627 -69 69 -87 93 -87 115 0 160 -162 543 -359 849
-14 22 -26 41 -27 43 -14 27 -71 18 -103 -16z m105 -179 c125 -206 209 -395
274 -618 19 -66 32 -265 21 -335 -12 -75 -7 -103 18 -98 23 5 48 62 61 142
l12 70 40 -45 c163 -182 284 -438 354 -749 35 -160 62 -175 73 -43 l6 67 30
-45 c225 -336 189 -762 -89 -1048 -282 -291 -627 -429 -1053 -419 -220 4 -219
4 -149 78 81 85 78 102 -27 126 -63 15 -147 52 -147 65 0 4 36 19 79 34 121
40 252 133 238 169 -18 45 -225 129 -369 148 -100 13 -103 16 -50 54 101 74
121 109 80 138 -37 26 0 30 216 20 489 -21 641 -10 778 59 112 55 256 224 246
289 -5 32 -21 32 -41 -1 -69 -117 -235 -227 -385 -255 l-34 -6 9 33 c16 63 9
159 -16 210 -28 59 -24 65 37 48 96 -27 112 -10 72 77 -61 131 -207 203 -440
218 -70 4 -119 12 -127 20 -31 31 -226 25 -338 -11 -22 -7 -53 -16 -70 -19
-33 -8 -227 -79 -290 -106 -22 -10 -83 -37 -135 -60 -52 -23 -110 -48 -128
-56 -125 -57 -382 -59 -382 -3 0 32 -19 79 -32 79 -22 0 -3 30 35 55 271 179
385 310 448 514 101 330 311 535 677 661 78 27 74 33 62 -90 -15 -139 13 -170
46 -52 74 266 153 459 262 644 26 46 51 91 55 101 11 30 24 19 73 -60z m-874
-138 c100 -79 348 -317 348 -334 0 -4 -28 -16 -62 -26 -35 -11 -96 -34 -136
-52 -79 -35 -76 -36 -87 32 -17 98 -80 258 -182 458 -11 21 23 -1 119 -78z
m-185 28 c8 -21 38 -87 65 -148 39 -84 138 -345 138 -362 0 -2 -19 -15 -42
-29 -24 -15 -55 -38 -70 -52 -34 -31 -30 -38 -61 88 -37 149 -57 300 -57 429
0 121 3 130 27 74z m835 -1528 c178 -29 297 -72 376 -135 76 -61 75 -66 -8
-62 -112 7 -126 -22 -59 -117 47 -67 57 -151 26 -224 l-17 -39 -147 6 c-82 4
-176 9 -210 12 l-62 5 -16 55 c-57 197 -312 248 -715 142 -307 -81 -442 -89
-568 -33 -68 30 -71 34 -42 60 16 15 42 18 177 19 183 3 233 15 443 109 427
190 616 236 822 202z m-486 -705 l27 -11 -61 -42 c-78 -54 -140 -132 -125
-155 8 -14 30 -17 124 -19 125 -2 223 -23 324 -68 l60 -26 -25 -19 c-37 -28
-165 -78 -239 -93 -130 -27 -84 -119 97 -193 74 -30 74 -35 5 -74 -72 -41 -73
-41 -318 14 -345 78 -498 87 -687 37 -60 -15 -108 -24 -108 -19 0 56 149 290
249 389 201 202 527 336 677 279z M2380 3311 c0 -5 7 -26 16 -47 28 -66 54
-249 54 -373 -1 -317 -68 -523 -110 -338 -42 179 -80 221 -128 137 -69 -121
-26 155 68 439 67 203 54 241 -30 80 -156 -301 -174 -769 -24 -628 26 24 25
26 45 -51 29 -116 73 -154 138 -123 124 61 165 531 67 772 -37 93 -96 173 -96
132z M1587 2166 c-94 -35 -202 -239 -115 -218 52 13 132 32 179 41 63 13 172
91 177 128 6 44 -163 78 -241 49z M323 1075 c-55 -24 -26 -55 64 -69 56 -8 73
0 73 35 0 47 -69 64 -137 34z M430 833 c-78 -54 -109 -164 -42 -148 88 20 164
155 92 163 -14 1 -36 -5 -50 -15z"/>
</g>
</svg>
