<?xml version="1.0" standalone="no"?>
<!DOCTYPE svg PUBLIC "-//W3C//DTD SVG 20010904//EN"
 "http://www.w3.org/TR/2001/REC-SVG-20010904/DTD/svg10.dtd">
<svg version="1.0" xmlns="http://www.w3.org/2000/svg" viewBox="0 0 400.000000 344.000000"
 preserveAspectRatio="xMidYMid meet">
<metadata>
Created by potrace 1.16, written by Peter Selinger 2001-2019
</metadata>
<g transform="translate(0.000000,344.000000) scale(0.100000,-0.100000)"
fill="currentColor" stroke="none">
<path d="M353 3155 c-55 -39 2 -265 99 -394 24 -32 23 -39 -7 -33 -50 9 -38
-49 25 -126 23 -28 27 -41 23 -71 -9 -63 65 -166 155 -218 26 -15 48 -28 50
-29 2 -1 -16 -29 -40 -62 -213 -288 -319 -814 -243 -1197 18 -94 16 -109 -40
-229 -91 -195 -105 -286 -44 -286 25 0 32 6 45 38 8 20 19 46 24 57 5 11 21
52 36 90 15 39 42 98 62 133 39 71 39 75 7 272 -51 319 12 676 180 1013 83
164 70 155 156 120 88 -35 93 -46 37 -71 -63 -28 -133 -109 -179 -207 -161
-343 -92 -751 168 -996 141 -133 421 -215 431 -126 4 31 -16 42 -138 78 -287
84 -459 350 -447 689 15 430 238 617 482 406 l39 -33 -57 -28 c-102 -50 -166
-143 -175 -252 -25 -310 346 -471 565 -245 52 54 53 40 2 -61 -33 -66 -35 -77
-16 -77 62 0 121 168 107 309 -3 33 -4 61 -3 61 2 0 46 -23 99 -50 127 -66
149 -64 296 27 21 13 39 23 42 23 2 0 5 -49 8 -109 3 -101 6 -113 38 -176 59
-116 103 -120 51 -5 -42 94 -40 115 4 62 147 -170 443 -131 539 73 77 161 -8
379 -165 426 -48 15 -48 18 -1 56 217 174 384 87 463 -242 93 -388 -98 -758
-443 -859 -122 -36 -120 -34 -116 -70 5 -56 128 -47 268 18 248 117 410 395
410 702 0 271 -120 541 -271 610 -31 13 -52 34 -36 34 1 0 36 14 77 31 89 36
76 46 161 -125 175 -349 234 -720 171 -1068 -24 -132 -26 -118 39 -254 26 -56
58 -130 69 -165 29 -85 45 -109 76 -109 60 0 38 109 -64 320 -32 65 -34 126
-13 342 38 381 -67 797 -272 1081 -14 18 -18 31 -11 34 102 36 224 196 193
254 -8 16 -5 26 16 51 65 76 80 145 30 136 -32 -6 -31 0 2 48 104 153 152 352
92 385 -32 16 -60 5 -174 -71 -57 -39 -106 -70 -109 -70 -10 0 -140 -82 -178
-112 -32 -25 -39 -27 -44 -14 -24 61 -174 -61 -263 -214 -24 -41 -45 -77 -47
-78 -1 -2 -49 12 -106 31 -361 122 -857 119 -1227 -8 -98 -33 -89 -37 -146 62
-94 163 -220 265 -253 206 -9 -15 -14 -12 -50 18 -22 19 -80 57 -128 84 -49
27 -128 75 -176 107 -102 67 -125 75 -155 53z m281 -227 c100 -61 241 -161
252 -179 10 -17 34 -9 34 10 0 65 67 -8 164 -177 65 -112 147 -187 162 -148 6
17 -23 66 -39 66 -35 0 24 24 133 55 343 96 766 94 1100 -6 126 -37 117 -30
90 -74 -15 -25 -19 -40 -12 -47 28 -28 112 60 192 203 53 95 123 169 130 139
9 -37 20 -33 98 29 74 59 292 195 300 186 31 -31 -1053 -1118 -1246 -1249
-160 -108 -161 -108 -933 671 -374 378 -497 509 -533 571 -13 21 5 13 108 -50z
m765 -1054 c132 -66 197 -168 170 -267 -76 -285 -499 -237 -499 56 0 175 175
287 329 211z m1158 0 c229 -114 147 -453 -110 -454 -228 -1 -348 244 -185 380
120 102 200 122 295 74z M1227 1766 c-107 -106 -5 -276 141 -236 78 20 113
110 78 195 -34 80 -157 103 -219 41z M2374 1790 c-102 -41 -98 -212 6 -254
123 -49 235 74 179 196 -25 55 -119 85 -185 58z M3513 2425 c-54 -38 -81 -135
-37 -135 48 0 128 79 122 122 -4 29 -52 36 -85 13z M1827 1490 c-52 -41 -107
-189 -107 -285 0 -73 101 -351 138 -382 60 -50 190 315 165 462 -29 171 -119
265 -196 205z M1365 840 c-11 -18 5 -30 128 -90 67 -33 176 -91 242 -130 142
-82 152 -83 251 -25 41 25 77 45 80 45 2 0 27 15 56 33 29 17 102 57 162 87
117 59 140 80 84 80 -88 0 -300 -89 -416 -174 -75 -56 -69 -55 -134 -6 -129
98 -430 218 -453 180z"/>
</g>
</svg>
