<?xml version="1.0" standalone="no"?>
<!DOCTYPE svg PUBLIC "-//W3C//DTD SVG 20010904//EN"
 "http://www.w3.org/TR/2001/REC-SVG-20010904/DTD/svg10.dtd">
<svg version="1.0" xmlns="http://www.w3.org/2000/svg" viewBox="0 0 400.000000 383.000000"
 preserveAspectRatio="xMidYMid meet">
<metadata>
Created by potrace 1.16, written by Peter Selinger 2001-2019
</metadata>
<g transform="translate(0.000000,383.000000) scale(0.100000,-0.100000)"
fill="currentColor" stroke="none">
<path d="M2647 3460 c-319 -54 -542 -242 -727 -615 -60 -119 -65 -127 -134
-180 -70 -53 -98 -83 -126 -135 -10 -17 -16 -80 -20 -195 -9 -261 -83 -357
-280 -359 -219 -3 -248 159 -77 418 104 155 132 252 108 365 -54 254 -437 297
-517 58 -39 -118 33 -185 108 -98 56 65 113 77 160 34 35 -32 19 -115 -24
-127 -30 -8 -60 -51 -68 -95 -4 -31 -15 -43 -75 -83 -72 -49 -104 -94 -105
-148 0 -14 -16 -50 -36 -80 -37 -57 -46 -166 -16 -202 5 -7 15 -40 22 -73 6
-33 21 -73 32 -88 26 -38 19 -42 -34 -19 -275 125 -515 72 -614 -137 -108
-227 88 -508 284 -407 93 48 94 152 1 140 -54 -7 -98 23 -100 68 -5 105 43
138 135 93 48 -23 60 -26 87 -16 34 12 89 -15 89 -44 0 -37 98 -93 142 -82 32
9 98 -11 131 -37 l29 -23 -114 -55 c-228 -111 -327 -216 -374 -398 -53 -208
91 -439 273 -440 149 0 201 130 62 154 -51 9 -83 37 -97 84 -17 56 -17 58 32
106 29 27 48 57 55 84 14 51 22 56 87 53 59 -3 87 9 122 50 24 29 55 38 67 19
21 -34 136 -2 177 48 15 19 45 37 87 51 84 27 81 28 81 -26 0 -74 24 -159 76
-268 105 -225 112 -329 28 -406 -81 -74 -222 -7 -171 81 31 52 13 110 -34 110
-117 0 -185 -164 -123 -295 117 -248 524 -206 659 68 59 120 69 295 20 370 -8
13 -13 46 -13 80 0 44 -5 65 -24 95 -40 62 -34 224 11 259 40 32 61 72 61 119
0 25 7 46 22 61 l21 23 18 -52 c10 -29 23 -54 29 -56 29 -10 60 -58 60 -94 0
-61 75 -128 144 -128 19 0 32 -10 50 -39 35 -55 62 -71 121 -71 59 0 65 -4 87
-52 12 -26 27 -40 52 -49 41 -15 42 -18 20 -61 -11 -22 -14 -43 -9 -75 12 -80
-69 -132 -133 -87 -30 21 -29 64 4 93 73 64 -60 126 -146 68 -181 -121 -32
-407 212 -407 364 0 517 479 248 773 l-52 57 30 0 c16 0 51 -9 77 -21 55 -24
102 -21 166 11 46 24 57 25 98 4 31 -16 58 -15 137 1 28 6 35 3 64 -34 20 -24
47 -45 69 -52 116 -37 59 -249 -67 -249 -33 0 -82 52 -82 87 0 105 -111 88
-141 -21 -68 -252 298 -380 501 -177 279 279 45 781 -362 781 -21 0 -38 2 -38
5 0 12 107 111 136 126 38 20 74 91 74 146 0 28 6 46 21 59 32 28 67 94 75
139 17 100 146 128 188 41 37 -78 -2 -136 -90 -136 -102 0 -46 -129 60 -138
301 -25 341 422 50 564 -200 98 -389 5 -524 -259 -136 -264 -268 -351 -442
-291 -179 61 -178 231 2 306 36 15 99 41 141 58 280 114 437 303 498 598 85
414 -267 746 -712 672z m288 -94 c334 -92 446 -406 273 -766 -78 -163 -204
-260 -483 -375 -186 -77 -237 -142 -238 -310 -3 -264 189 -402 578 -415 206
-7 236 -12 341 -62 234 -109 286 -435 97 -608 -147 -134 -364 -79 -363 92 l1
43 19 -36 c57 -109 174 -124 268 -36 60 56 84 185 48 256 -9 16 -16 39 -16 50
0 68 -57 111 -146 108 -55 -2 -63 0 -85 27 -37 43 -113 48 -156 12 -36 -30
-78 -34 -106 -8 -30 27 -118 24 -151 -7 -32 -30 -65 -23 -96 22 -38 56 -111
74 -159 41 -43 -31 -116 77 -166 246 -32 107 -55 101 -55 -15 1 -140 84 -268
272 -414 199 -155 268 -329 200 -503 -86 -216 -374 -294 -481 -131 -44 67 -33
165 21 194 25 14 32 6 19 -19 -80 -149 173 -250 271 -108 12 17 34 46 50 64
35 41 37 91 4 148 -13 22 -26 63 -29 90 -6 59 -32 84 -88 84 -42 0 -89 24 -89
44 0 31 -58 68 -109 70 -59 3 -69 11 -91 68 -13 36 -23 45 -65 63 -63 25 -63
25 -58 99 6 63 -16 99 -69 119 -10 3 -10 9 1 28 35 58 44 86 49 149 7 97 -9
93 -61 -14 -41 -85 -58 -107 -166 -216 -121 -121 -121 -122 -121 -169 0 -39
-5 -52 -30 -76 -29 -28 -53 -84 -45 -108 2 -7 6 -25 10 -40 3 -16 17 -39 30
-51 24 -23 25 -24 11 -71 -17 -56 -10 -84 36 -127 27 -26 30 -31 19 -54 -20
-45 -14 -84 19 -114 l30 -28 -35 -35 c-38 -38 -43 -66 -21 -109 17 -33 0 -65
-66 -123 -180 -159 -485 -62 -452 144 9 55 20 60 27 10 16 -119 143 -192 245
-140 165 84 186 260 62 517 -112 235 -106 373 26 579 119 185 135 213 154 263
46 122 7 157 -48 44 -17 -37 -70 -118 -116 -180 -46 -62 -99 -144 -118 -182
-31 -66 -35 -70 -68 -70 -52 -1 -114 -39 -118 -73 -5 -39 -43 -56 -113 -50
-52 5 -57 3 -92 -30 -42 -40 -92 -53 -131 -36 -39 18 -102 -3 -126 -43 -18
-30 -95 -88 -116 -88 -29 0 -75 -71 -74 -113 1 -23 -1 -58 -5 -77 -16 -82 46
-185 128 -213 40 -14 41 -15 16 -22 -107 -28 -227 99 -237 250 -13 206 114
350 423 478 322 133 525 295 605 481 39 91 16 104 -43 22 -99 -138 -226 -251
-348 -311 l-55 -27 -28 26 c-35 32 -88 43 -133 27 -49 -18 -88 -6 -112 34 -29
50 -66 70 -131 70 -59 1 -90 10 -90 29 -3 76 -183 79 -293 3 -107 -74 -75
-258 51 -283 47 -10 26 -27 -25 -21 -169 19 -210 263 -67 399 97 92 238 104
399 33 361 -161 686 -79 883 220 74 114 94 185 90 333 -3 146 7 171 104 249
86 68 114 107 190 258 134 268 279 410 503 494 112 42 308 55 410 27z m-1705
-491 c131 -89 127 -225 -14 -438 -205 -309 -153 -516 134 -536 l85 -6 -62 -37
c-186 -111 -353 -103 -358 15 -2 59 -30 98 -76 111 -46 13 -45 11 -15 46 34
41 39 113 10 157 -21 34 -18 42 26 59 48 19 80 67 80 119 0 39 35 85 65 85 71
0 105 64 121 230 13 132 -139 220 -245 142 -40 -29 -42 -6 -3 30 71 69 170 77
252 23z m-60 -309 c0 -20 -22 -56 -35 -56 -18 0 -19 14 -5 41 9 16 40 28 40
15z m-180 -211 c0 -8 -10 -25 -22 -37 -29 -29 -40 2 -12 33 21 23 34 24 34 4z
m2665 -44 c190 -85 214 -387 34 -426 -44 -10 -45 -1 -4 24 47 27 69 78 63 149
-13 152 -192 206 -306 92 -15 -15 -38 -29 -52 -33 -63 -16 -122 -148 -72 -164
31 -11 12 -52 -33 -72 -53 -23 -85 -70 -85 -123 0 -50 -21 -68 -75 -66 -54 3
-92 -22 -118 -77 l-18 -38 -64 7 c-150 15 -283 96 -340 206 l-15 29 47 -29
c220 -136 451 -36 598 258 133 264 263 342 440 263z m-2753 -192 c-6 -55 -42
-64 -42 -10 0 29 18 54 35 48 5 -2 8 -19 7 -38z m2504 -74 c7 -16 -20 -65 -35
-65 -18 0 -21 33 -6 56 18 28 33 31 41 9z m-2452 -131 c22 -21 20 -44 -4 -44
-18 0 -40 26 -40 49 0 16 26 13 44 -5z m2356 -111 c0 -20 -28 -53 -47 -53 -16
0 -17 24 -1 50 16 24 48 26 48 3z m-2692 -151 c3 -10 -4 -13 -24 -10 -15 2
-29 9 -32 16 -3 10 4 13 24 10 15 -2 29 -9 32 -16z m2512 -21 c0 -5 -14 -19
-31 -32 -38 -27 -64 -12 -34 21 18 20 65 28 65 11z m-2286 -72 c29 -23 26 -39
-8 -39 -28 0 -50 24 -42 45 7 20 18 19 50 -6z m274 -101 c4 -21 -27 -24 -59
-8 -31 17 -22 31 18 28 27 -2 39 -8 41 -20z m998 -52 c9 -35 -5 -54 -23 -31
-7 11 -13 27 -13 37 0 27 29 22 36 -6z m549 -60 c20 -14 15 -46 -8 -46 -16 0
-57 36 -57 50 0 15 43 12 65 -4z m-765 -30 c0 -16 -26 -46 -41 -46 -14 0 -11
22 8 42 19 22 33 23 33 4z m1271 3 c42 -22 0 -47 -48 -28 -27 10 -27 11 -9 25
24 17 31 17 57 3z m-236 -29 c0 -18 -62 -27 -77 -12 -18 18 3 33 40 30 25 -2
37 -8 37 -18z m-1465 -30 c0 -16 -43 -50 -62 -50 -23 0 -23 22 0 42 30 27 62
30 62 8z m1920 -20 c20 -20 19 -40 -1 -40 -15 0 -50 40 -44 50 9 15 23 12 45
-10z m-1157 -28 c22 -20 22 -42 -1 -42 -25 0 -56 35 -48 55 6 17 17 14 49 -13z
m-985 -74 c-7 -21 -53 -42 -74 -34 -18 7 -18 8 5 27 26 21 75 26 69 7z m560
-49 c-2 -19 -7 -34 -12 -34 -15 0 -24 39 -14 64 12 34 30 13 26 -30z m622 -7
c23 -19 21 -42 -4 -42 -22 0 -60 36 -52 48 10 17 30 15 56 -6z m-1435 -2 c10
-16 -15 -40 -41 -40 -30 0 -31 14 -2 34 26 19 35 20 43 6z m1629 -122 c5 -9 8
-20 4 -23 -9 -9 -48 18 -48 33 0 18 30 11 44 -10z m-1830 -16 c3 -5 -2 -19
-11 -31 -20 -29 -40 -13 -24 18 12 22 26 27 35 13z m1054 -66 c3 -20 0 -27
-10 -24 -7 3 -14 17 -16 32 -3 20 0 27 10 24 7 -3 14 -17 16 -32z m827 -96 c0
-13 -6 -25 -12 -27 -16 -6 -27 21 -19 43 9 23 31 11 31 -16z m-777 -89 c3 -16
-1 -22 -10 -19 -7 3 -15 15 -16 27 -3 16 1 22 10 19 7 -3 15 -15 16 -27z m-8
-143 c0 -25 -12 -58 -21 -58 -10 0 -12 31 -3 54 7 19 24 21 24 4z M2681 3311
c-28 -8 -35 -20 -22 -40 15 -23 116 -2 116 24 0 22 -47 30 -94 16z M2500 3246
c-136 -48 -351 -259 -308 -302 18 -19 20 -18 108 82 48 55 141 127 203 159 90
47 87 94 -3 61z M2142 2908 c-34 -44 -47 -98 -23 -98 10 0 51 74 51 94 0 19
-14 21 -28 4z M2349 2389 c-86 -50 -94 -199 -11 -199 30 0 79 46 87 80 4 19
17 36 35 45 36 19 44 42 25 71 -20 31 -85 32 -136 3z M1643 3274 c-18 -8 -49
-64 -56 -101 -15 -78 81 -49 111 33 23 62 0 90 -55 68z M3067 407 c-12 -31 79
-97 133 -97 45 0 58 33 26 63 -42 39 -148 62 -159 34z"/>
</g>
</svg>
