<?xml version="1.0" standalone="no"?>
<!DOCTYPE svg PUBLIC "-//W3C//DTD SVG 20010904//EN"
 "http://www.w3.org/TR/2001/REC-SVG-20010904/DTD/svg10.dtd">
<svg version="1.0" xmlns="http://www.w3.org/2000/svg" viewBox="0 0 373.000000 400.000000"
 preserveAspectRatio="xMidYMid meet">
<metadata>
Created by potrace 1.16, written by Peter Selinger 2001-2019
</metadata>
<g transform="translate(0.000000,400.000000) scale(0.100000,-0.100000)"
fill="currentColor" stroke="none">
<path d="M2058 3753 c-26 -30 -46 -77 -73 -170 -30 -106 -105 -325 -114 -334
-3 -4 -36 -9 -73 -12 l-67 -5 -3 37 c-3 41 -48 54 -111 32 -28 -10 -34 -8 -76
27 -25 21 -75 58 -111 82 -97 65 -198 147 -260 211 -94 97 -127 96 -177 -2
-58 -115 -52 -451 12 -695 21 -81 21 -82 -35 -148 -82 -95 -160 -225 -160
-265 0 -5 -16 -26 -37 -46 l-36 -35 6 -150 c9 -205 2 -217 -228 -414 -44 -37
-123 -109 -175 -160 -52 -50 -133 -125 -178 -166 -158 -142 -152 -210 37 -422
36 -42 144 -108 185 -115 29 -4 40 -13 52 -39 70 -147 368 -172 678 -57 l118
44 39 -26 c80 -53 122 -140 134 -280 15 -176 43 -205 121 -125 22 22 42 40 46
40 15 0 39 -76 45 -138 9 -98 47 -118 117 -61 l38 32 -2 -44 c-5 -122 11 -136
112 -99 207 73 426 233 560 409 l26 34 7 -57 c9 -69 23 -78 80 -47 88 47 256
256 315 393 30 68 30 69 55 21 58 -113 86 -101 177 77 62 122 81 165 103 240
9 30 20 69 26 86 5 18 12 68 16 113 7 95 12 98 73 36 44 -44 81 -57 96 -33 30
49 -25 379 -81 488 -21 41 -20 43 23 35 74 -12 77 47 11 191 -51 110 -212 334
-240 334 -22 0 -6 21 21 26 121 25 -106 249 -374 369 -83 38 -85 39 -96 84
-82 326 -520 821 -622 704z m187 -200 c105 -102 183 -211 264 -369 22 -45 41
-85 41 -89 0 -4 6 -21 14 -38 43 -95 69 -223 86 -422 22 -243 84 -158 83 113
-1 72 2 132 6 132 27 0 270 -161 293 -194 9 -13 -10 -26 -39 -26 -61 0 -51
-60 20 -120 140 -117 306 -364 232 -346 -64 16 -105 -30 -71 -79 42 -61 150
-384 134 -400 -2 -3 -28 5 -57 17 -79 34 -84 27 -97 -129 -13 -145 -41 -252
-104 -388 -47 -102 -52 -105 -87 -54 -57 85 -105 78 -132 -19 -30 -107 -112
-248 -201 -346 l-54 -58 -11 56 c-24 118 -57 121 -140 11 -136 -181 -296 -324
-441 -395 -96 -47 -104 -48 -104 -12 -1 129 -79 201 -136 126 l-28 -36 -12 33
c-57 162 -124 226 -172 165 -23 -30 -32 -24 -32 19 0 77 -39 161 -109 237 -42
45 -42 45 50 64 103 22 204 15 270 -19 64 -34 69 -34 69 2 0 160 -303 169
-695 19 -218 -83 -356 -100 -455 -55 l-35 15 90 1 c130 1 235 34 423 133 126
65 171 83 245 99 88 18 107 28 107 59 0 37 -18 45 -97 44 -85 -1 -67 6 -323
-126 -224 -115 -437 -149 -597 -94 -58 19 -77 76 -37 108 86 68 124 137 124
225 0 57 -90 123 -168 123 -53 0 -36 19 223 250 261 232 270 248 262 438 l-4
127 50 105 c87 182 243 368 392 470 28 18 88 66 135 104 88 74 184 146 193
146 3 0 8 -18 12 -39 9 -53 23 -56 117 -26 96 30 98 30 70 -38 -46 -115 -48
-167 -6 -167 13 0 64 59 64 74 0 5 12 31 26 60 59 116 121 286 184 506 35 121
43 121 165 3z m-1078 -72 c24 -25 254 -196 299 -223 l37 -22 -25 -20 c-90 -75
-146 -116 -156 -116 -6 0 -16 17 -23 37 -6 21 -45 106 -85 189 -83 172 -93
203 -47 155z m-87 -22 c0 -5 16 -43 35 -85 19 -41 35 -77 35 -79 0 -2 20 -46
45 -98 25 -53 45 -102 45 -109 0 -8 5 -19 11 -25 8 -8 -11 -29 -68 -76 -92
-78 -84 -87 -113 109 -19 129 -28 363 -14 377 8 8 24 -1 24 -14z m-695 -2023
c66 -28 50 -145 -19 -132 -42 8 -55 -6 -63 -73 -7 -64 -9 -64 -71 8 -92 106
-101 159 -32 196 33 19 142 19 185 1z M2172 3418 c-15 -15 -15 -52 -2 -98 30
-101 -1 -444 -35 -390 -12 19 -54 11 -70 -14 -32 -48 -15 -216 24 -240 28 -18
51 14 51 69 l0 55 29 -6 c46 -9 60 22 101 219 6 32 14 56 17 54 12 -12 24
-100 33 -231 15 -247 85 -328 97 -114 19 329 -145 796 -245 696z M1195 2461
c-66 -40 -122 -133 -132 -221 -10 -88 34 -135 58 -62 37 116 98 203 128 185
31 -19 41 -17 104 28 77 55 79 90 2 63 -51 -18 -52 -18 -58 6 -7 26 -60 27
-102 1z M2452 2391 c-9 -5 2 -26 36 -72 169 -224 211 -324 116 -274 -84 44
-117 -1 -69 -94 43 -81 83 -251 59 -251 -3 0 -22 11 -42 25 -74 51 -92 32 -92
-98 0 -183 -41 -303 -79 -229 -41 80 -82 72 -116 -23 -17 -51 -80 -162 -100
-180 -33 -28 -67 -87 -58 -96 29 -29 129 39 188 129 31 47 40 44 50 -20 26
-153 188 95 203 310 6 85 11 88 51 22 92 -150 143 130 65 353 -18 50 -15 53
30 32 49 -23 66 -15 66 32 -1 125 -247 472 -308 434z M1324 2226 c-34 -15 -80
-66 -110 -124 -11 -20 -27 -47 -35 -60 -28 -45 24 -81 64 -44 16 15 42 22 96
27 41 3 88 12 105 19 38 16 159 141 154 159 -11 32 -213 49 -274 23z M3232
822 c-36 -18 -51 -54 -31 -78 14 -17 115 -12 151 7 88 47 -29 116 -120 71z
M2969 596 c-34 -74 55 -238 106 -196 17 14 20 88 5 139 -21 73 -88 107 -111
57z"/>
</g>
</svg>
